<svg width="245" height="194" viewBox="0 0 245 194" fill="none" xmlns="http://www.w3.org/2000/svg">
<path d="M74 156H168" stroke="#0066FF"/>
<path d="M74 126H168" stroke="#0066FF"/>
<path d="M74 95L168 66" stroke="#0066FF"/>
<path d="M74 126L168 96" stroke="#0066FF"/>
<path d="M74 66H168" stroke="#FF007A"/>
<path d="M74 66L168 96" stroke="#FF007A"/>
<path d="M74 96L168 126" stroke="#FF007A"/>
<path d="M74 126L168 156" stroke="#FF007A"/>
<path d="M156.727 37.0098H154.565L154.553 36.1016H156.516C156.84 36.1016 157.123 36.0469 157.366 35.9375C157.608 35.8281 157.795 35.6719 157.928 35.4688C158.065 35.2617 158.133 35.0156 158.133 34.7305C158.133 34.418 158.073 34.1641 157.952 33.9688C157.834 33.7695 157.653 33.625 157.407 33.5352C157.164 33.4414 156.856 33.3945 156.481 33.3945H154.817V41H153.686V32.4688H156.481C156.918 32.4688 157.309 32.5137 157.653 32.6035C157.996 32.6895 158.287 32.8262 158.526 33.0137C158.768 33.1973 158.952 33.4316 159.077 33.7168C159.202 34.002 159.264 34.3438 159.264 34.7422C159.264 35.0938 159.174 35.4121 158.994 35.6973C158.815 35.9785 158.565 36.209 158.244 36.3887C157.928 36.5684 157.557 36.6836 157.131 36.7344L156.727 37.0098ZM156.674 41H154.119L154.758 40.0801H156.674C157.034 40.0801 157.338 40.0176 157.588 39.8926C157.842 39.7676 158.035 39.5918 158.168 39.3652C158.301 39.1348 158.368 38.8633 158.368 38.5508C158.368 38.2344 158.311 37.9609 158.198 37.7305C158.084 37.5 157.907 37.3223 157.664 37.1973C157.422 37.0723 157.11 37.0098 156.727 37.0098H155.116L155.127 36.1016H157.33L157.571 36.4297C157.981 36.4648 158.328 36.582 158.614 36.7812C158.899 36.9766 159.116 37.2266 159.264 37.5312C159.416 37.8359 159.493 38.1719 159.493 38.5391C159.493 39.0703 159.375 39.5195 159.141 39.8867C158.91 40.25 158.584 40.5273 158.162 40.7188C157.741 40.9062 157.244 41 156.674 41ZM162.78 40.3438L164.543 34.6602H165.703L163.16 41.9785C163.102 42.1348 163.024 42.3027 162.926 42.4824C162.832 42.666 162.711 42.8398 162.563 43.0039C162.414 43.168 162.235 43.3008 162.024 43.4023C161.817 43.5078 161.569 43.5605 161.28 43.5605C161.194 43.5605 161.084 43.5488 160.952 43.5254C160.819 43.502 160.725 43.4824 160.67 43.4668L160.664 42.5879C160.696 42.5918 160.744 42.5957 160.811 42.5996C160.881 42.6074 160.93 42.6113 160.957 42.6113C161.203 42.6113 161.412 42.5781 161.584 42.5117C161.756 42.4492 161.901 42.3418 162.018 42.1895C162.139 42.041 162.243 41.8359 162.328 41.5742L162.78 40.3438ZM161.485 34.6602L163.131 39.582L163.412 40.7246L162.633 41.123L160.301 34.6602H161.485ZM170.707 34.6602H171.692V40.8652C171.692 41.4238 171.578 41.9004 171.352 42.2949C171.125 42.6895 170.809 42.9883 170.403 43.1914C170 43.3984 169.535 43.502 169.008 43.502C168.789 43.502 168.532 43.4668 168.235 43.3965C167.942 43.3301 167.653 43.2148 167.368 43.0508C167.086 42.8906 166.85 42.6738 166.659 42.4004L167.227 41.7559C167.493 42.0762 167.77 42.2988 168.059 42.4238C168.352 42.5488 168.641 42.6113 168.926 42.6113C169.27 42.6113 169.567 42.5469 169.817 42.418C170.067 42.2891 170.26 42.0977 170.397 41.8438C170.537 41.5938 170.608 41.2852 170.608 40.918V36.0547L170.707 34.6602ZM166.342 37.9004V37.7773C166.342 37.293 166.399 36.8535 166.512 36.459C166.629 36.0605 166.795 35.7188 167.01 35.4336C167.229 35.1484 167.493 34.9297 167.801 34.7773C168.11 34.6211 168.457 34.543 168.844 34.543C169.243 34.543 169.59 34.6133 169.887 34.7539C170.188 34.8906 170.442 35.0918 170.649 35.3574C170.86 35.6191 171.026 35.9355 171.147 36.3066C171.268 36.6777 171.352 37.0977 171.399 37.5664V38.1055C171.356 38.5703 171.272 38.9883 171.147 39.3594C171.026 39.7305 170.86 40.0469 170.649 40.3086C170.442 40.5703 170.188 40.7715 169.887 40.9121C169.586 41.0488 169.235 41.1172 168.832 41.1172C168.453 41.1172 168.11 41.0371 167.801 40.877C167.496 40.7168 167.235 40.4922 167.016 40.2031C166.797 39.9141 166.629 39.5742 166.512 39.1836C166.399 38.7891 166.342 38.3613 166.342 37.9004ZM167.426 37.7773V37.9004C167.426 38.2168 167.457 38.5137 167.52 38.791C167.586 39.0684 167.686 39.3125 167.819 39.5234C167.955 39.7344 168.129 39.9004 168.34 40.0215C168.551 40.1387 168.803 40.1973 169.096 40.1973C169.455 40.1973 169.752 40.1211 169.987 39.9688C170.221 39.8164 170.407 39.6152 170.543 39.3652C170.684 39.1152 170.793 38.8438 170.871 38.5508V37.1387C170.828 36.9238 170.762 36.7168 170.672 36.5176C170.586 36.3145 170.473 36.1348 170.332 35.9785C170.196 35.8184 170.026 35.6914 169.823 35.5977C169.619 35.5039 169.381 35.457 169.108 35.457C168.811 35.457 168.555 35.5195 168.34 35.6445C168.129 35.7656 167.955 35.9336 167.819 36.1484C167.686 36.3594 167.586 36.6055 167.52 36.8867C167.457 37.1641 167.426 37.4609 167.426 37.7773ZM177.446 34.6602H178.43V40.8652C178.43 41.4238 178.317 41.9004 178.09 42.2949C177.864 42.6895 177.547 42.9883 177.141 43.1914C176.739 43.3984 176.274 43.502 175.746 43.502C175.528 43.502 175.27 43.4668 174.973 43.3965C174.68 43.3301 174.391 43.2148 174.106 43.0508C173.825 42.8906 173.588 42.6738 173.397 42.4004L173.965 41.7559C174.231 42.0762 174.508 42.2988 174.797 42.4238C175.09 42.5488 175.379 42.6113 175.664 42.6113C176.008 42.6113 176.305 42.5469 176.555 42.418C176.805 42.2891 176.998 42.0977 177.135 41.8438C177.276 41.5938 177.346 41.2852 177.346 40.918V36.0547L177.446 34.6602ZM173.08 37.9004V37.7773C173.08 37.293 173.137 36.8535 173.25 36.459C173.368 36.0605 173.534 35.7188 173.748 35.4336C173.967 35.1484 174.231 34.9297 174.539 34.7773C174.848 34.6211 175.196 34.543 175.582 34.543C175.981 34.543 176.328 34.6133 176.625 34.7539C176.926 34.8906 177.18 35.0918 177.387 35.3574C177.598 35.6191 177.764 35.9355 177.885 36.3066C178.006 36.6777 178.09 37.0977 178.137 37.5664V38.1055C178.094 38.5703 178.01 38.9883 177.885 39.3594C177.764 39.7305 177.598 40.0469 177.387 40.3086C177.18 40.5703 176.926 40.7715 176.625 40.9121C176.325 41.0488 175.973 41.1172 175.571 41.1172C175.192 41.1172 174.848 41.0371 174.539 40.877C174.235 40.7168 173.973 40.4922 173.754 40.2031C173.535 39.9141 173.368 39.5742 173.25 39.1836C173.137 38.7891 173.08 38.3613 173.08 37.9004ZM174.164 37.7773V37.9004C174.164 38.2168 174.196 38.5137 174.258 38.791C174.325 39.0684 174.424 39.3125 174.557 39.5234C174.694 39.7344 174.868 39.9004 175.078 40.0215C175.289 40.1387 175.541 40.1973 175.834 40.1973C176.194 40.1973 176.491 40.1211 176.725 39.9688C176.959 39.8164 177.145 39.6152 177.282 39.3652C177.422 39.1152 177.532 38.8438 177.61 38.5508V37.1387C177.567 36.9238 177.5 36.7168 177.41 36.5176C177.325 36.3145 177.211 36.1348 177.071 35.9785C176.934 35.8184 176.764 35.6914 176.561 35.5977C176.358 35.5039 176.119 35.457 175.846 35.457C175.549 35.457 175.293 35.5195 175.078 35.6445C174.868 35.7656 174.694 35.9336 174.557 36.1484C174.424 36.3594 174.325 36.6055 174.258 36.8867C174.196 37.1641 174.164 37.4609 174.164 37.7773ZM182.707 41.1172C182.266 41.1172 181.866 41.043 181.506 40.8945C181.151 40.7422 180.844 40.5293 180.586 40.2559C180.332 39.9824 180.137 39.6582 180 39.2832C179.864 38.9082 179.795 38.498 179.795 38.0527V37.8066C179.795 37.291 179.871 36.832 180.024 36.4297C180.176 36.0234 180.383 35.6797 180.645 35.3984C180.907 35.1172 181.203 34.9043 181.535 34.7598C181.868 34.6152 182.211 34.543 182.567 34.543C183.02 34.543 183.41 34.6211 183.739 34.7773C184.071 34.9336 184.342 35.1523 184.553 35.4336C184.764 35.7109 184.92 36.0391 185.022 36.418C185.123 36.793 185.174 37.2031 185.174 37.6484V38.1348H180.44V37.25H184.09V37.168C184.075 36.8867 184.016 36.6133 183.914 36.3477C183.817 36.082 183.66 35.8633 183.446 35.6914C183.231 35.5195 182.938 35.4336 182.567 35.4336C182.321 35.4336 182.094 35.4863 181.887 35.5918C181.68 35.6934 181.502 35.8457 181.354 36.0488C181.205 36.252 181.09 36.5 181.008 36.793C180.926 37.0859 180.885 37.4238 180.885 37.8066V38.0527C180.885 38.3535 180.926 38.6367 181.008 38.9023C181.094 39.1641 181.217 39.3945 181.377 39.5938C181.541 39.793 181.739 39.9492 181.969 40.0625C182.203 40.1758 182.469 40.2324 182.766 40.2324C183.149 40.2324 183.473 40.1543 183.739 39.998C184.004 39.8418 184.237 39.6328 184.436 39.3711L185.092 39.8926C184.955 40.0996 184.782 40.2969 184.571 40.4844C184.36 40.6719 184.1 40.8242 183.791 40.9414C183.487 41.0586 183.125 41.1172 182.707 41.1172ZM187.524 35.6562V41H186.44V34.6602H187.494L187.524 35.6562ZM189.504 34.625L189.498 35.6328C189.409 35.6133 189.323 35.6016 189.241 35.5977C189.162 35.5898 189.073 35.5859 188.971 35.5859C188.721 35.5859 188.5 35.625 188.309 35.7031C188.118 35.7812 187.955 35.8906 187.823 36.0312C187.69 36.1719 187.584 36.3398 187.506 36.5352C187.432 36.7266 187.383 36.9375 187.36 37.168L187.055 37.3438C187.055 36.9609 187.092 36.6016 187.166 36.2656C187.244 35.9297 187.364 35.6328 187.524 35.375C187.684 35.1133 187.887 34.9102 188.133 34.7656C188.383 34.6172 188.68 34.543 189.024 34.543C189.102 34.543 189.192 34.5527 189.293 34.5723C189.395 34.5879 189.465 34.6055 189.504 34.625ZM193.817 37.6543H191.537V36.7344H193.817C194.258 36.7344 194.616 36.6641 194.889 36.5234C195.162 36.3828 195.362 36.1875 195.487 35.9375C195.616 35.6875 195.68 35.4023 195.68 35.082C195.68 34.7891 195.616 34.5137 195.487 34.2559C195.362 33.998 195.162 33.791 194.889 33.6348C194.616 33.4746 194.258 33.3945 193.817 33.3945H191.801V41H190.67V32.4688H193.817C194.461 32.4688 195.006 32.5801 195.452 32.8027C195.897 33.0254 196.235 33.334 196.465 33.7285C196.696 34.1191 196.811 34.5664 196.811 35.0703C196.811 35.6172 196.696 36.084 196.465 36.4707C196.235 36.8574 195.897 37.1523 195.452 37.3555C195.006 37.5547 194.461 37.6543 193.817 37.6543ZM201.744 39.916V36.6523C201.744 36.4023 201.694 36.1855 201.592 36.002C201.494 35.8145 201.346 35.6699 201.147 35.5684C200.948 35.4668 200.702 35.416 200.409 35.416C200.135 35.416 199.895 35.4629 199.688 35.5566C199.485 35.6504 199.325 35.7734 199.207 35.9258C199.094 36.0781 199.037 36.2422 199.037 36.418H197.953C197.953 36.1914 198.012 35.9668 198.129 35.7441C198.246 35.5215 198.414 35.3203 198.633 35.1406C198.856 34.957 199.121 34.8125 199.43 34.707C199.743 34.5977 200.09 34.543 200.473 34.543C200.934 34.543 201.34 34.6211 201.692 34.7773C202.047 34.9336 202.325 35.1699 202.524 35.4863C202.727 35.7988 202.828 36.1914 202.828 36.6641V39.6172C202.828 39.8281 202.846 40.0527 202.881 40.291C202.92 40.5293 202.977 40.7344 203.051 40.9062V41H201.92C201.866 40.875 201.823 40.709 201.791 40.502C201.76 40.291 201.744 40.0957 201.744 39.916ZM201.932 37.1562L201.944 37.918H200.848C200.539 37.918 200.264 37.9434 200.022 37.9941C199.78 38.041 199.577 38.1133 199.412 38.2109C199.248 38.3086 199.123 38.4316 199.037 38.5801C198.952 38.7246 198.909 38.8945 198.909 39.0898C198.909 39.2891 198.953 39.4707 199.043 39.6348C199.133 39.7988 199.268 39.9297 199.448 40.0273C199.631 40.1211 199.856 40.168 200.121 40.168C200.453 40.168 200.746 40.0977 201 39.957C201.254 39.8164 201.455 39.6445 201.604 39.4414C201.756 39.2383 201.838 39.041 201.85 38.8496L202.313 39.3711C202.285 39.5352 202.211 39.7168 202.09 39.916C201.969 40.1152 201.807 40.3066 201.604 40.4902C201.405 40.6699 201.166 40.8203 200.889 40.9414C200.616 41.0586 200.307 41.1172 199.963 41.1172C199.534 41.1172 199.157 41.0332 198.832 40.8652C198.512 40.6973 198.262 40.4727 198.082 40.1914C197.907 39.9062 197.819 39.5879 197.819 39.2363C197.819 38.8965 197.885 38.5977 198.018 38.3398C198.151 38.0781 198.342 37.8613 198.592 37.6895C198.842 37.5137 199.143 37.3809 199.494 37.291C199.846 37.2012 200.239 37.1562 200.672 37.1562H201.932ZM199.33 32.6797C199.33 32.4531 199.385 32.248 199.494 32.0645C199.608 31.8809 199.758 31.7344 199.946 31.625C200.137 31.5156 200.352 31.4609 200.59 31.4609C200.946 31.4609 201.244 31.5801 201.487 31.8184C201.729 32.0566 201.85 32.3438 201.85 32.6797C201.85 32.9062 201.793 33.1113 201.68 33.2949C201.571 33.4746 201.42 33.6172 201.229 33.7227C201.041 33.8242 200.828 33.875 200.59 33.875C200.235 33.875 199.936 33.7617 199.694 33.5352C199.452 33.3086 199.33 33.0234 199.33 32.6797ZM199.91 32.6797C199.91 32.8516 199.973 33.0078 200.098 33.1484C200.227 33.2852 200.391 33.3535 200.59 33.3535C200.789 33.3535 200.952 33.2871 201.077 33.1543C201.205 33.0176 201.27 32.8594 201.27 32.6797C201.27 32.4961 201.205 32.3359 201.077 32.1992C200.952 32.0586 200.789 31.9883 200.59 31.9883C200.391 31.9883 200.227 32.0586 200.098 32.1992C199.973 32.3359 199.91 32.4961 199.91 32.6797Z" fill="black"/>
<rect x="166" y="63" width="6" height="6" fill="black"/>
<path d="M180.82 61H181.91V68.7695L181.816 70H180.82V61ZM186.193 66.7773V66.9004C186.193 67.3613 186.139 67.7891 186.029 68.1836C185.92 68.5742 185.76 68.9141 185.549 69.2031C185.338 69.4922 185.08 69.7168 184.775 69.877C184.471 70.0371 184.121 70.1172 183.727 70.1172C183.324 70.1172 182.971 70.0488 182.666 69.9121C182.365 69.7715 182.111 69.5703 181.904 69.3086C181.697 69.0469 181.531 68.7305 181.406 68.3594C181.285 67.9883 181.201 67.5703 181.154 67.1055V66.5664C181.201 66.0977 181.285 65.6777 181.406 65.3066C181.531 64.9355 181.697 64.6191 181.904 64.3574C182.111 64.0918 182.365 63.8906 182.666 63.7539C182.967 63.6133 183.316 63.543 183.715 63.543C184.113 63.543 184.467 63.6211 184.775 63.7773C185.084 63.9297 185.342 64.1484 185.549 64.4336C185.76 64.7188 185.92 65.0605 186.029 65.459C186.139 65.8535 186.193 66.293 186.193 66.7773ZM185.104 66.9004V66.7773C185.104 66.4609 185.074 66.1641 185.016 65.8867C184.957 65.6055 184.863 65.3594 184.734 65.1484C184.605 64.9336 184.436 64.7656 184.225 64.6445C184.014 64.5195 183.754 64.457 183.445 64.457C183.172 64.457 182.934 64.5039 182.73 64.5977C182.531 64.6914 182.361 64.8184 182.221 64.9785C182.08 65.1348 181.965 65.3145 181.875 65.5176C181.789 65.7168 181.725 65.9238 181.682 66.1387V67.5508C181.744 67.8242 181.846 68.0879 181.986 68.3418C182.131 68.5918 182.322 68.7969 182.561 68.957C182.803 69.1172 183.102 69.1973 183.457 69.1973C183.75 69.1973 184 69.1387 184.207 69.0215C184.418 68.9004 184.588 68.7344 184.717 68.5234C184.85 68.3125 184.947 68.0684 185.01 67.791C185.072 67.5137 185.104 67.2168 185.104 66.9004ZM191.01 61.4219V70H189.926V62.7754L187.74 63.5723V62.5938L190.84 61.4219H191.01Z" fill="black"/>
<rect x="166" y="93" width="6" height="6" fill="black"/>
<path d="M180.82 91H181.91V98.7695L181.816 100H180.82V91ZM186.193 96.7773V96.9004C186.193 97.3613 186.139 97.7891 186.029 98.1836C185.92 98.5742 185.76 98.9141 185.549 99.2031C185.338 99.4922 185.08 99.7168 184.775 99.877C184.471 100.037 184.121 100.117 183.727 100.117C183.324 100.117 182.971 100.049 182.666 99.9121C182.365 99.7715 182.111 99.5703 181.904 99.3086C181.697 99.0469 181.531 98.7305 181.406 98.3594C181.285 97.9883 181.201 97.5703 181.154 97.1055V96.5664C181.201 96.0977 181.285 95.6777 181.406 95.3066C181.531 94.9355 181.697 94.6191 181.904 94.3574C182.111 94.0918 182.365 93.8906 182.666 93.7539C182.967 93.6133 183.316 93.543 183.715 93.543C184.113 93.543 184.467 93.6211 184.775 93.7773C185.084 93.9297 185.342 94.1484 185.549 94.4336C185.76 94.7188 185.92 95.0605 186.029 95.459C186.139 95.8535 186.193 96.293 186.193 96.7773ZM185.104 96.9004V96.7773C185.104 96.4609 185.074 96.1641 185.016 95.8867C184.957 95.6055 184.863 95.3594 184.734 95.1484C184.605 94.9336 184.436 94.7656 184.225 94.6445C184.014 94.5195 183.754 94.457 183.445 94.457C183.172 94.457 182.934 94.5039 182.73 94.5977C182.531 94.6914 182.361 94.8184 182.221 94.9785C182.08 95.1348 181.965 95.3145 181.875 95.5176C181.789 95.7168 181.725 95.9238 181.682 96.1387V97.5508C181.744 97.8242 181.846 98.0879 181.986 98.3418C182.131 98.5918 182.322 98.7969 182.561 98.957C182.803 99.1172 183.102 99.1973 183.457 99.1973C183.75 99.1973 184 99.1387 184.207 99.0215C184.418 98.9004 184.588 98.7344 184.717 98.5234C184.85 98.3125 184.947 98.0684 185.01 97.791C185.072 97.5137 185.104 97.2168 185.104 96.9004ZM193.037 99.1094V100H187.453V99.2207L190.248 96.1094C190.592 95.7266 190.857 95.4023 191.045 95.1367C191.236 94.8672 191.369 94.627 191.443 94.416C191.521 94.2012 191.561 93.9824 191.561 93.7598C191.561 93.4785 191.502 93.2246 191.385 92.998C191.271 92.7676 191.104 92.584 190.881 92.4473C190.658 92.3105 190.389 92.2422 190.072 92.2422C189.693 92.2422 189.377 92.3164 189.123 92.4648C188.873 92.6094 188.686 92.8125 188.561 93.0742C188.436 93.3359 188.373 93.6367 188.373 93.9766H187.289C187.289 93.4961 187.395 93.0566 187.605 92.6582C187.816 92.2598 188.129 91.9434 188.543 91.709C188.957 91.4707 189.467 91.3516 190.072 91.3516C190.611 91.3516 191.072 91.4473 191.455 91.6387C191.838 91.8262 192.131 92.0918 192.334 92.4355C192.541 92.7754 192.645 93.1738 192.645 93.6309C192.645 93.8809 192.602 94.1348 192.516 94.3926C192.434 94.6465 192.318 94.9004 192.17 95.1543C192.025 95.4082 191.855 95.6582 191.66 95.9043C191.469 96.1504 191.264 96.3926 191.045 96.6309L188.76 99.1094H193.037Z" fill="black"/>
<rect x="166" y="123" width="6" height="6" fill="black"/>
<path d="M180.82 121H181.91V128.77L181.816 130H180.82V121ZM186.193 126.777V126.9C186.193 127.361 186.139 127.789 186.029 128.184C185.92 128.574 185.76 128.914 185.549 129.203C185.338 129.492 185.08 129.717 184.775 129.877C184.471 130.037 184.121 130.117 183.727 130.117C183.324 130.117 182.971 130.049 182.666 129.912C182.365 129.771 182.111 129.57 181.904 129.309C181.697 129.047 181.531 128.73 181.406 128.359C181.285 127.988 181.201 127.57 181.154 127.105V126.566C181.201 126.098 181.285 125.678 181.406 125.307C181.531 124.936 181.697 124.619 181.904 124.357C182.111 124.092 182.365 123.891 182.666 123.754C182.967 123.613 183.316 123.543 183.715 123.543C184.113 123.543 184.467 123.621 184.775 123.777C185.084 123.93 185.342 124.148 185.549 124.434C185.76 124.719 185.92 125.061 186.029 125.459C186.139 125.854 186.193 126.293 186.193 126.777ZM185.104 126.9V126.777C185.104 126.461 185.074 126.164 185.016 125.887C184.957 125.605 184.863 125.359 184.734 125.148C184.605 124.934 184.436 124.766 184.225 124.645C184.014 124.52 183.754 124.457 183.445 124.457C183.172 124.457 182.934 124.504 182.73 124.598C182.531 124.691 182.361 124.818 182.221 124.979C182.08 125.135 181.965 125.314 181.875 125.518C181.789 125.717 181.725 125.924 181.682 126.139V127.551C181.744 127.824 181.846 128.088 181.986 128.342C182.131 128.592 182.322 128.797 182.561 128.957C182.803 129.117 183.102 129.197 183.457 129.197C183.75 129.197 184 129.139 184.207 129.021C184.418 128.9 184.588 128.734 184.717 128.523C184.85 128.312 184.947 128.068 185.01 127.791C185.072 127.514 185.104 127.217 185.104 126.9ZM189.029 125.201H189.803C190.182 125.201 190.494 125.139 190.74 125.014C190.99 124.885 191.176 124.711 191.297 124.492C191.422 124.27 191.484 124.02 191.484 123.742C191.484 123.414 191.43 123.139 191.32 122.916C191.211 122.693 191.047 122.525 190.828 122.412C190.609 122.299 190.332 122.242 189.996 122.242C189.691 122.242 189.422 122.303 189.188 122.424C188.957 122.541 188.775 122.709 188.643 122.928C188.514 123.146 188.449 123.404 188.449 123.701H187.365C187.365 123.268 187.475 122.873 187.693 122.518C187.912 122.162 188.219 121.879 188.613 121.668C189.012 121.457 189.473 121.352 189.996 121.352C190.512 121.352 190.963 121.443 191.35 121.627C191.736 121.807 192.037 122.076 192.252 122.436C192.467 122.791 192.574 123.234 192.574 123.766C192.574 123.98 192.523 124.211 192.422 124.457C192.324 124.699 192.17 124.926 191.959 125.137C191.752 125.348 191.482 125.521 191.15 125.658C190.818 125.791 190.42 125.857 189.955 125.857H189.029V125.201ZM189.029 126.092V125.441H189.955C190.498 125.441 190.947 125.506 191.303 125.635C191.658 125.764 191.938 125.936 192.141 126.15C192.348 126.365 192.492 126.602 192.574 126.859C192.66 127.113 192.703 127.367 192.703 127.621C192.703 128.02 192.635 128.373 192.498 128.682C192.365 128.99 192.176 129.252 191.93 129.467C191.688 129.682 191.402 129.844 191.074 129.953C190.746 130.062 190.389 130.117 190.002 130.117C189.631 130.117 189.281 130.064 188.953 129.959C188.629 129.854 188.342 129.701 188.092 129.502C187.842 129.299 187.646 129.051 187.506 128.758C187.365 128.461 187.295 128.123 187.295 127.744H188.379C188.379 128.041 188.443 128.301 188.572 128.523C188.705 128.746 188.893 128.92 189.135 129.045C189.381 129.166 189.67 129.227 190.002 129.227C190.334 129.227 190.619 129.17 190.857 129.057C191.1 128.939 191.285 128.764 191.414 128.529C191.547 128.295 191.613 128 191.613 127.645C191.613 127.289 191.539 126.998 191.391 126.771C191.242 126.541 191.031 126.371 190.758 126.262C190.488 126.148 190.17 126.092 189.803 126.092H189.029Z" fill="black"/>
<rect x="166" y="153" width="6" height="6" fill="black"/>
<path d="M180.82 151H181.91V158.77L181.816 160H180.82V151ZM186.193 156.777V156.9C186.193 157.361 186.139 157.789 186.029 158.184C185.92 158.574 185.76 158.914 185.549 159.203C185.338 159.492 185.08 159.717 184.775 159.877C184.471 160.037 184.121 160.117 183.727 160.117C183.324 160.117 182.971 160.049 182.666 159.912C182.365 159.771 182.111 159.57 181.904 159.309C181.697 159.047 181.531 158.73 181.406 158.359C181.285 157.988 181.201 157.57 181.154 157.105V156.566C181.201 156.098 181.285 155.678 181.406 155.307C181.531 154.936 181.697 154.619 181.904 154.357C182.111 154.092 182.365 153.891 182.666 153.754C182.967 153.613 183.316 153.543 183.715 153.543C184.113 153.543 184.467 153.621 184.775 153.777C185.084 153.93 185.342 154.148 185.549 154.434C185.76 154.719 185.92 155.061 186.029 155.459C186.139 155.854 186.193 156.293 186.193 156.777ZM185.104 156.9V156.777C185.104 156.461 185.074 156.164 185.016 155.887C184.957 155.605 184.863 155.359 184.734 155.148C184.605 154.934 184.436 154.766 184.225 154.645C184.014 154.52 183.754 154.457 183.445 154.457C183.172 154.457 182.934 154.504 182.73 154.598C182.531 154.691 182.361 154.818 182.221 154.979C182.08 155.135 181.965 155.314 181.875 155.518C181.789 155.717 181.725 155.924 181.682 156.139V157.551C181.744 157.824 181.846 158.088 181.986 158.342C182.131 158.592 182.322 158.797 182.561 158.957C182.803 159.117 183.102 159.197 183.457 159.197C183.75 159.197 184 159.139 184.207 159.021C184.418 158.9 184.588 158.734 184.717 158.523C184.85 158.312 184.947 158.068 185.01 157.791C185.072 157.514 185.104 157.217 185.104 156.9ZM193.213 157.129V158.02H187.049V157.381L190.869 151.469H191.754L190.805 153.18L188.279 157.129H193.213ZM192.023 151.469V160H190.939V151.469H192.023Z" fill="black"/>
<path d="M164 1.5H224V0.5H164V1.5ZM243.5 21V173H244.5V21H243.5ZM224 192.5H164V193.5H224V192.5ZM144.5 173V21H143.5V173H144.5ZM164 192.5C153.23 192.5 144.5 183.77 144.5 173H143.5C143.5 184.322 152.678 193.5 164 193.5V192.5ZM243.5 173C243.5 183.77 234.77 192.5 224 192.5V193.5C235.322 193.5 244.5 184.322 244.5 173H243.5ZM224 1.5C234.77 1.5 243.5 10.2304 243.5 21H244.5C244.5 9.67816 235.322 0.5 224 0.5V1.5ZM164 0.5C152.678 0.5 143.5 9.67817 143.5 21H144.5C144.5 10.2305 153.23 1.5 164 1.5V0.5Z" fill="black"/>
<path d="M16.1058 40.0801V41H11.5882V40.0801H16.1058ZM11.8167 32.4688V41H10.6859V32.4688H11.8167ZM15.5081 36.1367V37.0566H11.5882V36.1367H15.5081ZM16.0472 32.4688V33.3945H11.5882V32.4688H16.0472ZM18.4203 35.9199V41H17.3304V34.6602H18.3617L18.4203 35.9199ZM18.1976 37.5898L17.6937 37.5723C17.6976 37.1387 17.7542 36.7383 17.8636 36.3711C17.973 36 18.1351 35.6777 18.3499 35.4043C18.5648 35.1309 18.8324 34.9199 19.1527 34.7715C19.473 34.6191 19.8441 34.543 20.266 34.543C20.5628 34.543 20.8363 34.5859 21.0863 34.6719C21.3363 34.7539 21.5531 34.8848 21.7367 35.0645C21.9203 35.2441 22.0628 35.4746 22.1644 35.7559C22.266 36.0371 22.3167 36.377 22.3167 36.7754V41H21.2328V36.8281C21.2328 36.4961 21.1761 36.2305 21.0628 36.0312C20.9535 35.832 20.7972 35.6875 20.5941 35.5977C20.391 35.5039 20.1527 35.457 19.8792 35.457C19.5589 35.457 19.2914 35.5137 19.0765 35.627C18.8617 35.7402 18.6898 35.8965 18.5609 36.0957C18.432 36.2949 18.3382 36.5234 18.2796 36.7812C18.2249 37.0352 18.1976 37.3047 18.1976 37.5898ZM22.305 36.9922L21.5785 37.2148C21.5824 36.8672 21.639 36.5332 21.7484 36.2129C21.8617 35.8926 22.0238 35.6074 22.2347 35.3574C22.4496 35.1074 22.7132 34.9102 23.0257 34.7656C23.3382 34.6172 23.6956 34.543 24.098 34.543C24.4378 34.543 24.7386 34.5879 25.0003 34.6777C25.266 34.7676 25.4886 34.9062 25.6683 35.0938C25.8519 35.2773 25.9906 35.5137 26.0843 35.8027C26.1781 36.0918 26.2249 36.4355 26.2249 36.834V41H25.1351V36.8223C25.1351 36.4668 25.0785 36.1914 24.9652 35.9961C24.8558 35.7969 24.6996 35.6582 24.4964 35.5801C24.2972 35.498 24.0589 35.457 23.7816 35.457C23.5433 35.457 23.3324 35.498 23.1488 35.5801C22.9652 35.6621 22.8109 35.7754 22.6859 35.9199C22.5609 36.0605 22.4652 36.2227 22.3988 36.4062C22.3363 36.5898 22.305 36.7852 22.305 36.9922ZM28.9496 36.0137V41H27.8656V34.6602H28.891L28.9496 36.0137ZM28.6917 37.5898L28.2406 37.5723C28.2445 37.1387 28.3089 36.7383 28.4339 36.3711C28.5589 36 28.7347 35.6777 28.9613 35.4043C29.1878 35.1309 29.4574 34.9199 29.7699 34.7715C30.0863 34.6191 30.4359 34.543 30.8187 34.543C31.1312 34.543 31.4124 34.5859 31.6624 34.6719C31.9124 34.7539 32.1253 34.8867 32.3011 35.0703C32.4808 35.2539 32.6175 35.4922 32.7113 35.7852C32.805 36.0742 32.8519 36.4277 32.8519 36.8457V41H31.7621V36.834C31.7621 36.502 31.7132 36.2363 31.6156 36.0371C31.5179 35.834 31.3753 35.6875 31.1878 35.5977C31.0003 35.5039 30.7699 35.457 30.4964 35.457C30.2269 35.457 29.9808 35.5137 29.7581 35.627C29.5394 35.7402 29.3499 35.8965 29.1898 36.0957C29.0335 36.2949 28.9105 36.5234 28.8206 36.7812C28.7347 37.0352 28.6917 37.3047 28.6917 37.5898ZM37.1292 41.1172C36.6878 41.1172 36.2874 41.043 35.9281 40.8945C35.5726 40.7422 35.266 40.5293 35.0081 40.2559C34.7542 39.9824 34.5589 39.6582 34.4222 39.2832C34.2855 38.9082 34.2171 38.498 34.2171 38.0527V37.8066C34.2171 37.291 34.2933 36.832 34.4456 36.4297C34.598 36.0234 34.805 35.6797 35.0667 35.3984C35.3285 35.1172 35.6253 34.9043 35.9574 34.7598C36.2894 34.6152 36.6331 34.543 36.9886 34.543C37.4417 34.543 37.8324 34.6211 38.1605 34.7773C38.4925 34.9336 38.764 35.1523 38.9749 35.4336C39.1859 35.7109 39.3421 36.0391 39.4437 36.418C39.5453 36.793 39.596 37.2031 39.596 37.6484V38.1348H34.8617V37.25H38.5121V37.168C38.4964 36.8867 38.4378 36.6133 38.3363 36.3477C38.2386 36.082 38.0824 35.8633 37.8675 35.6914C37.6527 35.5195 37.3597 35.4336 36.9886 35.4336C36.7425 35.4336 36.516 35.4863 36.3089 35.5918C36.1019 35.6934 35.9242 35.8457 35.7757 36.0488C35.6273 36.252 35.5121 36.5 35.43 36.793C35.348 37.0859 35.307 37.4238 35.307 37.8066V38.0527C35.307 38.3535 35.348 38.6367 35.43 38.9023C35.516 39.1641 35.639 39.3945 35.7992 39.5938C35.9632 39.793 36.1605 39.9492 36.391 40.0625C36.6253 40.1758 36.891 40.2324 37.1878 40.2324C37.5706 40.2324 37.8949 40.1543 38.1605 39.998C38.4261 39.8418 38.6585 39.6328 38.8578 39.3711L39.514 39.8926C39.3773 40.0996 39.2035 40.2969 38.9925 40.4844C38.7816 40.6719 38.5218 40.8242 38.2132 40.9414C37.9085 41.0586 37.5472 41.1172 37.1292 41.1172Z" fill="black"/>
<rect x="72" y="63" width="6" height="6" rx="3" fill="black"/>
<path d="M21.1113 61.4688V70H19.998V61.4688H21.1113ZM23.8535 61.4688V62.3945H17.2617V61.4688H23.8535ZM27.4277 70H25.6465L25.6582 69.0801H27.4277C28.0371 69.0801 28.5449 68.9531 28.9512 68.6992C29.3574 68.4414 29.6621 68.082 29.8652 67.6211C30.0723 67.1562 30.1758 66.6133 30.1758 65.9922V65.4707C30.1758 64.9824 30.1172 64.5488 30 64.1699C29.8828 63.7871 29.7109 63.4648 29.4844 63.2031C29.2578 62.9375 28.9805 62.7363 28.6523 62.5996C28.3281 62.4629 27.9551 62.3945 27.5332 62.3945H25.6113V61.4688H27.5332C28.0918 61.4688 28.6016 61.5625 29.0625 61.75C29.5234 61.9336 29.9199 62.2012 30.252 62.5527C30.5879 62.9004 30.8457 63.3223 31.0254 63.8184C31.2051 64.3105 31.2949 64.8652 31.2949 65.4824V65.9922C31.2949 66.6094 31.2051 67.166 31.0254 67.6621C30.8457 68.1543 30.5859 68.5742 30.2461 68.9219C29.9102 69.2695 29.5039 69.5371 29.0273 69.7246C28.5547 69.9082 28.0215 70 27.4277 70ZM26.25 61.4688V70H25.1191V61.4688H26.25ZM35.9824 61.4688V70H34.8691V61.4688H35.9824ZM38.7246 61.4688V62.3945H32.1328V61.4688H38.7246ZM45.4746 67.1289V68.0195H39.3105V67.3809L43.1309 61.4688H44.0156L43.0664 63.1797L40.541 67.1289H45.4746ZM44.2852 61.4688V70H43.2012V61.4688H44.2852ZM50.0215 61.4219V70H48.9375V62.7754L46.752 63.5723V62.5938L49.8516 61.4219H50.0215ZM58.9746 67.1289V68.0195H52.8105V67.3809L56.6309 61.4688H57.5156L56.5664 63.1797L54.041 67.1289H58.9746ZM57.7852 61.4688V70H56.7012V61.4688H57.7852ZM61.3301 65.9395L60.4629 65.7168L60.8906 61.4688H65.2676V62.4707H61.8105L61.5527 64.791C61.709 64.7012 61.9062 64.6172 62.1445 64.5391C62.3867 64.4609 62.6641 64.4219 62.9766 64.4219C63.3711 64.4219 63.7246 64.4902 64.0371 64.627C64.3496 64.7598 64.6152 64.9512 64.834 65.2012C65.0566 65.4512 65.2266 65.752 65.3438 66.1035C65.4609 66.4551 65.5195 66.8477 65.5195 67.2812C65.5195 67.6914 65.4629 68.0684 65.3496 68.4121C65.2402 68.7559 65.0742 69.0566 64.8516 69.3145C64.6289 69.5684 64.3477 69.7656 64.0078 69.9062C63.6719 70.0469 63.2754 70.1172 62.8184 70.1172C62.4746 70.1172 62.1484 70.0703 61.8398 69.9766C61.5352 69.8789 61.2617 69.7324 61.0195 69.5371C60.7812 69.3379 60.5859 69.0918 60.4336 68.7988C60.2852 68.502 60.1914 68.1543 60.1523 67.7559H61.1836C61.2305 68.0762 61.3242 68.3457 61.4648 68.5645C61.6055 68.7832 61.7891 68.9492 62.0156 69.0625C62.2461 69.1719 62.5137 69.2266 62.8184 69.2266C63.0762 69.2266 63.3047 69.1816 63.5039 69.0918C63.7031 69.002 63.8711 68.873 64.0078 68.7051C64.1445 68.5371 64.248 68.334 64.3184 68.0957C64.3926 67.8574 64.4297 67.5898 64.4297 67.293C64.4297 67.0234 64.3926 66.7734 64.3184 66.543C64.2441 66.3125 64.1328 66.1113 63.9844 65.9395C63.8398 65.7676 63.6621 65.6348 63.4512 65.541C63.2402 65.4434 62.998 65.3945 62.7246 65.3945C62.3613 65.3945 62.0859 65.4434 61.8984 65.541C61.7148 65.6387 61.5254 65.7715 61.3301 65.9395Z" fill="black"/>
<rect x="72" y="93" width="6" height="6" rx="3" fill="black"/>
<path d="M21.1113 91.4688V100H19.998V91.4688H21.1113ZM23.8535 91.4688V92.3945H17.2617V91.4688H23.8535ZM27.4277 100H25.6465L25.6582 99.0801H27.4277C28.0371 99.0801 28.5449 98.9531 28.9512 98.6992C29.3574 98.4414 29.6621 98.082 29.8652 97.6211C30.0723 97.1562 30.1758 96.6133 30.1758 95.9922V95.4707C30.1758 94.9824 30.1172 94.5488 30 94.1699C29.8828 93.7871 29.7109 93.4648 29.4844 93.2031C29.2578 92.9375 28.9805 92.7363 28.6523 92.5996C28.3281 92.4629 27.9551 92.3945 27.5332 92.3945H25.6113V91.4688H27.5332C28.0918 91.4688 28.6016 91.5625 29.0625 91.75C29.5234 91.9336 29.9199 92.2012 30.252 92.5527C30.5879 92.9004 30.8457 93.3223 31.0254 93.8184C31.2051 94.3105 31.2949 94.8652 31.2949 95.4824V95.9922C31.2949 96.6094 31.2051 97.166 31.0254 97.6621C30.8457 98.1543 30.5859 98.5742 30.2461 98.9219C29.9102 99.2695 29.5039 99.5371 29.0273 99.7246C28.5547 99.9082 28.0215 100 27.4277 100ZM26.25 91.4688V100H25.1191V91.4688H26.25ZM35.9824 91.4688V100H34.8691V91.4688H35.9824ZM38.7246 91.4688V92.3945H32.1328V91.4688H38.7246ZM45.4746 97.1289V98.0195H39.3105V97.3809L43.1309 91.4688H44.0156L43.0664 93.1797L40.541 97.1289H45.4746ZM44.2852 91.4688V100H43.2012V91.4688H44.2852ZM50.0215 91.4219V100H48.9375V92.7754L46.752 93.5723V92.5938L49.8516 91.4219H50.0215ZM58.7988 99.1094V100H53.2148V99.2207L56.0098 96.1094C56.3535 95.7266 56.6191 95.4023 56.8066 95.1367C56.998 94.8672 57.1309 94.627 57.2051 94.416C57.2832 94.2012 57.3223 93.9824 57.3223 93.7598C57.3223 93.4785 57.2637 93.2246 57.1465 92.998C57.0332 92.7676 56.8652 92.584 56.6426 92.4473C56.4199 92.3105 56.1504 92.2422 55.834 92.2422C55.4551 92.2422 55.1387 92.3164 54.8848 92.4648C54.6348 92.6094 54.4473 92.8125 54.3223 93.0742C54.1973 93.3359 54.1348 93.6367 54.1348 93.9766H53.0508C53.0508 93.4961 53.1562 93.0566 53.3672 92.6582C53.5781 92.2598 53.8906 91.9434 54.3047 91.709C54.7188 91.4707 55.2285 91.3516 55.834 91.3516C56.373 91.3516 56.834 91.4473 57.2168 91.6387C57.5996 91.8262 57.8926 92.0918 58.0957 92.4355C58.3027 92.7754 58.4062 93.1738 58.4062 93.6309C58.4062 93.8809 58.3633 94.1348 58.2773 94.3926C58.1953 94.6465 58.0801 94.9004 57.9316 95.1543C57.7871 95.4082 57.6172 95.6582 57.4219 95.9043C57.2305 96.1504 57.0254 96.3926 56.8066 96.6309L54.5215 99.1094H58.7988ZM65.3145 95.0547V96.3555C65.3145 97.0547 65.252 97.6445 65.127 98.125C65.002 98.6055 64.8223 98.9922 64.5879 99.2852C64.3535 99.5781 64.0703 99.791 63.7383 99.9238C63.4102 100.053 63.0391 100.117 62.625 100.117C62.2969 100.117 61.9941 100.076 61.7168 99.9941C61.4395 99.9121 61.1895 99.7812 60.9668 99.6016C60.748 99.418 60.5605 99.1797 60.4043 98.8867C60.248 98.5938 60.1289 98.2383 60.0469 97.8203C59.9648 97.4023 59.9238 96.9141 59.9238 96.3555V95.0547C59.9238 94.3555 59.9863 93.7695 60.1113 93.2969C60.2402 92.8242 60.4219 92.4453 60.6562 92.1602C60.8906 91.8711 61.1719 91.6641 61.5 91.5391C61.832 91.4141 62.2031 91.3516 62.6133 91.3516C62.9453 91.3516 63.25 91.3926 63.5273 91.4746C63.8086 91.5527 64.0586 91.6797 64.2773 91.8555C64.4961 92.0273 64.6816 92.2578 64.834 92.5469C64.9902 92.832 65.1094 93.1816 65.1914 93.5957C65.2734 94.0098 65.3145 94.4961 65.3145 95.0547ZM64.2246 96.5312V94.873C64.2246 94.4902 64.2012 94.1543 64.1543 93.8652C64.1113 93.5723 64.0469 93.3223 63.9609 93.1152C63.875 92.9082 63.7656 92.7402 63.6328 92.6113C63.5039 92.4824 63.3535 92.3887 63.1816 92.3301C63.0137 92.2676 62.8242 92.2363 62.6133 92.2363C62.3555 92.2363 62.127 92.2852 61.9277 92.3828C61.7285 92.4766 61.5605 92.627 61.4238 92.834C61.291 93.041 61.1895 93.3125 61.1191 93.6484C61.0488 93.9844 61.0137 94.3926 61.0137 94.873V96.5312C61.0137 96.9141 61.0352 97.252 61.0781 97.5449C61.125 97.8379 61.1934 98.0918 61.2832 98.3066C61.373 98.5176 61.4824 98.6914 61.6113 98.8281C61.7402 98.9648 61.8887 99.0664 62.0566 99.1328C62.2285 99.1953 62.418 99.2266 62.625 99.2266C62.8906 99.2266 63.123 99.1758 63.3223 99.0742C63.5215 98.9727 63.6875 98.8145 63.8203 98.5996C63.957 98.3809 64.0586 98.1016 64.125 97.7617C64.1914 97.418 64.2246 97.0078 64.2246 96.5312Z" fill="black"/>
<rect x="72" y="123" width="6" height="6" rx="3" fill="black"/>
<path d="M21.1113 121.469V130H19.998V121.469H21.1113ZM23.8535 121.469V122.395H17.2617V121.469H23.8535ZM27.4277 130H25.6465L25.6582 129.08H27.4277C28.0371 129.08 28.5449 128.953 28.9512 128.699C29.3574 128.441 29.6621 128.082 29.8652 127.621C30.0723 127.156 30.1758 126.613 30.1758 125.992V125.471C30.1758 124.982 30.1172 124.549 30 124.17C29.8828 123.787 29.7109 123.465 29.4844 123.203C29.2578 122.938 28.9805 122.736 28.6523 122.6C28.3281 122.463 27.9551 122.395 27.5332 122.395H25.6113V121.469H27.5332C28.0918 121.469 28.6016 121.562 29.0625 121.75C29.5234 121.934 29.9199 122.201 30.252 122.553C30.5879 122.9 30.8457 123.322 31.0254 123.818C31.2051 124.311 31.2949 124.865 31.2949 125.482V125.992C31.2949 126.609 31.2051 127.166 31.0254 127.662C30.8457 128.154 30.5859 128.574 30.2461 128.922C29.9102 129.27 29.5039 129.537 29.0273 129.725C28.5547 129.908 28.0215 130 27.4277 130ZM26.25 121.469V130H25.1191V121.469H26.25ZM35.9824 121.469V130H34.8691V121.469H35.9824ZM38.7246 121.469V122.395H32.1328V121.469H38.7246ZM45.4746 127.129V128.02H39.3105V127.381L43.1309 121.469H44.0156L43.0664 123.18L40.541 127.129H45.4746ZM44.2852 121.469V130H43.2012V121.469H44.2852ZM50.0215 121.422V130H48.9375V122.775L46.752 123.572V122.594L49.8516 121.422H50.0215ZM58.5645 125.055V126.355C58.5645 127.055 58.502 127.645 58.377 128.125C58.252 128.605 58.0723 128.992 57.8379 129.285C57.6035 129.578 57.3203 129.791 56.9883 129.924C56.6602 130.053 56.2891 130.117 55.875 130.117C55.5469 130.117 55.2441 130.076 54.9668 129.994C54.6895 129.912 54.4395 129.781 54.2168 129.602C53.998 129.418 53.8105 129.18 53.6543 128.887C53.498 128.594 53.3789 128.238 53.2969 127.82C53.2148 127.402 53.1738 126.914 53.1738 126.355V125.055C53.1738 124.355 53.2363 123.77 53.3613 123.297C53.4902 122.824 53.6719 122.445 53.9062 122.16C54.1406 121.871 54.4219 121.664 54.75 121.539C55.082 121.414 55.4531 121.352 55.8633 121.352C56.1953 121.352 56.5 121.393 56.7773 121.475C57.0586 121.553 57.3086 121.68 57.5273 121.855C57.7461 122.027 57.9316 122.258 58.084 122.547C58.2402 122.832 58.3594 123.182 58.4414 123.596C58.5234 124.01 58.5645 124.496 58.5645 125.055ZM57.4746 126.531V124.873C57.4746 124.49 57.4512 124.154 57.4043 123.865C57.3613 123.572 57.2969 123.322 57.2109 123.115C57.125 122.908 57.0156 122.74 56.8828 122.611C56.7539 122.482 56.6035 122.389 56.4316 122.33C56.2637 122.268 56.0742 122.236 55.8633 122.236C55.6055 122.236 55.377 122.285 55.1777 122.383C54.9785 122.477 54.8105 122.627 54.6738 122.834C54.541 123.041 54.4395 123.312 54.3691 123.648C54.2988 123.984 54.2637 124.393 54.2637 124.873V126.531C54.2637 126.914 54.2852 127.252 54.3281 127.545C54.375 127.838 54.4434 128.092 54.5332 128.307C54.623 128.518 54.7324 128.691 54.8613 128.828C54.9902 128.965 55.1387 129.066 55.3066 129.133C55.4785 129.195 55.668 129.227 55.875 129.227C56.1406 129.227 56.373 129.176 56.5723 129.074C56.7715 128.973 56.9375 128.814 57.0703 128.6C57.207 128.381 57.3086 128.102 57.375 127.762C57.4414 127.418 57.4746 127.008 57.4746 126.531ZM65.3145 125.055V126.355C65.3145 127.055 65.252 127.645 65.127 128.125C65.002 128.605 64.8223 128.992 64.5879 129.285C64.3535 129.578 64.0703 129.791 63.7383 129.924C63.4102 130.053 63.0391 130.117 62.625 130.117C62.2969 130.117 61.9941 130.076 61.7168 129.994C61.4395 129.912 61.1895 129.781 60.9668 129.602C60.748 129.418 60.5605 129.18 60.4043 128.887C60.248 128.594 60.1289 128.238 60.0469 127.82C59.9648 127.402 59.9238 126.914 59.9238 126.355V125.055C59.9238 124.355 59.9863 123.77 60.1113 123.297C60.2402 122.824 60.4219 122.445 60.6562 122.16C60.8906 121.871 61.1719 121.664 61.5 121.539C61.832 121.414 62.2031 121.352 62.6133 121.352C62.9453 121.352 63.25 121.393 63.5273 121.475C63.8086 121.553 64.0586 121.68 64.2773 121.855C64.4961 122.027 64.6816 122.258 64.834 122.547C64.9902 122.832 65.1094 123.182 65.1914 123.596C65.2734 124.01 65.3145 124.496 65.3145 125.055ZM64.2246 126.531V124.873C64.2246 124.49 64.2012 124.154 64.1543 123.865C64.1113 123.572 64.0469 123.322 63.9609 123.115C63.875 122.908 63.7656 122.74 63.6328 122.611C63.5039 122.482 63.3535 122.389 63.1816 122.33C63.0137 122.268 62.8242 122.236 62.6133 122.236C62.3555 122.236 62.127 122.285 61.9277 122.383C61.7285 122.477 61.5605 122.627 61.4238 122.834C61.291 123.041 61.1895 123.312 61.1191 123.648C61.0488 123.984 61.0137 124.393 61.0137 124.873V126.531C61.0137 126.914 61.0352 127.252 61.0781 127.545C61.125 127.838 61.1934 128.092 61.2832 128.307C61.373 128.518 61.4824 128.691 61.6113 128.828C61.7402 128.965 61.8887 129.066 62.0566 129.133C62.2285 129.195 62.418 129.227 62.625 129.227C62.8906 129.227 63.123 129.176 63.3223 129.074C63.5215 128.973 63.6875 128.814 63.8203 128.6C63.957 128.381 64.0586 128.102 64.125 127.762C64.1914 127.418 64.2246 127.008 64.2246 126.531Z" fill="black"/>
<rect x="72" y="153" width="6" height="6" rx="3" fill="black"/>
<path d="M21.1113 151.469V160H19.998V151.469H21.1113ZM23.8535 151.469V152.395H17.2617V151.469H23.8535ZM27.4277 160H25.6465L25.6582 159.08H27.4277C28.0371 159.08 28.5449 158.953 28.9512 158.699C29.3574 158.441 29.6621 158.082 29.8652 157.621C30.0723 157.156 30.1758 156.613 30.1758 155.992V155.471C30.1758 154.982 30.1172 154.549 30 154.17C29.8828 153.787 29.7109 153.465 29.4844 153.203C29.2578 152.938 28.9805 152.736 28.6523 152.6C28.3281 152.463 27.9551 152.395 27.5332 152.395H25.6113V151.469H27.5332C28.0918 151.469 28.6016 151.562 29.0625 151.75C29.5234 151.934 29.9199 152.201 30.252 152.553C30.5879 152.9 30.8457 153.322 31.0254 153.818C31.2051 154.311 31.2949 154.865 31.2949 155.482V155.992C31.2949 156.609 31.2051 157.166 31.0254 157.662C30.8457 158.154 30.5859 158.574 30.2461 158.922C29.9102 159.27 29.5039 159.537 29.0273 159.725C28.5547 159.908 28.0215 160 27.4277 160ZM26.25 151.469V160H25.1191V151.469H26.25ZM35.9824 151.469V160H34.8691V151.469H35.9824ZM38.7246 151.469V152.395H32.1328V151.469H38.7246ZM45.4746 157.129V158.02H39.3105V157.381L43.1309 151.469H44.0156L43.0664 153.18L40.541 157.129H45.4746ZM44.2852 151.469V160H43.2012V151.469H44.2852ZM50.0215 151.422V160H48.9375V152.775L46.752 153.572V152.594L49.8516 151.422H50.0215ZM56.7715 151.422V160H55.6875V152.775L53.502 153.572V152.594L56.6016 151.422H56.7715ZM65.3145 155.055V156.355C65.3145 157.055 65.252 157.645 65.127 158.125C65.002 158.605 64.8223 158.992 64.5879 159.285C64.3535 159.578 64.0703 159.791 63.7383 159.924C63.4102 160.053 63.0391 160.117 62.625 160.117C62.2969 160.117 61.9941 160.076 61.7168 159.994C61.4395 159.912 61.1895 159.781 60.9668 159.602C60.748 159.418 60.5605 159.18 60.4043 158.887C60.248 158.594 60.1289 158.238 60.0469 157.82C59.9648 157.402 59.9238 156.914 59.9238 156.355V155.055C59.9238 154.355 59.9863 153.77 60.1113 153.297C60.2402 152.824 60.4219 152.445 60.6562 152.16C60.8906 151.871 61.1719 151.664 61.5 151.539C61.832 151.414 62.2031 151.352 62.6133 151.352C62.9453 151.352 63.25 151.393 63.5273 151.475C63.8086 151.553 64.0586 151.68 64.2773 151.855C64.4961 152.027 64.6816 152.258 64.834 152.547C64.9902 152.832 65.1094 153.182 65.1914 153.596C65.2734 154.01 65.3145 154.496 65.3145 155.055ZM64.2246 156.531V154.873C64.2246 154.49 64.2012 154.154 64.1543 153.865C64.1113 153.572 64.0469 153.322 63.9609 153.115C63.875 152.908 63.7656 152.74 63.6328 152.611C63.5039 152.482 63.3535 152.389 63.1816 152.33C63.0137 152.268 62.8242 152.236 62.6133 152.236C62.3555 152.236 62.127 152.285 61.9277 152.383C61.7285 152.477 61.5605 152.627 61.4238 152.834C61.291 153.041 61.1895 153.312 61.1191 153.648C61.0488 153.984 61.0137 154.393 61.0137 154.873V156.531C61.0137 156.914 61.0352 157.252 61.0781 157.545C61.125 157.838 61.1934 158.092 61.2832 158.307C61.373 158.518 61.4824 158.691 61.6113 158.828C61.7402 158.965 61.8887 159.066 62.0566 159.133C62.2285 159.195 62.418 159.227 62.625 159.227C62.8906 159.227 63.123 159.176 63.3223 159.074C63.5215 158.973 63.6875 158.814 63.8203 158.6C63.957 158.381 64.0586 158.102 64.125 157.762C64.1914 157.418 64.2246 157.008 64.2246 156.531Z" fill="black"/>
<path d="M21 1.5H81V0.5H21V1.5ZM100.5 21V173H101.5V21H100.5ZM81 192.5H21V193.5H81V192.5ZM1.5 173V21H0.5V173H1.5ZM21 192.5C10.2304 192.5 1.5 183.77 1.5 173H0.5C0.5 184.322 9.67816 193.5 21 193.5V192.5ZM100.5 173C100.5 183.77 91.7696 192.5 81 192.5V193.5C92.3218 193.5 101.5 184.322 101.5 173H100.5ZM81 1.5C91.7696 1.5 100.5 10.2304 100.5 21H101.5C101.5 9.67816 92.3218 0.5 81 0.5V1.5ZM21 0.5C9.67816 0.5 0.5 9.67817 0.5 21H1.5C1.5 10.2305 10.2304 1.5 21 1.5V0.5Z" fill="black"/>
</svg>
