<svg width="242" height="272" viewBox="0 0 242 272" fill="none" xmlns="http://www.w3.org/2000/svg">
<rect x="0.5" y="80.5" width="99" height="99" stroke="black"/>
<path d="M35.3398 130.654H33.0605V129.734H35.3398C35.7812 129.734 36.1387 129.664 36.4121 129.523C36.6855 129.383 36.8848 129.188 37.0098 128.938C37.1387 128.688 37.2031 128.402 37.2031 128.082C37.2031 127.789 37.1387 127.514 37.0098 127.256C36.8848 126.998 36.6855 126.791 36.4121 126.635C36.1387 126.475 35.7812 126.395 35.3398 126.395H33.3242V134H32.1934V125.469H35.3398C35.9844 125.469 36.5293 125.58 36.9746 125.803C37.4199 126.025 37.7578 126.334 37.9883 126.729C38.2188 127.119 38.334 127.566 38.334 128.07C38.334 128.617 38.2188 129.084 37.9883 129.471C37.7578 129.857 37.4199 130.152 36.9746 130.355C36.5293 130.555 35.9844 130.654 35.3398 130.654ZM42.1484 134.117C41.707 134.117 41.3066 134.043 40.9473 133.895C40.5918 133.742 40.2852 133.529 40.0273 133.256C39.7734 132.982 39.5781 132.658 39.4414 132.283C39.3047 131.908 39.2363 131.498 39.2363 131.053V130.807C39.2363 130.291 39.3125 129.832 39.4648 129.43C39.6172 129.023 39.8242 128.68 40.0859 128.398C40.3477 128.117 40.6445 127.904 40.9766 127.76C41.3086 127.615 41.6523 127.543 42.0078 127.543C42.4609 127.543 42.8516 127.621 43.1797 127.777C43.5117 127.934 43.7832 128.152 43.9941 128.434C44.2051 128.711 44.3613 129.039 44.4629 129.418C44.5645 129.793 44.6152 130.203 44.6152 130.648V131.135H39.8809V130.25H43.5312V130.168C43.5156 129.887 43.457 129.613 43.3555 129.348C43.2578 129.082 43.1016 128.863 42.8867 128.691C42.6719 128.52 42.3789 128.434 42.0078 128.434C41.7617 128.434 41.5352 128.486 41.3281 128.592C41.1211 128.693 40.9434 128.846 40.7949 129.049C40.6465 129.252 40.5312 129.5 40.4492 129.793C40.3672 130.086 40.3262 130.424 40.3262 130.807V131.053C40.3262 131.354 40.3672 131.637 40.4492 131.902C40.5352 132.164 40.6582 132.395 40.8184 132.594C40.9824 132.793 41.1797 132.949 41.4102 133.062C41.6445 133.176 41.9102 133.232 42.207 133.232C42.5898 133.232 42.9141 133.154 43.1797 132.998C43.4453 132.842 43.6777 132.633 43.877 132.371L44.5332 132.893C44.3965 133.1 44.2227 133.297 44.0117 133.484C43.8008 133.672 43.541 133.824 43.2324 133.941C42.9277 134.059 42.5664 134.117 42.1484 134.117ZM46.9648 128.656V134H45.8809V127.66H46.9355L46.9648 128.656ZM48.9453 127.625L48.9395 128.633C48.8496 128.613 48.7637 128.602 48.6816 128.598C48.6035 128.59 48.5137 128.586 48.4121 128.586C48.1621 128.586 47.9414 128.625 47.75 128.703C47.5586 128.781 47.3965 128.891 47.2637 129.031C47.1309 129.172 47.0254 129.34 46.9473 129.535C46.873 129.727 46.8242 129.938 46.8008 130.168L46.4961 130.344C46.4961 129.961 46.5332 129.602 46.6074 129.266C46.6855 128.93 46.8047 128.633 46.9648 128.375C47.125 128.113 47.3281 127.91 47.5742 127.766C47.8242 127.617 48.1211 127.543 48.4648 127.543C48.543 127.543 48.6328 127.553 48.7344 127.572C48.8359 127.588 48.9062 127.605 48.9453 127.625ZM53.6387 132.318C53.6387 132.162 53.6035 132.018 53.5332 131.885C53.4668 131.748 53.3281 131.625 53.1172 131.516C52.9102 131.402 52.5977 131.305 52.1797 131.223C51.8281 131.148 51.5098 131.061 51.2246 130.959C50.9434 130.857 50.7031 130.734 50.5039 130.59C50.3086 130.445 50.1582 130.275 50.0527 130.08C49.9473 129.885 49.8945 129.656 49.8945 129.395C49.8945 129.145 49.9492 128.908 50.0586 128.686C50.1719 128.463 50.3301 128.266 50.5332 128.094C50.7402 127.922 50.9883 127.787 51.2773 127.689C51.5664 127.592 51.8887 127.543 52.2441 127.543C52.752 127.543 53.1855 127.633 53.5449 127.812C53.9043 127.992 54.1797 128.232 54.3711 128.533C54.5625 128.83 54.6582 129.16 54.6582 129.523H53.5742C53.5742 129.348 53.5215 129.178 53.416 129.014C53.3145 128.846 53.1641 128.707 52.9648 128.598C52.7695 128.488 52.5293 128.434 52.2441 128.434C51.9434 128.434 51.6992 128.48 51.5117 128.574C51.3281 128.664 51.1934 128.779 51.1074 128.92C51.0254 129.061 50.9844 129.209 50.9844 129.365C50.9844 129.482 51.0039 129.588 51.043 129.682C51.0859 129.771 51.1602 129.855 51.2656 129.934C51.3711 130.008 51.5195 130.078 51.7109 130.145C51.9023 130.211 52.1465 130.277 52.4434 130.344C52.9629 130.461 53.3906 130.602 53.7266 130.766C54.0625 130.93 54.3125 131.131 54.4766 131.369C54.6406 131.607 54.7227 131.896 54.7227 132.236C54.7227 132.514 54.6641 132.768 54.5469 132.998C54.4336 133.229 54.2676 133.428 54.0488 133.596C53.834 133.76 53.5762 133.889 53.2754 133.982C52.9785 134.072 52.6445 134.117 52.2734 134.117C51.7148 134.117 51.2422 134.018 50.8555 133.818C50.4688 133.619 50.1758 133.361 49.9766 133.045C49.7773 132.729 49.6777 132.395 49.6777 132.043H50.7676C50.7832 132.34 50.8691 132.576 51.0254 132.752C51.1816 132.924 51.373 133.047 51.5996 133.121C51.8262 133.191 52.0508 133.227 52.2734 133.227C52.5703 133.227 52.8184 133.188 53.0176 133.109C53.2207 133.031 53.375 132.924 53.4805 132.787C53.5859 132.65 53.6387 132.494 53.6387 132.318ZM55.8594 130.9V130.766C55.8594 130.309 55.9258 129.885 56.0586 129.494C56.1914 129.1 56.3828 128.758 56.6328 128.469C56.8828 128.176 57.1855 127.949 57.541 127.789C57.8965 127.625 58.2949 127.543 58.7363 127.543C59.1816 127.543 59.582 127.625 59.9375 127.789C60.2969 127.949 60.6016 128.176 60.8516 128.469C61.1055 128.758 61.2988 129.1 61.4316 129.494C61.5645 129.885 61.6309 130.309 61.6309 130.766V130.9C61.6309 131.357 61.5645 131.781 61.4316 132.172C61.2988 132.562 61.1055 132.904 60.8516 133.197C60.6016 133.486 60.2988 133.713 59.9434 133.877C59.5918 134.037 59.1934 134.117 58.748 134.117C58.3027 134.117 57.9023 134.037 57.5469 133.877C57.1914 133.713 56.8867 133.486 56.6328 133.197C56.3828 132.904 56.1914 132.562 56.0586 132.172C55.9258 131.781 55.8594 131.357 55.8594 130.9ZM56.9434 130.766V130.9C56.9434 131.217 56.9805 131.516 57.0547 131.797C57.1289 132.074 57.2402 132.32 57.3887 132.535C57.541 132.75 57.7305 132.92 57.957 133.045C58.1836 133.166 58.4473 133.227 58.748 133.227C59.0449 133.227 59.3047 133.166 59.5273 133.045C59.7539 132.92 59.9414 132.75 60.0898 132.535C60.2383 132.32 60.3496 132.074 60.4238 131.797C60.502 131.516 60.541 131.217 60.541 130.9V130.766C60.541 130.453 60.502 130.158 60.4238 129.881C60.3496 129.6 60.2363 129.352 60.084 129.137C59.9355 128.918 59.748 128.746 59.5215 128.621C59.2988 128.496 59.0371 128.434 58.7363 128.434C58.4395 128.434 58.1777 128.496 57.9512 128.621C57.7285 128.746 57.541 128.918 57.3887 129.137C57.2402 129.352 57.1289 129.6 57.0547 129.881C56.9805 130.158 56.9434 130.453 56.9434 130.766ZM64.0742 129.014V134H62.9902V127.66H64.0156L64.0742 129.014ZM63.8164 130.59L63.3652 130.572C63.3691 130.139 63.4336 129.738 63.5586 129.371C63.6836 129 63.8594 128.678 64.0859 128.404C64.3125 128.131 64.582 127.92 64.8945 127.771C65.2109 127.619 65.5605 127.543 65.9434 127.543C66.2559 127.543 66.5371 127.586 66.7871 127.672C67.0371 127.754 67.25 127.887 67.4258 128.07C67.6055 128.254 67.7422 128.492 67.8359 128.785C67.9297 129.074 67.9766 129.428 67.9766 129.846V134H66.8867V129.834C66.8867 129.502 66.8379 129.236 66.7402 129.037C66.6426 128.834 66.5 128.688 66.3125 128.598C66.125 128.504 65.8945 128.457 65.6211 128.457C65.3516 128.457 65.1055 128.514 64.8828 128.627C64.6641 128.74 64.4746 128.896 64.3145 129.096C64.1582 129.295 64.0352 129.523 63.9453 129.781C63.8594 130.035 63.8164 130.305 63.8164 130.59Z" fill="black"/>
<path fill-rule="evenodd" clip-rule="evenodd" d="M51 180C51 186.435 52.2674 192.807 54.7299 198.751C57.1924 204.696 60.8017 210.098 65.3518 214.648C69.9018 219.198 75.3036 222.808 81.2485 225.27C87.1935 227.733 93.5652 229 100 229V230C93.4339 230 86.9321 228.707 80.8658 226.194C74.7995 223.681 69.2876 219.998 64.6447 215.355C60.0017 210.712 56.3188 205.2 53.806 199.134C51.2933 193.068 50 186.566 50 180H51Z" fill="black"/>
<rect width="50" height="1" transform="matrix(-1 0 0 1 150 229)" fill="black"/>
<path fill-rule="evenodd" clip-rule="evenodd" d="M199 180C199 173.565 197.733 167.193 195.27 161.249C192.808 155.304 189.198 149.902 184.648 145.352C180.098 140.802 174.696 137.192 168.751 134.73C162.807 132.267 156.435 131 150 131V130C156.566 130 163.068 131.293 169.134 133.806C175.2 136.319 180.712 140.002 185.355 144.645C189.998 149.288 193.681 154.8 196.194 160.866C198.707 166.932 200 173.434 200 180H199Z" fill="black"/>
<rect width="50" height="1" transform="matrix(1 0 0 -1 100 131)" fill="black"/>
<rect x="199.426" y="187.707" width="59" height="59" transform="rotate(45 199.426 187.707)" stroke="black"/>
<path d="M181.866 232.435V233.355H177.6V232.435H181.866ZM177.823 224.824V233.355H176.692V224.824H177.823ZM185.628 233.473C185.186 233.473 184.786 233.398 184.426 233.25C184.071 233.098 183.764 232.885 183.506 232.611C183.253 232.338 183.057 232.014 182.921 231.639C182.784 231.264 182.715 230.853 182.715 230.408V230.162C182.715 229.646 182.792 229.187 182.944 228.785C183.096 228.379 183.303 228.035 183.565 227.754C183.827 227.473 184.124 227.26 184.456 227.115C184.788 226.971 185.131 226.898 185.487 226.898C185.94 226.898 186.331 226.976 186.659 227.133C186.991 227.289 187.262 227.508 187.473 227.789C187.684 228.066 187.84 228.394 187.942 228.773C188.044 229.148 188.094 229.558 188.094 230.004V230.49H183.36V229.605H187.01V229.523C186.995 229.242 186.936 228.969 186.835 228.703C186.737 228.437 186.581 228.219 186.366 228.047C186.151 227.875 185.858 227.789 185.487 227.789C185.241 227.789 185.014 227.842 184.807 227.947C184.6 228.049 184.423 228.201 184.274 228.404C184.126 228.607 184.01 228.855 183.928 229.148C183.846 229.441 183.805 229.779 183.805 230.162V230.408C183.805 230.709 183.846 230.992 183.928 231.258C184.014 231.519 184.137 231.75 184.298 231.949C184.462 232.148 184.659 232.305 184.889 232.418C185.124 232.531 185.389 232.588 185.686 232.588C186.069 232.588 186.393 232.51 186.659 232.353C186.924 232.197 187.157 231.988 187.356 231.726L188.012 232.248C187.876 232.455 187.702 232.652 187.491 232.84C187.28 233.027 187.02 233.18 186.712 233.297C186.407 233.414 186.046 233.473 185.628 233.473ZM193.356 232.125V224.355H194.446V233.355H193.45L193.356 232.125ZM189.09 230.256V230.133C189.09 229.648 189.149 229.209 189.266 228.814C189.387 228.416 189.557 228.074 189.776 227.789C189.999 227.504 190.262 227.285 190.567 227.133C190.876 226.976 191.219 226.898 191.598 226.898C191.997 226.898 192.344 226.969 192.641 227.109C192.942 227.246 193.196 227.447 193.403 227.713C193.614 227.974 193.78 228.291 193.901 228.662C194.022 229.033 194.106 229.453 194.153 229.922V230.461C194.11 230.926 194.026 231.344 193.901 231.715C193.78 232.086 193.614 232.402 193.403 232.664C193.196 232.926 192.942 233.127 192.641 233.267C192.34 233.404 191.989 233.473 191.587 233.473C191.215 233.473 190.876 233.392 190.567 233.232C190.262 233.072 189.999 232.848 189.776 232.558C189.557 232.269 189.387 231.93 189.266 231.539C189.149 231.144 189.09 230.717 189.09 230.256ZM190.18 230.133V230.256C190.18 230.572 190.212 230.869 190.274 231.146C190.34 231.424 190.442 231.668 190.579 231.879C190.715 232.09 190.889 232.256 191.1 232.377C191.311 232.494 191.563 232.553 191.856 232.553C192.215 232.553 192.51 232.476 192.741 232.324C192.975 232.172 193.163 231.971 193.303 231.721C193.444 231.471 193.553 231.199 193.631 230.906V229.494C193.585 229.279 193.516 229.072 193.426 228.873C193.34 228.67 193.227 228.49 193.087 228.334C192.95 228.174 192.78 228.047 192.577 227.953C192.378 227.859 192.141 227.812 191.868 227.812C191.571 227.812 191.315 227.875 191.1 228C190.889 228.121 190.715 228.289 190.579 228.504C190.442 228.715 190.34 228.961 190.274 229.242C190.212 229.519 190.18 229.816 190.18 230.133ZM198.764 233.473C198.323 233.473 197.923 233.398 197.563 233.25C197.208 233.098 196.901 232.885 196.643 232.611C196.389 232.338 196.194 232.014 196.057 231.639C195.921 231.264 195.852 230.853 195.852 230.408V230.162C195.852 229.646 195.928 229.187 196.081 228.785C196.233 228.379 196.44 228.035 196.702 227.754C196.964 227.473 197.26 227.26 197.592 227.115C197.924 226.971 198.268 226.898 198.624 226.898C199.077 226.898 199.467 226.976 199.796 227.133C200.128 227.289 200.399 227.508 200.61 227.789C200.821 228.066 200.977 228.394 201.079 228.773C201.18 229.148 201.231 229.558 201.231 230.004V230.49H196.497V229.605H200.147V229.523C200.131 229.242 200.073 228.969 199.971 228.703C199.874 228.437 199.717 228.219 199.503 228.047C199.288 227.875 198.995 227.789 198.624 227.789C198.378 227.789 198.151 227.842 197.944 227.947C197.737 228.049 197.559 228.201 197.411 228.404C197.262 228.607 197.147 228.855 197.065 229.148C196.983 229.441 196.942 229.779 196.942 230.162V230.408C196.942 230.709 196.983 230.992 197.065 231.258C197.151 231.519 197.274 231.75 197.434 231.949C197.598 232.148 197.796 232.305 198.026 232.418C198.26 232.531 198.526 232.588 198.823 232.588C199.206 232.588 199.53 232.51 199.796 232.353C200.061 232.197 200.294 231.988 200.493 231.726L201.149 232.248C201.012 232.455 200.839 232.652 200.628 232.84C200.417 233.027 200.157 233.18 199.848 233.297C199.544 233.414 199.182 233.473 198.764 233.473ZM203.581 228.012V233.355H202.497V227.016H203.551L203.581 228.012ZM205.561 226.98L205.555 227.988C205.465 227.969 205.38 227.957 205.298 227.953C205.219 227.945 205.13 227.941 205.028 227.941C204.778 227.941 204.557 227.98 204.366 228.058C204.174 228.137 204.012 228.246 203.88 228.387C203.747 228.527 203.641 228.695 203.563 228.891C203.489 229.082 203.44 229.293 203.417 229.523L203.112 229.699C203.112 229.316 203.149 228.957 203.223 228.621C203.301 228.285 203.421 227.988 203.581 227.73C203.741 227.469 203.944 227.266 204.19 227.121C204.44 226.973 204.737 226.898 205.081 226.898C205.159 226.898 205.249 226.908 205.35 226.928C205.452 226.943 205.522 226.961 205.561 226.98ZM207.858 224.824V233.355H206.727V224.824H207.858ZM211.432 228.662V229.588H207.612V228.662H211.432ZM212.012 224.824V225.75H207.612V224.824H212.012ZM212.78 230.256V230.121C212.78 229.664 212.846 229.24 212.979 228.849C213.112 228.455 213.303 228.113 213.553 227.824C213.803 227.531 214.106 227.305 214.462 227.144C214.817 226.98 215.215 226.898 215.657 226.898C216.102 226.898 216.503 226.98 216.858 227.144C217.217 227.305 217.522 227.531 217.772 227.824C218.026 228.113 218.219 228.455 218.352 228.849C218.485 229.24 218.551 229.664 218.551 230.121V230.256C218.551 230.713 218.485 231.137 218.352 231.527C218.219 231.918 218.026 232.26 217.772 232.553C217.522 232.842 217.219 233.068 216.864 233.232C216.512 233.392 216.114 233.473 215.669 233.473C215.223 233.473 214.823 233.392 214.467 233.232C214.112 233.068 213.807 232.842 213.553 232.553C213.303 232.26 213.112 231.918 212.979 231.527C212.846 231.137 212.78 230.713 212.78 230.256ZM213.864 230.121V230.256C213.864 230.572 213.901 230.871 213.975 231.152C214.049 231.43 214.161 231.676 214.309 231.891C214.462 232.105 214.651 232.275 214.878 232.4C215.104 232.521 215.368 232.582 215.669 232.582C215.965 232.582 216.225 232.521 216.448 232.4C216.674 232.275 216.862 232.105 217.01 231.891C217.159 231.676 217.27 231.43 217.344 231.152C217.423 230.871 217.462 230.572 217.462 230.256V230.121C217.462 229.808 217.423 229.514 217.344 229.236C217.27 228.955 217.157 228.707 217.005 228.492C216.856 228.273 216.669 228.101 216.442 227.976C216.219 227.851 215.958 227.789 215.657 227.789C215.36 227.789 215.098 227.851 214.872 227.976C214.649 228.101 214.462 228.273 214.309 228.492C214.161 228.707 214.049 228.955 213.975 229.236C213.901 229.514 213.864 229.808 213.864 230.121ZM220.995 228.012V233.355H219.911V227.016H220.965L220.995 228.012ZM222.975 226.98L222.969 227.988C222.88 227.969 222.794 227.957 222.712 227.953C222.633 227.945 222.544 227.941 222.442 227.941C222.192 227.941 221.971 227.98 221.78 228.058C221.589 228.137 221.426 228.246 221.294 228.387C221.161 228.527 221.055 228.695 220.977 228.891C220.903 229.082 220.854 229.293 220.831 229.523L220.526 229.699C220.526 229.316 220.563 228.957 220.637 228.621C220.715 228.285 220.835 227.988 220.995 227.73C221.155 227.469 221.358 227.266 221.604 227.121C221.854 226.973 222.151 226.898 222.495 226.898C222.573 226.898 222.663 226.908 222.764 226.928C222.866 226.943 222.936 226.961 222.975 226.98Z" fill="black"/>
<rect x="150" y="229" width="8" height="1" fill="black"/>
<rect x="200" y="180" width="8" height="1" transform="rotate(90 200 180)" fill="black"/>
<rect x="10.5" y="0.5" width="79" height="29" rx="14.5" stroke="black"/>
<path d="M43.8301 10.4688V19H42.6934L38.3984 12.4199V19H37.2676V10.4688H38.3984L42.7109 17.0664V10.4688H43.8301ZM49.4082 17.916V14.6523C49.4082 14.4023 49.3574 14.1855 49.2559 14.002C49.1582 13.8145 49.0098 13.6699 48.8105 13.5684C48.6113 13.4668 48.3652 13.416 48.0723 13.416C47.7988 13.416 47.5586 13.4629 47.3516 13.5566C47.1484 13.6504 46.9883 13.7734 46.8711 13.9258C46.7578 14.0781 46.7012 14.2422 46.7012 14.418H45.6172C45.6172 14.1914 45.6758 13.9668 45.793 13.7441C45.9102 13.5215 46.0781 13.3203 46.2969 13.1406C46.5195 12.957 46.7852 12.8125 47.0938 12.707C47.4062 12.5977 47.7539 12.543 48.1367 12.543C48.5977 12.543 49.0039 12.6211 49.3555 12.7773C49.7109 12.9336 49.9883 13.1699 50.1875 13.4863C50.3906 13.7988 50.4922 14.1914 50.4922 14.6641V17.6172C50.4922 17.8281 50.5098 18.0527 50.5449 18.291C50.584 18.5293 50.6406 18.7344 50.7148 18.9062V19H49.584C49.5293 18.875 49.4863 18.709 49.4551 18.502C49.4238 18.291 49.4082 18.0957 49.4082 17.916ZM49.5957 15.1562L49.6074 15.918H48.5117C48.2031 15.918 47.9277 15.9434 47.6855 15.9941C47.4434 16.041 47.2402 16.1133 47.0762 16.2109C46.9121 16.3086 46.7871 16.4316 46.7012 16.5801C46.6152 16.7246 46.5723 16.8945 46.5723 17.0898C46.5723 17.2891 46.6172 17.4707 46.707 17.6348C46.7969 17.7988 46.9316 17.9297 47.1113 18.0273C47.2949 18.1211 47.5195 18.168 47.7852 18.168C48.1172 18.168 48.4102 18.0977 48.6641 17.957C48.918 17.8164 49.1191 17.6445 49.2676 17.4414C49.4199 17.2383 49.502 17.041 49.5137 16.8496L49.9766 17.3711C49.9492 17.5352 49.875 17.7168 49.7539 17.916C49.6328 18.1152 49.4707 18.3066 49.2676 18.4902C49.0684 18.6699 48.8301 18.8203 48.5527 18.9414C48.2793 19.0586 47.9707 19.1172 47.627 19.1172C47.1973 19.1172 46.8203 19.0332 46.4961 18.8652C46.1758 18.6973 45.9258 18.4727 45.7461 18.1914C45.5703 17.9062 45.4824 17.5879 45.4824 17.2363C45.4824 16.8965 45.5488 16.5977 45.6816 16.3398C45.8145 16.0781 46.0059 15.8613 46.2559 15.6895C46.5059 15.5137 46.8066 15.3809 47.1582 15.291C47.5098 15.2012 47.9023 15.1562 48.3359 15.1562H49.5957ZM54.0312 18.0215L55.7656 12.6602H56.873L54.5938 19H53.8672L54.0312 18.0215ZM52.584 12.6602L54.3711 18.0508L54.4941 19H53.7676L51.4707 12.6602H52.584ZM59 14.0137V19H57.916V12.6602H58.9414L59 14.0137ZM58.7422 15.5898L58.291 15.5723C58.2949 15.1387 58.3594 14.7383 58.4844 14.3711C58.6094 14 58.7852 13.6777 59.0117 13.4043C59.2383 13.1309 59.5078 12.9199 59.8203 12.7715C60.1367 12.6191 60.4863 12.543 60.8691 12.543C61.1816 12.543 61.4629 12.5859 61.7129 12.6719C61.9629 12.7539 62.1758 12.8867 62.3516 13.0703C62.5312 13.2539 62.668 13.4922 62.7617 13.7852C62.8555 14.0742 62.9023 14.4277 62.9023 14.8457V19H61.8125V14.834C61.8125 14.502 61.7637 14.2363 61.666 14.0371C61.5684 13.834 61.4258 13.6875 61.2383 13.5977C61.0508 13.5039 60.8203 13.457 60.5469 13.457C60.2773 13.457 60.0312 13.5137 59.8086 13.627C59.5898 13.7402 59.4004 13.8965 59.2402 14.0957C59.084 14.2949 58.9609 14.5234 58.8711 14.7812C58.7852 15.0352 58.7422 15.3047 58.7422 15.5898Z" fill="black"/>
<rect x="49" y="80" width="50" height="1" transform="rotate(-90 49 80)" fill="black"/>
<path d="M102.307 121.59V121.531C102.307 120.68 102.402 119.91 102.594 119.223C102.785 118.531 103.029 117.926 103.326 117.406C103.623 116.887 103.936 116.457 104.264 116.117C104.592 115.773 104.895 115.525 105.172 115.373L105.4 116.088C105.17 116.264 104.936 116.506 104.697 116.814C104.463 117.123 104.246 117.502 104.047 117.951C103.852 118.4 103.693 118.922 103.572 119.516C103.451 120.109 103.391 120.777 103.391 121.52V121.602C103.391 122.344 103.451 123.014 103.572 123.611C103.693 124.205 103.852 124.729 104.047 125.182C104.246 125.635 104.463 126.02 104.697 126.336C104.936 126.656 105.17 126.91 105.4 127.098L105.172 127.754C104.895 127.602 104.592 127.354 104.264 127.01C103.936 126.67 103.623 126.24 103.326 125.721C103.029 125.205 102.785 124.602 102.594 123.91C102.402 123.219 102.307 122.445 102.307 121.59ZM111.699 120.055V121.355C111.699 122.055 111.637 122.645 111.512 123.125C111.387 123.605 111.207 123.992 110.973 124.285C110.738 124.578 110.455 124.791 110.123 124.924C109.795 125.053 109.424 125.117 109.01 125.117C108.682 125.117 108.379 125.076 108.102 124.994C107.824 124.912 107.574 124.781 107.352 124.602C107.133 124.418 106.945 124.18 106.789 123.887C106.633 123.594 106.514 123.238 106.432 122.82C106.35 122.402 106.309 121.914 106.309 121.355V120.055C106.309 119.355 106.371 118.77 106.496 118.297C106.625 117.824 106.807 117.445 107.041 117.16C107.275 116.871 107.557 116.664 107.885 116.539C108.217 116.414 108.588 116.352 108.998 116.352C109.33 116.352 109.635 116.393 109.912 116.475C110.193 116.553 110.443 116.68 110.662 116.855C110.881 117.027 111.066 117.258 111.219 117.547C111.375 117.832 111.494 118.182 111.576 118.596C111.658 119.01 111.699 119.496 111.699 120.055ZM110.609 121.531V119.873C110.609 119.49 110.586 119.154 110.539 118.865C110.496 118.572 110.432 118.322 110.346 118.115C110.26 117.908 110.15 117.74 110.018 117.611C109.889 117.482 109.738 117.389 109.566 117.33C109.398 117.268 109.209 117.236 108.998 117.236C108.74 117.236 108.512 117.285 108.312 117.383C108.113 117.477 107.945 117.627 107.809 117.834C107.676 118.041 107.574 118.312 107.504 118.648C107.434 118.984 107.398 119.393 107.398 119.873V121.531C107.398 121.914 107.42 122.252 107.463 122.545C107.51 122.838 107.578 123.092 107.668 123.307C107.758 123.518 107.867 123.691 107.996 123.828C108.125 123.965 108.273 124.066 108.441 124.133C108.613 124.195 108.803 124.227 109.01 124.227C109.275 124.227 109.508 124.176 109.707 124.074C109.906 123.973 110.072 123.814 110.205 123.6C110.342 123.381 110.443 123.102 110.51 122.762C110.576 122.418 110.609 122.008 110.609 121.531ZM114.195 123.711V124.584C114.195 124.939 114.105 125.314 113.926 125.709C113.746 126.107 113.494 126.439 113.17 126.705L112.555 126.277C112.68 126.105 112.785 125.93 112.871 125.75C112.957 125.574 113.021 125.391 113.064 125.199C113.111 125.012 113.135 124.812 113.135 124.602V123.711H114.195ZM125.281 116.469V125H124.145L119.85 118.42V125H118.719V116.469H119.85L124.162 123.066V116.469H125.281ZM129.617 121.531V121.59C129.617 122.445 129.521 123.219 129.33 123.91C129.139 124.602 128.895 125.205 128.598 125.721C128.301 126.24 127.988 126.67 127.66 127.01C127.332 127.354 127.029 127.602 126.752 127.754L126.523 127.098C126.754 126.922 126.986 126.676 127.221 126.359C127.455 126.047 127.672 125.66 127.871 125.199C128.07 124.742 128.23 124.215 128.352 123.617C128.473 123.016 128.533 122.344 128.533 121.602V121.52C128.533 120.777 128.469 120.107 128.34 119.51C128.211 118.908 128.043 118.379 127.836 117.922C127.633 117.465 127.414 117.08 127.18 116.768C126.949 116.451 126.73 116.207 126.523 116.035L126.752 115.373C127.029 115.525 127.332 115.773 127.66 116.117C127.988 116.457 128.301 116.887 128.598 117.406C128.895 117.926 129.139 118.531 129.33 119.223C129.521 119.91 129.617 120.68 129.617 121.531Z" fill="black"/>
<path d="M21.2148 189.59V189.531C21.2148 188.68 21.3105 187.91 21.502 187.223C21.6934 186.531 21.9375 185.926 22.2344 185.406C22.5312 184.887 22.8438 184.457 23.1719 184.117C23.5 183.773 23.8027 183.525 24.0801 183.373L24.3086 184.088C24.0781 184.264 23.8438 184.506 23.6055 184.814C23.3711 185.123 23.1543 185.502 22.9551 185.951C22.7598 186.4 22.6016 186.922 22.4805 187.516C22.3594 188.109 22.2988 188.777 22.2988 189.52V189.602C22.2988 190.344 22.3594 191.014 22.4805 191.611C22.6016 192.205 22.7598 192.729 22.9551 193.182C23.1543 193.635 23.3711 194.02 23.6055 194.336C23.8438 194.656 24.0781 194.91 24.3086 195.098L24.0801 195.754C23.8027 195.602 23.5 195.354 23.1719 195.01C22.8438 194.67 22.5312 194.24 22.2344 193.721C21.9375 193.205 21.6934 192.602 21.502 191.91C21.3105 191.219 21.2148 190.445 21.2148 189.59ZM30.6074 188.055V189.355C30.6074 190.055 30.5449 190.645 30.4199 191.125C30.2949 191.605 30.1152 191.992 29.8809 192.285C29.6465 192.578 29.3633 192.791 29.0312 192.924C28.7031 193.053 28.332 193.117 27.918 193.117C27.5898 193.117 27.2871 193.076 27.0098 192.994C26.7324 192.912 26.4824 192.781 26.2598 192.602C26.041 192.418 25.8535 192.18 25.6973 191.887C25.541 191.594 25.4219 191.238 25.3398 190.82C25.2578 190.402 25.2168 189.914 25.2168 189.355V188.055C25.2168 187.355 25.2793 186.77 25.4043 186.297C25.5332 185.824 25.7148 185.445 25.9492 185.16C26.1836 184.871 26.4648 184.664 26.793 184.539C27.125 184.414 27.4961 184.352 27.9062 184.352C28.2383 184.352 28.543 184.393 28.8203 184.475C29.1016 184.553 29.3516 184.68 29.5703 184.855C29.7891 185.027 29.9746 185.258 30.127 185.547C30.2832 185.832 30.4023 186.182 30.4844 186.596C30.5664 187.01 30.6074 187.496 30.6074 188.055ZM29.5176 189.531V187.873C29.5176 187.49 29.4941 187.154 29.4473 186.865C29.4043 186.572 29.3398 186.322 29.2539 186.115C29.168 185.908 29.0586 185.74 28.9258 185.611C28.7969 185.482 28.6465 185.389 28.4746 185.33C28.3066 185.268 28.1172 185.236 27.9062 185.236C27.6484 185.236 27.4199 185.285 27.2207 185.383C27.0215 185.477 26.8535 185.627 26.7168 185.834C26.584 186.041 26.4824 186.312 26.4121 186.648C26.3418 186.984 26.3066 187.393 26.3066 187.873V189.531C26.3066 189.914 26.3281 190.252 26.3711 190.545C26.418 190.838 26.4863 191.092 26.5762 191.307C26.666 191.518 26.7754 191.691 26.9043 191.828C27.0332 191.965 27.1816 192.066 27.3496 192.133C27.5215 192.195 27.7109 192.227 27.918 192.227C28.1836 192.227 28.416 192.176 28.6152 192.074C28.8145 191.973 28.9805 191.814 29.1133 191.6C29.25 191.381 29.3516 191.102 29.418 190.762C29.4844 190.418 29.5176 190.008 29.5176 189.531ZM33.1035 191.711V192.584C33.1035 192.939 33.0137 193.314 32.834 193.709C32.6543 194.107 32.4023 194.439 32.0781 194.705L31.4629 194.277C31.5879 194.105 31.6934 193.93 31.7793 193.75C31.8652 193.574 31.9297 193.391 31.9727 193.199C32.0195 193.012 32.043 192.812 32.043 192.602V191.711H33.1035ZM40.9082 184.422V193H39.8242V185.775L37.6387 186.572V185.594L40.7383 184.422H40.9082ZM46.709 189.531V189.59C46.709 190.445 46.6133 191.219 46.4219 191.91C46.2305 192.602 45.9863 193.205 45.6895 193.721C45.3926 194.24 45.0801 194.67 44.752 195.01C44.4238 195.354 44.1211 195.602 43.8438 195.754L43.6152 195.098C43.8457 194.922 44.0781 194.676 44.3125 194.359C44.5469 194.047 44.7637 193.66 44.9629 193.199C45.1621 192.742 45.3223 192.215 45.4434 191.617C45.5645 191.016 45.625 190.344 45.625 189.602V189.52C45.625 188.777 45.5605 188.107 45.4316 187.51C45.3027 186.908 45.1348 186.379 44.9277 185.922C44.7246 185.465 44.5059 185.08 44.2715 184.768C44.041 184.451 43.8223 184.207 43.6152 184.035L43.8438 183.373C44.1211 183.525 44.4238 183.773 44.752 184.117C45.0801 184.457 45.3926 184.887 45.6895 185.406C45.9863 185.926 46.2305 186.531 46.4219 187.223C46.6133 187.91 46.709 188.68 46.709 189.531Z" fill="black"/>
<path d="M96.8711 216.469H97.9961V222.24C97.9961 222.881 97.8535 223.414 97.5684 223.84C97.2832 224.266 96.9043 224.586 96.4316 224.801C95.9629 225.012 95.4531 225.117 94.9023 225.117C94.3242 225.117 93.8008 225.012 93.332 224.801C92.8672 224.586 92.498 224.266 92.2246 223.84C91.9551 223.414 91.8203 222.881 91.8203 222.24V216.469H92.9395V222.24C92.9395 222.686 93.0215 223.053 93.1855 223.342C93.3496 223.631 93.5781 223.846 93.8711 223.986C94.168 224.127 94.5117 224.197 94.9023 224.197C95.2969 224.197 95.6406 224.127 95.9336 223.986C96.2305 223.846 96.4609 223.631 96.625 223.342C96.7891 223.053 96.8711 222.686 96.8711 222.24V216.469ZM100.691 220.014V225H99.6074V218.66H100.633L100.691 220.014ZM100.434 221.59L99.9824 221.572C99.9863 221.139 100.051 220.738 100.176 220.371C100.301 220 100.477 219.678 100.703 219.404C100.93 219.131 101.199 218.92 101.512 218.771C101.828 218.619 102.178 218.543 102.561 218.543C102.873 218.543 103.154 218.586 103.404 218.672C103.654 218.754 103.867 218.887 104.043 219.07C104.223 219.254 104.359 219.492 104.453 219.785C104.547 220.074 104.594 220.428 104.594 220.846V225H103.504V220.834C103.504 220.502 103.455 220.236 103.357 220.037C103.26 219.834 103.117 219.688 102.93 219.598C102.742 219.504 102.512 219.457 102.238 219.457C101.969 219.457 101.723 219.514 101.5 219.627C101.281 219.74 101.092 219.896 100.932 220.096C100.775 220.295 100.652 220.523 100.562 220.781C100.477 221.035 100.434 221.305 100.434 221.59ZM110.236 223.77V216H111.326V225H110.33L110.236 223.77ZM105.971 221.9V221.777C105.971 221.293 106.029 220.854 106.146 220.459C106.268 220.061 106.438 219.719 106.656 219.434C106.879 219.148 107.143 218.93 107.447 218.777C107.756 218.621 108.1 218.543 108.479 218.543C108.877 218.543 109.225 218.613 109.521 218.754C109.822 218.891 110.076 219.092 110.283 219.357C110.494 219.619 110.66 219.936 110.781 220.307C110.902 220.678 110.986 221.098 111.033 221.566V222.105C110.99 222.57 110.906 222.988 110.781 223.359C110.66 223.73 110.494 224.047 110.283 224.309C110.076 224.57 109.822 224.771 109.521 224.912C109.221 225.049 108.869 225.117 108.467 225.117C108.096 225.117 107.756 225.037 107.447 224.877C107.143 224.717 106.879 224.492 106.656 224.203C106.438 223.914 106.268 223.574 106.146 223.184C106.029 222.789 105.971 222.361 105.971 221.9ZM107.061 221.777V221.9C107.061 222.217 107.092 222.514 107.154 222.791C107.221 223.068 107.322 223.312 107.459 223.523C107.596 223.734 107.77 223.9 107.98 224.021C108.191 224.139 108.443 224.197 108.736 224.197C109.096 224.197 109.391 224.121 109.621 223.969C109.855 223.816 110.043 223.615 110.184 223.365C110.324 223.115 110.434 222.844 110.512 222.551V221.139C110.465 220.924 110.396 220.717 110.307 220.518C110.221 220.314 110.107 220.135 109.967 219.979C109.83 219.818 109.66 219.691 109.457 219.598C109.258 219.504 109.021 219.457 108.748 219.457C108.451 219.457 108.195 219.52 107.98 219.645C107.77 219.766 107.596 219.934 107.459 220.148C107.322 220.359 107.221 220.605 107.154 220.887C107.092 221.164 107.061 221.461 107.061 221.777ZM115.645 225.117C115.203 225.117 114.803 225.043 114.443 224.895C114.088 224.742 113.781 224.529 113.523 224.256C113.27 223.982 113.074 223.658 112.938 223.283C112.801 222.908 112.732 222.498 112.732 222.053V221.807C112.732 221.291 112.809 220.832 112.961 220.43C113.113 220.023 113.32 219.68 113.582 219.398C113.844 219.117 114.141 218.904 114.473 218.76C114.805 218.615 115.148 218.543 115.504 218.543C115.957 218.543 116.348 218.621 116.676 218.777C117.008 218.934 117.279 219.152 117.49 219.434C117.701 219.711 117.857 220.039 117.959 220.418C118.061 220.793 118.111 221.203 118.111 221.648V222.135H113.377V221.25H117.027V221.168C117.012 220.887 116.953 220.613 116.852 220.348C116.754 220.082 116.598 219.863 116.383 219.691C116.168 219.52 115.875 219.434 115.504 219.434C115.258 219.434 115.031 219.486 114.824 219.592C114.617 219.693 114.439 219.846 114.291 220.049C114.143 220.252 114.027 220.5 113.945 220.793C113.863 221.086 113.822 221.424 113.822 221.807V222.053C113.822 222.354 113.863 222.637 113.945 222.902C114.031 223.164 114.154 223.395 114.314 223.594C114.479 223.793 114.676 223.949 114.906 224.062C115.141 224.176 115.406 224.232 115.703 224.232C116.086 224.232 116.41 224.154 116.676 223.998C116.941 223.842 117.174 223.633 117.373 223.371L118.029 223.893C117.893 224.1 117.719 224.297 117.508 224.484C117.297 224.672 117.037 224.824 116.729 224.941C116.424 225.059 116.062 225.117 115.645 225.117ZM120.461 219.656V225H119.377V218.66H120.432L120.461 219.656ZM122.441 218.625L122.436 219.633C122.346 219.613 122.26 219.602 122.178 219.598C122.1 219.59 122.01 219.586 121.908 219.586C121.658 219.586 121.438 219.625 121.246 219.703C121.055 219.781 120.893 219.891 120.76 220.031C120.627 220.172 120.521 220.34 120.443 220.535C120.369 220.727 120.32 220.938 120.297 221.168L119.992 221.344C119.992 220.961 120.029 220.602 120.104 220.266C120.182 219.93 120.301 219.633 120.461 219.375C120.621 219.113 120.824 218.91 121.07 218.766C121.32 218.617 121.617 218.543 121.961 218.543C122.039 218.543 122.129 218.553 122.23 218.572C122.332 218.588 122.402 218.605 122.441 218.625ZM123.039 221.9V221.766C123.039 221.309 123.105 220.885 123.238 220.494C123.371 220.1 123.562 219.758 123.812 219.469C124.062 219.176 124.365 218.949 124.721 218.789C125.076 218.625 125.475 218.543 125.916 218.543C126.361 218.543 126.762 218.625 127.117 218.789C127.477 218.949 127.781 219.176 128.031 219.469C128.285 219.758 128.479 220.1 128.611 220.494C128.744 220.885 128.811 221.309 128.811 221.766V221.9C128.811 222.357 128.744 222.781 128.611 223.172C128.479 223.562 128.285 223.904 128.031 224.197C127.781 224.486 127.479 224.713 127.123 224.877C126.771 225.037 126.373 225.117 125.928 225.117C125.482 225.117 125.082 225.037 124.727 224.877C124.371 224.713 124.066 224.486 123.812 224.197C123.562 223.904 123.371 223.562 123.238 223.172C123.105 222.781 123.039 222.357 123.039 221.9ZM124.123 221.766V221.9C124.123 222.217 124.16 222.516 124.234 222.797C124.309 223.074 124.42 223.32 124.568 223.535C124.721 223.75 124.91 223.92 125.137 224.045C125.363 224.166 125.627 224.227 125.928 224.227C126.225 224.227 126.484 224.166 126.707 224.045C126.934 223.92 127.121 223.75 127.27 223.535C127.418 223.32 127.529 223.074 127.604 222.797C127.682 222.516 127.721 222.217 127.721 221.9V221.766C127.721 221.453 127.682 221.158 127.604 220.881C127.529 220.6 127.416 220.352 127.264 220.137C127.115 219.918 126.928 219.746 126.701 219.621C126.479 219.496 126.217 219.434 125.916 219.434C125.619 219.434 125.357 219.496 125.131 219.621C124.908 219.746 124.721 219.918 124.568 220.137C124.42 220.352 124.309 220.6 124.234 220.881C124.16 221.158 124.123 221.453 124.123 221.766ZM131.254 219.656V225H130.17V218.66H131.225L131.254 219.656ZM133.234 218.625L133.229 219.633C133.139 219.613 133.053 219.602 132.971 219.598C132.893 219.59 132.803 219.586 132.701 219.586C132.451 219.586 132.23 219.625 132.039 219.703C131.848 219.781 131.686 219.891 131.553 220.031C131.42 220.172 131.314 220.34 131.236 220.535C131.162 220.727 131.113 220.938 131.09 221.168L130.785 221.344C130.785 220.961 130.822 220.602 130.896 220.266C130.975 219.93 131.094 219.633 131.254 219.375C131.414 219.113 131.617 218.91 131.863 218.766C132.113 218.617 132.41 218.543 132.754 218.543C132.832 218.543 132.922 218.553 133.023 218.572C133.125 218.588 133.195 218.605 133.234 218.625ZM138.115 223.77V216H139.205V225H138.209L138.115 223.77ZM133.85 221.9V221.777C133.85 221.293 133.908 220.854 134.025 220.459C134.146 220.061 134.316 219.719 134.535 219.434C134.758 219.148 135.021 218.93 135.326 218.777C135.635 218.621 135.979 218.543 136.357 218.543C136.756 218.543 137.104 218.613 137.4 218.754C137.701 218.891 137.955 219.092 138.162 219.357C138.373 219.619 138.539 219.936 138.66 220.307C138.781 220.678 138.865 221.098 138.912 221.566V222.105C138.869 222.57 138.785 222.988 138.66 223.359C138.539 223.73 138.373 224.047 138.162 224.309C137.955 224.57 137.701 224.771 137.4 224.912C137.1 225.049 136.748 225.117 136.346 225.117C135.975 225.117 135.635 225.037 135.326 224.877C135.021 224.717 134.758 224.492 134.535 224.203C134.316 223.914 134.146 223.574 134.025 223.184C133.908 222.789 133.85 222.361 133.85 221.9ZM134.939 221.777V221.9C134.939 222.217 134.971 222.514 135.033 222.791C135.1 223.068 135.201 223.312 135.338 223.523C135.475 223.734 135.648 223.9 135.859 224.021C136.07 224.139 136.322 224.197 136.615 224.197C136.975 224.197 137.27 224.121 137.5 223.969C137.734 223.816 137.922 223.615 138.062 223.365C138.203 223.115 138.312 222.844 138.391 222.551V221.139C138.344 220.924 138.275 220.717 138.186 220.518C138.1 220.314 137.986 220.135 137.846 219.979C137.709 219.818 137.539 219.691 137.336 219.598C137.137 219.504 136.9 219.457 136.627 219.457C136.33 219.457 136.074 219.52 135.859 219.645C135.648 219.766 135.475 219.934 135.338 220.148C135.201 220.359 135.1 220.605 135.033 220.887C134.971 221.164 134.939 221.461 134.939 221.777ZM141.977 220.014V225H140.893V218.66H141.918L141.977 220.014ZM141.719 221.59L141.268 221.572C141.271 221.139 141.336 220.738 141.461 220.371C141.586 220 141.762 219.678 141.988 219.404C142.215 219.131 142.484 218.92 142.797 218.771C143.113 218.619 143.463 218.543 143.846 218.543C144.158 218.543 144.439 218.586 144.689 218.672C144.939 218.754 145.152 218.887 145.328 219.07C145.508 219.254 145.645 219.492 145.738 219.785C145.832 220.074 145.879 220.428 145.879 220.846V225H144.789V220.834C144.789 220.502 144.74 220.236 144.643 220.037C144.545 219.834 144.402 219.688 144.215 219.598C144.027 219.504 143.797 219.457 143.523 219.457C143.254 219.457 143.008 219.514 142.785 219.627C142.566 219.74 142.377 219.896 142.217 220.096C142.061 220.295 141.938 220.523 141.848 220.781C141.762 221.035 141.719 221.305 141.719 221.59ZM150.156 225.117C149.715 225.117 149.314 225.043 148.955 224.895C148.6 224.742 148.293 224.529 148.035 224.256C147.781 223.982 147.586 223.658 147.449 223.283C147.312 222.908 147.244 222.498 147.244 222.053V221.807C147.244 221.291 147.32 220.832 147.473 220.43C147.625 220.023 147.832 219.68 148.094 219.398C148.355 219.117 148.652 218.904 148.984 218.76C149.316 218.615 149.66 218.543 150.016 218.543C150.469 218.543 150.859 218.621 151.188 218.777C151.52 218.934 151.791 219.152 152.002 219.434C152.213 219.711 152.369 220.039 152.471 220.418C152.572 220.793 152.623 221.203 152.623 221.648V222.135H147.889V221.25H151.539V221.168C151.523 220.887 151.465 220.613 151.363 220.348C151.266 220.082 151.109 219.863 150.895 219.691C150.68 219.52 150.387 219.434 150.016 219.434C149.77 219.434 149.543 219.486 149.336 219.592C149.129 219.693 148.951 219.846 148.803 220.049C148.654 220.252 148.539 220.5 148.457 220.793C148.375 221.086 148.334 221.424 148.334 221.807V222.053C148.334 222.354 148.375 222.637 148.457 222.902C148.543 223.164 148.666 223.395 148.826 223.594C148.99 223.793 149.188 223.949 149.418 224.062C149.652 224.176 149.918 224.232 150.215 224.232C150.598 224.232 150.922 224.154 151.188 223.998C151.453 223.842 151.686 223.633 151.885 223.371L152.541 223.893C152.404 224.1 152.23 224.297 152.02 224.484C151.809 224.672 151.549 224.824 151.24 224.941C150.936 225.059 150.574 225.117 150.156 225.117ZM156.543 218.66V219.492H153.115V218.66H156.543ZM154.275 217.119H155.359V223.43C155.359 223.645 155.393 223.807 155.459 223.916C155.525 224.025 155.611 224.098 155.717 224.133C155.822 224.168 155.936 224.186 156.057 224.186C156.146 224.186 156.24 224.178 156.338 224.162C156.439 224.143 156.516 224.127 156.566 224.115L156.572 225C156.486 225.027 156.373 225.053 156.232 225.076C156.096 225.104 155.93 225.117 155.734 225.117C155.469 225.117 155.225 225.064 155.002 224.959C154.779 224.854 154.602 224.678 154.469 224.432C154.34 224.182 154.275 223.846 154.275 223.424V217.119Z" fill="black"/>
<path d="M145.537 122.844C145.537 122.645 145.506 122.469 145.443 122.316C145.385 122.16 145.279 122.02 145.127 121.895C144.979 121.77 144.771 121.65 144.506 121.537C144.244 121.424 143.912 121.309 143.51 121.191C143.088 121.066 142.707 120.928 142.367 120.775C142.027 120.619 141.736 120.441 141.494 120.242C141.252 120.043 141.066 119.814 140.938 119.557C140.809 119.299 140.744 119.004 140.744 118.672C140.744 118.34 140.812 118.033 140.949 117.752C141.086 117.471 141.281 117.227 141.535 117.02C141.793 116.809 142.1 116.645 142.455 116.527C142.811 116.41 143.207 116.352 143.645 116.352C144.285 116.352 144.828 116.475 145.273 116.721C145.723 116.963 146.064 117.281 146.299 117.676C146.533 118.066 146.65 118.484 146.65 118.93H145.525C145.525 118.609 145.457 118.326 145.32 118.08C145.184 117.83 144.977 117.635 144.699 117.494C144.422 117.35 144.07 117.277 143.645 117.277C143.242 117.277 142.91 117.338 142.648 117.459C142.387 117.58 142.191 117.744 142.062 117.951C141.938 118.158 141.875 118.395 141.875 118.66C141.875 118.84 141.912 119.004 141.986 119.152C142.064 119.297 142.184 119.432 142.344 119.557C142.508 119.682 142.715 119.797 142.965 119.902C143.219 120.008 143.521 120.109 143.873 120.207C144.357 120.344 144.775 120.496 145.127 120.664C145.479 120.832 145.768 121.021 145.994 121.232C146.225 121.439 146.395 121.676 146.504 121.941C146.617 122.203 146.674 122.5 146.674 122.832C146.674 123.18 146.604 123.494 146.463 123.775C146.322 124.057 146.121 124.297 145.859 124.496C145.598 124.695 145.283 124.85 144.916 124.959C144.553 125.064 144.146 125.117 143.697 125.117C143.303 125.117 142.914 125.062 142.531 124.953C142.152 124.844 141.807 124.68 141.494 124.461C141.186 124.242 140.938 123.973 140.75 123.652C140.566 123.328 140.475 122.953 140.475 122.527H141.6C141.6 122.82 141.656 123.072 141.77 123.283C141.883 123.49 142.037 123.662 142.232 123.799C142.432 123.936 142.656 124.037 142.906 124.104C143.16 124.166 143.424 124.197 143.697 124.197C144.092 124.197 144.426 124.143 144.699 124.033C144.973 123.924 145.18 123.768 145.32 123.564C145.465 123.361 145.537 123.121 145.537 122.844ZM147.98 118.66H149.07V125.756C149.07 126.143 149.008 126.471 148.883 126.74C148.762 127.01 148.578 127.213 148.332 127.35C148.09 127.49 147.783 127.561 147.412 127.561C147.314 127.561 147.201 127.551 147.072 127.531C146.939 127.512 146.828 127.488 146.738 127.461L146.744 126.588C146.818 126.604 146.902 126.615 146.996 126.623C147.09 126.635 147.172 126.641 147.242 126.641C147.402 126.641 147.537 126.611 147.646 126.553C147.756 126.494 147.838 126.4 147.893 126.271C147.951 126.143 147.98 125.971 147.98 125.756V118.66ZM147.869 116.979C147.869 116.803 147.924 116.654 148.033 116.533C148.143 116.412 148.301 116.352 148.508 116.352C148.719 116.352 148.879 116.412 148.988 116.533C149.098 116.654 149.152 116.803 149.152 116.979C149.152 117.146 149.098 117.291 148.988 117.412C148.879 117.529 148.719 117.588 148.508 117.588C148.301 117.588 148.143 117.529 148.033 117.412C147.924 117.291 147.869 117.146 147.869 116.979ZM153.453 125.117C153.012 125.117 152.611 125.043 152.252 124.895C151.896 124.742 151.59 124.529 151.332 124.256C151.078 123.982 150.883 123.658 150.746 123.283C150.609 122.908 150.541 122.498 150.541 122.053V121.807C150.541 121.291 150.617 120.832 150.77 120.43C150.922 120.023 151.129 119.68 151.391 119.398C151.652 119.117 151.949 118.904 152.281 118.76C152.613 118.615 152.957 118.543 153.312 118.543C153.766 118.543 154.156 118.621 154.484 118.777C154.816 118.934 155.088 119.152 155.299 119.434C155.51 119.711 155.666 120.039 155.768 120.418C155.869 120.793 155.92 121.203 155.92 121.648V122.135H151.186V121.25H154.836V121.168C154.82 120.887 154.762 120.613 154.66 120.348C154.562 120.082 154.406 119.863 154.191 119.691C153.977 119.52 153.684 119.434 153.312 119.434C153.066 119.434 152.84 119.486 152.633 119.592C152.426 119.693 152.248 119.846 152.1 120.049C151.951 120.252 151.836 120.5 151.754 120.793C151.672 121.086 151.631 121.424 151.631 121.807V122.053C151.631 122.354 151.672 122.637 151.754 122.902C151.84 123.164 151.963 123.395 152.123 123.594C152.287 123.793 152.484 123.949 152.715 124.062C152.949 124.176 153.215 124.232 153.512 124.232C153.895 124.232 154.219 124.154 154.484 123.998C154.75 123.842 154.982 123.633 155.182 123.371L155.838 123.893C155.701 124.1 155.527 124.297 155.316 124.484C155.105 124.672 154.846 124.824 154.537 124.941C154.232 125.059 153.871 125.117 153.453 125.117ZM158.803 125H157.719V117.992C157.719 117.535 157.801 117.15 157.965 116.838C158.133 116.521 158.373 116.283 158.686 116.123C158.998 115.959 159.369 115.877 159.799 115.877C159.924 115.877 160.049 115.885 160.174 115.9C160.303 115.916 160.428 115.939 160.549 115.971L160.49 116.855C160.408 116.836 160.314 116.822 160.209 116.814C160.107 116.807 160.006 116.803 159.904 116.803C159.674 116.803 159.475 116.85 159.307 116.943C159.143 117.033 159.018 117.166 158.932 117.342C158.846 117.518 158.803 117.734 158.803 117.992V125ZM160.15 118.66V119.492H156.717V118.66H160.15Z" fill="black"/>
</svg>
