<svg width="543" height="180" viewBox="0 0 543 180" fill="none" xmlns="http://www.w3.org/2000/svg">
<rect x="80.5" y="80.5" width="99" height="99" stroke="black"/>
<path d="M121.74 133.08V134H117.223V133.08H121.74ZM117.451 125.469V134H116.32V125.469H117.451ZM121.143 129.137V130.057H117.223V129.137H121.143ZM121.682 125.469V126.395H117.223V125.469H121.682ZM124.055 128.92V134H122.965V127.66H123.996L124.055 128.92ZM123.832 130.59L123.328 130.572C123.332 130.139 123.389 129.738 123.498 129.371C123.607 129 123.77 128.678 123.984 128.404C124.199 128.131 124.467 127.92 124.787 127.771C125.107 127.619 125.479 127.543 125.9 127.543C126.197 127.543 126.471 127.586 126.721 127.672C126.971 127.754 127.188 127.885 127.371 128.064C127.555 128.244 127.697 128.475 127.799 128.756C127.9 129.037 127.951 129.377 127.951 129.775V134H126.867V129.828C126.867 129.496 126.811 129.23 126.697 129.031C126.588 128.832 126.432 128.688 126.229 128.598C126.025 128.504 125.787 128.457 125.514 128.457C125.193 128.457 124.926 128.514 124.711 128.627C124.496 128.74 124.324 128.896 124.195 129.096C124.066 129.295 123.973 129.523 123.914 129.781C123.859 130.035 123.832 130.305 123.832 130.59ZM127.939 129.992L127.213 130.215C127.217 129.867 127.273 129.533 127.383 129.213C127.496 128.893 127.658 128.607 127.869 128.357C128.084 128.107 128.348 127.91 128.66 127.766C128.973 127.617 129.33 127.543 129.732 127.543C130.072 127.543 130.373 127.588 130.635 127.678C130.9 127.768 131.123 127.906 131.303 128.094C131.486 128.277 131.625 128.514 131.719 128.803C131.812 129.092 131.859 129.436 131.859 129.834V134H130.77V129.822C130.77 129.467 130.713 129.191 130.6 128.996C130.49 128.797 130.334 128.658 130.131 128.58C129.932 128.498 129.693 128.457 129.416 128.457C129.178 128.457 128.967 128.498 128.783 128.58C128.6 128.662 128.445 128.775 128.32 128.92C128.195 129.061 128.1 129.223 128.033 129.406C127.971 129.59 127.939 129.785 127.939 129.992ZM134.584 129.014V134H133.5V127.66H134.525L134.584 129.014ZM134.326 130.59L133.875 130.572C133.879 130.139 133.943 129.738 134.068 129.371C134.193 129 134.369 128.678 134.596 128.404C134.822 128.131 135.092 127.92 135.404 127.771C135.721 127.619 136.07 127.543 136.453 127.543C136.766 127.543 137.047 127.586 137.297 127.672C137.547 127.754 137.76 127.887 137.936 128.07C138.115 128.254 138.252 128.492 138.346 128.785C138.439 129.074 138.486 129.428 138.486 129.846V134H137.396V129.834C137.396 129.502 137.348 129.236 137.25 129.037C137.152 128.834 137.01 128.688 136.822 128.598C136.635 128.504 136.404 128.457 136.131 128.457C135.861 128.457 135.615 128.514 135.393 128.627C135.174 128.74 134.984 128.896 134.824 129.096C134.668 129.295 134.545 129.523 134.455 129.781C134.369 130.035 134.326 130.305 134.326 130.59ZM142.764 134.117C142.322 134.117 141.922 134.043 141.562 133.895C141.207 133.742 140.9 133.529 140.643 133.256C140.389 132.982 140.193 132.658 140.057 132.283C139.92 131.908 139.852 131.498 139.852 131.053V130.807C139.852 130.291 139.928 129.832 140.08 129.43C140.232 129.023 140.439 128.68 140.701 128.398C140.963 128.117 141.26 127.904 141.592 127.76C141.924 127.615 142.268 127.543 142.623 127.543C143.076 127.543 143.467 127.621 143.795 127.777C144.127 127.934 144.398 128.152 144.609 128.434C144.82 128.711 144.977 129.039 145.078 129.418C145.18 129.793 145.23 130.203 145.23 130.648V131.135H140.496V130.25H144.146V130.168C144.131 129.887 144.072 129.613 143.971 129.348C143.873 129.082 143.717 128.863 143.502 128.691C143.287 128.52 142.994 128.434 142.623 128.434C142.377 128.434 142.15 128.486 141.943 128.592C141.736 128.693 141.559 128.846 141.41 129.049C141.262 129.252 141.146 129.5 141.064 129.793C140.982 130.086 140.941 130.424 140.941 130.807V131.053C140.941 131.354 140.982 131.637 141.064 131.902C141.15 132.164 141.273 132.395 141.434 132.594C141.598 132.793 141.795 132.949 142.025 133.062C142.26 133.176 142.525 133.232 142.822 133.232C143.205 133.232 143.529 133.154 143.795 132.998C144.061 132.842 144.293 132.633 144.492 132.371L145.148 132.893C145.012 133.1 144.838 133.297 144.627 133.484C144.416 133.672 144.156 133.824 143.848 133.941C143.543 134.059 143.182 134.117 142.764 134.117Z" fill="black"/>
<rect x="363.5" y="80.5" width="99" height="99" stroke="black"/>
<path d="M397.854 131.844C397.854 131.645 397.822 131.469 397.76 131.316C397.701 131.16 397.596 131.02 397.443 130.895C397.295 130.77 397.088 130.65 396.822 130.537C396.561 130.424 396.229 130.309 395.826 130.191C395.404 130.066 395.023 129.928 394.684 129.775C394.344 129.619 394.053 129.441 393.811 129.242C393.568 129.043 393.383 128.814 393.254 128.557C393.125 128.299 393.061 128.004 393.061 127.672C393.061 127.34 393.129 127.033 393.266 126.752C393.402 126.471 393.598 126.227 393.852 126.02C394.109 125.809 394.416 125.645 394.771 125.527C395.127 125.41 395.523 125.352 395.961 125.352C396.602 125.352 397.145 125.475 397.59 125.721C398.039 125.963 398.381 126.281 398.615 126.676C398.85 127.066 398.967 127.484 398.967 127.93H397.842C397.842 127.609 397.773 127.326 397.637 127.08C397.5 126.83 397.293 126.635 397.016 126.494C396.738 126.35 396.387 126.277 395.961 126.277C395.559 126.277 395.227 126.338 394.965 126.459C394.703 126.58 394.508 126.744 394.379 126.951C394.254 127.158 394.191 127.395 394.191 127.66C394.191 127.84 394.229 128.004 394.303 128.152C394.381 128.297 394.5 128.432 394.66 128.557C394.824 128.682 395.031 128.797 395.281 128.902C395.535 129.008 395.838 129.109 396.189 129.207C396.674 129.344 397.092 129.496 397.443 129.664C397.795 129.832 398.084 130.021 398.311 130.232C398.541 130.439 398.711 130.676 398.82 130.941C398.934 131.203 398.99 131.5 398.99 131.832C398.99 132.18 398.92 132.494 398.779 132.775C398.639 133.057 398.438 133.297 398.176 133.496C397.914 133.695 397.6 133.85 397.232 133.959C396.869 134.064 396.463 134.117 396.014 134.117C395.619 134.117 395.23 134.062 394.848 133.953C394.469 133.844 394.123 133.68 393.811 133.461C393.502 133.242 393.254 132.973 393.066 132.652C392.883 132.328 392.791 131.953 392.791 131.527H393.916C393.916 131.82 393.973 132.072 394.086 132.283C394.199 132.49 394.354 132.662 394.549 132.799C394.748 132.936 394.973 133.037 395.223 133.104C395.477 133.166 395.74 133.197 396.014 133.197C396.408 133.197 396.742 133.143 397.016 133.033C397.289 132.924 397.496 132.768 397.637 132.564C397.781 132.361 397.854 132.121 397.854 131.844ZM402.922 127.66V128.492H399.494V127.66H402.922ZM400.654 126.119H401.738V132.43C401.738 132.645 401.771 132.807 401.838 132.916C401.904 133.025 401.99 133.098 402.096 133.133C402.201 133.168 402.314 133.186 402.436 133.186C402.525 133.186 402.619 133.178 402.717 133.162C402.818 133.143 402.895 133.127 402.945 133.115L402.951 134C402.865 134.027 402.752 134.053 402.611 134.076C402.475 134.104 402.309 134.117 402.113 134.117C401.848 134.117 401.604 134.064 401.381 133.959C401.158 133.854 400.98 133.678 400.848 133.432C400.719 133.182 400.654 132.846 400.654 132.424V126.119ZM408.072 132.535V127.66H409.162V134H408.125L408.072 132.535ZM408.277 131.199L408.729 131.188C408.729 131.609 408.684 132 408.594 132.359C408.508 132.715 408.367 133.023 408.172 133.285C407.977 133.547 407.721 133.752 407.404 133.9C407.088 134.045 406.703 134.117 406.25 134.117C405.941 134.117 405.658 134.072 405.4 133.982C405.146 133.893 404.928 133.754 404.744 133.566C404.561 133.379 404.418 133.135 404.316 132.834C404.219 132.533 404.17 132.172 404.17 131.75V127.66H405.254V131.762C405.254 132.047 405.285 132.283 405.348 132.471C405.414 132.654 405.502 132.801 405.611 132.91C405.725 133.016 405.85 133.09 405.986 133.133C406.127 133.176 406.271 133.197 406.42 133.197C406.881 133.197 407.246 133.109 407.516 132.934C407.785 132.754 407.979 132.514 408.096 132.213C408.217 131.908 408.277 131.57 408.277 131.199ZM414.811 132.77V125H415.9V134H414.904L414.811 132.77ZM410.545 130.9V130.777C410.545 130.293 410.604 129.854 410.721 129.459C410.842 129.061 411.012 128.719 411.23 128.434C411.453 128.148 411.717 127.93 412.021 127.777C412.33 127.621 412.674 127.543 413.053 127.543C413.451 127.543 413.799 127.613 414.096 127.754C414.396 127.891 414.65 128.092 414.857 128.357C415.068 128.619 415.234 128.936 415.355 129.307C415.477 129.678 415.561 130.098 415.607 130.566V131.105C415.564 131.57 415.48 131.988 415.355 132.359C415.234 132.73 415.068 133.047 414.857 133.309C414.65 133.57 414.396 133.771 414.096 133.912C413.795 134.049 413.443 134.117 413.041 134.117C412.67 134.117 412.33 134.037 412.021 133.877C411.717 133.717 411.453 133.492 411.23 133.203C411.012 132.914 410.842 132.574 410.721 132.184C410.604 131.789 410.545 131.361 410.545 130.9ZM411.635 130.777V130.9C411.635 131.217 411.666 131.514 411.729 131.791C411.795 132.068 411.896 132.312 412.033 132.523C412.17 132.734 412.344 132.9 412.555 133.021C412.766 133.139 413.018 133.197 413.311 133.197C413.67 133.197 413.965 133.121 414.195 132.969C414.43 132.816 414.617 132.615 414.758 132.365C414.898 132.115 415.008 131.844 415.086 131.551V130.139C415.039 129.924 414.971 129.717 414.881 129.518C414.795 129.314 414.682 129.135 414.541 128.979C414.404 128.818 414.234 128.691 414.031 128.598C413.832 128.504 413.596 128.457 413.322 128.457C413.025 128.457 412.77 128.52 412.555 128.645C412.344 128.766 412.17 128.934 412.033 129.148C411.896 129.359 411.795 129.605 411.729 129.887C411.666 130.164 411.635 130.461 411.635 130.777ZM420.219 134.117C419.777 134.117 419.377 134.043 419.018 133.895C418.662 133.742 418.355 133.529 418.098 133.256C417.844 132.982 417.648 132.658 417.512 132.283C417.375 131.908 417.307 131.498 417.307 131.053V130.807C417.307 130.291 417.383 129.832 417.535 129.43C417.688 129.023 417.895 128.68 418.156 128.398C418.418 128.117 418.715 127.904 419.047 127.76C419.379 127.615 419.723 127.543 420.078 127.543C420.531 127.543 420.922 127.621 421.25 127.777C421.582 127.934 421.854 128.152 422.064 128.434C422.275 128.711 422.432 129.039 422.533 129.418C422.635 129.793 422.686 130.203 422.686 130.648V131.135H417.951V130.25H421.602V130.168C421.586 129.887 421.527 129.613 421.426 129.348C421.328 129.082 421.172 128.863 420.957 128.691C420.742 128.52 420.449 128.434 420.078 128.434C419.832 128.434 419.605 128.486 419.398 128.592C419.191 128.693 419.014 128.846 418.865 129.049C418.717 129.252 418.602 129.5 418.52 129.793C418.438 130.086 418.396 130.424 418.396 130.807V131.053C418.396 131.354 418.438 131.637 418.52 131.902C418.605 132.164 418.729 132.395 418.889 132.594C419.053 132.793 419.25 132.949 419.48 133.062C419.715 133.176 419.98 133.232 420.277 133.232C420.66 133.232 420.984 133.154 421.25 132.998C421.516 132.842 421.748 132.633 421.947 132.371L422.604 132.893C422.467 133.1 422.293 133.297 422.082 133.484C421.871 133.672 421.611 133.824 421.303 133.941C420.998 134.059 420.637 134.117 420.219 134.117ZM425.035 129.014V134H423.951V127.66H424.977L425.035 129.014ZM424.777 130.59L424.326 130.572C424.33 130.139 424.395 129.738 424.52 129.371C424.645 129 424.82 128.678 425.047 128.404C425.273 128.131 425.543 127.92 425.855 127.771C426.172 127.619 426.521 127.543 426.904 127.543C427.217 127.543 427.498 127.586 427.748 127.672C427.998 127.754 428.211 127.887 428.387 128.07C428.566 128.254 428.703 128.492 428.797 128.785C428.891 129.074 428.938 129.428 428.938 129.846V134H427.848V129.834C427.848 129.502 427.799 129.236 427.701 129.037C427.604 128.834 427.461 128.688 427.273 128.598C427.086 128.504 426.855 128.457 426.582 128.457C426.312 128.457 426.066 128.514 425.844 128.627C425.625 128.74 425.436 128.896 425.275 129.096C425.119 129.295 424.996 129.523 424.906 129.781C424.82 130.035 424.777 130.305 424.777 130.59ZM433.238 127.66V128.492H429.811V127.66H433.238ZM430.971 126.119H432.055V132.43C432.055 132.645 432.088 132.807 432.154 132.916C432.221 133.025 432.307 133.098 432.412 133.133C432.518 133.168 432.631 133.186 432.752 133.186C432.842 133.186 432.936 133.178 433.033 133.162C433.135 133.143 433.211 133.127 433.262 133.115L433.268 134C433.182 134.027 433.068 134.053 432.928 134.076C432.791 134.104 432.625 134.117 432.43 134.117C432.164 134.117 431.92 134.064 431.697 133.959C431.475 133.854 431.297 133.678 431.164 133.432C431.035 133.182 430.971 132.846 430.971 132.424V126.119Z" fill="black"/>
<rect x="0.5" y="15.5" width="79" height="29" rx="14.5" stroke="black"/>
<path d="M25.668 33.0801V34H21.1504V33.0801H25.668ZM21.3789 25.4688V34H20.248V25.4688H21.3789ZM25.0703 29.1367V30.0566H21.1504V29.1367H25.0703ZM25.6094 25.4688V26.3945H21.1504V25.4688H25.6094ZM27.9824 28.9199V34H26.8926V27.6602H27.9238L27.9824 28.9199ZM27.7598 30.5898L27.2559 30.5723C27.2598 30.1387 27.3164 29.7383 27.4258 29.3711C27.5352 29 27.6973 28.6777 27.9121 28.4043C28.127 28.1309 28.3945 27.9199 28.7148 27.7715C29.0352 27.6191 29.4062 27.543 29.8281 27.543C30.125 27.543 30.3984 27.5859 30.6484 27.6719C30.8984 27.7539 31.1152 27.8848 31.2988 28.0645C31.4824 28.2441 31.625 28.4746 31.7266 28.7559C31.8281 29.0371 31.8789 29.377 31.8789 29.7754V34H30.7949V29.8281C30.7949 29.4961 30.7383 29.2305 30.625 29.0312C30.5156 28.832 30.3594 28.6875 30.1562 28.5977C29.9531 28.5039 29.7148 28.457 29.4414 28.457C29.1211 28.457 28.8535 28.5137 28.6387 28.627C28.4238 28.7402 28.252 28.8965 28.123 29.0957C27.9941 29.2949 27.9004 29.5234 27.8418 29.7812C27.7871 30.0352 27.7598 30.3047 27.7598 30.5898ZM31.8672 29.9922L31.1406 30.2148C31.1445 29.8672 31.2012 29.5332 31.3105 29.2129C31.4238 28.8926 31.5859 28.6074 31.7969 28.3574C32.0117 28.1074 32.2754 27.9102 32.5879 27.7656C32.9004 27.6172 33.2578 27.543 33.6602 27.543C34 27.543 34.3008 27.5879 34.5625 27.6777C34.8281 27.7676 35.0508 27.9062 35.2305 28.0938C35.4141 28.2773 35.5527 28.5137 35.6465 28.8027C35.7402 29.0918 35.7871 29.4355 35.7871 29.834V34H34.6973V29.8223C34.6973 29.4668 34.6406 29.1914 34.5273 28.9961C34.418 28.7969 34.2617 28.6582 34.0586 28.5801C33.8594 28.498 33.6211 28.457 33.3438 28.457C33.1055 28.457 32.8945 28.498 32.7109 28.5801C32.5273 28.6621 32.373 28.7754 32.248 28.9199C32.123 29.0605 32.0273 29.2227 31.9609 29.4062C31.8984 29.5898 31.8672 29.7852 31.8672 29.9922ZM38.5117 29.0137V34H37.4277V27.6602H38.4531L38.5117 29.0137ZM38.2539 30.5898L37.8027 30.5723C37.8066 30.1387 37.8711 29.7383 37.9961 29.3711C38.1211 29 38.2969 28.6777 38.5234 28.4043C38.75 28.1309 39.0195 27.9199 39.332 27.7715C39.6484 27.6191 39.998 27.543 40.3809 27.543C40.6934 27.543 40.9746 27.5859 41.2246 27.6719C41.4746 27.7539 41.6875 27.8867 41.8633 28.0703C42.043 28.2539 42.1797 28.4922 42.2734 28.7852C42.3672 29.0742 42.4141 29.4277 42.4141 29.8457V34H41.3242V29.834C41.3242 29.502 41.2754 29.2363 41.1777 29.0371C41.0801 28.834 40.9375 28.6875 40.75 28.5977C40.5625 28.5039 40.332 28.457 40.0586 28.457C39.7891 28.457 39.543 28.5137 39.3203 28.627C39.1016 28.7402 38.9121 28.8965 38.752 29.0957C38.5957 29.2949 38.4727 29.5234 38.3828 29.7812C38.2969 30.0352 38.2539 30.3047 38.2539 30.5898ZM46.6914 34.1172C46.25 34.1172 45.8496 34.043 45.4902 33.8945C45.1348 33.7422 44.8281 33.5293 44.5703 33.2559C44.3164 32.9824 44.1211 32.6582 43.9844 32.2832C43.8477 31.9082 43.7793 31.498 43.7793 31.0527V30.8066C43.7793 30.291 43.8555 29.832 44.0078 29.4297C44.1602 29.0234 44.3672 28.6797 44.6289 28.3984C44.8906 28.1172 45.1875 27.9043 45.5195 27.7598C45.8516 27.6152 46.1953 27.543 46.5508 27.543C47.0039 27.543 47.3945 27.6211 47.7227 27.7773C48.0547 27.9336 48.3262 28.1523 48.5371 28.4336C48.748 28.7109 48.9043 29.0391 49.0059 29.418C49.1074 29.793 49.1582 30.2031 49.1582 30.6484V31.1348H44.4238V30.25H48.0742V30.168C48.0586 29.8867 48 29.6133 47.8984 29.3477C47.8008 29.082 47.6445 28.8633 47.4297 28.6914C47.2148 28.5195 46.9219 28.4336 46.5508 28.4336C46.3047 28.4336 46.0781 28.4863 45.8711 28.5918C45.6641 28.6934 45.4863 28.8457 45.3379 29.0488C45.1895 29.252 45.0742 29.5 44.9922 29.793C44.9102 30.0859 44.8691 30.4238 44.8691 30.8066V31.0527C44.8691 31.3535 44.9102 31.6367 44.9922 31.9023C45.0781 32.1641 45.2012 32.3945 45.3613 32.5938C45.5254 32.793 45.7227 32.9492 45.9531 33.0625C46.1875 33.1758 46.4531 33.2324 46.75 33.2324C47.1328 33.2324 47.457 33.1543 47.7227 32.998C47.9883 32.8418 48.2207 32.6328 48.4199 32.3711L49.0762 32.8926C48.9395 33.0996 48.7656 33.2969 48.5547 33.4844C48.3438 33.6719 48.084 33.8242 47.7754 33.9414C47.4707 34.0586 47.1094 34.1172 46.6914 34.1172ZM51.8008 25.4688V34H50.6699V25.4688H51.8008ZM56.166 34H54.3848L54.3965 33.0801H56.166C56.7754 33.0801 57.2832 32.9531 57.6895 32.6992C58.0957 32.4414 58.4004 32.082 58.6035 31.6211C58.8105 31.1562 58.9141 30.6133 58.9141 29.9922V29.4707C58.9141 28.9824 58.8555 28.5488 58.7383 28.1699C58.6211 27.7871 58.4492 27.4648 58.2227 27.2031C57.9961 26.9375 57.7188 26.7363 57.3906 26.5996C57.0664 26.4629 56.6934 26.3945 56.2715 26.3945H54.3496V25.4688H56.2715C56.8301 25.4688 57.3398 25.5625 57.8008 25.75C58.2617 25.9336 58.6582 26.2012 58.9902 26.5527C59.3262 26.9004 59.584 27.3223 59.7637 27.8184C59.9434 28.3105 60.0332 28.8652 60.0332 29.4824V29.9922C60.0332 30.6094 59.9434 31.166 59.7637 31.6621C59.584 32.1543 59.3242 32.5742 58.9844 32.9219C58.6484 33.2695 58.2422 33.5371 57.7656 33.7246C57.293 33.9082 56.7598 34 56.166 34ZM54.9883 25.4688V34H53.8574V25.4688H54.9883Z" fill="black"/>
<path d="M19.2578 35.1719H60.7422V35.7578H19.2578V35.1719Z" fill="black"/>
<rect x="91.5" y="0.5" width="79" height="29" rx="14.5" stroke="black"/>
<path d="M124.83 10.4688V19H123.693L119.398 12.4199V19H118.268V10.4688H119.398L123.711 17.0664V10.4688H124.83ZM130.408 17.916V14.6523C130.408 14.4023 130.357 14.1855 130.256 14.002C130.158 13.8145 130.01 13.6699 129.811 13.5684C129.611 13.4668 129.365 13.416 129.072 13.416C128.799 13.416 128.559 13.4629 128.352 13.5566C128.148 13.6504 127.988 13.7734 127.871 13.9258C127.758 14.0781 127.701 14.2422 127.701 14.418H126.617C126.617 14.1914 126.676 13.9668 126.793 13.7441C126.91 13.5215 127.078 13.3203 127.297 13.1406C127.52 12.957 127.785 12.8125 128.094 12.707C128.406 12.5977 128.754 12.543 129.137 12.543C129.598 12.543 130.004 12.6211 130.355 12.7773C130.711 12.9336 130.988 13.1699 131.188 13.4863C131.391 13.7988 131.492 14.1914 131.492 14.6641V17.6172C131.492 17.8281 131.51 18.0527 131.545 18.291C131.584 18.5293 131.641 18.7344 131.715 18.9062V19H130.584C130.529 18.875 130.486 18.709 130.455 18.502C130.424 18.291 130.408 18.0957 130.408 17.916ZM130.596 15.1562L130.607 15.918H129.512C129.203 15.918 128.928 15.9434 128.686 15.9941C128.443 16.041 128.24 16.1133 128.076 16.2109C127.912 16.3086 127.787 16.4316 127.701 16.5801C127.615 16.7246 127.572 16.8945 127.572 17.0898C127.572 17.2891 127.617 17.4707 127.707 17.6348C127.797 17.7988 127.932 17.9297 128.111 18.0273C128.295 18.1211 128.52 18.168 128.785 18.168C129.117 18.168 129.41 18.0977 129.664 17.957C129.918 17.8164 130.119 17.6445 130.268 17.4414C130.42 17.2383 130.502 17.041 130.514 16.8496L130.977 17.3711C130.949 17.5352 130.875 17.7168 130.754 17.916C130.633 18.1152 130.471 18.3066 130.268 18.4902C130.068 18.6699 129.83 18.8203 129.553 18.9414C129.279 19.0586 128.971 19.1172 128.627 19.1172C128.197 19.1172 127.82 19.0332 127.496 18.8652C127.176 18.6973 126.926 18.4727 126.746 18.1914C126.57 17.9062 126.482 17.5879 126.482 17.2363C126.482 16.8965 126.549 16.5977 126.682 16.3398C126.814 16.0781 127.006 15.8613 127.256 15.6895C127.506 15.5137 127.807 15.3809 128.158 15.291C128.51 15.2012 128.902 15.1562 129.336 15.1562H130.596ZM135.031 18.0215L136.766 12.6602H137.873L135.594 19H134.867L135.031 18.0215ZM133.584 12.6602L135.371 18.0508L135.494 19H134.768L132.471 12.6602H133.584ZM140 14.0137V19H138.916V12.6602H139.941L140 14.0137ZM139.742 15.5898L139.291 15.5723C139.295 15.1387 139.359 14.7383 139.484 14.3711C139.609 14 139.785 13.6777 140.012 13.4043C140.238 13.1309 140.508 12.9199 140.82 12.7715C141.137 12.6191 141.486 12.543 141.869 12.543C142.182 12.543 142.463 12.5859 142.713 12.6719C142.963 12.7539 143.176 12.8867 143.352 13.0703C143.531 13.2539 143.668 13.4922 143.762 13.7852C143.855 14.0742 143.902 14.4277 143.902 14.8457V19H142.812V14.834C142.812 14.502 142.764 14.2363 142.666 14.0371C142.568 13.834 142.426 13.6875 142.238 13.5977C142.051 13.5039 141.82 13.457 141.547 13.457C141.277 13.457 141.031 13.5137 140.809 13.627C140.59 13.7402 140.4 13.8965 140.24 14.0957C140.084 14.2949 139.961 14.5234 139.871 14.7812C139.785 15.0352 139.742 15.3047 139.742 15.5898Z" fill="black"/>
<rect x="271.426" y="88.7071" width="59" height="59" transform="rotate(45 271.426 88.7071)" stroke="black"/>
<path d="M258.96 125.824V134.355H257.846V125.824H258.96ZM261.702 125.824V126.75H255.11V125.824H261.702ZM265.874 133.271V130.008C265.874 129.758 265.823 129.541 265.721 129.357C265.624 129.17 265.475 129.025 265.276 128.924C265.077 128.822 264.831 128.771 264.538 128.771C264.264 128.771 264.024 128.818 263.817 128.912C263.614 129.006 263.454 129.129 263.337 129.281C263.223 129.433 263.167 129.598 263.167 129.773H262.083C262.083 129.547 262.141 129.322 262.258 129.099C262.376 128.877 262.544 128.676 262.762 128.496C262.985 128.312 263.251 128.168 263.559 128.062C263.872 127.953 264.219 127.898 264.602 127.898C265.063 127.898 265.469 127.976 265.821 128.133C266.176 128.289 266.454 128.525 266.653 128.842C266.856 129.154 266.958 129.547 266.958 130.019V132.973C266.958 133.183 266.975 133.408 267.01 133.646C267.049 133.885 267.106 134.09 267.18 134.262V134.355H266.049C265.995 134.23 265.952 134.064 265.921 133.857C265.889 133.646 265.874 133.451 265.874 133.271ZM266.061 130.512L266.073 131.273H264.977C264.669 131.273 264.393 131.299 264.151 131.349C263.909 131.396 263.706 131.469 263.542 131.566C263.378 131.664 263.253 131.787 263.167 131.935C263.081 132.08 263.038 132.25 263.038 132.445C263.038 132.644 263.083 132.826 263.173 132.99C263.262 133.154 263.397 133.285 263.577 133.383C263.76 133.476 263.985 133.523 264.251 133.523C264.583 133.523 264.876 133.453 265.13 133.312C265.383 133.172 265.585 133 265.733 132.797C265.885 132.594 265.967 132.396 265.979 132.205L266.442 132.726C266.415 132.891 266.34 133.072 266.219 133.271C266.098 133.471 265.936 133.662 265.733 133.846C265.534 134.025 265.296 134.176 265.018 134.297C264.745 134.414 264.436 134.473 264.092 134.473C263.663 134.473 263.286 134.389 262.962 134.221C262.641 134.053 262.391 133.828 262.212 133.547C262.036 133.262 261.948 132.943 261.948 132.592C261.948 132.252 262.014 131.953 262.147 131.695C262.28 131.433 262.471 131.217 262.721 131.045C262.971 130.869 263.272 130.736 263.624 130.646C263.975 130.557 264.368 130.512 264.801 130.512H266.061ZM271.317 128.016V128.848H267.889V128.016H271.317ZM269.049 126.474H270.133V132.785C270.133 133 270.167 133.162 270.233 133.271C270.299 133.381 270.385 133.453 270.491 133.488C270.596 133.523 270.71 133.541 270.831 133.541C270.921 133.541 271.014 133.533 271.112 133.517C271.214 133.498 271.29 133.482 271.34 133.471L271.346 134.355C271.26 134.383 271.147 134.408 271.006 134.432C270.87 134.459 270.704 134.473 270.508 134.473C270.243 134.473 269.999 134.42 269.776 134.314C269.553 134.209 269.376 134.033 269.243 133.787C269.114 133.537 269.049 133.201 269.049 132.779V126.474ZM275.243 128.016V128.848H271.815V128.016H275.243ZM272.975 126.474H274.059V132.785C274.059 133 274.092 133.162 274.159 133.271C274.225 133.381 274.311 133.453 274.417 133.488C274.522 133.523 274.635 133.541 274.756 133.541C274.846 133.541 274.94 133.533 275.038 133.517C275.139 133.498 275.215 133.482 275.266 133.471L275.272 134.355C275.186 134.383 275.073 134.408 274.932 134.432C274.796 134.459 274.63 134.473 274.434 134.473C274.169 134.473 273.924 134.42 273.702 134.314C273.479 134.209 273.301 134.033 273.169 133.787C273.04 133.537 272.975 133.201 272.975 132.779V126.474ZM279.837 126.58L277.012 134.355H275.858L279.11 125.824H279.854L279.837 126.58ZM282.204 134.355L279.374 126.58L279.356 125.824H280.1L283.364 134.355H282.204ZM282.057 131.197V132.123H277.264V131.197H282.057ZM285.977 133.377L287.712 128.016H288.819L286.54 134.355H285.813L285.977 133.377ZM284.53 128.016L286.317 133.406L286.44 134.355H285.714L283.417 128.016H284.53Z" fill="black"/>
<rect x="374.5" y="0.5" width="79" height="29" rx="14.5" stroke="black"/>
<path d="M392.537 16.8438C392.537 16.6445 392.506 16.4688 392.443 16.3164C392.385 16.1602 392.279 16.0195 392.127 15.8945C391.979 15.7695 391.771 15.6504 391.506 15.5371C391.244 15.4238 390.912 15.3086 390.51 15.1914C390.088 15.0664 389.707 14.9277 389.367 14.7754C389.027 14.6191 388.736 14.4414 388.494 14.2422C388.252 14.043 388.066 13.8145 387.938 13.5566C387.809 13.2988 387.744 13.0039 387.744 12.6719C387.744 12.3398 387.812 12.0332 387.949 11.752C388.086 11.4707 388.281 11.2266 388.535 11.0195C388.793 10.8086 389.1 10.6445 389.455 10.5273C389.811 10.4102 390.207 10.3516 390.645 10.3516C391.285 10.3516 391.828 10.4746 392.273 10.7207C392.723 10.9629 393.064 11.2812 393.299 11.6758C393.533 12.0664 393.65 12.4844 393.65 12.9297H392.525C392.525 12.6094 392.457 12.3262 392.32 12.0801C392.184 11.8301 391.977 11.6348 391.699 11.4941C391.422 11.3496 391.07 11.2773 390.645 11.2773C390.242 11.2773 389.91 11.3379 389.648 11.459C389.387 11.5801 389.191 11.7441 389.062 11.9512C388.938 12.1582 388.875 12.3945 388.875 12.6602C388.875 12.8398 388.912 13.0039 388.986 13.1523C389.064 13.2969 389.184 13.4316 389.344 13.5566C389.508 13.6816 389.715 13.7969 389.965 13.9023C390.219 14.0078 390.521 14.1094 390.873 14.207C391.357 14.3438 391.775 14.4961 392.127 14.6641C392.479 14.832 392.768 15.0215 392.994 15.2324C393.225 15.4395 393.395 15.6758 393.504 15.9414C393.617 16.2031 393.674 16.5 393.674 16.832C393.674 17.1797 393.604 17.4941 393.463 17.7754C393.322 18.0566 393.121 18.2969 392.859 18.4961C392.598 18.6953 392.283 18.8496 391.916 18.959C391.553 19.0645 391.146 19.1172 390.697 19.1172C390.303 19.1172 389.914 19.0625 389.531 18.9531C389.152 18.8438 388.807 18.6797 388.494 18.4609C388.186 18.2422 387.938 17.9727 387.75 17.6523C387.566 17.3281 387.475 16.9531 387.475 16.5273H388.6C388.6 16.8203 388.656 17.0723 388.77 17.2832C388.883 17.4902 389.037 17.6621 389.232 17.7988C389.432 17.9355 389.656 18.0371 389.906 18.1035C390.16 18.166 390.424 18.1973 390.697 18.1973C391.092 18.1973 391.426 18.1426 391.699 18.0332C391.973 17.9238 392.18 17.7676 392.32 17.5645C392.465 17.3613 392.537 17.1211 392.537 16.8438ZM397.605 12.6602V13.4922H394.178V12.6602H397.605ZM395.338 11.1191H396.422V17.4297C396.422 17.6445 396.455 17.8066 396.521 17.916C396.588 18.0254 396.674 18.0977 396.779 18.1328C396.885 18.168 396.998 18.1855 397.119 18.1855C397.209 18.1855 397.303 18.1777 397.4 18.1621C397.502 18.1426 397.578 18.127 397.629 18.1152L397.635 19C397.549 19.0273 397.436 19.0527 397.295 19.0762C397.158 19.1035 396.992 19.1172 396.797 19.1172C396.531 19.1172 396.287 19.0645 396.064 18.959C395.842 18.8535 395.664 18.6777 395.531 18.4316C395.402 18.1816 395.338 17.8457 395.338 17.4238V11.1191ZM402.756 17.5352V12.6602H403.846V19H402.809L402.756 17.5352ZM402.961 16.1992L403.412 16.1875C403.412 16.6094 403.367 17 403.277 17.3594C403.191 17.7148 403.051 18.0234 402.855 18.2852C402.66 18.5469 402.404 18.752 402.088 18.9004C401.771 19.0449 401.387 19.1172 400.934 19.1172C400.625 19.1172 400.342 19.0723 400.084 18.9824C399.83 18.8926 399.611 18.7539 399.428 18.5664C399.244 18.3789 399.102 18.1348 399 17.834C398.902 17.5332 398.854 17.1719 398.854 16.75V12.6602H399.938V16.7617C399.938 17.0469 399.969 17.2832 400.031 17.4707C400.098 17.6543 400.186 17.8008 400.295 17.9102C400.408 18.0156 400.533 18.0898 400.67 18.1328C400.811 18.1758 400.955 18.1973 401.104 18.1973C401.564 18.1973 401.93 18.1094 402.199 17.9336C402.469 17.7539 402.662 17.5137 402.779 17.2129C402.9 16.9082 402.961 16.5703 402.961 16.1992ZM409.494 17.7695V10H410.584V19H409.588L409.494 17.7695ZM405.229 15.9004V15.7773C405.229 15.293 405.287 14.8535 405.404 14.459C405.525 14.0605 405.695 13.7188 405.914 13.4336C406.137 13.1484 406.4 12.9297 406.705 12.7773C407.014 12.6211 407.357 12.543 407.736 12.543C408.135 12.543 408.482 12.6133 408.779 12.7539C409.08 12.8906 409.334 13.0918 409.541 13.3574C409.752 13.6191 409.918 13.9355 410.039 14.3066C410.16 14.6777 410.244 15.0977 410.291 15.5664V16.1055C410.248 16.5703 410.164 16.9883 410.039 17.3594C409.918 17.7305 409.752 18.0469 409.541 18.3086C409.334 18.5703 409.08 18.7715 408.779 18.9121C408.479 19.0488 408.127 19.1172 407.725 19.1172C407.354 19.1172 407.014 19.0371 406.705 18.877C406.4 18.7168 406.137 18.4922 405.914 18.2031C405.695 17.9141 405.525 17.5742 405.404 17.1836C405.287 16.7891 405.229 16.3613 405.229 15.9004ZM406.318 15.7773V15.9004C406.318 16.2168 406.35 16.5137 406.412 16.791C406.479 17.0684 406.58 17.3125 406.717 17.5234C406.854 17.7344 407.027 17.9004 407.238 18.0215C407.449 18.1387 407.701 18.1973 407.994 18.1973C408.354 18.1973 408.648 18.1211 408.879 17.9688C409.113 17.8164 409.301 17.6152 409.441 17.3652C409.582 17.1152 409.691 16.8438 409.77 16.5508V15.1387C409.723 14.9238 409.654 14.7168 409.564 14.5176C409.479 14.3145 409.365 14.1348 409.225 13.9785C409.088 13.8184 408.918 13.6914 408.715 13.5977C408.516 13.5039 408.279 13.457 408.006 13.457C407.709 13.457 407.453 13.5195 407.238 13.6445C407.027 13.7656 406.854 13.9336 406.717 14.1484C406.58 14.3594 406.479 14.6055 406.412 14.8867C406.35 15.1641 406.318 15.4609 406.318 15.7773ZM414.902 19.1172C414.461 19.1172 414.061 19.043 413.701 18.8945C413.346 18.7422 413.039 18.5293 412.781 18.2559C412.527 17.9824 412.332 17.6582 412.195 17.2832C412.059 16.9082 411.99 16.498 411.99 16.0527V15.8066C411.99 15.291 412.066 14.832 412.219 14.4297C412.371 14.0234 412.578 13.6797 412.84 13.3984C413.102 13.1172 413.398 12.9043 413.73 12.7598C414.062 12.6152 414.406 12.543 414.762 12.543C415.215 12.543 415.605 12.6211 415.934 12.7773C416.266 12.9336 416.537 13.1523 416.748 13.4336C416.959 13.7109 417.115 14.0391 417.217 14.418C417.318 14.793 417.369 15.2031 417.369 15.6484V16.1348H412.635V15.25H416.285V15.168C416.27 14.8867 416.211 14.6133 416.109 14.3477C416.012 14.082 415.855 13.8633 415.641 13.6914C415.426 13.5195 415.133 13.4336 414.762 13.4336C414.516 13.4336 414.289 13.4863 414.082 13.5918C413.875 13.6934 413.697 13.8457 413.549 14.0488C413.4 14.252 413.285 14.5 413.203 14.793C413.121 15.0859 413.08 15.4238 413.08 15.8066V16.0527C413.08 16.3535 413.121 16.6367 413.203 16.9023C413.289 17.1641 413.412 17.3945 413.572 17.5938C413.736 17.793 413.934 17.9492 414.164 18.0625C414.398 18.1758 414.664 18.2324 414.961 18.2324C415.344 18.2324 415.668 18.1543 415.934 17.998C416.199 17.8418 416.432 17.6328 416.631 17.3711L417.287 17.8926C417.15 18.0996 416.977 18.2969 416.766 18.4844C416.555 18.6719 416.295 18.8242 415.986 18.9414C415.682 19.0586 415.32 19.1172 414.902 19.1172ZM419.719 14.0137V19H418.635V12.6602H419.66L419.719 14.0137ZM419.461 15.5898L419.01 15.5723C419.014 15.1387 419.078 14.7383 419.203 14.3711C419.328 14 419.504 13.6777 419.73 13.4043C419.957 13.1309 420.227 12.9199 420.539 12.7715C420.855 12.6191 421.205 12.543 421.588 12.543C421.9 12.543 422.182 12.5859 422.432 12.6719C422.682 12.7539 422.895 12.8867 423.07 13.0703C423.25 13.2539 423.387 13.4922 423.48 13.7852C423.574 14.0742 423.621 14.4277 423.621 14.8457V19H422.531V14.834C422.531 14.502 422.482 14.2363 422.385 14.0371C422.287 13.834 422.145 13.6875 421.957 13.5977C421.77 13.5039 421.539 13.457 421.266 13.457C420.996 13.457 420.75 13.5137 420.527 13.627C420.309 13.7402 420.119 13.8965 419.959 14.0957C419.803 14.2949 419.68 14.5234 419.59 14.7812C419.504 15.0352 419.461 15.3047 419.461 15.5898ZM427.922 12.6602V13.4922H424.494V12.6602H427.922ZM425.654 11.1191H426.738V17.4297C426.738 17.6445 426.771 17.8066 426.838 17.916C426.904 18.0254 426.99 18.0977 427.096 18.1328C427.201 18.168 427.314 18.1855 427.436 18.1855C427.525 18.1855 427.619 18.1777 427.717 18.1621C427.818 18.1426 427.895 18.127 427.945 18.1152L427.951 19C427.865 19.0273 427.752 19.0527 427.611 19.0762C427.475 19.1035 427.309 19.1172 427.113 19.1172C426.848 19.1172 426.604 19.0645 426.381 18.959C426.158 18.8535 425.98 18.6777 425.848 18.4316C425.719 18.1816 425.654 17.8457 425.654 17.4238V11.1191ZM435.92 10.4688V19H434.783L430.488 12.4199V19H429.357V10.4688H430.488L434.801 17.0664V10.4688H435.92ZM438.844 13.6562V19H437.76V12.6602H438.814L438.844 13.6562ZM440.824 12.625L440.818 13.6328C440.729 13.6133 440.643 13.6016 440.561 13.5977C440.482 13.5898 440.393 13.5859 440.291 13.5859C440.041 13.5859 439.82 13.625 439.629 13.7031C439.438 13.7812 439.275 13.8906 439.143 14.0312C439.01 14.1719 438.904 14.3398 438.826 14.5352C438.752 14.7266 438.703 14.9375 438.68 15.168L438.375 15.3438C438.375 14.9609 438.412 14.6016 438.486 14.2656C438.564 13.9297 438.684 13.6328 438.844 13.375C439.004 13.1133 439.207 12.9102 439.453 12.7656C439.703 12.6172 440 12.543 440.344 12.543C440.422 12.543 440.512 12.5527 440.613 12.5723C440.715 12.5879 440.785 12.6055 440.824 12.625Z" fill="black"/>
<path d="M387 20.1719H441V20.7578H387V20.1719Z" fill="black"/>
<rect x="463.5" y="15.5" width="79" height="29" rx="14.5" stroke="black"/>
<path d="M496.83 25.4688V34H495.693L491.398 27.4199V34H490.268V25.4688H491.398L495.711 32.0664V25.4688H496.83ZM502.408 32.916V29.6523C502.408 29.4023 502.357 29.1855 502.256 29.002C502.158 28.8145 502.01 28.6699 501.811 28.5684C501.611 28.4668 501.365 28.416 501.072 28.416C500.799 28.416 500.559 28.4629 500.352 28.5566C500.148 28.6504 499.988 28.7734 499.871 28.9258C499.758 29.0781 499.701 29.2422 499.701 29.418H498.617C498.617 29.1914 498.676 28.9668 498.793 28.7441C498.91 28.5215 499.078 28.3203 499.297 28.1406C499.52 27.957 499.785 27.8125 500.094 27.707C500.406 27.5977 500.754 27.543 501.137 27.543C501.598 27.543 502.004 27.6211 502.355 27.7773C502.711 27.9336 502.988 28.1699 503.188 28.4863C503.391 28.7988 503.492 29.1914 503.492 29.6641V32.6172C503.492 32.8281 503.51 33.0527 503.545 33.291C503.584 33.5293 503.641 33.7344 503.715 33.9062V34H502.584C502.529 33.875 502.486 33.709 502.455 33.502C502.424 33.291 502.408 33.0957 502.408 32.916ZM502.596 30.1562L502.607 30.918H501.512C501.203 30.918 500.928 30.9434 500.686 30.9941C500.443 31.041 500.24 31.1133 500.076 31.2109C499.912 31.3086 499.787 31.4316 499.701 31.5801C499.615 31.7246 499.572 31.8945 499.572 32.0898C499.572 32.2891 499.617 32.4707 499.707 32.6348C499.797 32.7988 499.932 32.9297 500.111 33.0273C500.295 33.1211 500.52 33.168 500.785 33.168C501.117 33.168 501.41 33.0977 501.664 32.957C501.918 32.8164 502.119 32.6445 502.268 32.4414C502.42 32.2383 502.502 32.041 502.514 31.8496L502.977 32.3711C502.949 32.5352 502.875 32.7168 502.754 32.916C502.633 33.1152 502.471 33.3066 502.268 33.4902C502.068 33.6699 501.83 33.8203 501.553 33.9414C501.279 34.0586 500.971 34.1172 500.627 34.1172C500.197 34.1172 499.82 34.0332 499.496 33.8652C499.176 33.6973 498.926 33.4727 498.746 33.1914C498.57 32.9062 498.482 32.5879 498.482 32.2363C498.482 31.8965 498.549 31.5977 498.682 31.3398C498.814 31.0781 499.006 30.8613 499.256 30.6895C499.506 30.5137 499.807 30.3809 500.158 30.291C500.51 30.2012 500.902 30.1562 501.336 30.1562H502.596ZM507.031 33.0215L508.766 27.6602H509.873L507.594 34H506.867L507.031 33.0215ZM505.584 27.6602L507.371 33.0508L507.494 34H506.768L504.471 27.6602H505.584ZM512 29.0137V34H510.916V27.6602H511.941L512 29.0137ZM511.742 30.5898L511.291 30.5723C511.295 30.1387 511.359 29.7383 511.484 29.3711C511.609 29 511.785 28.6777 512.012 28.4043C512.238 28.1309 512.508 27.9199 512.82 27.7715C513.137 27.6191 513.486 27.543 513.869 27.543C514.182 27.543 514.463 27.5859 514.713 27.6719C514.963 27.7539 515.176 27.8867 515.352 28.0703C515.531 28.2539 515.668 28.4922 515.762 28.7852C515.855 29.0742 515.902 29.4277 515.902 29.8457V34H514.812V29.834C514.812 29.502 514.764 29.2363 514.666 29.0371C514.568 28.834 514.426 28.6875 514.238 28.5977C514.051 28.5039 513.82 28.457 513.547 28.457C513.277 28.457 513.031 28.5137 512.809 28.627C512.59 28.7402 512.4 28.8965 512.24 29.0957C512.084 29.2949 511.961 29.5234 511.871 29.7812C511.785 30.0352 511.742 30.3047 511.742 30.5898Z" fill="black"/>
<rect x="231.5" y="9.5" width="79" height="29" rx="14.5" stroke="black"/>
<path d="M251.191 19.4688V28H250.061V19.4688H251.191ZM256.342 19.4688L252.797 23.4473L250.805 25.5156L250.617 24.3086L252.117 22.6562L254.982 19.4688H256.342ZM255.252 28L252.094 23.8398L252.768 22.9434L256.6 28H255.252ZM261.17 26.916V23.6523C261.17 23.4023 261.119 23.1855 261.018 23.002C260.92 22.8145 260.771 22.6699 260.572 22.5684C260.373 22.4668 260.127 22.416 259.834 22.416C259.561 22.416 259.32 22.4629 259.113 22.5566C258.91 22.6504 258.75 22.7734 258.633 22.9258C258.52 23.0781 258.463 23.2422 258.463 23.418H257.379C257.379 23.1914 257.438 22.9668 257.555 22.7441C257.672 22.5215 257.84 22.3203 258.059 22.1406C258.281 21.957 258.547 21.8125 258.855 21.707C259.168 21.5977 259.516 21.543 259.898 21.543C260.359 21.543 260.766 21.6211 261.117 21.7773C261.473 21.9336 261.75 22.1699 261.949 22.4863C262.152 22.7988 262.254 23.1914 262.254 23.6641V26.6172C262.254 26.8281 262.271 27.0527 262.307 27.291C262.346 27.5293 262.402 27.7344 262.477 27.9062V28H261.346C261.291 27.875 261.248 27.709 261.217 27.502C261.186 27.291 261.17 27.0957 261.17 26.916ZM261.357 24.1562L261.369 24.918H260.273C259.965 24.918 259.689 24.9434 259.447 24.9941C259.205 25.041 259.002 25.1133 258.838 25.2109C258.674 25.3086 258.549 25.4316 258.463 25.5801C258.377 25.7246 258.334 25.8945 258.334 26.0898C258.334 26.2891 258.379 26.4707 258.469 26.6348C258.559 26.7988 258.693 26.9297 258.873 27.0273C259.057 27.1211 259.281 27.168 259.547 27.168C259.879 27.168 260.172 27.0977 260.426 26.957C260.68 26.8164 260.881 26.6445 261.029 26.4414C261.182 26.2383 261.264 26.041 261.275 25.8496L261.738 26.3711C261.711 26.5352 261.637 26.7168 261.516 26.916C261.395 27.1152 261.232 27.3066 261.029 27.4902C260.83 27.6699 260.592 27.8203 260.314 27.9414C260.041 28.0586 259.732 28.1172 259.389 28.1172C258.959 28.1172 258.582 28.0332 258.258 27.8652C257.938 27.6973 257.688 27.4727 257.508 27.1914C257.332 26.9062 257.244 26.5879 257.244 26.2363C257.244 25.8965 257.311 25.5977 257.443 25.3398C257.576 25.0781 257.768 24.8613 258.018 24.6895C258.268 24.5137 258.568 24.3809 258.92 24.291C259.271 24.2012 259.664 24.1562 260.098 24.1562H261.357ZM265.043 22.6562V28H263.959V21.6602H265.014L265.043 22.6562ZM267.023 21.625L267.018 22.6328C266.928 22.6133 266.842 22.6016 266.76 22.5977C266.682 22.5898 266.592 22.5859 266.49 22.5859C266.24 22.5859 266.02 22.625 265.828 22.7031C265.637 22.7812 265.475 22.8906 265.342 23.0312C265.209 23.1719 265.104 23.3398 265.025 23.5352C264.951 23.7266 264.902 23.9375 264.879 24.168L264.574 24.3438C264.574 23.9609 264.611 23.6016 264.686 23.2656C264.764 22.9297 264.883 22.6328 265.043 22.375C265.203 22.1133 265.406 21.9102 265.652 21.7656C265.902 21.6172 266.199 21.543 266.543 21.543C266.621 21.543 266.711 21.5527 266.812 21.5723C266.914 21.5879 266.984 21.6055 267.023 21.625ZM271.529 26.916V23.6523C271.529 23.4023 271.479 23.1855 271.377 23.002C271.279 22.8145 271.131 22.6699 270.932 22.5684C270.732 22.4668 270.486 22.416 270.193 22.416C269.92 22.416 269.68 22.4629 269.473 22.5566C269.27 22.6504 269.109 22.7734 268.992 22.9258C268.879 23.0781 268.822 23.2422 268.822 23.418H267.738C267.738 23.1914 267.797 22.9668 267.914 22.7441C268.031 22.5215 268.199 22.3203 268.418 22.1406C268.641 21.957 268.906 21.8125 269.215 21.707C269.527 21.5977 269.875 21.543 270.258 21.543C270.719 21.543 271.125 21.6211 271.477 21.7773C271.832 21.9336 272.109 22.1699 272.309 22.4863C272.512 22.7988 272.613 23.1914 272.613 23.6641V26.6172C272.613 26.8281 272.631 27.0527 272.666 27.291C272.705 27.5293 272.762 27.7344 272.836 27.9062V28H271.705C271.65 27.875 271.607 27.709 271.576 27.502C271.545 27.291 271.529 27.0957 271.529 26.916ZM271.717 24.1562L271.729 24.918H270.633C270.324 24.918 270.049 24.9434 269.807 24.9941C269.564 25.041 269.361 25.1133 269.197 25.2109C269.033 25.3086 268.908 25.4316 268.822 25.5801C268.736 25.7246 268.693 25.8945 268.693 26.0898C268.693 26.2891 268.738 26.4707 268.828 26.6348C268.918 26.7988 269.053 26.9297 269.232 27.0273C269.416 27.1211 269.641 27.168 269.906 27.168C270.238 27.168 270.531 27.0977 270.785 26.957C271.039 26.8164 271.24 26.6445 271.389 26.4414C271.541 26.2383 271.623 26.041 271.635 25.8496L272.098 26.3711C272.07 26.5352 271.996 26.7168 271.875 26.916C271.754 27.1152 271.592 27.3066 271.389 27.4902C271.189 27.6699 270.951 27.8203 270.674 27.9414C270.4 28.0586 270.092 28.1172 269.748 28.1172C269.318 28.1172 268.941 28.0332 268.617 27.8652C268.297 27.6973 268.047 27.4727 267.867 27.1914C267.691 26.9062 267.604 26.5879 267.604 26.2363C267.604 25.8965 267.67 25.5977 267.803 25.3398C267.936 25.0781 268.127 24.8613 268.377 24.6895C268.627 24.5137 268.928 24.3809 269.279 24.291C269.631 24.2012 270.023 24.1562 270.457 24.1562H271.717ZM275.408 19V28H274.318V19H275.408ZM279.281 21.6602L276.516 24.6191L274.969 26.2246L274.881 25.0703L275.988 23.7461L277.957 21.6602H279.281ZM278.291 28L276.029 24.9766L276.592 24.0098L279.568 28H278.291ZM283.055 21.6602V22.4922H279.627V21.6602H283.055ZM280.787 20.1191H281.871V26.4297C281.871 26.6445 281.904 26.8066 281.971 26.916C282.037 27.0254 282.123 27.0977 282.229 27.1328C282.334 27.168 282.447 27.1855 282.568 27.1855C282.658 27.1855 282.752 27.1777 282.85 27.1621C282.951 27.1426 283.027 27.127 283.078 27.1152L283.084 28C282.998 28.0273 282.885 28.0527 282.744 28.0762C282.607 28.1035 282.441 28.1172 282.246 28.1172C281.98 28.1172 281.736 28.0645 281.514 27.959C281.291 27.8535 281.113 27.6777 280.98 27.4316C280.852 27.1816 280.787 26.8457 280.787 26.4238V20.1191ZM286.957 28.1172C286.516 28.1172 286.115 28.043 285.756 27.8945C285.4 27.7422 285.094 27.5293 284.836 27.2559C284.582 26.9824 284.387 26.6582 284.25 26.2832C284.113 25.9082 284.045 25.498 284.045 25.0527V24.8066C284.045 24.291 284.121 23.832 284.273 23.4297C284.426 23.0234 284.633 22.6797 284.895 22.3984C285.156 22.1172 285.453 21.9043 285.785 21.7598C286.117 21.6152 286.461 21.543 286.816 21.543C287.27 21.543 287.66 21.6211 287.988 21.7773C288.32 21.9336 288.592 22.1523 288.803 22.4336C289.014 22.7109 289.17 23.0391 289.271 23.418C289.373 23.793 289.424 24.2031 289.424 24.6484V25.1348H284.689V24.25H288.34V24.168C288.324 23.8867 288.266 23.6133 288.164 23.3477C288.066 23.082 287.91 22.8633 287.695 22.6914C287.48 22.5195 287.188 22.4336 286.816 22.4336C286.57 22.4336 286.344 22.4863 286.137 22.5918C285.93 22.6934 285.752 22.8457 285.604 23.0488C285.455 23.252 285.34 23.5 285.258 23.793C285.176 24.0859 285.135 24.4238 285.135 24.8066V25.0527C285.135 25.3535 285.176 25.6367 285.258 25.9023C285.344 26.1641 285.467 26.3945 285.627 26.5938C285.791 26.793 285.988 26.9492 286.219 27.0625C286.453 27.1758 286.719 27.2324 287.016 27.2324C287.398 27.2324 287.723 27.1543 287.988 26.998C288.254 26.8418 288.486 26.6328 288.686 26.3711L289.342 26.8926C289.205 27.0996 289.031 27.2969 288.82 27.4844C288.609 27.6719 288.35 27.8242 288.041 27.9414C287.736 28.0586 287.375 28.1172 286.957 28.1172ZM291.773 22.6562V28H290.689V21.6602H291.744L291.773 22.6562ZM293.754 21.625L293.748 22.6328C293.658 22.6133 293.572 22.6016 293.49 22.5977C293.412 22.5898 293.322 22.5859 293.221 22.5859C292.971 22.5859 292.75 22.625 292.559 22.7031C292.367 22.7812 292.205 22.8906 292.072 23.0312C291.939 23.1719 291.834 23.3398 291.756 23.5352C291.682 23.7266 291.633 23.9375 291.609 24.168L291.305 24.3438C291.305 23.9609 291.342 23.6016 291.416 23.2656C291.494 22.9297 291.613 22.6328 291.773 22.375C291.934 22.1133 292.137 21.9102 292.383 21.7656C292.633 21.6172 292.93 21.543 293.273 21.543C293.352 21.543 293.441 21.5527 293.543 21.5723C293.645 21.5879 293.715 21.6055 293.754 21.625Z" fill="black"/>
<path d="M80 30L130 80" stroke="black"/>
<rect x="130" y="80" width="50" height="1" transform="rotate(-90 130 80)" fill="black"/>
<path d="M463 30L413 80" stroke="black"/>
<rect x="413" y="80" width="50" height="1" transform="rotate(-90 413 80)" fill="black"/>
<rect x="180" y="130" width="50" height="1" fill="black"/>
<rect x="313" y="130" width="50" height="1" fill="black"/>
<rect x="271" y="89" width="50" height="1" transform="rotate(-90 271 89)" fill="black"/>
<path d="M182.307 121.59V121.531C182.307 120.68 182.402 119.91 182.594 119.223C182.785 118.531 183.029 117.926 183.326 117.406C183.623 116.887 183.936 116.457 184.264 116.117C184.592 115.773 184.895 115.525 185.172 115.373L185.4 116.088C185.17 116.264 184.936 116.506 184.697 116.814C184.463 117.123 184.246 117.502 184.047 117.951C183.852 118.4 183.693 118.922 183.572 119.516C183.451 120.109 183.391 120.777 183.391 121.52V121.602C183.391 122.344 183.451 123.014 183.572 123.611C183.693 124.205 183.852 124.729 184.047 125.182C184.246 125.635 184.463 126.02 184.697 126.336C184.936 126.656 185.17 126.91 185.4 127.098L185.172 127.754C184.895 127.602 184.592 127.354 184.264 127.01C183.936 126.67 183.623 126.24 183.326 125.721C183.029 125.205 182.785 124.602 182.594 123.91C182.402 123.219 182.307 122.445 182.307 121.59ZM191.699 120.055V121.355C191.699 122.055 191.637 122.645 191.512 123.125C191.387 123.605 191.207 123.992 190.973 124.285C190.738 124.578 190.455 124.791 190.123 124.924C189.795 125.053 189.424 125.117 189.01 125.117C188.682 125.117 188.379 125.076 188.102 124.994C187.824 124.912 187.574 124.781 187.352 124.602C187.133 124.418 186.945 124.18 186.789 123.887C186.633 123.594 186.514 123.238 186.432 122.82C186.35 122.402 186.309 121.914 186.309 121.355V120.055C186.309 119.355 186.371 118.77 186.496 118.297C186.625 117.824 186.807 117.445 187.041 117.16C187.275 116.871 187.557 116.664 187.885 116.539C188.217 116.414 188.588 116.352 188.998 116.352C189.33 116.352 189.635 116.393 189.912 116.475C190.193 116.553 190.443 116.68 190.662 116.855C190.881 117.027 191.066 117.258 191.219 117.547C191.375 117.832 191.494 118.182 191.576 118.596C191.658 119.01 191.699 119.496 191.699 120.055ZM190.609 121.531V119.873C190.609 119.49 190.586 119.154 190.539 118.865C190.496 118.572 190.432 118.322 190.346 118.115C190.26 117.908 190.15 117.74 190.018 117.611C189.889 117.482 189.738 117.389 189.566 117.33C189.398 117.268 189.209 117.236 188.998 117.236C188.74 117.236 188.512 117.285 188.312 117.383C188.113 117.477 187.945 117.627 187.809 117.834C187.676 118.041 187.574 118.312 187.504 118.648C187.434 118.984 187.398 119.393 187.398 119.873V121.531C187.398 121.914 187.42 122.252 187.463 122.545C187.51 122.838 187.578 123.092 187.668 123.307C187.758 123.518 187.867 123.691 187.996 123.828C188.125 123.965 188.273 124.066 188.441 124.133C188.613 124.195 188.803 124.227 189.01 124.227C189.275 124.227 189.508 124.176 189.707 124.074C189.906 123.973 190.072 123.814 190.205 123.6C190.342 123.381 190.443 123.102 190.51 122.762C190.576 122.418 190.609 122.008 190.609 121.531ZM194.195 123.711V124.584C194.195 124.939 194.105 125.314 193.926 125.709C193.746 126.107 193.494 126.439 193.17 126.705L192.555 126.277C192.68 126.105 192.785 125.93 192.871 125.75C192.957 125.574 193.021 125.391 193.064 125.199C193.111 125.012 193.135 124.812 193.135 124.602V123.711H194.195ZM205.281 116.469V125H204.145L199.85 118.42V125H198.719V116.469H199.85L204.162 123.066V116.469H205.281ZM209.617 121.531V121.59C209.617 122.445 209.521 123.219 209.33 123.91C209.139 124.602 208.895 125.205 208.598 125.721C208.301 126.24 207.988 126.67 207.66 127.01C207.332 127.354 207.029 127.602 206.752 127.754L206.523 127.098C206.754 126.922 206.986 126.676 207.221 126.359C207.455 126.047 207.672 125.66 207.871 125.199C208.07 124.742 208.23 124.215 208.352 123.617C208.473 123.016 208.533 122.344 208.533 121.602V121.52C208.533 120.777 208.469 120.107 208.34 119.51C208.211 118.908 208.043 118.379 207.836 117.922C207.633 117.465 207.414 117.08 207.18 116.768C206.949 116.451 206.73 116.207 206.523 116.035L206.752 115.373C207.029 115.525 207.332 115.773 207.66 116.117C207.988 116.457 208.301 116.887 208.598 117.406C208.895 117.926 209.139 118.531 209.33 119.223C209.521 119.91 209.617 120.68 209.617 121.531Z" fill="black"/>
<path d="M334.215 121.59V121.531C334.215 120.68 334.311 119.91 334.502 119.223C334.693 118.531 334.938 117.926 335.234 117.406C335.531 116.887 335.844 116.457 336.172 116.117C336.5 115.773 336.803 115.525 337.08 115.373L337.309 116.088C337.078 116.264 336.844 116.506 336.605 116.814C336.371 117.123 336.154 117.502 335.955 117.951C335.76 118.4 335.602 118.922 335.48 119.516C335.359 120.109 335.299 120.777 335.299 121.52V121.602C335.299 122.344 335.359 123.014 335.48 123.611C335.602 124.205 335.76 124.729 335.955 125.182C336.154 125.635 336.371 126.02 336.605 126.336C336.844 126.656 337.078 126.91 337.309 127.098L337.08 127.754C336.803 127.602 336.5 127.354 336.172 127.01C335.844 126.67 335.531 126.24 335.234 125.721C334.938 125.205 334.693 124.602 334.502 123.91C334.311 123.219 334.215 122.445 334.215 121.59ZM341.814 116.422V125H340.73V117.775L338.545 118.572V117.594L341.645 116.422H341.814ZM346.104 123.711V124.584C346.104 124.939 346.014 125.314 345.834 125.709C345.654 126.107 345.402 126.439 345.078 126.705L344.463 126.277C344.588 126.105 344.693 125.93 344.779 125.75C344.865 125.574 344.93 125.391 344.973 125.199C345.02 125.012 345.043 124.812 345.043 124.602V123.711H346.104ZM353.908 116.422V125H352.824V117.775L350.639 118.572V117.594L353.738 116.422H353.908ZM359.709 121.531V121.59C359.709 122.445 359.613 123.219 359.422 123.91C359.23 124.602 358.986 125.205 358.689 125.721C358.393 126.24 358.08 126.67 357.752 127.01C357.424 127.354 357.121 127.602 356.844 127.754L356.615 127.098C356.846 126.922 357.078 126.676 357.312 126.359C357.547 126.047 357.764 125.66 357.963 125.199C358.162 124.742 358.322 124.215 358.443 123.617C358.564 123.016 358.625 122.344 358.625 121.602V121.52C358.625 120.777 358.561 120.107 358.432 119.51C358.303 118.908 358.135 118.379 357.928 117.922C357.725 117.465 357.506 117.08 357.271 116.768C357.041 116.451 356.822 116.207 356.615 116.035L356.844 115.373C357.121 115.525 357.424 115.773 357.752 116.117C358.08 116.457 358.393 116.887 358.689 117.406C358.986 117.926 359.23 118.531 359.422 119.223C359.613 119.91 359.709 120.68 359.709 121.531Z" fill="black"/>
</svg>
