<svg width="372" height="280" viewBox="0 0 372 280" fill="none" xmlns="http://www.w3.org/2000/svg">
<path d="M75 84.5L296 51M296 51L75 112.5M296 51L75 212M75 182L296 81" stroke="#7B61FF" stroke-width="2"/>
<path d="M76 183L165 226.5M76 212L165 257" stroke="#FF007A" stroke-width="2"/>
<path d="M165.5 227L295.5 51M165.5 257L295.5 81" stroke="#00B0E8" stroke-width="2"/>
<path d="M13.9261 50.9277L11.6058 58H9.73666L12.9066 49.4688H14.096L13.9261 50.9277ZM15.8539 58L13.5277 50.9277L13.3402 49.4688H14.5414L17.7289 58H15.8539ZM15.7484 54.8242V56.2012H11.2425V54.8242H15.7484ZM19.8792 53.0137V58H18.1917V51.6602H19.7738L19.8792 53.0137ZM19.6331 54.6074H19.1761C19.1761 54.1387 19.2367 53.7168 19.3578 53.3418C19.4789 52.9629 19.6488 52.6406 19.8675 52.375C20.0863 52.1055 20.346 51.9004 20.6468 51.7598C20.9515 51.6152 21.2914 51.543 21.6664 51.543C21.9632 51.543 22.2347 51.5859 22.4808 51.6719C22.7269 51.7578 22.9378 51.8945 23.1136 52.082C23.2933 52.2695 23.43 52.5176 23.5238 52.8262C23.6214 53.1348 23.6703 53.5117 23.6703 53.957V58H21.971V53.9512C21.971 53.6699 21.932 53.4512 21.8539 53.2949C21.7757 53.1387 21.6605 53.0293 21.5081 52.9668C21.3597 52.9004 21.1761 52.8672 20.9574 52.8672C20.7308 52.8672 20.5335 52.9121 20.3656 53.002C20.2015 53.0918 20.0648 53.2168 19.9554 53.377C19.8499 53.5332 19.7699 53.7168 19.7152 53.9277C19.6605 54.1387 19.6331 54.3652 19.6331 54.6074ZM28.3812 56.248C28.3812 56.127 28.346 56.0176 28.2757 55.9199C28.2054 55.8223 28.0746 55.7324 27.8831 55.6504C27.6956 55.5645 27.4242 55.4863 27.0687 55.416C26.7484 55.3457 26.4496 55.2578 26.1722 55.1523C25.8988 55.043 25.6605 54.9121 25.4574 54.7598C25.2581 54.6074 25.1019 54.4277 24.9886 54.2207C24.8753 54.0098 24.8187 53.7695 24.8187 53.5C24.8187 53.2344 24.8753 52.9844 24.9886 52.75C25.1058 52.5156 25.2718 52.3086 25.4867 52.1289C25.7054 51.9453 25.971 51.8027 26.2835 51.7012C26.5999 51.5957 26.9554 51.543 27.3499 51.543C27.9007 51.543 28.3734 51.6309 28.7679 51.8066C29.1664 51.9824 29.471 52.2246 29.682 52.5332C29.8968 52.8379 30.0042 53.1855 30.0042 53.5762H28.3167C28.3167 53.4121 28.2816 53.2656 28.2113 53.1367C28.1449 53.0039 28.0394 52.9004 27.8949 52.8262C27.7542 52.748 27.5706 52.709 27.3441 52.709C27.1566 52.709 26.9945 52.7422 26.8578 52.8086C26.721 52.8711 26.6156 52.957 26.5414 53.0664C26.471 53.1719 26.4359 53.2891 26.4359 53.418C26.4359 53.5156 26.4554 53.6035 26.4945 53.6816C26.5374 53.7559 26.6058 53.8242 26.6996 53.8867C26.7933 53.9492 26.9144 54.0078 27.0628 54.0625C27.2152 54.1133 27.4027 54.1602 27.6253 54.2031C28.0824 54.2969 28.4906 54.4199 28.8499 54.5723C29.2093 54.7207 29.4945 54.9238 29.7054 55.1816C29.9164 55.4355 30.0218 55.7695 30.0218 56.1836C30.0218 56.4648 29.9593 56.7227 29.8343 56.957C29.7093 57.1914 29.5296 57.3965 29.2953 57.5723C29.0609 57.7441 28.7796 57.8789 28.4515 57.9766C28.1273 58.0703 27.7621 58.1172 27.3558 58.1172C26.766 58.1172 26.266 58.0117 25.8558 57.8008C25.4496 57.5898 25.141 57.3223 24.93 56.998C24.723 56.6699 24.6195 56.334 24.6195 55.9902H26.2191C26.2269 56.2207 26.2855 56.4062 26.3949 56.5469C26.5081 56.6875 26.6507 56.7891 26.8226 56.8516C26.9984 56.9141 27.1878 56.9453 27.391 56.9453C27.6097 56.9453 27.7914 56.916 27.9359 56.8574C28.0804 56.7949 28.1898 56.7129 28.264 56.6113C28.3421 56.5059 28.3812 56.3848 28.3812 56.248ZM34.5394 56.5703V53.7461C34.5394 53.543 34.5062 53.3691 34.4398 53.2246C34.3734 53.0762 34.2699 52.9609 34.1292 52.8789C33.9925 52.7969 33.8148 52.7559 33.596 52.7559C33.4085 52.7559 33.2464 52.7891 33.1097 52.8555C32.973 52.918 32.8675 53.0098 32.7933 53.1309C32.7191 53.248 32.682 53.3867 32.682 53.5469H30.9945C30.9945 53.2773 31.057 53.0215 31.182 52.7793C31.307 52.5371 31.4886 52.3242 31.7269 52.1406C31.9652 51.9531 32.2484 51.8066 32.5765 51.7012C32.9085 51.5957 33.2796 51.543 33.6898 51.543C34.182 51.543 34.6195 51.625 35.0023 51.7891C35.3851 51.9531 35.6859 52.1992 35.9046 52.5273C36.1273 52.8555 36.2386 53.2656 36.2386 53.7578V56.4707C36.2386 56.8184 36.2601 57.1035 36.3031 57.3262C36.346 57.5449 36.4085 57.7363 36.4906 57.9004V58H34.7855C34.7035 57.8281 34.641 57.6133 34.598 57.3555C34.5589 57.0938 34.5394 56.832 34.5394 56.5703ZM34.7621 54.1387L34.7738 55.0938H33.8304C33.6078 55.0938 33.4144 55.1191 33.2503 55.1699C33.0863 55.2207 32.9515 55.293 32.846 55.3867C32.7406 55.4766 32.6624 55.582 32.6117 55.7031C32.5648 55.8242 32.5414 55.957 32.5414 56.1016C32.5414 56.2461 32.5746 56.377 32.641 56.4941C32.7074 56.6074 32.8031 56.6973 32.9281 56.7637C33.0531 56.8262 33.1996 56.8574 33.3675 56.8574C33.6214 56.8574 33.8421 56.8066 34.0296 56.7051C34.2171 56.6035 34.3617 56.4785 34.4632 56.3301C34.5687 56.1816 34.6234 56.041 34.6273 55.9082L35.0726 56.623C35.0101 56.7832 34.9242 56.9492 34.8148 57.1211C34.7093 57.293 34.5746 57.4551 34.4105 57.6074C34.2464 57.7559 34.0492 57.8789 33.8187 57.9766C33.5882 58.0703 33.3148 58.1172 32.9984 58.1172C32.596 58.1172 32.2308 58.0371 31.9027 57.877C31.5785 57.7129 31.3206 57.4883 31.1292 57.2031C30.9417 56.9141 30.848 56.5859 30.848 56.2188C30.848 55.8867 30.9105 55.5918 31.0355 55.334C31.1605 55.0762 31.3441 54.8594 31.5863 54.6836C31.8324 54.5039 32.139 54.3691 32.5062 54.2793C32.8734 54.1855 33.2992 54.1387 33.7835 54.1387H34.7621ZM40.6449 51.6602V52.8555H36.9535V51.6602H40.6449ZM37.8675 50.0957H39.555V56.0898C39.555 56.2734 39.5785 56.4141 39.6253 56.5117C39.6761 56.6094 39.7503 56.6777 39.848 56.7168C39.9456 56.752 40.0687 56.7695 40.2171 56.7695C40.3226 56.7695 40.4164 56.7656 40.4984 56.7578C40.5843 56.7461 40.6566 56.7344 40.7152 56.7227L40.721 57.9648C40.5765 58.0117 40.4203 58.0488 40.2523 58.0762C40.0843 58.1035 39.8988 58.1172 39.6956 58.1172C39.3246 58.1172 39.0003 58.0566 38.723 57.9355C38.4496 57.8105 38.2386 57.6113 38.0902 57.3379C37.9417 57.0645 37.8675 56.7051 37.8675 56.2598V50.0957ZM44.7113 51.6602V52.8555H41.0199V51.6602H44.7113ZM41.9339 50.0957H43.6214V56.0898C43.6214 56.2734 43.6449 56.4141 43.6917 56.5117C43.7425 56.6094 43.8167 56.6777 43.9144 56.7168C44.0121 56.752 44.1351 56.7695 44.2835 56.7695C44.389 56.7695 44.4828 56.7656 44.5648 56.7578C44.6507 56.7461 44.723 56.7344 44.7816 56.7227L44.7874 57.9648C44.6429 58.0117 44.4867 58.0488 44.3187 58.0762C44.1507 58.1035 43.9652 58.1172 43.7621 58.1172C43.391 58.1172 43.0667 58.0566 42.7894 57.9355C42.516 57.8105 42.305 57.6113 42.1566 57.3379C42.0081 57.0645 41.9339 56.7051 41.9339 56.2598V50.0957Z" fill="black"/>
<rect x="72" y="80" width="6" height="6" rx="3" fill="black"/>
<path d="M52.2539 79.2246L49.4297 87H48.2754L51.5273 78.4688H52.2715L52.2539 79.2246ZM54.6211 87L51.791 79.2246L51.7734 78.4688H52.5176L55.7812 87H54.6211ZM54.4746 83.8418V84.7676H49.6816V83.8418H54.4746ZM59.0156 82.9277V83.8184H56.1562V82.9277H59.0156ZM63.5215 78.4219V87H62.4375V79.7754L60.252 80.5723V79.5938L63.3516 78.4219H63.5215Z" fill="black"/>
<rect x="72" y="110" width="6" height="6" rx="3" fill="black"/>
<path d="M52.2539 109.225L49.4297 117H48.2754L51.5273 108.469H52.2715L52.2539 109.225ZM54.6211 117L51.791 109.225L51.7734 108.469H52.5176L55.7812 117H54.6211ZM54.4746 113.842V114.768H49.6816V113.842H54.4746ZM59.0156 112.928V113.818H56.1562V112.928H59.0156ZM65.5488 116.109V117H59.9648V116.221L62.7598 113.109C63.1035 112.727 63.3691 112.402 63.5566 112.137C63.748 111.867 63.8809 111.627 63.9551 111.416C64.0332 111.201 64.0723 110.982 64.0723 110.76C64.0723 110.479 64.0137 110.225 63.8965 109.998C63.7832 109.768 63.6152 109.584 63.3926 109.447C63.1699 109.311 62.9004 109.242 62.584 109.242C62.2051 109.242 61.8887 109.316 61.6348 109.465C61.3848 109.609 61.1973 109.812 61.0723 110.074C60.9473 110.336 60.8848 110.637 60.8848 110.977H59.8008C59.8008 110.496 59.9062 110.057 60.1172 109.658C60.3281 109.26 60.6406 108.943 61.0547 108.709C61.4688 108.471 61.9785 108.352 62.584 108.352C63.123 108.352 63.584 108.447 63.9668 108.639C64.3496 108.826 64.6426 109.092 64.8457 109.436C65.0527 109.775 65.1562 110.174 65.1562 110.631C65.1562 110.881 65.1133 111.135 65.0273 111.393C64.9453 111.646 64.8301 111.9 64.6816 112.154C64.5371 112.408 64.3672 112.658 64.1719 112.904C63.9805 113.15 63.7754 113.393 63.5566 113.631L61.2715 116.109H65.5488Z" fill="black"/>
<path d="M15.9417 156.629V158H11.6468V156.629H15.9417ZM12.2152 149.469V158H10.4574V149.469H12.2152ZM19.7621 158.117C19.2699 158.117 18.8285 158.039 18.4378 157.883C18.0472 157.723 17.7152 157.502 17.4417 157.221C17.1722 156.939 16.9652 156.613 16.8206 156.242C16.6761 155.867 16.6039 155.469 16.6039 155.047V154.812C16.6039 154.332 16.6722 153.893 16.8089 153.494C16.9456 153.096 17.141 152.75 17.3949 152.457C17.6527 152.164 17.9652 151.939 18.3324 151.783C18.6996 151.623 19.1136 151.543 19.5746 151.543C20.0238 151.543 20.4222 151.617 20.7699 151.766C21.1175 151.914 21.4085 152.125 21.6429 152.398C21.8812 152.672 22.0609 153 22.182 153.383C22.3031 153.762 22.3636 154.184 22.3636 154.648V155.352H17.3246V154.227H20.7054V154.098C20.7054 153.863 20.6624 153.654 20.5765 153.471C20.4945 153.283 20.3695 153.135 20.2015 153.025C20.0335 152.916 19.8187 152.861 19.557 152.861C19.3343 152.861 19.1429 152.91 18.9828 153.008C18.8226 153.105 18.6917 153.242 18.5902 153.418C18.4925 153.594 18.4183 153.801 18.3675 154.039C18.3206 154.273 18.2972 154.531 18.2972 154.812V155.047C18.2972 155.301 18.3324 155.535 18.4027 155.75C18.4769 155.965 18.5804 156.15 18.7132 156.307C18.8499 156.463 19.014 156.584 19.2054 156.67C19.4007 156.756 19.6214 156.799 19.8675 156.799C20.1722 156.799 20.4554 156.74 20.7171 156.623C20.9828 156.502 21.2113 156.32 21.4027 156.078L22.223 156.969C22.0902 157.16 21.9085 157.344 21.6781 157.52C21.4515 157.695 21.1781 157.84 20.8578 157.953C20.5374 158.062 20.1722 158.117 19.7621 158.117ZM27.3382 151.66H28.8675V157.789C28.8675 158.367 28.7386 158.857 28.4808 159.26C28.2269 159.666 27.8714 159.973 27.4144 160.18C26.9574 160.391 26.4261 160.496 25.8206 160.496C25.555 160.496 25.2738 160.461 24.9769 160.391C24.6839 160.32 24.4027 160.211 24.1331 160.062C23.8675 159.914 23.6449 159.727 23.4652 159.5L24.2093 158.504C24.4046 158.73 24.6312 158.906 24.889 159.031C25.1468 159.16 25.432 159.225 25.7445 159.225C26.0492 159.225 26.307 159.168 26.5179 159.055C26.7289 158.945 26.891 158.783 27.0042 158.568C27.1175 158.357 27.1742 158.102 27.1742 157.801V153.125L27.3382 151.66ZM23.0726 154.906V154.783C23.0726 154.299 23.1312 153.859 23.2484 153.465C23.3695 153.066 23.5394 152.725 23.7581 152.439C23.9808 152.154 24.2503 151.934 24.5667 151.777C24.8831 151.621 25.2406 151.543 25.639 151.543C26.0609 151.543 26.4144 151.621 26.6996 151.777C26.9847 151.934 27.2191 152.156 27.4027 152.445C27.5863 152.73 27.7289 153.068 27.8304 153.459C27.9359 153.846 28.0179 154.27 28.0765 154.73V155C28.0179 155.441 27.93 155.852 27.8128 156.23C27.6956 156.609 27.5414 156.941 27.3499 157.227C27.1585 157.508 26.9203 157.727 26.6351 157.883C26.3539 158.039 26.0179 158.117 25.6273 158.117C25.2367 158.117 24.8831 158.037 24.5667 157.877C24.2542 157.717 23.9867 157.492 23.764 157.203C23.5414 156.914 23.3695 156.574 23.2484 156.184C23.1312 155.793 23.0726 155.367 23.0726 154.906ZM24.7601 154.783V154.906C24.7601 155.168 24.7855 155.412 24.8363 155.639C24.8871 155.865 24.9652 156.066 25.0706 156.242C25.18 156.414 25.3148 156.549 25.4749 156.646C25.639 156.74 25.8324 156.787 26.055 156.787C26.3636 156.787 26.6156 156.723 26.8109 156.594C27.0062 156.461 27.1527 156.279 27.2503 156.049C27.348 155.818 27.4046 155.553 27.4203 155.252V154.484C27.4124 154.238 27.3792 154.018 27.3206 153.822C27.2621 153.623 27.18 153.453 27.0746 153.312C26.9691 153.172 26.8324 153.062 26.6644 152.984C26.4964 152.906 26.2972 152.867 26.0667 152.867C25.8441 152.867 25.6507 152.918 25.4867 153.02C25.3265 153.117 25.1917 153.252 25.0824 153.424C24.9769 153.596 24.8968 153.799 24.8421 154.033C24.7874 154.264 24.7601 154.514 24.7601 154.783ZM33.098 158.117C32.6058 158.117 32.1644 158.039 31.7738 157.883C31.3831 157.723 31.0511 157.502 30.7777 157.221C30.5081 156.939 30.3011 156.613 30.1566 156.242C30.0121 155.867 29.9398 155.469 29.9398 155.047V154.812C29.9398 154.332 30.0081 153.893 30.1449 153.494C30.2816 153.096 30.4769 152.75 30.7308 152.457C30.9886 152.164 31.3011 151.939 31.6683 151.783C32.0355 151.623 32.4496 151.543 32.9105 151.543C33.3597 151.543 33.7581 151.617 34.1058 151.766C34.4535 151.914 34.7445 152.125 34.9789 152.398C35.2171 152.672 35.3968 153 35.5179 153.383C35.639 153.762 35.6996 154.184 35.6996 154.648V155.352H30.6605V154.227H34.0414V154.098C34.0414 153.863 33.9984 153.654 33.9124 153.471C33.8304 153.283 33.7054 153.135 33.5374 153.025C33.3695 152.916 33.1546 152.861 32.8929 152.861C32.6703 152.861 32.4789 152.91 32.3187 153.008C32.1585 153.105 32.0277 153.242 31.9261 153.418C31.8285 153.594 31.7542 153.801 31.7035 154.039C31.6566 154.273 31.6331 154.531 31.6331 154.812V155.047C31.6331 155.301 31.6683 155.535 31.7386 155.75C31.8128 155.965 31.9164 156.15 32.0492 156.307C32.1859 156.463 32.3499 156.584 32.5414 156.67C32.7367 156.756 32.9574 156.799 33.2035 156.799C33.5081 156.799 33.7914 156.74 34.0531 156.623C34.3187 156.502 34.5472 156.32 34.7386 156.078L35.5589 156.969C35.4261 157.16 35.2445 157.344 35.014 157.52C34.7874 157.695 34.514 157.84 34.1937 157.953C33.8734 158.062 33.5081 158.117 33.098 158.117Z" fill="black"/>
<rect x="72" y="180" width="6" height="6" rx="3" fill="black"/>
<path d="M52.2539 179.225L49.4297 187H48.2754L51.5273 178.469H52.2715L52.2539 179.225ZM54.6211 187L51.791 179.225L51.7734 178.469H52.5176L55.7812 187H54.6211ZM54.4746 183.842V184.768H49.6816V183.842H54.4746ZM59.0156 182.928V183.818H56.1562V182.928H59.0156ZM61.541 182.201H62.3145C62.6934 182.201 63.0059 182.139 63.252 182.014C63.502 181.885 63.6875 181.711 63.8086 181.492C63.9336 181.27 63.9961 181.02 63.9961 180.742C63.9961 180.414 63.9414 180.139 63.832 179.916C63.7227 179.693 63.5586 179.525 63.3398 179.412C63.1211 179.299 62.8438 179.242 62.5078 179.242C62.2031 179.242 61.9336 179.303 61.6992 179.424C61.4688 179.541 61.2871 179.709 61.1543 179.928C61.0254 180.146 60.9609 180.404 60.9609 180.701H59.877C59.877 180.268 59.9863 179.873 60.2051 179.518C60.4238 179.162 60.7305 178.879 61.125 178.668C61.5234 178.457 61.9844 178.352 62.5078 178.352C63.0234 178.352 63.4746 178.443 63.8613 178.627C64.248 178.807 64.5488 179.076 64.7637 179.436C64.9785 179.791 65.0859 180.234 65.0859 180.766C65.0859 180.98 65.0352 181.211 64.9336 181.457C64.8359 181.699 64.6816 181.926 64.4707 182.137C64.2637 182.348 63.9941 182.521 63.6621 182.658C63.3301 182.791 62.9316 182.857 62.4668 182.857H61.541V182.201ZM61.541 183.092V182.441H62.4668C63.0098 182.441 63.459 182.506 63.8145 182.635C64.1699 182.764 64.4492 182.936 64.6523 183.15C64.8594 183.365 65.0039 183.602 65.0859 183.859C65.1719 184.113 65.2148 184.367 65.2148 184.621C65.2148 185.02 65.1465 185.373 65.0098 185.682C64.877 185.99 64.6875 186.252 64.4414 186.467C64.1992 186.682 63.9141 186.844 63.5859 186.953C63.2578 187.062 62.9004 187.117 62.5137 187.117C62.1426 187.117 61.793 187.064 61.4648 186.959C61.1406 186.854 60.8535 186.701 60.6035 186.502C60.3535 186.299 60.1582 186.051 60.0176 185.758C59.877 185.461 59.8066 185.123 59.8066 184.744H60.8906C60.8906 185.041 60.9551 185.301 61.084 185.523C61.2168 185.746 61.4043 185.92 61.6465 186.045C61.8926 186.166 62.1816 186.227 62.5137 186.227C62.8457 186.227 63.1309 186.17 63.3691 186.057C63.6113 185.939 63.7969 185.764 63.9258 185.529C64.0586 185.295 64.125 185 64.125 184.645C64.125 184.289 64.0508 183.998 63.9023 183.771C63.7539 183.541 63.543 183.371 63.2695 183.262C63 183.148 62.6816 183.092 62.3145 183.092H61.541Z" fill="black"/>
<rect x="72" y="210" width="6" height="6" rx="3" fill="black"/>
<path d="M52.2539 209.225L49.4297 217H48.2754L51.5273 208.469H52.2715L52.2539 209.225ZM54.6211 217L51.791 209.225L51.7734 208.469H52.5176L55.7812 217H54.6211ZM54.4746 213.842V214.768H49.6816V213.842H54.4746ZM59.0156 212.928V213.818H56.1562V212.928H59.0156ZM65.7246 214.129V215.02H59.5605V214.381L63.3809 208.469H64.2656L63.3164 210.18L60.791 214.129H65.7246ZM64.5352 208.469V217H63.4512V208.469H64.5352Z" fill="black"/>
<path d="M21 133.5H72V132.5H21V133.5ZM91.5 153V215H92.5V153H91.5ZM72 234.5H21V235.5H72V234.5ZM1.5 215V153H0.5V215H1.5ZM21 234.5C10.2304 234.5 1.5 225.77 1.5 215H0.5C0.5 226.322 9.67816 235.5 21 235.5V234.5ZM91.5 215C91.5 225.77 82.7696 234.5 72 234.5V235.5C83.3218 235.5 92.5 226.322 92.5 215H91.5ZM72 133.5C82.7696 133.5 91.5 142.23 91.5 153H92.5C92.5 141.678 83.3218 132.5 72 132.5V133.5ZM21 132.5C9.67816 132.5 0.5 141.678 0.5 153H1.5C1.5 142.23 10.2304 133.5 21 133.5V132.5Z" fill="black"/>
<rect x="1" y="33" width="100" height="214" rx="20" stroke="black"/>
<path d="M283.926 18.9277L281.606 26H279.737L282.907 17.4688H284.096L283.926 18.9277ZM285.854 26L283.528 18.9277L283.34 17.4688H284.541L287.729 26H285.854ZM285.748 22.8242V24.2012H281.243V22.8242H285.748ZM290.278 24.7695L291.684 19.6602H293.448L291.309 26H290.243L290.278 24.7695ZM289.311 19.6602L290.723 24.7754L290.752 26H289.68L287.541 19.6602H289.311ZM297.866 24.6172V17H299.565V26H298.035L297.866 24.6172ZM293.858 22.9062V22.7832C293.858 22.2988 293.912 21.8594 294.022 21.4648C294.131 21.0664 294.291 20.7246 294.502 20.4395C294.713 20.1543 294.973 19.9336 295.282 19.7773C295.59 19.6211 295.942 19.543 296.336 19.543C296.707 19.543 297.032 19.6211 297.309 19.7773C297.59 19.9336 297.828 20.1562 298.024 20.4453C298.223 20.7305 298.383 21.0684 298.504 21.459C298.625 21.8457 298.713 22.2695 298.768 22.7305V23C298.713 23.4414 298.625 23.8516 298.504 24.2305C298.383 24.6094 298.223 24.9414 298.024 25.2266C297.828 25.5078 297.59 25.7266 297.309 25.8828C297.028 26.0391 296.7 26.1172 296.325 26.1172C295.93 26.1172 295.578 26.0371 295.27 25.877C294.965 25.7168 294.707 25.4922 294.496 25.2031C294.289 24.9141 294.131 24.5742 294.022 24.1836C293.912 23.793 293.858 23.3672 293.858 22.9062ZM295.545 22.7832V22.9062C295.545 23.168 295.565 23.4121 295.604 23.6387C295.647 23.8652 295.715 24.0664 295.809 24.2422C295.907 24.4141 296.032 24.5488 296.184 24.6465C296.34 24.7402 296.53 24.7871 296.752 24.7871C297.041 24.7871 297.28 24.7227 297.467 24.5938C297.655 24.4609 297.797 24.2793 297.895 24.0488C297.996 23.8184 298.055 23.5527 298.071 23.252V22.4844C298.059 22.2383 298.024 22.0176 297.965 21.8223C297.91 21.623 297.828 21.4531 297.719 21.3125C297.614 21.1719 297.481 21.0625 297.321 20.9844C297.164 20.9062 296.979 20.8672 296.764 20.8672C296.545 20.8672 296.358 20.918 296.202 21.0195C296.045 21.1172 295.918 21.252 295.821 21.4238C295.727 21.5957 295.657 21.7988 295.61 22.0332C295.567 22.2637 295.545 22.5137 295.545 22.7832ZM303.801 26.1172C303.309 26.1172 302.868 26.0391 302.477 25.8828C302.086 25.7227 301.754 25.502 301.481 25.2207C301.211 24.9395 301.004 24.6133 300.86 24.2422C300.715 23.8672 300.643 23.4688 300.643 23.0469V22.8125C300.643 22.332 300.711 21.8926 300.848 21.4941C300.985 21.0957 301.18 20.75 301.434 20.457C301.692 20.1641 302.004 19.9395 302.371 19.7832C302.739 19.623 303.153 19.543 303.614 19.543C304.063 19.543 304.461 19.6172 304.809 19.7656C305.157 19.9141 305.448 20.125 305.682 20.3984C305.92 20.6719 306.1 21 306.221 21.3828C306.342 21.7617 306.403 22.1836 306.403 22.6484V23.3516H301.364V22.2266H304.744V22.0977C304.744 21.8633 304.702 21.6543 304.616 21.4707C304.534 21.2832 304.409 21.1348 304.241 21.0254C304.073 20.916 303.858 20.8613 303.596 20.8613C303.373 20.8613 303.182 20.9102 303.022 21.0078C302.862 21.1055 302.731 21.2422 302.629 21.418C302.532 21.5938 302.457 21.8008 302.407 22.0391C302.36 22.2734 302.336 22.5312 302.336 22.8125V23.0469C302.336 23.3008 302.371 23.5352 302.442 23.75C302.516 23.9648 302.619 24.1504 302.752 24.3066C302.889 24.4629 303.053 24.584 303.244 24.6699C303.44 24.7559 303.66 24.7988 303.907 24.7988C304.211 24.7988 304.494 24.7402 304.756 24.623C305.022 24.502 305.25 24.3203 305.442 24.0781L306.262 24.9688C306.129 25.1602 305.948 25.3438 305.717 25.5195C305.491 25.6953 305.217 25.8398 304.897 25.9531C304.577 26.0625 304.211 26.1172 303.801 26.1172ZM309.145 17V26H307.452V17H309.145ZM312.321 19.6602V26H310.627V19.6602H312.321ZM310.522 18.0078C310.522 17.7617 310.608 17.5586 310.78 17.3984C310.952 17.2383 311.182 17.1582 311.471 17.1582C311.756 17.1582 311.985 17.2383 312.157 17.3984C312.332 17.5586 312.42 17.7617 312.42 18.0078C312.42 18.2539 312.332 18.457 312.157 18.6172C311.985 18.7773 311.756 18.8574 311.471 18.8574C311.182 18.8574 310.952 18.7773 310.78 18.6172C310.608 18.457 310.522 18.2539 310.522 18.0078ZM315.368 21.0137V26H313.68V19.6602H315.262L315.368 21.0137ZM315.121 22.6074H314.664C314.664 22.1387 314.725 21.7168 314.846 21.3418C314.967 20.9629 315.137 20.6406 315.356 20.375C315.575 20.1055 315.834 19.9004 316.135 19.7598C316.44 19.6152 316.78 19.543 317.155 19.543C317.452 19.543 317.723 19.5859 317.969 19.6719C318.215 19.7578 318.426 19.8945 318.602 20.082C318.782 20.2695 318.918 20.5176 319.012 20.8262C319.11 21.1348 319.159 21.5117 319.159 21.957V26H317.459V21.9512C317.459 21.6699 317.42 21.4512 317.342 21.2949C317.264 21.1387 317.149 21.0293 316.996 20.9668C316.848 20.9004 316.664 20.8672 316.446 20.8672C316.219 20.8672 316.022 20.9121 315.854 21.002C315.69 21.0918 315.553 21.2168 315.444 21.377C315.338 21.5332 315.258 21.7168 315.203 21.9277C315.149 22.1387 315.121 22.3652 315.121 22.6074ZM324.455 19.6602H325.985V25.7891C325.985 26.3672 325.856 26.8574 325.598 27.2598C325.344 27.666 324.989 27.9727 324.532 28.1797C324.075 28.3906 323.543 28.4961 322.938 28.4961C322.672 28.4961 322.391 28.4609 322.094 28.3906C321.801 28.3203 321.52 28.2109 321.25 28.0625C320.985 27.9141 320.762 27.7266 320.582 27.5L321.327 26.5039C321.522 26.7305 321.748 26.9062 322.006 27.0312C322.264 27.1602 322.549 27.2246 322.862 27.2246C323.166 27.2246 323.424 27.168 323.635 27.0547C323.846 26.9453 324.008 26.7832 324.121 26.5684C324.235 26.3574 324.291 26.1016 324.291 25.8008V21.125L324.455 19.6602ZM320.19 22.9062V22.7832C320.19 22.2988 320.248 21.8594 320.366 21.4648C320.487 21.0664 320.657 20.7246 320.875 20.4395C321.098 20.1543 321.368 19.9336 321.684 19.7773C322 19.6211 322.358 19.543 322.756 19.543C323.178 19.543 323.532 19.6211 323.817 19.7773C324.102 19.9336 324.336 20.1562 324.52 20.4453C324.703 20.7305 324.846 21.0684 324.948 21.459C325.053 21.8457 325.135 22.2695 325.194 22.7305V23C325.135 23.4414 325.047 23.8516 324.93 24.2305C324.813 24.6094 324.659 24.9414 324.467 25.2266C324.276 25.5078 324.037 25.7266 323.752 25.8828C323.471 26.0391 323.135 26.1172 322.744 26.1172C322.354 26.1172 322 26.0371 321.684 25.877C321.371 25.7168 321.104 25.4922 320.881 25.2031C320.659 24.9141 320.487 24.5742 320.366 24.1836C320.248 23.793 320.19 23.3672 320.19 22.9062ZM321.877 22.7832V22.9062C321.877 23.168 321.903 23.4121 321.953 23.6387C322.004 23.8652 322.082 24.0664 322.188 24.2422C322.297 24.4141 322.432 24.5488 322.592 24.6465C322.756 24.7402 322.95 24.7871 323.172 24.7871C323.481 24.7871 323.733 24.7227 323.928 24.5938C324.123 24.4609 324.27 24.2793 324.368 24.0488C324.465 23.8184 324.522 23.5527 324.537 23.252V22.4844C324.53 22.2383 324.496 22.0176 324.438 21.8223C324.379 21.623 324.297 21.4531 324.192 21.3125C324.086 21.1719 323.95 21.0625 323.782 20.9844C323.614 20.9062 323.414 20.8672 323.184 20.8672C322.961 20.8672 322.768 20.918 322.604 21.0195C322.444 21.1172 322.309 21.252 322.2 21.4238C322.094 21.5957 322.014 21.7988 321.959 22.0332C321.905 22.2637 321.877 22.5137 321.877 22.7832Z" fill="black"/>
<rect x="293" y="48" width="6" height="6" rx="3" fill="black"/>
<path d="M309.121 46.4688V55H307.99V46.4688H309.121ZM314.271 46.4688L310.727 50.4473L308.734 52.5156L308.547 51.3086L310.047 49.6562L312.912 46.4688H314.271ZM313.182 55L310.023 50.8398L310.697 49.9434L314.529 55H313.182ZM316.539 48.6602V55H315.449V48.6602H316.539ZM315.367 46.9785C315.367 46.8027 315.42 46.6543 315.525 46.5332C315.635 46.4121 315.795 46.3516 316.006 46.3516C316.213 46.3516 316.371 46.4121 316.48 46.5332C316.594 46.6543 316.65 46.8027 316.65 46.9785C316.65 47.1465 316.594 47.291 316.48 47.4121C316.371 47.5293 316.213 47.5879 316.006 47.5879C315.795 47.5879 315.635 47.5293 315.525 47.4121C315.42 47.291 315.367 47.1465 315.367 46.9785ZM319.363 49.6562V55H318.279V48.6602H319.334L319.363 49.6562ZM321.344 48.625L321.338 49.6328C321.248 49.6133 321.162 49.6016 321.08 49.5977C321.002 49.5898 320.912 49.5859 320.811 49.5859C320.561 49.5859 320.34 49.625 320.148 49.7031C319.957 49.7812 319.795 49.8906 319.662 50.0312C319.529 50.1719 319.424 50.3398 319.346 50.5352C319.271 50.7266 319.223 50.9375 319.199 51.168L318.895 51.3438C318.895 50.9609 318.932 50.6016 319.006 50.2656C319.084 49.9297 319.203 49.6328 319.363 49.375C319.523 49.1133 319.727 48.9102 319.973 48.7656C320.223 48.6172 320.52 48.543 320.863 48.543C320.941 48.543 321.031 48.5527 321.133 48.5723C321.234 48.5879 321.305 48.6055 321.344 48.625ZM326.225 53.5352V48.6602H327.314V55H326.277L326.225 53.5352ZM326.43 52.1992L326.881 52.1875C326.881 52.6094 326.836 53 326.746 53.3594C326.66 53.7148 326.52 54.0234 326.324 54.2852C326.129 54.5469 325.873 54.752 325.557 54.9004C325.24 55.0449 324.855 55.1172 324.402 55.1172C324.094 55.1172 323.811 55.0723 323.553 54.9824C323.299 54.8926 323.08 54.7539 322.896 54.5664C322.713 54.3789 322.57 54.1348 322.469 53.834C322.371 53.5332 322.322 53.1719 322.322 52.75V48.6602H323.406V52.7617C323.406 53.0469 323.438 53.2832 323.5 53.4707C323.566 53.6543 323.654 53.8008 323.764 53.9102C323.877 54.0156 324.002 54.0898 324.139 54.1328C324.279 54.1758 324.424 54.1973 324.572 54.1973C325.033 54.1973 325.398 54.1094 325.668 53.9336C325.938 53.7539 326.131 53.5137 326.248 53.2129C326.369 52.9082 326.43 52.5703 326.43 52.1992ZM330.051 49.6562V55H328.967V48.6602H330.021L330.051 49.6562ZM332.031 48.625L332.025 49.6328C331.936 49.6133 331.85 49.6016 331.768 49.5977C331.689 49.5898 331.6 49.5859 331.498 49.5859C331.248 49.5859 331.027 49.625 330.836 49.7031C330.645 49.7812 330.482 49.8906 330.35 50.0312C330.217 50.1719 330.111 50.3398 330.033 50.5352C329.959 50.7266 329.91 50.9375 329.887 51.168L329.582 51.3438C329.582 50.9609 329.619 50.6016 329.693 50.2656C329.771 49.9297 329.891 49.6328 330.051 49.375C330.211 49.1133 330.414 48.9102 330.66 48.7656C330.91 48.6172 331.207 48.543 331.551 48.543C331.629 48.543 331.719 48.5527 331.82 48.5723C331.922 48.5879 331.992 48.6055 332.031 48.625ZM337.023 48.6602H338.008V54.8652C338.008 55.4238 337.895 55.9004 337.668 56.2949C337.441 56.6895 337.125 56.9883 336.719 57.1914C336.316 57.3984 335.852 57.502 335.324 57.502C335.105 57.502 334.848 57.4668 334.551 57.3965C334.258 57.3301 333.969 57.2148 333.684 57.0508C333.402 56.8906 333.166 56.6738 332.975 56.4004L333.543 55.7559C333.809 56.0762 334.086 56.2988 334.375 56.4238C334.668 56.5488 334.957 56.6113 335.242 56.6113C335.586 56.6113 335.883 56.5469 336.133 56.418C336.383 56.2891 336.576 56.0977 336.713 55.8438C336.854 55.5938 336.924 55.2852 336.924 54.918V50.0547L337.023 48.6602ZM332.658 51.9004V51.7773C332.658 51.293 332.715 50.8535 332.828 50.459C332.945 50.0605 333.111 49.7188 333.326 49.4336C333.545 49.1484 333.809 48.9297 334.117 48.7773C334.426 48.6211 334.773 48.543 335.16 48.543C335.559 48.543 335.906 48.6133 336.203 48.7539C336.504 48.8906 336.758 49.0918 336.965 49.3574C337.176 49.6191 337.342 49.9355 337.463 50.3066C337.584 50.6777 337.668 51.0977 337.715 51.5664V52.1055C337.672 52.5703 337.588 52.9883 337.463 53.3594C337.342 53.7305 337.176 54.0469 336.965 54.3086C336.758 54.5703 336.504 54.7715 336.203 54.9121C335.902 55.0488 335.551 55.1172 335.148 55.1172C334.77 55.1172 334.426 55.0371 334.117 54.877C333.812 54.7168 333.551 54.4922 333.332 54.2031C333.113 53.9141 332.945 53.5742 332.828 53.1836C332.715 52.7891 332.658 52.3613 332.658 51.9004ZM333.742 51.7773V51.9004C333.742 52.2168 333.773 52.5137 333.836 52.791C333.902 53.0684 334.002 53.3125 334.135 53.5234C334.271 53.7344 334.445 53.9004 334.656 54.0215C334.867 54.1387 335.119 54.1973 335.412 54.1973C335.771 54.1973 336.068 54.1211 336.303 53.9688C336.537 53.8164 336.723 53.6152 336.859 53.3652C337 53.1152 337.109 52.8438 337.188 52.5508V51.1387C337.145 50.9238 337.078 50.7168 336.988 50.5176C336.902 50.3145 336.789 50.1348 336.648 49.9785C336.512 49.8184 336.342 49.6914 336.139 49.5977C335.936 49.5039 335.697 49.457 335.424 49.457C335.127 49.457 334.871 49.5195 334.656 49.6445C334.445 49.7656 334.271 49.9336 334.135 50.1484C334.002 50.3594 333.902 50.6055 333.836 50.8867C333.773 51.1641 333.742 51.4609 333.742 51.7773ZM340.832 48.6602V55H339.742V48.6602H340.832ZM339.66 46.9785C339.66 46.8027 339.713 46.6543 339.818 46.5332C339.928 46.4121 340.088 46.3516 340.299 46.3516C340.506 46.3516 340.664 46.4121 340.773 46.5332C340.887 46.6543 340.943 46.8027 340.943 46.9785C340.943 47.1465 340.887 47.291 340.773 47.4121C340.664 47.5293 340.506 47.5879 340.299 47.5879C340.088 47.5879 339.928 47.5293 339.818 47.4121C339.713 47.291 339.66 47.1465 339.66 46.9785ZM346.264 53.3184C346.264 53.1621 346.229 53.0176 346.158 52.8848C346.092 52.748 345.953 52.625 345.742 52.5156C345.535 52.4023 345.223 52.3047 344.805 52.2227C344.453 52.1484 344.135 52.0605 343.85 51.959C343.568 51.8574 343.328 51.7344 343.129 51.5898C342.934 51.4453 342.783 51.2754 342.678 51.0801C342.572 50.8848 342.52 50.6562 342.52 50.3945C342.52 50.1445 342.574 49.9082 342.684 49.6855C342.797 49.4629 342.955 49.2656 343.158 49.0938C343.365 48.9219 343.613 48.7871 343.902 48.6895C344.191 48.5918 344.514 48.543 344.869 48.543C345.377 48.543 345.811 48.6328 346.17 48.8125C346.529 48.9922 346.805 49.2324 346.996 49.5332C347.188 49.8301 347.283 50.1602 347.283 50.5234H346.199C346.199 50.3477 346.146 50.1777 346.041 50.0137C345.939 49.8457 345.789 49.707 345.59 49.5977C345.395 49.4883 345.154 49.4336 344.869 49.4336C344.568 49.4336 344.324 49.4805 344.137 49.5742C343.953 49.6641 343.818 49.7793 343.732 49.9199C343.65 50.0605 343.609 50.209 343.609 50.3652C343.609 50.4824 343.629 50.5879 343.668 50.6816C343.711 50.7715 343.785 50.8555 343.891 50.9336C343.996 51.0078 344.145 51.0781 344.336 51.1445C344.527 51.2109 344.771 51.2773 345.068 51.3438C345.588 51.4609 346.016 51.6016 346.352 51.7656C346.688 51.9297 346.938 52.1309 347.102 52.3691C347.266 52.6074 347.348 52.8965 347.348 53.2363C347.348 53.5137 347.289 53.7676 347.172 53.998C347.059 54.2285 346.893 54.4277 346.674 54.5957C346.459 54.7598 346.201 54.8887 345.9 54.9824C345.604 55.0723 345.27 55.1172 344.898 55.1172C344.34 55.1172 343.867 55.0176 343.48 54.8184C343.094 54.6191 342.801 54.3613 342.602 54.0449C342.402 53.7285 342.303 53.3945 342.303 53.043H343.393C343.408 53.3398 343.494 53.5762 343.65 53.752C343.807 53.9238 343.998 54.0469 344.225 54.1211C344.451 54.1914 344.676 54.2266 344.898 54.2266C345.195 54.2266 345.443 54.1875 345.643 54.1094C345.846 54.0312 346 53.9238 346.105 53.7871C346.211 53.6504 346.264 53.4941 346.264 53.3184ZM349.861 46V55H348.771V46H349.861ZM353.734 48.6602L350.969 51.6191L349.422 53.2246L349.334 52.0703L350.441 50.7461L352.41 48.6602H353.734ZM352.744 55L350.482 51.9766L351.045 51.0098L354.021 55H352.744Z" fill="black"/>
<rect x="293" y="78" width="6" height="6" rx="3" fill="black"/>
<path d="M308.348 76.4688H309.443L312.238 83.4238L315.027 76.4688H316.129L312.66 85H311.805L308.348 76.4688ZM307.99 76.4688H308.957L309.115 81.6719V85H307.99V76.4688ZM315.514 76.4688H316.48V85H315.355V81.6719L315.514 76.4688ZM320.934 85.1172C320.492 85.1172 320.092 85.043 319.732 84.8945C319.377 84.7422 319.07 84.5293 318.812 84.2559C318.559 83.9824 318.363 83.6582 318.227 83.2832C318.09 82.9082 318.021 82.498 318.021 82.0527V81.8066C318.021 81.291 318.098 80.832 318.25 80.4297C318.402 80.0234 318.609 79.6797 318.871 79.3984C319.133 79.1172 319.43 78.9043 319.762 78.7598C320.094 78.6152 320.438 78.543 320.793 78.543C321.246 78.543 321.637 78.6211 321.965 78.7773C322.297 78.9336 322.568 79.1523 322.779 79.4336C322.99 79.7109 323.146 80.0391 323.248 80.418C323.35 80.793 323.4 81.2031 323.4 81.6484V82.1348H318.666V81.25H322.316V81.168C322.301 80.8867 322.242 80.6133 322.141 80.3477C322.043 80.082 321.887 79.8633 321.672 79.6914C321.457 79.5195 321.164 79.4336 320.793 79.4336C320.547 79.4336 320.32 79.4863 320.113 79.5918C319.906 79.6934 319.729 79.8457 319.58 80.0488C319.432 80.252 319.316 80.5 319.234 80.793C319.152 81.0859 319.111 81.4238 319.111 81.8066V82.0527C319.111 82.3535 319.152 82.6367 319.234 82.9023C319.32 83.1641 319.443 83.3945 319.604 83.5938C319.768 83.793 319.965 83.9492 320.195 84.0625C320.43 84.1758 320.695 84.2324 320.992 84.2324C321.375 84.2324 321.699 84.1543 321.965 83.998C322.23 83.8418 322.463 83.6328 322.662 83.3711L323.318 83.8926C323.182 84.0996 323.008 84.2969 322.797 84.4844C322.586 84.6719 322.326 84.8242 322.018 84.9414C321.713 85.0586 321.352 85.1172 320.934 85.1172ZM328.662 83.7695V76H329.752V85H328.756L328.662 83.7695ZM324.396 81.9004V81.7773C324.396 81.293 324.455 80.8535 324.572 80.459C324.693 80.0605 324.863 79.7188 325.082 79.4336C325.305 79.1484 325.568 78.9297 325.873 78.7773C326.182 78.6211 326.525 78.543 326.904 78.543C327.303 78.543 327.65 78.6133 327.947 78.7539C328.248 78.8906 328.502 79.0918 328.709 79.3574C328.92 79.6191 329.086 79.9355 329.207 80.3066C329.328 80.6777 329.412 81.0977 329.459 81.5664V82.1055C329.416 82.5703 329.332 82.9883 329.207 83.3594C329.086 83.7305 328.92 84.0469 328.709 84.3086C328.502 84.5703 328.248 84.7715 327.947 84.9121C327.646 85.0488 327.295 85.1172 326.893 85.1172C326.521 85.1172 326.182 85.0371 325.873 84.877C325.568 84.7168 325.305 84.4922 325.082 84.2031C324.863 83.9141 324.693 83.5742 324.572 83.1836C324.455 82.7891 324.396 82.3613 324.396 81.9004ZM325.486 81.7773V81.9004C325.486 82.2168 325.518 82.5137 325.58 82.791C325.646 83.0684 325.748 83.3125 325.885 83.5234C326.021 83.7344 326.195 83.9004 326.406 84.0215C326.617 84.1387 326.869 84.1973 327.162 84.1973C327.521 84.1973 327.816 84.1211 328.047 83.9688C328.281 83.8164 328.469 83.6152 328.609 83.3652C328.75 83.1152 328.859 82.8438 328.938 82.5508V81.1387C328.891 80.9238 328.822 80.7168 328.732 80.5176C328.646 80.3145 328.533 80.1348 328.393 79.9785C328.256 79.8184 328.086 79.6914 327.883 79.5977C327.684 79.5039 327.447 79.457 327.174 79.457C326.877 79.457 326.621 79.5195 326.406 79.6445C326.195 79.7656 326.021 79.9336 325.885 80.1484C325.748 80.3594 325.646 80.6055 325.58 80.8867C325.518 81.1641 325.486 81.4609 325.486 81.7773ZM332.617 78.6602V85H331.527V78.6602H332.617ZM331.445 76.9785C331.445 76.8027 331.498 76.6543 331.604 76.5332C331.713 76.4121 331.873 76.3516 332.084 76.3516C332.291 76.3516 332.449 76.4121 332.559 76.5332C332.672 76.6543 332.729 76.8027 332.729 76.9785C332.729 77.1465 332.672 77.291 332.559 77.4121C332.449 77.5293 332.291 77.5879 332.084 77.5879C331.873 77.5879 331.713 77.5293 331.604 77.4121C331.498 77.291 331.445 77.1465 331.445 76.9785ZM338.049 83.3184C338.049 83.1621 338.014 83.0176 337.943 82.8848C337.877 82.748 337.738 82.625 337.527 82.5156C337.32 82.4023 337.008 82.3047 336.59 82.2227C336.238 82.1484 335.92 82.0605 335.635 81.959C335.354 81.8574 335.113 81.7344 334.914 81.5898C334.719 81.4453 334.568 81.2754 334.463 81.0801C334.357 80.8848 334.305 80.6562 334.305 80.3945C334.305 80.1445 334.359 79.9082 334.469 79.6855C334.582 79.4629 334.74 79.2656 334.943 79.0938C335.15 78.9219 335.398 78.7871 335.688 78.6895C335.977 78.5918 336.299 78.543 336.654 78.543C337.162 78.543 337.596 78.6328 337.955 78.8125C338.314 78.9922 338.59 79.2324 338.781 79.5332C338.973 79.8301 339.068 80.1602 339.068 80.5234H337.984C337.984 80.3477 337.932 80.1777 337.826 80.0137C337.725 79.8457 337.574 79.707 337.375 79.5977C337.18 79.4883 336.939 79.4336 336.654 79.4336C336.354 79.4336 336.109 79.4805 335.922 79.5742C335.738 79.6641 335.604 79.7793 335.518 79.9199C335.436 80.0605 335.395 80.209 335.395 80.3652C335.395 80.4824 335.414 80.5879 335.453 80.6816C335.496 80.7715 335.57 80.8555 335.676 80.9336C335.781 81.0078 335.93 81.0781 336.121 81.1445C336.312 81.2109 336.557 81.2773 336.854 81.3438C337.373 81.4609 337.801 81.6016 338.137 81.7656C338.473 81.9297 338.723 82.1309 338.887 82.3691C339.051 82.6074 339.133 82.8965 339.133 83.2363C339.133 83.5137 339.074 83.7676 338.957 83.998C338.844 84.2285 338.678 84.4277 338.459 84.5957C338.244 84.7598 337.986 84.8887 337.686 84.9824C337.389 85.0723 337.055 85.1172 336.684 85.1172C336.125 85.1172 335.652 85.0176 335.266 84.8184C334.879 84.6191 334.586 84.3613 334.387 84.0449C334.188 83.7285 334.088 83.3945 334.088 83.043H335.178C335.193 83.3398 335.279 83.5762 335.436 83.752C335.592 83.9238 335.783 84.0469 336.01 84.1211C336.236 84.1914 336.461 84.2266 336.684 84.2266C336.98 84.2266 337.229 84.1875 337.428 84.1094C337.631 84.0312 337.785 83.9238 337.891 83.7871C337.996 83.6504 338.049 83.4941 338.049 83.3184ZM341.734 78.6602V85H340.645V78.6602H341.734ZM340.562 76.9785C340.562 76.8027 340.615 76.6543 340.721 76.5332C340.83 76.4121 340.99 76.3516 341.201 76.3516C341.408 76.3516 341.566 76.4121 341.676 76.5332C341.789 76.6543 341.846 76.8027 341.846 76.9785C341.846 77.1465 341.789 77.291 341.676 77.4121C341.566 77.5293 341.408 77.5879 341.201 77.5879C340.99 77.5879 340.83 77.5293 340.721 77.4121C340.615 77.291 340.562 77.1465 340.562 76.9785ZM344.559 80.0137V85H343.475V78.6602H344.5L344.559 80.0137ZM344.301 81.5898L343.85 81.5723C343.854 81.1387 343.918 80.7383 344.043 80.3711C344.168 80 344.344 79.6777 344.57 79.4043C344.797 79.1309 345.066 78.9199 345.379 78.7715C345.695 78.6191 346.045 78.543 346.428 78.543C346.74 78.543 347.021 78.5859 347.271 78.6719C347.521 78.7539 347.734 78.8867 347.91 79.0703C348.09 79.2539 348.227 79.4922 348.32 79.7852C348.414 80.0742 348.461 80.4277 348.461 80.8457V85H347.371V80.834C347.371 80.502 347.322 80.2363 347.225 80.0371C347.127 79.834 346.984 79.6875 346.797 79.5977C346.609 79.5039 346.379 79.457 346.105 79.457C345.836 79.457 345.59 79.5137 345.367 79.627C345.148 79.7402 344.959 79.8965 344.799 80.0957C344.643 80.2949 344.52 80.5234 344.43 80.7812C344.344 81.0352 344.301 81.3047 344.301 81.5898ZM353.799 83.3184C353.799 83.1621 353.764 83.0176 353.693 82.8848C353.627 82.748 353.488 82.625 353.277 82.5156C353.07 82.4023 352.758 82.3047 352.34 82.2227C351.988 82.1484 351.67 82.0605 351.385 81.959C351.104 81.8574 350.863 81.7344 350.664 81.5898C350.469 81.4453 350.318 81.2754 350.213 81.0801C350.107 80.8848 350.055 80.6562 350.055 80.3945C350.055 80.1445 350.109 79.9082 350.219 79.6855C350.332 79.4629 350.49 79.2656 350.693 79.0938C350.9 78.9219 351.148 78.7871 351.438 78.6895C351.727 78.5918 352.049 78.543 352.404 78.543C352.912 78.543 353.346 78.6328 353.705 78.8125C354.064 78.9922 354.34 79.2324 354.531 79.5332C354.723 79.8301 354.818 80.1602 354.818 80.5234H353.734C353.734 80.3477 353.682 80.1777 353.576 80.0137C353.475 79.8457 353.324 79.707 353.125 79.5977C352.93 79.4883 352.689 79.4336 352.404 79.4336C352.104 79.4336 351.859 79.4805 351.672 79.5742C351.488 79.6641 351.354 79.7793 351.268 79.9199C351.186 80.0605 351.145 80.209 351.145 80.3652C351.145 80.4824 351.164 80.5879 351.203 80.6816C351.246 80.7715 351.32 80.8555 351.426 80.9336C351.531 81.0078 351.68 81.0781 351.871 81.1445C352.062 81.2109 352.307 81.2773 352.604 81.3438C353.123 81.4609 353.551 81.6016 353.887 81.7656C354.223 81.9297 354.473 82.1309 354.637 82.3691C354.801 82.6074 354.883 82.8965 354.883 83.2363C354.883 83.5137 354.824 83.7676 354.707 83.998C354.594 84.2285 354.428 84.4277 354.209 84.5957C353.994 84.7598 353.736 84.8887 353.436 84.9824C353.139 85.0723 352.805 85.1172 352.434 85.1172C351.875 85.1172 351.402 85.0176 351.016 84.8184C350.629 84.6191 350.336 84.3613 350.137 84.0449C349.938 83.7285 349.838 83.3945 349.838 83.043H350.928C350.943 83.3398 351.029 83.5762 351.186 83.752C351.342 83.9238 351.533 84.0469 351.76 84.1211C351.986 84.1914 352.211 84.2266 352.434 84.2266C352.73 84.2266 352.979 84.1875 353.178 84.1094C353.381 84.0312 353.535 83.9238 353.641 83.7871C353.746 83.6504 353.799 83.4941 353.799 83.3184ZM357.396 76V85H356.307V76H357.396ZM361.27 78.6602L358.504 81.6191L356.957 83.2246L356.869 82.0703L357.977 80.7461L359.945 78.6602H361.27ZM360.279 85L358.018 81.9766L358.58 81.0098L361.557 85H360.279Z" fill="black"/>
<path d="M291 1.5H351V0.5H291V1.5ZM370.5 21V83H371.5V21H370.5ZM351 102.5H291V103.5H351V102.5ZM271.5 83V21H270.5V83H271.5ZM291 102.5C280.23 102.5 271.5 93.7696 271.5 83H270.5C270.5 94.3218 279.678 103.5 291 103.5V102.5ZM370.5 83C370.5 93.7696 361.77 102.5 351 102.5V103.5C362.322 103.5 371.5 94.3218 371.5 83H370.5ZM351 1.5C361.77 1.5 370.5 10.2304 370.5 21H371.5C371.5 9.67816 362.322 0.5 351 0.5V1.5ZM291 0.5C279.678 0.5 270.5 9.67816 270.5 21H271.5C271.5 10.2304 280.23 1.5 291 1.5V0.5Z" fill="black"/>
<path d="M152.78 198.959H150.606V197.588H152.78C153.116 197.588 153.389 197.533 153.6 197.424C153.811 197.311 153.965 197.154 154.063 196.955C154.16 196.756 154.209 196.531 154.209 196.281C154.209 196.027 154.16 195.791 154.063 195.572C153.965 195.354 153.811 195.178 153.6 195.045C153.389 194.912 153.116 194.846 152.78 194.846H151.215V202H149.457V193.469H152.78C153.448 193.469 154.02 193.59 154.496 193.832C154.977 194.07 155.344 194.4 155.598 194.822C155.852 195.244 155.979 195.727 155.979 196.27C155.979 196.82 155.852 197.297 155.598 197.699C155.344 198.102 154.977 198.412 154.496 198.631C154.02 198.85 153.448 198.959 152.78 198.959ZM160.438 200.57V197.746C160.438 197.543 160.405 197.369 160.338 197.225C160.272 197.076 160.168 196.961 160.028 196.879C159.891 196.797 159.713 196.756 159.494 196.756C159.307 196.756 159.145 196.789 159.008 196.855C158.871 196.918 158.766 197.01 158.692 197.131C158.618 197.248 158.58 197.387 158.58 197.547H156.893C156.893 197.277 156.955 197.021 157.08 196.779C157.205 196.537 157.387 196.324 157.625 196.141C157.864 195.953 158.147 195.807 158.475 195.701C158.807 195.596 159.178 195.543 159.588 195.543C160.08 195.543 160.518 195.625 160.901 195.789C161.284 195.953 161.584 196.199 161.803 196.527C162.026 196.855 162.137 197.266 162.137 197.758V200.471C162.137 200.818 162.159 201.104 162.202 201.326C162.244 201.545 162.307 201.736 162.389 201.9V202H160.684C160.602 201.828 160.539 201.613 160.496 201.355C160.457 201.094 160.438 200.832 160.438 200.57ZM160.66 198.139L160.672 199.094H159.729C159.506 199.094 159.313 199.119 159.149 199.17C158.985 199.221 158.85 199.293 158.744 199.387C158.639 199.477 158.561 199.582 158.51 199.703C158.463 199.824 158.44 199.957 158.44 200.102C158.44 200.246 158.473 200.377 158.539 200.494C158.606 200.607 158.702 200.697 158.827 200.764C158.952 200.826 159.098 200.857 159.266 200.857C159.52 200.857 159.741 200.807 159.928 200.705C160.116 200.604 160.26 200.479 160.362 200.33C160.467 200.182 160.522 200.041 160.526 199.908L160.971 200.623C160.909 200.783 160.823 200.949 160.713 201.121C160.608 201.293 160.473 201.455 160.309 201.607C160.145 201.756 159.948 201.879 159.717 201.977C159.487 202.07 159.213 202.117 158.897 202.117C158.494 202.117 158.129 202.037 157.801 201.877C157.477 201.713 157.219 201.488 157.028 201.203C156.84 200.914 156.746 200.586 156.746 200.219C156.746 199.887 156.809 199.592 156.934 199.334C157.059 199.076 157.243 198.859 157.485 198.684C157.731 198.504 158.037 198.369 158.405 198.279C158.772 198.186 159.198 198.139 159.682 198.139H160.66ZM166.866 200.248C166.866 200.127 166.83 200.018 166.76 199.92C166.69 199.822 166.559 199.732 166.368 199.65C166.18 199.564 165.909 199.486 165.553 199.416C165.233 199.346 164.934 199.258 164.657 199.152C164.383 199.043 164.145 198.912 163.942 198.76C163.743 198.607 163.586 198.428 163.473 198.221C163.36 198.01 163.303 197.77 163.303 197.5C163.303 197.234 163.36 196.984 163.473 196.75C163.59 196.516 163.756 196.309 163.971 196.129C164.19 195.945 164.455 195.803 164.768 195.701C165.084 195.596 165.44 195.543 165.834 195.543C166.385 195.543 166.858 195.631 167.252 195.807C167.651 195.982 167.955 196.225 168.166 196.533C168.381 196.838 168.489 197.186 168.489 197.576H166.801C166.801 197.412 166.766 197.266 166.696 197.137C166.629 197.004 166.524 196.9 166.379 196.826C166.239 196.748 166.055 196.709 165.828 196.709C165.641 196.709 165.479 196.742 165.342 196.809C165.205 196.871 165.1 196.957 165.026 197.066C164.955 197.172 164.92 197.289 164.92 197.418C164.92 197.516 164.94 197.604 164.979 197.682C165.022 197.756 165.09 197.824 165.184 197.887C165.278 197.949 165.399 198.008 165.547 198.062C165.7 198.113 165.887 198.16 166.11 198.203C166.567 198.297 166.975 198.42 167.334 198.572C167.694 198.721 167.979 198.924 168.19 199.182C168.401 199.436 168.506 199.77 168.506 200.184C168.506 200.465 168.444 200.723 168.319 200.957C168.194 201.191 168.014 201.396 167.78 201.572C167.545 201.744 167.264 201.879 166.936 201.977C166.612 202.07 166.246 202.117 165.84 202.117C165.25 202.117 164.75 202.012 164.34 201.801C163.934 201.59 163.625 201.322 163.414 200.998C163.207 200.67 163.104 200.334 163.104 199.99H164.703C164.711 200.221 164.77 200.406 164.879 200.547C164.993 200.688 165.135 200.789 165.307 200.852C165.483 200.914 165.672 200.945 165.875 200.945C166.094 200.945 166.276 200.916 166.42 200.857C166.565 200.795 166.674 200.713 166.748 200.611C166.827 200.506 166.866 200.385 166.866 200.248ZM171.383 195.66V202H169.69V195.66H171.383ZM169.584 194.008C169.584 193.762 169.67 193.559 169.842 193.398C170.014 193.238 170.244 193.158 170.534 193.158C170.819 193.158 171.047 193.238 171.219 193.398C171.395 193.559 171.483 193.762 171.483 194.008C171.483 194.254 171.395 194.457 171.219 194.617C171.047 194.777 170.819 194.857 170.534 194.857C170.244 194.857 170.014 194.777 169.842 194.617C169.67 194.457 169.584 194.254 169.584 194.008ZM175.696 202.117C175.203 202.117 174.762 202.039 174.371 201.883C173.981 201.723 173.649 201.502 173.375 201.221C173.106 200.939 172.899 200.613 172.754 200.242C172.61 199.867 172.537 199.469 172.537 199.047V198.812C172.537 198.332 172.606 197.893 172.743 197.494C172.879 197.096 173.075 196.75 173.328 196.457C173.586 196.164 173.899 195.939 174.266 195.783C174.633 195.623 175.047 195.543 175.508 195.543C175.957 195.543 176.356 195.617 176.703 195.766C177.051 195.914 177.342 196.125 177.577 196.398C177.815 196.672 177.994 197 178.116 197.383C178.237 197.762 178.297 198.184 178.297 198.648V199.352H173.258V198.227H176.639V198.098C176.639 197.863 176.596 197.654 176.51 197.471C176.428 197.283 176.303 197.135 176.135 197.025C175.967 196.916 175.752 196.861 175.491 196.861C175.268 196.861 175.077 196.91 174.916 197.008C174.756 197.105 174.625 197.242 174.524 197.418C174.426 197.594 174.352 197.801 174.301 198.039C174.254 198.273 174.231 198.531 174.231 198.812V199.047C174.231 199.301 174.266 199.535 174.336 199.75C174.41 199.965 174.514 200.15 174.647 200.307C174.784 200.463 174.948 200.584 175.139 200.67C175.334 200.756 175.555 200.799 175.801 200.799C176.106 200.799 176.389 200.74 176.651 200.623C176.916 200.502 177.145 200.32 177.336 200.078L178.157 200.969C178.024 201.16 177.842 201.344 177.612 201.52C177.385 201.695 177.112 201.84 176.791 201.953C176.471 202.062 176.106 202.117 175.696 202.117ZM180.91 197.014V202H179.223V195.66H180.805L180.91 197.014ZM180.664 198.607H180.207C180.207 198.139 180.268 197.717 180.389 197.342C180.51 196.963 180.68 196.641 180.899 196.375C181.118 196.105 181.377 195.9 181.678 195.76C181.983 195.615 182.323 195.543 182.698 195.543C182.994 195.543 183.266 195.586 183.512 195.672C183.758 195.758 183.969 195.895 184.145 196.082C184.325 196.27 184.461 196.518 184.555 196.826C184.653 197.135 184.702 197.512 184.702 197.957V202H183.002V197.951C183.002 197.67 182.963 197.451 182.885 197.295C182.807 197.139 182.692 197.029 182.539 196.967C182.391 196.9 182.207 196.867 181.989 196.867C181.762 196.867 181.565 196.912 181.397 197.002C181.233 197.092 181.096 197.217 180.987 197.377C180.881 197.533 180.801 197.717 180.746 197.928C180.692 198.139 180.664 198.365 180.664 198.607ZM189.09 195.66V196.855H185.399V195.66H189.09ZM186.313 194.096H188V200.09C188 200.273 188.024 200.414 188.071 200.512C188.121 200.609 188.196 200.678 188.293 200.717C188.391 200.752 188.514 200.77 188.662 200.77C188.768 200.77 188.862 200.766 188.944 200.758C189.03 200.746 189.102 200.734 189.16 200.723L189.166 201.965C189.022 202.012 188.866 202.049 188.698 202.076C188.53 202.104 188.344 202.117 188.141 202.117C187.77 202.117 187.446 202.057 187.168 201.936C186.895 201.811 186.684 201.611 186.535 201.338C186.387 201.064 186.313 200.705 186.313 200.26V194.096Z" fill="black"/>
<rect x="162" y="224" width="6" height="6" rx="3" fill="black"/>
<path d="M180.137 227.654H177.857V226.734H180.137C180.578 226.734 180.936 226.664 181.209 226.523C181.482 226.383 181.682 226.188 181.807 225.938C181.936 225.688 182 225.402 182 225.082C182 224.789 181.936 224.514 181.807 224.256C181.682 223.998 181.482 223.791 181.209 223.635C180.936 223.475 180.578 223.395 180.137 223.395H178.121V231H176.99V222.469H180.137C180.781 222.469 181.326 222.58 181.771 222.803C182.217 223.025 182.555 223.334 182.785 223.729C183.016 224.119 183.131 224.566 183.131 225.07C183.131 225.617 183.016 226.084 182.785 226.471C182.555 226.857 182.217 227.152 181.771 227.355C181.326 227.555 180.781 227.654 180.137 227.654ZM188.064 229.916V226.652C188.064 226.402 188.014 226.186 187.912 226.002C187.814 225.814 187.666 225.67 187.467 225.568C187.268 225.467 187.021 225.416 186.729 225.416C186.455 225.416 186.215 225.463 186.008 225.557C185.805 225.65 185.645 225.773 185.527 225.926C185.414 226.078 185.357 226.242 185.357 226.418H184.273C184.273 226.191 184.332 225.967 184.449 225.744C184.566 225.521 184.734 225.32 184.953 225.141C185.176 224.957 185.441 224.812 185.75 224.707C186.062 224.598 186.41 224.543 186.793 224.543C187.254 224.543 187.66 224.621 188.012 224.777C188.367 224.934 188.645 225.17 188.844 225.486C189.047 225.799 189.148 226.191 189.148 226.664V229.617C189.148 229.828 189.166 230.053 189.201 230.291C189.24 230.529 189.297 230.734 189.371 230.906V231H188.24C188.186 230.875 188.143 230.709 188.111 230.502C188.08 230.291 188.064 230.096 188.064 229.916ZM188.252 227.156L188.264 227.918H187.168C186.859 227.918 186.584 227.943 186.342 227.994C186.1 228.041 185.896 228.113 185.732 228.211C185.568 228.309 185.443 228.432 185.357 228.58C185.271 228.725 185.229 228.895 185.229 229.09C185.229 229.289 185.273 229.471 185.363 229.635C185.453 229.799 185.588 229.93 185.768 230.027C185.951 230.121 186.176 230.168 186.441 230.168C186.773 230.168 187.066 230.098 187.32 229.957C187.574 229.816 187.775 229.645 187.924 229.441C188.076 229.238 188.158 229.041 188.17 228.85L188.633 229.371C188.605 229.535 188.531 229.717 188.41 229.916C188.289 230.115 188.127 230.307 187.924 230.49C187.725 230.67 187.486 230.82 187.209 230.941C186.936 231.059 186.627 231.117 186.283 231.117C185.854 231.117 185.477 231.033 185.152 230.865C184.832 230.697 184.582 230.473 184.402 230.191C184.227 229.906 184.139 229.588 184.139 229.236C184.139 228.896 184.205 228.598 184.338 228.34C184.471 228.078 184.662 227.861 184.912 227.689C185.162 227.514 185.463 227.381 185.814 227.291C186.166 227.201 186.559 227.156 186.992 227.156H188.252ZM194.545 229.318C194.545 229.162 194.51 229.018 194.439 228.885C194.373 228.748 194.234 228.625 194.023 228.516C193.816 228.402 193.504 228.305 193.086 228.223C192.734 228.148 192.416 228.061 192.131 227.959C191.85 227.857 191.609 227.734 191.41 227.59C191.215 227.445 191.064 227.275 190.959 227.08C190.854 226.885 190.801 226.656 190.801 226.395C190.801 226.145 190.855 225.908 190.965 225.686C191.078 225.463 191.236 225.266 191.439 225.094C191.646 224.922 191.895 224.787 192.184 224.689C192.473 224.592 192.795 224.543 193.15 224.543C193.658 224.543 194.092 224.633 194.451 224.812C194.811 224.992 195.086 225.232 195.277 225.533C195.469 225.83 195.564 226.16 195.564 226.523H194.48C194.48 226.348 194.428 226.178 194.322 226.014C194.221 225.846 194.07 225.707 193.871 225.598C193.676 225.488 193.436 225.434 193.15 225.434C192.85 225.434 192.605 225.48 192.418 225.574C192.234 225.664 192.1 225.779 192.014 225.92C191.932 226.061 191.891 226.209 191.891 226.365C191.891 226.482 191.91 226.588 191.949 226.682C191.992 226.771 192.066 226.855 192.172 226.934C192.277 227.008 192.426 227.078 192.617 227.145C192.809 227.211 193.053 227.277 193.35 227.344C193.869 227.461 194.297 227.602 194.633 227.766C194.969 227.93 195.219 228.131 195.383 228.369C195.547 228.607 195.629 228.896 195.629 229.236C195.629 229.514 195.57 229.768 195.453 229.998C195.34 230.229 195.174 230.428 194.955 230.596C194.74 230.76 194.482 230.889 194.182 230.982C193.885 231.072 193.551 231.117 193.18 231.117C192.621 231.117 192.148 231.018 191.762 230.818C191.375 230.619 191.082 230.361 190.883 230.045C190.684 229.729 190.584 229.395 190.584 229.043H191.674C191.689 229.34 191.775 229.576 191.932 229.752C192.088 229.924 192.279 230.047 192.506 230.121C192.732 230.191 192.957 230.227 193.18 230.227C193.477 230.227 193.725 230.188 193.924 230.109C194.127 230.031 194.281 229.924 194.387 229.787C194.492 229.65 194.545 229.494 194.545 229.318ZM199.309 226.928V227.818H196.449V226.928H199.309ZM203.814 222.422V231H202.73V223.775L200.545 224.572V223.594L203.645 222.422H203.814Z" fill="black"/>
<rect x="162" y="254" width="6" height="6" rx="3" fill="black"/>
<path d="M180.137 257.654H177.857V256.734H180.137C180.578 256.734 180.936 256.664 181.209 256.523C181.482 256.383 181.682 256.188 181.807 255.938C181.936 255.688 182 255.402 182 255.082C182 254.789 181.936 254.514 181.807 254.256C181.682 253.998 181.482 253.791 181.209 253.635C180.936 253.475 180.578 253.395 180.137 253.395H178.121V261H176.99V252.469H180.137C180.781 252.469 181.326 252.58 181.771 252.803C182.217 253.025 182.555 253.334 182.785 253.729C183.016 254.119 183.131 254.566 183.131 255.07C183.131 255.617 183.016 256.084 182.785 256.471C182.555 256.857 182.217 257.152 181.771 257.355C181.326 257.555 180.781 257.654 180.137 257.654ZM188.064 259.916V256.652C188.064 256.402 188.014 256.186 187.912 256.002C187.814 255.814 187.666 255.67 187.467 255.568C187.268 255.467 187.021 255.416 186.729 255.416C186.455 255.416 186.215 255.463 186.008 255.557C185.805 255.65 185.645 255.773 185.527 255.926C185.414 256.078 185.357 256.242 185.357 256.418H184.273C184.273 256.191 184.332 255.967 184.449 255.744C184.566 255.521 184.734 255.32 184.953 255.141C185.176 254.957 185.441 254.812 185.75 254.707C186.062 254.598 186.41 254.543 186.793 254.543C187.254 254.543 187.66 254.621 188.012 254.777C188.367 254.934 188.645 255.17 188.844 255.486C189.047 255.799 189.148 256.191 189.148 256.664V259.617C189.148 259.828 189.166 260.053 189.201 260.291C189.24 260.529 189.297 260.734 189.371 260.906V261H188.24C188.186 260.875 188.143 260.709 188.111 260.502C188.08 260.291 188.064 260.096 188.064 259.916ZM188.252 257.156L188.264 257.918H187.168C186.859 257.918 186.584 257.943 186.342 257.994C186.1 258.041 185.896 258.113 185.732 258.211C185.568 258.309 185.443 258.432 185.357 258.58C185.271 258.725 185.229 258.895 185.229 259.09C185.229 259.289 185.273 259.471 185.363 259.635C185.453 259.799 185.588 259.93 185.768 260.027C185.951 260.121 186.176 260.168 186.441 260.168C186.773 260.168 187.066 260.098 187.32 259.957C187.574 259.816 187.775 259.645 187.924 259.441C188.076 259.238 188.158 259.041 188.17 258.85L188.633 259.371C188.605 259.535 188.531 259.717 188.41 259.916C188.289 260.115 188.127 260.307 187.924 260.49C187.725 260.67 187.486 260.82 187.209 260.941C186.936 261.059 186.627 261.117 186.283 261.117C185.854 261.117 185.477 261.033 185.152 260.865C184.832 260.697 184.582 260.473 184.402 260.191C184.227 259.906 184.139 259.588 184.139 259.236C184.139 258.896 184.205 258.598 184.338 258.34C184.471 258.078 184.662 257.861 184.912 257.689C185.162 257.514 185.463 257.381 185.814 257.291C186.166 257.201 186.559 257.156 186.992 257.156H188.252ZM194.545 259.318C194.545 259.162 194.51 259.018 194.439 258.885C194.373 258.748 194.234 258.625 194.023 258.516C193.816 258.402 193.504 258.305 193.086 258.223C192.734 258.148 192.416 258.061 192.131 257.959C191.85 257.857 191.609 257.734 191.41 257.59C191.215 257.445 191.064 257.275 190.959 257.08C190.854 256.885 190.801 256.656 190.801 256.395C190.801 256.145 190.855 255.908 190.965 255.686C191.078 255.463 191.236 255.266 191.439 255.094C191.646 254.922 191.895 254.787 192.184 254.689C192.473 254.592 192.795 254.543 193.15 254.543C193.658 254.543 194.092 254.633 194.451 254.812C194.811 254.992 195.086 255.232 195.277 255.533C195.469 255.83 195.564 256.16 195.564 256.523H194.48C194.48 256.348 194.428 256.178 194.322 256.014C194.221 255.846 194.07 255.707 193.871 255.598C193.676 255.488 193.436 255.434 193.15 255.434C192.85 255.434 192.605 255.48 192.418 255.574C192.234 255.664 192.1 255.779 192.014 255.92C191.932 256.061 191.891 256.209 191.891 256.365C191.891 256.482 191.91 256.588 191.949 256.682C191.992 256.771 192.066 256.855 192.172 256.934C192.277 257.008 192.426 257.078 192.617 257.145C192.809 257.211 193.053 257.277 193.35 257.344C193.869 257.461 194.297 257.602 194.633 257.766C194.969 257.93 195.219 258.131 195.383 258.369C195.547 258.607 195.629 258.896 195.629 259.236C195.629 259.514 195.57 259.768 195.453 259.998C195.34 260.229 195.174 260.428 194.955 260.596C194.74 260.76 194.482 260.889 194.182 260.982C193.885 261.072 193.551 261.117 193.18 261.117C192.621 261.117 192.148 261.018 191.762 260.818C191.375 260.619 191.082 260.361 190.883 260.045C190.684 259.729 190.584 259.395 190.584 259.043H191.674C191.689 259.34 191.775 259.576 191.932 259.752C192.088 259.924 192.279 260.047 192.506 260.121C192.732 260.191 192.957 260.227 193.18 260.227C193.477 260.227 193.725 260.188 193.924 260.109C194.127 260.031 194.281 259.924 194.387 259.787C194.492 259.65 194.545 259.494 194.545 259.318ZM199.309 256.928V257.818H196.449V256.928H199.309ZM205.842 260.109V261H200.258V260.221L203.053 257.109C203.396 256.727 203.662 256.402 203.85 256.137C204.041 255.867 204.174 255.627 204.248 255.416C204.326 255.201 204.365 254.982 204.365 254.76C204.365 254.479 204.307 254.225 204.189 253.998C204.076 253.768 203.908 253.584 203.686 253.447C203.463 253.311 203.193 253.242 202.877 253.242C202.498 253.242 202.182 253.316 201.928 253.465C201.678 253.609 201.49 253.812 201.365 254.074C201.24 254.336 201.178 254.637 201.178 254.977H200.094C200.094 254.496 200.199 254.057 200.41 253.658C200.621 253.26 200.934 252.943 201.348 252.709C201.762 252.471 202.271 252.352 202.877 252.352C203.416 252.352 203.877 252.447 204.26 252.639C204.643 252.826 204.936 253.092 205.139 253.436C205.346 253.775 205.449 254.174 205.449 254.631C205.449 254.881 205.406 255.135 205.32 255.393C205.238 255.646 205.123 255.9 204.975 256.154C204.83 256.408 204.66 256.658 204.465 256.904C204.273 257.15 204.068 257.393 203.85 257.631L201.564 260.109H205.842Z" fill="black"/>
<path d="M160 177.5H220V176.5H160V177.5ZM239.5 197V259H240.5V197H239.5ZM220 278.5H160V279.5H220V278.5ZM140.5 259V197H139.5V259H140.5ZM160 278.5C149.23 278.5 140.5 269.77 140.5 259H139.5C139.5 270.322 148.678 279.5 160 279.5V278.5ZM239.5 259C239.5 269.77 230.77 278.5 220 278.5V279.5C231.322 279.5 240.5 270.322 240.5 259H239.5ZM220 177.5C230.77 177.5 239.5 186.23 239.5 197H240.5C240.5 185.678 231.322 176.5 220 176.5V177.5ZM160 176.5C148.678 176.5 139.5 185.678 139.5 197H140.5C140.5 186.23 149.23 177.5 160 177.5V176.5Z" fill="black"/>
</svg>
