<svg width="350" height="345" viewBox="0 0 350 345" fill="none" xmlns="http://www.w3.org/2000/svg">
<path fill-rule="evenodd" clip-rule="evenodd" d="M271.798 154.44L150.356 277.351L150.022 277.69L149.667 277.373L75.167 210.873L75.833 210.127L149.978 276.31L265.94 158.946L150.305 247.896L149.977 248.148L149.668 247.874L74.6683 181.374L75.3317 180.626L150.023 246.852L271.134 153.689L273.644 151.149L274.356 151.851L273.594 152.622L273.805 152.896L271.798 154.44ZM274.305 212.396L150.305 307.896L149.978 308.148L149.668 307.874L74.6683 241.374L75.3317 240.626L150.022 306.852L273.695 211.604L274.305 212.396Z" fill="#0066FF"/>
<path fill-rule="evenodd" clip-rule="evenodd" d="M149.783 65.5876L149.417 65.3366L149.124 65.6704L74.624 150.67L75.376 151.33L149.583 66.6634L273.217 151.412L273.783 150.588L149.783 65.5876ZM150.285 95.5891L149.861 95.2954L149.581 95.7277L74.5807 211.228L75.4193 211.772L150.139 96.7046L269.133 179.233L150.207 125.045L149.814 124.866L149.58 125.229L74.5801 241.229L75.4199 241.771L150.186 126.134L273.793 182.455L274.285 181.589L150.285 95.5891Z" fill="#FF007A"/>
<path d="M137.727 37.0098H135.565L135.553 36.1016H137.516C137.84 36.1016 138.123 36.0469 138.366 35.9375C138.608 35.8281 138.795 35.6719 138.928 35.4688C139.065 35.2617 139.133 35.0156 139.133 34.7305C139.133 34.418 139.073 34.1641 138.952 33.9688C138.834 33.7695 138.653 33.625 138.407 33.5352C138.164 33.4414 137.856 33.3945 137.481 33.3945H135.817V41H134.686V32.4688H137.481C137.918 32.4688 138.309 32.5137 138.653 32.6035C138.996 32.6895 139.287 32.8262 139.526 33.0137C139.768 33.1973 139.952 33.4316 140.077 33.7168C140.202 34.002 140.264 34.3438 140.264 34.7422C140.264 35.0938 140.174 35.4121 139.994 35.6973C139.815 35.9785 139.565 36.209 139.244 36.3887C138.928 36.5684 138.557 36.6836 138.131 36.7344L137.727 37.0098ZM137.674 41H135.119L135.758 40.0801H137.674C138.034 40.0801 138.338 40.0176 138.588 39.8926C138.842 39.7676 139.035 39.5918 139.168 39.3652C139.301 39.1348 139.368 38.8633 139.368 38.5508C139.368 38.2344 139.311 37.9609 139.198 37.7305C139.084 37.5 138.907 37.3223 138.664 37.1973C138.422 37.0723 138.11 37.0098 137.727 37.0098H136.116L136.127 36.1016H138.33L138.571 36.4297C138.981 36.4648 139.328 36.582 139.614 36.7812C139.899 36.9766 140.116 37.2266 140.264 37.5312C140.416 37.8359 140.493 38.1719 140.493 38.5391C140.493 39.0703 140.375 39.5195 140.141 39.8867C139.91 40.25 139.584 40.5273 139.162 40.7188C138.741 40.9062 138.244 41 137.674 41ZM143.176 34.6602V41H142.086V34.6602H143.176ZM142.004 32.9785C142.004 32.8027 142.057 32.6543 142.162 32.5332C142.272 32.4121 142.432 32.3516 142.643 32.3516C142.85 32.3516 143.008 32.4121 143.118 32.5332C143.231 32.6543 143.287 32.8027 143.287 32.9785C143.287 33.1465 143.231 33.291 143.118 33.4121C143.008 33.5293 142.85 33.5879 142.643 33.5879C142.432 33.5879 142.272 33.5293 142.162 33.4121C142.057 33.291 142.004 33.1465 142.004 32.9785ZM147.571 34.6602V35.4922H144.143V34.6602H147.571ZM145.303 33.1191H146.387V39.4297C146.387 39.6445 146.42 39.8066 146.487 39.916C146.553 40.0254 146.639 40.0977 146.744 40.1328C146.85 40.168 146.963 40.1855 147.084 40.1855C147.174 40.1855 147.268 40.1777 147.366 40.1621C147.467 40.1426 147.543 40.127 147.594 40.1152L147.6 41C147.514 41.0273 147.401 41.0527 147.26 41.0762C147.123 41.1035 146.957 41.1172 146.762 41.1172C146.496 41.1172 146.252 41.0645 146.03 40.959C145.807 40.8535 145.629 40.6777 145.496 40.4316C145.368 40.1816 145.303 39.8457 145.303 39.4238V33.1191ZM151.496 34.6602V35.4922H148.069V34.6602H151.496ZM149.229 33.1191H150.313V39.4297C150.313 39.6445 150.346 39.8066 150.412 39.916C150.479 40.0254 150.565 40.0977 150.67 40.1328C150.776 40.168 150.889 40.1855 151.01 40.1855C151.1 40.1855 151.194 40.1777 151.291 40.1621C151.393 40.1426 151.469 40.127 151.52 40.1152L151.526 41C151.44 41.0273 151.327 41.0527 151.186 41.0762C151.049 41.1035 150.883 41.1172 150.688 41.1172C150.422 41.1172 150.178 41.0645 149.955 40.959C149.733 40.8535 149.555 40.6777 149.422 40.4316C149.293 40.1816 149.229 39.8457 149.229 39.4238V33.1191ZM156.09 33.2246L153.266 41H152.112L155.364 32.4688H156.108L156.09 33.2246ZM158.457 41L155.627 33.2246L155.61 32.4688H156.354L159.618 41H158.457ZM158.311 37.8418V38.7676H153.518V37.8418H158.311ZM162.231 40.0215L163.965 34.6602H165.073L162.793 41H162.067L162.231 40.0215ZM160.784 34.6602L162.571 40.0508L162.694 41H161.967L159.67 34.6602H160.784Z" fill="black"/>
<rect x="147" y="63" width="6" height="6" fill="black"/>
<path d="M161.82 61H162.91V68.7695L162.816 70H161.82V61ZM167.193 66.7773V66.9004C167.193 67.3613 167.139 67.7891 167.029 68.1836C166.92 68.5742 166.76 68.9141 166.549 69.2031C166.338 69.4922 166.08 69.7168 165.775 69.877C165.471 70.0371 165.121 70.1172 164.727 70.1172C164.324 70.1172 163.971 70.0488 163.666 69.9121C163.365 69.7715 163.111 69.5703 162.904 69.3086C162.697 69.0469 162.531 68.7305 162.406 68.3594C162.285 67.9883 162.201 67.5703 162.154 67.1055V66.5664C162.201 66.0977 162.285 65.6777 162.406 65.3066C162.531 64.9355 162.697 64.6191 162.904 64.3574C163.111 64.0918 163.365 63.8906 163.666 63.7539C163.967 63.6133 164.316 63.543 164.715 63.543C165.113 63.543 165.467 63.6211 165.775 63.7773C166.084 63.9297 166.342 64.1484 166.549 64.4336C166.76 64.7188 166.92 65.0605 167.029 65.459C167.139 65.8535 167.193 66.293 167.193 66.7773ZM166.104 66.9004V66.7773C166.104 66.4609 166.074 66.1641 166.016 65.8867C165.957 65.6055 165.863 65.3594 165.734 65.1484C165.605 64.9336 165.436 64.7656 165.225 64.6445C165.014 64.5195 164.754 64.457 164.445 64.457C164.172 64.457 163.934 64.5039 163.73 64.5977C163.531 64.6914 163.361 64.8184 163.221 64.9785C163.08 65.1348 162.965 65.3145 162.875 65.5176C162.789 65.7168 162.725 65.9238 162.682 66.1387V67.5508C162.744 67.8242 162.846 68.0879 162.986 68.3418C163.131 68.5918 163.322 68.7969 163.561 68.957C163.803 69.1172 164.102 69.1973 164.457 69.1973C164.75 69.1973 165 69.1387 165.207 69.0215C165.418 68.9004 165.588 68.7344 165.717 68.5234C165.85 68.3125 165.947 68.0684 166.01 67.791C166.072 67.5137 166.104 67.2168 166.104 66.9004ZM172.01 61.4219V70H170.926V62.7754L168.74 63.5723V62.5938L171.84 61.4219H172.01Z" fill="black"/>
<rect x="147" y="93" width="6" height="6" fill="black"/>
<path d="M161.82 91H162.91V98.7695L162.816 100H161.82V91ZM167.193 96.7773V96.9004C167.193 97.3613 167.139 97.7891 167.029 98.1836C166.92 98.5742 166.76 98.9141 166.549 99.2031C166.338 99.4922 166.08 99.7168 165.775 99.877C165.471 100.037 165.121 100.117 164.727 100.117C164.324 100.117 163.971 100.049 163.666 99.9121C163.365 99.7715 163.111 99.5703 162.904 99.3086C162.697 99.0469 162.531 98.7305 162.406 98.3594C162.285 97.9883 162.201 97.5703 162.154 97.1055V96.5664C162.201 96.0977 162.285 95.6777 162.406 95.3066C162.531 94.9355 162.697 94.6191 162.904 94.3574C163.111 94.0918 163.365 93.8906 163.666 93.7539C163.967 93.6133 164.316 93.543 164.715 93.543C165.113 93.543 165.467 93.6211 165.775 93.7773C166.084 93.9297 166.342 94.1484 166.549 94.4336C166.76 94.7188 166.92 95.0605 167.029 95.459C167.139 95.8535 167.193 96.293 167.193 96.7773ZM166.104 96.9004V96.7773C166.104 96.4609 166.074 96.1641 166.016 95.8867C165.957 95.6055 165.863 95.3594 165.734 95.1484C165.605 94.9336 165.436 94.7656 165.225 94.6445C165.014 94.5195 164.754 94.457 164.445 94.457C164.172 94.457 163.934 94.5039 163.73 94.5977C163.531 94.6914 163.361 94.8184 163.221 94.9785C163.08 95.1348 162.965 95.3145 162.875 95.5176C162.789 95.7168 162.725 95.9238 162.682 96.1387V97.5508C162.744 97.8242 162.846 98.0879 162.986 98.3418C163.131 98.5918 163.322 98.7969 163.561 98.957C163.803 99.1172 164.102 99.1973 164.457 99.1973C164.75 99.1973 165 99.1387 165.207 99.0215C165.418 98.9004 165.588 98.7344 165.717 98.5234C165.85 98.3125 165.947 98.0684 166.01 97.791C166.072 97.5137 166.104 97.2168 166.104 96.9004ZM174.037 99.1094V100H168.453V99.2207L171.248 96.1094C171.592 95.7266 171.857 95.4023 172.045 95.1367C172.236 94.8672 172.369 94.627 172.443 94.416C172.521 94.2012 172.561 93.9824 172.561 93.7598C172.561 93.4785 172.502 93.2246 172.385 92.998C172.271 92.7676 172.104 92.584 171.881 92.4473C171.658 92.3105 171.389 92.2422 171.072 92.2422C170.693 92.2422 170.377 92.3164 170.123 92.4648C169.873 92.6094 169.686 92.8125 169.561 93.0742C169.436 93.3359 169.373 93.6367 169.373 93.9766H168.289C168.289 93.4961 168.395 93.0566 168.605 92.6582C168.816 92.2598 169.129 91.9434 169.543 91.709C169.957 91.4707 170.467 91.3516 171.072 91.3516C171.611 91.3516 172.072 91.4473 172.455 91.6387C172.838 91.8262 173.131 92.0918 173.334 92.4355C173.541 92.7754 173.645 93.1738 173.645 93.6309C173.645 93.8809 173.602 94.1348 173.516 94.3926C173.434 94.6465 173.318 94.9004 173.17 95.1543C173.025 95.4082 172.855 95.6582 172.66 95.9043C172.469 96.1504 172.264 96.3926 172.045 96.6309L169.76 99.1094H174.037Z" fill="black"/>
<rect x="147" y="123" width="6" height="6" fill="black"/>
<path d="M161.82 121H162.91V128.77L162.816 130H161.82V121ZM167.193 126.777V126.9C167.193 127.361 167.139 127.789 167.029 128.184C166.92 128.574 166.76 128.914 166.549 129.203C166.338 129.492 166.08 129.717 165.775 129.877C165.471 130.037 165.121 130.117 164.727 130.117C164.324 130.117 163.971 130.049 163.666 129.912C163.365 129.771 163.111 129.57 162.904 129.309C162.697 129.047 162.531 128.73 162.406 128.359C162.285 127.988 162.201 127.57 162.154 127.105V126.566C162.201 126.098 162.285 125.678 162.406 125.307C162.531 124.936 162.697 124.619 162.904 124.357C163.111 124.092 163.365 123.891 163.666 123.754C163.967 123.613 164.316 123.543 164.715 123.543C165.113 123.543 165.467 123.621 165.775 123.777C166.084 123.93 166.342 124.148 166.549 124.434C166.76 124.719 166.92 125.061 167.029 125.459C167.139 125.854 167.193 126.293 167.193 126.777ZM166.104 126.9V126.777C166.104 126.461 166.074 126.164 166.016 125.887C165.957 125.605 165.863 125.359 165.734 125.148C165.605 124.934 165.436 124.766 165.225 124.645C165.014 124.52 164.754 124.457 164.445 124.457C164.172 124.457 163.934 124.504 163.73 124.598C163.531 124.691 163.361 124.818 163.221 124.979C163.08 125.135 162.965 125.314 162.875 125.518C162.789 125.717 162.725 125.924 162.682 126.139V127.551C162.744 127.824 162.846 128.088 162.986 128.342C163.131 128.592 163.322 128.797 163.561 128.957C163.803 129.117 164.102 129.197 164.457 129.197C164.75 129.197 165 129.139 165.207 129.021C165.418 128.9 165.588 128.734 165.717 128.523C165.85 128.312 165.947 128.068 166.01 127.791C166.072 127.514 166.104 127.217 166.104 126.9ZM170.029 125.201H170.803C171.182 125.201 171.494 125.139 171.74 125.014C171.99 124.885 172.176 124.711 172.297 124.492C172.422 124.27 172.484 124.02 172.484 123.742C172.484 123.414 172.43 123.139 172.32 122.916C172.211 122.693 172.047 122.525 171.828 122.412C171.609 122.299 171.332 122.242 170.996 122.242C170.691 122.242 170.422 122.303 170.188 122.424C169.957 122.541 169.775 122.709 169.643 122.928C169.514 123.146 169.449 123.404 169.449 123.701H168.365C168.365 123.268 168.475 122.873 168.693 122.518C168.912 122.162 169.219 121.879 169.613 121.668C170.012 121.457 170.473 121.352 170.996 121.352C171.512 121.352 171.963 121.443 172.35 121.627C172.736 121.807 173.037 122.076 173.252 122.436C173.467 122.791 173.574 123.234 173.574 123.766C173.574 123.98 173.523 124.211 173.422 124.457C173.324 124.699 173.17 124.926 172.959 125.137C172.752 125.348 172.482 125.521 172.15 125.658C171.818 125.791 171.42 125.857 170.955 125.857H170.029V125.201ZM170.029 126.092V125.441H170.955C171.498 125.441 171.947 125.506 172.303 125.635C172.658 125.764 172.938 125.936 173.141 126.15C173.348 126.365 173.492 126.602 173.574 126.859C173.66 127.113 173.703 127.367 173.703 127.621C173.703 128.02 173.635 128.373 173.498 128.682C173.365 128.99 173.176 129.252 172.93 129.467C172.688 129.682 172.402 129.844 172.074 129.953C171.746 130.062 171.389 130.117 171.002 130.117C170.631 130.117 170.281 130.064 169.953 129.959C169.629 129.854 169.342 129.701 169.092 129.502C168.842 129.299 168.646 129.051 168.506 128.758C168.365 128.461 168.295 128.123 168.295 127.744H169.379C169.379 128.041 169.443 128.301 169.572 128.523C169.705 128.746 169.893 128.92 170.135 129.045C170.381 129.166 170.67 129.227 171.002 129.227C171.334 129.227 171.619 129.17 171.857 129.057C172.1 128.939 172.285 128.764 172.414 128.529C172.547 128.295 172.613 128 172.613 127.645C172.613 127.289 172.539 126.998 172.391 126.771C172.242 126.541 172.031 126.371 171.758 126.262C171.488 126.148 171.17 126.092 170.803 126.092H170.029Z" fill="black"/>
<path d="M145 1.5H205V0.5H145V1.5ZM224.5 21V143H225.5V21H224.5ZM205 162.5H145V163.5H205V162.5ZM125.5 143V21H124.5V143H125.5ZM145 162.5C134.23 162.5 125.5 153.77 125.5 143H124.5C124.5 154.322 133.678 163.5 145 163.5V162.5ZM224.5 143C224.5 153.77 215.77 162.5 205 162.5V163.5C216.322 163.5 225.5 154.322 225.5 143H224.5ZM205 1.5C215.77 1.5 224.5 10.2304 224.5 21H225.5C225.5 9.67816 216.322 0.5 205 0.5V1.5ZM145 0.5C133.678 0.5 124.5 9.67816 124.5 21H125.5C125.5 10.2304 134.23 1.5 145 1.5V0.5Z" fill="black"/>
<path d="M140.106 221.08V222H135.588V221.08H140.106ZM135.817 213.469V222H134.686V213.469H135.817ZM139.508 217.137V218.057H135.588V217.137H139.508ZM140.047 213.469V214.395H135.588V213.469H140.047ZM142.52 215.66V222H141.43V215.66H142.52ZM141.348 213.979C141.348 213.803 141.401 213.654 141.506 213.533C141.616 213.412 141.776 213.352 141.987 213.352C142.194 213.352 142.352 213.412 142.461 213.533C142.575 213.654 142.631 213.803 142.631 213.979C142.631 214.146 142.575 214.291 142.461 214.412C142.352 214.529 142.194 214.588 141.987 214.588C141.776 214.588 141.616 214.529 141.506 214.412C141.401 214.291 141.348 214.146 141.348 213.979ZM146.891 222.117C146.45 222.117 146.049 222.043 145.69 221.895C145.334 221.742 145.028 221.529 144.77 221.256C144.516 220.982 144.321 220.658 144.184 220.283C144.047 219.908 143.979 219.498 143.979 219.053V218.807C143.979 218.291 144.055 217.832 144.207 217.43C144.36 217.023 144.567 216.68 144.828 216.398C145.09 216.117 145.387 215.904 145.719 215.76C146.051 215.615 146.395 215.543 146.75 215.543C147.203 215.543 147.594 215.621 147.922 215.777C148.254 215.934 148.526 216.152 148.737 216.434C148.948 216.711 149.104 217.039 149.205 217.418C149.307 217.793 149.358 218.203 149.358 218.648V219.135H144.623V218.25H148.274V218.168C148.258 217.887 148.2 217.613 148.098 217.348C148 217.082 147.844 216.863 147.629 216.691C147.414 216.52 147.121 216.434 146.75 216.434C146.504 216.434 146.278 216.486 146.071 216.592C145.864 216.693 145.686 216.846 145.537 217.049C145.389 217.252 145.274 217.5 145.192 217.793C145.11 218.086 145.069 218.424 145.069 218.807V219.053C145.069 219.354 145.11 219.637 145.192 219.902C145.278 220.164 145.401 220.395 145.561 220.594C145.725 220.793 145.922 220.949 146.153 221.062C146.387 221.176 146.653 221.232 146.95 221.232C147.332 221.232 147.657 221.154 147.922 220.998C148.188 220.842 148.42 220.633 148.619 220.371L149.276 220.893C149.139 221.1 148.965 221.297 148.754 221.484C148.543 221.672 148.284 221.824 147.975 221.941C147.67 222.059 147.309 222.117 146.891 222.117ZM151.707 216.656V222H150.623V215.66H151.678L151.707 216.656ZM153.688 215.625L153.682 216.633C153.592 216.613 153.506 216.602 153.424 216.598C153.346 216.59 153.256 216.586 153.155 216.586C152.905 216.586 152.684 216.625 152.493 216.703C152.301 216.781 152.139 216.891 152.006 217.031C151.873 217.172 151.768 217.34 151.69 217.535C151.616 217.727 151.567 217.938 151.543 218.168L151.239 218.344C151.239 217.961 151.276 217.602 151.35 217.266C151.428 216.93 151.547 216.633 151.707 216.375C151.868 216.113 152.071 215.91 152.317 215.766C152.567 215.617 152.864 215.543 153.207 215.543C153.285 215.543 153.375 215.553 153.477 215.572C153.578 215.588 153.649 215.605 153.688 215.625Z" fill="black"/>
<rect x="147" y="244" width="6" height="6" fill="black"/>
<path d="M164.457 251.117C164.016 251.117 163.615 251.043 163.256 250.895C162.9 250.742 162.594 250.529 162.336 250.256C162.082 249.982 161.887 249.658 161.75 249.283C161.613 248.908 161.545 248.498 161.545 248.053V247.807C161.545 247.291 161.621 246.832 161.773 246.43C161.926 246.023 162.133 245.68 162.395 245.398C162.656 245.117 162.953 244.904 163.285 244.76C163.617 244.615 163.961 244.543 164.316 244.543C164.77 244.543 165.16 244.621 165.488 244.777C165.82 244.934 166.092 245.152 166.303 245.434C166.514 245.711 166.67 246.039 166.771 246.418C166.873 246.793 166.924 247.203 166.924 247.648V248.135H162.189V247.25H165.84V247.168C165.824 246.887 165.766 246.613 165.664 246.348C165.566 246.082 165.41 245.863 165.195 245.691C164.98 245.52 164.688 245.434 164.316 245.434C164.07 245.434 163.844 245.486 163.637 245.592C163.43 245.693 163.252 245.846 163.104 246.049C162.955 246.252 162.84 246.5 162.758 246.793C162.676 247.086 162.635 247.424 162.635 247.807V248.053C162.635 248.354 162.676 248.637 162.758 248.902C162.844 249.164 162.967 249.395 163.127 249.594C163.291 249.793 163.488 249.949 163.719 250.062C163.953 250.176 164.219 250.232 164.516 250.232C164.898 250.232 165.223 250.154 165.488 249.998C165.754 249.842 165.986 249.633 166.186 249.371L166.842 249.893C166.705 250.1 166.531 250.297 166.32 250.484C166.109 250.672 165.85 250.824 165.541 250.941C165.236 251.059 164.875 251.117 164.457 251.117ZM171.635 242.422V251H170.551V243.775L168.365 244.572V243.594L171.465 242.422H171.635Z" fill="black"/>
<rect x="147" y="274" width="6" height="6" fill="black"/>
<path d="M164.457 281.117C164.016 281.117 163.615 281.043 163.256 280.895C162.9 280.742 162.594 280.529 162.336 280.256C162.082 279.982 161.887 279.658 161.75 279.283C161.613 278.908 161.545 278.498 161.545 278.053V277.807C161.545 277.291 161.621 276.832 161.773 276.43C161.926 276.023 162.133 275.68 162.395 275.398C162.656 275.117 162.953 274.904 163.285 274.76C163.617 274.615 163.961 274.543 164.316 274.543C164.77 274.543 165.16 274.621 165.488 274.777C165.82 274.934 166.092 275.152 166.303 275.434C166.514 275.711 166.67 276.039 166.771 276.418C166.873 276.793 166.924 277.203 166.924 277.648V278.135H162.189V277.25H165.84V277.168C165.824 276.887 165.766 276.613 165.664 276.348C165.566 276.082 165.41 275.863 165.195 275.691C164.98 275.52 164.688 275.434 164.316 275.434C164.07 275.434 163.844 275.486 163.637 275.592C163.43 275.693 163.252 275.846 163.104 276.049C162.955 276.252 162.84 276.5 162.758 276.793C162.676 277.086 162.635 277.424 162.635 277.807V278.053C162.635 278.354 162.676 278.637 162.758 278.902C162.844 279.164 162.967 279.395 163.127 279.594C163.291 279.793 163.488 279.949 163.719 280.062C163.953 280.176 164.219 280.232 164.516 280.232C164.898 280.232 165.223 280.154 165.488 279.998C165.754 279.842 165.986 279.633 166.186 279.371L166.842 279.893C166.705 280.1 166.531 280.297 166.32 280.484C166.109 280.672 165.85 280.824 165.541 280.941C165.236 281.059 164.875 281.117 164.457 281.117ZM173.662 280.109V281H168.078V280.221L170.873 277.109C171.217 276.727 171.482 276.402 171.67 276.137C171.861 275.867 171.994 275.627 172.068 275.416C172.146 275.201 172.186 274.982 172.186 274.76C172.186 274.479 172.127 274.225 172.01 273.998C171.896 273.768 171.729 273.584 171.506 273.447C171.283 273.311 171.014 273.242 170.697 273.242C170.318 273.242 170.002 273.316 169.748 273.465C169.498 273.609 169.311 273.812 169.186 274.074C169.061 274.336 168.998 274.637 168.998 274.977H167.914C167.914 274.496 168.02 274.057 168.23 273.658C168.441 273.26 168.754 272.943 169.168 272.709C169.582 272.471 170.092 272.352 170.697 272.352C171.236 272.352 171.697 272.447 172.08 272.639C172.463 272.826 172.756 273.092 172.959 273.436C173.166 273.775 173.27 274.174 173.27 274.631C173.27 274.881 173.227 275.135 173.141 275.393C173.059 275.646 172.943 275.9 172.795 276.154C172.65 276.408 172.48 276.658 172.285 276.904C172.094 277.15 171.889 277.393 171.67 277.631L169.385 280.109H173.662Z" fill="black"/>
<rect x="147" y="304" width="6" height="6" fill="black"/>
<path d="M164.457 311.117C164.016 311.117 163.615 311.043 163.256 310.895C162.9 310.742 162.594 310.529 162.336 310.256C162.082 309.982 161.887 309.658 161.75 309.283C161.613 308.908 161.545 308.498 161.545 308.053V307.807C161.545 307.291 161.621 306.832 161.773 306.43C161.926 306.023 162.133 305.68 162.395 305.398C162.656 305.117 162.953 304.904 163.285 304.76C163.617 304.615 163.961 304.543 164.316 304.543C164.77 304.543 165.16 304.621 165.488 304.777C165.82 304.934 166.092 305.152 166.303 305.434C166.514 305.711 166.67 306.039 166.771 306.418C166.873 306.793 166.924 307.203 166.924 307.648V308.135H162.189V307.25H165.84V307.168C165.824 306.887 165.766 306.613 165.664 306.348C165.566 306.082 165.41 305.863 165.195 305.691C164.98 305.52 164.688 305.434 164.316 305.434C164.07 305.434 163.844 305.486 163.637 305.592C163.43 305.693 163.252 305.846 163.104 306.049C162.955 306.252 162.84 306.5 162.758 306.793C162.676 307.086 162.635 307.424 162.635 307.807V308.053C162.635 308.354 162.676 308.637 162.758 308.902C162.844 309.164 162.967 309.395 163.127 309.594C163.291 309.793 163.488 309.949 163.719 310.062C163.953 310.176 164.219 310.232 164.516 310.232C164.898 310.232 165.223 310.154 165.488 309.998C165.754 309.842 165.986 309.633 166.186 309.371L166.842 309.893C166.705 310.1 166.531 310.297 166.32 310.484C166.109 310.672 165.85 310.824 165.541 310.941C165.236 311.059 164.875 311.117 164.457 311.117ZM169.654 306.201H170.428C170.807 306.201 171.119 306.139 171.365 306.014C171.615 305.885 171.801 305.711 171.922 305.492C172.047 305.27 172.109 305.02 172.109 304.742C172.109 304.414 172.055 304.139 171.945 303.916C171.836 303.693 171.672 303.525 171.453 303.412C171.234 303.299 170.957 303.242 170.621 303.242C170.316 303.242 170.047 303.303 169.812 303.424C169.582 303.541 169.4 303.709 169.268 303.928C169.139 304.146 169.074 304.404 169.074 304.701H167.99C167.99 304.268 168.1 303.873 168.318 303.518C168.537 303.162 168.844 302.879 169.238 302.668C169.637 302.457 170.098 302.352 170.621 302.352C171.137 302.352 171.588 302.443 171.975 302.627C172.361 302.807 172.662 303.076 172.877 303.436C173.092 303.791 173.199 304.234 173.199 304.766C173.199 304.98 173.148 305.211 173.047 305.457C172.949 305.699 172.795 305.926 172.584 306.137C172.377 306.348 172.107 306.521 171.775 306.658C171.443 306.791 171.045 306.857 170.58 306.857H169.654V306.201ZM169.654 307.092V306.441H170.58C171.123 306.441 171.572 306.506 171.928 306.635C172.283 306.764 172.562 306.936 172.766 307.15C172.973 307.365 173.117 307.602 173.199 307.859C173.285 308.113 173.328 308.367 173.328 308.621C173.328 309.02 173.26 309.373 173.123 309.682C172.99 309.99 172.801 310.252 172.555 310.467C172.312 310.682 172.027 310.844 171.699 310.953C171.371 311.062 171.014 311.117 170.627 311.117C170.256 311.117 169.906 311.064 169.578 310.959C169.254 310.854 168.967 310.701 168.717 310.502C168.467 310.299 168.271 310.051 168.131 309.758C167.99 309.461 167.92 309.123 167.92 308.744H169.004C169.004 309.041 169.068 309.301 169.197 309.523C169.33 309.746 169.518 309.92 169.76 310.045C170.006 310.166 170.295 310.227 170.627 310.227C170.959 310.227 171.244 310.17 171.482 310.057C171.725 309.939 171.91 309.764 172.039 309.529C172.172 309.295 172.238 309 172.238 308.645C172.238 308.289 172.164 307.998 172.016 307.771C171.867 307.541 171.656 307.371 171.383 307.262C171.113 307.148 170.795 307.092 170.428 307.092H169.654Z" fill="black"/>
<path d="M145 182.5H205V181.5H145V182.5ZM224.5 202V324H225.5V202H224.5ZM205 343.5H145V344.5H205V343.5ZM125.5 324V202H124.5V324H125.5ZM145 343.5C134.23 343.5 125.5 334.77 125.5 324H124.5C124.5 335.322 133.678 344.5 145 344.5V343.5ZM224.5 324C224.5 334.77 215.77 343.5 205 343.5V344.5C216.322 344.5 225.5 335.322 225.5 324H224.5ZM205 182.5C215.77 182.5 224.5 191.23 224.5 202H225.5C225.5 190.678 216.322 181.5 205 181.5V182.5ZM145 181.5C133.678 181.5 124.5 190.678 124.5 202H125.5C125.5 191.23 134.23 182.5 145 182.5V181.5Z" fill="black"/>
<path d="M13.8324 122.654H11.5531V121.734H13.8324C14.2738 121.734 14.6312 121.664 14.9046 121.523C15.1781 121.383 15.3773 121.188 15.5023 120.938C15.6312 120.688 15.6956 120.402 15.6956 120.082C15.6956 119.789 15.6312 119.514 15.5023 119.256C15.3773 118.998 15.1781 118.791 14.9046 118.635C14.6312 118.475 14.2738 118.395 13.8324 118.395H11.8167V126H10.6859V117.469H13.8324C14.4769 117.469 15.0218 117.58 15.4671 117.803C15.9124 118.025 16.2503 118.334 16.4808 118.729C16.7113 119.119 16.8265 119.566 16.8265 120.07C16.8265 120.617 16.7113 121.084 16.4808 121.471C16.2503 121.857 15.9124 122.152 15.4671 122.355C15.0218 122.555 14.4769 122.654 13.8324 122.654ZM20.641 126.117C20.1996 126.117 19.7992 126.043 19.4398 125.895C19.0843 125.742 18.7777 125.529 18.5199 125.256C18.266 124.982 18.0706 124.658 17.9339 124.283C17.7972 123.908 17.7289 123.498 17.7289 123.053V122.807C17.7289 122.291 17.805 121.832 17.9574 121.43C18.1097 121.023 18.3167 120.68 18.5785 120.398C18.8402 120.117 19.1371 119.904 19.4691 119.76C19.8011 119.615 20.1449 119.543 20.5003 119.543C20.9535 119.543 21.3441 119.621 21.6722 119.777C22.0042 119.934 22.2757 120.152 22.4867 120.434C22.6976 120.711 22.8539 121.039 22.9554 121.418C23.057 121.793 23.1078 122.203 23.1078 122.648V123.135H18.3734V122.25H22.0238V122.168C22.0081 121.887 21.9496 121.613 21.848 121.348C21.7503 121.082 21.5941 120.863 21.3792 120.691C21.1644 120.52 20.8714 120.434 20.5003 120.434C20.2542 120.434 20.0277 120.486 19.8206 120.592C19.6136 120.693 19.4359 120.846 19.2874 121.049C19.139 121.252 19.0238 121.5 18.9417 121.793C18.8597 122.086 18.8187 122.424 18.8187 122.807V123.053C18.8187 123.354 18.8597 123.637 18.9417 123.902C19.0277 124.164 19.1507 124.395 19.3109 124.594C19.4749 124.793 19.6722 124.949 19.9027 125.062C20.1371 125.176 20.4027 125.232 20.6996 125.232C21.0824 125.232 21.4066 125.154 21.6722 124.998C21.9378 124.842 22.1703 124.633 22.3695 124.371L23.0257 124.893C22.889 125.1 22.7152 125.297 22.5042 125.484C22.2933 125.672 22.0335 125.824 21.7249 125.941C21.4203 126.059 21.0589 126.117 20.641 126.117ZM25.4574 120.656V126H24.3734V119.66H25.4281L25.4574 120.656ZM27.4378 119.625L27.432 120.633C27.3421 120.613 27.2562 120.602 27.1742 120.598C27.096 120.59 27.0062 120.586 26.9046 120.586C26.6546 120.586 26.4339 120.625 26.2425 120.703C26.0511 120.781 25.889 120.891 25.7562 121.031C25.6234 121.172 25.5179 121.34 25.4398 121.535C25.3656 121.727 25.3167 121.938 25.2933 122.168L24.9886 122.344C24.9886 121.961 25.0257 121.602 25.0999 121.266C25.1781 120.93 25.2972 120.633 25.4574 120.375C25.6175 120.113 25.8206 119.91 26.0667 119.766C26.3167 119.617 26.6136 119.543 26.9574 119.543C27.0355 119.543 27.1253 119.553 27.2269 119.572C27.3285 119.588 27.3988 119.605 27.4378 119.625ZM32.1312 124.318C32.1312 124.162 32.096 124.018 32.0257 123.885C31.9593 123.748 31.8206 123.625 31.6097 123.516C31.4027 123.402 31.0902 123.305 30.6722 123.223C30.3206 123.148 30.0023 123.061 29.7171 122.959C29.4359 122.857 29.1956 122.734 28.9964 122.59C28.8011 122.445 28.6507 122.275 28.5453 122.08C28.4398 121.885 28.3871 121.656 28.3871 121.395C28.3871 121.145 28.4417 120.908 28.5511 120.686C28.6644 120.463 28.8226 120.266 29.0257 120.094C29.2328 119.922 29.4808 119.787 29.7699 119.689C30.0589 119.592 30.3812 119.543 30.7367 119.543C31.2445 119.543 31.6781 119.633 32.0374 119.812C32.3968 119.992 32.6722 120.232 32.8636 120.533C33.055 120.83 33.1507 121.16 33.1507 121.523H32.0667C32.0667 121.348 32.014 121.178 31.9085 121.014C31.807 120.846 31.6566 120.707 31.4574 120.598C31.2621 120.488 31.0218 120.434 30.7367 120.434C30.4359 120.434 30.1917 120.48 30.0042 120.574C29.8206 120.664 29.6859 120.779 29.5999 120.92C29.5179 121.061 29.4769 121.209 29.4769 121.365C29.4769 121.482 29.4964 121.588 29.5355 121.682C29.5785 121.771 29.6527 121.855 29.7581 121.934C29.8636 122.008 30.0121 122.078 30.2035 122.145C30.3949 122.211 30.639 122.277 30.9359 122.344C31.4554 122.461 31.8831 122.602 32.2191 122.766C32.555 122.93 32.805 123.131 32.9691 123.369C33.1331 123.607 33.2152 123.896 33.2152 124.236C33.2152 124.514 33.1566 124.768 33.0394 124.998C32.9261 125.229 32.7601 125.428 32.5414 125.596C32.3265 125.76 32.0687 125.889 31.7679 125.982C31.471 126.072 31.1371 126.117 30.766 126.117C30.2074 126.117 29.7347 126.018 29.348 125.818C28.9613 125.619 28.6683 125.361 28.4691 125.045C28.2699 124.729 28.1703 124.395 28.1703 124.043H29.2601C29.2757 124.34 29.3617 124.576 29.5179 124.752C29.6742 124.924 29.8656 125.047 30.0921 125.121C30.3187 125.191 30.5433 125.227 30.766 125.227C31.0628 125.227 31.3109 125.188 31.5101 125.109C31.7132 125.031 31.8675 124.924 31.973 124.787C32.0785 124.65 32.1312 124.494 32.1312 124.318ZM34.3519 122.9V122.766C34.3519 122.309 34.4183 121.885 34.5511 121.494C34.6839 121.1 34.8753 120.758 35.1253 120.469C35.3753 120.176 35.6781 119.949 36.0335 119.789C36.389 119.625 36.7874 119.543 37.2289 119.543C37.6742 119.543 38.0746 119.625 38.43 119.789C38.7894 119.949 39.0941 120.176 39.3441 120.469C39.598 120.758 39.7914 121.1 39.9242 121.494C40.057 121.885 40.1234 122.309 40.1234 122.766V122.9C40.1234 123.357 40.057 123.781 39.9242 124.172C39.7914 124.562 39.598 124.904 39.3441 125.197C39.0941 125.486 38.7914 125.713 38.4359 125.877C38.0843 126.037 37.6859 126.117 37.2406 126.117C36.7953 126.117 36.3949 126.037 36.0394 125.877C35.6839 125.713 35.3792 125.486 35.1253 125.197C34.8753 124.904 34.6839 124.562 34.5511 124.172C34.4183 123.781 34.3519 123.357 34.3519 122.9ZM35.4359 122.766V122.9C35.4359 123.217 35.473 123.516 35.5472 123.797C35.6214 124.074 35.7328 124.32 35.8812 124.535C36.0335 124.75 36.223 124.92 36.4496 125.045C36.6761 125.166 36.9398 125.227 37.2406 125.227C37.5374 125.227 37.7972 125.166 38.0199 125.045C38.2464 124.92 38.4339 124.75 38.5824 124.535C38.7308 124.32 38.8421 124.074 38.9164 123.797C38.9945 123.516 39.0335 123.217 39.0335 122.9V122.766C39.0335 122.453 38.9945 122.158 38.9164 121.881C38.8421 121.6 38.7289 121.352 38.5765 121.137C38.4281 120.918 38.2406 120.746 38.014 120.621C37.7914 120.496 37.5296 120.434 37.2289 120.434C36.932 120.434 36.6703 120.496 36.4437 120.621C36.221 120.746 36.0335 120.918 35.8812 121.137C35.7328 121.352 35.6214 121.6 35.5472 121.881C35.473 122.158 35.4359 122.453 35.4359 122.766ZM42.5667 121.014V126H41.4828V119.66H42.5081L42.5667 121.014ZM42.3089 122.59L41.8578 122.572C41.8617 122.139 41.9261 121.738 42.0511 121.371C42.1761 121 42.3519 120.678 42.5785 120.404C42.805 120.131 43.0746 119.92 43.3871 119.771C43.7035 119.619 44.0531 119.543 44.4359 119.543C44.7484 119.543 45.0296 119.586 45.2796 119.672C45.5296 119.754 45.7425 119.887 45.9183 120.07C46.098 120.254 46.2347 120.492 46.3285 120.785C46.4222 121.074 46.4691 121.428 46.4691 121.846V126H45.3792V121.834C45.3792 121.502 45.3304 121.236 45.2328 121.037C45.1351 120.834 44.9925 120.688 44.805 120.598C44.6175 120.504 44.3871 120.457 44.1136 120.457C43.8441 120.457 43.598 120.514 43.3753 120.627C43.1566 120.74 42.9671 120.896 42.807 121.096C42.6507 121.295 42.5277 121.523 42.4378 121.781C42.3519 122.035 42.3089 122.305 42.3089 122.59Z" fill="black"/>
<rect x="72" y="148" width="6" height="6" rx="3" fill="black"/>
<path d="M62.3203 147.225L59.4961 155H58.3418L61.5938 146.469H62.3379L62.3203 147.225ZM64.6875 155L61.8574 147.225L61.8398 146.469H62.584L65.8477 155H64.6875ZM64.541 151.842V152.768H59.748V151.842H64.541Z" fill="black"/>
<rect x="72" y="178" width="6" height="6" rx="3" fill="black"/>
<path d="M62.5547 181.01H60.3926L60.3809 180.102H62.3438C62.668 180.102 62.9512 180.047 63.1934 179.938C63.4355 179.828 63.623 179.672 63.7559 179.469C63.8926 179.262 63.9609 179.016 63.9609 178.73C63.9609 178.418 63.9004 178.164 63.7793 177.969C63.6621 177.77 63.4805 177.625 63.2344 177.535C62.9922 177.441 62.6836 177.395 62.3086 177.395H60.6445V185H59.5137V176.469H62.3086C62.7461 176.469 63.1367 176.514 63.4805 176.604C63.8242 176.689 64.1152 176.826 64.3535 177.014C64.5957 177.197 64.7793 177.432 64.9043 177.717C65.0293 178.002 65.0918 178.344 65.0918 178.742C65.0918 179.094 65.002 179.412 64.8223 179.697C64.6426 179.979 64.3926 180.209 64.0723 180.389C63.7559 180.568 63.3848 180.684 62.959 180.734L62.5547 181.01ZM62.502 185H59.9473L60.5859 184.08H62.502C62.8613 184.08 63.166 184.018 63.416 183.893C63.6699 183.768 63.8633 183.592 63.9961 183.365C64.1289 183.135 64.1953 182.863 64.1953 182.551C64.1953 182.234 64.1387 181.961 64.0254 181.73C63.9121 181.5 63.7344 181.322 63.4922 181.197C63.25 181.072 62.9375 181.01 62.5547 181.01H60.9434L60.9551 180.102H63.1582L63.3984 180.43C63.8086 180.465 64.1562 180.582 64.4414 180.781C64.7266 180.977 64.9434 181.227 65.0918 181.531C65.2441 181.836 65.3203 182.172 65.3203 182.539C65.3203 183.07 65.2031 183.52 64.9688 183.887C64.7383 184.25 64.4121 184.527 63.9902 184.719C63.5684 184.906 63.0723 185 62.502 185Z" fill="black"/>
<rect x="72" y="208" width="6" height="6" rx="3" fill="black"/>
<path d="M64.3242 212.287H65.4492C65.3906 212.826 65.2363 213.309 64.9863 213.734C64.7363 214.16 64.3828 214.498 63.9258 214.748C63.4688 214.994 62.8984 215.117 62.2148 215.117C61.7148 215.117 61.2598 215.023 60.8496 214.836C60.4434 214.648 60.0938 214.383 59.8008 214.039C59.5078 213.691 59.2812 213.275 59.1211 212.791C58.9648 212.303 58.8867 211.76 58.8867 211.162V210.312C58.8867 209.715 58.9648 209.174 59.1211 208.689C59.2812 208.201 59.5098 207.783 59.8066 207.436C60.1074 207.088 60.4688 206.82 60.8906 206.633C61.3125 206.445 61.7871 206.352 62.3145 206.352C62.959 206.352 63.5039 206.473 63.9492 206.715C64.3945 206.957 64.7402 207.293 64.9863 207.723C65.2363 208.148 65.3906 208.643 65.4492 209.205H64.3242C64.2695 208.807 64.168 208.465 64.0195 208.18C63.8711 207.891 63.6602 207.668 63.3867 207.512C63.1133 207.355 62.7559 207.277 62.3145 207.277C61.9355 207.277 61.6016 207.35 61.3125 207.494C61.0273 207.639 60.7871 207.844 60.5918 208.109C60.4004 208.375 60.2559 208.693 60.1582 209.064C60.0605 209.436 60.0117 209.848 60.0117 210.301V211.162C60.0117 211.58 60.0547 211.973 60.1406 212.34C60.2305 212.707 60.3652 213.029 60.5449 213.307C60.7246 213.584 60.9531 213.803 61.2305 213.963C61.5078 214.119 61.8359 214.197 62.2148 214.197C62.6953 214.197 63.0781 214.121 63.3633 213.969C63.6484 213.816 63.8633 213.598 64.0078 213.312C64.1562 213.027 64.2617 212.686 64.3242 212.287Z" fill="black"/>
<rect x="72" y="238" width="6" height="6" rx="3" fill="black"/>
<path d="M61.4238 245H59.6426L59.6543 244.08H61.4238C62.0332 244.08 62.541 243.953 62.9473 243.699C63.3535 243.441 63.6582 243.082 63.8613 242.621C64.0684 242.156 64.1719 241.613 64.1719 240.992V240.471C64.1719 239.982 64.1133 239.549 63.9961 239.17C63.8789 238.787 63.707 238.465 63.4805 238.203C63.2539 237.938 62.9766 237.736 62.6484 237.6C62.3242 237.463 61.9512 237.395 61.5293 237.395H59.6074V236.469H61.5293C62.0879 236.469 62.5977 236.562 63.0586 236.75C63.5195 236.934 63.916 237.201 64.248 237.553C64.584 237.9 64.8418 238.322 65.0215 238.818C65.2012 239.311 65.291 239.865 65.291 240.482V240.992C65.291 241.609 65.2012 242.166 65.0215 242.662C64.8418 243.154 64.582 243.574 64.2422 243.922C63.9062 244.27 63.5 244.537 63.0234 244.725C62.5508 244.908 62.0176 245 61.4238 245ZM60.2461 236.469V245H59.1152V236.469H60.2461Z" fill="black"/>
<path d="M21 86.5H81V85.5H21V86.5ZM100.5 106V258H101.5V106H100.5ZM81 277.5H21V278.5H81V277.5ZM1.5 258V106H0.5V258H1.5ZM21 277.5C10.2304 277.5 1.5 268.77 1.5 258H0.5C0.5 269.322 9.67816 278.5 21 278.5V277.5ZM100.5 258C100.5 268.77 91.7696 277.5 81 277.5V278.5C92.3218 278.5 101.5 269.322 101.5 258H100.5ZM81 86.5C91.7696 86.5 100.5 95.2304 100.5 106H101.5C101.5 94.6782 92.3218 85.5 81 85.5V86.5ZM21 85.5C9.67816 85.5 0.5 94.6782 0.5 106H1.5C1.5 95.2305 10.2304 86.5 21 86.5V85.5Z" fill="black"/>
<path d="M264.258 122.137V123.057H259.641V122.137H264.258ZM259.817 118.469V127H258.686V118.469H259.817ZM265.243 118.469V127H264.118V118.469H265.243ZM270.967 125.535V120.66H272.057V127H271.02L270.967 125.535ZM271.172 124.199L271.623 124.188C271.623 124.609 271.578 125 271.489 125.359C271.403 125.715 271.262 126.023 271.067 126.285C270.871 126.547 270.616 126.752 270.299 126.9C269.983 127.045 269.598 127.117 269.145 127.117C268.836 127.117 268.553 127.072 268.295 126.982C268.041 126.893 267.823 126.754 267.639 126.566C267.455 126.379 267.313 126.135 267.211 125.834C267.114 125.533 267.065 125.172 267.065 124.75V120.66H268.149V124.762C268.149 125.047 268.18 125.283 268.243 125.471C268.309 125.654 268.397 125.801 268.506 125.91C268.619 126.016 268.744 126.09 268.881 126.133C269.022 126.176 269.166 126.197 269.315 126.197C269.776 126.197 270.141 126.109 270.41 125.934C270.68 125.754 270.873 125.514 270.991 125.213C271.112 124.908 271.172 124.57 271.172 124.199ZM274.793 122.014V127H273.709V120.66H274.735L274.793 122.014ZM274.535 123.59L274.084 123.572C274.088 123.139 274.153 122.738 274.278 122.371C274.403 122 274.578 121.678 274.805 121.404C275.032 121.131 275.301 120.92 275.614 120.771C275.93 120.619 276.28 120.543 276.662 120.543C276.975 120.543 277.256 120.586 277.506 120.672C277.756 120.754 277.969 120.887 278.145 121.07C278.325 121.254 278.461 121.492 278.555 121.785C278.649 122.074 278.696 122.428 278.696 122.846V127H277.606V122.834C277.606 122.502 277.557 122.236 277.459 122.037C277.362 121.834 277.219 121.688 277.032 121.598C276.844 121.504 276.614 121.457 276.34 121.457C276.071 121.457 275.825 121.514 275.602 121.627C275.383 121.74 275.194 121.896 275.034 122.096C274.877 122.295 274.754 122.523 274.664 122.781C274.578 123.035 274.535 123.305 274.535 123.59ZM284.338 125.77V118H285.428V127H284.432L284.338 125.77ZM280.073 123.9V123.777C280.073 123.293 280.131 122.854 280.248 122.459C280.369 122.061 280.539 121.719 280.758 121.434C280.981 121.148 281.244 120.93 281.549 120.777C281.858 120.621 282.202 120.543 282.58 120.543C282.979 120.543 283.327 120.613 283.623 120.754C283.924 120.891 284.178 121.092 284.385 121.357C284.596 121.619 284.762 121.936 284.883 122.307C285.004 122.678 285.088 123.098 285.135 123.566V124.105C285.092 124.57 285.008 124.988 284.883 125.359C284.762 125.73 284.596 126.047 284.385 126.309C284.178 126.57 283.924 126.771 283.623 126.912C283.323 127.049 282.971 127.117 282.569 127.117C282.198 127.117 281.858 127.037 281.549 126.877C281.244 126.717 280.981 126.492 280.758 126.203C280.539 125.914 280.369 125.574 280.248 125.184C280.131 124.789 280.073 124.361 280.073 123.9ZM281.162 123.777V123.9C281.162 124.217 281.194 124.514 281.256 124.791C281.323 125.068 281.424 125.312 281.561 125.523C281.698 125.734 281.871 125.9 282.082 126.021C282.293 126.139 282.545 126.197 282.838 126.197C283.198 126.197 283.493 126.121 283.723 125.969C283.957 125.816 284.145 125.615 284.285 125.365C284.426 125.115 284.535 124.844 284.614 124.551V123.139C284.567 122.924 284.498 122.717 284.409 122.518C284.323 122.314 284.209 122.135 284.069 121.979C283.932 121.818 283.762 121.691 283.559 121.598C283.36 121.504 283.123 121.457 282.85 121.457C282.553 121.457 282.297 121.52 282.082 121.645C281.871 121.766 281.698 121.934 281.561 122.148C281.424 122.359 281.323 122.605 281.256 122.887C281.194 123.164 281.162 123.461 281.162 123.777Z" fill="black"/>
<rect x="271" y="149" width="6" height="6" rx="3" fill="black"/>
<path d="M289.271 147.422V156H288.188V148.775L286.002 149.572V148.594L289.102 147.422H289.271Z" fill="black"/>
<rect x="271" y="179" width="6" height="6" rx="3" fill="black"/>
<path d="M291.299 185.109V186H285.715V185.221L288.51 182.109C288.854 181.727 289.119 181.402 289.307 181.137C289.498 180.867 289.631 180.627 289.705 180.416C289.783 180.201 289.822 179.982 289.822 179.76C289.822 179.479 289.764 179.225 289.646 178.998C289.533 178.768 289.365 178.584 289.143 178.447C288.92 178.311 288.65 178.242 288.334 178.242C287.955 178.242 287.639 178.316 287.385 178.465C287.135 178.609 286.947 178.812 286.822 179.074C286.697 179.336 286.635 179.637 286.635 179.977H285.551C285.551 179.496 285.656 179.057 285.867 178.658C286.078 178.26 286.391 177.943 286.805 177.709C287.219 177.471 287.729 177.352 288.334 177.352C288.873 177.352 289.334 177.447 289.717 177.639C290.1 177.826 290.393 178.092 290.596 178.436C290.803 178.775 290.906 179.174 290.906 179.631C290.906 179.881 290.863 180.135 290.777 180.393C290.695 180.646 290.58 180.9 290.432 181.154C290.287 181.408 290.117 181.658 289.922 181.904C289.73 182.15 289.525 182.393 289.307 182.631L287.021 185.109H291.299Z" fill="black"/>
<rect x="271" y="209" width="6" height="6" rx="3" fill="black"/>
<path d="M287.291 211.201H288.064C288.443 211.201 288.756 211.139 289.002 211.014C289.252 210.885 289.438 210.711 289.559 210.492C289.684 210.27 289.746 210.02 289.746 209.742C289.746 209.414 289.691 209.139 289.582 208.916C289.473 208.693 289.309 208.525 289.09 208.412C288.871 208.299 288.594 208.242 288.258 208.242C287.953 208.242 287.684 208.303 287.449 208.424C287.219 208.541 287.037 208.709 286.904 208.928C286.775 209.146 286.711 209.404 286.711 209.701H285.627C285.627 209.268 285.736 208.873 285.955 208.518C286.174 208.162 286.48 207.879 286.875 207.668C287.273 207.457 287.734 207.352 288.258 207.352C288.773 207.352 289.225 207.443 289.611 207.627C289.998 207.807 290.299 208.076 290.514 208.436C290.729 208.791 290.836 209.234 290.836 209.766C290.836 209.98 290.785 210.211 290.684 210.457C290.586 210.699 290.432 210.926 290.221 211.137C290.014 211.348 289.744 211.521 289.412 211.658C289.08 211.791 288.682 211.857 288.217 211.857H287.291V211.201ZM287.291 212.092V211.441H288.217C288.76 211.441 289.209 211.506 289.564 211.635C289.92 211.764 290.199 211.936 290.402 212.15C290.609 212.365 290.754 212.602 290.836 212.859C290.922 213.113 290.965 213.367 290.965 213.621C290.965 214.02 290.896 214.373 290.76 214.682C290.627 214.99 290.438 215.252 290.191 215.467C289.949 215.682 289.664 215.844 289.336 215.953C289.008 216.062 288.65 216.117 288.264 216.117C287.893 216.117 287.543 216.064 287.215 215.959C286.891 215.854 286.604 215.701 286.354 215.502C286.104 215.299 285.908 215.051 285.768 214.758C285.627 214.461 285.557 214.123 285.557 213.744H286.641C286.641 214.041 286.705 214.301 286.834 214.523C286.967 214.746 287.154 214.92 287.396 215.045C287.643 215.166 287.932 215.227 288.264 215.227C288.596 215.227 288.881 215.17 289.119 215.057C289.361 214.939 289.547 214.764 289.676 214.529C289.809 214.295 289.875 214 289.875 213.645C289.875 213.289 289.801 212.998 289.652 212.771C289.504 212.541 289.293 212.371 289.02 212.262C288.75 212.148 288.432 212.092 288.064 212.092H287.291Z" fill="black"/>
<path d="M269 87.5H329V86.5H269V87.5ZM348.5 107V229H349.5V107H348.5ZM329 248.5H269V249.5H329V248.5ZM249.5 229V107H248.5V229H249.5ZM269 248.5C258.23 248.5 249.5 239.77 249.5 229H248.5C248.5 240.322 257.678 249.5 269 249.5V248.5ZM348.5 229C348.5 239.77 339.77 248.5 329 248.5V249.5C340.322 249.5 349.5 240.322 349.5 229H348.5ZM329 87.5C339.77 87.5 348.5 96.2304 348.5 107H349.5C349.5 95.6782 340.322 86.5 329 86.5V87.5ZM269 86.5C257.678 86.5 248.5 95.6782 248.5 107H249.5C249.5 96.2304 258.23 87.5 269 87.5V86.5Z" fill="black"/>
</svg>
