<svg width="243" height="192" viewBox="0 0 243 192" fill="none" xmlns="http://www.w3.org/2000/svg">
<path d="M73 155H167" stroke="#0066FF"/>
<path d="M73 125H167" stroke="#0066FF"/>
<path d="M73 94L167 65" stroke="#0066FF"/>
<path d="M73 125L167 95" stroke="#0066FF"/>
<path d="M73 65H167" stroke="#FF007A"/>
<path d="M73 65L167 95" stroke="#FF007A"/>
<path d="M73 95L167 125" stroke="#FF007A"/>
<path d="M73 125L167 155" stroke="#FF007A"/>
<path d="M155.727 36.0098H153.565L153.553 35.1016H155.516C155.84 35.1016 156.123 35.0469 156.366 34.9375C156.608 34.8281 156.795 34.6719 156.928 34.4688C157.065 34.2617 157.133 34.0156 157.133 33.7305C157.133 33.418 157.073 33.1641 156.952 32.9688C156.834 32.7695 156.653 32.625 156.407 32.5352C156.164 32.4414 155.856 32.3945 155.481 32.3945H153.817V40H152.686V31.4688H155.481C155.918 31.4688 156.309 31.5137 156.653 31.6035C156.996 31.6895 157.287 31.8262 157.526 32.0137C157.768 32.1973 157.952 32.4316 158.077 32.7168C158.202 33.002 158.264 33.3438 158.264 33.7422C158.264 34.0938 158.174 34.4121 157.994 34.6973C157.815 34.9785 157.565 35.209 157.244 35.3887C156.928 35.5684 156.557 35.6836 156.131 35.7344L155.727 36.0098ZM155.674 40H153.119L153.758 39.0801H155.674C156.034 39.0801 156.338 39.0176 156.588 38.8926C156.842 38.7676 157.035 38.5918 157.168 38.3652C157.301 38.1348 157.368 37.8633 157.368 37.5508C157.368 37.2344 157.311 36.9609 157.198 36.7305C157.084 36.5 156.907 36.3223 156.664 36.1973C156.422 36.0723 156.11 36.0098 155.727 36.0098H154.116L154.127 35.1016H156.33L156.571 35.4297C156.981 35.4648 157.328 35.582 157.614 35.7812C157.899 35.9766 158.116 36.2266 158.264 36.5312C158.416 36.8359 158.493 37.1719 158.493 37.5391C158.493 38.0703 158.375 38.5195 158.141 38.8867C157.91 39.25 157.584 39.5273 157.162 39.7188C156.741 39.9062 156.244 40 155.674 40ZM161.78 39.3438L163.543 33.6602H164.703L162.16 40.9785C162.102 41.1348 162.024 41.3027 161.926 41.4824C161.832 41.666 161.711 41.8398 161.563 42.0039C161.414 42.168 161.235 42.3008 161.024 42.4023C160.817 42.5078 160.569 42.5605 160.28 42.5605C160.194 42.5605 160.084 42.5488 159.952 42.5254C159.819 42.502 159.725 42.4824 159.67 42.4668L159.664 41.5879C159.696 41.5918 159.744 41.5957 159.811 41.5996C159.881 41.6074 159.93 41.6113 159.957 41.6113C160.203 41.6113 160.412 41.5781 160.584 41.5117C160.756 41.4492 160.901 41.3418 161.018 41.1895C161.139 41.041 161.243 40.8359 161.328 40.5742L161.78 39.3438ZM160.485 33.6602L162.131 38.582L162.412 39.7246L161.633 40.123L159.301 33.6602H160.485ZM169.707 33.6602H170.692V39.8652C170.692 40.4238 170.578 40.9004 170.352 41.2949C170.125 41.6895 169.809 41.9883 169.403 42.1914C169 42.3984 168.535 42.502 168.008 42.502C167.789 42.502 167.532 42.4668 167.235 42.3965C166.942 42.3301 166.653 42.2148 166.368 42.0508C166.086 41.8906 165.85 41.6738 165.659 41.4004L166.227 40.7559C166.493 41.0762 166.77 41.2988 167.059 41.4238C167.352 41.5488 167.641 41.6113 167.926 41.6113C168.27 41.6113 168.567 41.5469 168.817 41.418C169.067 41.2891 169.26 41.0977 169.397 40.8438C169.537 40.5938 169.608 40.2852 169.608 39.918V35.0547L169.707 33.6602ZM165.342 36.9004V36.7773C165.342 36.293 165.399 35.8535 165.512 35.459C165.629 35.0605 165.795 34.7188 166.01 34.4336C166.229 34.1484 166.493 33.9297 166.801 33.7773C167.11 33.6211 167.457 33.543 167.844 33.543C168.243 33.543 168.59 33.6133 168.887 33.7539C169.188 33.8906 169.442 34.0918 169.649 34.3574C169.86 34.6191 170.026 34.9355 170.147 35.3066C170.268 35.6777 170.352 36.0977 170.399 36.5664V37.1055C170.356 37.5703 170.272 37.9883 170.147 38.3594C170.026 38.7305 169.86 39.0469 169.649 39.3086C169.442 39.5703 169.188 39.7715 168.887 39.9121C168.586 40.0488 168.235 40.1172 167.832 40.1172C167.453 40.1172 167.11 40.0371 166.801 39.877C166.496 39.7168 166.235 39.4922 166.016 39.2031C165.797 38.9141 165.629 38.5742 165.512 38.1836C165.399 37.7891 165.342 37.3613 165.342 36.9004ZM166.426 36.7773V36.9004C166.426 37.2168 166.457 37.5137 166.52 37.791C166.586 38.0684 166.686 38.3125 166.819 38.5234C166.955 38.7344 167.129 38.9004 167.34 39.0215C167.551 39.1387 167.803 39.1973 168.096 39.1973C168.455 39.1973 168.752 39.1211 168.987 38.9688C169.221 38.8164 169.407 38.6152 169.543 38.3652C169.684 38.1152 169.793 37.8438 169.871 37.5508V36.1387C169.828 35.9238 169.762 35.7168 169.672 35.5176C169.586 35.3145 169.473 35.1348 169.332 34.9785C169.196 34.8184 169.026 34.6914 168.823 34.5977C168.619 34.5039 168.381 34.457 168.108 34.457C167.811 34.457 167.555 34.5195 167.34 34.6445C167.129 34.7656 166.955 34.9336 166.819 35.1484C166.686 35.3594 166.586 35.6055 166.52 35.8867C166.457 36.1641 166.426 36.4609 166.426 36.7773ZM176.446 33.6602H177.43V39.8652C177.43 40.4238 177.317 40.9004 177.09 41.2949C176.864 41.6895 176.547 41.9883 176.141 42.1914C175.739 42.3984 175.274 42.502 174.746 42.502C174.528 42.502 174.27 42.4668 173.973 42.3965C173.68 42.3301 173.391 42.2148 173.106 42.0508C172.825 41.8906 172.588 41.6738 172.397 41.4004L172.965 40.7559C173.231 41.0762 173.508 41.2988 173.797 41.4238C174.09 41.5488 174.379 41.6113 174.664 41.6113C175.008 41.6113 175.305 41.5469 175.555 41.418C175.805 41.2891 175.998 41.0977 176.135 40.8438C176.276 40.5938 176.346 40.2852 176.346 39.918V35.0547L176.446 33.6602ZM172.08 36.9004V36.7773C172.08 36.293 172.137 35.8535 172.25 35.459C172.368 35.0605 172.534 34.7188 172.748 34.4336C172.967 34.1484 173.231 33.9297 173.539 33.7773C173.848 33.6211 174.196 33.543 174.582 33.543C174.981 33.543 175.328 33.6133 175.625 33.7539C175.926 33.8906 176.18 34.0918 176.387 34.3574C176.598 34.6191 176.764 34.9355 176.885 35.3066C177.006 35.6777 177.09 36.0977 177.137 36.5664V37.1055C177.094 37.5703 177.01 37.9883 176.885 38.3594C176.764 38.7305 176.598 39.0469 176.387 39.3086C176.18 39.5703 175.926 39.7715 175.625 39.9121C175.325 40.0488 174.973 40.1172 174.571 40.1172C174.192 40.1172 173.848 40.0371 173.539 39.877C173.235 39.7168 172.973 39.4922 172.754 39.2031C172.535 38.9141 172.368 38.5742 172.25 38.1836C172.137 37.7891 172.08 37.3613 172.08 36.9004ZM173.164 36.7773V36.9004C173.164 37.2168 173.196 37.5137 173.258 37.791C173.325 38.0684 173.424 38.3125 173.557 38.5234C173.694 38.7344 173.868 38.9004 174.078 39.0215C174.289 39.1387 174.541 39.1973 174.834 39.1973C175.194 39.1973 175.491 39.1211 175.725 38.9688C175.959 38.8164 176.145 38.6152 176.282 38.3652C176.422 38.1152 176.532 37.8438 176.61 37.5508V36.1387C176.567 35.9238 176.5 35.7168 176.41 35.5176C176.325 35.3145 176.211 35.1348 176.071 34.9785C175.934 34.8184 175.764 34.6914 175.561 34.5977C175.358 34.5039 175.119 34.457 174.846 34.457C174.549 34.457 174.293 34.5195 174.078 34.6445C173.868 34.7656 173.694 34.9336 173.557 35.1484C173.424 35.3594 173.325 35.6055 173.258 35.8867C173.196 36.1641 173.164 36.4609 173.164 36.7773ZM181.707 40.1172C181.266 40.1172 180.866 40.043 180.506 39.8945C180.151 39.7422 179.844 39.5293 179.586 39.2559C179.332 38.9824 179.137 38.6582 179 38.2832C178.864 37.9082 178.795 37.498 178.795 37.0527V36.8066C178.795 36.291 178.871 35.832 179.024 35.4297C179.176 35.0234 179.383 34.6797 179.645 34.3984C179.907 34.1172 180.203 33.9043 180.535 33.7598C180.868 33.6152 181.211 33.543 181.567 33.543C182.02 33.543 182.41 33.6211 182.739 33.7773C183.071 33.9336 183.342 34.1523 183.553 34.4336C183.764 34.7109 183.92 35.0391 184.022 35.418C184.123 35.793 184.174 36.2031 184.174 36.6484V37.1348H179.44V36.25H183.09V36.168C183.075 35.8867 183.016 35.6133 182.914 35.3477C182.817 35.082 182.66 34.8633 182.446 34.6914C182.231 34.5195 181.938 34.4336 181.567 34.4336C181.321 34.4336 181.094 34.4863 180.887 34.5918C180.68 34.6934 180.502 34.8457 180.354 35.0488C180.205 35.252 180.09 35.5 180.008 35.793C179.926 36.0859 179.885 36.4238 179.885 36.8066V37.0527C179.885 37.3535 179.926 37.6367 180.008 37.9023C180.094 38.1641 180.217 38.3945 180.377 38.5938C180.541 38.793 180.739 38.9492 180.969 39.0625C181.203 39.1758 181.469 39.2324 181.766 39.2324C182.149 39.2324 182.473 39.1543 182.739 38.998C183.004 38.8418 183.237 38.6328 183.436 38.3711L184.092 38.8926C183.955 39.0996 183.782 39.2969 183.571 39.4844C183.36 39.6719 183.1 39.8242 182.791 39.9414C182.487 40.0586 182.125 40.1172 181.707 40.1172ZM186.524 34.6562V40H185.44V33.6602H186.494L186.524 34.6562ZM188.504 33.625L188.498 34.6328C188.409 34.6133 188.323 34.6016 188.241 34.5977C188.162 34.5898 188.073 34.5859 187.971 34.5859C187.721 34.5859 187.5 34.625 187.309 34.7031C187.118 34.7812 186.955 34.8906 186.823 35.0312C186.69 35.1719 186.584 35.3398 186.506 35.5352C186.432 35.7266 186.383 35.9375 186.36 36.168L186.055 36.3438C186.055 35.9609 186.092 35.6016 186.166 35.2656C186.244 34.9297 186.364 34.6328 186.524 34.375C186.684 34.1133 186.887 33.9102 187.133 33.7656C187.383 33.6172 187.68 33.543 188.024 33.543C188.102 33.543 188.192 33.5527 188.293 33.5723C188.395 33.5879 188.465 33.6055 188.504 33.625ZM192.817 36.6543H190.537V35.7344H192.817C193.258 35.7344 193.616 35.6641 193.889 35.5234C194.162 35.3828 194.362 35.1875 194.487 34.9375C194.616 34.6875 194.68 34.4023 194.68 34.082C194.68 33.7891 194.616 33.5137 194.487 33.2559C194.362 32.998 194.162 32.791 193.889 32.6348C193.616 32.4746 193.258 32.3945 192.817 32.3945H190.801V40H189.67V31.4688H192.817C193.461 31.4688 194.006 31.5801 194.452 31.8027C194.897 32.0254 195.235 32.334 195.465 32.7285C195.696 33.1191 195.811 33.5664 195.811 34.0703C195.811 34.6172 195.696 35.084 195.465 35.4707C195.235 35.8574 194.897 36.1523 194.452 36.3555C194.006 36.5547 193.461 36.6543 192.817 36.6543ZM200.744 38.916V35.6523C200.744 35.4023 200.694 35.1855 200.592 35.002C200.494 34.8145 200.346 34.6699 200.147 34.5684C199.948 34.4668 199.702 34.416 199.409 34.416C199.135 34.416 198.895 34.4629 198.688 34.5566C198.485 34.6504 198.325 34.7734 198.207 34.9258C198.094 35.0781 198.037 35.2422 198.037 35.418H196.953C196.953 35.1914 197.012 34.9668 197.129 34.7441C197.246 34.5215 197.414 34.3203 197.633 34.1406C197.856 33.957 198.121 33.8125 198.43 33.707C198.743 33.5977 199.09 33.543 199.473 33.543C199.934 33.543 200.34 33.6211 200.692 33.7773C201.047 33.9336 201.325 34.1699 201.524 34.4863C201.727 34.7988 201.828 35.1914 201.828 35.6641V38.6172C201.828 38.8281 201.846 39.0527 201.881 39.291C201.92 39.5293 201.977 39.7344 202.051 39.9062V40H200.92C200.866 39.875 200.823 39.709 200.791 39.502C200.76 39.291 200.744 39.0957 200.744 38.916ZM200.932 36.1562L200.944 36.918H199.848C199.539 36.918 199.264 36.9434 199.022 36.9941C198.78 37.041 198.577 37.1133 198.412 37.2109C198.248 37.3086 198.123 37.4316 198.037 37.5801C197.952 37.7246 197.909 37.8945 197.909 38.0898C197.909 38.2891 197.953 38.4707 198.043 38.6348C198.133 38.7988 198.268 38.9297 198.448 39.0273C198.631 39.1211 198.856 39.168 199.121 39.168C199.453 39.168 199.746 39.0977 200 38.957C200.254 38.8164 200.455 38.6445 200.604 38.4414C200.756 38.2383 200.838 38.041 200.85 37.8496L201.313 38.3711C201.285 38.5352 201.211 38.7168 201.09 38.916C200.969 39.1152 200.807 39.3066 200.604 39.4902C200.405 39.6699 200.166 39.8203 199.889 39.9414C199.616 40.0586 199.307 40.1172 198.963 40.1172C198.534 40.1172 198.157 40.0332 197.832 39.8652C197.512 39.6973 197.262 39.4727 197.082 39.1914C196.907 38.9062 196.819 38.5879 196.819 38.2363C196.819 37.8965 196.885 37.5977 197.018 37.3398C197.151 37.0781 197.342 36.8613 197.592 36.6895C197.842 36.5137 198.143 36.3809 198.494 36.291C198.846 36.2012 199.239 36.1562 199.672 36.1562H200.932ZM198.33 31.6797C198.33 31.4531 198.385 31.248 198.494 31.0645C198.608 30.8809 198.758 30.7344 198.946 30.625C199.137 30.5156 199.352 30.4609 199.59 30.4609C199.946 30.4609 200.244 30.5801 200.487 30.8184C200.729 31.0566 200.85 31.3438 200.85 31.6797C200.85 31.9062 200.793 32.1113 200.68 32.2949C200.571 32.4746 200.42 32.6172 200.229 32.7227C200.041 32.8242 199.828 32.875 199.59 32.875C199.235 32.875 198.936 32.7617 198.694 32.5352C198.452 32.3086 198.33 32.0234 198.33 31.6797ZM198.91 31.6797C198.91 31.8516 198.973 32.0078 199.098 32.1484C199.227 32.2852 199.391 32.3535 199.59 32.3535C199.789 32.3535 199.952 32.2871 200.077 32.1543C200.205 32.0176 200.27 31.8594 200.27 31.6797C200.27 31.4961 200.205 31.3359 200.077 31.1992C199.952 31.0586 199.789 30.9883 199.59 30.9883C199.391 30.9883 199.227 31.0586 199.098 31.1992C198.973 31.3359 198.91 31.4961 198.91 31.6797Z" fill="black"/>
<rect x="165" y="62" width="6" height="6" fill="black"/>
<path d="M179.82 60H180.91V67.7695L180.816 69H179.82V60ZM185.193 65.7773V65.9004C185.193 66.3613 185.139 66.7891 185.029 67.1836C184.92 67.5742 184.76 67.9141 184.549 68.2031C184.338 68.4922 184.08 68.7168 183.775 68.877C183.471 69.0371 183.121 69.1172 182.727 69.1172C182.324 69.1172 181.971 69.0488 181.666 68.9121C181.365 68.7715 181.111 68.5703 180.904 68.3086C180.697 68.0469 180.531 67.7305 180.406 67.3594C180.285 66.9883 180.201 66.5703 180.154 66.1055V65.5664C180.201 65.0977 180.285 64.6777 180.406 64.3066C180.531 63.9355 180.697 63.6191 180.904 63.3574C181.111 63.0918 181.365 62.8906 181.666 62.7539C181.967 62.6133 182.316 62.543 182.715 62.543C183.113 62.543 183.467 62.6211 183.775 62.7773C184.084 62.9297 184.342 63.1484 184.549 63.4336C184.76 63.7188 184.92 64.0605 185.029 64.459C185.139 64.8535 185.193 65.293 185.193 65.7773ZM184.104 65.9004V65.7773C184.104 65.4609 184.074 65.1641 184.016 64.8867C183.957 64.6055 183.863 64.3594 183.734 64.1484C183.605 63.9336 183.436 63.7656 183.225 63.6445C183.014 63.5195 182.754 63.457 182.445 63.457C182.172 63.457 181.934 63.5039 181.73 63.5977C181.531 63.6914 181.361 63.8184 181.221 63.9785C181.08 64.1348 180.965 64.3145 180.875 64.5176C180.789 64.7168 180.725 64.9238 180.682 65.1387V66.5508C180.744 66.8242 180.846 67.0879 180.986 67.3418C181.131 67.5918 181.322 67.7969 181.561 67.957C181.803 68.1172 182.102 68.1973 182.457 68.1973C182.75 68.1973 183 68.1387 183.207 68.0215C183.418 67.9004 183.588 67.7344 183.717 67.5234C183.85 67.3125 183.947 67.0684 184.01 66.791C184.072 66.5137 184.104 66.2168 184.104 65.9004ZM190.01 60.4219V69H188.926V61.7754L186.74 62.5723V61.5938L189.84 60.4219H190.01Z" fill="black"/>
<rect x="165" y="92" width="6" height="6" fill="black"/>
<path d="M179.82 90H180.91V97.7695L180.816 99H179.82V90ZM185.193 95.7773V95.9004C185.193 96.3613 185.139 96.7891 185.029 97.1836C184.92 97.5742 184.76 97.9141 184.549 98.2031C184.338 98.4922 184.08 98.7168 183.775 98.877C183.471 99.0371 183.121 99.1172 182.727 99.1172C182.324 99.1172 181.971 99.0488 181.666 98.9121C181.365 98.7715 181.111 98.5703 180.904 98.3086C180.697 98.0469 180.531 97.7305 180.406 97.3594C180.285 96.9883 180.201 96.5703 180.154 96.1055V95.5664C180.201 95.0977 180.285 94.6777 180.406 94.3066C180.531 93.9355 180.697 93.6191 180.904 93.3574C181.111 93.0918 181.365 92.8906 181.666 92.7539C181.967 92.6133 182.316 92.543 182.715 92.543C183.113 92.543 183.467 92.6211 183.775 92.7773C184.084 92.9297 184.342 93.1484 184.549 93.4336C184.76 93.7188 184.92 94.0605 185.029 94.459C185.139 94.8535 185.193 95.293 185.193 95.7773ZM184.104 95.9004V95.7773C184.104 95.4609 184.074 95.1641 184.016 94.8867C183.957 94.6055 183.863 94.3594 183.734 94.1484C183.605 93.9336 183.436 93.7656 183.225 93.6445C183.014 93.5195 182.754 93.457 182.445 93.457C182.172 93.457 181.934 93.5039 181.73 93.5977C181.531 93.6914 181.361 93.8184 181.221 93.9785C181.08 94.1348 180.965 94.3145 180.875 94.5176C180.789 94.7168 180.725 94.9238 180.682 95.1387V96.5508C180.744 96.8242 180.846 97.0879 180.986 97.3418C181.131 97.5918 181.322 97.7969 181.561 97.957C181.803 98.1172 182.102 98.1973 182.457 98.1973C182.75 98.1973 183 98.1387 183.207 98.0215C183.418 97.9004 183.588 97.7344 183.717 97.5234C183.85 97.3125 183.947 97.0684 184.01 96.791C184.072 96.5137 184.104 96.2168 184.104 95.9004ZM192.037 98.1094V99H186.453V98.2207L189.248 95.1094C189.592 94.7266 189.857 94.4023 190.045 94.1367C190.236 93.8672 190.369 93.627 190.443 93.416C190.521 93.2012 190.561 92.9824 190.561 92.7598C190.561 92.4785 190.502 92.2246 190.385 91.998C190.271 91.7676 190.104 91.584 189.881 91.4473C189.658 91.3105 189.389 91.2422 189.072 91.2422C188.693 91.2422 188.377 91.3164 188.123 91.4648C187.873 91.6094 187.686 91.8125 187.561 92.0742C187.436 92.3359 187.373 92.6367 187.373 92.9766H186.289C186.289 92.4961 186.395 92.0566 186.605 91.6582C186.816 91.2598 187.129 90.9434 187.543 90.709C187.957 90.4707 188.467 90.3516 189.072 90.3516C189.611 90.3516 190.072 90.4473 190.455 90.6387C190.838 90.8262 191.131 91.0918 191.334 91.4355C191.541 91.7754 191.645 92.1738 191.645 92.6309C191.645 92.8809 191.602 93.1348 191.516 93.3926C191.434 93.6465 191.318 93.9004 191.17 94.1543C191.025 94.4082 190.855 94.6582 190.66 94.9043C190.469 95.1504 190.264 95.3926 190.045 95.6309L187.76 98.1094H192.037Z" fill="black"/>
<rect x="165" y="122" width="6" height="6" fill="black"/>
<path d="M179.82 120H180.91V127.77L180.816 129H179.82V120ZM185.193 125.777V125.9C185.193 126.361 185.139 126.789 185.029 127.184C184.92 127.574 184.76 127.914 184.549 128.203C184.338 128.492 184.08 128.717 183.775 128.877C183.471 129.037 183.121 129.117 182.727 129.117C182.324 129.117 181.971 129.049 181.666 128.912C181.365 128.771 181.111 128.57 180.904 128.309C180.697 128.047 180.531 127.73 180.406 127.359C180.285 126.988 180.201 126.57 180.154 126.105V125.566C180.201 125.098 180.285 124.678 180.406 124.307C180.531 123.936 180.697 123.619 180.904 123.357C181.111 123.092 181.365 122.891 181.666 122.754C181.967 122.613 182.316 122.543 182.715 122.543C183.113 122.543 183.467 122.621 183.775 122.777C184.084 122.93 184.342 123.148 184.549 123.434C184.76 123.719 184.92 124.061 185.029 124.459C185.139 124.854 185.193 125.293 185.193 125.777ZM184.104 125.9V125.777C184.104 125.461 184.074 125.164 184.016 124.887C183.957 124.605 183.863 124.359 183.734 124.148C183.605 123.934 183.436 123.766 183.225 123.645C183.014 123.52 182.754 123.457 182.445 123.457C182.172 123.457 181.934 123.504 181.73 123.598C181.531 123.691 181.361 123.818 181.221 123.979C181.08 124.135 180.965 124.314 180.875 124.518C180.789 124.717 180.725 124.924 180.682 125.139V126.551C180.744 126.824 180.846 127.088 180.986 127.342C181.131 127.592 181.322 127.797 181.561 127.957C181.803 128.117 182.102 128.197 182.457 128.197C182.75 128.197 183 128.139 183.207 128.021C183.418 127.9 183.588 127.734 183.717 127.523C183.85 127.312 183.947 127.068 184.01 126.791C184.072 126.514 184.104 126.217 184.104 125.9ZM188.029 124.201H188.803C189.182 124.201 189.494 124.139 189.74 124.014C189.99 123.885 190.176 123.711 190.297 123.492C190.422 123.27 190.484 123.02 190.484 122.742C190.484 122.414 190.43 122.139 190.32 121.916C190.211 121.693 190.047 121.525 189.828 121.412C189.609 121.299 189.332 121.242 188.996 121.242C188.691 121.242 188.422 121.303 188.188 121.424C187.957 121.541 187.775 121.709 187.643 121.928C187.514 122.146 187.449 122.404 187.449 122.701H186.365C186.365 122.268 186.475 121.873 186.693 121.518C186.912 121.162 187.219 120.879 187.613 120.668C188.012 120.457 188.473 120.352 188.996 120.352C189.512 120.352 189.963 120.443 190.35 120.627C190.736 120.807 191.037 121.076 191.252 121.436C191.467 121.791 191.574 122.234 191.574 122.766C191.574 122.98 191.523 123.211 191.422 123.457C191.324 123.699 191.17 123.926 190.959 124.137C190.752 124.348 190.482 124.521 190.15 124.658C189.818 124.791 189.42 124.857 188.955 124.857H188.029V124.201ZM188.029 125.092V124.441H188.955C189.498 124.441 189.947 124.506 190.303 124.635C190.658 124.764 190.938 124.936 191.141 125.15C191.348 125.365 191.492 125.602 191.574 125.859C191.66 126.113 191.703 126.367 191.703 126.621C191.703 127.02 191.635 127.373 191.498 127.682C191.365 127.99 191.176 128.252 190.93 128.467C190.688 128.682 190.402 128.844 190.074 128.953C189.746 129.062 189.389 129.117 189.002 129.117C188.631 129.117 188.281 129.064 187.953 128.959C187.629 128.854 187.342 128.701 187.092 128.502C186.842 128.299 186.646 128.051 186.506 127.758C186.365 127.461 186.295 127.123 186.295 126.744H187.379C187.379 127.041 187.443 127.301 187.572 127.523C187.705 127.746 187.893 127.92 188.135 128.045C188.381 128.166 188.67 128.227 189.002 128.227C189.334 128.227 189.619 128.17 189.857 128.057C190.1 127.939 190.285 127.764 190.414 127.529C190.547 127.295 190.613 127 190.613 126.645C190.613 126.289 190.539 125.998 190.391 125.771C190.242 125.541 190.031 125.371 189.758 125.262C189.488 125.148 189.17 125.092 188.803 125.092H188.029Z" fill="black"/>
<rect x="165" y="152" width="6" height="6" fill="black"/>
<path d="M179.82 150H180.91V157.77L180.816 159H179.82V150ZM185.193 155.777V155.9C185.193 156.361 185.139 156.789 185.029 157.184C184.92 157.574 184.76 157.914 184.549 158.203C184.338 158.492 184.08 158.717 183.775 158.877C183.471 159.037 183.121 159.117 182.727 159.117C182.324 159.117 181.971 159.049 181.666 158.912C181.365 158.771 181.111 158.57 180.904 158.309C180.697 158.047 180.531 157.73 180.406 157.359C180.285 156.988 180.201 156.57 180.154 156.105V155.566C180.201 155.098 180.285 154.678 180.406 154.307C180.531 153.936 180.697 153.619 180.904 153.357C181.111 153.092 181.365 152.891 181.666 152.754C181.967 152.613 182.316 152.543 182.715 152.543C183.113 152.543 183.467 152.621 183.775 152.777C184.084 152.93 184.342 153.148 184.549 153.434C184.76 153.719 184.92 154.061 185.029 154.459C185.139 154.854 185.193 155.293 185.193 155.777ZM184.104 155.9V155.777C184.104 155.461 184.074 155.164 184.016 154.887C183.957 154.605 183.863 154.359 183.734 154.148C183.605 153.934 183.436 153.766 183.225 153.645C183.014 153.52 182.754 153.457 182.445 153.457C182.172 153.457 181.934 153.504 181.73 153.598C181.531 153.691 181.361 153.818 181.221 153.979C181.08 154.135 180.965 154.314 180.875 154.518C180.789 154.717 180.725 154.924 180.682 155.139V156.551C180.744 156.824 180.846 157.088 180.986 157.342C181.131 157.592 181.322 157.797 181.561 157.957C181.803 158.117 182.102 158.197 182.457 158.197C182.75 158.197 183 158.139 183.207 158.021C183.418 157.9 183.588 157.734 183.717 157.523C183.85 157.312 183.947 157.068 184.01 156.791C184.072 156.514 184.104 156.217 184.104 155.9ZM192.213 156.129V157.02H186.049V156.381L189.869 150.469H190.754L189.805 152.18L187.279 156.129H192.213ZM191.023 150.469V159H189.939V150.469H191.023Z" fill="black"/>
<path d="M163 1H223V-1H163V1ZM242 20V172H244V20H242ZM223 191H163V193H223V191ZM144 172V20H142V172H144ZM163 191C152.507 191 144 182.493 144 172H142C142 183.598 151.402 193 163 193V191ZM242 172C242 182.493 233.493 191 223 191V193C234.598 193 244 183.598 244 172H242ZM223 1C233.493 1 242 9.50659 242 20H244C244 8.40202 234.598 -1 223 -1V1ZM163 -1C151.402 -1 142 8.40202 142 20H144C144 9.50659 152.507 1 163 1V-1Z" fill="black"/>
<path d="M15.1058 39.0801V40H10.5882V39.0801H15.1058ZM10.8167 31.4688V40H9.68588V31.4688H10.8167ZM14.5081 35.1367V36.0566H10.5882V35.1367H14.5081ZM15.0472 31.4688V32.3945H10.5882V31.4688H15.0472ZM17.4203 34.9199V40H16.3304V33.6602H17.3617L17.4203 34.9199ZM17.1976 36.5898L16.6937 36.5723C16.6976 36.1387 16.7542 35.7383 16.8636 35.3711C16.973 35 17.1351 34.6777 17.3499 34.4043C17.5648 34.1309 17.8324 33.9199 18.1527 33.7715C18.473 33.6191 18.8441 33.543 19.266 33.543C19.5628 33.543 19.8363 33.5859 20.0863 33.6719C20.3363 33.7539 20.5531 33.8848 20.7367 34.0645C20.9203 34.2441 21.0628 34.4746 21.1644 34.7559C21.266 35.0371 21.3167 35.377 21.3167 35.7754V40H20.2328V35.8281C20.2328 35.4961 20.1761 35.2305 20.0628 35.0312C19.9535 34.832 19.7972 34.6875 19.5941 34.5977C19.391 34.5039 19.1527 34.457 18.8792 34.457C18.5589 34.457 18.2914 34.5137 18.0765 34.627C17.8617 34.7402 17.6898 34.8965 17.5609 35.0957C17.432 35.2949 17.3382 35.5234 17.2796 35.7812C17.2249 36.0352 17.1976 36.3047 17.1976 36.5898ZM21.305 35.9922L20.5785 36.2148C20.5824 35.8672 20.639 35.5332 20.7484 35.2129C20.8617 34.8926 21.0238 34.6074 21.2347 34.3574C21.4496 34.1074 21.7132 33.9102 22.0257 33.7656C22.3382 33.6172 22.6956 33.543 23.098 33.543C23.4378 33.543 23.7386 33.5879 24.0003 33.6777C24.266 33.7676 24.4886 33.9062 24.6683 34.0938C24.8519 34.2773 24.9906 34.5137 25.0843 34.8027C25.1781 35.0918 25.2249 35.4355 25.2249 35.834V40H24.1351V35.8223C24.1351 35.4668 24.0785 35.1914 23.9652 34.9961C23.8558 34.7969 23.6996 34.6582 23.4964 34.5801C23.2972 34.498 23.0589 34.457 22.7816 34.457C22.5433 34.457 22.3324 34.498 22.1488 34.5801C21.9652 34.6621 21.8109 34.7754 21.6859 34.9199C21.5609 35.0605 21.4652 35.2227 21.3988 35.4062C21.3363 35.5898 21.305 35.7852 21.305 35.9922ZM27.9496 35.0137V40H26.8656V33.6602H27.891L27.9496 35.0137ZM27.6917 36.5898L27.2406 36.5723C27.2445 36.1387 27.3089 35.7383 27.4339 35.3711C27.5589 35 27.7347 34.6777 27.9613 34.4043C28.1878 34.1309 28.4574 33.9199 28.7699 33.7715C29.0863 33.6191 29.4359 33.543 29.8187 33.543C30.1312 33.543 30.4124 33.5859 30.6624 33.6719C30.9124 33.7539 31.1253 33.8867 31.3011 34.0703C31.4808 34.2539 31.6175 34.4922 31.7113 34.7852C31.805 35.0742 31.8519 35.4277 31.8519 35.8457V40H30.7621V35.834C30.7621 35.502 30.7132 35.2363 30.6156 35.0371C30.5179 34.834 30.3753 34.6875 30.1878 34.5977C30.0003 34.5039 29.7699 34.457 29.4964 34.457C29.2269 34.457 28.9808 34.5137 28.7581 34.627C28.5394 34.7402 28.3499 34.8965 28.1898 35.0957C28.0335 35.2949 27.9105 35.5234 27.8206 35.7812C27.7347 36.0352 27.6917 36.3047 27.6917 36.5898ZM36.1292 40.1172C35.6878 40.1172 35.2874 40.043 34.9281 39.8945C34.5726 39.7422 34.266 39.5293 34.0081 39.2559C33.7542 38.9824 33.5589 38.6582 33.4222 38.2832C33.2855 37.9082 33.2171 37.498 33.2171 37.0527V36.8066C33.2171 36.291 33.2933 35.832 33.4456 35.4297C33.598 35.0234 33.805 34.6797 34.0667 34.3984C34.3285 34.1172 34.6253 33.9043 34.9574 33.7598C35.2894 33.6152 35.6331 33.543 35.9886 33.543C36.4417 33.543 36.8324 33.6211 37.1605 33.7773C37.4925 33.9336 37.764 34.1523 37.9749 34.4336C38.1859 34.7109 38.3421 35.0391 38.4437 35.418C38.5453 35.793 38.596 36.2031 38.596 36.6484V37.1348H33.8617V36.25H37.5121V36.168C37.4964 35.8867 37.4378 35.6133 37.3363 35.3477C37.2386 35.082 37.0824 34.8633 36.8675 34.6914C36.6527 34.5195 36.3597 34.4336 35.9886 34.4336C35.7425 34.4336 35.516 34.4863 35.3089 34.5918C35.1019 34.6934 34.9242 34.8457 34.7757 35.0488C34.6273 35.252 34.5121 35.5 34.43 35.793C34.348 36.0859 34.307 36.4238 34.307 36.8066V37.0527C34.307 37.3535 34.348 37.6367 34.43 37.9023C34.516 38.1641 34.639 38.3945 34.7992 38.5938C34.9632 38.793 35.1605 38.9492 35.391 39.0625C35.6253 39.1758 35.891 39.2324 36.1878 39.2324C36.5706 39.2324 36.8949 39.1543 37.1605 38.998C37.4261 38.8418 37.6585 38.6328 37.8578 38.3711L38.514 38.8926C38.3773 39.0996 38.2035 39.2969 37.9925 39.4844C37.7816 39.6719 37.5218 39.8242 37.2132 39.9414C36.9085 40.0586 36.5472 40.1172 36.1292 40.1172Z" fill="black"/>
<rect x="71" y="62" width="6" height="6" rx="3" fill="black"/>
<path d="M20.1113 60.4688V69H18.998V60.4688H20.1113ZM22.8535 60.4688V61.3945H16.2617V60.4688H22.8535ZM26.4277 69H24.6465L24.6582 68.0801H26.4277C27.0371 68.0801 27.5449 67.9531 27.9512 67.6992C28.3574 67.4414 28.6621 67.082 28.8652 66.6211C29.0723 66.1562 29.1758 65.6133 29.1758 64.9922V64.4707C29.1758 63.9824 29.1172 63.5488 29 63.1699C28.8828 62.7871 28.7109 62.4648 28.4844 62.2031C28.2578 61.9375 27.9805 61.7363 27.6523 61.5996C27.3281 61.4629 26.9551 61.3945 26.5332 61.3945H24.6113V60.4688H26.5332C27.0918 60.4688 27.6016 60.5625 28.0625 60.75C28.5234 60.9336 28.9199 61.2012 29.252 61.5527C29.5879 61.9004 29.8457 62.3223 30.0254 62.8184C30.2051 63.3105 30.2949 63.8652 30.2949 64.4824V64.9922C30.2949 65.6094 30.2051 66.166 30.0254 66.6621C29.8457 67.1543 29.5859 67.5742 29.2461 67.9219C28.9102 68.2695 28.5039 68.5371 28.0273 68.7246C27.5547 68.9082 27.0215 69 26.4277 69ZM25.25 60.4688V69H24.1191V60.4688H25.25ZM34.9824 60.4688V69H33.8691V60.4688H34.9824ZM37.7246 60.4688V61.3945H31.1328V60.4688H37.7246ZM44.4746 66.1289V67.0195H38.3105V66.3809L42.1309 60.4688H43.0156L42.0664 62.1797L39.541 66.1289H44.4746ZM43.2852 60.4688V69H42.2012V60.4688H43.2852ZM49.0215 60.4219V69H47.9375V61.7754L45.752 62.5723V61.5938L48.8516 60.4219H49.0215ZM57.9746 66.1289V67.0195H51.8105V66.3809L55.6309 60.4688H56.5156L55.5664 62.1797L53.041 66.1289H57.9746ZM56.7852 60.4688V69H55.7012V60.4688H56.7852ZM60.3301 64.9395L59.4629 64.7168L59.8906 60.4688H64.2676V61.4707H60.8105L60.5527 63.791C60.709 63.7012 60.9062 63.6172 61.1445 63.5391C61.3867 63.4609 61.6641 63.4219 61.9766 63.4219C62.3711 63.4219 62.7246 63.4902 63.0371 63.627C63.3496 63.7598 63.6152 63.9512 63.834 64.2012C64.0566 64.4512 64.2266 64.752 64.3438 65.1035C64.4609 65.4551 64.5195 65.8477 64.5195 66.2812C64.5195 66.6914 64.4629 67.0684 64.3496 67.4121C64.2402 67.7559 64.0742 68.0566 63.8516 68.3145C63.6289 68.5684 63.3477 68.7656 63.0078 68.9062C62.6719 69.0469 62.2754 69.1172 61.8184 69.1172C61.4746 69.1172 61.1484 69.0703 60.8398 68.9766C60.5352 68.8789 60.2617 68.7324 60.0195 68.5371C59.7812 68.3379 59.5859 68.0918 59.4336 67.7988C59.2852 67.502 59.1914 67.1543 59.1523 66.7559H60.1836C60.2305 67.0762 60.3242 67.3457 60.4648 67.5645C60.6055 67.7832 60.7891 67.9492 61.0156 68.0625C61.2461 68.1719 61.5137 68.2266 61.8184 68.2266C62.0762 68.2266 62.3047 68.1816 62.5039 68.0918C62.7031 68.002 62.8711 67.873 63.0078 67.7051C63.1445 67.5371 63.248 67.334 63.3184 67.0957C63.3926 66.8574 63.4297 66.5898 63.4297 66.293C63.4297 66.0234 63.3926 65.7734 63.3184 65.543C63.2441 65.3125 63.1328 65.1113 62.9844 64.9395C62.8398 64.7676 62.6621 64.6348 62.4512 64.541C62.2402 64.4434 61.998 64.3945 61.7246 64.3945C61.3613 64.3945 61.0859 64.4434 60.8984 64.541C60.7148 64.6387 60.5254 64.7715 60.3301 64.9395Z" fill="black"/>
<rect x="71" y="92" width="6" height="6" rx="3" fill="black"/>
<path d="M20.1113 90.4688V99H18.998V90.4688H20.1113ZM22.8535 90.4688V91.3945H16.2617V90.4688H22.8535ZM26.4277 99H24.6465L24.6582 98.0801H26.4277C27.0371 98.0801 27.5449 97.9531 27.9512 97.6992C28.3574 97.4414 28.6621 97.082 28.8652 96.6211C29.0723 96.1562 29.1758 95.6133 29.1758 94.9922V94.4707C29.1758 93.9824 29.1172 93.5488 29 93.1699C28.8828 92.7871 28.7109 92.4648 28.4844 92.2031C28.2578 91.9375 27.9805 91.7363 27.6523 91.5996C27.3281 91.4629 26.9551 91.3945 26.5332 91.3945H24.6113V90.4688H26.5332C27.0918 90.4688 27.6016 90.5625 28.0625 90.75C28.5234 90.9336 28.9199 91.2012 29.252 91.5527C29.5879 91.9004 29.8457 92.3223 30.0254 92.8184C30.2051 93.3105 30.2949 93.8652 30.2949 94.4824V94.9922C30.2949 95.6094 30.2051 96.166 30.0254 96.6621C29.8457 97.1543 29.5859 97.5742 29.2461 97.9219C28.9102 98.2695 28.5039 98.5371 28.0273 98.7246C27.5547 98.9082 27.0215 99 26.4277 99ZM25.25 90.4688V99H24.1191V90.4688H25.25ZM34.9824 90.4688V99H33.8691V90.4688H34.9824ZM37.7246 90.4688V91.3945H31.1328V90.4688H37.7246ZM44.4746 96.1289V97.0195H38.3105V96.3809L42.1309 90.4688H43.0156L42.0664 92.1797L39.541 96.1289H44.4746ZM43.2852 90.4688V99H42.2012V90.4688H43.2852ZM49.0215 90.4219V99H47.9375V91.7754L45.752 92.5723V91.5938L48.8516 90.4219H49.0215ZM57.7988 98.1094V99H52.2148V98.2207L55.0098 95.1094C55.3535 94.7266 55.6191 94.4023 55.8066 94.1367C55.998 93.8672 56.1309 93.627 56.2051 93.416C56.2832 93.2012 56.3223 92.9824 56.3223 92.7598C56.3223 92.4785 56.2637 92.2246 56.1465 91.998C56.0332 91.7676 55.8652 91.584 55.6426 91.4473C55.4199 91.3105 55.1504 91.2422 54.834 91.2422C54.4551 91.2422 54.1387 91.3164 53.8848 91.4648C53.6348 91.6094 53.4473 91.8125 53.3223 92.0742C53.1973 92.3359 53.1348 92.6367 53.1348 92.9766H52.0508C52.0508 92.4961 52.1562 92.0566 52.3672 91.6582C52.5781 91.2598 52.8906 90.9434 53.3047 90.709C53.7188 90.4707 54.2285 90.3516 54.834 90.3516C55.373 90.3516 55.834 90.4473 56.2168 90.6387C56.5996 90.8262 56.8926 91.0918 57.0957 91.4355C57.3027 91.7754 57.4062 92.1738 57.4062 92.6309C57.4062 92.8809 57.3633 93.1348 57.2773 93.3926C57.1953 93.6465 57.0801 93.9004 56.9316 94.1543C56.7871 94.4082 56.6172 94.6582 56.4219 94.9043C56.2305 95.1504 56.0254 95.3926 55.8066 95.6309L53.5215 98.1094H57.7988ZM64.3145 94.0547V95.3555C64.3145 96.0547 64.252 96.6445 64.127 97.125C64.002 97.6055 63.8223 97.9922 63.5879 98.2852C63.3535 98.5781 63.0703 98.791 62.7383 98.9238C62.4102 99.0527 62.0391 99.1172 61.625 99.1172C61.2969 99.1172 60.9941 99.0762 60.7168 98.9941C60.4395 98.9121 60.1895 98.7812 59.9668 98.6016C59.748 98.418 59.5605 98.1797 59.4043 97.8867C59.248 97.5938 59.1289 97.2383 59.0469 96.8203C58.9648 96.4023 58.9238 95.9141 58.9238 95.3555V94.0547C58.9238 93.3555 58.9863 92.7695 59.1113 92.2969C59.2402 91.8242 59.4219 91.4453 59.6562 91.1602C59.8906 90.8711 60.1719 90.6641 60.5 90.5391C60.832 90.4141 61.2031 90.3516 61.6133 90.3516C61.9453 90.3516 62.25 90.3926 62.5273 90.4746C62.8086 90.5527 63.0586 90.6797 63.2773 90.8555C63.4961 91.0273 63.6816 91.2578 63.834 91.5469C63.9902 91.832 64.1094 92.1816 64.1914 92.5957C64.2734 93.0098 64.3145 93.4961 64.3145 94.0547ZM63.2246 95.5312V93.873C63.2246 93.4902 63.2012 93.1543 63.1543 92.8652C63.1113 92.5723 63.0469 92.3223 62.9609 92.1152C62.875 91.9082 62.7656 91.7402 62.6328 91.6113C62.5039 91.4824 62.3535 91.3887 62.1816 91.3301C62.0137 91.2676 61.8242 91.2363 61.6133 91.2363C61.3555 91.2363 61.127 91.2852 60.9277 91.3828C60.7285 91.4766 60.5605 91.627 60.4238 91.834C60.291 92.041 60.1895 92.3125 60.1191 92.6484C60.0488 92.9844 60.0137 93.3926 60.0137 93.873V95.5312C60.0137 95.9141 60.0352 96.252 60.0781 96.5449C60.125 96.8379 60.1934 97.0918 60.2832 97.3066C60.373 97.5176 60.4824 97.6914 60.6113 97.8281C60.7402 97.9648 60.8887 98.0664 61.0566 98.1328C61.2285 98.1953 61.418 98.2266 61.625 98.2266C61.8906 98.2266 62.123 98.1758 62.3223 98.0742C62.5215 97.9727 62.6875 97.8145 62.8203 97.5996C62.957 97.3809 63.0586 97.1016 63.125 96.7617C63.1914 96.418 63.2246 96.0078 63.2246 95.5312Z" fill="black"/>
<rect x="71" y="122" width="6" height="6" rx="3" fill="black"/>
<path d="M20.1113 120.469V129H18.998V120.469H20.1113ZM22.8535 120.469V121.395H16.2617V120.469H22.8535ZM26.4277 129H24.6465L24.6582 128.08H26.4277C27.0371 128.08 27.5449 127.953 27.9512 127.699C28.3574 127.441 28.6621 127.082 28.8652 126.621C29.0723 126.156 29.1758 125.613 29.1758 124.992V124.471C29.1758 123.982 29.1172 123.549 29 123.17C28.8828 122.787 28.7109 122.465 28.4844 122.203C28.2578 121.938 27.9805 121.736 27.6523 121.6C27.3281 121.463 26.9551 121.395 26.5332 121.395H24.6113V120.469H26.5332C27.0918 120.469 27.6016 120.562 28.0625 120.75C28.5234 120.934 28.9199 121.201 29.252 121.553C29.5879 121.9 29.8457 122.322 30.0254 122.818C30.2051 123.311 30.2949 123.865 30.2949 124.482V124.992C30.2949 125.609 30.2051 126.166 30.0254 126.662C29.8457 127.154 29.5859 127.574 29.2461 127.922C28.9102 128.27 28.5039 128.537 28.0273 128.725C27.5547 128.908 27.0215 129 26.4277 129ZM25.25 120.469V129H24.1191V120.469H25.25ZM34.9824 120.469V129H33.8691V120.469H34.9824ZM37.7246 120.469V121.395H31.1328V120.469H37.7246ZM44.4746 126.129V127.02H38.3105V126.381L42.1309 120.469H43.0156L42.0664 122.18L39.541 126.129H44.4746ZM43.2852 120.469V129H42.2012V120.469H43.2852ZM49.0215 120.422V129H47.9375V121.775L45.752 122.572V121.594L48.8516 120.422H49.0215ZM57.5645 124.055V125.355C57.5645 126.055 57.502 126.645 57.377 127.125C57.252 127.605 57.0723 127.992 56.8379 128.285C56.6035 128.578 56.3203 128.791 55.9883 128.924C55.6602 129.053 55.2891 129.117 54.875 129.117C54.5469 129.117 54.2441 129.076 53.9668 128.994C53.6895 128.912 53.4395 128.781 53.2168 128.602C52.998 128.418 52.8105 128.18 52.6543 127.887C52.498 127.594 52.3789 127.238 52.2969 126.82C52.2148 126.402 52.1738 125.914 52.1738 125.355V124.055C52.1738 123.355 52.2363 122.77 52.3613 122.297C52.4902 121.824 52.6719 121.445 52.9062 121.16C53.1406 120.871 53.4219 120.664 53.75 120.539C54.082 120.414 54.4531 120.352 54.8633 120.352C55.1953 120.352 55.5 120.393 55.7773 120.475C56.0586 120.553 56.3086 120.68 56.5273 120.855C56.7461 121.027 56.9316 121.258 57.084 121.547C57.2402 121.832 57.3594 122.182 57.4414 122.596C57.5234 123.01 57.5645 123.496 57.5645 124.055ZM56.4746 125.531V123.873C56.4746 123.49 56.4512 123.154 56.4043 122.865C56.3613 122.572 56.2969 122.322 56.2109 122.115C56.125 121.908 56.0156 121.74 55.8828 121.611C55.7539 121.482 55.6035 121.389 55.4316 121.33C55.2637 121.268 55.0742 121.236 54.8633 121.236C54.6055 121.236 54.377 121.285 54.1777 121.383C53.9785 121.477 53.8105 121.627 53.6738 121.834C53.541 122.041 53.4395 122.312 53.3691 122.648C53.2988 122.984 53.2637 123.393 53.2637 123.873V125.531C53.2637 125.914 53.2852 126.252 53.3281 126.545C53.375 126.838 53.4434 127.092 53.5332 127.307C53.623 127.518 53.7324 127.691 53.8613 127.828C53.9902 127.965 54.1387 128.066 54.3066 128.133C54.4785 128.195 54.668 128.227 54.875 128.227C55.1406 128.227 55.373 128.176 55.5723 128.074C55.7715 127.973 55.9375 127.814 56.0703 127.6C56.207 127.381 56.3086 127.102 56.375 126.762C56.4414 126.418 56.4746 126.008 56.4746 125.531ZM64.3145 124.055V125.355C64.3145 126.055 64.252 126.645 64.127 127.125C64.002 127.605 63.8223 127.992 63.5879 128.285C63.3535 128.578 63.0703 128.791 62.7383 128.924C62.4102 129.053 62.0391 129.117 61.625 129.117C61.2969 129.117 60.9941 129.076 60.7168 128.994C60.4395 128.912 60.1895 128.781 59.9668 128.602C59.748 128.418 59.5605 128.18 59.4043 127.887C59.248 127.594 59.1289 127.238 59.0469 126.82C58.9648 126.402 58.9238 125.914 58.9238 125.355V124.055C58.9238 123.355 58.9863 122.77 59.1113 122.297C59.2402 121.824 59.4219 121.445 59.6562 121.16C59.8906 120.871 60.1719 120.664 60.5 120.539C60.832 120.414 61.2031 120.352 61.6133 120.352C61.9453 120.352 62.25 120.393 62.5273 120.475C62.8086 120.553 63.0586 120.68 63.2773 120.855C63.4961 121.027 63.6816 121.258 63.834 121.547C63.9902 121.832 64.1094 122.182 64.1914 122.596C64.2734 123.01 64.3145 123.496 64.3145 124.055ZM63.2246 125.531V123.873C63.2246 123.49 63.2012 123.154 63.1543 122.865C63.1113 122.572 63.0469 122.322 62.9609 122.115C62.875 121.908 62.7656 121.74 62.6328 121.611C62.5039 121.482 62.3535 121.389 62.1816 121.33C62.0137 121.268 61.8242 121.236 61.6133 121.236C61.3555 121.236 61.127 121.285 60.9277 121.383C60.7285 121.477 60.5605 121.627 60.4238 121.834C60.291 122.041 60.1895 122.312 60.1191 122.648C60.0488 122.984 60.0137 123.393 60.0137 123.873V125.531C60.0137 125.914 60.0352 126.252 60.0781 126.545C60.125 126.838 60.1934 127.092 60.2832 127.307C60.373 127.518 60.4824 127.691 60.6113 127.828C60.7402 127.965 60.8887 128.066 61.0566 128.133C61.2285 128.195 61.418 128.227 61.625 128.227C61.8906 128.227 62.123 128.176 62.3223 128.074C62.5215 127.973 62.6875 127.814 62.8203 127.6C62.957 127.381 63.0586 127.102 63.125 126.762C63.1914 126.418 63.2246 126.008 63.2246 125.531Z" fill="black"/>
<rect x="71" y="152" width="6" height="6" rx="3" fill="black"/>
<path d="M20.1113 150.469V159H18.998V150.469H20.1113ZM22.8535 150.469V151.395H16.2617V150.469H22.8535ZM26.4277 159H24.6465L24.6582 158.08H26.4277C27.0371 158.08 27.5449 157.953 27.9512 157.699C28.3574 157.441 28.6621 157.082 28.8652 156.621C29.0723 156.156 29.1758 155.613 29.1758 154.992V154.471C29.1758 153.982 29.1172 153.549 29 153.17C28.8828 152.787 28.7109 152.465 28.4844 152.203C28.2578 151.938 27.9805 151.736 27.6523 151.6C27.3281 151.463 26.9551 151.395 26.5332 151.395H24.6113V150.469H26.5332C27.0918 150.469 27.6016 150.562 28.0625 150.75C28.5234 150.934 28.9199 151.201 29.252 151.553C29.5879 151.9 29.8457 152.322 30.0254 152.818C30.2051 153.311 30.2949 153.865 30.2949 154.482V154.992C30.2949 155.609 30.2051 156.166 30.0254 156.662C29.8457 157.154 29.5859 157.574 29.2461 157.922C28.9102 158.27 28.5039 158.537 28.0273 158.725C27.5547 158.908 27.0215 159 26.4277 159ZM25.25 150.469V159H24.1191V150.469H25.25ZM34.9824 150.469V159H33.8691V150.469H34.9824ZM37.7246 150.469V151.395H31.1328V150.469H37.7246ZM44.4746 156.129V157.02H38.3105V156.381L42.1309 150.469H43.0156L42.0664 152.18L39.541 156.129H44.4746ZM43.2852 150.469V159H42.2012V150.469H43.2852ZM49.0215 150.422V159H47.9375V151.775L45.752 152.572V151.594L48.8516 150.422H49.0215ZM55.7715 150.422V159H54.6875V151.775L52.502 152.572V151.594L55.6016 150.422H55.7715ZM64.3145 154.055V155.355C64.3145 156.055 64.252 156.645 64.127 157.125C64.002 157.605 63.8223 157.992 63.5879 158.285C63.3535 158.578 63.0703 158.791 62.7383 158.924C62.4102 159.053 62.0391 159.117 61.625 159.117C61.2969 159.117 60.9941 159.076 60.7168 158.994C60.4395 158.912 60.1895 158.781 59.9668 158.602C59.748 158.418 59.5605 158.18 59.4043 157.887C59.248 157.594 59.1289 157.238 59.0469 156.82C58.9648 156.402 58.9238 155.914 58.9238 155.355V154.055C58.9238 153.355 58.9863 152.77 59.1113 152.297C59.2402 151.824 59.4219 151.445 59.6562 151.16C59.8906 150.871 60.1719 150.664 60.5 150.539C60.832 150.414 61.2031 150.352 61.6133 150.352C61.9453 150.352 62.25 150.393 62.5273 150.475C62.8086 150.553 63.0586 150.68 63.2773 150.855C63.4961 151.027 63.6816 151.258 63.834 151.547C63.9902 151.832 64.1094 152.182 64.1914 152.596C64.2734 153.01 64.3145 153.496 64.3145 154.055ZM63.2246 155.531V153.873C63.2246 153.49 63.2012 153.154 63.1543 152.865C63.1113 152.572 63.0469 152.322 62.9609 152.115C62.875 151.908 62.7656 151.74 62.6328 151.611C62.5039 151.482 62.3535 151.389 62.1816 151.33C62.0137 151.268 61.8242 151.236 61.6133 151.236C61.3555 151.236 61.127 151.285 60.9277 151.383C60.7285 151.477 60.5605 151.627 60.4238 151.834C60.291 152.041 60.1895 152.312 60.1191 152.648C60.0488 152.984 60.0137 153.393 60.0137 153.873V155.531C60.0137 155.914 60.0352 156.252 60.0781 156.545C60.125 156.838 60.1934 157.092 60.2832 157.307C60.373 157.518 60.4824 157.691 60.6113 157.828C60.7402 157.965 60.8887 158.066 61.0566 158.133C61.2285 158.195 61.418 158.227 61.625 158.227C61.8906 158.227 62.123 158.176 62.3223 158.074C62.5215 157.973 62.6875 157.814 62.8203 157.6C62.957 157.381 63.0586 157.102 63.125 156.762C63.1914 156.418 63.2246 156.008 63.2246 155.531Z" fill="black"/>
<path d="M20 1H80V-1H20V1ZM99 20V172H101V20H99ZM80 191H20V193H80V191ZM1 172V20H-1V172H1ZM20 191C9.50659 191 1 182.493 1 172H-1C-1 183.598 8.40202 193 20 193V191ZM99 172C99 182.493 90.4934 191 80 191V193C91.598 193 101 183.598 101 172H99ZM80 1C90.4934 1 99 9.50659 99 20H101C101 8.40202 91.598 -1 80 -1V1ZM20 -1C8.40202 -1 -1 8.40202 -1 20H1C1 9.50659 9.50659 1 20 1V-1Z" fill="black"/>
</svg>
