<svg width="348" height="343" viewBox="0 0 348 343" fill="none" xmlns="http://www.w3.org/2000/svg">
<path fill-rule="evenodd" clip-rule="evenodd" d="M270.798 153.44L149.356 276.351L149.022 276.69L148.667 276.373L74.167 209.873L74.8329 209.127L148.978 275.31L264.94 157.946L149.305 246.896L148.977 247.148L148.668 246.874L73.6683 180.374L74.3317 179.626L149.023 245.852L270.134 152.689L272.644 150.149L273.356 150.851L272.594 151.622L272.805 151.896L270.798 153.44ZM273.305 211.396L149.305 306.896L148.978 307.148L148.668 306.874L73.6683 240.374L74.3317 239.626L149.022 305.852L272.695 210.604L273.305 211.396Z" fill="#0066FF"/>
<path fill-rule="evenodd" clip-rule="evenodd" d="M148.783 64.5876L148.417 64.3366L148.124 64.6704L73.624 149.67L74.376 150.33L148.583 65.6634L272.217 150.412L272.783 149.588L148.783 64.5876ZM149.285 94.5891L148.861 94.2954L148.581 94.7277L73.5806 210.228L74.4193 210.772L149.139 95.7046L268.133 178.233L149.207 124.045L148.814 123.866L148.58 124.229L73.5801 240.229L74.4199 240.771L149.185 125.134L272.793 181.455L273.285 180.589L149.285 94.5891Z" fill="#FF007A"/>
<path d="M136.727 36.0098H134.565L134.553 35.1016H136.516C136.84 35.1016 137.123 35.0469 137.366 34.9375C137.608 34.8281 137.795 34.6719 137.928 34.4688C138.065 34.2617 138.133 34.0156 138.133 33.7305C138.133 33.418 138.073 33.1641 137.952 32.9688C137.834 32.7695 137.653 32.625 137.407 32.5352C137.164 32.4414 136.856 32.3945 136.481 32.3945H134.817V40H133.686V31.4688H136.481C136.918 31.4688 137.309 31.5137 137.653 31.6035C137.996 31.6895 138.287 31.8262 138.526 32.0137C138.768 32.1973 138.952 32.4316 139.077 32.7168C139.202 33.002 139.264 33.3438 139.264 33.7422C139.264 34.0938 139.174 34.4121 138.994 34.6973C138.815 34.9785 138.565 35.209 138.244 35.3887C137.928 35.5684 137.557 35.6836 137.131 35.7344L136.727 36.0098ZM136.674 40H134.119L134.758 39.0801H136.674C137.034 39.0801 137.338 39.0176 137.588 38.8926C137.842 38.7676 138.035 38.5918 138.168 38.3652C138.301 38.1348 138.368 37.8633 138.368 37.5508C138.368 37.2344 138.311 36.9609 138.198 36.7305C138.084 36.5 137.907 36.3223 137.664 36.1973C137.422 36.0723 137.11 36.0098 136.727 36.0098H135.116L135.127 35.1016H137.33L137.571 35.4297C137.981 35.4648 138.328 35.582 138.614 35.7812C138.899 35.9766 139.116 36.2266 139.264 36.5312C139.416 36.8359 139.493 37.1719 139.493 37.5391C139.493 38.0703 139.375 38.5195 139.141 38.8867C138.91 39.25 138.584 39.5273 138.162 39.7188C137.741 39.9062 137.244 40 136.674 40ZM142.176 33.6602V40H141.086V33.6602H142.176ZM141.004 31.9785C141.004 31.8027 141.057 31.6543 141.162 31.5332C141.272 31.4121 141.432 31.3516 141.643 31.3516C141.85 31.3516 142.008 31.4121 142.118 31.5332C142.231 31.6543 142.287 31.8027 142.287 31.9785C142.287 32.1465 142.231 32.291 142.118 32.4121C142.008 32.5293 141.85 32.5879 141.643 32.5879C141.432 32.5879 141.272 32.5293 141.162 32.4121C141.057 32.291 141.004 32.1465 141.004 31.9785ZM146.571 33.6602V34.4922H143.143V33.6602H146.571ZM144.303 32.1191H145.387V38.4297C145.387 38.6445 145.42 38.8066 145.487 38.916C145.553 39.0254 145.639 39.0977 145.744 39.1328C145.85 39.168 145.963 39.1855 146.084 39.1855C146.174 39.1855 146.268 39.1777 146.366 39.1621C146.467 39.1426 146.543 39.127 146.594 39.1152L146.6 40C146.514 40.0273 146.401 40.0527 146.26 40.0762C146.123 40.1035 145.957 40.1172 145.762 40.1172C145.496 40.1172 145.252 40.0645 145.03 39.959C144.807 39.8535 144.629 39.6777 144.496 39.4316C144.368 39.1816 144.303 38.8457 144.303 38.4238V32.1191ZM150.496 33.6602V34.4922H147.069V33.6602H150.496ZM148.229 32.1191H149.313V38.4297C149.313 38.6445 149.346 38.8066 149.412 38.916C149.479 39.0254 149.565 39.0977 149.67 39.1328C149.776 39.168 149.889 39.1855 150.01 39.1855C150.1 39.1855 150.194 39.1777 150.291 39.1621C150.393 39.1426 150.469 39.127 150.52 39.1152L150.526 40C150.44 40.0273 150.327 40.0527 150.186 40.0762C150.049 40.1035 149.883 40.1172 149.688 40.1172C149.422 40.1172 149.178 40.0645 148.955 39.959C148.733 39.8535 148.555 39.6777 148.422 39.4316C148.293 39.1816 148.229 38.8457 148.229 38.4238V32.1191ZM155.09 32.2246L152.266 40H151.112L154.364 31.4688H155.108L155.09 32.2246ZM157.457 40L154.627 32.2246L154.61 31.4688H155.354L158.618 40H157.457ZM157.311 36.8418V37.7676H152.518V36.8418H157.311ZM161.231 39.0215L162.965 33.6602H164.073L161.793 40H161.067L161.231 39.0215ZM159.784 33.6602L161.571 39.0508L161.694 40H160.967L158.67 33.6602H159.784Z" fill="black"/>
<rect x="146" y="62" width="6" height="6" fill="black"/>
<path d="M160.82 60H161.91V67.7695L161.816 69H160.82V60ZM166.193 65.7773V65.9004C166.193 66.3613 166.139 66.7891 166.029 67.1836C165.92 67.5742 165.76 67.9141 165.549 68.2031C165.338 68.4922 165.08 68.7168 164.775 68.877C164.471 69.0371 164.121 69.1172 163.727 69.1172C163.324 69.1172 162.971 69.0488 162.666 68.9121C162.365 68.7715 162.111 68.5703 161.904 68.3086C161.697 68.0469 161.531 67.7305 161.406 67.3594C161.285 66.9883 161.201 66.5703 161.154 66.1055V65.5664C161.201 65.0977 161.285 64.6777 161.406 64.3066C161.531 63.9355 161.697 63.6191 161.904 63.3574C162.111 63.0918 162.365 62.8906 162.666 62.7539C162.967 62.6133 163.316 62.543 163.715 62.543C164.113 62.543 164.467 62.6211 164.775 62.7773C165.084 62.9297 165.342 63.1484 165.549 63.4336C165.76 63.7188 165.92 64.0605 166.029 64.459C166.139 64.8535 166.193 65.293 166.193 65.7773ZM165.104 65.9004V65.7773C165.104 65.4609 165.074 65.1641 165.016 64.8867C164.957 64.6055 164.863 64.3594 164.734 64.1484C164.605 63.9336 164.436 63.7656 164.225 63.6445C164.014 63.5195 163.754 63.457 163.445 63.457C163.172 63.457 162.934 63.5039 162.73 63.5977C162.531 63.6914 162.361 63.8184 162.221 63.9785C162.08 64.1348 161.965 64.3145 161.875 64.5176C161.789 64.7168 161.725 64.9238 161.682 65.1387V66.5508C161.744 66.8242 161.846 67.0879 161.986 67.3418C162.131 67.5918 162.322 67.7969 162.561 67.957C162.803 68.1172 163.102 68.1973 163.457 68.1973C163.75 68.1973 164 68.1387 164.207 68.0215C164.418 67.9004 164.588 67.7344 164.717 67.5234C164.85 67.3125 164.947 67.0684 165.01 66.791C165.072 66.5137 165.104 66.2168 165.104 65.9004ZM171.01 60.4219V69H169.926V61.7754L167.74 62.5723V61.5938L170.84 60.4219H171.01Z" fill="black"/>
<rect x="146" y="92" width="6" height="6" fill="black"/>
<path d="M160.82 90H161.91V97.7695L161.816 99H160.82V90ZM166.193 95.7773V95.9004C166.193 96.3613 166.139 96.7891 166.029 97.1836C165.92 97.5742 165.76 97.9141 165.549 98.2031C165.338 98.4922 165.08 98.7168 164.775 98.877C164.471 99.0371 164.121 99.1172 163.727 99.1172C163.324 99.1172 162.971 99.0488 162.666 98.9121C162.365 98.7715 162.111 98.5703 161.904 98.3086C161.697 98.0469 161.531 97.7305 161.406 97.3594C161.285 96.9883 161.201 96.5703 161.154 96.1055V95.5664C161.201 95.0977 161.285 94.6777 161.406 94.3066C161.531 93.9355 161.697 93.6191 161.904 93.3574C162.111 93.0918 162.365 92.8906 162.666 92.7539C162.967 92.6133 163.316 92.543 163.715 92.543C164.113 92.543 164.467 92.6211 164.775 92.7773C165.084 92.9297 165.342 93.1484 165.549 93.4336C165.76 93.7188 165.92 94.0605 166.029 94.459C166.139 94.8535 166.193 95.293 166.193 95.7773ZM165.104 95.9004V95.7773C165.104 95.4609 165.074 95.1641 165.016 94.8867C164.957 94.6055 164.863 94.3594 164.734 94.1484C164.605 93.9336 164.436 93.7656 164.225 93.6445C164.014 93.5195 163.754 93.457 163.445 93.457C163.172 93.457 162.934 93.5039 162.73 93.5977C162.531 93.6914 162.361 93.8184 162.221 93.9785C162.08 94.1348 161.965 94.3145 161.875 94.5176C161.789 94.7168 161.725 94.9238 161.682 95.1387V96.5508C161.744 96.8242 161.846 97.0879 161.986 97.3418C162.131 97.5918 162.322 97.7969 162.561 97.957C162.803 98.1172 163.102 98.1973 163.457 98.1973C163.75 98.1973 164 98.1387 164.207 98.0215C164.418 97.9004 164.588 97.7344 164.717 97.5234C164.85 97.3125 164.947 97.0684 165.01 96.791C165.072 96.5137 165.104 96.2168 165.104 95.9004ZM173.037 98.1094V99H167.453V98.2207L170.248 95.1094C170.592 94.7266 170.857 94.4023 171.045 94.1367C171.236 93.8672 171.369 93.627 171.443 93.416C171.521 93.2012 171.561 92.9824 171.561 92.7598C171.561 92.4785 171.502 92.2246 171.385 91.998C171.271 91.7676 171.104 91.584 170.881 91.4473C170.658 91.3105 170.389 91.2422 170.072 91.2422C169.693 91.2422 169.377 91.3164 169.123 91.4648C168.873 91.6094 168.686 91.8125 168.561 92.0742C168.436 92.3359 168.373 92.6367 168.373 92.9766H167.289C167.289 92.4961 167.395 92.0566 167.605 91.6582C167.816 91.2598 168.129 90.9434 168.543 90.709C168.957 90.4707 169.467 90.3516 170.072 90.3516C170.611 90.3516 171.072 90.4473 171.455 90.6387C171.838 90.8262 172.131 91.0918 172.334 91.4355C172.541 91.7754 172.645 92.1738 172.645 92.6309C172.645 92.8809 172.602 93.1348 172.516 93.3926C172.434 93.6465 172.318 93.9004 172.17 94.1543C172.025 94.4082 171.855 94.6582 171.66 94.9043C171.469 95.1504 171.264 95.3926 171.045 95.6309L168.76 98.1094H173.037Z" fill="black"/>
<rect x="146" y="122" width="6" height="6" fill="black"/>
<path d="M160.82 120H161.91V127.77L161.816 129H160.82V120ZM166.193 125.777V125.9C166.193 126.361 166.139 126.789 166.029 127.184C165.92 127.574 165.76 127.914 165.549 128.203C165.338 128.492 165.08 128.717 164.775 128.877C164.471 129.037 164.121 129.117 163.727 129.117C163.324 129.117 162.971 129.049 162.666 128.912C162.365 128.771 162.111 128.57 161.904 128.309C161.697 128.047 161.531 127.73 161.406 127.359C161.285 126.988 161.201 126.57 161.154 126.105V125.566C161.201 125.098 161.285 124.678 161.406 124.307C161.531 123.936 161.697 123.619 161.904 123.357C162.111 123.092 162.365 122.891 162.666 122.754C162.967 122.613 163.316 122.543 163.715 122.543C164.113 122.543 164.467 122.621 164.775 122.777C165.084 122.93 165.342 123.148 165.549 123.434C165.76 123.719 165.92 124.061 166.029 124.459C166.139 124.854 166.193 125.293 166.193 125.777ZM165.104 125.9V125.777C165.104 125.461 165.074 125.164 165.016 124.887C164.957 124.605 164.863 124.359 164.734 124.148C164.605 123.934 164.436 123.766 164.225 123.645C164.014 123.52 163.754 123.457 163.445 123.457C163.172 123.457 162.934 123.504 162.73 123.598C162.531 123.691 162.361 123.818 162.221 123.979C162.08 124.135 161.965 124.314 161.875 124.518C161.789 124.717 161.725 124.924 161.682 125.139V126.551C161.744 126.824 161.846 127.088 161.986 127.342C162.131 127.592 162.322 127.797 162.561 127.957C162.803 128.117 163.102 128.197 163.457 128.197C163.75 128.197 164 128.139 164.207 128.021C164.418 127.9 164.588 127.734 164.717 127.523C164.85 127.312 164.947 127.068 165.01 126.791C165.072 126.514 165.104 126.217 165.104 125.9ZM169.029 124.201H169.803C170.182 124.201 170.494 124.139 170.74 124.014C170.99 123.885 171.176 123.711 171.297 123.492C171.422 123.27 171.484 123.02 171.484 122.742C171.484 122.414 171.43 122.139 171.32 121.916C171.211 121.693 171.047 121.525 170.828 121.412C170.609 121.299 170.332 121.242 169.996 121.242C169.691 121.242 169.422 121.303 169.188 121.424C168.957 121.541 168.775 121.709 168.643 121.928C168.514 122.146 168.449 122.404 168.449 122.701H167.365C167.365 122.268 167.475 121.873 167.693 121.518C167.912 121.162 168.219 120.879 168.613 120.668C169.012 120.457 169.473 120.352 169.996 120.352C170.512 120.352 170.963 120.443 171.35 120.627C171.736 120.807 172.037 121.076 172.252 121.436C172.467 121.791 172.574 122.234 172.574 122.766C172.574 122.98 172.523 123.211 172.422 123.457C172.324 123.699 172.17 123.926 171.959 124.137C171.752 124.348 171.482 124.521 171.15 124.658C170.818 124.791 170.42 124.857 169.955 124.857H169.029V124.201ZM169.029 125.092V124.441H169.955C170.498 124.441 170.947 124.506 171.303 124.635C171.658 124.764 171.938 124.936 172.141 125.15C172.348 125.365 172.492 125.602 172.574 125.859C172.66 126.113 172.703 126.367 172.703 126.621C172.703 127.02 172.635 127.373 172.498 127.682C172.365 127.99 172.176 128.252 171.93 128.467C171.688 128.682 171.402 128.844 171.074 128.953C170.746 129.062 170.389 129.117 170.002 129.117C169.631 129.117 169.281 129.064 168.953 128.959C168.629 128.854 168.342 128.701 168.092 128.502C167.842 128.299 167.646 128.051 167.506 127.758C167.365 127.461 167.295 127.123 167.295 126.744H168.379C168.379 127.041 168.443 127.301 168.572 127.523C168.705 127.746 168.893 127.92 169.135 128.045C169.381 128.166 169.67 128.227 170.002 128.227C170.334 128.227 170.619 128.17 170.857 128.057C171.1 127.939 171.285 127.764 171.414 127.529C171.547 127.295 171.613 127 171.613 126.645C171.613 126.289 171.539 125.998 171.391 125.771C171.242 125.541 171.031 125.371 170.758 125.262C170.488 125.148 170.17 125.092 169.803 125.092H169.029Z" fill="black"/>
<path d="M144 1H204V-1H144V1ZM223 20V142H225V20H223ZM204 161H144V163H204V161ZM125 142V20H123V142H125ZM144 161C133.507 161 125 152.493 125 142H123C123 153.598 132.402 163 144 163V161ZM223 142C223 152.493 214.493 161 204 161V163C215.598 163 225 153.598 225 142H223ZM204 1C214.493 1 223 9.50659 223 20H225C225 8.40202 215.598 -1 204 -1V1ZM144 -1C132.402 -1 123 8.40202 123 20H125C125 9.50659 133.507 1 144 1V-1Z" fill="black"/>
<path d="M139.106 220.08V221H134.588V220.08H139.106ZM134.817 212.469V221H133.686V212.469H134.817ZM138.508 216.137V217.057H134.588V216.137H138.508ZM139.047 212.469V213.395H134.588V212.469H139.047ZM141.52 214.66V221H140.43V214.66H141.52ZM140.348 212.979C140.348 212.803 140.401 212.654 140.506 212.533C140.616 212.412 140.776 212.352 140.987 212.352C141.194 212.352 141.352 212.412 141.461 212.533C141.575 212.654 141.631 212.803 141.631 212.979C141.631 213.146 141.575 213.291 141.461 213.412C141.352 213.529 141.194 213.588 140.987 213.588C140.776 213.588 140.616 213.529 140.506 213.412C140.401 213.291 140.348 213.146 140.348 212.979ZM145.891 221.117C145.45 221.117 145.049 221.043 144.69 220.895C144.334 220.742 144.028 220.529 143.77 220.256C143.516 219.982 143.321 219.658 143.184 219.283C143.047 218.908 142.979 218.498 142.979 218.053V217.807C142.979 217.291 143.055 216.832 143.207 216.43C143.36 216.023 143.567 215.68 143.828 215.398C144.09 215.117 144.387 214.904 144.719 214.76C145.051 214.615 145.395 214.543 145.75 214.543C146.203 214.543 146.594 214.621 146.922 214.777C147.254 214.934 147.526 215.152 147.737 215.434C147.948 215.711 148.104 216.039 148.205 216.418C148.307 216.793 148.358 217.203 148.358 217.648V218.135H143.623V217.25H147.274V217.168C147.258 216.887 147.2 216.613 147.098 216.348C147 216.082 146.844 215.863 146.629 215.691C146.414 215.52 146.121 215.434 145.75 215.434C145.504 215.434 145.278 215.486 145.071 215.592C144.864 215.693 144.686 215.846 144.537 216.049C144.389 216.252 144.274 216.5 144.192 216.793C144.11 217.086 144.069 217.424 144.069 217.807V218.053C144.069 218.354 144.11 218.637 144.192 218.902C144.278 219.164 144.401 219.395 144.561 219.594C144.725 219.793 144.922 219.949 145.153 220.062C145.387 220.176 145.653 220.232 145.95 220.232C146.332 220.232 146.657 220.154 146.922 219.998C147.188 219.842 147.42 219.633 147.619 219.371L148.276 219.893C148.139 220.1 147.965 220.297 147.754 220.484C147.543 220.672 147.284 220.824 146.975 220.941C146.67 221.059 146.309 221.117 145.891 221.117ZM150.707 215.656V221H149.623V214.66H150.678L150.707 215.656ZM152.688 214.625L152.682 215.633C152.592 215.613 152.506 215.602 152.424 215.598C152.346 215.59 152.256 215.586 152.155 215.586C151.905 215.586 151.684 215.625 151.493 215.703C151.301 215.781 151.139 215.891 151.006 216.031C150.873 216.172 150.768 216.34 150.69 216.535C150.616 216.727 150.567 216.938 150.543 217.168L150.239 217.344C150.239 216.961 150.276 216.602 150.35 216.266C150.428 215.93 150.547 215.633 150.707 215.375C150.868 215.113 151.071 214.91 151.317 214.766C151.567 214.617 151.864 214.543 152.207 214.543C152.285 214.543 152.375 214.553 152.477 214.572C152.578 214.588 152.649 214.605 152.688 214.625Z" fill="black"/>
<rect x="146" y="243" width="6" height="6" fill="black"/>
<path d="M163.457 250.117C163.016 250.117 162.615 250.043 162.256 249.895C161.9 249.742 161.594 249.529 161.336 249.256C161.082 248.982 160.887 248.658 160.75 248.283C160.613 247.908 160.545 247.498 160.545 247.053V246.807C160.545 246.291 160.621 245.832 160.773 245.43C160.926 245.023 161.133 244.68 161.395 244.398C161.656 244.117 161.953 243.904 162.285 243.76C162.617 243.615 162.961 243.543 163.316 243.543C163.77 243.543 164.16 243.621 164.488 243.777C164.82 243.934 165.092 244.152 165.303 244.434C165.514 244.711 165.67 245.039 165.771 245.418C165.873 245.793 165.924 246.203 165.924 246.648V247.135H161.189V246.25H164.84V246.168C164.824 245.887 164.766 245.613 164.664 245.348C164.566 245.082 164.41 244.863 164.195 244.691C163.98 244.52 163.688 244.434 163.316 244.434C163.07 244.434 162.844 244.486 162.637 244.592C162.43 244.693 162.252 244.846 162.104 245.049C161.955 245.252 161.84 245.5 161.758 245.793C161.676 246.086 161.635 246.424 161.635 246.807V247.053C161.635 247.354 161.676 247.637 161.758 247.902C161.844 248.164 161.967 248.395 162.127 248.594C162.291 248.793 162.488 248.949 162.719 249.062C162.953 249.176 163.219 249.232 163.516 249.232C163.898 249.232 164.223 249.154 164.488 248.998C164.754 248.842 164.986 248.633 165.186 248.371L165.842 248.893C165.705 249.1 165.531 249.297 165.32 249.484C165.109 249.672 164.85 249.824 164.541 249.941C164.236 250.059 163.875 250.117 163.457 250.117ZM170.635 241.422V250H169.551V242.775L167.365 243.572V242.594L170.465 241.422H170.635Z" fill="black"/>
<rect x="146" y="273" width="6" height="6" fill="black"/>
<path d="M163.457 280.117C163.016 280.117 162.615 280.043 162.256 279.895C161.9 279.742 161.594 279.529 161.336 279.256C161.082 278.982 160.887 278.658 160.75 278.283C160.613 277.908 160.545 277.498 160.545 277.053V276.807C160.545 276.291 160.621 275.832 160.773 275.43C160.926 275.023 161.133 274.68 161.395 274.398C161.656 274.117 161.953 273.904 162.285 273.76C162.617 273.615 162.961 273.543 163.316 273.543C163.77 273.543 164.16 273.621 164.488 273.777C164.82 273.934 165.092 274.152 165.303 274.434C165.514 274.711 165.67 275.039 165.771 275.418C165.873 275.793 165.924 276.203 165.924 276.648V277.135H161.189V276.25H164.84V276.168C164.824 275.887 164.766 275.613 164.664 275.348C164.566 275.082 164.41 274.863 164.195 274.691C163.98 274.52 163.688 274.434 163.316 274.434C163.07 274.434 162.844 274.486 162.637 274.592C162.43 274.693 162.252 274.846 162.104 275.049C161.955 275.252 161.84 275.5 161.758 275.793C161.676 276.086 161.635 276.424 161.635 276.807V277.053C161.635 277.354 161.676 277.637 161.758 277.902C161.844 278.164 161.967 278.395 162.127 278.594C162.291 278.793 162.488 278.949 162.719 279.062C162.953 279.176 163.219 279.232 163.516 279.232C163.898 279.232 164.223 279.154 164.488 278.998C164.754 278.842 164.986 278.633 165.186 278.371L165.842 278.893C165.705 279.1 165.531 279.297 165.32 279.484C165.109 279.672 164.85 279.824 164.541 279.941C164.236 280.059 163.875 280.117 163.457 280.117ZM172.662 279.109V280H167.078V279.221L169.873 276.109C170.217 275.727 170.482 275.402 170.67 275.137C170.861 274.867 170.994 274.627 171.068 274.416C171.146 274.201 171.186 273.982 171.186 273.76C171.186 273.479 171.127 273.225 171.01 272.998C170.896 272.768 170.729 272.584 170.506 272.447C170.283 272.311 170.014 272.242 169.697 272.242C169.318 272.242 169.002 272.316 168.748 272.465C168.498 272.609 168.311 272.812 168.186 273.074C168.061 273.336 167.998 273.637 167.998 273.977H166.914C166.914 273.496 167.02 273.057 167.23 272.658C167.441 272.26 167.754 271.943 168.168 271.709C168.582 271.471 169.092 271.352 169.697 271.352C170.236 271.352 170.697 271.447 171.08 271.639C171.463 271.826 171.756 272.092 171.959 272.436C172.166 272.775 172.27 273.174 172.27 273.631C172.27 273.881 172.227 274.135 172.141 274.393C172.059 274.646 171.943 274.9 171.795 275.154C171.65 275.408 171.48 275.658 171.285 275.904C171.094 276.15 170.889 276.393 170.67 276.631L168.385 279.109H172.662Z" fill="black"/>
<rect x="146" y="303" width="6" height="6" fill="black"/>
<path d="M163.457 310.117C163.016 310.117 162.615 310.043 162.256 309.895C161.9 309.742 161.594 309.529 161.336 309.256C161.082 308.982 160.887 308.658 160.75 308.283C160.613 307.908 160.545 307.498 160.545 307.053V306.807C160.545 306.291 160.621 305.832 160.773 305.43C160.926 305.023 161.133 304.68 161.395 304.398C161.656 304.117 161.953 303.904 162.285 303.76C162.617 303.615 162.961 303.543 163.316 303.543C163.77 303.543 164.16 303.621 164.488 303.777C164.82 303.934 165.092 304.152 165.303 304.434C165.514 304.711 165.67 305.039 165.771 305.418C165.873 305.793 165.924 306.203 165.924 306.648V307.135H161.189V306.25H164.84V306.168C164.824 305.887 164.766 305.613 164.664 305.348C164.566 305.082 164.41 304.863 164.195 304.691C163.98 304.52 163.688 304.434 163.316 304.434C163.07 304.434 162.844 304.486 162.637 304.592C162.43 304.693 162.252 304.846 162.104 305.049C161.955 305.252 161.84 305.5 161.758 305.793C161.676 306.086 161.635 306.424 161.635 306.807V307.053C161.635 307.354 161.676 307.637 161.758 307.902C161.844 308.164 161.967 308.395 162.127 308.594C162.291 308.793 162.488 308.949 162.719 309.062C162.953 309.176 163.219 309.232 163.516 309.232C163.898 309.232 164.223 309.154 164.488 308.998C164.754 308.842 164.986 308.633 165.186 308.371L165.842 308.893C165.705 309.1 165.531 309.297 165.32 309.484C165.109 309.672 164.85 309.824 164.541 309.941C164.236 310.059 163.875 310.117 163.457 310.117ZM168.654 305.201H169.428C169.807 305.201 170.119 305.139 170.365 305.014C170.615 304.885 170.801 304.711 170.922 304.492C171.047 304.27 171.109 304.02 171.109 303.742C171.109 303.414 171.055 303.139 170.945 302.916C170.836 302.693 170.672 302.525 170.453 302.412C170.234 302.299 169.957 302.242 169.621 302.242C169.316 302.242 169.047 302.303 168.812 302.424C168.582 302.541 168.4 302.709 168.268 302.928C168.139 303.146 168.074 303.404 168.074 303.701H166.99C166.99 303.268 167.1 302.873 167.318 302.518C167.537 302.162 167.844 301.879 168.238 301.668C168.637 301.457 169.098 301.352 169.621 301.352C170.137 301.352 170.588 301.443 170.975 301.627C171.361 301.807 171.662 302.076 171.877 302.436C172.092 302.791 172.199 303.234 172.199 303.766C172.199 303.98 172.148 304.211 172.047 304.457C171.949 304.699 171.795 304.926 171.584 305.137C171.377 305.348 171.107 305.521 170.775 305.658C170.443 305.791 170.045 305.857 169.58 305.857H168.654V305.201ZM168.654 306.092V305.441H169.58C170.123 305.441 170.572 305.506 170.928 305.635C171.283 305.764 171.562 305.936 171.766 306.15C171.973 306.365 172.117 306.602 172.199 306.859C172.285 307.113 172.328 307.367 172.328 307.621C172.328 308.02 172.26 308.373 172.123 308.682C171.99 308.99 171.801 309.252 171.555 309.467C171.312 309.682 171.027 309.844 170.699 309.953C170.371 310.062 170.014 310.117 169.627 310.117C169.256 310.117 168.906 310.064 168.578 309.959C168.254 309.854 167.967 309.701 167.717 309.502C167.467 309.299 167.271 309.051 167.131 308.758C166.99 308.461 166.92 308.123 166.92 307.744H168.004C168.004 308.041 168.068 308.301 168.197 308.523C168.33 308.746 168.518 308.92 168.76 309.045C169.006 309.166 169.295 309.227 169.627 309.227C169.959 309.227 170.244 309.17 170.482 309.057C170.725 308.939 170.91 308.764 171.039 308.529C171.172 308.295 171.238 308 171.238 307.645C171.238 307.289 171.164 306.998 171.016 306.771C170.867 306.541 170.656 306.371 170.383 306.262C170.113 306.148 169.795 306.092 169.428 306.092H168.654Z" fill="black"/>
<path d="M144 182H204V180H144V182ZM223 201V323H225V201H223ZM204 342H144V344H204V342ZM125 323V201H123V323H125ZM144 342C133.507 342 125 333.493 125 323H123C123 334.598 132.402 344 144 344V342ZM223 323C223 333.493 214.493 342 204 342V344C215.598 344 225 334.598 225 323H223ZM204 182C214.493 182 223 190.507 223 201H225C225 189.402 215.598 180 204 180V182ZM144 180C132.402 180 123 189.402 123 201H125C125 190.507 133.507 182 144 182V180Z" fill="black"/>
<path d="M12.8324 121.654H10.5531V120.734H12.8324C13.2738 120.734 13.6312 120.664 13.9046 120.523C14.1781 120.383 14.3773 120.188 14.5023 119.938C14.6312 119.688 14.6956 119.402 14.6956 119.082C14.6956 118.789 14.6312 118.514 14.5023 118.256C14.3773 117.998 14.1781 117.791 13.9046 117.635C13.6312 117.475 13.2738 117.395 12.8324 117.395H10.8167V125H9.68588V116.469H12.8324C13.4769 116.469 14.0218 116.58 14.4671 116.803C14.9124 117.025 15.2503 117.334 15.4808 117.729C15.7113 118.119 15.8265 118.566 15.8265 119.07C15.8265 119.617 15.7113 120.084 15.4808 120.471C15.2503 120.857 14.9124 121.152 14.4671 121.355C14.0218 121.555 13.4769 121.654 12.8324 121.654ZM19.641 125.117C19.1996 125.117 18.7992 125.043 18.4398 124.895C18.0843 124.742 17.7777 124.529 17.5199 124.256C17.266 123.982 17.0706 123.658 16.9339 123.283C16.7972 122.908 16.7289 122.498 16.7289 122.053V121.807C16.7289 121.291 16.805 120.832 16.9574 120.43C17.1097 120.023 17.3167 119.68 17.5785 119.398C17.8402 119.117 18.1371 118.904 18.4691 118.76C18.8011 118.615 19.1449 118.543 19.5003 118.543C19.9535 118.543 20.3441 118.621 20.6722 118.777C21.0042 118.934 21.2757 119.152 21.4867 119.434C21.6976 119.711 21.8539 120.039 21.9554 120.418C22.057 120.793 22.1078 121.203 22.1078 121.648V122.135H17.3734V121.25H21.0238V121.168C21.0081 120.887 20.9496 120.613 20.848 120.348C20.7503 120.082 20.5941 119.863 20.3792 119.691C20.1644 119.52 19.8714 119.434 19.5003 119.434C19.2542 119.434 19.0277 119.486 18.8206 119.592C18.6136 119.693 18.4359 119.846 18.2874 120.049C18.139 120.252 18.0238 120.5 17.9417 120.793C17.8597 121.086 17.8187 121.424 17.8187 121.807V122.053C17.8187 122.354 17.8597 122.637 17.9417 122.902C18.0277 123.164 18.1507 123.395 18.3109 123.594C18.4749 123.793 18.6722 123.949 18.9027 124.062C19.1371 124.176 19.4027 124.232 19.6996 124.232C20.0824 124.232 20.4066 124.154 20.6722 123.998C20.9378 123.842 21.1703 123.633 21.3695 123.371L22.0257 123.893C21.889 124.1 21.7152 124.297 21.5042 124.484C21.2933 124.672 21.0335 124.824 20.7249 124.941C20.4203 125.059 20.0589 125.117 19.641 125.117ZM24.4574 119.656V125H23.3734V118.66H24.4281L24.4574 119.656ZM26.4378 118.625L26.432 119.633C26.3421 119.613 26.2562 119.602 26.1742 119.598C26.096 119.59 26.0062 119.586 25.9046 119.586C25.6546 119.586 25.4339 119.625 25.2425 119.703C25.0511 119.781 24.889 119.891 24.7562 120.031C24.6234 120.172 24.5179 120.34 24.4398 120.535C24.3656 120.727 24.3167 120.938 24.2933 121.168L23.9886 121.344C23.9886 120.961 24.0257 120.602 24.0999 120.266C24.1781 119.93 24.2972 119.633 24.4574 119.375C24.6175 119.113 24.8206 118.91 25.0667 118.766C25.3167 118.617 25.6136 118.543 25.9574 118.543C26.0355 118.543 26.1253 118.553 26.2269 118.572C26.3285 118.588 26.3988 118.605 26.4378 118.625ZM31.1312 123.318C31.1312 123.162 31.096 123.018 31.0257 122.885C30.9593 122.748 30.8206 122.625 30.6097 122.516C30.4027 122.402 30.0902 122.305 29.6722 122.223C29.3206 122.148 29.0023 122.061 28.7171 121.959C28.4359 121.857 28.1956 121.734 27.9964 121.59C27.8011 121.445 27.6507 121.275 27.5453 121.08C27.4398 120.885 27.3871 120.656 27.3871 120.395C27.3871 120.145 27.4417 119.908 27.5511 119.686C27.6644 119.463 27.8226 119.266 28.0257 119.094C28.2328 118.922 28.4808 118.787 28.7699 118.689C29.0589 118.592 29.3812 118.543 29.7367 118.543C30.2445 118.543 30.6781 118.633 31.0374 118.812C31.3968 118.992 31.6722 119.232 31.8636 119.533C32.055 119.83 32.1507 120.16 32.1507 120.523H31.0667C31.0667 120.348 31.014 120.178 30.9085 120.014C30.807 119.846 30.6566 119.707 30.4574 119.598C30.2621 119.488 30.0218 119.434 29.7367 119.434C29.4359 119.434 29.1917 119.48 29.0042 119.574C28.8206 119.664 28.6859 119.779 28.5999 119.92C28.5179 120.061 28.4769 120.209 28.4769 120.365C28.4769 120.482 28.4964 120.588 28.5355 120.682C28.5785 120.771 28.6527 120.855 28.7581 120.934C28.8636 121.008 29.0121 121.078 29.2035 121.145C29.3949 121.211 29.639 121.277 29.9359 121.344C30.4554 121.461 30.8831 121.602 31.2191 121.766C31.555 121.93 31.805 122.131 31.9691 122.369C32.1331 122.607 32.2152 122.896 32.2152 123.236C32.2152 123.514 32.1566 123.768 32.0394 123.998C31.9261 124.229 31.7601 124.428 31.5414 124.596C31.3265 124.76 31.0687 124.889 30.7679 124.982C30.471 125.072 30.1371 125.117 29.766 125.117C29.2074 125.117 28.7347 125.018 28.348 124.818C27.9613 124.619 27.6683 124.361 27.4691 124.045C27.2699 123.729 27.1703 123.395 27.1703 123.043H28.2601C28.2757 123.34 28.3617 123.576 28.5179 123.752C28.6742 123.924 28.8656 124.047 29.0921 124.121C29.3187 124.191 29.5433 124.227 29.766 124.227C30.0628 124.227 30.3109 124.188 30.5101 124.109C30.7132 124.031 30.8675 123.924 30.973 123.787C31.0785 123.65 31.1312 123.494 31.1312 123.318ZM33.3519 121.9V121.766C33.3519 121.309 33.4183 120.885 33.5511 120.494C33.6839 120.1 33.8753 119.758 34.1253 119.469C34.3753 119.176 34.6781 118.949 35.0335 118.789C35.389 118.625 35.7874 118.543 36.2289 118.543C36.6742 118.543 37.0746 118.625 37.43 118.789C37.7894 118.949 38.0941 119.176 38.3441 119.469C38.598 119.758 38.7914 120.1 38.9242 120.494C39.057 120.885 39.1234 121.309 39.1234 121.766V121.9C39.1234 122.357 39.057 122.781 38.9242 123.172C38.7914 123.562 38.598 123.904 38.3441 124.197C38.0941 124.486 37.7914 124.713 37.4359 124.877C37.0843 125.037 36.6859 125.117 36.2406 125.117C35.7953 125.117 35.3949 125.037 35.0394 124.877C34.6839 124.713 34.3792 124.486 34.1253 124.197C33.8753 123.904 33.6839 123.562 33.5511 123.172C33.4183 122.781 33.3519 122.357 33.3519 121.9ZM34.4359 121.766V121.9C34.4359 122.217 34.473 122.516 34.5472 122.797C34.6214 123.074 34.7328 123.32 34.8812 123.535C35.0335 123.75 35.223 123.92 35.4496 124.045C35.6761 124.166 35.9398 124.227 36.2406 124.227C36.5374 124.227 36.7972 124.166 37.0199 124.045C37.2464 123.92 37.4339 123.75 37.5824 123.535C37.7308 123.32 37.8421 123.074 37.9164 122.797C37.9945 122.516 38.0335 122.217 38.0335 121.9V121.766C38.0335 121.453 37.9945 121.158 37.9164 120.881C37.8421 120.6 37.7289 120.352 37.5765 120.137C37.4281 119.918 37.2406 119.746 37.014 119.621C36.7914 119.496 36.5296 119.434 36.2289 119.434C35.932 119.434 35.6703 119.496 35.4437 119.621C35.221 119.746 35.0335 119.918 34.8812 120.137C34.7328 120.352 34.6214 120.6 34.5472 120.881C34.473 121.158 34.4359 121.453 34.4359 121.766ZM41.5667 120.014V125H40.4828V118.66H41.5081L41.5667 120.014ZM41.3089 121.59L40.8578 121.572C40.8617 121.139 40.9261 120.738 41.0511 120.371C41.1761 120 41.3519 119.678 41.5785 119.404C41.805 119.131 42.0746 118.92 42.3871 118.771C42.7035 118.619 43.0531 118.543 43.4359 118.543C43.7484 118.543 44.0296 118.586 44.2796 118.672C44.5296 118.754 44.7425 118.887 44.9183 119.07C45.098 119.254 45.2347 119.492 45.3285 119.785C45.4222 120.074 45.4691 120.428 45.4691 120.846V125H44.3792V120.834C44.3792 120.502 44.3304 120.236 44.2328 120.037C44.1351 119.834 43.9925 119.688 43.805 119.598C43.6175 119.504 43.3871 119.457 43.1136 119.457C42.8441 119.457 42.598 119.514 42.3753 119.627C42.1566 119.74 41.9671 119.896 41.807 120.096C41.6507 120.295 41.5277 120.523 41.4378 120.781C41.3519 121.035 41.3089 121.305 41.3089 121.59Z" fill="black"/>
<rect x="71" y="147" width="6" height="6" rx="3" fill="black"/>
<path d="M61.3203 146.225L58.4961 154H57.3418L60.5938 145.469H61.3379L61.3203 146.225ZM63.6875 154L60.8574 146.225L60.8398 145.469H61.584L64.8477 154H63.6875ZM63.541 150.842V151.768H58.748V150.842H63.541Z" fill="black"/>
<rect x="71" y="177" width="6" height="6" rx="3" fill="black"/>
<path d="M61.5547 180.01H59.3926L59.3809 179.102H61.3438C61.668 179.102 61.9512 179.047 62.1934 178.938C62.4355 178.828 62.623 178.672 62.7559 178.469C62.8926 178.262 62.9609 178.016 62.9609 177.73C62.9609 177.418 62.9004 177.164 62.7793 176.969C62.6621 176.77 62.4805 176.625 62.2344 176.535C61.9922 176.441 61.6836 176.395 61.3086 176.395H59.6445V184H58.5137V175.469H61.3086C61.7461 175.469 62.1367 175.514 62.4805 175.604C62.8242 175.689 63.1152 175.826 63.3535 176.014C63.5957 176.197 63.7793 176.432 63.9043 176.717C64.0293 177.002 64.0918 177.344 64.0918 177.742C64.0918 178.094 64.002 178.412 63.8223 178.697C63.6426 178.979 63.3926 179.209 63.0723 179.389C62.7559 179.568 62.3848 179.684 61.959 179.734L61.5547 180.01ZM61.502 184H58.9473L59.5859 183.08H61.502C61.8613 183.08 62.166 183.018 62.416 182.893C62.6699 182.768 62.8633 182.592 62.9961 182.365C63.1289 182.135 63.1953 181.863 63.1953 181.551C63.1953 181.234 63.1387 180.961 63.0254 180.73C62.9121 180.5 62.7344 180.322 62.4922 180.197C62.25 180.072 61.9375 180.01 61.5547 180.01H59.9434L59.9551 179.102H62.1582L62.3984 179.43C62.8086 179.465 63.1562 179.582 63.4414 179.781C63.7266 179.977 63.9434 180.227 64.0918 180.531C64.2441 180.836 64.3203 181.172 64.3203 181.539C64.3203 182.07 64.2031 182.52 63.9688 182.887C63.7383 183.25 63.4121 183.527 62.9902 183.719C62.5684 183.906 62.0723 184 61.502 184Z" fill="black"/>
<rect x="71" y="207" width="6" height="6" rx="3" fill="black"/>
<path d="M63.3242 211.287H64.4492C64.3906 211.826 64.2363 212.309 63.9863 212.734C63.7363 213.16 63.3828 213.498 62.9258 213.748C62.4688 213.994 61.8984 214.117 61.2148 214.117C60.7148 214.117 60.2598 214.023 59.8496 213.836C59.4434 213.648 59.0938 213.383 58.8008 213.039C58.5078 212.691 58.2812 212.275 58.1211 211.791C57.9648 211.303 57.8867 210.76 57.8867 210.162V209.312C57.8867 208.715 57.9648 208.174 58.1211 207.689C58.2812 207.201 58.5098 206.783 58.8066 206.436C59.1074 206.088 59.4688 205.82 59.8906 205.633C60.3125 205.445 60.7871 205.352 61.3145 205.352C61.959 205.352 62.5039 205.473 62.9492 205.715C63.3945 205.957 63.7402 206.293 63.9863 206.723C64.2363 207.148 64.3906 207.643 64.4492 208.205H63.3242C63.2695 207.807 63.168 207.465 63.0195 207.18C62.8711 206.891 62.6602 206.668 62.3867 206.512C62.1133 206.355 61.7559 206.277 61.3145 206.277C60.9355 206.277 60.6016 206.35 60.3125 206.494C60.0273 206.639 59.7871 206.844 59.5918 207.109C59.4004 207.375 59.2559 207.693 59.1582 208.064C59.0605 208.436 59.0117 208.848 59.0117 209.301V210.162C59.0117 210.58 59.0547 210.973 59.1406 211.34C59.2305 211.707 59.3652 212.029 59.5449 212.307C59.7246 212.584 59.9531 212.803 60.2305 212.963C60.5078 213.119 60.8359 213.197 61.2148 213.197C61.6953 213.197 62.0781 213.121 62.3633 212.969C62.6484 212.816 62.8633 212.598 63.0078 212.312C63.1562 212.027 63.2617 211.686 63.3242 211.287Z" fill="black"/>
<rect x="71" y="237" width="6" height="6" rx="3" fill="black"/>
<path d="M60.4238 244H58.6426L58.6543 243.08H60.4238C61.0332 243.08 61.541 242.953 61.9473 242.699C62.3535 242.441 62.6582 242.082 62.8613 241.621C63.0684 241.156 63.1719 240.613 63.1719 239.992V239.471C63.1719 238.982 63.1133 238.549 62.9961 238.17C62.8789 237.787 62.707 237.465 62.4805 237.203C62.2539 236.938 61.9766 236.736 61.6484 236.6C61.3242 236.463 60.9512 236.395 60.5293 236.395H58.6074V235.469H60.5293C61.0879 235.469 61.5977 235.562 62.0586 235.75C62.5195 235.934 62.916 236.201 63.248 236.553C63.584 236.9 63.8418 237.322 64.0215 237.818C64.2012 238.311 64.291 238.865 64.291 239.482V239.992C64.291 240.609 64.2012 241.166 64.0215 241.662C63.8418 242.154 63.582 242.574 63.2422 242.922C62.9062 243.27 62.5 243.537 62.0234 243.725C61.5508 243.908 61.0176 244 60.4238 244ZM59.2461 235.469V244H58.1152V235.469H59.2461Z" fill="black"/>
<path d="M20 86H80V84H20V86ZM99 105V257H101V105H99ZM80 276H20V278H80V276ZM1 257V105H-1V257H1ZM20 276C9.50659 276 1 267.493 1 257H-1C-1 268.598 8.40202 278 20 278V276ZM99 257C99 267.493 90.4934 276 80 276V278C91.598 278 101 268.598 101 257H99ZM80 86C90.4934 86 99 94.5066 99 105H101C101 93.402 91.598 84 80 84V86ZM20 84C8.40202 84 -1 93.402 -1 105H1C1 94.5066 9.50659 86 20 86V84Z" fill="black"/>
<path d="M263.258 121.137V122.057H258.641V121.137H263.258ZM258.817 117.469V126H257.686V117.469H258.817ZM264.243 117.469V126H263.118V117.469H264.243ZM269.967 124.535V119.66H271.057V126H270.02L269.967 124.535ZM270.172 123.199L270.623 123.188C270.623 123.609 270.578 124 270.489 124.359C270.403 124.715 270.262 125.023 270.067 125.285C269.871 125.547 269.616 125.752 269.299 125.9C268.983 126.045 268.598 126.117 268.145 126.117C267.836 126.117 267.553 126.072 267.295 125.982C267.041 125.893 266.823 125.754 266.639 125.566C266.455 125.379 266.313 125.135 266.211 124.834C266.114 124.533 266.065 124.172 266.065 123.75V119.66H267.149V123.762C267.149 124.047 267.18 124.283 267.243 124.471C267.309 124.654 267.397 124.801 267.506 124.91C267.619 125.016 267.744 125.09 267.881 125.133C268.022 125.176 268.166 125.197 268.315 125.197C268.776 125.197 269.141 125.109 269.41 124.934C269.68 124.754 269.873 124.514 269.991 124.213C270.112 123.908 270.172 123.57 270.172 123.199ZM273.793 121.014V126H272.709V119.66H273.735L273.793 121.014ZM273.535 122.59L273.084 122.572C273.088 122.139 273.153 121.738 273.278 121.371C273.403 121 273.578 120.678 273.805 120.404C274.032 120.131 274.301 119.92 274.614 119.771C274.93 119.619 275.28 119.543 275.662 119.543C275.975 119.543 276.256 119.586 276.506 119.672C276.756 119.754 276.969 119.887 277.145 120.07C277.325 120.254 277.461 120.492 277.555 120.785C277.649 121.074 277.696 121.428 277.696 121.846V126H276.606V121.834C276.606 121.502 276.557 121.236 276.459 121.037C276.362 120.834 276.219 120.688 276.032 120.598C275.844 120.504 275.614 120.457 275.34 120.457C275.071 120.457 274.825 120.514 274.602 120.627C274.383 120.74 274.194 120.896 274.034 121.096C273.877 121.295 273.754 121.523 273.664 121.781C273.578 122.035 273.535 122.305 273.535 122.59ZM283.338 124.77V117H284.428V126H283.432L283.338 124.77ZM279.073 122.9V122.777C279.073 122.293 279.131 121.854 279.248 121.459C279.369 121.061 279.539 120.719 279.758 120.434C279.981 120.148 280.244 119.93 280.549 119.777C280.858 119.621 281.202 119.543 281.58 119.543C281.979 119.543 282.327 119.613 282.623 119.754C282.924 119.891 283.178 120.092 283.385 120.357C283.596 120.619 283.762 120.936 283.883 121.307C284.004 121.678 284.088 122.098 284.135 122.566V123.105C284.092 123.57 284.008 123.988 283.883 124.359C283.762 124.73 283.596 125.047 283.385 125.309C283.178 125.57 282.924 125.771 282.623 125.912C282.323 126.049 281.971 126.117 281.569 126.117C281.198 126.117 280.858 126.037 280.549 125.877C280.244 125.717 279.981 125.492 279.758 125.203C279.539 124.914 279.369 124.574 279.248 124.184C279.131 123.789 279.073 123.361 279.073 122.9ZM280.162 122.777V122.9C280.162 123.217 280.194 123.514 280.256 123.791C280.323 124.068 280.424 124.312 280.561 124.523C280.698 124.734 280.871 124.9 281.082 125.021C281.293 125.139 281.545 125.197 281.838 125.197C282.198 125.197 282.493 125.121 282.723 124.969C282.957 124.816 283.145 124.615 283.285 124.365C283.426 124.115 283.535 123.844 283.614 123.551V122.139C283.567 121.924 283.498 121.717 283.409 121.518C283.323 121.314 283.209 121.135 283.069 120.979C282.932 120.818 282.762 120.691 282.559 120.598C282.36 120.504 282.123 120.457 281.85 120.457C281.553 120.457 281.297 120.52 281.082 120.645C280.871 120.766 280.698 120.934 280.561 121.148C280.424 121.359 280.323 121.605 280.256 121.887C280.194 122.164 280.162 122.461 280.162 122.777Z" fill="black"/>
<rect x="270" y="148" width="6" height="6" rx="3" fill="black"/>
<path d="M288.271 146.422V155H287.188V147.775L285.002 148.572V147.594L288.102 146.422H288.271Z" fill="black"/>
<rect x="270" y="178" width="6" height="6" rx="3" fill="black"/>
<path d="M290.299 184.109V185H284.715V184.221L287.51 181.109C287.854 180.727 288.119 180.402 288.307 180.137C288.498 179.867 288.631 179.627 288.705 179.416C288.783 179.201 288.822 178.982 288.822 178.76C288.822 178.479 288.764 178.225 288.646 177.998C288.533 177.768 288.365 177.584 288.143 177.447C287.92 177.311 287.65 177.242 287.334 177.242C286.955 177.242 286.639 177.316 286.385 177.465C286.135 177.609 285.947 177.812 285.822 178.074C285.697 178.336 285.635 178.637 285.635 178.977H284.551C284.551 178.496 284.656 178.057 284.867 177.658C285.078 177.26 285.391 176.943 285.805 176.709C286.219 176.471 286.729 176.352 287.334 176.352C287.873 176.352 288.334 176.447 288.717 176.639C289.1 176.826 289.393 177.092 289.596 177.436C289.803 177.775 289.906 178.174 289.906 178.631C289.906 178.881 289.863 179.135 289.777 179.393C289.695 179.646 289.58 179.9 289.432 180.154C289.287 180.408 289.117 180.658 288.922 180.904C288.73 181.15 288.525 181.393 288.307 181.631L286.021 184.109H290.299Z" fill="black"/>
<rect x="270" y="208" width="6" height="6" rx="3" fill="black"/>
<path d="M286.291 210.201H287.064C287.443 210.201 287.756 210.139 288.002 210.014C288.252 209.885 288.438 209.711 288.559 209.492C288.684 209.27 288.746 209.02 288.746 208.742C288.746 208.414 288.691 208.139 288.582 207.916C288.473 207.693 288.309 207.525 288.09 207.412C287.871 207.299 287.594 207.242 287.258 207.242C286.953 207.242 286.684 207.303 286.449 207.424C286.219 207.541 286.037 207.709 285.904 207.928C285.775 208.146 285.711 208.404 285.711 208.701H284.627C284.627 208.268 284.736 207.873 284.955 207.518C285.174 207.162 285.48 206.879 285.875 206.668C286.273 206.457 286.734 206.352 287.258 206.352C287.773 206.352 288.225 206.443 288.611 206.627C288.998 206.807 289.299 207.076 289.514 207.436C289.729 207.791 289.836 208.234 289.836 208.766C289.836 208.98 289.785 209.211 289.684 209.457C289.586 209.699 289.432 209.926 289.221 210.137C289.014 210.348 288.744 210.521 288.412 210.658C288.08 210.791 287.682 210.857 287.217 210.857H286.291V210.201ZM286.291 211.092V210.441H287.217C287.76 210.441 288.209 210.506 288.564 210.635C288.92 210.764 289.199 210.936 289.402 211.15C289.609 211.365 289.754 211.602 289.836 211.859C289.922 212.113 289.965 212.367 289.965 212.621C289.965 213.02 289.896 213.373 289.76 213.682C289.627 213.99 289.438 214.252 289.191 214.467C288.949 214.682 288.664 214.844 288.336 214.953C288.008 215.062 287.65 215.117 287.264 215.117C286.893 215.117 286.543 215.064 286.215 214.959C285.891 214.854 285.604 214.701 285.354 214.502C285.104 214.299 284.908 214.051 284.768 213.758C284.627 213.461 284.557 213.123 284.557 212.744H285.641C285.641 213.041 285.705 213.301 285.834 213.523C285.967 213.746 286.154 213.92 286.396 214.045C286.643 214.166 286.932 214.227 287.264 214.227C287.596 214.227 287.881 214.17 288.119 214.057C288.361 213.939 288.547 213.764 288.676 213.529C288.809 213.295 288.875 213 288.875 212.645C288.875 212.289 288.801 211.998 288.652 211.771C288.504 211.541 288.293 211.371 288.02 211.262C287.75 211.148 287.432 211.092 287.064 211.092H286.291Z" fill="black"/>
<path d="M268 87H328V85H268V87ZM347 106V228H349V106H347ZM328 247H268V249H328V247ZM249 228V106H247V228H249ZM268 247C257.507 247 249 238.493 249 228H247C247 239.598 256.402 249 268 249V247ZM347 228C347 238.493 338.493 247 328 247V249C339.598 249 349 239.598 349 228H347ZM328 87C338.493 87 347 95.5066 347 106H349C349 94.402 339.598 85 328 85V87ZM268 85C256.402 85 247 94.402 247 106H249C249 95.5066 257.507 87 268 87V85Z" fill="black"/>
</svg>
