<svg width="463" height="180" viewBox="0 0 463 180" fill="none" xmlns="http://www.w3.org/2000/svg">
<rect x="80.5" y="80.5" width="99" height="99" stroke="black"/>
<path d="M105.182 125.469V134H104.051V125.469H105.182ZM110.332 125.469L106.787 129.447L104.795 131.516L104.607 130.309L106.107 128.656L108.973 125.469H110.332ZM109.242 134L106.084 129.84L106.758 128.943L110.59 134H109.242ZM110.971 130.9V130.766C110.971 130.309 111.037 129.885 111.17 129.494C111.303 129.1 111.494 128.758 111.744 128.469C111.994 128.176 112.297 127.949 112.652 127.789C113.008 127.625 113.406 127.543 113.848 127.543C114.293 127.543 114.693 127.625 115.049 127.789C115.408 127.949 115.713 128.176 115.963 128.469C116.217 128.758 116.41 129.1 116.543 129.494C116.676 129.885 116.742 130.309 116.742 130.766V130.9C116.742 131.357 116.676 131.781 116.543 132.172C116.41 132.562 116.217 132.904 115.963 133.197C115.713 133.486 115.41 133.713 115.055 133.877C114.703 134.037 114.305 134.117 113.859 134.117C113.414 134.117 113.014 134.037 112.658 133.877C112.303 133.713 111.998 133.486 111.744 133.197C111.494 132.904 111.303 132.562 111.17 132.172C111.037 131.781 110.971 131.357 110.971 130.9ZM112.055 130.766V130.9C112.055 131.217 112.092 131.516 112.166 131.797C112.24 132.074 112.352 132.32 112.5 132.535C112.652 132.75 112.842 132.92 113.068 133.045C113.295 133.166 113.559 133.227 113.859 133.227C114.156 133.227 114.416 133.166 114.639 133.045C114.865 132.92 115.053 132.75 115.201 132.535C115.35 132.32 115.461 132.074 115.535 131.797C115.613 131.516 115.652 131.217 115.652 130.9V130.766C115.652 130.453 115.613 130.158 115.535 129.881C115.461 129.6 115.348 129.352 115.195 129.137C115.047 128.918 114.859 128.746 114.633 128.621C114.41 128.496 114.148 128.434 113.848 128.434C113.551 128.434 113.289 128.496 113.062 128.621C112.84 128.746 112.652 128.918 112.5 129.137C112.352 129.352 112.24 129.6 112.166 129.881C112.092 130.158 112.055 130.453 112.055 130.766ZM119.18 128.92V134H118.09V127.66H119.121L119.18 128.92ZM118.957 130.59L118.453 130.572C118.457 130.139 118.514 129.738 118.623 129.371C118.732 129 118.895 128.678 119.109 128.404C119.324 128.131 119.592 127.92 119.912 127.771C120.232 127.619 120.604 127.543 121.025 127.543C121.322 127.543 121.596 127.586 121.846 127.672C122.096 127.754 122.312 127.885 122.496 128.064C122.68 128.244 122.822 128.475 122.924 128.756C123.025 129.037 123.076 129.377 123.076 129.775V134H121.992V129.828C121.992 129.496 121.936 129.23 121.822 129.031C121.713 128.832 121.557 128.688 121.354 128.598C121.15 128.504 120.912 128.457 120.639 128.457C120.318 128.457 120.051 128.514 119.836 128.627C119.621 128.74 119.449 128.896 119.32 129.096C119.191 129.295 119.098 129.523 119.039 129.781C118.984 130.035 118.957 130.305 118.957 130.59ZM123.064 129.992L122.338 130.215C122.342 129.867 122.398 129.533 122.508 129.213C122.621 128.893 122.783 128.607 122.994 128.357C123.209 128.107 123.473 127.91 123.785 127.766C124.098 127.617 124.455 127.543 124.857 127.543C125.197 127.543 125.498 127.588 125.76 127.678C126.025 127.768 126.248 127.906 126.428 128.094C126.611 128.277 126.75 128.514 126.844 128.803C126.938 129.092 126.984 129.436 126.984 129.834V134H125.895V129.822C125.895 129.467 125.838 129.191 125.725 128.996C125.615 128.797 125.459 128.658 125.256 128.58C125.057 128.498 124.818 128.457 124.541 128.457C124.303 128.457 124.092 128.498 123.908 128.58C123.725 128.662 123.57 128.775 123.445 128.92C123.32 129.061 123.225 129.223 123.158 129.406C123.096 129.59 123.064 129.785 123.064 129.992ZM129.703 128.92V134H128.613V127.66H129.645L129.703 128.92ZM129.48 130.59L128.977 130.572C128.98 130.139 129.037 129.738 129.146 129.371C129.256 129 129.418 128.678 129.633 128.404C129.848 128.131 130.115 127.92 130.436 127.771C130.756 127.619 131.127 127.543 131.549 127.543C131.846 127.543 132.119 127.586 132.369 127.672C132.619 127.754 132.836 127.885 133.02 128.064C133.203 128.244 133.346 128.475 133.447 128.756C133.549 129.037 133.6 129.377 133.6 129.775V134H132.516V129.828C132.516 129.496 132.459 129.23 132.346 129.031C132.236 128.832 132.08 128.688 131.877 128.598C131.674 128.504 131.436 128.457 131.162 128.457C130.842 128.457 130.574 128.514 130.359 128.627C130.145 128.74 129.973 128.896 129.844 129.096C129.715 129.295 129.621 129.523 129.562 129.781C129.508 130.035 129.48 130.305 129.48 130.59ZM133.588 129.992L132.861 130.215C132.865 129.867 132.922 129.533 133.031 129.213C133.145 128.893 133.307 128.607 133.518 128.357C133.732 128.107 133.996 127.91 134.309 127.766C134.621 127.617 134.979 127.543 135.381 127.543C135.721 127.543 136.021 127.588 136.283 127.678C136.549 127.768 136.771 127.906 136.951 128.094C137.135 128.277 137.273 128.514 137.367 128.803C137.461 129.092 137.508 129.436 137.508 129.834V134H136.418V129.822C136.418 129.467 136.361 129.191 136.248 128.996C136.139 128.797 135.982 128.658 135.779 128.58C135.58 128.498 135.342 128.457 135.064 128.457C134.826 128.457 134.615 128.498 134.432 128.58C134.248 128.662 134.094 128.775 133.969 128.92C133.844 129.061 133.748 129.223 133.682 129.406C133.619 129.59 133.588 129.785 133.588 129.992ZM143.027 132.535V127.66H144.117V134H143.08L143.027 132.535ZM143.232 131.199L143.684 131.188C143.684 131.609 143.639 132 143.549 132.359C143.463 132.715 143.322 133.023 143.127 133.285C142.932 133.547 142.676 133.752 142.359 133.9C142.043 134.045 141.658 134.117 141.205 134.117C140.896 134.117 140.613 134.072 140.355 133.982C140.102 133.893 139.883 133.754 139.699 133.566C139.516 133.379 139.373 133.135 139.271 132.834C139.174 132.533 139.125 132.172 139.125 131.75V127.66H140.209V131.762C140.209 132.047 140.24 132.283 140.303 132.471C140.369 132.654 140.457 132.801 140.566 132.91C140.68 133.016 140.805 133.09 140.941 133.133C141.082 133.176 141.227 133.197 141.375 133.197C141.836 133.197 142.201 133.109 142.471 132.934C142.74 132.754 142.934 132.514 143.051 132.213C143.172 131.908 143.232 131.57 143.232 131.199ZM146.854 129.014V134H145.77V127.66H146.795L146.854 129.014ZM146.596 130.59L146.145 130.572C146.148 130.139 146.213 129.738 146.338 129.371C146.463 129 146.639 128.678 146.865 128.404C147.092 128.131 147.361 127.92 147.674 127.771C147.99 127.619 148.34 127.543 148.723 127.543C149.035 127.543 149.316 127.586 149.566 127.672C149.816 127.754 150.029 127.887 150.205 128.07C150.385 128.254 150.521 128.492 150.615 128.785C150.709 129.074 150.756 129.428 150.756 129.846V134H149.666V129.834C149.666 129.502 149.617 129.236 149.52 129.037C149.422 128.834 149.279 128.688 149.092 128.598C148.904 128.504 148.674 128.457 148.4 128.457C148.131 128.457 147.885 128.514 147.662 128.627C147.443 128.74 147.254 128.896 147.094 129.096C146.938 129.295 146.814 129.523 146.725 129.781C146.639 130.035 146.596 130.305 146.596 130.59ZM155.033 134.117C154.592 134.117 154.191 134.043 153.832 133.895C153.477 133.742 153.17 133.529 152.912 133.256C152.658 132.982 152.463 132.658 152.326 132.283C152.189 131.908 152.121 131.498 152.121 131.053V130.807C152.121 130.291 152.197 129.832 152.35 129.43C152.502 129.023 152.709 128.68 152.971 128.398C153.232 128.117 153.529 127.904 153.861 127.76C154.193 127.615 154.537 127.543 154.893 127.543C155.346 127.543 155.736 127.621 156.064 127.777C156.396 127.934 156.668 128.152 156.879 128.434C157.09 128.711 157.246 129.039 157.348 129.418C157.449 129.793 157.5 130.203 157.5 130.648V131.135H152.766V130.25H156.416V130.168C156.4 129.887 156.342 129.613 156.24 129.348C156.143 129.082 155.986 128.863 155.771 128.691C155.557 128.52 155.264 128.434 154.893 128.434C154.646 128.434 154.42 128.486 154.213 128.592C154.006 128.693 153.828 128.846 153.68 129.049C153.531 129.252 153.416 129.5 153.334 129.793C153.252 130.086 153.211 130.424 153.211 130.807V131.053C153.211 131.354 153.252 131.637 153.334 131.902C153.42 132.164 153.543 132.395 153.703 132.594C153.867 132.793 154.064 132.949 154.295 133.062C154.529 133.176 154.795 133.232 155.092 133.232C155.475 133.232 155.799 133.154 156.064 132.998C156.33 132.842 156.562 132.633 156.762 132.371L157.418 132.893C157.281 133.1 157.107 133.297 156.896 133.484C156.686 133.672 156.426 133.824 156.117 133.941C155.812 134.059 155.451 134.117 155.033 134.117Z" fill="black"/>
<rect x="367.5" y="84.5" width="91" height="91" stroke="black"/>
<rect x="363.5" y="80.5" width="99" height="99" stroke="black"/>
<path d="M408.297 129.752V132.875C408.191 133.031 408.023 133.207 407.793 133.402C407.562 133.594 407.244 133.762 406.838 133.906C406.436 134.047 405.916 134.117 405.279 134.117C404.76 134.117 404.281 134.027 403.844 133.848C403.41 133.664 403.033 133.398 402.713 133.051C402.396 132.699 402.15 132.273 401.975 131.773C401.803 131.27 401.717 130.699 401.717 130.062V129.4C401.717 128.764 401.791 128.195 401.939 127.695C402.092 127.195 402.314 126.771 402.607 126.424C402.9 126.072 403.26 125.807 403.686 125.627C404.111 125.443 404.6 125.352 405.15 125.352C405.803 125.352 406.348 125.465 406.785 125.691C407.227 125.914 407.57 126.223 407.816 126.617C408.066 127.012 408.227 127.461 408.297 127.965H407.166C407.115 127.656 407.014 127.375 406.861 127.121C406.713 126.867 406.5 126.664 406.223 126.512C405.945 126.355 405.588 126.277 405.15 126.277C404.756 126.277 404.414 126.35 404.125 126.494C403.836 126.639 403.598 126.846 403.41 127.115C403.223 127.385 403.082 127.711 402.988 128.094C402.898 128.477 402.854 128.908 402.854 129.389V130.062C402.854 130.555 402.91 130.994 403.023 131.381C403.141 131.768 403.307 132.098 403.521 132.371C403.736 132.641 403.992 132.846 404.289 132.986C404.59 133.127 404.922 133.197 405.285 133.197C405.688 133.197 406.014 133.164 406.264 133.098C406.514 133.027 406.709 132.945 406.85 132.852C406.99 132.754 407.098 132.662 407.172 132.576V130.666H405.197V129.752H408.297ZM413.746 132.916V129.652C413.746 129.402 413.695 129.186 413.594 129.002C413.496 128.814 413.348 128.67 413.148 128.568C412.949 128.467 412.703 128.416 412.41 128.416C412.137 128.416 411.896 128.463 411.689 128.557C411.486 128.65 411.326 128.773 411.209 128.926C411.096 129.078 411.039 129.242 411.039 129.418H409.955C409.955 129.191 410.014 128.967 410.131 128.744C410.248 128.521 410.416 128.32 410.635 128.141C410.857 127.957 411.123 127.812 411.432 127.707C411.744 127.598 412.092 127.543 412.475 127.543C412.936 127.543 413.342 127.621 413.693 127.777C414.049 127.934 414.326 128.17 414.525 128.486C414.729 128.799 414.83 129.191 414.83 129.664V132.617C414.83 132.828 414.848 133.053 414.883 133.291C414.922 133.529 414.979 133.734 415.053 133.906V134H413.922C413.867 133.875 413.824 133.709 413.793 133.502C413.762 133.291 413.746 133.096 413.746 132.916ZM413.934 130.156L413.945 130.918H412.85C412.541 130.918 412.266 130.943 412.023 130.994C411.781 131.041 411.578 131.113 411.414 131.211C411.25 131.309 411.125 131.432 411.039 131.58C410.953 131.725 410.91 131.895 410.91 132.09C410.91 132.289 410.955 132.471 411.045 132.635C411.135 132.799 411.27 132.93 411.449 133.027C411.633 133.121 411.857 133.168 412.123 133.168C412.455 133.168 412.748 133.098 413.002 132.957C413.256 132.816 413.457 132.645 413.605 132.441C413.758 132.238 413.84 132.041 413.852 131.85L414.314 132.371C414.287 132.535 414.213 132.717 414.092 132.916C413.971 133.115 413.809 133.307 413.605 133.49C413.406 133.67 413.168 133.82 412.891 133.941C412.617 134.059 412.309 134.117 411.965 134.117C411.535 134.117 411.158 134.033 410.834 133.865C410.514 133.697 410.264 133.473 410.084 133.191C409.908 132.906 409.82 132.588 409.82 132.236C409.82 131.896 409.887 131.598 410.02 131.34C410.152 131.078 410.344 130.861 410.594 130.689C410.844 130.514 411.145 130.381 411.496 130.291C411.848 130.201 412.24 130.156 412.674 130.156H413.934ZM419.189 127.66V128.492H415.762V127.66H419.189ZM416.922 126.119H418.006V132.43C418.006 132.645 418.039 132.807 418.105 132.916C418.172 133.025 418.258 133.098 418.363 133.133C418.469 133.168 418.582 133.186 418.703 133.186C418.793 133.186 418.887 133.178 418.984 133.162C419.086 133.143 419.162 133.127 419.213 133.115L419.219 134C419.133 134.027 419.02 134.053 418.879 134.076C418.742 134.104 418.576 134.117 418.381 134.117C418.115 134.117 417.871 134.064 417.648 133.959C417.426 133.854 417.248 133.678 417.115 133.432C416.986 133.182 416.922 132.846 416.922 132.424V126.119ZM423.092 134.117C422.65 134.117 422.25 134.043 421.891 133.895C421.535 133.742 421.229 133.529 420.971 133.256C420.717 132.982 420.521 132.658 420.385 132.283C420.248 131.908 420.18 131.498 420.18 131.053V130.807C420.18 130.291 420.256 129.832 420.408 129.43C420.561 129.023 420.768 128.68 421.029 128.398C421.291 128.117 421.588 127.904 421.92 127.76C422.252 127.615 422.596 127.543 422.951 127.543C423.404 127.543 423.795 127.621 424.123 127.777C424.455 127.934 424.727 128.152 424.938 128.434C425.148 128.711 425.305 129.039 425.406 129.418C425.508 129.793 425.559 130.203 425.559 130.648V131.135H420.824V130.25H424.475V130.168C424.459 129.887 424.4 129.613 424.299 129.348C424.201 129.082 424.045 128.863 423.83 128.691C423.615 128.52 423.322 128.434 422.951 128.434C422.705 128.434 422.479 128.486 422.271 128.592C422.064 128.693 421.887 128.846 421.738 129.049C421.59 129.252 421.475 129.5 421.393 129.793C421.311 130.086 421.27 130.424 421.27 130.807V131.053C421.27 131.354 421.311 131.637 421.393 131.902C421.479 132.164 421.602 132.395 421.762 132.594C421.926 132.793 422.123 132.949 422.354 133.062C422.588 133.176 422.854 133.232 423.15 133.232C423.533 133.232 423.857 133.154 424.123 132.998C424.389 132.842 424.621 132.633 424.82 132.371L425.477 132.893C425.34 133.1 425.166 133.297 424.955 133.484C424.744 133.672 424.484 133.824 424.176 133.941C423.871 134.059 423.51 134.117 423.092 134.117Z" fill="black"/>
<rect x="180" y="130" width="50" height="1" fill="black"/>
<rect x="271.426" y="88.7071" width="59" height="59" transform="rotate(45 271.426 88.7071)" stroke="black"/>
<rect x="271.426" y="94.0574" width="51.4335" height="51.4335" transform="rotate(45 271.426 94.0574)" stroke="black"/>
<path d="M256.411 129.492V130.412H251.794V129.492H256.411ZM251.969 125.824V134.355H250.839V125.824H251.969ZM257.395 125.824V134.355H256.27V125.824H257.395ZM262.979 133.271V130.008C262.979 129.758 262.928 129.541 262.827 129.357C262.729 129.17 262.581 129.025 262.381 128.924C262.182 128.822 261.936 128.771 261.643 128.771C261.37 128.771 261.13 128.818 260.922 128.912C260.719 129.006 260.559 129.129 260.442 129.281C260.329 129.433 260.272 129.598 260.272 129.773H259.188C259.188 129.547 259.247 129.322 259.364 129.099C259.481 128.877 259.649 128.676 259.868 128.496C260.09 128.312 260.356 128.168 260.665 128.062C260.977 127.953 261.325 127.898 261.708 127.898C262.169 127.898 262.575 127.976 262.926 128.133C263.282 128.289 263.559 128.525 263.758 128.842C263.962 129.154 264.063 129.547 264.063 130.019V132.973C264.063 133.183 264.081 133.408 264.116 133.646C264.155 133.885 264.212 134.09 264.286 134.262V134.355H263.155C263.1 134.23 263.057 134.064 263.026 133.857C262.995 133.646 262.979 133.451 262.979 133.271ZM263.167 130.512L263.178 131.273H262.083C261.774 131.273 261.499 131.299 261.256 131.349C261.014 131.396 260.811 131.469 260.647 131.566C260.483 131.664 260.358 131.787 260.272 131.935C260.186 132.08 260.143 132.25 260.143 132.445C260.143 132.644 260.188 132.826 260.278 132.99C260.368 133.154 260.503 133.285 260.682 133.383C260.866 133.476 261.09 133.523 261.356 133.523C261.688 133.523 261.981 133.453 262.235 133.312C262.489 133.172 262.69 133 262.839 132.797C262.991 132.594 263.073 132.396 263.085 132.205L263.547 132.726C263.52 132.891 263.446 133.072 263.325 133.271C263.204 133.471 263.042 133.662 262.839 133.846C262.639 134.025 262.401 134.176 262.124 134.297C261.85 134.414 261.542 134.473 261.198 134.473C260.768 134.473 260.391 134.389 260.067 134.221C259.747 134.053 259.497 133.828 259.317 133.547C259.141 133.262 259.053 132.943 259.053 132.592C259.053 132.252 259.12 131.953 259.253 131.695C259.385 131.433 259.577 131.217 259.827 131.045C260.077 130.869 260.378 130.736 260.729 130.646C261.081 130.557 261.473 130.512 261.907 130.512H263.167ZM266.852 129.012V134.355H265.768V128.016H266.823L266.852 129.012ZM268.833 127.98L268.827 128.988C268.737 128.969 268.651 128.957 268.569 128.953C268.491 128.945 268.401 128.941 268.299 128.941C268.049 128.941 267.829 128.98 267.637 129.058C267.446 129.137 267.284 129.246 267.151 129.387C267.018 129.527 266.913 129.695 266.835 129.891C266.76 130.082 266.712 130.293 266.688 130.523L266.383 130.699C266.383 130.316 266.421 129.957 266.495 129.621C266.573 129.285 266.692 128.988 266.852 128.73C267.012 128.469 267.215 128.266 267.462 128.121C267.712 127.973 268.008 127.898 268.352 127.898C268.43 127.898 268.52 127.908 268.622 127.928C268.723 127.943 268.794 127.961 268.833 127.98ZM276.303 130.107V133.23C276.198 133.387 276.03 133.562 275.799 133.758C275.569 133.949 275.251 134.117 274.844 134.262C274.442 134.402 273.922 134.473 273.286 134.473C272.766 134.473 272.288 134.383 271.85 134.203C271.417 134.019 271.04 133.754 270.719 133.406C270.403 133.055 270.157 132.629 269.981 132.129C269.809 131.625 269.723 131.055 269.723 130.418V129.756C269.723 129.119 269.797 128.551 269.946 128.051C270.098 127.551 270.321 127.127 270.614 126.779C270.907 126.428 271.266 126.162 271.692 125.982C272.118 125.799 272.606 125.707 273.157 125.707C273.809 125.707 274.354 125.82 274.792 126.047C275.233 126.269 275.577 126.578 275.823 126.973C276.073 127.367 276.233 127.816 276.303 128.32H275.172C275.122 128.012 275.02 127.73 274.868 127.476C274.719 127.223 274.506 127.019 274.229 126.867C273.952 126.711 273.594 126.633 273.157 126.633C272.762 126.633 272.421 126.705 272.131 126.849C271.842 126.994 271.604 127.201 271.417 127.471C271.229 127.74 271.089 128.066 270.995 128.449C270.905 128.832 270.86 129.264 270.86 129.744V130.418C270.86 130.91 270.917 131.349 271.03 131.736C271.147 132.123 271.313 132.453 271.528 132.726C271.743 132.996 271.999 133.201 272.296 133.342C272.596 133.482 272.928 133.553 273.292 133.553C273.694 133.553 274.02 133.519 274.27 133.453C274.52 133.383 274.715 133.301 274.856 133.207C274.997 133.109 275.104 133.017 275.178 132.932V131.021H273.204V130.107H276.303ZM281.753 133.271V130.008C281.753 129.758 281.702 129.541 281.6 129.357C281.503 129.17 281.354 129.025 281.155 128.924C280.956 128.822 280.71 128.771 280.417 128.771C280.143 128.771 279.903 128.818 279.696 128.912C279.493 129.006 279.333 129.129 279.215 129.281C279.102 129.433 279.046 129.598 279.046 129.773H277.962C277.962 129.547 278.02 129.322 278.137 129.099C278.255 128.877 278.422 128.676 278.641 128.496C278.864 128.312 279.13 128.168 279.438 128.062C279.751 127.953 280.098 127.898 280.481 127.898C280.942 127.898 281.348 127.976 281.7 128.133C282.055 128.289 282.333 128.525 282.532 128.842C282.735 129.154 282.837 129.547 282.837 130.019V132.973C282.837 133.183 282.854 133.408 282.889 133.646C282.928 133.885 282.985 134.09 283.059 134.262V134.355H281.928C281.874 134.23 281.831 134.064 281.799 133.857C281.768 133.646 281.753 133.451 281.753 133.271ZM281.94 130.512L281.952 131.273H280.856C280.547 131.273 280.272 131.299 280.03 131.349C279.788 131.396 279.585 131.469 279.421 131.566C279.256 131.664 279.131 131.787 279.046 131.935C278.96 132.08 278.917 132.25 278.917 132.445C278.917 132.644 278.962 132.826 279.051 132.99C279.141 133.154 279.276 133.285 279.456 133.383C279.639 133.476 279.864 133.523 280.13 133.523C280.462 133.523 280.755 133.453 281.008 133.312C281.262 133.172 281.464 133 281.612 132.797C281.764 132.594 281.846 132.396 281.858 132.205L282.321 132.726C282.294 132.891 282.219 133.072 282.098 133.271C281.977 133.471 281.815 133.662 281.612 133.846C281.413 134.025 281.174 134.176 280.897 134.297C280.624 134.414 280.315 134.473 279.971 134.473C279.542 134.473 279.165 134.389 278.84 134.221C278.52 134.053 278.27 133.828 278.09 133.547C277.915 133.262 277.827 132.943 277.827 132.592C277.827 132.252 277.893 131.953 278.026 131.695C278.159 131.433 278.35 131.217 278.6 131.045C278.85 130.869 279.151 130.736 279.503 130.646C279.854 130.557 280.247 130.512 280.68 130.512H281.94ZM287.196 128.016V128.848H283.768V128.016H287.196ZM284.928 126.474H286.012V132.785C286.012 133 286.046 133.162 286.112 133.271C286.178 133.381 286.264 133.453 286.37 133.488C286.475 133.523 286.589 133.541 286.71 133.541C286.799 133.541 286.893 133.533 286.991 133.517C287.092 133.498 287.169 133.482 287.219 133.471L287.225 134.355C287.139 134.383 287.026 134.408 286.885 134.432C286.749 134.459 286.583 134.473 286.387 134.473C286.122 134.473 285.878 134.42 285.655 134.314C285.432 134.209 285.255 134.033 285.122 133.787C284.993 133.537 284.928 133.201 284.928 132.779V126.474ZM291.098 134.473C290.657 134.473 290.256 134.398 289.897 134.25C289.542 134.098 289.235 133.885 288.977 133.611C288.723 133.338 288.528 133.014 288.391 132.639C288.255 132.264 288.186 131.853 288.186 131.408V131.162C288.186 130.646 288.262 130.187 288.415 129.785C288.567 129.379 288.774 129.035 289.036 128.754C289.297 128.473 289.594 128.26 289.926 128.115C290.258 127.971 290.602 127.898 290.958 127.898C291.411 127.898 291.801 127.976 292.13 128.133C292.462 128.289 292.733 128.508 292.944 128.789C293.155 129.066 293.311 129.394 293.413 129.773C293.514 130.148 293.565 130.558 293.565 131.004V131.49H288.831V130.605H292.481V130.523C292.465 130.242 292.407 129.969 292.305 129.703C292.208 129.437 292.051 129.219 291.837 129.047C291.622 128.875 291.329 128.789 290.958 128.789C290.712 128.789 290.485 128.842 290.278 128.947C290.071 129.049 289.893 129.201 289.745 129.404C289.596 129.607 289.481 129.855 289.399 130.148C289.317 130.441 289.276 130.779 289.276 131.162V131.408C289.276 131.709 289.317 131.992 289.399 132.258C289.485 132.519 289.608 132.75 289.768 132.949C289.932 133.148 290.13 133.305 290.36 133.418C290.594 133.531 290.86 133.588 291.157 133.588C291.54 133.588 291.864 133.51 292.13 133.353C292.395 133.197 292.628 132.988 292.827 132.726L293.483 133.248C293.346 133.455 293.172 133.652 292.962 133.84C292.751 134.027 292.491 134.18 292.182 134.297C291.878 134.414 291.516 134.473 291.098 134.473Z" fill="black"/>
<rect x="313" y="130" width="50" height="1" fill="black"/>
<path d="M80 30L130 80" stroke="black"/>
<rect x="130" y="80" width="50" height="1" transform="rotate(-90 130 80)" fill="black"/>
<rect x="0.5" y="15.5" width="79" height="29" rx="14.5" stroke="black"/>
<path d="M8.36523 25.4688V34H7.23438V25.4688H8.36523ZM13.5156 25.4688L9.9707 29.4473L7.97852 31.5156L7.79102 30.3086L9.29102 28.6562L12.1562 25.4688H13.5156ZM12.4258 34L9.26758 29.8398L9.94141 28.9434L13.7734 34H12.4258ZM14.1543 30.9004V30.7656C14.1543 30.3086 14.2207 29.8848 14.3535 29.4941C14.4863 29.0996 14.6777 28.7578 14.9277 28.4688C15.1777 28.1758 15.4805 27.9492 15.8359 27.7891C16.1914 27.625 16.5898 27.543 17.0312 27.543C17.4766 27.543 17.877 27.625 18.2324 27.7891C18.5918 27.9492 18.8965 28.1758 19.1465 28.4688C19.4004 28.7578 19.5938 29.0996 19.7266 29.4941C19.8594 29.8848 19.9258 30.3086 19.9258 30.7656V30.9004C19.9258 31.3574 19.8594 31.7812 19.7266 32.1719C19.5938 32.5625 19.4004 32.9043 19.1465 33.1973C18.8965 33.4863 18.5938 33.7129 18.2383 33.877C17.8867 34.0371 17.4883 34.1172 17.043 34.1172C16.5977 34.1172 16.1973 34.0371 15.8418 33.877C15.4863 33.7129 15.1816 33.4863 14.9277 33.1973C14.6777 32.9043 14.4863 32.5625 14.3535 32.1719C14.2207 31.7812 14.1543 31.3574 14.1543 30.9004ZM15.2383 30.7656V30.9004C15.2383 31.2168 15.2754 31.5156 15.3496 31.7969C15.4238 32.0742 15.5352 32.3203 15.6836 32.5352C15.8359 32.75 16.0254 32.9199 16.252 33.0449C16.4785 33.166 16.7422 33.2266 17.043 33.2266C17.3398 33.2266 17.5996 33.166 17.8223 33.0449C18.0488 32.9199 18.2363 32.75 18.3848 32.5352C18.5332 32.3203 18.6445 32.0742 18.7188 31.7969C18.7969 31.5156 18.8359 31.2168 18.8359 30.9004V30.7656C18.8359 30.4531 18.7969 30.1582 18.7188 29.8809C18.6445 29.5996 18.5312 29.3516 18.3789 29.1367C18.2305 28.918 18.043 28.7461 17.8164 28.6211C17.5938 28.4961 17.332 28.4336 17.0312 28.4336C16.7344 28.4336 16.4727 28.4961 16.2461 28.6211C16.0234 28.7461 15.8359 28.918 15.6836 29.1367C15.5352 29.3516 15.4238 29.5996 15.3496 29.8809C15.2754 30.1582 15.2383 30.4531 15.2383 30.7656ZM22.3633 28.9199V34H21.2734V27.6602H22.3047L22.3633 28.9199ZM22.1406 30.5898L21.6367 30.5723C21.6406 30.1387 21.6973 29.7383 21.8066 29.3711C21.916 29 22.0781 28.6777 22.293 28.4043C22.5078 28.1309 22.7754 27.9199 23.0957 27.7715C23.416 27.6191 23.7871 27.543 24.209 27.543C24.5059 27.543 24.7793 27.5859 25.0293 27.6719C25.2793 27.7539 25.4961 27.8848 25.6797 28.0645C25.8633 28.2441 26.0059 28.4746 26.1074 28.7559C26.209 29.0371 26.2598 29.377 26.2598 29.7754V34H25.1758V29.8281C25.1758 29.4961 25.1191 29.2305 25.0059 29.0312C24.8965 28.832 24.7402 28.6875 24.5371 28.5977C24.334 28.5039 24.0957 28.457 23.8223 28.457C23.502 28.457 23.2344 28.5137 23.0195 28.627C22.8047 28.7402 22.6328 28.8965 22.5039 29.0957C22.375 29.2949 22.2812 29.5234 22.2227 29.7812C22.168 30.0352 22.1406 30.3047 22.1406 30.5898ZM26.248 29.9922L25.5215 30.2148C25.5254 29.8672 25.582 29.5332 25.6914 29.2129C25.8047 28.8926 25.9668 28.6074 26.1777 28.3574C26.3926 28.1074 26.6562 27.9102 26.9688 27.7656C27.2812 27.6172 27.6387 27.543 28.041 27.543C28.3809 27.543 28.6816 27.5879 28.9434 27.6777C29.209 27.7676 29.4316 27.9062 29.6113 28.0938C29.7949 28.2773 29.9336 28.5137 30.0273 28.8027C30.1211 29.0918 30.168 29.4355 30.168 29.834V34H29.0781V29.8223C29.0781 29.4668 29.0215 29.1914 28.9082 28.9961C28.7988 28.7969 28.6426 28.6582 28.4395 28.5801C28.2402 28.498 28.002 28.457 27.7246 28.457C27.4863 28.457 27.2754 28.498 27.0918 28.5801C26.9082 28.6621 26.7539 28.7754 26.6289 28.9199C26.5039 29.0605 26.4082 29.2227 26.3418 29.4062C26.2793 29.5898 26.248 29.7852 26.248 29.9922ZM32.8867 28.9199V34H31.7969V27.6602H32.8281L32.8867 28.9199ZM32.6641 30.5898L32.1602 30.5723C32.1641 30.1387 32.2207 29.7383 32.3301 29.3711C32.4395 29 32.6016 28.6777 32.8164 28.4043C33.0312 28.1309 33.2988 27.9199 33.6191 27.7715C33.9395 27.6191 34.3105 27.543 34.7324 27.543C35.0293 27.543 35.3027 27.5859 35.5527 27.6719C35.8027 27.7539 36.0195 27.8848 36.2031 28.0645C36.3867 28.2441 36.5293 28.4746 36.6309 28.7559C36.7324 29.0371 36.7832 29.377 36.7832 29.7754V34H35.6992V29.8281C35.6992 29.4961 35.6426 29.2305 35.5293 29.0312C35.4199 28.832 35.2637 28.6875 35.0605 28.5977C34.8574 28.5039 34.6191 28.457 34.3457 28.457C34.0254 28.457 33.7578 28.5137 33.543 28.627C33.3281 28.7402 33.1562 28.8965 33.0273 29.0957C32.8984 29.2949 32.8047 29.5234 32.7461 29.7812C32.6914 30.0352 32.6641 30.3047 32.6641 30.5898ZM36.7715 29.9922L36.0449 30.2148C36.0488 29.8672 36.1055 29.5332 36.2148 29.2129C36.3281 28.8926 36.4902 28.6074 36.7012 28.3574C36.916 28.1074 37.1797 27.9102 37.4922 27.7656C37.8047 27.6172 38.1621 27.543 38.5645 27.543C38.9043 27.543 39.2051 27.5879 39.4668 27.6777C39.7324 27.7676 39.9551 27.9062 40.1348 28.0938C40.3184 28.2773 40.457 28.5137 40.5508 28.8027C40.6445 29.0918 40.6914 29.4355 40.6914 29.834V34H39.6016V29.8223C39.6016 29.4668 39.5449 29.1914 39.4316 28.9961C39.3223 28.7969 39.166 28.6582 38.9629 28.5801C38.7637 28.498 38.5254 28.457 38.248 28.457C38.0098 28.457 37.7988 28.498 37.6152 28.5801C37.4316 28.6621 37.2773 28.7754 37.1523 28.9199C37.0273 29.0605 36.9316 29.2227 36.8652 29.4062C36.8027 29.5898 36.7715 29.7852 36.7715 29.9922ZM46.2109 32.5352V27.6602H47.3008V34H46.2637L46.2109 32.5352ZM46.416 31.1992L46.8672 31.1875C46.8672 31.6094 46.8223 32 46.7324 32.3594C46.6465 32.7148 46.5059 33.0234 46.3105 33.2852C46.1152 33.5469 45.8594 33.752 45.543 33.9004C45.2266 34.0449 44.8418 34.1172 44.3887 34.1172C44.0801 34.1172 43.7969 34.0723 43.5391 33.9824C43.2852 33.8926 43.0664 33.7539 42.8828 33.5664C42.6992 33.3789 42.5566 33.1348 42.4551 32.834C42.3574 32.5332 42.3086 32.1719 42.3086 31.75V27.6602H43.3926V31.7617C43.3926 32.0469 43.4238 32.2832 43.4863 32.4707C43.5527 32.6543 43.6406 32.8008 43.75 32.9102C43.8633 33.0156 43.9883 33.0898 44.125 33.1328C44.2656 33.1758 44.4102 33.1973 44.5586 33.1973C45.0195 33.1973 45.3848 33.1094 45.6543 32.9336C45.9238 32.7539 46.1172 32.5137 46.2344 32.2129C46.3555 31.9082 46.416 31.5703 46.416 31.1992ZM50.0371 29.0137V34H48.9531V27.6602H49.9785L50.0371 29.0137ZM49.7793 30.5898L49.3281 30.5723C49.332 30.1387 49.3965 29.7383 49.5215 29.3711C49.6465 29 49.8223 28.6777 50.0488 28.4043C50.2754 28.1309 50.5449 27.9199 50.8574 27.7715C51.1738 27.6191 51.5234 27.543 51.9062 27.543C52.2188 27.543 52.5 27.5859 52.75 27.6719C53 27.7539 53.2129 27.8867 53.3887 28.0703C53.5684 28.2539 53.7051 28.4922 53.7988 28.7852C53.8926 29.0742 53.9395 29.4277 53.9395 29.8457V34H52.8496V29.834C52.8496 29.502 52.8008 29.2363 52.7031 29.0371C52.6055 28.834 52.4629 28.6875 52.2754 28.5977C52.0879 28.5039 51.8574 28.457 51.584 28.457C51.3145 28.457 51.0684 28.5137 50.8457 28.627C50.627 28.7402 50.4375 28.8965 50.2773 29.0957C50.1211 29.2949 49.998 29.5234 49.9082 29.7812C49.8223 30.0352 49.7793 30.3047 49.7793 30.5898ZM58.2168 34.1172C57.7754 34.1172 57.375 34.043 57.0156 33.8945C56.6602 33.7422 56.3535 33.5293 56.0957 33.2559C55.8418 32.9824 55.6465 32.6582 55.5098 32.2832C55.373 31.9082 55.3047 31.498 55.3047 31.0527V30.8066C55.3047 30.291 55.3809 29.832 55.5332 29.4297C55.6855 29.0234 55.8926 28.6797 56.1543 28.3984C56.416 28.1172 56.7129 27.9043 57.0449 27.7598C57.377 27.6152 57.7207 27.543 58.0762 27.543C58.5293 27.543 58.9199 27.6211 59.248 27.7773C59.5801 27.9336 59.8516 28.1523 60.0625 28.4336C60.2734 28.7109 60.4297 29.0391 60.5312 29.418C60.6328 29.793 60.6836 30.2031 60.6836 30.6484V31.1348H55.9492V30.25H59.5996V30.168C59.584 29.8867 59.5254 29.6133 59.4238 29.3477C59.3262 29.082 59.1699 28.8633 58.9551 28.6914C58.7402 28.5195 58.4473 28.4336 58.0762 28.4336C57.8301 28.4336 57.6035 28.4863 57.3965 28.5918C57.1895 28.6934 57.0117 28.8457 56.8633 29.0488C56.7148 29.252 56.5996 29.5 56.5176 29.793C56.4355 30.0859 56.3945 30.4238 56.3945 30.8066V31.0527C56.3945 31.3535 56.4355 31.6367 56.5176 31.9023C56.6035 32.1641 56.7266 32.3945 56.8867 32.5938C57.0508 32.793 57.248 32.9492 57.4785 33.0625C57.7129 33.1758 57.9785 33.2324 58.2754 33.2324C58.6582 33.2324 58.9824 33.1543 59.248 32.998C59.5137 32.8418 59.7461 32.6328 59.9453 32.3711L60.6016 32.8926C60.4648 33.0996 60.291 33.2969 60.0801 33.4844C59.8691 33.6719 59.6094 33.8242 59.3008 33.9414C58.9961 34.0586 58.6348 34.1172 58.2168 34.1172ZM68.6758 25.4688V34H67.5391L63.2441 27.4199V34H62.1133V25.4688H63.2441L67.5566 32.0664V25.4688H68.6758ZM71.5996 28.6562V34H70.5156V27.6602H71.5703L71.5996 28.6562ZM73.5801 27.625L73.5742 28.6328C73.4844 28.6133 73.3984 28.6016 73.3164 28.5977C73.2383 28.5898 73.1484 28.5859 73.0469 28.5859C72.7969 28.5859 72.5762 28.625 72.3848 28.7031C72.1934 28.7812 72.0312 28.8906 71.8984 29.0312C71.7656 29.1719 71.6602 29.3398 71.582 29.5352C71.5078 29.7266 71.459 29.9375 71.4355 30.168L71.1309 30.3438C71.1309 29.9609 71.168 29.6016 71.2422 29.2656C71.3203 28.9297 71.4395 28.6328 71.5996 28.375C71.7598 28.1133 71.9629 27.9102 72.209 27.7656C72.459 27.6172 72.7559 27.543 73.0996 27.543C73.1777 27.543 73.2676 27.5527 73.3691 27.5723C73.4707 27.5879 73.541 27.6055 73.5801 27.625Z" fill="black"/>
<path d="M6.24414 35.1719H73.7559V35.7578H6.24414V35.1719Z" fill="black"/>
<rect x="90.5" y="0.5" width="79" height="29" rx="14.5" stroke="black"/>
<path d="M123.83 10.4688V19H122.693L118.398 12.4199V19H117.268V10.4688H118.398L122.711 17.0664V10.4688H123.83ZM129.408 17.916V14.6523C129.408 14.4023 129.357 14.1855 129.256 14.002C129.158 13.8145 129.01 13.6699 128.811 13.5684C128.611 13.4668 128.365 13.416 128.072 13.416C127.799 13.416 127.559 13.4629 127.352 13.5566C127.148 13.6504 126.988 13.7734 126.871 13.9258C126.758 14.0781 126.701 14.2422 126.701 14.418H125.617C125.617 14.1914 125.676 13.9668 125.793 13.7441C125.91 13.5215 126.078 13.3203 126.297 13.1406C126.52 12.957 126.785 12.8125 127.094 12.707C127.406 12.5977 127.754 12.543 128.137 12.543C128.598 12.543 129.004 12.6211 129.355 12.7773C129.711 12.9336 129.988 13.1699 130.188 13.4863C130.391 13.7988 130.492 14.1914 130.492 14.6641V17.6172C130.492 17.8281 130.51 18.0527 130.545 18.291C130.584 18.5293 130.641 18.7344 130.715 18.9062V19H129.584C129.529 18.875 129.486 18.709 129.455 18.502C129.424 18.291 129.408 18.0957 129.408 17.916ZM129.596 15.1562L129.607 15.918H128.512C128.203 15.918 127.928 15.9434 127.686 15.9941C127.443 16.041 127.24 16.1133 127.076 16.2109C126.912 16.3086 126.787 16.4316 126.701 16.5801C126.615 16.7246 126.572 16.8945 126.572 17.0898C126.572 17.2891 126.617 17.4707 126.707 17.6348C126.797 17.7988 126.932 17.9297 127.111 18.0273C127.295 18.1211 127.52 18.168 127.785 18.168C128.117 18.168 128.41 18.0977 128.664 17.957C128.918 17.8164 129.119 17.6445 129.268 17.4414C129.42 17.2383 129.502 17.041 129.514 16.8496L129.977 17.3711C129.949 17.5352 129.875 17.7168 129.754 17.916C129.633 18.1152 129.471 18.3066 129.268 18.4902C129.068 18.6699 128.83 18.8203 128.553 18.9414C128.279 19.0586 127.971 19.1172 127.627 19.1172C127.197 19.1172 126.82 19.0332 126.496 18.8652C126.176 18.6973 125.926 18.4727 125.746 18.1914C125.57 17.9062 125.482 17.5879 125.482 17.2363C125.482 16.8965 125.549 16.5977 125.682 16.3398C125.814 16.0781 126.006 15.8613 126.256 15.6895C126.506 15.5137 126.807 15.3809 127.158 15.291C127.51 15.2012 127.902 15.1562 128.336 15.1562H129.596ZM134.031 18.0215L135.766 12.6602H136.873L134.594 19H133.867L134.031 18.0215ZM132.584 12.6602L134.371 18.0508L134.494 19H133.768L131.471 12.6602H132.584ZM139 14.0137V19H137.916V12.6602H138.941L139 14.0137ZM138.742 15.5898L138.291 15.5723C138.295 15.1387 138.359 14.7383 138.484 14.3711C138.609 14 138.785 13.6777 139.012 13.4043C139.238 13.1309 139.508 12.9199 139.82 12.7715C140.137 12.6191 140.486 12.543 140.869 12.543C141.182 12.543 141.463 12.5859 141.713 12.6719C141.963 12.7539 142.176 12.8867 142.352 13.0703C142.531 13.2539 142.668 13.4922 142.762 13.7852C142.855 14.0742 142.902 14.4277 142.902 14.8457V19H141.812V14.834C141.812 14.502 141.764 14.2363 141.666 14.0371C141.568 13.834 141.426 13.6875 141.238 13.5977C141.051 13.5039 140.82 13.457 140.547 13.457C140.277 13.457 140.031 13.5137 139.809 13.627C139.59 13.7402 139.4 13.8965 139.24 14.0957C139.084 14.2949 138.961 14.5234 138.871 14.7812C138.785 15.0352 138.742 15.3047 138.742 15.5898Z" fill="black"/>
<rect x="414" y="30" width="50" height="1" transform="rotate(90 414 30)" fill="black"/>
<rect x="373.5" y="0.5" width="79" height="29" rx="14.5" stroke="black"/>
<path d="M395.541 14.752V17.875C395.436 18.0312 395.268 18.207 395.037 18.4023C394.807 18.5938 394.488 18.7617 394.082 18.9062C393.68 19.0469 393.16 19.1172 392.523 19.1172C392.004 19.1172 391.525 19.0273 391.088 18.8477C390.654 18.6641 390.277 18.3984 389.957 18.0508C389.641 17.6992 389.395 17.2734 389.219 16.7734C389.047 16.2695 388.961 15.6992 388.961 15.0625V14.4004C388.961 13.7637 389.035 13.1953 389.184 12.6953C389.336 12.1953 389.559 11.7715 389.852 11.4238C390.145 11.0723 390.504 10.8066 390.93 10.627C391.355 10.4434 391.844 10.3516 392.395 10.3516C393.047 10.3516 393.592 10.4648 394.029 10.6914C394.471 10.9141 394.814 11.2227 395.061 11.6172C395.311 12.0117 395.471 12.4609 395.541 12.9648H394.41C394.359 12.6562 394.258 12.375 394.105 12.1211C393.957 11.8672 393.744 11.6641 393.467 11.5117C393.189 11.3555 392.832 11.2773 392.395 11.2773C392 11.2773 391.658 11.3496 391.369 11.4941C391.08 11.6387 390.842 11.8457 390.654 12.1152C390.467 12.3848 390.326 12.7109 390.232 13.0938C390.143 13.4766 390.098 13.9082 390.098 14.3887V15.0625C390.098 15.5547 390.154 15.9941 390.268 16.3809C390.385 16.7676 390.551 17.0977 390.766 17.3711C390.98 17.6406 391.236 17.8457 391.533 17.9863C391.834 18.127 392.166 18.1973 392.529 18.1973C392.932 18.1973 393.258 18.1641 393.508 18.0977C393.758 18.0273 393.953 17.9453 394.094 17.8516C394.234 17.7539 394.342 17.6621 394.416 17.5762V15.666H392.441V14.752H395.541ZM400.99 17.916V14.6523C400.99 14.4023 400.939 14.1855 400.838 14.002C400.74 13.8145 400.592 13.6699 400.393 13.5684C400.193 13.4668 399.947 13.416 399.654 13.416C399.381 13.416 399.141 13.4629 398.934 13.5566C398.73 13.6504 398.57 13.7734 398.453 13.9258C398.34 14.0781 398.283 14.2422 398.283 14.418H397.199C397.199 14.1914 397.258 13.9668 397.375 13.7441C397.492 13.5215 397.66 13.3203 397.879 13.1406C398.102 12.957 398.367 12.8125 398.676 12.707C398.988 12.5977 399.336 12.543 399.719 12.543C400.18 12.543 400.586 12.6211 400.938 12.7773C401.293 12.9336 401.57 13.1699 401.77 13.4863C401.973 13.7988 402.074 14.1914 402.074 14.6641V17.6172C402.074 17.8281 402.092 18.0527 402.127 18.291C402.166 18.5293 402.223 18.7344 402.297 18.9062V19H401.166C401.111 18.875 401.068 18.709 401.037 18.502C401.006 18.291 400.99 18.0957 400.99 17.916ZM401.178 15.1562L401.189 15.918H400.094C399.785 15.918 399.51 15.9434 399.268 15.9941C399.025 16.041 398.822 16.1133 398.658 16.2109C398.494 16.3086 398.369 16.4316 398.283 16.5801C398.197 16.7246 398.154 16.8945 398.154 17.0898C398.154 17.2891 398.199 17.4707 398.289 17.6348C398.379 17.7988 398.514 17.9297 398.693 18.0273C398.877 18.1211 399.102 18.168 399.367 18.168C399.699 18.168 399.992 18.0977 400.246 17.957C400.5 17.8164 400.701 17.6445 400.85 17.4414C401.002 17.2383 401.084 17.041 401.096 16.8496L401.559 17.3711C401.531 17.5352 401.457 17.7168 401.336 17.916C401.215 18.1152 401.053 18.3066 400.85 18.4902C400.65 18.6699 400.412 18.8203 400.135 18.9414C399.861 19.0586 399.553 19.1172 399.209 19.1172C398.779 19.1172 398.402 19.0332 398.078 18.8652C397.758 18.6973 397.508 18.4727 397.328 18.1914C397.152 17.9062 397.064 17.5879 397.064 17.2363C397.064 16.8965 397.131 16.5977 397.264 16.3398C397.396 16.0781 397.588 15.8613 397.838 15.6895C398.088 15.5137 398.389 15.3809 398.74 15.291C399.092 15.2012 399.484 15.1562 399.918 15.1562H401.178ZM406.434 12.6602V13.4922H403.006V12.6602H406.434ZM404.166 11.1191H405.25V17.4297C405.25 17.6445 405.283 17.8066 405.35 17.916C405.416 18.0254 405.502 18.0977 405.607 18.1328C405.713 18.168 405.826 18.1855 405.947 18.1855C406.037 18.1855 406.131 18.1777 406.229 18.1621C406.33 18.1426 406.406 18.127 406.457 18.1152L406.463 19C406.377 19.0273 406.264 19.0527 406.123 19.0762C405.986 19.1035 405.82 19.1172 405.625 19.1172C405.359 19.1172 405.115 19.0645 404.893 18.959C404.67 18.8535 404.492 18.6777 404.359 18.4316C404.23 18.1816 404.166 17.8457 404.166 17.4238V11.1191ZM410.336 19.1172C409.895 19.1172 409.494 19.043 409.135 18.8945C408.779 18.7422 408.473 18.5293 408.215 18.2559C407.961 17.9824 407.766 17.6582 407.629 17.2832C407.492 16.9082 407.424 16.498 407.424 16.0527V15.8066C407.424 15.291 407.5 14.832 407.652 14.4297C407.805 14.0234 408.012 13.6797 408.273 13.3984C408.535 13.1172 408.832 12.9043 409.164 12.7598C409.496 12.6152 409.84 12.543 410.195 12.543C410.648 12.543 411.039 12.6211 411.367 12.7773C411.699 12.9336 411.971 13.1523 412.182 13.4336C412.393 13.7109 412.549 14.0391 412.65 14.418C412.752 14.793 412.803 15.2031 412.803 15.6484V16.1348H408.068V15.25H411.719V15.168C411.703 14.8867 411.645 14.6133 411.543 14.3477C411.445 14.082 411.289 13.8633 411.074 13.6914C410.859 13.5195 410.566 13.4336 410.195 13.4336C409.949 13.4336 409.723 13.4863 409.516 13.5918C409.309 13.6934 409.131 13.8457 408.982 14.0488C408.834 14.252 408.719 14.5 408.637 14.793C408.555 15.0859 408.514 15.4238 408.514 15.8066V16.0527C408.514 16.3535 408.555 16.6367 408.637 16.9023C408.723 17.1641 408.846 17.3945 409.006 17.5938C409.17 17.793 409.367 17.9492 409.598 18.0625C409.832 18.1758 410.098 18.2324 410.395 18.2324C410.777 18.2324 411.102 18.1543 411.367 17.998C411.633 17.8418 411.865 17.6328 412.064 17.3711L412.721 17.8926C412.584 18.0996 412.41 18.2969 412.199 18.4844C411.988 18.6719 411.729 18.8242 411.42 18.9414C411.115 19.0586 410.754 19.1172 410.336 19.1172ZM415.152 14.0137V19H414.068V12.6602H415.094L415.152 14.0137ZM414.895 15.5898L414.443 15.5723C414.447 15.1387 414.512 14.7383 414.637 14.3711C414.762 14 414.938 13.6777 415.164 13.4043C415.391 13.1309 415.66 12.9199 415.973 12.7715C416.289 12.6191 416.639 12.543 417.021 12.543C417.334 12.543 417.615 12.5859 417.865 12.6719C418.115 12.7539 418.328 12.8867 418.504 13.0703C418.684 13.2539 418.82 13.4922 418.914 13.7852C419.008 14.0742 419.055 14.4277 419.055 14.8457V19H417.965V14.834C417.965 14.502 417.916 14.2363 417.818 14.0371C417.721 13.834 417.578 13.6875 417.391 13.5977C417.203 13.5039 416.973 13.457 416.699 13.457C416.43 13.457 416.184 13.5137 415.961 13.627C415.742 13.7402 415.553 13.8965 415.393 14.0957C415.236 14.2949 415.113 14.5234 415.023 14.7812C414.938 15.0352 414.895 15.3047 414.895 15.5898ZM424.439 17.916V14.6523C424.439 14.4023 424.389 14.1855 424.287 14.002C424.189 13.8145 424.041 13.6699 423.842 13.5684C423.643 13.4668 423.396 13.416 423.104 13.416C422.83 13.416 422.59 13.4629 422.383 13.5566C422.18 13.6504 422.02 13.7734 421.902 13.9258C421.789 14.0781 421.732 14.2422 421.732 14.418H420.648C420.648 14.1914 420.707 13.9668 420.824 13.7441C420.941 13.5215 421.109 13.3203 421.328 13.1406C421.551 12.957 421.816 12.8125 422.125 12.707C422.438 12.5977 422.785 12.543 423.168 12.543C423.629 12.543 424.035 12.6211 424.387 12.7773C424.742 12.9336 425.02 13.1699 425.219 13.4863C425.422 13.7988 425.523 14.1914 425.523 14.6641V17.6172C425.523 17.8281 425.541 18.0527 425.576 18.291C425.615 18.5293 425.672 18.7344 425.746 18.9062V19H424.615C424.561 18.875 424.518 18.709 424.486 18.502C424.455 18.291 424.439 18.0957 424.439 17.916ZM424.627 15.1562L424.639 15.918H423.543C423.234 15.918 422.959 15.9434 422.717 15.9941C422.475 16.041 422.271 16.1133 422.107 16.2109C421.943 16.3086 421.818 16.4316 421.732 16.5801C421.646 16.7246 421.604 16.8945 421.604 17.0898C421.604 17.2891 421.648 17.4707 421.738 17.6348C421.828 17.7988 421.963 17.9297 422.143 18.0273C422.326 18.1211 422.551 18.168 422.816 18.168C423.148 18.168 423.441 18.0977 423.695 17.957C423.949 17.8164 424.15 17.6445 424.299 17.4414C424.451 17.2383 424.533 17.041 424.545 16.8496L425.008 17.3711C424.98 17.5352 424.906 17.7168 424.785 17.916C424.664 18.1152 424.502 18.3066 424.299 18.4902C424.1 18.6699 423.861 18.8203 423.584 18.9414C423.311 19.0586 423.002 19.1172 422.658 19.1172C422.229 19.1172 421.852 19.0332 421.527 18.8652C421.207 18.6973 420.957 18.4727 420.777 18.1914C420.602 17.9062 420.514 17.5879 420.514 17.2363C420.514 16.8965 420.58 16.5977 420.713 16.3398C420.846 16.0781 421.037 15.8613 421.287 15.6895C421.537 15.5137 421.838 15.3809 422.189 15.291C422.541 15.2012 422.934 15.1562 423.367 15.1562H424.627ZM429.062 18.0215L430.797 12.6602H431.904L429.625 19H428.898L429.062 18.0215ZM427.615 12.6602L429.402 18.0508L429.525 19H428.799L426.502 12.6602H427.615ZM434.031 14.0137V19H432.947V12.6602H433.973L434.031 14.0137ZM433.773 15.5898L433.322 15.5723C433.326 15.1387 433.391 14.7383 433.516 14.3711C433.641 14 433.816 13.6777 434.043 13.4043C434.27 13.1309 434.539 12.9199 434.852 12.7715C435.168 12.6191 435.518 12.543 435.9 12.543C436.213 12.543 436.494 12.5859 436.744 12.6719C436.994 12.7539 437.207 12.8867 437.383 13.0703C437.562 13.2539 437.699 13.4922 437.793 13.7852C437.887 14.0742 437.934 14.4277 437.934 14.8457V19H436.844V14.834C436.844 14.502 436.795 14.2363 436.697 14.0371C436.6 13.834 436.457 13.6875 436.27 13.5977C436.082 13.5039 435.852 13.457 435.578 13.457C435.309 13.457 435.062 13.5137 434.84 13.627C434.621 13.7402 434.432 13.8965 434.271 14.0957C434.115 14.2949 433.992 14.5234 433.902 14.7812C433.816 15.0352 433.773 15.3047 433.773 15.5898Z" fill="black"/>
<path d="M383 21H444" stroke="black" stroke-width="0.8" stroke-dasharray="4 4"/>
<path d="M182.307 122.59V122.531C182.307 121.68 182.402 120.91 182.594 120.223C182.785 119.531 183.029 118.926 183.326 118.406C183.623 117.887 183.936 117.457 184.264 117.117C184.592 116.773 184.895 116.525 185.172 116.373L185.4 117.088C185.17 117.264 184.936 117.506 184.697 117.814C184.463 118.123 184.246 118.502 184.047 118.951C183.852 119.4 183.693 119.922 183.572 120.516C183.451 121.109 183.391 121.777 183.391 122.52V122.602C183.391 123.344 183.451 124.014 183.572 124.611C183.693 125.205 183.852 125.729 184.047 126.182C184.246 126.635 184.463 127.02 184.697 127.336C184.936 127.656 185.17 127.91 185.4 128.098L185.172 128.754C184.895 128.602 184.592 128.354 184.264 128.01C183.936 127.67 183.623 127.24 183.326 126.721C183.029 126.205 182.785 125.602 182.594 124.91C182.402 124.219 182.307 123.445 182.307 122.59ZM191.699 121.055V122.355C191.699 123.055 191.637 123.645 191.512 124.125C191.387 124.605 191.207 124.992 190.973 125.285C190.738 125.578 190.455 125.791 190.123 125.924C189.795 126.053 189.424 126.117 189.01 126.117C188.682 126.117 188.379 126.076 188.102 125.994C187.824 125.912 187.574 125.781 187.352 125.602C187.133 125.418 186.945 125.18 186.789 124.887C186.633 124.594 186.514 124.238 186.432 123.82C186.35 123.402 186.309 122.914 186.309 122.355V121.055C186.309 120.355 186.371 119.77 186.496 119.297C186.625 118.824 186.807 118.445 187.041 118.16C187.275 117.871 187.557 117.664 187.885 117.539C188.217 117.414 188.588 117.352 188.998 117.352C189.33 117.352 189.635 117.393 189.912 117.475C190.193 117.553 190.443 117.68 190.662 117.855C190.881 118.027 191.066 118.258 191.219 118.547C191.375 118.832 191.494 119.182 191.576 119.596C191.658 120.01 191.699 120.496 191.699 121.055ZM190.609 122.531V120.873C190.609 120.49 190.586 120.154 190.539 119.865C190.496 119.572 190.432 119.322 190.346 119.115C190.26 118.908 190.15 118.74 190.018 118.611C189.889 118.482 189.738 118.389 189.566 118.33C189.398 118.268 189.209 118.236 188.998 118.236C188.74 118.236 188.512 118.285 188.312 118.383C188.113 118.477 187.945 118.627 187.809 118.834C187.676 119.041 187.574 119.312 187.504 119.648C187.434 119.984 187.398 120.393 187.398 120.873V122.531C187.398 122.914 187.42 123.252 187.463 123.545C187.51 123.838 187.578 124.092 187.668 124.307C187.758 124.518 187.867 124.691 187.996 124.828C188.125 124.965 188.273 125.066 188.441 125.133C188.613 125.195 188.803 125.227 189.01 125.227C189.275 125.227 189.508 125.176 189.707 125.074C189.906 124.973 190.072 124.814 190.205 124.6C190.342 124.381 190.443 124.102 190.51 123.762C190.576 123.418 190.609 123.008 190.609 122.531ZM194.195 124.711V125.584C194.195 125.939 194.105 126.314 193.926 126.709C193.746 127.107 193.494 127.439 193.17 127.705L192.555 127.277C192.68 127.105 192.785 126.93 192.871 126.75C192.957 126.574 193.021 126.391 193.064 126.199C193.111 126.012 193.135 125.812 193.135 125.602V124.711H194.195ZM205.281 117.469V126H204.145L199.85 119.42V126H198.719V117.469H199.85L204.162 124.066V117.469H205.281ZM209.617 122.531V122.59C209.617 123.445 209.521 124.219 209.33 124.91C209.139 125.602 208.895 126.205 208.598 126.721C208.301 127.24 207.988 127.67 207.66 128.01C207.332 128.354 207.029 128.602 206.752 128.754L206.523 128.098C206.754 127.922 206.986 127.676 207.221 127.359C207.455 127.047 207.672 126.66 207.871 126.199C208.07 125.742 208.23 125.215 208.352 124.617C208.473 124.016 208.533 123.344 208.533 122.602V122.52C208.533 121.777 208.469 121.107 208.34 120.51C208.211 119.908 208.043 119.379 207.836 118.922C207.633 118.465 207.414 118.08 207.18 117.768C206.949 117.451 206.73 117.207 206.523 117.035L206.752 116.373C207.029 116.525 207.332 116.773 207.66 117.117C207.988 117.457 208.301 117.887 208.598 118.406C208.895 118.926 209.139 119.531 209.33 120.223C209.521 120.91 209.617 121.68 209.617 122.531Z" fill="black"/>
<path d="M334.215 121.59V121.531C334.215 120.68 334.311 119.91 334.502 119.223C334.693 118.531 334.938 117.926 335.234 117.406C335.531 116.887 335.844 116.457 336.172 116.117C336.5 115.773 336.803 115.525 337.08 115.373L337.309 116.088C337.078 116.264 336.844 116.506 336.605 116.814C336.371 117.123 336.154 117.502 335.955 117.951C335.76 118.4 335.602 118.922 335.48 119.516C335.359 120.109 335.299 120.777 335.299 121.52V121.602C335.299 122.344 335.359 123.014 335.48 123.611C335.602 124.205 335.76 124.729 335.955 125.182C336.154 125.635 336.371 126.02 336.605 126.336C336.844 126.656 337.078 126.91 337.309 127.098L337.08 127.754C336.803 127.602 336.5 127.354 336.172 127.01C335.844 126.67 335.531 126.24 335.234 125.721C334.938 125.205 334.693 124.602 334.502 123.91C334.311 123.219 334.215 122.445 334.215 121.59ZM341.814 116.422V125H340.73V117.775L338.545 118.572V117.594L341.645 116.422H341.814ZM346.104 123.711V124.584C346.104 124.939 346.014 125.314 345.834 125.709C345.654 126.107 345.402 126.439 345.078 126.705L344.463 126.277C344.588 126.105 344.693 125.93 344.779 125.75C344.865 125.574 344.93 125.391 344.973 125.199C345.02 125.012 345.043 124.812 345.043 124.602V123.711H346.104ZM353.908 116.422V125H352.824V117.775L350.639 118.572V117.594L353.738 116.422H353.908ZM359.709 121.531V121.59C359.709 122.445 359.613 123.219 359.422 123.91C359.23 124.602 358.986 125.205 358.689 125.721C358.393 126.24 358.08 126.67 357.752 127.01C357.424 127.354 357.121 127.602 356.844 127.754L356.615 127.098C356.846 126.922 357.078 126.676 357.312 126.359C357.547 126.047 357.764 125.66 357.963 125.199C358.162 124.742 358.322 124.215 358.443 123.617C358.564 123.016 358.625 122.344 358.625 121.602V121.52C358.625 120.777 358.561 120.107 358.432 119.51C358.303 118.908 358.135 118.379 357.928 117.922C357.725 117.465 357.506 117.08 357.271 116.768C357.041 116.451 356.822 116.207 356.615 116.035L356.844 115.373C357.121 115.525 357.424 115.773 357.752 116.117C358.08 116.457 358.393 116.887 358.689 117.406C358.986 117.926 359.23 118.531 359.422 119.223C359.613 119.91 359.709 120.68 359.709 121.531Z" fill="black"/>
</svg>
