<svg width="605" height="272" viewBox="0 0 605 272" fill="none" xmlns="http://www.w3.org/2000/svg">
<rect x="425.5" y="80.5" width="99" height="99" stroke="black"/>
<path d="M459.854 131.844C459.854 131.645 459.822 131.469 459.76 131.316C459.701 131.16 459.596 131.02 459.443 130.895C459.295 130.77 459.088 130.65 458.822 130.537C458.561 130.424 458.229 130.309 457.826 130.191C457.404 130.066 457.023 129.928 456.684 129.775C456.344 129.619 456.053 129.441 455.811 129.242C455.568 129.043 455.383 128.814 455.254 128.557C455.125 128.299 455.061 128.004 455.061 127.672C455.061 127.34 455.129 127.033 455.266 126.752C455.402 126.471 455.598 126.227 455.852 126.02C456.109 125.809 456.416 125.645 456.771 125.527C457.127 125.41 457.523 125.352 457.961 125.352C458.602 125.352 459.145 125.475 459.59 125.721C460.039 125.963 460.381 126.281 460.615 126.676C460.85 127.066 460.967 127.484 460.967 127.93H459.842C459.842 127.609 459.773 127.326 459.637 127.08C459.5 126.83 459.293 126.635 459.016 126.494C458.738 126.35 458.387 126.277 457.961 126.277C457.559 126.277 457.227 126.338 456.965 126.459C456.703 126.58 456.508 126.744 456.379 126.951C456.254 127.158 456.191 127.395 456.191 127.66C456.191 127.84 456.229 128.004 456.303 128.152C456.381 128.297 456.5 128.432 456.66 128.557C456.824 128.682 457.031 128.797 457.281 128.902C457.535 129.008 457.838 129.109 458.189 129.207C458.674 129.344 459.092 129.496 459.443 129.664C459.795 129.832 460.084 130.021 460.311 130.232C460.541 130.439 460.711 130.676 460.82 130.941C460.934 131.203 460.99 131.5 460.99 131.832C460.99 132.18 460.92 132.494 460.779 132.775C460.639 133.057 460.438 133.297 460.176 133.496C459.914 133.695 459.6 133.85 459.232 133.959C458.869 134.064 458.463 134.117 458.014 134.117C457.619 134.117 457.23 134.062 456.848 133.953C456.469 133.844 456.123 133.68 455.811 133.461C455.502 133.242 455.254 132.973 455.066 132.652C454.883 132.328 454.791 131.953 454.791 131.527H455.916C455.916 131.82 455.973 132.072 456.086 132.283C456.199 132.49 456.354 132.662 456.549 132.799C456.748 132.936 456.973 133.037 457.223 133.104C457.477 133.166 457.74 133.197 458.014 133.197C458.408 133.197 458.742 133.143 459.016 133.033C459.289 132.924 459.496 132.768 459.637 132.564C459.781 132.361 459.854 132.121 459.854 131.844ZM464.922 127.66V128.492H461.494V127.66H464.922ZM462.654 126.119H463.738V132.43C463.738 132.645 463.771 132.807 463.838 132.916C463.904 133.025 463.99 133.098 464.096 133.133C464.201 133.168 464.314 133.186 464.436 133.186C464.525 133.186 464.619 133.178 464.717 133.162C464.818 133.143 464.895 133.127 464.945 133.115L464.951 134C464.865 134.027 464.752 134.053 464.611 134.076C464.475 134.104 464.309 134.117 464.113 134.117C463.848 134.117 463.604 134.064 463.381 133.959C463.158 133.854 462.98 133.678 462.848 133.432C462.719 133.182 462.654 132.846 462.654 132.424V126.119ZM470.072 132.535V127.66H471.162V134H470.125L470.072 132.535ZM470.277 131.199L470.729 131.188C470.729 131.609 470.684 132 470.594 132.359C470.508 132.715 470.367 133.023 470.172 133.285C469.977 133.547 469.721 133.752 469.404 133.9C469.088 134.045 468.703 134.117 468.25 134.117C467.941 134.117 467.658 134.072 467.4 133.982C467.146 133.893 466.928 133.754 466.744 133.566C466.561 133.379 466.418 133.135 466.316 132.834C466.219 132.533 466.17 132.172 466.17 131.75V127.66H467.254V131.762C467.254 132.047 467.285 132.283 467.348 132.471C467.414 132.654 467.502 132.801 467.611 132.91C467.725 133.016 467.85 133.09 467.986 133.133C468.127 133.176 468.271 133.197 468.42 133.197C468.881 133.197 469.246 133.109 469.516 132.934C469.785 132.754 469.979 132.514 470.096 132.213C470.217 131.908 470.277 131.57 470.277 131.199ZM476.811 132.77V125H477.9V134H476.904L476.811 132.77ZM472.545 130.9V130.777C472.545 130.293 472.604 129.854 472.721 129.459C472.842 129.061 473.012 128.719 473.23 128.434C473.453 128.148 473.717 127.93 474.021 127.777C474.33 127.621 474.674 127.543 475.053 127.543C475.451 127.543 475.799 127.613 476.096 127.754C476.396 127.891 476.65 128.092 476.857 128.357C477.068 128.619 477.234 128.936 477.355 129.307C477.477 129.678 477.561 130.098 477.607 130.566V131.105C477.564 131.57 477.48 131.988 477.355 132.359C477.234 132.73 477.068 133.047 476.857 133.309C476.65 133.57 476.396 133.771 476.096 133.912C475.795 134.049 475.443 134.117 475.041 134.117C474.67 134.117 474.33 134.037 474.021 133.877C473.717 133.717 473.453 133.492 473.23 133.203C473.012 132.914 472.842 132.574 472.721 132.184C472.604 131.789 472.545 131.361 472.545 130.9ZM473.635 130.777V130.9C473.635 131.217 473.666 131.514 473.729 131.791C473.795 132.068 473.896 132.312 474.033 132.523C474.17 132.734 474.344 132.9 474.555 133.021C474.766 133.139 475.018 133.197 475.311 133.197C475.67 133.197 475.965 133.121 476.195 132.969C476.43 132.816 476.617 132.615 476.758 132.365C476.898 132.115 477.008 131.844 477.086 131.551V130.139C477.039 129.924 476.971 129.717 476.881 129.518C476.795 129.314 476.682 129.135 476.541 128.979C476.404 128.818 476.234 128.691 476.031 128.598C475.832 128.504 475.596 128.457 475.322 128.457C475.025 128.457 474.77 128.52 474.555 128.645C474.344 128.766 474.17 128.934 474.033 129.148C473.896 129.359 473.795 129.605 473.729 129.887C473.666 130.164 473.635 130.461 473.635 130.777ZM482.219 134.117C481.777 134.117 481.377 134.043 481.018 133.895C480.662 133.742 480.355 133.529 480.098 133.256C479.844 132.982 479.648 132.658 479.512 132.283C479.375 131.908 479.307 131.498 479.307 131.053V130.807C479.307 130.291 479.383 129.832 479.535 129.43C479.688 129.023 479.895 128.68 480.156 128.398C480.418 128.117 480.715 127.904 481.047 127.76C481.379 127.615 481.723 127.543 482.078 127.543C482.531 127.543 482.922 127.621 483.25 127.777C483.582 127.934 483.854 128.152 484.064 128.434C484.275 128.711 484.432 129.039 484.533 129.418C484.635 129.793 484.686 130.203 484.686 130.648V131.135H479.951V130.25H483.602V130.168C483.586 129.887 483.527 129.613 483.426 129.348C483.328 129.082 483.172 128.863 482.957 128.691C482.742 128.52 482.449 128.434 482.078 128.434C481.832 128.434 481.605 128.486 481.398 128.592C481.191 128.693 481.014 128.846 480.865 129.049C480.717 129.252 480.602 129.5 480.52 129.793C480.438 130.086 480.396 130.424 480.396 130.807V131.053C480.396 131.354 480.438 131.637 480.52 131.902C480.605 132.164 480.729 132.395 480.889 132.594C481.053 132.793 481.25 132.949 481.48 133.062C481.715 133.176 481.98 133.232 482.277 133.232C482.66 133.232 482.984 133.154 483.25 132.998C483.516 132.842 483.748 132.633 483.947 132.371L484.604 132.893C484.467 133.1 484.293 133.297 484.082 133.484C483.871 133.672 483.611 133.824 483.303 133.941C482.998 134.059 482.637 134.117 482.219 134.117ZM487.035 129.014V134H485.951V127.66H486.977L487.035 129.014ZM486.777 130.59L486.326 130.572C486.33 130.139 486.395 129.738 486.52 129.371C486.645 129 486.82 128.678 487.047 128.404C487.273 128.131 487.543 127.92 487.855 127.771C488.172 127.619 488.521 127.543 488.904 127.543C489.217 127.543 489.498 127.586 489.748 127.672C489.998 127.754 490.211 127.887 490.387 128.07C490.566 128.254 490.703 128.492 490.797 128.785C490.891 129.074 490.938 129.428 490.938 129.846V134H489.848V129.834C489.848 129.502 489.799 129.236 489.701 129.037C489.604 128.834 489.461 128.688 489.273 128.598C489.086 128.504 488.855 128.457 488.582 128.457C488.312 128.457 488.066 128.514 487.844 128.627C487.625 128.74 487.436 128.896 487.275 129.096C487.119 129.295 486.996 129.523 486.906 129.781C486.82 130.035 486.777 130.305 486.777 130.59ZM495.238 127.66V128.492H491.811V127.66H495.238ZM492.971 126.119H494.055V132.43C494.055 132.645 494.088 132.807 494.154 132.916C494.221 133.025 494.307 133.098 494.412 133.133C494.518 133.168 494.631 133.186 494.752 133.186C494.842 133.186 494.936 133.178 495.033 133.162C495.135 133.143 495.211 133.127 495.262 133.115L495.268 134C495.182 134.027 495.068 134.053 494.928 134.076C494.791 134.104 494.625 134.117 494.43 134.117C494.164 134.117 493.92 134.064 493.697 133.959C493.475 133.854 493.297 133.678 493.164 133.432C493.035 133.182 492.971 132.846 492.971 132.424V126.119Z" fill="black"/>
<rect x="62.5" y="15.5" width="79" height="29" rx="14.5" stroke="black"/>
<path d="M87.668 33.0801V34H83.1504V33.0801H87.668ZM83.3789 25.4688V34H82.248V25.4688H83.3789ZM87.0703 29.1367V30.0566H83.1504V29.1367H87.0703ZM87.6094 25.4688V26.3945H83.1504V25.4688H87.6094ZM89.9824 28.9199V34H88.8926V27.6602H89.9238L89.9824 28.9199ZM89.7598 30.5898L89.2559 30.5723C89.2598 30.1387 89.3164 29.7383 89.4258 29.3711C89.5352 29 89.6973 28.6777 89.9121 28.4043C90.127 28.1309 90.3945 27.9199 90.7148 27.7715C91.0352 27.6191 91.4062 27.543 91.8281 27.543C92.125 27.543 92.3984 27.5859 92.6484 27.6719C92.8984 27.7539 93.1152 27.8848 93.2988 28.0645C93.4824 28.2441 93.625 28.4746 93.7266 28.7559C93.8281 29.0371 93.8789 29.377 93.8789 29.7754V34H92.7949V29.8281C92.7949 29.4961 92.7383 29.2305 92.625 29.0312C92.5156 28.832 92.3594 28.6875 92.1562 28.5977C91.9531 28.5039 91.7148 28.457 91.4414 28.457C91.1211 28.457 90.8535 28.5137 90.6387 28.627C90.4238 28.7402 90.252 28.8965 90.123 29.0957C89.9941 29.2949 89.9004 29.5234 89.8418 29.7812C89.7871 30.0352 89.7598 30.3047 89.7598 30.5898ZM93.8672 29.9922L93.1406 30.2148C93.1445 29.8672 93.2012 29.5332 93.3105 29.2129C93.4238 28.8926 93.5859 28.6074 93.7969 28.3574C94.0117 28.1074 94.2754 27.9102 94.5879 27.7656C94.9004 27.6172 95.2578 27.543 95.6602 27.543C96 27.543 96.3008 27.5879 96.5625 27.6777C96.8281 27.7676 97.0508 27.9062 97.2305 28.0938C97.4141 28.2773 97.5527 28.5137 97.6465 28.8027C97.7402 29.0918 97.7871 29.4355 97.7871 29.834V34H96.6973V29.8223C96.6973 29.4668 96.6406 29.1914 96.5273 28.9961C96.418 28.7969 96.2617 28.6582 96.0586 28.5801C95.8594 28.498 95.6211 28.457 95.3438 28.457C95.1055 28.457 94.8945 28.498 94.7109 28.5801C94.5273 28.6621 94.373 28.7754 94.248 28.9199C94.123 29.0605 94.0273 29.2227 93.9609 29.4062C93.8984 29.5898 93.8672 29.7852 93.8672 29.9922ZM100.512 29.0137V34H99.4277V27.6602H100.453L100.512 29.0137ZM100.254 30.5898L99.8027 30.5723C99.8066 30.1387 99.8711 29.7383 99.9961 29.3711C100.121 29 100.297 28.6777 100.523 28.4043C100.75 28.1309 101.02 27.9199 101.332 27.7715C101.648 27.6191 101.998 27.543 102.381 27.543C102.693 27.543 102.975 27.5859 103.225 27.6719C103.475 27.7539 103.688 27.8867 103.863 28.0703C104.043 28.2539 104.18 28.4922 104.273 28.7852C104.367 29.0742 104.414 29.4277 104.414 29.8457V34H103.324V29.834C103.324 29.502 103.275 29.2363 103.178 29.0371C103.08 28.834 102.938 28.6875 102.75 28.5977C102.562 28.5039 102.332 28.457 102.059 28.457C101.789 28.457 101.543 28.5137 101.32 28.627C101.102 28.7402 100.912 28.8965 100.752 29.0957C100.596 29.2949 100.473 29.5234 100.383 29.7812C100.297 30.0352 100.254 30.3047 100.254 30.5898ZM108.691 34.1172C108.25 34.1172 107.85 34.043 107.49 33.8945C107.135 33.7422 106.828 33.5293 106.57 33.2559C106.316 32.9824 106.121 32.6582 105.984 32.2832C105.848 31.9082 105.779 31.498 105.779 31.0527V30.8066C105.779 30.291 105.855 29.832 106.008 29.4297C106.16 29.0234 106.367 28.6797 106.629 28.3984C106.891 28.1172 107.188 27.9043 107.52 27.7598C107.852 27.6152 108.195 27.543 108.551 27.543C109.004 27.543 109.395 27.6211 109.723 27.7773C110.055 27.9336 110.326 28.1523 110.537 28.4336C110.748 28.7109 110.904 29.0391 111.006 29.418C111.107 29.793 111.158 30.2031 111.158 30.6484V31.1348H106.424V30.25H110.074V30.168C110.059 29.8867 110 29.6133 109.898 29.3477C109.801 29.082 109.645 28.8633 109.43 28.6914C109.215 28.5195 108.922 28.4336 108.551 28.4336C108.305 28.4336 108.078 28.4863 107.871 28.5918C107.664 28.6934 107.486 28.8457 107.338 29.0488C107.189 29.252 107.074 29.5 106.992 29.793C106.91 30.0859 106.869 30.4238 106.869 30.8066V31.0527C106.869 31.3535 106.91 31.6367 106.992 31.9023C107.078 32.1641 107.201 32.3945 107.361 32.5938C107.525 32.793 107.723 32.9492 107.953 33.0625C108.188 33.1758 108.453 33.2324 108.75 33.2324C109.133 33.2324 109.457 33.1543 109.723 32.998C109.988 32.8418 110.221 32.6328 110.42 32.3711L111.076 32.8926C110.939 33.0996 110.766 33.2969 110.555 33.4844C110.344 33.6719 110.084 33.8242 109.775 33.9414C109.471 34.0586 109.109 34.1172 108.691 34.1172ZM113.801 25.4688V34H112.67V25.4688H113.801ZM118.166 34H116.385L116.396 33.0801H118.166C118.775 33.0801 119.283 32.9531 119.689 32.6992C120.096 32.4414 120.4 32.082 120.604 31.6211C120.811 31.1562 120.914 30.6133 120.914 29.9922V29.4707C120.914 28.9824 120.855 28.5488 120.738 28.1699C120.621 27.7871 120.449 27.4648 120.223 27.2031C119.996 26.9375 119.719 26.7363 119.391 26.5996C119.066 26.4629 118.693 26.3945 118.271 26.3945H116.35V25.4688H118.271C118.83 25.4688 119.34 25.5625 119.801 25.75C120.262 25.9336 120.658 26.2012 120.99 26.5527C121.326 26.9004 121.584 27.3223 121.764 27.8184C121.943 28.3105 122.033 28.8652 122.033 29.4824V29.9922C122.033 30.6094 121.943 31.166 121.764 31.6621C121.584 32.1543 121.324 32.5742 120.984 32.9219C120.648 33.2695 120.242 33.5371 119.766 33.7246C119.293 33.9082 118.76 34 118.166 34ZM116.988 25.4688V34H115.857V25.4688H116.988Z" fill="black"/>
<path d="M81.2578 35.1719H122.742V35.7578H81.2578V35.1719Z" fill="black"/>
<rect x="153.5" y="0.5" width="79" height="29" rx="14.5" stroke="black"/>
<path d="M186.83 10.4688V19H185.693L181.398 12.4199V19H180.268V10.4688H181.398L185.711 17.0664V10.4688H186.83ZM192.408 17.916V14.6523C192.408 14.4023 192.357 14.1855 192.256 14.002C192.158 13.8145 192.01 13.6699 191.811 13.5684C191.611 13.4668 191.365 13.416 191.072 13.416C190.799 13.416 190.559 13.4629 190.352 13.5566C190.148 13.6504 189.988 13.7734 189.871 13.9258C189.758 14.0781 189.701 14.2422 189.701 14.418H188.617C188.617 14.1914 188.676 13.9668 188.793 13.7441C188.91 13.5215 189.078 13.3203 189.297 13.1406C189.52 12.957 189.785 12.8125 190.094 12.707C190.406 12.5977 190.754 12.543 191.137 12.543C191.598 12.543 192.004 12.6211 192.355 12.7773C192.711 12.9336 192.988 13.1699 193.188 13.4863C193.391 13.7988 193.492 14.1914 193.492 14.6641V17.6172C193.492 17.8281 193.51 18.0527 193.545 18.291C193.584 18.5293 193.641 18.7344 193.715 18.9062V19H192.584C192.529 18.875 192.486 18.709 192.455 18.502C192.424 18.291 192.408 18.0957 192.408 17.916ZM192.596 15.1562L192.607 15.918H191.512C191.203 15.918 190.928 15.9434 190.686 15.9941C190.443 16.041 190.24 16.1133 190.076 16.2109C189.912 16.3086 189.787 16.4316 189.701 16.5801C189.615 16.7246 189.572 16.8945 189.572 17.0898C189.572 17.2891 189.617 17.4707 189.707 17.6348C189.797 17.7988 189.932 17.9297 190.111 18.0273C190.295 18.1211 190.52 18.168 190.785 18.168C191.117 18.168 191.41 18.0977 191.664 17.957C191.918 17.8164 192.119 17.6445 192.268 17.4414C192.42 17.2383 192.502 17.041 192.514 16.8496L192.977 17.3711C192.949 17.5352 192.875 17.7168 192.754 17.916C192.633 18.1152 192.471 18.3066 192.268 18.4902C192.068 18.6699 191.83 18.8203 191.553 18.9414C191.279 19.0586 190.971 19.1172 190.627 19.1172C190.197 19.1172 189.82 19.0332 189.496 18.8652C189.176 18.6973 188.926 18.4727 188.746 18.1914C188.57 17.9062 188.482 17.5879 188.482 17.2363C188.482 16.8965 188.549 16.5977 188.682 16.3398C188.814 16.0781 189.006 15.8613 189.256 15.6895C189.506 15.5137 189.807 15.3809 190.158 15.291C190.51 15.2012 190.902 15.1562 191.336 15.1562H192.596ZM197.031 18.0215L198.766 12.6602H199.873L197.594 19H196.867L197.031 18.0215ZM195.584 12.6602L197.371 18.0508L197.494 19H196.768L194.471 12.6602H195.584ZM202 14.0137V19H200.916V12.6602H201.941L202 14.0137ZM201.742 15.5898L201.291 15.5723C201.295 15.1387 201.359 14.7383 201.484 14.3711C201.609 14 201.785 13.6777 202.012 13.4043C202.238 13.1309 202.508 12.9199 202.82 12.7715C203.137 12.6191 203.486 12.543 203.869 12.543C204.182 12.543 204.463 12.5859 204.713 12.6719C204.963 12.7539 205.176 12.8867 205.352 13.0703C205.531 13.2539 205.668 13.4922 205.762 13.7852C205.855 14.0742 205.902 14.4277 205.902 14.8457V19H204.812V14.834C204.812 14.502 204.764 14.2363 204.666 14.0371C204.568 13.834 204.426 13.6875 204.238 13.5977C204.051 13.5039 203.82 13.457 203.547 13.457C203.277 13.457 203.031 13.5137 202.809 13.627C202.59 13.7402 202.4 13.8965 202.24 14.0957C202.084 14.2949 201.961 14.5234 201.871 14.7812C201.785 15.0352 201.742 15.3047 201.742 15.5898Z" fill="black"/>
<rect x="333.426" y="88.7071" width="59" height="59" transform="rotate(45 333.426 88.7071)" stroke="black"/>
<path d="M320.96 125.824V134.355H319.846V125.824H320.96ZM323.702 125.824V126.75H317.11V125.824H323.702ZM327.874 133.271V130.008C327.874 129.758 327.823 129.541 327.721 129.357C327.624 129.17 327.475 129.025 327.276 128.924C327.077 128.822 326.831 128.771 326.538 128.771C326.264 128.771 326.024 128.818 325.817 128.912C325.614 129.006 325.454 129.129 325.337 129.281C325.223 129.433 325.167 129.598 325.167 129.773H324.083C324.083 129.547 324.141 129.322 324.258 129.099C324.376 128.877 324.544 128.676 324.762 128.496C324.985 128.312 325.251 128.168 325.559 128.062C325.872 127.953 326.219 127.898 326.602 127.898C327.063 127.898 327.469 127.976 327.821 128.133C328.176 128.289 328.454 128.525 328.653 128.842C328.856 129.154 328.958 129.547 328.958 130.019V132.973C328.958 133.183 328.975 133.408 329.01 133.646C329.049 133.885 329.106 134.09 329.18 134.262V134.355H328.049C327.995 134.23 327.952 134.064 327.921 133.857C327.889 133.646 327.874 133.451 327.874 133.271ZM328.061 130.512L328.073 131.273H326.977C326.669 131.273 326.393 131.299 326.151 131.349C325.909 131.396 325.706 131.469 325.542 131.566C325.378 131.664 325.253 131.787 325.167 131.935C325.081 132.08 325.038 132.25 325.038 132.445C325.038 132.644 325.083 132.826 325.172 132.99C325.262 133.154 325.397 133.285 325.577 133.383C325.76 133.476 325.985 133.523 326.251 133.523C326.583 133.523 326.876 133.453 327.13 133.312C327.383 133.172 327.585 133 327.733 132.797C327.885 132.594 327.967 132.396 327.979 132.205L328.442 132.726C328.415 132.891 328.34 133.072 328.219 133.271C328.098 133.471 327.936 133.662 327.733 133.846C327.534 134.025 327.296 134.176 327.018 134.297C326.745 134.414 326.436 134.473 326.092 134.473C325.663 134.473 325.286 134.389 324.962 134.221C324.641 134.053 324.391 133.828 324.212 133.547C324.036 133.262 323.948 132.943 323.948 132.592C323.948 132.252 324.014 131.953 324.147 131.695C324.28 131.433 324.471 131.217 324.721 131.045C324.971 130.869 325.272 130.736 325.624 130.646C325.975 130.557 326.368 130.512 326.801 130.512H328.061ZM333.317 128.016V128.848H329.889V128.016H333.317ZM331.049 126.474H332.133V132.785C332.133 133 332.167 133.162 332.233 133.271C332.299 133.381 332.385 133.453 332.491 133.488C332.596 133.523 332.71 133.541 332.831 133.541C332.921 133.541 333.014 133.533 333.112 133.517C333.214 133.498 333.29 133.482 333.34 133.471L333.346 134.355C333.26 134.383 333.147 134.408 333.006 134.432C332.87 134.459 332.704 134.473 332.508 134.473C332.243 134.473 331.999 134.42 331.776 134.314C331.553 134.209 331.376 134.033 331.243 133.787C331.114 133.537 331.049 133.201 331.049 132.779V126.474ZM337.243 128.016V128.848H333.815V128.016H337.243ZM334.975 126.474H336.059V132.785C336.059 133 336.092 133.162 336.159 133.271C336.225 133.381 336.311 133.453 336.417 133.488C336.522 133.523 336.635 133.541 336.756 133.541C336.846 133.541 336.94 133.533 337.038 133.517C337.139 133.498 337.215 133.482 337.266 133.471L337.272 134.355C337.186 134.383 337.073 134.408 336.932 134.432C336.796 134.459 336.63 134.473 336.434 134.473C336.169 134.473 335.924 134.42 335.702 134.314C335.479 134.209 335.301 134.033 335.169 133.787C335.04 133.537 334.975 133.201 334.975 132.779V126.474ZM341.837 126.58L339.012 134.355H337.858L341.11 125.824H341.854L341.837 126.58ZM344.204 134.355L341.374 126.58L341.356 125.824H342.1L345.364 134.355H344.204ZM344.057 131.197V132.123H339.264V131.197H344.057ZM347.977 133.377L349.712 128.016H350.819L348.54 134.355H347.813L347.977 133.377ZM346.53 128.016L348.317 133.406L348.44 134.355H347.714L345.417 128.016H346.53Z" fill="black"/>
<rect x="436.5" y="0.5" width="79" height="29" rx="14.5" stroke="black"/>
<path d="M454.537 16.8438C454.537 16.6445 454.506 16.4688 454.443 16.3164C454.385 16.1602 454.279 16.0195 454.127 15.8945C453.979 15.7695 453.771 15.6504 453.506 15.5371C453.244 15.4238 452.912 15.3086 452.51 15.1914C452.088 15.0664 451.707 14.9277 451.367 14.7754C451.027 14.6191 450.736 14.4414 450.494 14.2422C450.252 14.043 450.066 13.8145 449.938 13.5566C449.809 13.2988 449.744 13.0039 449.744 12.6719C449.744 12.3398 449.812 12.0332 449.949 11.752C450.086 11.4707 450.281 11.2266 450.535 11.0195C450.793 10.8086 451.1 10.6445 451.455 10.5273C451.811 10.4102 452.207 10.3516 452.645 10.3516C453.285 10.3516 453.828 10.4746 454.273 10.7207C454.723 10.9629 455.064 11.2812 455.299 11.6758C455.533 12.0664 455.65 12.4844 455.65 12.9297H454.525C454.525 12.6094 454.457 12.3262 454.32 12.0801C454.184 11.8301 453.977 11.6348 453.699 11.4941C453.422 11.3496 453.07 11.2773 452.645 11.2773C452.242 11.2773 451.91 11.3379 451.648 11.459C451.387 11.5801 451.191 11.7441 451.062 11.9512C450.938 12.1582 450.875 12.3945 450.875 12.6602C450.875 12.8398 450.912 13.0039 450.986 13.1523C451.064 13.2969 451.184 13.4316 451.344 13.5566C451.508 13.6816 451.715 13.7969 451.965 13.9023C452.219 14.0078 452.521 14.1094 452.873 14.207C453.357 14.3438 453.775 14.4961 454.127 14.6641C454.479 14.832 454.768 15.0215 454.994 15.2324C455.225 15.4395 455.395 15.6758 455.504 15.9414C455.617 16.2031 455.674 16.5 455.674 16.832C455.674 17.1797 455.604 17.4941 455.463 17.7754C455.322 18.0566 455.121 18.2969 454.859 18.4961C454.598 18.6953 454.283 18.8496 453.916 18.959C453.553 19.0645 453.146 19.1172 452.697 19.1172C452.303 19.1172 451.914 19.0625 451.531 18.9531C451.152 18.8438 450.807 18.6797 450.494 18.4609C450.186 18.2422 449.938 17.9727 449.75 17.6523C449.566 17.3281 449.475 16.9531 449.475 16.5273H450.6C450.6 16.8203 450.656 17.0723 450.77 17.2832C450.883 17.4902 451.037 17.6621 451.232 17.7988C451.432 17.9355 451.656 18.0371 451.906 18.1035C452.16 18.166 452.424 18.1973 452.697 18.1973C453.092 18.1973 453.426 18.1426 453.699 18.0332C453.973 17.9238 454.18 17.7676 454.32 17.5645C454.465 17.3613 454.537 17.1211 454.537 16.8438ZM459.605 12.6602V13.4922H456.178V12.6602H459.605ZM457.338 11.1191H458.422V17.4297C458.422 17.6445 458.455 17.8066 458.521 17.916C458.588 18.0254 458.674 18.0977 458.779 18.1328C458.885 18.168 458.998 18.1855 459.119 18.1855C459.209 18.1855 459.303 18.1777 459.4 18.1621C459.502 18.1426 459.578 18.127 459.629 18.1152L459.635 19C459.549 19.0273 459.436 19.0527 459.295 19.0762C459.158 19.1035 458.992 19.1172 458.797 19.1172C458.531 19.1172 458.287 19.0645 458.064 18.959C457.842 18.8535 457.664 18.6777 457.531 18.4316C457.402 18.1816 457.338 17.8457 457.338 17.4238V11.1191ZM464.756 17.5352V12.6602H465.846V19H464.809L464.756 17.5352ZM464.961 16.1992L465.412 16.1875C465.412 16.6094 465.367 17 465.277 17.3594C465.191 17.7148 465.051 18.0234 464.855 18.2852C464.66 18.5469 464.404 18.752 464.088 18.9004C463.771 19.0449 463.387 19.1172 462.934 19.1172C462.625 19.1172 462.342 19.0723 462.084 18.9824C461.83 18.8926 461.611 18.7539 461.428 18.5664C461.244 18.3789 461.102 18.1348 461 17.834C460.902 17.5332 460.854 17.1719 460.854 16.75V12.6602H461.938V16.7617C461.938 17.0469 461.969 17.2832 462.031 17.4707C462.098 17.6543 462.186 17.8008 462.295 17.9102C462.408 18.0156 462.533 18.0898 462.67 18.1328C462.811 18.1758 462.955 18.1973 463.104 18.1973C463.564 18.1973 463.93 18.1094 464.199 17.9336C464.469 17.7539 464.662 17.5137 464.779 17.2129C464.9 16.9082 464.961 16.5703 464.961 16.1992ZM471.494 17.7695V10H472.584V19H471.588L471.494 17.7695ZM467.229 15.9004V15.7773C467.229 15.293 467.287 14.8535 467.404 14.459C467.525 14.0605 467.695 13.7188 467.914 13.4336C468.137 13.1484 468.4 12.9297 468.705 12.7773C469.014 12.6211 469.357 12.543 469.736 12.543C470.135 12.543 470.482 12.6133 470.779 12.7539C471.08 12.8906 471.334 13.0918 471.541 13.3574C471.752 13.6191 471.918 13.9355 472.039 14.3066C472.16 14.6777 472.244 15.0977 472.291 15.5664V16.1055C472.248 16.5703 472.164 16.9883 472.039 17.3594C471.918 17.7305 471.752 18.0469 471.541 18.3086C471.334 18.5703 471.08 18.7715 470.779 18.9121C470.479 19.0488 470.127 19.1172 469.725 19.1172C469.354 19.1172 469.014 19.0371 468.705 18.877C468.4 18.7168 468.137 18.4922 467.914 18.2031C467.695 17.9141 467.525 17.5742 467.404 17.1836C467.287 16.7891 467.229 16.3613 467.229 15.9004ZM468.318 15.7773V15.9004C468.318 16.2168 468.35 16.5137 468.412 16.791C468.479 17.0684 468.58 17.3125 468.717 17.5234C468.854 17.7344 469.027 17.9004 469.238 18.0215C469.449 18.1387 469.701 18.1973 469.994 18.1973C470.354 18.1973 470.648 18.1211 470.879 17.9688C471.113 17.8164 471.301 17.6152 471.441 17.3652C471.582 17.1152 471.691 16.8438 471.77 16.5508V15.1387C471.723 14.9238 471.654 14.7168 471.564 14.5176C471.479 14.3145 471.365 14.1348 471.225 13.9785C471.088 13.8184 470.918 13.6914 470.715 13.5977C470.516 13.5039 470.279 13.457 470.006 13.457C469.709 13.457 469.453 13.5195 469.238 13.6445C469.027 13.7656 468.854 13.9336 468.717 14.1484C468.58 14.3594 468.479 14.6055 468.412 14.8867C468.35 15.1641 468.318 15.4609 468.318 15.7773ZM476.902 19.1172C476.461 19.1172 476.061 19.043 475.701 18.8945C475.346 18.7422 475.039 18.5293 474.781 18.2559C474.527 17.9824 474.332 17.6582 474.195 17.2832C474.059 16.9082 473.99 16.498 473.99 16.0527V15.8066C473.99 15.291 474.066 14.832 474.219 14.4297C474.371 14.0234 474.578 13.6797 474.84 13.3984C475.102 13.1172 475.398 12.9043 475.73 12.7598C476.062 12.6152 476.406 12.543 476.762 12.543C477.215 12.543 477.605 12.6211 477.934 12.7773C478.266 12.9336 478.537 13.1523 478.748 13.4336C478.959 13.7109 479.115 14.0391 479.217 14.418C479.318 14.793 479.369 15.2031 479.369 15.6484V16.1348H474.635V15.25H478.285V15.168C478.27 14.8867 478.211 14.6133 478.109 14.3477C478.012 14.082 477.855 13.8633 477.641 13.6914C477.426 13.5195 477.133 13.4336 476.762 13.4336C476.516 13.4336 476.289 13.4863 476.082 13.5918C475.875 13.6934 475.697 13.8457 475.549 14.0488C475.4 14.252 475.285 14.5 475.203 14.793C475.121 15.0859 475.08 15.4238 475.08 15.8066V16.0527C475.08 16.3535 475.121 16.6367 475.203 16.9023C475.289 17.1641 475.412 17.3945 475.572 17.5938C475.736 17.793 475.934 17.9492 476.164 18.0625C476.398 18.1758 476.664 18.2324 476.961 18.2324C477.344 18.2324 477.668 18.1543 477.934 17.998C478.199 17.8418 478.432 17.6328 478.631 17.3711L479.287 17.8926C479.15 18.0996 478.977 18.2969 478.766 18.4844C478.555 18.6719 478.295 18.8242 477.986 18.9414C477.682 19.0586 477.32 19.1172 476.902 19.1172ZM481.719 14.0137V19H480.635V12.6602H481.66L481.719 14.0137ZM481.461 15.5898L481.01 15.5723C481.014 15.1387 481.078 14.7383 481.203 14.3711C481.328 14 481.504 13.6777 481.73 13.4043C481.957 13.1309 482.227 12.9199 482.539 12.7715C482.855 12.6191 483.205 12.543 483.588 12.543C483.9 12.543 484.182 12.5859 484.432 12.6719C484.682 12.7539 484.895 12.8867 485.07 13.0703C485.25 13.2539 485.387 13.4922 485.48 13.7852C485.574 14.0742 485.621 14.4277 485.621 14.8457V19H484.531V14.834C484.531 14.502 484.482 14.2363 484.385 14.0371C484.287 13.834 484.145 13.6875 483.957 13.5977C483.77 13.5039 483.539 13.457 483.266 13.457C482.996 13.457 482.75 13.5137 482.527 13.627C482.309 13.7402 482.119 13.8965 481.959 14.0957C481.803 14.2949 481.68 14.5234 481.59 14.7812C481.504 15.0352 481.461 15.3047 481.461 15.5898ZM489.922 12.6602V13.4922H486.494V12.6602H489.922ZM487.654 11.1191H488.738V17.4297C488.738 17.6445 488.771 17.8066 488.838 17.916C488.904 18.0254 488.99 18.0977 489.096 18.1328C489.201 18.168 489.314 18.1855 489.436 18.1855C489.525 18.1855 489.619 18.1777 489.717 18.1621C489.818 18.1426 489.895 18.127 489.945 18.1152L489.951 19C489.865 19.0273 489.752 19.0527 489.611 19.0762C489.475 19.1035 489.309 19.1172 489.113 19.1172C488.848 19.1172 488.604 19.0645 488.381 18.959C488.158 18.8535 487.98 18.6777 487.848 18.4316C487.719 18.1816 487.654 17.8457 487.654 17.4238V11.1191ZM497.92 10.4688V19H496.783L492.488 12.4199V19H491.357V10.4688H492.488L496.801 17.0664V10.4688H497.92ZM500.844 13.6562V19H499.76V12.6602H500.814L500.844 13.6562ZM502.824 12.625L502.818 13.6328C502.729 13.6133 502.643 13.6016 502.561 13.5977C502.482 13.5898 502.393 13.5859 502.291 13.5859C502.041 13.5859 501.82 13.625 501.629 13.7031C501.438 13.7812 501.275 13.8906 501.143 14.0312C501.01 14.1719 500.904 14.3398 500.826 14.5352C500.752 14.7266 500.703 14.9375 500.68 15.168L500.375 15.3438C500.375 14.9609 500.412 14.6016 500.486 14.2656C500.564 13.9297 500.684 13.6328 500.844 13.375C501.004 13.1133 501.207 12.9102 501.453 12.7656C501.703 12.6172 502 12.543 502.344 12.543C502.422 12.543 502.512 12.5527 502.613 12.5723C502.715 12.5879 502.785 12.6055 502.824 12.625Z" fill="black"/>
<path d="M449 20.1719H503V20.7578H449V20.1719Z" fill="black"/>
<rect x="525.5" y="15.5" width="79" height="29" rx="14.5" stroke="black"/>
<path d="M558.83 25.4688V34H557.693L553.398 27.4199V34H552.268V25.4688H553.398L557.711 32.0664V25.4688H558.83ZM564.408 32.916V29.6523C564.408 29.4023 564.357 29.1855 564.256 29.002C564.158 28.8145 564.01 28.6699 563.811 28.5684C563.611 28.4668 563.365 28.416 563.072 28.416C562.799 28.416 562.559 28.4629 562.352 28.5566C562.148 28.6504 561.988 28.7734 561.871 28.9258C561.758 29.0781 561.701 29.2422 561.701 29.418H560.617C560.617 29.1914 560.676 28.9668 560.793 28.7441C560.91 28.5215 561.078 28.3203 561.297 28.1406C561.52 27.957 561.785 27.8125 562.094 27.707C562.406 27.5977 562.754 27.543 563.137 27.543C563.598 27.543 564.004 27.6211 564.355 27.7773C564.711 27.9336 564.988 28.1699 565.188 28.4863C565.391 28.7988 565.492 29.1914 565.492 29.6641V32.6172C565.492 32.8281 565.51 33.0527 565.545 33.291C565.584 33.5293 565.641 33.7344 565.715 33.9062V34H564.584C564.529 33.875 564.486 33.709 564.455 33.502C564.424 33.291 564.408 33.0957 564.408 32.916ZM564.596 30.1562L564.607 30.918H563.512C563.203 30.918 562.928 30.9434 562.686 30.9941C562.443 31.041 562.24 31.1133 562.076 31.2109C561.912 31.3086 561.787 31.4316 561.701 31.5801C561.615 31.7246 561.572 31.8945 561.572 32.0898C561.572 32.2891 561.617 32.4707 561.707 32.6348C561.797 32.7988 561.932 32.9297 562.111 33.0273C562.295 33.1211 562.52 33.168 562.785 33.168C563.117 33.168 563.41 33.0977 563.664 32.957C563.918 32.8164 564.119 32.6445 564.268 32.4414C564.42 32.2383 564.502 32.041 564.514 31.8496L564.977 32.3711C564.949 32.5352 564.875 32.7168 564.754 32.916C564.633 33.1152 564.471 33.3066 564.268 33.4902C564.068 33.6699 563.83 33.8203 563.553 33.9414C563.279 34.0586 562.971 34.1172 562.627 34.1172C562.197 34.1172 561.82 34.0332 561.496 33.8652C561.176 33.6973 560.926 33.4727 560.746 33.1914C560.57 32.9062 560.482 32.5879 560.482 32.2363C560.482 31.8965 560.549 31.5977 560.682 31.3398C560.814 31.0781 561.006 30.8613 561.256 30.6895C561.506 30.5137 561.807 30.3809 562.158 30.291C562.51 30.2012 562.902 30.1562 563.336 30.1562H564.596ZM569.031 33.0215L570.766 27.6602H571.873L569.594 34H568.867L569.031 33.0215ZM567.584 27.6602L569.371 33.0508L569.494 34H568.768L566.471 27.6602H567.584ZM574 29.0137V34H572.916V27.6602H573.941L574 29.0137ZM573.742 30.5898L573.291 30.5723C573.295 30.1387 573.359 29.7383 573.484 29.3711C573.609 29 573.785 28.6777 574.012 28.4043C574.238 28.1309 574.508 27.9199 574.82 27.7715C575.137 27.6191 575.486 27.543 575.869 27.543C576.182 27.543 576.463 27.5859 576.713 27.6719C576.963 27.7539 577.176 27.8867 577.352 28.0703C577.531 28.2539 577.668 28.4922 577.762 28.7852C577.855 29.0742 577.902 29.4277 577.902 29.8457V34H576.812V29.834C576.812 29.502 576.764 29.2363 576.666 29.0371C576.568 28.834 576.426 28.6875 576.238 28.5977C576.051 28.5039 575.82 28.457 575.547 28.457C575.277 28.457 575.031 28.5137 574.809 28.627C574.59 28.7402 574.4 28.8965 574.24 29.0957C574.084 29.2949 573.961 29.5234 573.871 29.7812C573.785 30.0352 573.742 30.3047 573.742 30.5898Z" fill="black"/>
<rect x="293.5" y="9.5" width="79" height="29" rx="14.5" stroke="black"/>
<path d="M313.191 19.4688V28H312.061V19.4688H313.191ZM318.342 19.4688L314.797 23.4473L312.805 25.5156L312.617 24.3086L314.117 22.6562L316.982 19.4688H318.342ZM317.252 28L314.094 23.8398L314.768 22.9434L318.6 28H317.252ZM323.17 26.916V23.6523C323.17 23.4023 323.119 23.1855 323.018 23.002C322.92 22.8145 322.771 22.6699 322.572 22.5684C322.373 22.4668 322.127 22.416 321.834 22.416C321.561 22.416 321.32 22.4629 321.113 22.5566C320.91 22.6504 320.75 22.7734 320.633 22.9258C320.52 23.0781 320.463 23.2422 320.463 23.418H319.379C319.379 23.1914 319.438 22.9668 319.555 22.7441C319.672 22.5215 319.84 22.3203 320.059 22.1406C320.281 21.957 320.547 21.8125 320.855 21.707C321.168 21.5977 321.516 21.543 321.898 21.543C322.359 21.543 322.766 21.6211 323.117 21.7773C323.473 21.9336 323.75 22.1699 323.949 22.4863C324.152 22.7988 324.254 23.1914 324.254 23.6641V26.6172C324.254 26.8281 324.271 27.0527 324.307 27.291C324.346 27.5293 324.402 27.7344 324.477 27.9062V28H323.346C323.291 27.875 323.248 27.709 323.217 27.502C323.186 27.291 323.17 27.0957 323.17 26.916ZM323.357 24.1562L323.369 24.918H322.273C321.965 24.918 321.689 24.9434 321.447 24.9941C321.205 25.041 321.002 25.1133 320.838 25.2109C320.674 25.3086 320.549 25.4316 320.463 25.5801C320.377 25.7246 320.334 25.8945 320.334 26.0898C320.334 26.2891 320.379 26.4707 320.469 26.6348C320.559 26.7988 320.693 26.9297 320.873 27.0273C321.057 27.1211 321.281 27.168 321.547 27.168C321.879 27.168 322.172 27.0977 322.426 26.957C322.68 26.8164 322.881 26.6445 323.029 26.4414C323.182 26.2383 323.264 26.041 323.275 25.8496L323.738 26.3711C323.711 26.5352 323.637 26.7168 323.516 26.916C323.395 27.1152 323.232 27.3066 323.029 27.4902C322.83 27.6699 322.592 27.8203 322.314 27.9414C322.041 28.0586 321.732 28.1172 321.389 28.1172C320.959 28.1172 320.582 28.0332 320.258 27.8652C319.938 27.6973 319.688 27.4727 319.508 27.1914C319.332 26.9062 319.244 26.5879 319.244 26.2363C319.244 25.8965 319.311 25.5977 319.443 25.3398C319.576 25.0781 319.768 24.8613 320.018 24.6895C320.268 24.5137 320.568 24.3809 320.92 24.291C321.271 24.2012 321.664 24.1562 322.098 24.1562H323.357ZM327.043 22.6562V28H325.959V21.6602H327.014L327.043 22.6562ZM329.023 21.625L329.018 22.6328C328.928 22.6133 328.842 22.6016 328.76 22.5977C328.682 22.5898 328.592 22.5859 328.49 22.5859C328.24 22.5859 328.02 22.625 327.828 22.7031C327.637 22.7812 327.475 22.8906 327.342 23.0312C327.209 23.1719 327.104 23.3398 327.025 23.5352C326.951 23.7266 326.902 23.9375 326.879 24.168L326.574 24.3438C326.574 23.9609 326.611 23.6016 326.686 23.2656C326.764 22.9297 326.883 22.6328 327.043 22.375C327.203 22.1133 327.406 21.9102 327.652 21.7656C327.902 21.6172 328.199 21.543 328.543 21.543C328.621 21.543 328.711 21.5527 328.812 21.5723C328.914 21.5879 328.984 21.6055 329.023 21.625ZM333.529 26.916V23.6523C333.529 23.4023 333.479 23.1855 333.377 23.002C333.279 22.8145 333.131 22.6699 332.932 22.5684C332.732 22.4668 332.486 22.416 332.193 22.416C331.92 22.416 331.68 22.4629 331.473 22.5566C331.27 22.6504 331.109 22.7734 330.992 22.9258C330.879 23.0781 330.822 23.2422 330.822 23.418H329.738C329.738 23.1914 329.797 22.9668 329.914 22.7441C330.031 22.5215 330.199 22.3203 330.418 22.1406C330.641 21.957 330.906 21.8125 331.215 21.707C331.527 21.5977 331.875 21.543 332.258 21.543C332.719 21.543 333.125 21.6211 333.477 21.7773C333.832 21.9336 334.109 22.1699 334.309 22.4863C334.512 22.7988 334.613 23.1914 334.613 23.6641V26.6172C334.613 26.8281 334.631 27.0527 334.666 27.291C334.705 27.5293 334.762 27.7344 334.836 27.9062V28H333.705C333.65 27.875 333.607 27.709 333.576 27.502C333.545 27.291 333.529 27.0957 333.529 26.916ZM333.717 24.1562L333.729 24.918H332.633C332.324 24.918 332.049 24.9434 331.807 24.9941C331.564 25.041 331.361 25.1133 331.197 25.2109C331.033 25.3086 330.908 25.4316 330.822 25.5801C330.736 25.7246 330.693 25.8945 330.693 26.0898C330.693 26.2891 330.738 26.4707 330.828 26.6348C330.918 26.7988 331.053 26.9297 331.232 27.0273C331.416 27.1211 331.641 27.168 331.906 27.168C332.238 27.168 332.531 27.0977 332.785 26.957C333.039 26.8164 333.24 26.6445 333.389 26.4414C333.541 26.2383 333.623 26.041 333.635 25.8496L334.098 26.3711C334.07 26.5352 333.996 26.7168 333.875 26.916C333.754 27.1152 333.592 27.3066 333.389 27.4902C333.189 27.6699 332.951 27.8203 332.674 27.9414C332.4 28.0586 332.092 28.1172 331.748 28.1172C331.318 28.1172 330.941 28.0332 330.617 27.8652C330.297 27.6973 330.047 27.4727 329.867 27.1914C329.691 26.9062 329.604 26.5879 329.604 26.2363C329.604 25.8965 329.67 25.5977 329.803 25.3398C329.936 25.0781 330.127 24.8613 330.377 24.6895C330.627 24.5137 330.928 24.3809 331.279 24.291C331.631 24.2012 332.023 24.1562 332.457 24.1562H333.717ZM337.408 19V28H336.318V19H337.408ZM341.281 21.6602L338.516 24.6191L336.969 26.2246L336.881 25.0703L337.988 23.7461L339.957 21.6602H341.281ZM340.291 28L338.029 24.9766L338.592 24.0098L341.568 28H340.291ZM345.055 21.6602V22.4922H341.627V21.6602H345.055ZM342.787 20.1191H343.871V26.4297C343.871 26.6445 343.904 26.8066 343.971 26.916C344.037 27.0254 344.123 27.0977 344.229 27.1328C344.334 27.168 344.447 27.1855 344.568 27.1855C344.658 27.1855 344.752 27.1777 344.85 27.1621C344.951 27.1426 345.027 27.127 345.078 27.1152L345.084 28C344.998 28.0273 344.885 28.0527 344.744 28.0762C344.607 28.1035 344.441 28.1172 344.246 28.1172C343.98 28.1172 343.736 28.0645 343.514 27.959C343.291 27.8535 343.113 27.6777 342.98 27.4316C342.852 27.1816 342.787 26.8457 342.787 26.4238V20.1191ZM348.957 28.1172C348.516 28.1172 348.115 28.043 347.756 27.8945C347.4 27.7422 347.094 27.5293 346.836 27.2559C346.582 26.9824 346.387 26.6582 346.25 26.2832C346.113 25.9082 346.045 25.498 346.045 25.0527V24.8066C346.045 24.291 346.121 23.832 346.273 23.4297C346.426 23.0234 346.633 22.6797 346.895 22.3984C347.156 22.1172 347.453 21.9043 347.785 21.7598C348.117 21.6152 348.461 21.543 348.816 21.543C349.27 21.543 349.66 21.6211 349.988 21.7773C350.32 21.9336 350.592 22.1523 350.803 22.4336C351.014 22.7109 351.17 23.0391 351.271 23.418C351.373 23.793 351.424 24.2031 351.424 24.6484V25.1348H346.689V24.25H350.34V24.168C350.324 23.8867 350.266 23.6133 350.164 23.3477C350.066 23.082 349.91 22.8633 349.695 22.6914C349.48 22.5195 349.188 22.4336 348.816 22.4336C348.57 22.4336 348.344 22.4863 348.137 22.5918C347.93 22.6934 347.752 22.8457 347.604 23.0488C347.455 23.252 347.34 23.5 347.258 23.793C347.176 24.0859 347.135 24.4238 347.135 24.8066V25.0527C347.135 25.3535 347.176 25.6367 347.258 25.9023C347.344 26.1641 347.467 26.3945 347.627 26.5938C347.791 26.793 347.988 26.9492 348.219 27.0625C348.453 27.1758 348.719 27.2324 349.016 27.2324C349.398 27.2324 349.723 27.1543 349.988 26.998C350.254 26.8418 350.486 26.6328 350.686 26.3711L351.342 26.8926C351.205 27.0996 351.031 27.2969 350.82 27.4844C350.609 27.6719 350.35 27.8242 350.041 27.9414C349.736 28.0586 349.375 28.1172 348.957 28.1172ZM353.773 22.6562V28H352.689V21.6602H353.744L353.773 22.6562ZM355.754 21.625L355.748 22.6328C355.658 22.6133 355.572 22.6016 355.49 22.5977C355.412 22.5898 355.322 22.5859 355.221 22.5859C354.971 22.5859 354.75 22.625 354.559 22.7031C354.367 22.7812 354.205 22.8906 354.072 23.0312C353.939 23.1719 353.834 23.3398 353.756 23.5352C353.682 23.7266 353.633 23.9375 353.609 24.168L353.305 24.3438C353.305 23.9609 353.342 23.6016 353.416 23.2656C353.494 22.9297 353.613 22.6328 353.773 22.375C353.934 22.1133 354.137 21.9102 354.383 21.7656C354.633 21.6172 354.93 21.543 355.273 21.543C355.352 21.543 355.441 21.5527 355.543 21.5723C355.645 21.5879 355.715 21.6055 355.754 21.625Z" fill="black"/>
<path d="M142 30L192 80" stroke="black"/>
<rect x="192" y="80" width="50" height="1" transform="rotate(-90 192 80)" fill="black"/>
<path d="M525 30L475 80" stroke="black"/>
<rect x="475" y="80" width="50" height="1" transform="rotate(-90 475 80)" fill="black"/>
<rect x="242" y="130" width="50" height="1" fill="black"/>
<rect x="375" y="130" width="50" height="1" fill="black"/>
<rect x="333" y="89" width="50" height="1" transform="rotate(-90 333 89)" fill="black"/>
<rect x="142.353" y="80.5" width="99" height="99" stroke="black"/>
<path d="M183.593 133.08V134H179.075V133.08H183.593ZM179.304 125.469V134H178.173V125.469H179.304ZM182.995 129.137V130.057H179.075V129.137H182.995ZM183.534 125.469V126.395H179.075V125.469H183.534ZM185.907 128.92V134H184.818V127.66H185.849L185.907 128.92ZM185.685 130.59L185.181 130.572C185.185 130.139 185.241 129.738 185.351 129.371C185.46 129 185.622 128.678 185.837 128.404C186.052 128.131 186.32 127.92 186.64 127.771C186.96 127.619 187.331 127.543 187.753 127.543C188.05 127.543 188.323 127.586 188.573 127.672C188.823 127.754 189.04 127.885 189.224 128.064C189.407 128.244 189.55 128.475 189.652 128.756C189.753 129.037 189.804 129.377 189.804 129.775V134H188.72V129.828C188.72 129.496 188.663 129.23 188.55 129.031C188.441 128.832 188.284 128.688 188.081 128.598C187.878 128.504 187.64 128.457 187.366 128.457C187.046 128.457 186.779 128.514 186.564 128.627C186.349 128.74 186.177 128.896 186.048 129.096C185.919 129.295 185.825 129.523 185.767 129.781C185.712 130.035 185.685 130.305 185.685 130.59ZM189.792 129.992L189.066 130.215C189.07 129.867 189.126 129.533 189.236 129.213C189.349 128.893 189.511 128.607 189.722 128.357C189.937 128.107 190.2 127.91 190.513 127.766C190.825 127.617 191.183 127.543 191.585 127.543C191.925 127.543 192.226 127.588 192.488 127.678C192.753 127.768 192.976 127.906 193.156 128.094C193.339 128.277 193.478 128.514 193.572 128.803C193.665 129.092 193.712 129.436 193.712 129.834V134H192.622V129.822C192.622 129.467 192.566 129.191 192.452 128.996C192.343 128.797 192.187 128.658 191.984 128.58C191.784 128.498 191.546 128.457 191.269 128.457C191.031 128.457 190.82 128.498 190.636 128.58C190.452 128.662 190.298 128.775 190.173 128.92C190.048 129.061 189.952 129.223 189.886 129.406C189.823 129.59 189.792 129.785 189.792 129.992ZM196.437 129.014V134H195.353V127.66H196.378L196.437 129.014ZM196.179 130.59L195.728 130.572C195.732 130.139 195.796 129.738 195.921 129.371C196.046 129 196.222 128.678 196.448 128.404C196.675 128.131 196.945 127.92 197.257 127.771C197.573 127.619 197.923 127.543 198.306 127.543C198.618 127.543 198.9 127.586 199.15 127.672C199.4 127.754 199.613 127.887 199.788 128.07C199.968 128.254 200.105 128.492 200.198 128.785C200.292 129.074 200.339 129.428 200.339 129.846V134H199.249V129.834C199.249 129.502 199.2 129.236 199.103 129.037C199.005 128.834 198.863 128.688 198.675 128.598C198.488 128.504 198.257 128.457 197.984 128.457C197.714 128.457 197.468 128.514 197.245 128.627C197.027 128.74 196.837 128.896 196.677 129.096C196.521 129.295 196.398 129.523 196.308 129.781C196.222 130.035 196.179 130.305 196.179 130.59ZM204.616 134.117C204.175 134.117 203.775 134.043 203.415 133.895C203.06 133.742 202.753 133.529 202.495 133.256C202.241 132.982 202.046 132.658 201.909 132.283C201.773 131.908 201.704 131.498 201.704 131.053V130.807C201.704 130.291 201.781 129.832 201.933 129.43C202.085 129.023 202.292 128.68 202.554 128.398C202.816 128.117 203.113 127.904 203.445 127.76C203.777 127.615 204.12 127.543 204.476 127.543C204.929 127.543 205.32 127.621 205.648 127.777C205.98 127.934 206.251 128.152 206.462 128.434C206.673 128.711 206.829 129.039 206.931 129.418C207.032 129.793 207.083 130.203 207.083 130.648V131.135H202.349V130.25H205.999V130.168C205.984 129.887 205.925 129.613 205.823 129.348C205.726 129.082 205.57 128.863 205.355 128.691C205.14 128.52 204.847 128.434 204.476 128.434C204.23 128.434 204.003 128.486 203.796 128.592C203.589 128.693 203.411 128.846 203.263 129.049C203.115 129.252 202.999 129.5 202.917 129.793C202.835 130.086 202.794 130.424 202.794 130.807V131.053C202.794 131.354 202.835 131.637 202.917 131.902C203.003 132.164 203.126 132.395 203.286 132.594C203.45 132.793 203.648 132.949 203.878 133.062C204.113 133.176 204.378 133.232 204.675 133.232C205.058 133.232 205.382 133.154 205.648 132.998C205.913 132.842 206.146 132.633 206.345 132.371L207.001 132.893C206.865 133.1 206.691 133.297 206.48 133.484C206.269 133.672 206.009 133.824 205.7 133.941C205.396 134.059 205.034 134.117 204.616 134.117Z" fill="black"/>
<path fill-rule="evenodd" clip-rule="evenodd" d="M190.853 180C190.853 186.435 189.585 192.807 187.123 198.751C184.66 204.696 181.051 210.098 176.501 214.648C171.951 219.198 166.549 222.808 160.604 225.27C154.659 227.733 148.288 229 141.853 229V230C148.419 230 154.921 228.707 160.987 226.194C167.053 223.681 172.565 219.998 177.208 215.355C181.851 210.712 185.534 205.2 188.047 199.134C190.559 193.068 191.853 186.566 191.853 180H190.853Z" fill="black"/>
<rect x="91.8528" y="229" width="50" height="1" fill="black"/>
<path fill-rule="evenodd" clip-rule="evenodd" d="M42.8528 180C42.8528 173.565 44.1202 167.193 46.5827 161.249C49.0452 155.304 52.6545 149.902 57.2045 145.352C61.7546 140.802 67.1563 137.192 73.1013 134.73C79.0462 132.267 85.418 131 91.8528 131V130C85.2867 130 78.7849 131.293 72.7186 133.806C66.6523 136.319 61.1404 140.002 56.4974 144.645C51.8545 149.288 48.1715 154.8 45.6588 160.866C43.1461 166.932 41.8528 173.434 41.8528 180H42.8528Z" fill="black"/>
<rect x="141.853" y="131" width="50" height="1" transform="rotate(180 141.853 131)" fill="black"/>
<rect x="42.4264" y="187.707" width="59" height="59" transform="rotate(45 42.4264 187.707)" stroke="black"/>
<path d="M20.9518 229.365H18.7897L18.778 228.457H20.7408C21.0651 228.457 21.3483 228.402 21.5905 228.293C21.8326 228.183 22.0201 228.027 22.153 227.824C22.2897 227.617 22.358 227.371 22.358 227.086C22.358 226.773 22.2975 226.519 22.1764 226.324C22.0592 226.125 21.8776 225.98 21.6315 225.891C21.3893 225.797 21.0807 225.75 20.7057 225.75H19.0416V233.355H17.9108V224.824H20.7057C21.1432 224.824 21.5338 224.869 21.8776 224.959C22.2213 225.045 22.5123 225.182 22.7506 225.369C22.9928 225.553 23.1764 225.787 23.3014 226.072C23.4264 226.357 23.4889 226.699 23.4889 227.098C23.4889 227.449 23.399 227.767 23.2194 228.053C23.0397 228.334 22.7897 228.564 22.4694 228.744C22.153 228.924 21.7819 229.039 21.3561 229.09L20.9518 229.365ZM20.899 233.355H18.3444L18.983 232.435H20.899C21.2584 232.435 21.5631 232.373 21.8131 232.248C22.067 232.123 22.2604 231.947 22.3932 231.721C22.526 231.49 22.5924 231.219 22.5924 230.906C22.5924 230.59 22.5358 230.316 22.4225 230.086C22.3092 229.855 22.1315 229.678 21.8893 229.553C21.6471 229.428 21.3346 229.365 20.9518 229.365H19.3405L19.3522 228.457H21.5553L21.7955 228.785C22.2057 228.82 22.5533 228.937 22.8385 229.137C23.1237 229.332 23.3405 229.582 23.4889 229.887C23.6412 230.191 23.7174 230.527 23.7174 230.894C23.7174 231.426 23.6002 231.875 23.3658 232.242C23.1354 232.605 22.8092 232.883 22.3873 233.074C21.9655 233.262 21.4694 233.355 20.899 233.355ZM27.0045 232.699L28.7682 227.016H29.9283L27.3854 234.334C27.3268 234.49 27.2487 234.658 27.151 234.838C27.0573 235.021 26.9362 235.195 26.7877 235.359C26.6393 235.523 26.4596 235.656 26.2487 235.758C26.0416 235.863 25.7936 235.916 25.5045 235.916C25.4186 235.916 25.3092 235.904 25.1764 235.881C25.0436 235.857 24.9498 235.838 24.8951 235.822L24.8893 234.943C24.9205 234.947 24.9694 234.951 25.0358 234.955C25.1061 234.963 25.1549 234.967 25.1823 234.967C25.4283 234.967 25.6373 234.933 25.8092 234.867C25.9811 234.805 26.1256 234.697 26.2428 234.545C26.3639 234.396 26.4674 234.191 26.5533 233.93L27.0045 232.699ZM25.7096 227.016L27.3561 231.937L27.6373 233.08L26.858 233.478L24.526 227.016H25.7096ZM34.9323 227.016H35.9166V233.221C35.9166 233.779 35.8033 234.256 35.5768 234.65C35.3502 235.045 35.0338 235.344 34.6276 235.547C34.2252 235.754 33.7604 235.857 33.233 235.857C33.0143 235.857 32.7565 235.822 32.4596 235.752C32.1666 235.685 31.8776 235.57 31.5924 235.406C31.3112 235.246 31.0748 235.029 30.8834 234.756L31.4518 234.111C31.7174 234.432 31.9948 234.654 32.2838 234.779C32.5768 234.904 32.8658 234.967 33.151 234.967C33.4948 234.967 33.7916 234.902 34.0416 234.773C34.2916 234.644 34.485 234.453 34.6217 234.199C34.7623 233.949 34.8326 233.641 34.8326 233.273V228.41L34.9323 227.016ZM30.567 230.256V230.133C30.567 229.648 30.6237 229.209 30.7369 228.814C30.8541 228.416 31.0201 228.074 31.235 227.789C31.4537 227.504 31.7174 227.285 32.026 227.133C32.3346 226.976 32.6823 226.898 33.069 226.898C33.4674 226.898 33.8151 226.969 34.1119 227.109C34.4127 227.246 34.6666 227.447 34.8737 227.713C35.0846 227.974 35.2506 228.291 35.3717 228.662C35.4928 229.033 35.5768 229.453 35.6237 229.922V230.461C35.5807 230.926 35.4967 231.344 35.3717 231.715C35.2506 232.086 35.0846 232.402 34.8737 232.664C34.6666 232.926 34.4127 233.127 34.1119 233.267C33.8112 233.404 33.4596 233.473 33.0573 233.473C32.6783 233.473 32.3346 233.392 32.026 233.232C31.7213 233.072 31.4596 232.848 31.2408 232.558C31.0221 232.269 30.8541 231.93 30.7369 231.539C30.6237 231.144 30.567 230.717 30.567 230.256ZM31.651 230.133V230.256C31.651 230.572 31.6823 230.869 31.7448 231.146C31.8112 231.424 31.9108 231.668 32.0436 231.879C32.1803 232.09 32.3541 232.256 32.5651 232.377C32.776 232.494 33.028 232.553 33.3209 232.553C33.6803 232.553 33.9772 232.476 34.2115 232.324C34.4459 232.172 34.6315 231.971 34.7682 231.721C34.9088 231.471 35.0182 231.199 35.0963 230.906V229.494C35.0533 229.279 34.9869 229.072 34.8971 228.873C34.8112 228.67 34.6979 228.49 34.5573 228.334C34.4205 228.174 34.2506 228.047 34.0475 227.953C33.8444 227.859 33.6061 227.812 33.3326 227.812C33.0358 227.812 32.7799 227.875 32.5651 228C32.3541 228.121 32.1803 228.289 32.0436 228.504C31.9108 228.715 31.8112 228.961 31.7448 229.242C31.6823 229.519 31.651 229.816 31.651 230.133ZM41.6705 227.016H42.6549V233.221C42.6549 233.779 42.5416 234.256 42.3151 234.65C42.0885 235.045 41.7721 235.344 41.3658 235.547C40.9635 235.754 40.4987 235.857 39.9713 235.857C39.7526 235.857 39.4948 235.822 39.1979 235.752C38.9049 235.685 38.6158 235.57 38.3307 235.406C38.0494 235.246 37.8131 235.029 37.6217 234.756L38.1901 234.111C38.4557 234.432 38.733 234.654 39.0221 234.779C39.3151 234.904 39.6041 234.967 39.8893 234.967C40.233 234.967 40.5299 234.902 40.7799 234.773C41.0299 234.644 41.2233 234.453 41.36 234.199C41.5006 233.949 41.5709 233.641 41.5709 233.273V228.41L41.6705 227.016ZM37.3053 230.256V230.133C37.3053 229.648 37.3619 229.209 37.4752 228.814C37.5924 228.416 37.7584 228.074 37.9733 227.789C38.192 227.504 38.4557 227.285 38.7643 227.133C39.0729 226.976 39.4205 226.898 39.8073 226.898C40.2057 226.898 40.5533 226.969 40.8502 227.109C41.151 227.246 41.4049 227.447 41.6119 227.713C41.8229 227.974 41.9889 228.291 42.11 228.662C42.2311 229.033 42.3151 229.453 42.3619 229.922V230.461C42.319 230.926 42.235 231.344 42.11 231.715C41.9889 232.086 41.8229 232.402 41.6119 232.664C41.4049 232.926 41.151 233.127 40.8502 233.267C40.5494 233.404 40.1979 233.473 39.7955 233.473C39.4166 233.473 39.0729 233.392 38.7643 233.232C38.4596 233.072 38.1979 232.848 37.9791 232.558C37.7604 232.269 37.5924 231.93 37.4752 231.539C37.3619 231.144 37.3053 230.717 37.3053 230.256ZM38.3893 230.133V230.256C38.3893 230.572 38.4205 230.869 38.483 231.146C38.5494 231.424 38.649 231.668 38.7819 231.879C38.9186 232.09 39.0924 232.256 39.3033 232.377C39.5143 232.494 39.7662 232.553 40.0592 232.553C40.4186 232.553 40.7155 232.476 40.9498 232.324C41.1842 232.172 41.3698 231.971 41.5065 231.721C41.6471 231.471 41.7565 231.199 41.8346 230.906V229.494C41.7916 229.279 41.7252 229.072 41.6354 228.873C41.5494 228.67 41.4362 228.49 41.2955 228.334C41.1588 228.174 40.9889 228.047 40.7858 227.953C40.5826 227.859 40.3444 227.812 40.0709 227.812C39.774 227.812 39.5182 227.875 39.3033 228C39.0924 228.121 38.9186 228.289 38.7819 228.504C38.649 228.715 38.5494 228.961 38.483 229.242C38.4205 229.519 38.3893 229.816 38.3893 230.133ZM46.9323 233.473C46.4908 233.473 46.0905 233.398 45.7311 233.25C45.3756 233.098 45.069 232.885 44.8112 232.611C44.5573 232.338 44.3619 232.014 44.2252 231.639C44.0885 231.264 44.0201 230.853 44.0201 230.408V230.162C44.0201 229.646 44.0963 229.187 44.2487 228.785C44.401 228.379 44.608 228.035 44.8698 227.754C45.1315 227.473 45.4283 227.26 45.7604 227.115C46.0924 226.971 46.4362 226.898 46.7916 226.898C47.2448 226.898 47.6354 226.976 47.9635 227.133C48.2955 227.289 48.567 227.508 48.778 227.789C48.9889 228.066 49.1451 228.394 49.2467 228.773C49.3483 229.148 49.399 229.558 49.399 230.004V230.49H44.6647V229.605H48.3151V229.523C48.2994 229.242 48.2408 228.969 48.1393 228.703C48.0416 228.437 47.8854 228.219 47.6705 228.047C47.4557 227.875 47.1627 227.789 46.7916 227.789C46.5455 227.789 46.319 227.842 46.1119 227.947C45.9049 228.049 45.7272 228.201 45.5787 228.404C45.4303 228.607 45.3151 228.855 45.233 229.148C45.151 229.441 45.11 229.779 45.11 230.162V230.408C45.11 230.709 45.151 230.992 45.233 231.258C45.319 231.519 45.442 231.75 45.6022 231.949C45.7662 232.148 45.9635 232.305 46.194 232.418C46.4283 232.531 46.694 232.588 46.9908 232.588C47.3737 232.588 47.6979 232.51 47.9635 232.353C48.2291 232.197 48.4615 231.988 48.6608 231.726L49.317 232.248C49.1803 232.455 49.0065 232.652 48.7955 232.84C48.5846 233.027 48.3248 233.18 48.0162 233.297C47.7115 233.414 47.3502 233.473 46.9323 233.473ZM51.7487 228.012V233.355H50.6647V227.016H51.7194L51.7487 228.012ZM53.7291 226.98L53.7233 227.988C53.6334 227.969 53.5475 227.957 53.4655 227.953C53.3873 227.945 53.2975 227.941 53.1959 227.941C52.9459 227.941 52.7252 227.98 52.5338 228.058C52.3424 228.137 52.1803 228.246 52.0475 228.387C51.9147 228.527 51.8092 228.695 51.7311 228.891C51.6569 229.082 51.608 229.293 51.5846 229.523L51.2799 229.699C51.2799 229.316 51.317 228.957 51.3912 228.621C51.4694 228.285 51.5885 227.988 51.7487 227.73C51.9088 227.469 52.1119 227.266 52.358 227.121C52.608 226.973 52.9049 226.898 53.2487 226.898C53.3268 226.898 53.4166 226.908 53.5182 226.928C53.6198 226.943 53.6901 226.961 53.7291 226.98ZM58.0416 230.01H55.7623V229.09H58.0416C58.483 229.09 58.8405 229.019 59.1139 228.879C59.3873 228.738 59.5865 228.543 59.7115 228.293C59.8405 228.043 59.9049 227.758 59.9049 227.437C59.9049 227.144 59.8405 226.869 59.7115 226.611C59.5865 226.353 59.3873 226.146 59.1139 225.99C58.8405 225.83 58.483 225.75 58.0416 225.75H56.026V233.355H54.8951V224.824H58.0416C58.6862 224.824 59.2311 224.935 59.6764 225.158C60.1217 225.381 60.4596 225.689 60.6901 226.084C60.9205 226.474 61.0358 226.922 61.0358 227.426C61.0358 227.973 60.9205 228.439 60.6901 228.826C60.4596 229.213 60.1217 229.508 59.6764 229.711C59.2311 229.91 58.6862 230.01 58.0416 230.01ZM65.9694 232.271V229.008C65.9694 228.758 65.9186 228.541 65.817 228.357C65.7194 228.17 65.5709 228.025 65.3717 227.924C65.1725 227.822 64.9264 227.771 64.6334 227.771C64.36 227.771 64.1198 227.818 63.9127 227.912C63.7096 228.006 63.5494 228.129 63.4323 228.281C63.319 228.433 63.2623 228.598 63.2623 228.773H62.1783C62.1783 228.547 62.2369 228.322 62.3541 228.099C62.4713 227.877 62.6393 227.676 62.858 227.496C63.0807 227.312 63.3463 227.168 63.6549 227.062C63.9674 226.953 64.3151 226.898 64.6979 226.898C65.1588 226.898 65.5651 226.976 65.9166 227.133C66.2721 227.289 66.5494 227.525 66.7487 227.842C66.9518 228.154 67.0533 228.547 67.0533 229.019V231.973C67.0533 232.183 67.0709 232.408 67.1061 232.646C67.1451 232.885 67.2018 233.09 67.276 233.262V233.355H66.1451C66.0905 233.23 66.0475 233.064 66.0162 232.857C65.985 232.646 65.9694 232.451 65.9694 232.271ZM66.1569 229.512L66.1686 230.273H65.0729C64.7643 230.273 64.4889 230.299 64.2467 230.349C64.0045 230.396 63.8014 230.469 63.6373 230.566C63.4733 230.664 63.3483 230.787 63.2623 230.935C63.1764 231.08 63.1334 231.25 63.1334 231.445C63.1334 231.644 63.1783 231.826 63.2682 231.99C63.358 232.154 63.4928 232.285 63.6725 232.383C63.8561 232.476 64.0807 232.523 64.3463 232.523C64.6783 232.523 64.9713 232.453 65.2252 232.312C65.4791 232.172 65.6803 232 65.8287 231.797C65.9811 231.594 66.0631 231.396 66.0748 231.205L66.5377 231.726C66.5104 231.891 66.4362 232.072 66.3151 232.271C66.194 232.471 66.0319 232.662 65.8287 232.846C65.6295 233.025 65.3912 233.176 65.1139 233.297C64.8405 233.414 64.5319 233.473 64.1881 233.473C63.7584 233.473 63.3815 233.389 63.0573 233.221C62.7369 233.053 62.4869 232.828 62.3073 232.547C62.1315 232.262 62.0436 231.943 62.0436 231.592C62.0436 231.252 62.11 230.953 62.2428 230.695C62.3756 230.433 62.567 230.217 62.817 230.045C63.067 229.869 63.3678 229.736 63.7194 229.646C64.0709 229.557 64.4635 229.512 64.8971 229.512H66.1569ZM63.5553 225.035C63.5553 224.808 63.61 224.603 63.7194 224.42C63.8326 224.236 63.983 224.09 64.1705 223.98C64.3619 223.871 64.5768 223.816 64.8151 223.816C65.1705 223.816 65.4694 223.935 65.7115 224.174C65.9537 224.412 66.0748 224.699 66.0748 225.035C66.0748 225.262 66.0182 225.467 65.9049 225.65C65.7955 225.83 65.6451 225.973 65.4537 226.078C65.2662 226.18 65.0533 226.23 64.8151 226.23C64.4596 226.23 64.1608 226.117 63.9186 225.891C63.6764 225.664 63.5553 225.379 63.5553 225.035ZM64.1354 225.035C64.1354 225.207 64.1979 225.363 64.3229 225.504C64.4518 225.641 64.6158 225.709 64.8151 225.709C65.0143 225.709 65.1764 225.642 65.3014 225.51C65.4303 225.373 65.4948 225.215 65.4948 225.035C65.4948 224.851 65.4303 224.691 65.3014 224.555C65.1764 224.414 65.0143 224.344 64.8151 224.344C64.6158 224.344 64.4518 224.414 64.3229 224.555C64.1979 224.691 64.1354 224.851 64.1354 225.035Z" fill="black"/>
<rect width="8" height="1" transform="matrix(-1 0 0 1 91.8528 229)" fill="black"/>
<rect width="8" height="1" transform="matrix(4.37114e-08 1 1 -4.37114e-08 41.8528 180)" fill="black"/>
<path d="M112.307 121.59V121.531C112.307 120.68 112.402 119.91 112.594 119.223C112.785 118.531 113.029 117.926 113.326 117.406C113.623 116.887 113.936 116.457 114.264 116.117C114.592 115.773 114.895 115.525 115.172 115.373L115.4 116.088C115.17 116.264 114.936 116.506 114.697 116.814C114.463 117.123 114.246 117.502 114.047 117.951C113.852 118.4 113.693 118.922 113.572 119.516C113.451 120.109 113.391 120.777 113.391 121.52V121.602C113.391 122.344 113.451 123.014 113.572 123.611C113.693 124.205 113.852 124.729 114.047 125.182C114.246 125.635 114.463 126.02 114.697 126.336C114.936 126.656 115.17 126.91 115.4 127.098L115.172 127.754C114.895 127.602 114.592 127.354 114.264 127.01C113.936 126.67 113.623 126.24 113.326 125.721C113.029 125.205 112.785 124.602 112.594 123.91C112.402 123.219 112.307 122.445 112.307 121.59ZM121.699 120.055V121.355C121.699 122.055 121.637 122.645 121.512 123.125C121.387 123.605 121.207 123.992 120.973 124.285C120.738 124.578 120.455 124.791 120.123 124.924C119.795 125.053 119.424 125.117 119.01 125.117C118.682 125.117 118.379 125.076 118.102 124.994C117.824 124.912 117.574 124.781 117.352 124.602C117.133 124.418 116.945 124.18 116.789 123.887C116.633 123.594 116.514 123.238 116.432 122.82C116.35 122.402 116.309 121.914 116.309 121.355V120.055C116.309 119.355 116.371 118.77 116.496 118.297C116.625 117.824 116.807 117.445 117.041 117.16C117.275 116.871 117.557 116.664 117.885 116.539C118.217 116.414 118.588 116.352 118.998 116.352C119.33 116.352 119.635 116.393 119.912 116.475C120.193 116.553 120.443 116.68 120.662 116.855C120.881 117.027 121.066 117.258 121.219 117.547C121.375 117.832 121.494 118.182 121.576 118.596C121.658 119.01 121.699 119.496 121.699 120.055ZM120.609 121.531V119.873C120.609 119.49 120.586 119.154 120.539 118.865C120.496 118.572 120.432 118.322 120.346 118.115C120.26 117.908 120.15 117.74 120.018 117.611C119.889 117.482 119.738 117.389 119.566 117.33C119.398 117.268 119.209 117.236 118.998 117.236C118.74 117.236 118.512 117.285 118.312 117.383C118.113 117.477 117.945 117.627 117.809 117.834C117.676 118.041 117.574 118.312 117.504 118.648C117.434 118.984 117.398 119.393 117.398 119.873V121.531C117.398 121.914 117.42 122.252 117.463 122.545C117.51 122.838 117.578 123.092 117.668 123.307C117.758 123.518 117.867 123.691 117.996 123.828C118.125 123.965 118.273 124.066 118.441 124.133C118.613 124.195 118.803 124.227 119.01 124.227C119.275 124.227 119.508 124.176 119.707 124.074C119.906 123.973 120.072 123.814 120.205 123.6C120.342 123.381 120.443 123.102 120.51 122.762C120.576 122.418 120.609 122.008 120.609 121.531ZM124.195 123.711V124.584C124.195 124.939 124.105 125.314 123.926 125.709C123.746 126.107 123.494 126.439 123.17 126.705L122.555 126.277C122.68 126.105 122.785 125.93 122.871 125.75C122.957 125.574 123.021 125.391 123.064 125.199C123.111 125.012 123.135 124.812 123.135 124.602V123.711H124.195ZM135.281 116.469V125H134.145L129.85 118.42V125H128.719V116.469H129.85L134.162 123.066V116.469H135.281ZM139.617 121.531V121.59C139.617 122.445 139.521 123.219 139.33 123.91C139.139 124.602 138.895 125.205 138.598 125.721C138.301 126.24 137.988 126.67 137.66 127.01C137.332 127.354 137.029 127.602 136.752 127.754L136.523 127.098C136.754 126.922 136.986 126.676 137.221 126.359C137.455 126.047 137.672 125.66 137.871 125.199C138.07 124.742 138.23 124.215 138.352 123.617C138.473 123.016 138.533 122.344 138.533 121.602V121.52C138.533 120.777 138.469 120.107 138.34 119.51C138.211 118.908 138.043 118.379 137.836 117.922C137.633 117.465 137.414 117.08 137.18 116.768C136.949 116.451 136.73 116.207 136.523 116.035L136.752 115.373C137.029 115.525 137.332 115.773 137.66 116.117C137.988 116.457 138.301 116.887 138.598 117.406C138.895 117.926 139.139 118.531 139.33 119.223C139.521 119.91 139.617 120.68 139.617 121.531Z" fill="black"/>
<path d="M195.307 189.59V189.531C195.307 188.68 195.402 187.91 195.594 187.223C195.785 186.531 196.029 185.926 196.326 185.406C196.623 184.887 196.936 184.457 197.264 184.117C197.592 183.773 197.895 183.525 198.172 183.373L198.4 184.088C198.17 184.264 197.936 184.506 197.697 184.814C197.463 185.123 197.246 185.502 197.047 185.951C196.852 186.4 196.693 186.922 196.572 187.516C196.451 188.109 196.391 188.777 196.391 189.52V189.602C196.391 190.344 196.451 191.014 196.572 191.611C196.693 192.205 196.852 192.729 197.047 193.182C197.246 193.635 197.463 194.02 197.697 194.336C197.936 194.656 198.17 194.91 198.4 195.098L198.172 195.754C197.895 195.602 197.592 195.354 197.264 195.01C196.936 194.67 196.623 194.24 196.326 193.721C196.029 193.205 195.785 192.602 195.594 191.91C195.402 191.219 195.307 190.445 195.307 189.59ZM204.699 188.055V189.355C204.699 190.055 204.637 190.645 204.512 191.125C204.387 191.605 204.207 191.992 203.973 192.285C203.738 192.578 203.455 192.791 203.123 192.924C202.795 193.053 202.424 193.117 202.01 193.117C201.682 193.117 201.379 193.076 201.102 192.994C200.824 192.912 200.574 192.781 200.352 192.602C200.133 192.418 199.945 192.18 199.789 191.887C199.633 191.594 199.514 191.238 199.432 190.82C199.35 190.402 199.309 189.914 199.309 189.355V188.055C199.309 187.355 199.371 186.77 199.496 186.297C199.625 185.824 199.807 185.445 200.041 185.16C200.275 184.871 200.557 184.664 200.885 184.539C201.217 184.414 201.588 184.352 201.998 184.352C202.33 184.352 202.635 184.393 202.912 184.475C203.193 184.553 203.443 184.68 203.662 184.855C203.881 185.027 204.066 185.258 204.219 185.547C204.375 185.832 204.494 186.182 204.576 186.596C204.658 187.01 204.699 187.496 204.699 188.055ZM203.609 189.531V187.873C203.609 187.49 203.586 187.154 203.539 186.865C203.496 186.572 203.432 186.322 203.346 186.115C203.26 185.908 203.15 185.74 203.018 185.611C202.889 185.482 202.738 185.389 202.566 185.33C202.398 185.268 202.209 185.236 201.998 185.236C201.74 185.236 201.512 185.285 201.312 185.383C201.113 185.477 200.945 185.627 200.809 185.834C200.676 186.041 200.574 186.312 200.504 186.648C200.434 186.984 200.398 187.393 200.398 187.873V189.531C200.398 189.914 200.42 190.252 200.463 190.545C200.51 190.838 200.578 191.092 200.668 191.307C200.758 191.518 200.867 191.691 200.996 191.828C201.125 191.965 201.273 192.066 201.441 192.133C201.613 192.195 201.803 192.227 202.01 192.227C202.275 192.227 202.508 192.176 202.707 192.074C202.906 191.973 203.072 191.814 203.205 191.6C203.342 191.381 203.443 191.102 203.51 190.762C203.576 190.418 203.609 190.008 203.609 189.531ZM207.195 191.711V192.584C207.195 192.939 207.105 193.314 206.926 193.709C206.746 194.107 206.494 194.439 206.17 194.705L205.555 194.277C205.68 194.105 205.785 193.93 205.871 193.75C205.957 193.574 206.021 193.391 206.064 193.199C206.111 193.012 206.135 192.812 206.135 192.602V191.711H207.195ZM218.281 184.469V193H217.145L212.85 186.42V193H211.719V184.469H212.85L217.162 191.066V184.469H218.281ZM222.617 189.531V189.59C222.617 190.445 222.521 191.219 222.33 191.91C222.139 192.602 221.895 193.205 221.598 193.721C221.301 194.24 220.988 194.67 220.66 195.01C220.332 195.354 220.029 195.602 219.752 195.754L219.523 195.098C219.754 194.922 219.986 194.676 220.221 194.359C220.455 194.047 220.672 193.66 220.871 193.199C221.07 192.742 221.23 192.215 221.352 191.617C221.473 191.016 221.533 190.344 221.533 189.602V189.52C221.533 188.777 221.469 188.107 221.34 187.51C221.211 186.908 221.043 186.379 220.836 185.922C220.633 185.465 220.414 185.08 220.18 184.768C219.949 184.451 219.73 184.207 219.523 184.035L219.752 183.373C220.029 183.525 220.332 183.773 220.66 184.117C220.988 184.457 221.301 184.887 221.598 185.406C221.895 185.926 222.139 186.531 222.33 187.223C222.521 187.91 222.617 188.68 222.617 189.531Z" fill="black"/>
<path d="M244.307 121.59V121.531C244.307 120.68 244.402 119.91 244.594 119.223C244.785 118.531 245.029 117.926 245.326 117.406C245.623 116.887 245.936 116.457 246.264 116.117C246.592 115.773 246.895 115.525 247.172 115.373L247.4 116.088C247.17 116.264 246.936 116.506 246.697 116.814C246.463 117.123 246.246 117.502 246.047 117.951C245.852 118.4 245.693 118.922 245.572 119.516C245.451 120.109 245.391 120.777 245.391 121.52V121.602C245.391 122.344 245.451 123.014 245.572 123.611C245.693 124.205 245.852 124.729 246.047 125.182C246.246 125.635 246.463 126.02 246.697 126.336C246.936 126.656 247.17 126.91 247.4 127.098L247.172 127.754C246.895 127.602 246.592 127.354 246.264 127.01C245.936 126.67 245.623 126.24 245.326 125.721C245.029 125.205 244.785 124.602 244.594 123.91C244.402 123.219 244.307 122.445 244.307 121.59ZM253.699 120.055V121.355C253.699 122.055 253.637 122.645 253.512 123.125C253.387 123.605 253.207 123.992 252.973 124.285C252.738 124.578 252.455 124.791 252.123 124.924C251.795 125.053 251.424 125.117 251.01 125.117C250.682 125.117 250.379 125.076 250.102 124.994C249.824 124.912 249.574 124.781 249.352 124.602C249.133 124.418 248.945 124.18 248.789 123.887C248.633 123.594 248.514 123.238 248.432 122.82C248.35 122.402 248.309 121.914 248.309 121.355V120.055C248.309 119.355 248.371 118.77 248.496 118.297C248.625 117.824 248.807 117.445 249.041 117.16C249.275 116.871 249.557 116.664 249.885 116.539C250.217 116.414 250.588 116.352 250.998 116.352C251.33 116.352 251.635 116.393 251.912 116.475C252.193 116.553 252.443 116.68 252.662 116.855C252.881 117.027 253.066 117.258 253.219 117.547C253.375 117.832 253.494 118.182 253.576 118.596C253.658 119.01 253.699 119.496 253.699 120.055ZM252.609 121.531V119.873C252.609 119.49 252.586 119.154 252.539 118.865C252.496 118.572 252.432 118.322 252.346 118.115C252.26 117.908 252.15 117.74 252.018 117.611C251.889 117.482 251.738 117.389 251.566 117.33C251.398 117.268 251.209 117.236 250.998 117.236C250.74 117.236 250.512 117.285 250.312 117.383C250.113 117.477 249.945 117.627 249.809 117.834C249.676 118.041 249.574 118.312 249.504 118.648C249.434 118.984 249.398 119.393 249.398 119.873V121.531C249.398 121.914 249.42 122.252 249.463 122.545C249.51 122.838 249.578 123.092 249.668 123.307C249.758 123.518 249.867 123.691 249.996 123.828C250.125 123.965 250.273 124.066 250.441 124.133C250.613 124.195 250.803 124.227 251.01 124.227C251.275 124.227 251.508 124.176 251.707 124.074C251.906 123.973 252.072 123.814 252.205 123.6C252.342 123.381 252.443 123.102 252.51 122.762C252.576 122.418 252.609 122.008 252.609 121.531ZM256.195 123.711V124.584C256.195 124.939 256.105 125.314 255.926 125.709C255.746 126.107 255.494 126.439 255.17 126.705L254.555 126.277C254.68 126.105 254.785 125.93 254.871 125.75C254.957 125.574 255.021 125.391 255.064 125.199C255.111 125.012 255.135 124.812 255.135 124.602V123.711H256.195ZM267.281 116.469V125H266.145L261.85 118.42V125H260.719V116.469H261.85L266.162 123.066V116.469H267.281ZM271.617 121.531V121.59C271.617 122.445 271.521 123.219 271.33 123.91C271.139 124.602 270.895 125.205 270.598 125.721C270.301 126.24 269.988 126.67 269.66 127.01C269.332 127.354 269.029 127.602 268.752 127.754L268.523 127.098C268.754 126.922 268.986 126.676 269.221 126.359C269.455 126.047 269.672 125.66 269.871 125.199C270.07 124.742 270.23 124.215 270.352 123.617C270.473 123.016 270.533 122.344 270.533 121.602V121.52C270.533 120.777 270.469 120.107 270.34 119.51C270.211 118.908 270.043 118.379 269.836 117.922C269.633 117.465 269.414 117.08 269.18 116.768C268.949 116.451 268.73 116.207 268.523 116.035L268.752 115.373C269.029 115.525 269.332 115.773 269.66 116.117C269.988 116.457 270.301 116.887 270.598 117.406C270.895 117.926 271.139 118.531 271.33 119.223C271.521 119.91 271.617 120.68 271.617 121.531Z" fill="black"/>
<path d="M396.215 121.59V121.531C396.215 120.68 396.311 119.91 396.502 119.223C396.693 118.531 396.938 117.926 397.234 117.406C397.531 116.887 397.844 116.457 398.172 116.117C398.5 115.773 398.803 115.525 399.08 115.373L399.309 116.088C399.078 116.264 398.844 116.506 398.605 116.814C398.371 117.123 398.154 117.502 397.955 117.951C397.76 118.4 397.602 118.922 397.48 119.516C397.359 120.109 397.299 120.777 397.299 121.52V121.602C397.299 122.344 397.359 123.014 397.48 123.611C397.602 124.205 397.76 124.729 397.955 125.182C398.154 125.635 398.371 126.02 398.605 126.336C398.844 126.656 399.078 126.91 399.309 127.098L399.08 127.754C398.803 127.602 398.5 127.354 398.172 127.01C397.844 126.67 397.531 126.24 397.234 125.721C396.938 125.205 396.693 124.602 396.502 123.91C396.311 123.219 396.215 122.445 396.215 121.59ZM403.814 116.422V125H402.73V117.775L400.545 118.572V117.594L403.645 116.422H403.814ZM408.104 123.711V124.584C408.104 124.939 408.014 125.314 407.834 125.709C407.654 126.107 407.402 126.439 407.078 126.705L406.463 126.277C406.588 126.105 406.693 125.93 406.779 125.75C406.865 125.574 406.93 125.391 406.973 125.199C407.02 125.012 407.043 124.812 407.043 124.602V123.711H408.104ZM415.908 116.422V125H414.824V117.775L412.639 118.572V117.594L415.738 116.422H415.908ZM421.709 121.531V121.59C421.709 122.445 421.613 123.219 421.422 123.91C421.23 124.602 420.986 125.205 420.689 125.721C420.393 126.24 420.08 126.67 419.752 127.01C419.424 127.354 419.121 127.602 418.844 127.754L418.615 127.098C418.846 126.922 419.078 126.676 419.312 126.359C419.547 126.047 419.764 125.66 419.963 125.199C420.162 124.742 420.322 124.215 420.443 123.617C420.564 123.016 420.625 122.344 420.625 121.602V121.52C420.625 120.777 420.561 120.107 420.432 119.51C420.303 118.908 420.135 118.379 419.928 117.922C419.725 117.465 419.506 117.08 419.271 116.768C419.041 116.451 418.822 116.207 418.615 116.035L418.844 115.373C419.121 115.525 419.424 115.773 419.752 116.117C420.08 116.457 420.393 116.887 420.689 117.406C420.986 117.926 421.23 118.531 421.422 119.223C421.613 119.91 421.709 120.68 421.709 121.531Z" fill="black"/>
</svg>
