<svg width="381" height="284" viewBox="0 0 381 284" fill="none" xmlns="http://www.w3.org/2000/svg">
<rect x="0.5" y="92.5" width="99" height="99" stroke="black"/>
<path d="M35.3398 142.654H33.0605V141.734H35.3398C35.7812 141.734 36.1387 141.664 36.4121 141.523C36.6855 141.383 36.8848 141.188 37.0098 140.938C37.1387 140.688 37.2031 140.402 37.2031 140.082C37.2031 139.789 37.1387 139.514 37.0098 139.256C36.8848 138.998 36.6855 138.791 36.4121 138.635C36.1387 138.475 35.7812 138.395 35.3398 138.395H33.3242V146H32.1934V137.469H35.3398C35.9844 137.469 36.5293 137.58 36.9746 137.803C37.4199 138.025 37.7578 138.334 37.9883 138.729C38.2188 139.119 38.334 139.566 38.334 140.07C38.334 140.617 38.2188 141.084 37.9883 141.471C37.7578 141.857 37.4199 142.152 36.9746 142.355C36.5293 142.555 35.9844 142.654 35.3398 142.654ZM42.1484 146.117C41.707 146.117 41.3066 146.043 40.9473 145.895C40.5918 145.742 40.2852 145.529 40.0273 145.256C39.7734 144.982 39.5781 144.658 39.4414 144.283C39.3047 143.908 39.2363 143.498 39.2363 143.053V142.807C39.2363 142.291 39.3125 141.832 39.4648 141.43C39.6172 141.023 39.8242 140.68 40.0859 140.398C40.3477 140.117 40.6445 139.904 40.9766 139.76C41.3086 139.615 41.6523 139.543 42.0078 139.543C42.4609 139.543 42.8516 139.621 43.1797 139.777C43.5117 139.934 43.7832 140.152 43.9941 140.434C44.2051 140.711 44.3613 141.039 44.4629 141.418C44.5645 141.793 44.6152 142.203 44.6152 142.648V143.135H39.8809V142.25H43.5312V142.168C43.5156 141.887 43.457 141.613 43.3555 141.348C43.2578 141.082 43.1016 140.863 42.8867 140.691C42.6719 140.52 42.3789 140.434 42.0078 140.434C41.7617 140.434 41.5352 140.486 41.3281 140.592C41.1211 140.693 40.9434 140.846 40.7949 141.049C40.6465 141.252 40.5312 141.5 40.4492 141.793C40.3672 142.086 40.3262 142.424 40.3262 142.807V143.053C40.3262 143.354 40.3672 143.637 40.4492 143.902C40.5352 144.164 40.6582 144.395 40.8184 144.594C40.9824 144.793 41.1797 144.949 41.4102 145.062C41.6445 145.176 41.9102 145.232 42.207 145.232C42.5898 145.232 42.9141 145.154 43.1797 144.998C43.4453 144.842 43.6777 144.633 43.877 144.371L44.5332 144.893C44.3965 145.1 44.2227 145.297 44.0117 145.484C43.8008 145.672 43.541 145.824 43.2324 145.941C42.9277 146.059 42.5664 146.117 42.1484 146.117ZM46.9648 140.656V146H45.8809V139.66H46.9355L46.9648 140.656ZM48.9453 139.625L48.9395 140.633C48.8496 140.613 48.7637 140.602 48.6816 140.598C48.6035 140.59 48.5137 140.586 48.4121 140.586C48.1621 140.586 47.9414 140.625 47.75 140.703C47.5586 140.781 47.3965 140.891 47.2637 141.031C47.1309 141.172 47.0254 141.34 46.9473 141.535C46.873 141.727 46.8242 141.938 46.8008 142.168L46.4961 142.344C46.4961 141.961 46.5332 141.602 46.6074 141.266C46.6855 140.93 46.8047 140.633 46.9648 140.375C47.125 140.113 47.3281 139.91 47.5742 139.766C47.8242 139.617 48.1211 139.543 48.4648 139.543C48.543 139.543 48.6328 139.553 48.7344 139.572C48.8359 139.588 48.9062 139.605 48.9453 139.625ZM53.6387 144.318C53.6387 144.162 53.6035 144.018 53.5332 143.885C53.4668 143.748 53.3281 143.625 53.1172 143.516C52.9102 143.402 52.5977 143.305 52.1797 143.223C51.8281 143.148 51.5098 143.061 51.2246 142.959C50.9434 142.857 50.7031 142.734 50.5039 142.59C50.3086 142.445 50.1582 142.275 50.0527 142.08C49.9473 141.885 49.8945 141.656 49.8945 141.395C49.8945 141.145 49.9492 140.908 50.0586 140.686C50.1719 140.463 50.3301 140.266 50.5332 140.094C50.7402 139.922 50.9883 139.787 51.2773 139.689C51.5664 139.592 51.8887 139.543 52.2441 139.543C52.752 139.543 53.1855 139.633 53.5449 139.812C53.9043 139.992 54.1797 140.232 54.3711 140.533C54.5625 140.83 54.6582 141.16 54.6582 141.523H53.5742C53.5742 141.348 53.5215 141.178 53.416 141.014C53.3145 140.846 53.1641 140.707 52.9648 140.598C52.7695 140.488 52.5293 140.434 52.2441 140.434C51.9434 140.434 51.6992 140.48 51.5117 140.574C51.3281 140.664 51.1934 140.779 51.1074 140.92C51.0254 141.061 50.9844 141.209 50.9844 141.365C50.9844 141.482 51.0039 141.588 51.043 141.682C51.0859 141.771 51.1602 141.855 51.2656 141.934C51.3711 142.008 51.5195 142.078 51.7109 142.145C51.9023 142.211 52.1465 142.277 52.4434 142.344C52.9629 142.461 53.3906 142.602 53.7266 142.766C54.0625 142.93 54.3125 143.131 54.4766 143.369C54.6406 143.607 54.7227 143.896 54.7227 144.236C54.7227 144.514 54.6641 144.768 54.5469 144.998C54.4336 145.229 54.2676 145.428 54.0488 145.596C53.834 145.76 53.5762 145.889 53.2754 145.982C52.9785 146.072 52.6445 146.117 52.2734 146.117C51.7148 146.117 51.2422 146.018 50.8555 145.818C50.4688 145.619 50.1758 145.361 49.9766 145.045C49.7773 144.729 49.6777 144.395 49.6777 144.043H50.7676C50.7832 144.34 50.8691 144.576 51.0254 144.752C51.1816 144.924 51.373 145.047 51.5996 145.121C51.8262 145.191 52.0508 145.227 52.2734 145.227C52.5703 145.227 52.8184 145.188 53.0176 145.109C53.2207 145.031 53.375 144.924 53.4805 144.787C53.5859 144.65 53.6387 144.494 53.6387 144.318ZM55.8594 142.9V142.766C55.8594 142.309 55.9258 141.885 56.0586 141.494C56.1914 141.1 56.3828 140.758 56.6328 140.469C56.8828 140.176 57.1855 139.949 57.541 139.789C57.8965 139.625 58.2949 139.543 58.7363 139.543C59.1816 139.543 59.582 139.625 59.9375 139.789C60.2969 139.949 60.6016 140.176 60.8516 140.469C61.1055 140.758 61.2988 141.1 61.4316 141.494C61.5645 141.885 61.6309 142.309 61.6309 142.766V142.9C61.6309 143.357 61.5645 143.781 61.4316 144.172C61.2988 144.562 61.1055 144.904 60.8516 145.197C60.6016 145.486 60.2988 145.713 59.9434 145.877C59.5918 146.037 59.1934 146.117 58.748 146.117C58.3027 146.117 57.9023 146.037 57.5469 145.877C57.1914 145.713 56.8867 145.486 56.6328 145.197C56.3828 144.904 56.1914 144.562 56.0586 144.172C55.9258 143.781 55.8594 143.357 55.8594 142.9ZM56.9434 142.766V142.9C56.9434 143.217 56.9805 143.516 57.0547 143.797C57.1289 144.074 57.2402 144.32 57.3887 144.535C57.541 144.75 57.7305 144.92 57.957 145.045C58.1836 145.166 58.4473 145.227 58.748 145.227C59.0449 145.227 59.3047 145.166 59.5273 145.045C59.7539 144.92 59.9414 144.75 60.0898 144.535C60.2383 144.32 60.3496 144.074 60.4238 143.797C60.502 143.516 60.541 143.217 60.541 142.9V142.766C60.541 142.453 60.502 142.158 60.4238 141.881C60.3496 141.6 60.2363 141.352 60.084 141.137C59.9355 140.918 59.748 140.746 59.5215 140.621C59.2988 140.496 59.0371 140.434 58.7363 140.434C58.4395 140.434 58.1777 140.496 57.9512 140.621C57.7285 140.746 57.541 140.918 57.3887 141.137C57.2402 141.352 57.1289 141.6 57.0547 141.881C56.9805 142.158 56.9434 142.453 56.9434 142.766ZM64.0742 141.014V146H62.9902V139.66H64.0156L64.0742 141.014ZM63.8164 142.59L63.3652 142.572C63.3691 142.139 63.4336 141.738 63.5586 141.371C63.6836 141 63.8594 140.678 64.0859 140.404C64.3125 140.131 64.582 139.92 64.8945 139.771C65.2109 139.619 65.5605 139.543 65.9434 139.543C66.2559 139.543 66.5371 139.586 66.7871 139.672C67.0371 139.754 67.25 139.887 67.4258 140.07C67.6055 140.254 67.7422 140.492 67.8359 140.785C67.9297 141.074 67.9766 141.428 67.9766 141.846V146H66.8867V141.834C66.8867 141.502 66.8379 141.236 66.7402 141.037C66.6426 140.834 66.5 140.688 66.3125 140.598C66.125 140.504 65.8945 140.457 65.6211 140.457C65.3516 140.457 65.1055 140.514 64.8828 140.627C64.6641 140.74 64.4746 140.896 64.3145 141.096C64.1582 141.295 64.0352 141.523 63.9453 141.781C63.8594 142.035 63.8164 142.305 63.8164 142.59Z" fill="black"/>
<rect x="281.5" y="92.5" width="99" height="99" stroke="black"/>
<path d="M323.766 141.137V142.057H319.148V141.137H323.766ZM319.324 137.469V146H318.193V137.469H319.324ZM324.75 137.469V146H323.625V137.469H324.75ZM330.475 144.535V139.66H331.564V146H330.527L330.475 144.535ZM330.68 143.199L331.131 143.188C331.131 143.609 331.086 144 330.996 144.359C330.91 144.715 330.77 145.023 330.574 145.285C330.379 145.547 330.123 145.752 329.807 145.9C329.49 146.045 329.105 146.117 328.652 146.117C328.344 146.117 328.061 146.072 327.803 145.982C327.549 145.893 327.33 145.754 327.146 145.566C326.963 145.379 326.82 145.135 326.719 144.834C326.621 144.533 326.572 144.172 326.572 143.75V139.66H327.656V143.762C327.656 144.047 327.688 144.283 327.75 144.471C327.816 144.654 327.904 144.801 328.014 144.91C328.127 145.016 328.252 145.09 328.389 145.133C328.529 145.176 328.674 145.197 328.822 145.197C329.283 145.197 329.648 145.109 329.918 144.934C330.188 144.754 330.381 144.514 330.498 144.213C330.619 143.908 330.68 143.57 330.68 143.199ZM334.301 141.014V146H333.217V139.66H334.242L334.301 141.014ZM334.043 142.59L333.592 142.572C333.596 142.139 333.66 141.738 333.785 141.371C333.91 141 334.086 140.678 334.312 140.404C334.539 140.131 334.809 139.92 335.121 139.771C335.438 139.619 335.787 139.543 336.17 139.543C336.482 139.543 336.764 139.586 337.014 139.672C337.264 139.754 337.477 139.887 337.652 140.07C337.832 140.254 337.969 140.492 338.062 140.785C338.156 141.074 338.203 141.428 338.203 141.846V146H337.113V141.834C337.113 141.502 337.064 141.236 336.967 141.037C336.869 140.834 336.727 140.688 336.539 140.598C336.352 140.504 336.121 140.457 335.848 140.457C335.578 140.457 335.332 140.514 335.109 140.627C334.891 140.74 334.701 140.896 334.541 141.096C334.385 141.295 334.262 141.523 334.172 141.781C334.086 142.035 334.043 142.305 334.043 142.59ZM343.846 144.77V137H344.936V146H343.939L343.846 144.77ZM339.58 142.9V142.777C339.58 142.293 339.639 141.854 339.756 141.459C339.877 141.061 340.047 140.719 340.266 140.434C340.488 140.148 340.752 139.93 341.057 139.777C341.365 139.621 341.709 139.543 342.088 139.543C342.486 139.543 342.834 139.613 343.131 139.754C343.432 139.891 343.686 140.092 343.893 140.357C344.104 140.619 344.27 140.936 344.391 141.307C344.512 141.678 344.596 142.098 344.643 142.566V143.105C344.6 143.57 344.516 143.988 344.391 144.359C344.27 144.73 344.104 145.047 343.893 145.309C343.686 145.57 343.432 145.771 343.131 145.912C342.83 146.049 342.479 146.117 342.076 146.117C341.705 146.117 341.365 146.037 341.057 145.877C340.752 145.717 340.488 145.492 340.266 145.203C340.047 144.914 339.877 144.574 339.756 144.184C339.639 143.789 339.58 143.361 339.58 142.9ZM340.67 142.777V142.9C340.67 143.217 340.701 143.514 340.764 143.791C340.83 144.068 340.932 144.312 341.068 144.523C341.205 144.734 341.379 144.9 341.59 145.021C341.801 145.139 342.053 145.197 342.346 145.197C342.705 145.197 343 145.121 343.23 144.969C343.465 144.816 343.652 144.615 343.793 144.365C343.934 144.115 344.043 143.844 344.121 143.551V142.139C344.074 141.924 344.006 141.717 343.916 141.518C343.83 141.314 343.717 141.135 343.576 140.979C343.439 140.818 343.27 140.691 343.066 140.598C342.867 140.504 342.631 140.457 342.357 140.457C342.061 140.457 341.805 140.52 341.59 140.645C341.379 140.766 341.205 140.934 341.068 141.148C340.932 141.359 340.83 141.605 340.764 141.887C340.701 142.164 340.67 142.461 340.67 142.777Z" fill="black"/>
<rect x="190.426" y="0.707107" width="59" height="59" transform="rotate(45 190.426 0.707107)" stroke="black"/>
<path d="M187.253 45.4354V46.3553H182.735V45.4354H187.253ZM182.964 37.8241V46.3553H181.833V37.8241H182.964ZM186.655 41.4921V42.412H182.735V41.4921H186.655ZM187.194 37.8241V38.7499H182.735V37.8241H187.194ZM189.667 40.0155V46.3553H188.577V40.0155H189.667ZM188.495 38.3339C188.495 38.1581 188.548 38.0096 188.653 37.8885C188.762 37.7675 188.923 37.7069 189.133 37.7069C189.34 37.7069 189.499 37.7675 189.608 37.8885C189.721 38.0096 189.778 38.1581 189.778 38.3339C189.778 38.5018 189.721 38.6464 189.608 38.7675C189.499 38.8846 189.34 38.9432 189.133 38.9432C188.923 38.9432 188.762 38.8846 188.653 38.7675C188.548 38.6464 188.495 38.5018 188.495 38.3339ZM194.038 46.4725C193.596 46.4725 193.196 46.3983 192.837 46.2499C192.481 46.0975 192.174 45.8846 191.917 45.6112C191.663 45.3378 191.467 45.0135 191.331 44.6385C191.194 44.2635 191.126 43.8534 191.126 43.4081V43.162C191.126 42.6464 191.202 42.1874 191.354 41.785C191.506 41.3788 191.714 41.035 191.975 40.7538C192.237 40.4725 192.534 40.2596 192.866 40.1151C193.198 39.9706 193.542 39.8983 193.897 39.8983C194.35 39.8983 194.741 39.9764 195.069 40.1327C195.401 40.2889 195.673 40.5077 195.883 40.7889C196.094 41.0663 196.251 41.3944 196.352 41.7733C196.454 42.1483 196.505 42.5585 196.505 43.0038V43.4901H191.77V42.6053H195.421V42.5233C195.405 42.2421 195.346 41.9686 195.245 41.703C195.147 41.4374 194.991 41.2186 194.776 41.0468C194.561 40.8749 194.268 40.7889 193.897 40.7889C193.651 40.7889 193.424 40.8417 193.217 40.9471C193.01 41.0487 192.833 41.201 192.684 41.4042C192.536 41.6073 192.421 41.8553 192.339 42.1483C192.256 42.4413 192.215 42.7792 192.215 43.162V43.4081C192.215 43.7089 192.256 43.9921 192.339 44.2577C192.424 44.5194 192.548 44.7499 192.708 44.9491C192.872 45.1483 193.069 45.3046 193.299 45.4178C193.534 45.5311 193.799 45.5878 194.096 45.5878C194.479 45.5878 194.803 45.5096 195.069 45.3534C195.335 45.1971 195.567 44.9882 195.766 44.7264L196.423 45.2479C196.286 45.455 196.112 45.6522 195.901 45.8397C195.69 46.0272 195.43 46.1796 195.122 46.2968C194.817 46.4139 194.456 46.4725 194.038 46.4725ZM198.854 41.0116V46.3553H197.77V40.0155H198.825L198.854 41.0116ZM200.835 39.9803L200.829 40.9882C200.739 40.9686 200.653 40.9569 200.571 40.953C200.493 40.9452 200.403 40.9413 200.301 40.9413C200.051 40.9413 199.831 40.9803 199.639 41.0585C199.448 41.1366 199.286 41.246 199.153 41.3866C199.02 41.5272 198.915 41.6952 198.837 41.8905C198.762 42.0819 198.714 42.2928 198.69 42.5233L198.385 42.6991C198.385 42.3163 198.423 41.9569 198.497 41.621C198.575 41.285 198.694 40.9882 198.854 40.7303C199.014 40.4686 199.217 40.2655 199.464 40.121C199.714 39.9725 200.01 39.8983 200.354 39.8983C200.432 39.8983 200.522 39.9081 200.624 39.9276C200.725 39.9432 200.796 39.9608 200.835 39.9803Z" fill="black"/>
<rect x="190.426" y="199.707" width="59" height="59" transform="rotate(45 190.426 199.707)" stroke="black"/>
<path d="M178.661 241.365H176.499L176.487 240.457H178.45C178.774 240.457 179.057 240.402 179.299 240.293C179.542 240.183 179.729 240.027 179.862 239.824C179.999 239.617 180.067 239.371 180.067 239.086C180.067 238.773 180.006 238.519 179.885 238.324C179.768 238.125 179.587 237.98 179.34 237.891C179.098 237.797 178.79 237.75 178.415 237.75H176.751V245.355H175.62V236.824H178.415C178.852 236.824 179.243 236.869 179.587 236.959C179.93 237.045 180.221 237.182 180.46 237.369C180.702 237.553 180.885 237.787 181.01 238.072C181.135 238.357 181.198 238.699 181.198 239.098C181.198 239.449 181.108 239.767 180.928 240.053C180.749 240.334 180.499 240.564 180.178 240.744C179.862 240.924 179.491 241.039 179.065 241.09L178.661 241.365ZM178.608 245.355H176.053L176.692 244.435H178.608C178.967 244.435 179.272 244.373 179.522 244.248C179.776 244.123 179.969 243.947 180.102 243.721C180.235 243.49 180.301 243.219 180.301 242.906C180.301 242.59 180.245 242.316 180.131 242.086C180.018 241.855 179.84 241.678 179.598 241.553C179.356 241.428 179.044 241.365 178.661 241.365H177.049L177.061 240.457H179.264L179.505 240.785C179.915 240.82 180.262 240.937 180.548 241.137C180.833 241.332 181.049 241.582 181.198 241.887C181.35 242.191 181.426 242.527 181.426 242.894C181.426 243.426 181.309 243.875 181.075 244.242C180.844 244.605 180.518 244.883 180.096 245.074C179.674 245.262 179.178 245.355 178.608 245.355ZM184.11 239.016V245.355H183.02V239.016H184.11ZM182.938 237.334C182.938 237.158 182.991 237.01 183.096 236.889C183.206 236.767 183.366 236.707 183.577 236.707C183.784 236.707 183.942 236.767 184.051 236.889C184.165 237.01 184.221 237.158 184.221 237.334C184.221 237.502 184.165 237.646 184.051 237.767C183.942 237.885 183.784 237.943 183.577 237.943C183.366 237.943 183.206 237.885 183.096 237.767C182.991 237.646 182.938 237.502 182.938 237.334ZM188.505 239.016V239.848H185.077V239.016H188.505ZM186.237 237.474H187.321V243.785C187.321 244 187.354 244.162 187.421 244.271C187.487 244.381 187.573 244.453 187.678 244.488C187.784 244.523 187.897 244.541 188.018 244.541C188.108 244.541 188.202 244.533 188.299 244.517C188.401 244.498 188.477 244.482 188.528 244.471L188.534 245.355C188.448 245.383 188.335 245.408 188.194 245.432C188.057 245.459 187.891 245.473 187.696 245.473C187.43 245.473 187.186 245.42 186.964 245.314C186.741 245.209 186.563 245.033 186.43 244.787C186.301 244.537 186.237 244.201 186.237 243.779V237.474ZM192.43 239.016V239.848H189.003V239.016H192.43ZM190.163 237.474H191.247V243.785C191.247 244 191.28 244.162 191.346 244.271C191.413 244.381 191.499 244.453 191.604 244.488C191.71 244.523 191.823 244.541 191.944 244.541C192.034 244.541 192.128 244.533 192.225 244.517C192.327 244.498 192.403 244.482 192.454 244.471L192.46 245.355C192.374 245.383 192.26 245.408 192.12 245.432C191.983 245.459 191.817 245.473 191.622 245.473C191.356 245.473 191.112 245.42 190.889 245.314C190.667 245.209 190.489 245.033 190.356 244.787C190.227 244.537 190.163 244.201 190.163 243.779V237.474ZM197.024 237.58L194.2 245.355H193.046L196.298 236.824H197.042L197.024 237.58ZM199.391 245.355L196.561 237.58L196.544 236.824H197.288L200.551 245.355H199.391ZM199.245 242.197V243.123H194.452V242.197H199.245ZM203.165 244.377L204.899 239.016H206.006L203.727 245.355H203.001L203.165 244.377ZM201.717 239.016L203.505 244.406L203.628 245.355H202.901L200.604 239.016H201.717Z" fill="black"/>
<path d="M61.3066 83.5898V83.5312C61.3066 82.6797 61.4023 81.9102 61.5938 81.2227C61.7852 80.5312 62.0293 79.9258 62.3262 79.4062C62.623 78.8867 62.9355 78.457 63.2637 78.1172C63.5918 77.7734 63.8945 77.5254 64.1719 77.373L64.4004 78.0879C64.1699 78.2637 63.9355 78.5059 63.6973 78.8145C63.4629 79.123 63.2461 79.502 63.0469 79.9512C62.8516 80.4004 62.6934 80.9219 62.5723 81.5156C62.4512 82.1094 62.3906 82.7773 62.3906 83.5195V83.6016C62.3906 84.3438 62.4512 85.0137 62.5723 85.6113C62.6934 86.2051 62.8516 86.7285 63.0469 87.1816C63.2461 87.6348 63.4629 88.0195 63.6973 88.3359C63.9355 88.6562 64.1699 88.9102 64.4004 89.0977L64.1719 89.7539C63.8945 89.6016 63.5918 89.3535 63.2637 89.0098C62.9355 88.6699 62.623 88.2402 62.3262 87.7207C62.0293 87.2051 61.7852 86.6016 61.5938 85.9102C61.4023 85.2188 61.3066 84.4453 61.3066 83.5898ZM70.6992 82.0547V83.3555C70.6992 84.0547 70.6367 84.6445 70.5117 85.125C70.3867 85.6055 70.207 85.9922 69.9727 86.2852C69.7383 86.5781 69.4551 86.791 69.123 86.9238C68.7949 87.0527 68.4238 87.1172 68.0098 87.1172C67.6816 87.1172 67.3789 87.0762 67.1016 86.9941C66.8242 86.9121 66.5742 86.7812 66.3516 86.6016C66.1328 86.418 65.9453 86.1797 65.7891 85.8867C65.6328 85.5938 65.5137 85.2383 65.4316 84.8203C65.3496 84.4023 65.3086 83.9141 65.3086 83.3555V82.0547C65.3086 81.3555 65.3711 80.7695 65.4961 80.2969C65.625 79.8242 65.8066 79.4453 66.041 79.1602C66.2754 78.8711 66.5566 78.6641 66.8848 78.5391C67.2168 78.4141 67.5879 78.3516 67.998 78.3516C68.3301 78.3516 68.6348 78.3926 68.9121 78.4746C69.1934 78.5527 69.4434 78.6797 69.6621 78.8555C69.8809 79.0273 70.0664 79.2578 70.2188 79.5469C70.375 79.832 70.4941 80.1816 70.5762 80.5957C70.6582 81.0098 70.6992 81.4961 70.6992 82.0547ZM69.6094 83.5312V81.873C69.6094 81.4902 69.5859 81.1543 69.5391 80.8652C69.4961 80.5723 69.4316 80.3223 69.3457 80.1152C69.2598 79.9082 69.1504 79.7402 69.0176 79.6113C68.8887 79.4824 68.7383 79.3887 68.5664 79.3301C68.3984 79.2676 68.209 79.2363 67.998 79.2363C67.7402 79.2363 67.5117 79.2852 67.3125 79.3828C67.1133 79.4766 66.9453 79.627 66.8086 79.834C66.6758 80.041 66.5742 80.3125 66.5039 80.6484C66.4336 80.9844 66.3984 81.3926 66.3984 81.873V83.5312C66.3984 83.9141 66.4199 84.252 66.4629 84.5449C66.5098 84.8379 66.5781 85.0918 66.668 85.3066C66.7578 85.5176 66.8672 85.6914 66.9961 85.8281C67.125 85.9648 67.2734 86.0664 67.4414 86.1328C67.6133 86.1953 67.8027 86.2266 68.0098 86.2266C68.2754 86.2266 68.5078 86.1758 68.707 86.0742C68.9062 85.9727 69.0723 85.8145 69.2051 85.5996C69.3418 85.3809 69.4434 85.1016 69.5098 84.7617C69.5762 84.418 69.6094 84.0078 69.6094 83.5312ZM73.1953 85.7109V86.584C73.1953 86.9395 73.1055 87.3145 72.9258 87.709C72.7461 88.1074 72.4941 88.4395 72.1699 88.7051L71.5547 88.2773C71.6797 88.1055 71.7852 87.9297 71.8711 87.75C71.957 87.5742 72.0215 87.3906 72.0645 87.1992C72.1113 87.0117 72.1348 86.8125 72.1348 86.6016V85.7109H73.1953ZM84.2812 78.4688V87H83.1445L78.8496 80.4199V87H77.7188V78.4688H78.8496L83.1621 85.0664V78.4688H84.2812ZM88.6172 83.5312V83.5898C88.6172 84.4453 88.5215 85.2188 88.3301 85.9102C88.1387 86.6016 87.8945 87.2051 87.5977 87.7207C87.3008 88.2402 86.9883 88.6699 86.6602 89.0098C86.332 89.3535 86.0293 89.6016 85.752 89.7539L85.5234 89.0977C85.7539 88.9219 85.9863 88.6758 86.2207 88.3594C86.4551 88.0469 86.6719 87.6602 86.8711 87.1992C87.0703 86.7422 87.2305 86.2148 87.3516 85.6172C87.4727 85.0156 87.5332 84.3438 87.5332 83.6016V83.5195C87.5332 82.7773 87.4688 82.1074 87.3398 81.5098C87.2109 80.9082 87.043 80.3789 86.8359 79.9219C86.6328 79.4648 86.4141 79.0801 86.1797 78.7676C85.9492 78.4512 85.7305 78.207 85.5234 78.0352L85.752 77.373C86.0293 77.5254 86.332 77.7734 86.6602 78.1172C86.9883 78.457 87.3008 78.8867 87.5977 79.4062C87.8945 79.9258 88.1387 80.5312 88.3301 81.2227C88.5215 81.9102 88.6172 82.6797 88.6172 83.5312Z" fill="black"/>
<path d="M294.215 83.5898V83.5312C294.215 82.6797 294.311 81.9102 294.502 81.2227C294.693 80.5312 294.938 79.9258 295.234 79.4062C295.531 78.8867 295.844 78.457 296.172 78.1172C296.5 77.7734 296.803 77.5254 297.08 77.373L297.309 78.0879C297.078 78.2637 296.844 78.5059 296.605 78.8145C296.371 79.123 296.154 79.502 295.955 79.9512C295.76 80.4004 295.602 80.9219 295.48 81.5156C295.359 82.1094 295.299 82.7773 295.299 83.5195V83.6016C295.299 84.3438 295.359 85.0137 295.48 85.6113C295.602 86.2051 295.76 86.7285 295.955 87.1816C296.154 87.6348 296.371 88.0195 296.605 88.3359C296.844 88.6562 297.078 88.9102 297.309 89.0977L297.08 89.7539C296.803 89.6016 296.5 89.3535 296.172 89.0098C295.844 88.6699 295.531 88.2402 295.234 87.7207C294.938 87.2051 294.693 86.6016 294.502 85.9102C294.311 85.2188 294.215 84.4453 294.215 83.5898ZM301.814 78.4219V87H300.73V79.7754L298.545 80.5723V79.5938L301.645 78.4219H301.814ZM306.104 85.7109V86.584C306.104 86.9395 306.014 87.3145 305.834 87.709C305.654 88.1074 305.402 88.4395 305.078 88.7051L304.463 88.2773C304.588 88.1055 304.693 87.9297 304.779 87.75C304.865 87.5742 304.93 87.3906 304.973 87.1992C305.02 87.0117 305.043 86.8125 305.043 86.6016V85.7109H306.104ZM313.908 78.4219V87H312.824V79.7754L310.639 80.5723V79.5938L313.738 78.4219H313.908ZM319.709 83.5312V83.5898C319.709 84.4453 319.613 85.2188 319.422 85.9102C319.23 86.6016 318.986 87.2051 318.689 87.7207C318.393 88.2402 318.08 88.6699 317.752 89.0098C317.424 89.3535 317.121 89.6016 316.844 89.7539L316.615 89.0977C316.846 88.9219 317.078 88.6758 317.312 88.3594C317.547 88.0469 317.764 87.6602 317.963 87.1992C318.162 86.7422 318.322 86.2148 318.443 85.6172C318.564 85.0156 318.625 84.3438 318.625 83.6016V83.5195C318.625 82.7773 318.561 82.1074 318.432 81.5098C318.303 80.9082 318.135 80.3789 317.928 79.9219C317.725 79.4648 317.506 79.0801 317.271 78.7676C317.041 78.4512 316.822 78.207 316.615 78.0352L316.844 77.373C317.121 77.5254 317.424 77.7734 317.752 78.1172C318.08 78.457 318.393 78.8867 318.689 79.4062C318.986 79.9258 319.23 80.5312 319.422 81.2227C319.613 81.9102 319.709 82.6797 319.709 83.5312Z" fill="black"/>
<path d="M293.307 201.59V201.531C293.307 200.68 293.402 199.91 293.594 199.223C293.785 198.531 294.029 197.926 294.326 197.406C294.623 196.887 294.936 196.457 295.264 196.117C295.592 195.773 295.895 195.525 296.172 195.373L296.4 196.088C296.17 196.264 295.936 196.506 295.697 196.814C295.463 197.123 295.246 197.502 295.047 197.951C294.852 198.4 294.693 198.922 294.572 199.516C294.451 200.109 294.391 200.777 294.391 201.52V201.602C294.391 202.344 294.451 203.014 294.572 203.611C294.693 204.205 294.852 204.729 295.047 205.182C295.246 205.635 295.463 206.02 295.697 206.336C295.936 206.656 296.17 206.91 296.4 207.098L296.172 207.754C295.895 207.602 295.592 207.354 295.264 207.01C294.936 206.67 294.623 206.24 294.326 205.721C294.029 205.205 293.785 204.602 293.594 203.91C293.402 203.219 293.307 202.445 293.307 201.59ZM302.699 200.055V201.355C302.699 202.055 302.637 202.645 302.512 203.125C302.387 203.605 302.207 203.992 301.973 204.285C301.738 204.578 301.455 204.791 301.123 204.924C300.795 205.053 300.424 205.117 300.01 205.117C299.682 205.117 299.379 205.076 299.102 204.994C298.824 204.912 298.574 204.781 298.352 204.602C298.133 204.418 297.945 204.18 297.789 203.887C297.633 203.594 297.514 203.238 297.432 202.82C297.35 202.402 297.309 201.914 297.309 201.355V200.055C297.309 199.355 297.371 198.77 297.496 198.297C297.625 197.824 297.807 197.445 298.041 197.16C298.275 196.871 298.557 196.664 298.885 196.539C299.217 196.414 299.588 196.352 299.998 196.352C300.33 196.352 300.635 196.393 300.912 196.475C301.193 196.553 301.443 196.68 301.662 196.855C301.881 197.027 302.066 197.258 302.219 197.547C302.375 197.832 302.494 198.182 302.576 198.596C302.658 199.01 302.699 199.496 302.699 200.055ZM301.609 201.531V199.873C301.609 199.49 301.586 199.154 301.539 198.865C301.496 198.572 301.432 198.322 301.346 198.115C301.26 197.908 301.15 197.74 301.018 197.611C300.889 197.482 300.738 197.389 300.566 197.33C300.398 197.268 300.209 197.236 299.998 197.236C299.74 197.236 299.512 197.285 299.312 197.383C299.113 197.477 298.945 197.627 298.809 197.834C298.676 198.041 298.574 198.312 298.504 198.648C298.434 198.984 298.398 199.393 298.398 199.873V201.531C298.398 201.914 298.42 202.252 298.463 202.545C298.51 202.838 298.578 203.092 298.668 203.307C298.758 203.518 298.867 203.691 298.996 203.828C299.125 203.965 299.273 204.066 299.441 204.133C299.613 204.195 299.803 204.227 300.01 204.227C300.275 204.227 300.508 204.176 300.707 204.074C300.906 203.973 301.072 203.814 301.205 203.6C301.342 203.381 301.443 203.102 301.51 202.762C301.576 202.418 301.609 202.008 301.609 201.531ZM305.195 203.711V204.584C305.195 204.939 305.105 205.314 304.926 205.709C304.746 206.107 304.494 206.439 304.17 206.705L303.555 206.277C303.68 206.105 303.785 205.93 303.871 205.75C303.957 205.574 304.021 205.391 304.064 205.199C304.111 205.012 304.135 204.812 304.135 204.602V203.711H305.195ZM316.281 196.469V205H315.145L310.85 198.42V205H309.719V196.469H310.85L315.162 203.066V196.469H316.281ZM320.617 201.531V201.59C320.617 202.445 320.521 203.219 320.33 203.91C320.139 204.602 319.895 205.205 319.598 205.721C319.301 206.24 318.988 206.67 318.66 207.01C318.332 207.354 318.029 207.602 317.752 207.754L317.523 207.098C317.754 206.922 317.986 206.676 318.221 206.359C318.455 206.047 318.672 205.66 318.871 205.199C319.07 204.742 319.23 204.215 319.352 203.617C319.473 203.016 319.533 202.344 319.533 201.602V201.52C319.533 200.777 319.469 200.107 319.34 199.51C319.211 198.908 319.043 198.379 318.836 197.922C318.633 197.465 318.414 197.08 318.18 196.768C317.949 196.451 317.73 196.207 317.523 196.035L317.752 195.373C318.029 195.525 318.332 195.773 318.66 196.117C318.988 196.457 319.301 196.887 319.598 197.406C319.895 197.926 320.139 198.531 320.33 199.223C320.521 199.91 320.617 200.68 320.617 201.531Z" fill="black"/>
<path d="M61.3066 201.59V201.531C61.3066 200.68 61.4023 199.91 61.5938 199.223C61.7852 198.531 62.0293 197.926 62.3262 197.406C62.623 196.887 62.9355 196.457 63.2637 196.117C63.5918 195.773 63.8945 195.525 64.1719 195.373L64.4004 196.088C64.1699 196.264 63.9355 196.506 63.6973 196.814C63.4629 197.123 63.2461 197.502 63.0469 197.951C62.8516 198.4 62.6934 198.922 62.5723 199.516C62.4512 200.109 62.3906 200.777 62.3906 201.52V201.602C62.3906 202.344 62.4512 203.014 62.5723 203.611C62.6934 204.205 62.8516 204.729 63.0469 205.182C63.2461 205.635 63.4629 206.02 63.6973 206.336C63.9355 206.656 64.1699 206.91 64.4004 207.098L64.1719 207.754C63.8945 207.602 63.5918 207.354 63.2637 207.01C62.9355 206.67 62.623 206.24 62.3262 205.721C62.0293 205.205 61.7852 204.602 61.5938 203.91C61.4023 203.219 61.3066 202.445 61.3066 201.59ZM70.6992 200.055V201.355C70.6992 202.055 70.6367 202.645 70.5117 203.125C70.3867 203.605 70.207 203.992 69.9727 204.285C69.7383 204.578 69.4551 204.791 69.123 204.924C68.7949 205.053 68.4238 205.117 68.0098 205.117C67.6816 205.117 67.3789 205.076 67.1016 204.994C66.8242 204.912 66.5742 204.781 66.3516 204.602C66.1328 204.418 65.9453 204.18 65.7891 203.887C65.6328 203.594 65.5137 203.238 65.4316 202.82C65.3496 202.402 65.3086 201.914 65.3086 201.355V200.055C65.3086 199.355 65.3711 198.77 65.4961 198.297C65.625 197.824 65.8066 197.445 66.041 197.16C66.2754 196.871 66.5566 196.664 66.8848 196.539C67.2168 196.414 67.5879 196.352 67.998 196.352C68.3301 196.352 68.6348 196.393 68.9121 196.475C69.1934 196.553 69.4434 196.68 69.6621 196.855C69.8809 197.027 70.0664 197.258 70.2188 197.547C70.375 197.832 70.4941 198.182 70.5762 198.596C70.6582 199.01 70.6992 199.496 70.6992 200.055ZM69.6094 201.531V199.873C69.6094 199.49 69.5859 199.154 69.5391 198.865C69.4961 198.572 69.4316 198.322 69.3457 198.115C69.2598 197.908 69.1504 197.74 69.0176 197.611C68.8887 197.482 68.7383 197.389 68.5664 197.33C68.3984 197.268 68.209 197.236 67.998 197.236C67.7402 197.236 67.5117 197.285 67.3125 197.383C67.1133 197.477 66.9453 197.627 66.8086 197.834C66.6758 198.041 66.5742 198.312 66.5039 198.648C66.4336 198.984 66.3984 199.393 66.3984 199.873V201.531C66.3984 201.914 66.4199 202.252 66.4629 202.545C66.5098 202.838 66.5781 203.092 66.668 203.307C66.7578 203.518 66.8672 203.691 66.9961 203.828C67.125 203.965 67.2734 204.066 67.4414 204.133C67.6133 204.195 67.8027 204.227 68.0098 204.227C68.2754 204.227 68.5078 204.176 68.707 204.074C68.9062 203.973 69.0723 203.814 69.2051 203.6C69.3418 203.381 69.4434 203.102 69.5098 202.762C69.5762 202.418 69.6094 202.008 69.6094 201.531ZM73.1953 203.711V204.584C73.1953 204.939 73.1055 205.314 72.9258 205.709C72.7461 206.107 72.4941 206.439 72.1699 206.705L71.5547 206.277C71.6797 206.105 71.7852 205.93 71.8711 205.75C71.957 205.574 72.0215 205.391 72.0645 205.199C72.1113 205.012 72.1348 204.812 72.1348 204.602V203.711H73.1953ZM84.2812 196.469V205H83.1445L78.8496 198.42V205H77.7188V196.469H78.8496L83.1621 203.066V196.469H84.2812ZM88.6172 201.531V201.59C88.6172 202.445 88.5215 203.219 88.3301 203.91C88.1387 204.602 87.8945 205.205 87.5977 205.721C87.3008 206.24 86.9883 206.67 86.6602 207.01C86.332 207.354 86.0293 207.602 85.752 207.754L85.5234 207.098C85.7539 206.922 85.9863 206.676 86.2207 206.359C86.4551 206.047 86.6719 205.66 86.8711 205.199C87.0703 204.742 87.2305 204.215 87.3516 203.617C87.4727 203.016 87.5332 202.344 87.5332 201.602V201.52C87.5332 200.777 87.4688 200.107 87.3398 199.51C87.2109 198.908 87.043 198.379 86.8359 197.922C86.6328 197.465 86.4141 197.08 86.1797 196.768C85.9492 196.451 85.7305 196.207 85.5234 196.035L85.752 195.373C86.0293 195.525 86.332 195.773 86.6602 196.117C86.9883 196.457 87.3008 196.887 87.5977 197.406C87.8945 197.926 88.1387 198.531 88.3301 199.223C88.5215 199.91 88.6172 200.68 88.6172 201.531Z" fill="black"/>
<path fill-rule="evenodd" clip-rule="evenodd" d="M331 192C331 198.435 329.733 204.807 327.27 210.751C324.808 216.696 321.198 222.098 316.648 226.648C312.098 231.198 306.696 234.808 300.751 237.27C294.807 239.733 288.435 241 282 241V242C288.566 242 295.068 240.707 301.134 238.194C307.2 235.681 312.712 231.998 317.355 227.355C321.998 222.712 325.681 217.2 328.194 211.134C330.707 205.068 332 198.566 332 192H331Z" fill="black"/>
<rect x="232" y="241" width="50" height="1" fill="black"/>
<path fill-rule="evenodd" clip-rule="evenodd" d="M331 92C331 85.5652 329.733 79.1935 327.27 73.2485C324.808 67.3036 321.198 61.9018 316.648 57.3518C312.098 52.8017 306.696 49.1924 300.751 46.7299C294.807 44.2674 288.435 43 282 43V42C288.566 42 295.068 43.2933 301.134 45.806C307.2 48.3188 312.712 52.0017 317.355 56.6447C321.998 61.2876 325.681 66.7995 328.194 72.8658C330.707 78.9321 332 85.4339 332 92H331Z" fill="black"/>
<rect width="50" height="1" transform="matrix(1 0 0 -1 232 43)" fill="black"/>
<path fill-rule="evenodd" clip-rule="evenodd" d="M50 92C50 85.5652 51.2674 79.1935 53.7299 73.2485C56.1924 67.3036 59.8017 61.9018 64.3518 57.3518C68.9018 52.8017 74.3036 49.1924 80.2485 46.7299C86.1935 44.2674 92.5652 43 99 43V42C92.4339 42 85.9321 43.2933 79.8658 45.806C73.7995 48.3188 68.2876 52.0017 63.6447 56.6447C59.0017 61.2876 55.3188 66.7995 52.806 72.8658C50.2933 78.9321 49 85.4339 49 92H50Z" fill="black"/>
<rect x="149" y="43" width="50" height="1" transform="rotate(-180 149 43)" fill="black"/>
<path fill-rule="evenodd" clip-rule="evenodd" d="M50 191C50 197.435 51.2674 203.807 53.7299 209.751C56.1924 215.696 59.8017 221.098 64.3518 225.648C68.9018 230.198 74.3036 233.808 80.2485 236.27C86.1935 238.733 92.5652 240 99 240V241C92.4339 241 85.9321 239.707 79.8658 237.194C73.7995 234.681 68.2876 230.998 63.6447 226.355C59.0017 221.712 55.3188 216.2 52.806 210.134C50.2933 204.068 49 197.566 49 191H50Z" fill="black"/>
<rect width="50" height="1" transform="matrix(-1 0 0 1 149 240)" fill="black"/>
</svg>
