<svg width="360" height="244" viewBox="0 0 360 244" fill="none" xmlns="http://www.w3.org/2000/svg">
<rect x="0.5" y="79.5" width="99" height="99" stroke="black"/>
<path d="M35.3398 129.654H33.0605V128.734H35.3398C35.7812 128.734 36.1387 128.664 36.4121 128.523C36.6855 128.383 36.8848 128.188 37.0098 127.938C37.1387 127.688 37.2031 127.402 37.2031 127.082C37.2031 126.789 37.1387 126.514 37.0098 126.256C36.8848 125.998 36.6855 125.791 36.4121 125.635C36.1387 125.475 35.7812 125.395 35.3398 125.395H33.3242V133H32.1934V124.469H35.3398C35.9844 124.469 36.5293 124.58 36.9746 124.803C37.4199 125.025 37.7578 125.334 37.9883 125.729C38.2188 126.119 38.334 126.566 38.334 127.07C38.334 127.617 38.2188 128.084 37.9883 128.471C37.7578 128.857 37.4199 129.152 36.9746 129.355C36.5293 129.555 35.9844 129.654 35.3398 129.654ZM42.1484 133.117C41.707 133.117 41.3066 133.043 40.9473 132.895C40.5918 132.742 40.2852 132.529 40.0273 132.256C39.7734 131.982 39.5781 131.658 39.4414 131.283C39.3047 130.908 39.2363 130.498 39.2363 130.053V129.807C39.2363 129.291 39.3125 128.832 39.4648 128.43C39.6172 128.023 39.8242 127.68 40.0859 127.398C40.3477 127.117 40.6445 126.904 40.9766 126.76C41.3086 126.615 41.6523 126.543 42.0078 126.543C42.4609 126.543 42.8516 126.621 43.1797 126.777C43.5117 126.934 43.7832 127.152 43.9941 127.434C44.2051 127.711 44.3613 128.039 44.4629 128.418C44.5645 128.793 44.6152 129.203 44.6152 129.648V130.135H39.8809V129.25H43.5312V129.168C43.5156 128.887 43.457 128.613 43.3555 128.348C43.2578 128.082 43.1016 127.863 42.8867 127.691C42.6719 127.52 42.3789 127.434 42.0078 127.434C41.7617 127.434 41.5352 127.486 41.3281 127.592C41.1211 127.693 40.9434 127.846 40.7949 128.049C40.6465 128.252 40.5312 128.5 40.4492 128.793C40.3672 129.086 40.3262 129.424 40.3262 129.807V130.053C40.3262 130.354 40.3672 130.637 40.4492 130.902C40.5352 131.164 40.6582 131.395 40.8184 131.594C40.9824 131.793 41.1797 131.949 41.4102 132.062C41.6445 132.176 41.9102 132.232 42.207 132.232C42.5898 132.232 42.9141 132.154 43.1797 131.998C43.4453 131.842 43.6777 131.633 43.877 131.371L44.5332 131.893C44.3965 132.1 44.2227 132.297 44.0117 132.484C43.8008 132.672 43.541 132.824 43.2324 132.941C42.9277 133.059 42.5664 133.117 42.1484 133.117ZM46.9648 127.656V133H45.8809V126.66H46.9355L46.9648 127.656ZM48.9453 126.625L48.9395 127.633C48.8496 127.613 48.7637 127.602 48.6816 127.598C48.6035 127.59 48.5137 127.586 48.4121 127.586C48.1621 127.586 47.9414 127.625 47.75 127.703C47.5586 127.781 47.3965 127.891 47.2637 128.031C47.1309 128.172 47.0254 128.34 46.9473 128.535C46.873 128.727 46.8242 128.938 46.8008 129.168L46.4961 129.344C46.4961 128.961 46.5332 128.602 46.6074 128.266C46.6855 127.93 46.8047 127.633 46.9648 127.375C47.125 127.113 47.3281 126.91 47.5742 126.766C47.8242 126.617 48.1211 126.543 48.4648 126.543C48.543 126.543 48.6328 126.553 48.7344 126.572C48.8359 126.588 48.9062 126.605 48.9453 126.625ZM53.6387 131.318C53.6387 131.162 53.6035 131.018 53.5332 130.885C53.4668 130.748 53.3281 130.625 53.1172 130.516C52.9102 130.402 52.5977 130.305 52.1797 130.223C51.8281 130.148 51.5098 130.061 51.2246 129.959C50.9434 129.857 50.7031 129.734 50.5039 129.59C50.3086 129.445 50.1582 129.275 50.0527 129.08C49.9473 128.885 49.8945 128.656 49.8945 128.395C49.8945 128.145 49.9492 127.908 50.0586 127.686C50.1719 127.463 50.3301 127.266 50.5332 127.094C50.7402 126.922 50.9883 126.787 51.2773 126.689C51.5664 126.592 51.8887 126.543 52.2441 126.543C52.752 126.543 53.1855 126.633 53.5449 126.812C53.9043 126.992 54.1797 127.232 54.3711 127.533C54.5625 127.83 54.6582 128.16 54.6582 128.523H53.5742C53.5742 128.348 53.5215 128.178 53.416 128.014C53.3145 127.846 53.1641 127.707 52.9648 127.598C52.7695 127.488 52.5293 127.434 52.2441 127.434C51.9434 127.434 51.6992 127.48 51.5117 127.574C51.3281 127.664 51.1934 127.779 51.1074 127.92C51.0254 128.061 50.9844 128.209 50.9844 128.365C50.9844 128.482 51.0039 128.588 51.043 128.682C51.0859 128.771 51.1602 128.855 51.2656 128.934C51.3711 129.008 51.5195 129.078 51.7109 129.145C51.9023 129.211 52.1465 129.277 52.4434 129.344C52.9629 129.461 53.3906 129.602 53.7266 129.766C54.0625 129.93 54.3125 130.131 54.4766 130.369C54.6406 130.607 54.7227 130.896 54.7227 131.236C54.7227 131.514 54.6641 131.768 54.5469 131.998C54.4336 132.229 54.2676 132.428 54.0488 132.596C53.834 132.76 53.5762 132.889 53.2754 132.982C52.9785 133.072 52.6445 133.117 52.2734 133.117C51.7148 133.117 51.2422 133.018 50.8555 132.818C50.4688 132.619 50.1758 132.361 49.9766 132.045C49.7773 131.729 49.6777 131.395 49.6777 131.043H50.7676C50.7832 131.34 50.8691 131.576 51.0254 131.752C51.1816 131.924 51.373 132.047 51.5996 132.121C51.8262 132.191 52.0508 132.227 52.2734 132.227C52.5703 132.227 52.8184 132.188 53.0176 132.109C53.2207 132.031 53.375 131.924 53.4805 131.787C53.5859 131.65 53.6387 131.494 53.6387 131.318ZM55.8594 129.9V129.766C55.8594 129.309 55.9258 128.885 56.0586 128.494C56.1914 128.1 56.3828 127.758 56.6328 127.469C56.8828 127.176 57.1855 126.949 57.541 126.789C57.8965 126.625 58.2949 126.543 58.7363 126.543C59.1816 126.543 59.582 126.625 59.9375 126.789C60.2969 126.949 60.6016 127.176 60.8516 127.469C61.1055 127.758 61.2988 128.1 61.4316 128.494C61.5645 128.885 61.6309 129.309 61.6309 129.766V129.9C61.6309 130.357 61.5645 130.781 61.4316 131.172C61.2988 131.562 61.1055 131.904 60.8516 132.197C60.6016 132.486 60.2988 132.713 59.9434 132.877C59.5918 133.037 59.1934 133.117 58.748 133.117C58.3027 133.117 57.9023 133.037 57.5469 132.877C57.1914 132.713 56.8867 132.486 56.6328 132.197C56.3828 131.904 56.1914 131.562 56.0586 131.172C55.9258 130.781 55.8594 130.357 55.8594 129.9ZM56.9434 129.766V129.9C56.9434 130.217 56.9805 130.516 57.0547 130.797C57.1289 131.074 57.2402 131.32 57.3887 131.535C57.541 131.75 57.7305 131.92 57.957 132.045C58.1836 132.166 58.4473 132.227 58.748 132.227C59.0449 132.227 59.3047 132.166 59.5273 132.045C59.7539 131.92 59.9414 131.75 60.0898 131.535C60.2383 131.32 60.3496 131.074 60.4238 130.797C60.502 130.516 60.541 130.217 60.541 129.9V129.766C60.541 129.453 60.502 129.158 60.4238 128.881C60.3496 128.6 60.2363 128.352 60.084 128.137C59.9355 127.918 59.748 127.746 59.5215 127.621C59.2988 127.496 59.0371 127.434 58.7363 127.434C58.4395 127.434 58.1777 127.496 57.9512 127.621C57.7285 127.746 57.541 127.918 57.3887 128.137C57.2402 128.352 57.1289 128.6 57.0547 128.881C56.9805 129.158 56.9434 129.453 56.9434 129.766ZM64.0742 128.014V133H62.9902V126.66H64.0156L64.0742 128.014ZM63.8164 129.59L63.3652 129.572C63.3691 129.139 63.4336 128.738 63.5586 128.371C63.6836 128 63.8594 127.678 64.0859 127.404C64.3125 127.131 64.582 126.92 64.8945 126.771C65.2109 126.619 65.5605 126.543 65.9434 126.543C66.2559 126.543 66.5371 126.586 66.7871 126.672C67.0371 126.754 67.25 126.887 67.4258 127.07C67.6055 127.254 67.7422 127.492 67.8359 127.785C67.9297 128.074 67.9766 128.428 67.9766 128.846V133H66.8867V128.834C66.8867 128.502 66.8379 128.236 66.7402 128.037C66.6426 127.834 66.5 127.688 66.3125 127.598C66.125 127.504 65.8945 127.457 65.6211 127.457C65.3516 127.457 65.1055 127.514 64.8828 127.627C64.6641 127.74 64.4746 127.896 64.3145 128.096C64.1582 128.295 64.0352 128.523 63.9453 128.781C63.8594 129.035 63.8164 129.305 63.8164 129.59Z" fill="black"/>
<rect x="100.5" y="214.5" width="79" height="29" rx="14.5" stroke="black" stroke-dasharray="4 4"/>
<path d="M130.174 225.225L127.35 233H126.195L129.447 224.469H130.191L130.174 225.225ZM132.541 233L129.711 225.225L129.693 224.469H130.438L133.701 233H132.541ZM132.395 229.842V230.768H127.602V229.842H132.395ZM135.857 224V233H134.768V224H135.857ZM141.594 231.77V224H142.684V233H141.688L141.594 231.77ZM137.328 229.9V229.777C137.328 229.293 137.387 228.854 137.504 228.459C137.625 228.061 137.795 227.719 138.014 227.434C138.236 227.148 138.5 226.93 138.805 226.777C139.113 226.621 139.457 226.543 139.836 226.543C140.234 226.543 140.582 226.613 140.879 226.754C141.18 226.891 141.434 227.092 141.641 227.357C141.852 227.619 142.018 227.936 142.139 228.307C142.26 228.678 142.344 229.098 142.391 229.566V230.105C142.348 230.57 142.264 230.988 142.139 231.359C142.018 231.73 141.852 232.047 141.641 232.309C141.434 232.57 141.18 232.771 140.879 232.912C140.578 233.049 140.227 233.117 139.824 233.117C139.453 233.117 139.113 233.037 138.805 232.877C138.5 232.717 138.236 232.492 138.014 232.203C137.795 231.914 137.625 231.574 137.504 231.184C137.387 230.789 137.328 230.361 137.328 229.9ZM138.418 229.777V229.9C138.418 230.217 138.449 230.514 138.512 230.791C138.578 231.068 138.68 231.312 138.816 231.523C138.953 231.734 139.127 231.9 139.338 232.021C139.549 232.139 139.801 232.197 140.094 232.197C140.453 232.197 140.748 232.121 140.979 231.969C141.213 231.816 141.4 231.615 141.541 231.365C141.682 231.115 141.791 230.844 141.869 230.551V229.139C141.822 228.924 141.754 228.717 141.664 228.518C141.578 228.314 141.465 228.135 141.324 227.979C141.188 227.818 141.018 227.691 140.814 227.598C140.615 227.504 140.379 227.457 140.105 227.457C139.809 227.457 139.553 227.52 139.338 227.645C139.127 227.766 138.953 227.934 138.816 228.148C138.68 228.359 138.578 228.605 138.512 228.887C138.449 229.164 138.418 229.461 138.418 229.777ZM147.002 233.117C146.561 233.117 146.16 233.043 145.801 232.895C145.445 232.742 145.139 232.529 144.881 232.256C144.627 231.982 144.432 231.658 144.295 231.283C144.158 230.908 144.09 230.498 144.09 230.053V229.807C144.09 229.291 144.166 228.832 144.318 228.43C144.471 228.023 144.678 227.68 144.939 227.398C145.201 227.117 145.498 226.904 145.83 226.76C146.162 226.615 146.506 226.543 146.861 226.543C147.314 226.543 147.705 226.621 148.033 226.777C148.365 226.934 148.637 227.152 148.848 227.434C149.059 227.711 149.215 228.039 149.316 228.418C149.418 228.793 149.469 229.203 149.469 229.648V230.135H144.734V229.25H148.385V229.168C148.369 228.887 148.311 228.613 148.209 228.348C148.111 228.082 147.955 227.863 147.74 227.691C147.525 227.52 147.232 227.434 146.861 227.434C146.615 227.434 146.389 227.486 146.182 227.592C145.975 227.693 145.797 227.846 145.648 228.049C145.5 228.252 145.385 228.5 145.303 228.793C145.221 229.086 145.18 229.424 145.18 229.807V230.053C145.18 230.354 145.221 230.637 145.303 230.902C145.389 231.164 145.512 231.395 145.672 231.594C145.836 231.793 146.033 231.949 146.264 232.062C146.498 232.176 146.764 232.232 147.061 232.232C147.443 232.232 147.768 232.154 148.033 231.998C148.299 231.842 148.531 231.633 148.73 231.371L149.387 231.893C149.25 232.1 149.076 232.297 148.865 232.484C148.654 232.672 148.395 232.824 148.086 232.941C147.781 233.059 147.42 233.117 147.002 233.117ZM151.818 227.656V233H150.734V226.66H151.789L151.818 227.656ZM153.799 226.625L153.793 227.633C153.703 227.613 153.617 227.602 153.535 227.598C153.457 227.59 153.367 227.586 153.266 227.586C153.016 227.586 152.795 227.625 152.604 227.703C152.412 227.781 152.25 227.891 152.117 228.031C151.984 228.172 151.879 228.34 151.801 228.535C151.727 228.727 151.678 228.938 151.654 229.168L151.35 229.344C151.35 228.961 151.387 228.602 151.461 228.266C151.539 227.93 151.658 227.633 151.818 227.375C151.979 227.113 152.182 226.91 152.428 226.766C152.678 226.617 152.975 226.543 153.318 226.543C153.396 226.543 153.486 226.553 153.588 226.572C153.689 226.588 153.76 226.605 153.799 226.625Z" fill="black"/>
<rect x="100.5" y="15.5" width="79" height="29" rx="14.5" stroke="black"/>
<path d="M135.279 30.6543H133V29.7344H135.279C135.721 29.7344 136.078 29.6641 136.352 29.5234C136.625 29.3828 136.824 29.1875 136.949 28.9375C137.078 28.6875 137.143 28.4023 137.143 28.082C137.143 27.7891 137.078 27.5137 136.949 27.2559C136.824 26.998 136.625 26.791 136.352 26.6348C136.078 26.4746 135.721 26.3945 135.279 26.3945H133.264V34H132.133V25.4688H135.279C135.924 25.4688 136.469 25.5801 136.914 25.8027C137.359 26.0254 137.697 26.334 137.928 26.7285C138.158 27.1191 138.273 27.5664 138.273 28.0703C138.273 28.6172 138.158 29.084 137.928 29.4707C137.697 29.8574 137.359 30.1523 136.914 30.3555C136.469 30.5547 135.924 30.6543 135.279 30.6543ZM140.916 25.4688V34H139.785V25.4688H140.916ZM145.281 34H143.5L143.512 33.0801H145.281C145.891 33.0801 146.398 32.9531 146.805 32.6992C147.211 32.4414 147.516 32.082 147.719 31.6211C147.926 31.1562 148.029 30.6133 148.029 29.9922V29.4707C148.029 28.9824 147.971 28.5488 147.854 28.1699C147.736 27.7871 147.564 27.4648 147.338 27.2031C147.111 26.9375 146.834 26.7363 146.506 26.5996C146.182 26.4629 145.809 26.3945 145.387 26.3945H143.465V25.4688H145.387C145.945 25.4688 146.455 25.5625 146.916 25.75C147.377 25.9336 147.773 26.2012 148.105 26.5527C148.441 26.9004 148.699 27.3223 148.879 27.8184C149.059 28.3105 149.148 28.8652 149.148 29.4824V29.9922C149.148 30.6094 149.059 31.166 148.879 31.6621C148.699 32.1543 148.439 32.5742 148.1 32.9219C147.764 33.2695 147.357 33.5371 146.881 33.7246C146.408 33.9082 145.875 34 145.281 34ZM144.104 25.4688V34H142.973V25.4688H144.104Z" fill="black"/>
<path d="M131.143 35.1719H149.857V35.7578H131.143V35.1719Z" fill="black"/>
<rect x="150.5" y="64.5" width="79" height="29" rx="14.5" stroke="black"/>
<rect x="153.5" y="66.5" width="73" height="25" rx="12.5" stroke="black"/>
<path d="M181.201 74.4688V83H180.088V74.4688H181.201ZM183.943 74.4688V75.3945H177.352V74.4688H183.943ZM186.223 74V83H185.133V74H186.223ZM189.58 83H188.496V75.9922C188.496 75.5352 188.578 75.1504 188.742 74.8379C188.91 74.5215 189.15 74.2832 189.463 74.123C189.775 73.959 190.146 73.877 190.576 73.877C190.701 73.877 190.826 73.8848 190.951 73.9004C191.08 73.916 191.205 73.9395 191.326 73.9707L191.268 74.8555C191.186 74.8359 191.092 74.8223 190.986 74.8145C190.885 74.8066 190.783 74.8027 190.682 74.8027C190.451 74.8027 190.252 74.8496 190.084 74.9434C189.92 75.0332 189.795 75.166 189.709 75.3418C189.623 75.5176 189.58 75.7344 189.58 75.9922V83ZM190.928 76.6602V77.4922H187.494V76.6602H190.928ZM198.861 74.4688V83H197.725L193.43 76.4199V83H192.299V74.4688H193.43L197.742 81.0664V74.4688H198.861ZM201.785 77.6562V83H200.701V76.6602H201.756L201.785 77.6562ZM203.766 76.625L203.76 77.6328C203.67 77.6133 203.584 77.6016 203.502 77.5977C203.424 77.5898 203.334 77.5859 203.232 77.5859C202.982 77.5859 202.762 77.625 202.57 77.7031C202.379 77.7812 202.217 77.8906 202.084 78.0312C201.951 78.1719 201.846 78.3398 201.768 78.5352C201.693 78.7266 201.645 78.9375 201.621 79.168L201.316 79.3438C201.316 78.9609 201.354 78.6016 201.428 78.2656C201.506 77.9297 201.625 77.6328 201.785 77.375C201.945 77.1133 202.148 76.9102 202.395 76.7656C202.645 76.6172 202.941 76.543 203.285 76.543C203.363 76.543 203.453 76.5527 203.555 76.5723C203.656 76.5879 203.727 76.6055 203.766 76.625Z" fill="black"/>
<rect x="10.5" y="0.5" width="79" height="29" rx="14.5" stroke="black"/>
<path d="M43.8301 10.4688V19H42.6934L38.3984 12.4199V19H37.2676V10.4688H38.3984L42.7109 17.0664V10.4688H43.8301ZM49.4082 17.916V14.6523C49.4082 14.4023 49.3574 14.1855 49.2559 14.002C49.1582 13.8145 49.0098 13.6699 48.8105 13.5684C48.6113 13.4668 48.3652 13.416 48.0723 13.416C47.7988 13.416 47.5586 13.4629 47.3516 13.5566C47.1484 13.6504 46.9883 13.7734 46.8711 13.9258C46.7578 14.0781 46.7012 14.2422 46.7012 14.418H45.6172C45.6172 14.1914 45.6758 13.9668 45.793 13.7441C45.9102 13.5215 46.0781 13.3203 46.2969 13.1406C46.5195 12.957 46.7852 12.8125 47.0938 12.707C47.4062 12.5977 47.7539 12.543 48.1367 12.543C48.5977 12.543 49.0039 12.6211 49.3555 12.7773C49.7109 12.9336 49.9883 13.1699 50.1875 13.4863C50.3906 13.7988 50.4922 14.1914 50.4922 14.6641V17.6172C50.4922 17.8281 50.5098 18.0527 50.5449 18.291C50.584 18.5293 50.6406 18.7344 50.7148 18.9062V19H49.584C49.5293 18.875 49.4863 18.709 49.4551 18.502C49.4238 18.291 49.4082 18.0957 49.4082 17.916ZM49.5957 15.1562L49.6074 15.918H48.5117C48.2031 15.918 47.9277 15.9434 47.6855 15.9941C47.4434 16.041 47.2402 16.1133 47.0762 16.2109C46.9121 16.3086 46.7871 16.4316 46.7012 16.5801C46.6152 16.7246 46.5723 16.8945 46.5723 17.0898C46.5723 17.2891 46.6172 17.4707 46.707 17.6348C46.7969 17.7988 46.9316 17.9297 47.1113 18.0273C47.2949 18.1211 47.5195 18.168 47.7852 18.168C48.1172 18.168 48.4102 18.0977 48.6641 17.957C48.918 17.8164 49.1191 17.6445 49.2676 17.4414C49.4199 17.2383 49.502 17.041 49.5137 16.8496L49.9766 17.3711C49.9492 17.5352 49.875 17.7168 49.7539 17.916C49.6328 18.1152 49.4707 18.3066 49.2676 18.4902C49.0684 18.6699 48.8301 18.8203 48.5527 18.9414C48.2793 19.0586 47.9707 19.1172 47.627 19.1172C47.1973 19.1172 46.8203 19.0332 46.4961 18.8652C46.1758 18.6973 45.9258 18.4727 45.7461 18.1914C45.5703 17.9062 45.4824 17.5879 45.4824 17.2363C45.4824 16.8965 45.5488 16.5977 45.6816 16.3398C45.8145 16.0781 46.0059 15.8613 46.2559 15.6895C46.5059 15.5137 46.8066 15.3809 47.1582 15.291C47.5098 15.2012 47.9023 15.1562 48.3359 15.1562H49.5957ZM54.0312 18.0215L55.7656 12.6602H56.873L54.5938 19H53.8672L54.0312 18.0215ZM52.584 12.6602L54.3711 18.0508L54.4941 19H53.7676L51.4707 12.6602H52.584ZM59 14.0137V19H57.916V12.6602H58.9414L59 14.0137ZM58.7422 15.5898L58.291 15.5723C58.2949 15.1387 58.3594 14.7383 58.4844 14.3711C58.6094 14 58.7852 13.6777 59.0117 13.4043C59.2383 13.1309 59.5078 12.9199 59.8203 12.7715C60.1367 12.6191 60.4863 12.543 60.8691 12.543C61.1816 12.543 61.4629 12.5859 61.7129 12.6719C61.9629 12.7539 62.1758 12.8867 62.3516 13.0703C62.5312 13.2539 62.668 13.4922 62.7617 13.7852C62.8555 14.0742 62.9023 14.4277 62.9023 14.8457V19H61.8125V14.834C61.8125 14.502 61.7637 14.2363 61.666 14.0371C61.5684 13.834 61.4258 13.6875 61.2383 13.5977C61.0508 13.5039 60.8203 13.457 60.5469 13.457C60.2773 13.457 60.0312 13.5137 59.8086 13.627C59.5898 13.7402 59.4004 13.8965 59.2402 14.0957C59.084 14.2949 58.9609 14.5234 58.8711 14.7812C58.7852 15.0352 58.7422 15.3047 58.7422 15.5898Z" fill="black"/>
<rect x="150.5" y="164.5" width="79" height="29" rx="14.5" stroke="black"/>
<path d="M159.197 174.469V183H158.066V174.469H159.197ZM162.771 178.307V179.232H158.951V178.307H162.771ZM163.352 174.469V175.395H158.951V174.469H163.352ZM169.469 175.916L165.584 183.791H164.863L168.748 175.916H169.469ZM164.248 179.9V179.766C164.248 179.309 164.314 178.885 164.447 178.494C164.58 178.1 164.771 177.758 165.021 177.469C165.271 177.176 165.574 176.949 165.93 176.789C166.285 176.625 166.684 176.543 167.125 176.543C167.57 176.543 167.971 176.625 168.326 176.789C168.686 176.949 168.99 177.176 169.24 177.469C169.49 177.758 169.682 178.1 169.814 178.494C169.947 178.885 170.014 179.309 170.014 179.766V179.9C170.014 180.357 169.947 180.781 169.814 181.172C169.682 181.562 169.49 181.904 169.24 182.197C168.99 182.486 168.688 182.713 168.332 182.877C167.98 183.037 167.582 183.117 167.137 183.117C166.691 183.117 166.291 183.037 165.936 182.877C165.58 182.713 165.275 182.486 165.021 182.197C164.771 181.904 164.58 181.562 164.447 181.172C164.314 180.781 164.248 180.357 164.248 179.9ZM165.332 179.766V179.9C165.332 180.217 165.369 180.516 165.443 180.797C165.518 181.074 165.629 181.32 165.777 181.535C165.93 181.75 166.119 181.92 166.346 182.045C166.572 182.166 166.836 182.227 167.137 182.227C167.434 182.227 167.693 182.166 167.916 182.045C168.143 181.92 168.33 181.75 168.479 181.535C168.627 181.32 168.738 181.074 168.812 180.797C168.891 180.516 168.93 180.217 168.93 179.9V179.766C168.93 179.453 168.891 179.158 168.812 178.881C168.738 178.6 168.625 178.352 168.473 178.137C168.324 177.918 168.137 177.746 167.91 177.621C167.688 177.496 167.426 177.434 167.125 177.434C166.828 177.434 166.566 177.496 166.34 177.621C166.117 177.746 165.93 177.918 165.777 178.137C165.629 178.352 165.518 178.6 165.443 178.881C165.369 179.158 165.332 179.453 165.332 179.766ZM175.34 181.77V174H176.43V183H175.434L175.34 181.77ZM171.074 179.9V179.777C171.074 179.293 171.133 178.854 171.25 178.459C171.371 178.061 171.541 177.719 171.76 177.434C171.982 177.148 172.246 176.93 172.551 176.777C172.859 176.621 173.203 176.543 173.582 176.543C173.98 176.543 174.328 176.613 174.625 176.754C174.926 176.891 175.18 177.092 175.387 177.357C175.598 177.619 175.764 177.936 175.885 178.307C176.006 178.678 176.09 179.098 176.137 179.566V180.105C176.094 180.57 176.01 180.988 175.885 181.359C175.764 181.73 175.598 182.047 175.387 182.309C175.18 182.57 174.926 182.771 174.625 182.912C174.324 183.049 173.973 183.117 173.57 183.117C173.199 183.117 172.859 183.037 172.551 182.877C172.246 182.717 171.982 182.492 171.76 182.203C171.541 181.914 171.371 181.574 171.25 181.184C171.133 180.789 171.074 180.361 171.074 179.9ZM172.164 179.777V179.9C172.164 180.217 172.195 180.514 172.258 180.791C172.324 181.068 172.426 181.312 172.562 181.523C172.699 181.734 172.873 181.9 173.084 182.021C173.295 182.139 173.547 182.197 173.84 182.197C174.199 182.197 174.494 182.121 174.725 181.969C174.959 181.816 175.146 181.615 175.287 181.365C175.428 181.115 175.537 180.844 175.615 180.551V179.139C175.568 178.924 175.5 178.717 175.41 178.518C175.324 178.314 175.211 178.135 175.07 177.979C174.934 177.818 174.764 177.691 174.561 177.598C174.361 177.504 174.125 177.457 173.852 177.457C173.555 177.457 173.299 177.52 173.084 177.645C172.873 177.766 172.699 177.934 172.562 178.148C172.426 178.359 172.324 178.605 172.258 178.887C172.195 179.164 172.164 179.461 172.164 179.777ZM181.809 181.318C181.809 181.162 181.773 181.018 181.703 180.885C181.637 180.748 181.498 180.625 181.287 180.516C181.08 180.402 180.768 180.305 180.35 180.223C179.998 180.148 179.68 180.061 179.395 179.959C179.113 179.857 178.873 179.734 178.674 179.59C178.479 179.445 178.328 179.275 178.223 179.08C178.117 178.885 178.064 178.656 178.064 178.395C178.064 178.145 178.119 177.908 178.229 177.686C178.342 177.463 178.5 177.266 178.703 177.094C178.91 176.922 179.158 176.787 179.447 176.689C179.736 176.592 180.059 176.543 180.414 176.543C180.922 176.543 181.355 176.633 181.715 176.812C182.074 176.992 182.35 177.232 182.541 177.533C182.732 177.83 182.828 178.16 182.828 178.523H181.744C181.744 178.348 181.691 178.178 181.586 178.014C181.484 177.846 181.334 177.707 181.135 177.598C180.939 177.488 180.699 177.434 180.414 177.434C180.113 177.434 179.869 177.48 179.682 177.574C179.498 177.664 179.363 177.779 179.277 177.92C179.195 178.061 179.154 178.209 179.154 178.365C179.154 178.482 179.174 178.588 179.213 178.682C179.256 178.771 179.33 178.855 179.436 178.934C179.541 179.008 179.689 179.078 179.881 179.145C180.072 179.211 180.316 179.277 180.613 179.344C181.133 179.461 181.561 179.602 181.896 179.766C182.232 179.93 182.482 180.131 182.646 180.369C182.811 180.607 182.893 180.896 182.893 181.236C182.893 181.514 182.834 181.768 182.717 181.998C182.604 182.229 182.438 182.428 182.219 182.596C182.004 182.76 181.746 182.889 181.445 182.982C181.148 183.072 180.814 183.117 180.443 183.117C179.885 183.117 179.412 183.018 179.025 182.818C178.639 182.619 178.346 182.361 178.146 182.045C177.947 181.729 177.848 181.395 177.848 181.043H178.938C178.953 181.34 179.039 181.576 179.195 181.752C179.352 181.924 179.543 182.047 179.77 182.121C179.996 182.191 180.221 182.227 180.443 182.227C180.74 182.227 180.988 182.188 181.188 182.109C181.391 182.031 181.545 181.924 181.65 181.787C181.756 181.65 181.809 181.494 181.809 181.318ZM186.947 183.117C186.506 183.117 186.105 183.043 185.746 182.895C185.391 182.742 185.084 182.529 184.826 182.256C184.572 181.982 184.377 181.658 184.24 181.283C184.104 180.908 184.035 180.498 184.035 180.053V179.807C184.035 179.291 184.111 178.832 184.264 178.43C184.416 178.023 184.623 177.68 184.885 177.398C185.146 177.117 185.443 176.904 185.775 176.76C186.107 176.615 186.451 176.543 186.807 176.543C187.26 176.543 187.65 176.621 187.979 176.777C188.311 176.934 188.582 177.152 188.793 177.434C189.004 177.711 189.16 178.039 189.262 178.418C189.363 178.793 189.414 179.203 189.414 179.648V180.135H184.68V179.25H188.33V179.168C188.314 178.887 188.256 178.613 188.154 178.348C188.057 178.082 187.9 177.863 187.686 177.691C187.471 177.52 187.178 177.434 186.807 177.434C186.561 177.434 186.334 177.486 186.127 177.592C185.92 177.693 185.742 177.846 185.594 178.049C185.445 178.252 185.33 178.5 185.248 178.793C185.166 179.086 185.125 179.424 185.125 179.807V180.053C185.125 180.354 185.166 180.637 185.248 180.902C185.334 181.164 185.457 181.395 185.617 181.594C185.781 181.793 185.979 181.949 186.209 182.062C186.443 182.176 186.709 182.232 187.006 182.232C187.389 182.232 187.713 182.154 187.979 181.998C188.244 181.842 188.477 181.633 188.676 181.371L189.332 181.893C189.195 182.1 189.021 182.297 188.811 182.484C188.6 182.672 188.34 182.824 188.031 182.941C187.727 183.059 187.365 183.117 186.947 183.117ZM191.857 174V183H190.768V174H191.857ZM197.289 181.318C197.289 181.162 197.254 181.018 197.184 180.885C197.117 180.748 196.979 180.625 196.768 180.516C196.561 180.402 196.248 180.305 195.83 180.223C195.479 180.148 195.16 180.061 194.875 179.959C194.594 179.857 194.354 179.734 194.154 179.59C193.959 179.445 193.809 179.275 193.703 179.08C193.598 178.885 193.545 178.656 193.545 178.395C193.545 178.145 193.6 177.908 193.709 177.686C193.822 177.463 193.98 177.266 194.184 177.094C194.391 176.922 194.639 176.787 194.928 176.689C195.217 176.592 195.539 176.543 195.895 176.543C196.402 176.543 196.836 176.633 197.195 176.812C197.555 176.992 197.83 177.232 198.021 177.533C198.213 177.83 198.309 178.16 198.309 178.523H197.225C197.225 178.348 197.172 178.178 197.066 178.014C196.965 177.846 196.814 177.707 196.615 177.598C196.42 177.488 196.18 177.434 195.895 177.434C195.594 177.434 195.35 177.48 195.162 177.574C194.979 177.664 194.844 177.779 194.758 177.92C194.676 178.061 194.635 178.209 194.635 178.365C194.635 178.482 194.654 178.588 194.693 178.682C194.736 178.771 194.811 178.855 194.916 178.934C195.021 179.008 195.17 179.078 195.361 179.145C195.553 179.211 195.797 179.277 196.094 179.344C196.613 179.461 197.041 179.602 197.377 179.766C197.713 179.93 197.963 180.131 198.127 180.369C198.291 180.607 198.373 180.896 198.373 181.236C198.373 181.514 198.314 181.768 198.197 181.998C198.084 182.229 197.918 182.428 197.699 182.596C197.484 182.76 197.227 182.889 196.926 182.982C196.629 183.072 196.295 183.117 195.924 183.117C195.365 183.117 194.893 183.018 194.506 182.818C194.119 182.619 193.826 182.361 193.627 182.045C193.428 181.729 193.328 181.395 193.328 181.043H194.418C194.434 181.34 194.52 181.576 194.676 181.752C194.832 181.924 195.023 182.047 195.25 182.121C195.477 182.191 195.701 182.227 195.924 182.227C196.221 182.227 196.469 182.188 196.668 182.109C196.871 182.031 197.025 181.924 197.131 181.787C197.236 181.65 197.289 181.494 197.289 181.318ZM203.793 181.77V174H204.883V183H203.887L203.793 181.77ZM199.527 179.9V179.777C199.527 179.293 199.586 178.854 199.703 178.459C199.824 178.061 199.994 177.719 200.213 177.434C200.436 177.148 200.699 176.93 201.004 176.777C201.312 176.621 201.656 176.543 202.035 176.543C202.434 176.543 202.781 176.613 203.078 176.754C203.379 176.891 203.633 177.092 203.84 177.357C204.051 177.619 204.217 177.936 204.338 178.307C204.459 178.678 204.543 179.098 204.59 179.566V180.105C204.547 180.57 204.463 180.988 204.338 181.359C204.217 181.73 204.051 182.047 203.84 182.309C203.633 182.57 203.379 182.771 203.078 182.912C202.777 183.049 202.426 183.117 202.023 183.117C201.652 183.117 201.312 183.037 201.004 182.877C200.699 182.717 200.436 182.492 200.213 182.203C199.994 181.914 199.824 181.574 199.703 181.184C199.586 180.789 199.527 180.361 199.527 179.9ZM200.617 179.777V179.9C200.617 180.217 200.648 180.514 200.711 180.791C200.777 181.068 200.879 181.312 201.016 181.523C201.152 181.734 201.326 181.9 201.537 182.021C201.748 182.139 202 182.197 202.293 182.197C202.652 182.197 202.947 182.121 203.178 181.969C203.412 181.816 203.6 181.615 203.74 181.365C203.881 181.115 203.99 180.844 204.068 180.551V179.139C204.021 178.924 203.953 178.717 203.863 178.518C203.777 178.314 203.664 178.135 203.523 177.979C203.387 177.818 203.217 177.691 203.014 177.598C202.814 177.504 202.578 177.457 202.305 177.457C202.008 177.457 201.752 177.52 201.537 177.645C201.326 177.766 201.152 177.934 201.016 178.148C200.879 178.359 200.777 178.605 200.711 178.887C200.648 179.164 200.617 179.461 200.617 179.777ZM210.309 181.916V178.652C210.309 178.402 210.258 178.186 210.156 178.002C210.059 177.814 209.91 177.67 209.711 177.568C209.512 177.467 209.266 177.416 208.973 177.416C208.699 177.416 208.459 177.463 208.252 177.557C208.049 177.65 207.889 177.773 207.771 177.926C207.658 178.078 207.602 178.242 207.602 178.418H206.518C206.518 178.191 206.576 177.967 206.693 177.744C206.811 177.521 206.979 177.32 207.197 177.141C207.42 176.957 207.686 176.812 207.994 176.707C208.307 176.598 208.654 176.543 209.037 176.543C209.498 176.543 209.904 176.621 210.256 176.777C210.611 176.934 210.889 177.17 211.088 177.486C211.291 177.799 211.393 178.191 211.393 178.664V181.617C211.393 181.828 211.41 182.053 211.445 182.291C211.484 182.529 211.541 182.734 211.615 182.906V183H210.484C210.43 182.875 210.387 182.709 210.355 182.502C210.324 182.291 210.309 182.096 210.309 181.916ZM210.496 179.156L210.508 179.918H209.412C209.104 179.918 208.828 179.943 208.586 179.994C208.344 180.041 208.141 180.113 207.977 180.211C207.812 180.309 207.688 180.432 207.602 180.58C207.516 180.725 207.473 180.895 207.473 181.09C207.473 181.289 207.518 181.471 207.607 181.635C207.697 181.799 207.832 181.93 208.012 182.027C208.195 182.121 208.42 182.168 208.686 182.168C209.018 182.168 209.311 182.098 209.564 181.957C209.818 181.816 210.02 181.645 210.168 181.441C210.32 181.238 210.402 181.041 210.414 180.85L210.877 181.371C210.85 181.535 210.775 181.717 210.654 181.916C210.533 182.115 210.371 182.307 210.168 182.49C209.969 182.67 209.73 182.82 209.453 182.941C209.18 183.059 208.871 183.117 208.527 183.117C208.098 183.117 207.721 183.033 207.396 182.865C207.076 182.697 206.826 182.473 206.646 182.191C206.471 181.906 206.383 181.588 206.383 181.236C206.383 180.896 206.449 180.598 206.582 180.34C206.715 180.078 206.906 179.861 207.156 179.689C207.406 179.514 207.707 179.381 208.059 179.291C208.41 179.201 208.803 179.156 209.236 179.156H210.496ZM215.752 176.66V177.492H212.324V176.66H215.752ZM213.484 175.119H214.568V181.43C214.568 181.645 214.602 181.807 214.668 181.916C214.734 182.025 214.82 182.098 214.926 182.133C215.031 182.168 215.145 182.186 215.266 182.186C215.355 182.186 215.449 182.178 215.547 182.162C215.648 182.143 215.725 182.127 215.775 182.115L215.781 183C215.695 183.027 215.582 183.053 215.441 183.076C215.305 183.104 215.139 183.117 214.943 183.117C214.678 183.117 214.434 183.064 214.211 182.959C213.988 182.854 213.811 182.678 213.678 182.432C213.549 182.182 213.484 181.846 213.484 181.424V175.119ZM216.619 179.9V179.766C216.619 179.309 216.686 178.885 216.818 178.494C216.951 178.1 217.143 177.758 217.393 177.469C217.643 177.176 217.945 176.949 218.301 176.789C218.656 176.625 219.055 176.543 219.496 176.543C219.941 176.543 220.342 176.625 220.697 176.789C221.057 176.949 221.361 177.176 221.611 177.469C221.865 177.758 222.059 178.1 222.191 178.494C222.324 178.885 222.391 179.309 222.391 179.766V179.9C222.391 180.357 222.324 180.781 222.191 181.172C222.059 181.562 221.865 181.904 221.611 182.197C221.361 182.486 221.059 182.713 220.703 182.877C220.352 183.037 219.953 183.117 219.508 183.117C219.062 183.117 218.662 183.037 218.307 182.877C217.951 182.713 217.646 182.486 217.393 182.197C217.143 181.904 216.951 181.562 216.818 181.172C216.686 180.781 216.619 180.357 216.619 179.9ZM217.703 179.766V179.9C217.703 180.217 217.74 180.516 217.814 180.797C217.889 181.074 218 181.32 218.148 181.535C218.301 181.75 218.49 181.92 218.717 182.045C218.943 182.166 219.207 182.227 219.508 182.227C219.805 182.227 220.064 182.166 220.287 182.045C220.514 181.92 220.701 181.75 220.85 181.535C220.998 181.32 221.109 181.074 221.184 180.797C221.262 180.516 221.301 180.217 221.301 179.9V179.766C221.301 179.453 221.262 179.158 221.184 178.881C221.109 178.6 220.996 178.352 220.844 178.137C220.695 177.918 220.508 177.746 220.281 177.621C220.059 177.496 219.797 177.434 219.496 177.434C219.199 177.434 218.938 177.496 218.711 177.621C218.488 177.746 218.301 177.918 218.148 178.137C218 178.352 217.889 178.6 217.814 178.881C217.74 179.158 217.703 179.453 217.703 179.766Z" fill="black"/>
<path d="M50 179L100 229" stroke="black"/>
<rect x="280.5" y="114.5" width="79" height="29" rx="14.5" stroke="black"/>
<path d="M312.729 133H310.947L310.959 132.08H312.729C313.338 132.08 313.846 131.953 314.252 131.699C314.658 131.441 314.963 131.082 315.166 130.621C315.373 130.156 315.477 129.613 315.477 128.992V128.471C315.477 127.982 315.418 127.549 315.301 127.17C315.184 126.787 315.012 126.465 314.785 126.203C314.559 125.938 314.281 125.736 313.953 125.6C313.629 125.463 313.256 125.395 312.834 125.395H310.912V124.469H312.834C313.393 124.469 313.902 124.562 314.363 124.75C314.824 124.934 315.221 125.201 315.553 125.553C315.889 125.9 316.146 126.322 316.326 126.818C316.506 127.311 316.596 127.865 316.596 128.482V128.992C316.596 129.609 316.506 130.166 316.326 130.662C316.146 131.154 315.887 131.574 315.547 131.922C315.211 132.27 314.805 132.537 314.328 132.725C313.855 132.908 313.322 133 312.729 133ZM311.551 124.469V133H310.42V124.469H311.551ZM321.869 131.916V128.652C321.869 128.402 321.818 128.186 321.717 128.002C321.619 127.814 321.471 127.67 321.271 127.568C321.072 127.467 320.826 127.416 320.533 127.416C320.26 127.416 320.02 127.463 319.812 127.557C319.609 127.65 319.449 127.773 319.332 127.926C319.219 128.078 319.162 128.242 319.162 128.418H318.078C318.078 128.191 318.137 127.967 318.254 127.744C318.371 127.521 318.539 127.32 318.758 127.141C318.98 126.957 319.246 126.812 319.555 126.707C319.867 126.598 320.215 126.543 320.598 126.543C321.059 126.543 321.465 126.621 321.816 126.777C322.172 126.934 322.449 127.17 322.648 127.486C322.852 127.799 322.953 128.191 322.953 128.664V131.617C322.953 131.828 322.971 132.053 323.006 132.291C323.045 132.529 323.102 132.734 323.176 132.906V133H322.045C321.99 132.875 321.947 132.709 321.916 132.502C321.885 132.291 321.869 132.096 321.869 131.916ZM322.057 129.156L322.068 129.918H320.973C320.664 129.918 320.389 129.943 320.146 129.994C319.904 130.041 319.701 130.113 319.537 130.211C319.373 130.309 319.248 130.432 319.162 130.58C319.076 130.725 319.033 130.895 319.033 131.09C319.033 131.289 319.078 131.471 319.168 131.635C319.258 131.799 319.393 131.93 319.572 132.027C319.756 132.121 319.98 132.168 320.246 132.168C320.578 132.168 320.871 132.098 321.125 131.957C321.379 131.816 321.58 131.645 321.729 131.441C321.881 131.238 321.963 131.041 321.975 130.85L322.438 131.371C322.41 131.535 322.336 131.717 322.215 131.916C322.094 132.115 321.932 132.307 321.729 132.49C321.529 132.67 321.291 132.82 321.014 132.941C320.74 133.059 320.432 133.117 320.088 133.117C319.658 133.117 319.281 133.033 318.957 132.865C318.637 132.697 318.387 132.473 318.207 132.191C318.031 131.906 317.943 131.588 317.943 131.236C317.943 130.896 318.01 130.598 318.143 130.34C318.275 130.078 318.467 129.861 318.717 129.689C318.967 129.514 319.268 129.381 319.619 129.291C319.971 129.201 320.363 129.156 320.797 129.156H322.057ZM328.766 126.66H329.75V132.865C329.75 133.424 329.637 133.9 329.41 134.295C329.184 134.689 328.867 134.988 328.461 135.191C328.059 135.398 327.594 135.502 327.066 135.502C326.848 135.502 326.59 135.467 326.293 135.396C326 135.33 325.711 135.215 325.426 135.051C325.145 134.891 324.908 134.674 324.717 134.4L325.285 133.756C325.551 134.076 325.828 134.299 326.117 134.424C326.41 134.549 326.699 134.611 326.984 134.611C327.328 134.611 327.625 134.547 327.875 134.418C328.125 134.289 328.318 134.098 328.455 133.844C328.596 133.594 328.666 133.285 328.666 132.918V128.055L328.766 126.66ZM324.4 129.9V129.777C324.4 129.293 324.457 128.854 324.57 128.459C324.688 128.061 324.854 127.719 325.068 127.434C325.287 127.148 325.551 126.93 325.859 126.777C326.168 126.621 326.516 126.543 326.902 126.543C327.301 126.543 327.648 126.613 327.945 126.754C328.246 126.891 328.5 127.092 328.707 127.357C328.918 127.619 329.084 127.936 329.205 128.307C329.326 128.678 329.41 129.098 329.457 129.566V130.105C329.414 130.57 329.33 130.988 329.205 131.359C329.084 131.73 328.918 132.047 328.707 132.309C328.5 132.57 328.246 132.771 327.945 132.912C327.645 133.049 327.293 133.117 326.891 133.117C326.512 133.117 326.168 133.037 325.859 132.877C325.555 132.717 325.293 132.492 325.074 132.203C324.855 131.914 324.688 131.574 324.57 131.184C324.457 130.789 324.4 130.361 324.4 129.9ZM325.484 129.777V129.9C325.484 130.217 325.516 130.514 325.578 130.791C325.645 131.068 325.744 131.312 325.877 131.523C326.014 131.734 326.188 131.9 326.398 132.021C326.609 132.139 326.861 132.197 327.154 132.197C327.514 132.197 327.811 132.121 328.045 131.969C328.279 131.816 328.465 131.615 328.602 131.365C328.742 131.115 328.852 130.844 328.93 130.551V129.139C328.887 128.924 328.82 128.717 328.73 128.518C328.645 128.314 328.531 128.135 328.391 127.979C328.254 127.818 328.084 127.691 327.881 127.598C327.678 127.504 327.439 127.457 327.166 127.457C326.869 127.457 326.613 127.52 326.398 127.645C326.188 127.766 326.014 127.934 325.877 128.148C325.744 128.359 325.645 128.605 325.578 128.887C325.516 129.164 325.484 129.461 325.484 129.777Z" fill="black"/>
<rect x="280.5" y="164.5" width="79" height="29" rx="14.5" stroke="black"/>
<path d="M303.461 174.469H304.557L307.352 181.424L310.141 174.469H311.242L307.773 183H306.918L303.461 174.469ZM303.104 174.469H304.07L304.229 179.672V183H303.104V174.469ZM310.627 174.469H311.594V183H310.469V179.672L310.627 174.469ZM317.154 181.916V178.652C317.154 178.402 317.104 178.186 317.002 178.002C316.904 177.814 316.756 177.67 316.557 177.568C316.357 177.467 316.111 177.416 315.818 177.416C315.545 177.416 315.305 177.463 315.098 177.557C314.895 177.65 314.734 177.773 314.617 177.926C314.504 178.078 314.447 178.242 314.447 178.418H313.363C313.363 178.191 313.422 177.967 313.539 177.744C313.656 177.521 313.824 177.32 314.043 177.141C314.266 176.957 314.531 176.812 314.84 176.707C315.152 176.598 315.5 176.543 315.883 176.543C316.344 176.543 316.75 176.621 317.102 176.777C317.457 176.934 317.734 177.17 317.934 177.486C318.137 177.799 318.238 178.191 318.238 178.664V181.617C318.238 181.828 318.256 182.053 318.291 182.291C318.33 182.529 318.387 182.734 318.461 182.906V183H317.33C317.275 182.875 317.232 182.709 317.201 182.502C317.17 182.291 317.154 182.096 317.154 181.916ZM317.342 179.156L317.354 179.918H316.258C315.949 179.918 315.674 179.943 315.432 179.994C315.189 180.041 314.986 180.113 314.822 180.211C314.658 180.309 314.533 180.432 314.447 180.58C314.361 180.725 314.318 180.895 314.318 181.09C314.318 181.289 314.363 181.471 314.453 181.635C314.543 181.799 314.678 181.93 314.857 182.027C315.041 182.121 315.266 182.168 315.531 182.168C315.863 182.168 316.156 182.098 316.41 181.957C316.664 181.816 316.865 181.645 317.014 181.441C317.166 181.238 317.248 181.041 317.26 180.85L317.723 181.371C317.695 181.535 317.621 181.717 317.5 181.916C317.379 182.115 317.217 182.307 317.014 182.49C316.814 182.67 316.576 182.82 316.299 182.941C316.025 183.059 315.717 183.117 315.373 183.117C314.943 183.117 314.566 183.033 314.242 182.865C313.922 182.697 313.672 182.473 313.492 182.191C313.316 181.906 313.229 181.588 313.229 181.236C313.229 180.896 313.295 180.598 313.428 180.34C313.561 180.078 313.752 179.861 314.002 179.689C314.252 179.514 314.553 179.381 314.904 179.291C315.256 179.201 315.648 179.156 316.082 179.156H317.342ZM314.74 174.68C314.74 174.453 314.795 174.248 314.904 174.064C315.018 173.881 315.168 173.734 315.355 173.625C315.547 173.516 315.762 173.461 316 173.461C316.355 173.461 316.654 173.58 316.896 173.818C317.139 174.057 317.26 174.344 317.26 174.68C317.26 174.906 317.203 175.111 317.09 175.295C316.98 175.475 316.83 175.617 316.639 175.723C316.451 175.824 316.238 175.875 316 175.875C315.645 175.875 315.346 175.762 315.104 175.535C314.861 175.309 314.74 175.023 314.74 174.68ZM315.32 174.68C315.32 174.852 315.383 175.008 315.508 175.148C315.637 175.285 315.801 175.354 316 175.354C316.199 175.354 316.361 175.287 316.486 175.154C316.615 175.018 316.68 174.859 316.68 174.68C316.68 174.496 316.615 174.336 316.486 174.199C316.361 174.059 316.199 173.988 316 173.988C315.801 173.988 315.637 174.059 315.508 174.199C315.383 174.336 315.32 174.496 315.32 174.68ZM321.027 178.014V183H319.943V176.66H320.969L321.027 178.014ZM320.77 179.59L320.318 179.572C320.322 179.139 320.387 178.738 320.512 178.371C320.637 178 320.812 177.678 321.039 177.404C321.266 177.131 321.535 176.92 321.848 176.771C322.164 176.619 322.514 176.543 322.896 176.543C323.209 176.543 323.49 176.586 323.74 176.672C323.99 176.754 324.203 176.887 324.379 177.07C324.559 177.254 324.695 177.492 324.789 177.785C324.883 178.074 324.93 178.428 324.93 178.846V183H323.84V178.834C323.84 178.502 323.791 178.236 323.693 178.037C323.596 177.834 323.453 177.688 323.266 177.598C323.078 177.504 322.848 177.457 322.574 177.457C322.305 177.457 322.059 177.514 321.836 177.627C321.617 177.74 321.428 177.896 321.268 178.096C321.111 178.295 320.988 178.523 320.898 178.781C320.812 179.035 320.77 179.305 320.77 179.59ZM329.207 183.117C328.766 183.117 328.365 183.043 328.006 182.895C327.65 182.742 327.344 182.529 327.086 182.256C326.832 181.982 326.637 181.658 326.5 181.283C326.363 180.908 326.295 180.498 326.295 180.053V179.807C326.295 179.291 326.371 178.832 326.523 178.43C326.676 178.023 326.883 177.68 327.145 177.398C327.406 177.117 327.703 176.904 328.035 176.76C328.367 176.615 328.711 176.543 329.066 176.543C329.52 176.543 329.91 176.621 330.238 176.777C330.57 176.934 330.842 177.152 331.053 177.434C331.264 177.711 331.42 178.039 331.521 178.418C331.623 178.793 331.674 179.203 331.674 179.648V180.135H326.939V179.25H330.59V179.168C330.574 178.887 330.516 178.613 330.414 178.348C330.316 178.082 330.16 177.863 329.945 177.691C329.73 177.52 329.438 177.434 329.066 177.434C328.82 177.434 328.594 177.486 328.387 177.592C328.18 177.693 328.002 177.846 327.854 178.049C327.705 178.252 327.59 178.5 327.508 178.793C327.426 179.086 327.385 179.424 327.385 179.807V180.053C327.385 180.354 327.426 180.637 327.508 180.902C327.594 181.164 327.717 181.395 327.877 181.594C328.041 181.793 328.238 181.949 328.469 182.062C328.703 182.176 328.969 182.232 329.266 182.232C329.648 182.232 329.973 182.154 330.238 181.998C330.504 181.842 330.736 181.633 330.936 181.371L331.592 181.893C331.455 182.1 331.281 182.297 331.07 182.484C330.859 182.672 330.6 182.824 330.291 182.941C329.986 183.059 329.625 183.117 329.207 183.117ZM336.936 181.77V174H338.025V183H337.029L336.936 181.77ZM332.67 179.9V179.777C332.67 179.293 332.729 178.854 332.846 178.459C332.967 178.061 333.137 177.719 333.355 177.434C333.578 177.148 333.842 176.93 334.146 176.777C334.455 176.621 334.799 176.543 335.178 176.543C335.576 176.543 335.924 176.613 336.221 176.754C336.521 176.891 336.775 177.092 336.982 177.357C337.193 177.619 337.359 177.936 337.48 178.307C337.602 178.678 337.686 179.098 337.732 179.566V180.105C337.689 180.57 337.605 180.988 337.48 181.359C337.359 181.73 337.193 182.047 336.982 182.309C336.775 182.57 336.521 182.771 336.221 182.912C335.92 183.049 335.568 183.117 335.166 183.117C334.795 183.117 334.455 183.037 334.146 182.877C333.842 182.717 333.578 182.492 333.355 182.203C333.137 181.914 332.967 181.574 332.846 181.184C332.729 180.789 332.67 180.361 332.67 179.9ZM333.76 179.777V179.9C333.76 180.217 333.791 180.514 333.854 180.791C333.92 181.068 334.021 181.312 334.158 181.523C334.295 181.734 334.469 181.9 334.68 182.021C334.891 182.139 335.143 182.197 335.436 182.197C335.795 182.197 336.09 182.121 336.32 181.969C336.555 181.816 336.742 181.615 336.883 181.365C337.023 181.115 337.133 180.844 337.211 180.551V179.139C337.164 178.924 337.096 178.717 337.006 178.518C336.92 178.314 336.807 178.135 336.666 177.979C336.529 177.818 336.359 177.691 336.156 177.598C335.957 177.504 335.721 177.457 335.447 177.457C335.15 177.457 334.895 177.52 334.68 177.645C334.469 177.766 334.295 177.934 334.158 178.148C334.021 178.359 333.92 178.605 333.854 178.887C333.791 179.164 333.76 179.461 333.76 179.777Z" fill="black"/>
<rect x="280.5" y="213.5" width="79" height="29" rx="14.5" stroke="black"/>
<path d="M318.201 224.225L315.377 232H314.223L317.475 223.469H318.219L318.201 224.225ZM320.568 232L317.738 224.225L317.721 223.469H318.465L321.729 232H320.568ZM320.422 228.842V229.768H315.629V228.842H320.422ZM316.73 221.857C316.73 221.631 316.785 221.426 316.895 221.242C317.008 221.059 317.158 220.912 317.346 220.803C317.537 220.693 317.752 220.639 317.99 220.639C318.346 220.639 318.645 220.758 318.887 220.996C319.129 221.234 319.25 221.521 319.25 221.857C319.25 222.084 319.193 222.289 319.08 222.473C318.971 222.652 318.82 222.795 318.629 222.9C318.441 223.002 318.229 223.053 317.99 223.053C317.635 223.053 317.336 222.939 317.094 222.713C316.852 222.486 316.73 222.201 316.73 221.857ZM317.311 221.857C317.311 222.029 317.373 222.186 317.498 222.326C317.627 222.463 317.791 222.531 317.99 222.531C318.189 222.531 318.352 222.465 318.477 222.332C318.605 222.195 318.67 222.037 318.67 221.857C318.67 221.674 318.605 221.514 318.477 221.377C318.352 221.236 318.189 221.166 317.99 221.166C317.791 221.166 317.627 221.236 317.498 221.377C317.373 221.514 317.311 221.674 317.311 221.857ZM323.791 226.656V232H322.707V225.66H323.762L323.791 226.656ZM325.771 225.625L325.766 226.633C325.676 226.613 325.59 226.602 325.508 226.598C325.43 226.59 325.34 226.586 325.238 226.586C324.988 226.586 324.768 226.625 324.576 226.703C324.385 226.781 324.223 226.891 324.09 227.031C323.957 227.172 323.852 227.34 323.773 227.535C323.699 227.727 323.65 227.938 323.627 228.168L323.322 228.344C323.322 227.961 323.359 227.602 323.434 227.266C323.512 226.93 323.631 226.633 323.791 226.375C323.951 226.113 324.154 225.91 324.4 225.766C324.65 225.617 324.947 225.543 325.291 225.543C325.369 225.543 325.459 225.553 325.561 225.572C325.662 225.588 325.732 225.605 325.771 225.625Z" fill="black"/>
<path d="M100 29L50 79" stroke="black"/>
<rect x="50" y="79" width="50" height="1" transform="rotate(-90 50 79)" fill="black"/>
<path d="M150 79L100 129" stroke="black"/>
<path d="M150 179L100 129" stroke="black"/>
<path d="M280 129L230 179" stroke="black"/>
<path d="M280 229L230 179" stroke="black"/>
<rect x="230" y="179" width="50" height="1" fill="black"/>
</svg>
