<svg width="383" height="284" viewBox="0 0 383 284" fill="none" xmlns="http://www.w3.org/2000/svg">
<rect x="0.5" y="92.5" width="99" height="99" stroke="black"/>
<path d="M35.3398 142.654H33.0605V141.734H35.3398C35.7812 141.734 36.1387 141.664 36.4121 141.523C36.6855 141.383 36.8848 141.188 37.0098 140.938C37.1387 140.688 37.2031 140.402 37.2031 140.082C37.2031 139.789 37.1387 139.514 37.0098 139.256C36.8848 138.998 36.6855 138.791 36.4121 138.635C36.1387 138.475 35.7812 138.395 35.3398 138.395H33.3242V146H32.1934V137.469H35.3398C35.9844 137.469 36.5293 137.58 36.9746 137.803C37.4199 138.025 37.7578 138.334 37.9883 138.729C38.2188 139.119 38.334 139.566 38.334 140.07C38.334 140.617 38.2188 141.084 37.9883 141.471C37.7578 141.857 37.4199 142.152 36.9746 142.355C36.5293 142.555 35.9844 142.654 35.3398 142.654ZM42.1484 146.117C41.707 146.117 41.3066 146.043 40.9473 145.895C40.5918 145.742 40.2852 145.529 40.0273 145.256C39.7734 144.982 39.5781 144.658 39.4414 144.283C39.3047 143.908 39.2363 143.498 39.2363 143.053V142.807C39.2363 142.291 39.3125 141.832 39.4648 141.43C39.6172 141.023 39.8242 140.68 40.0859 140.398C40.3477 140.117 40.6445 139.904 40.9766 139.76C41.3086 139.615 41.6523 139.543 42.0078 139.543C42.4609 139.543 42.8516 139.621 43.1797 139.777C43.5117 139.934 43.7832 140.152 43.9941 140.434C44.2051 140.711 44.3613 141.039 44.4629 141.418C44.5645 141.793 44.6152 142.203 44.6152 142.648V143.135H39.8809V142.25H43.5312V142.168C43.5156 141.887 43.457 141.613 43.3555 141.348C43.2578 141.082 43.1016 140.863 42.8867 140.691C42.6719 140.52 42.3789 140.434 42.0078 140.434C41.7617 140.434 41.5352 140.486 41.3281 140.592C41.1211 140.693 40.9434 140.846 40.7949 141.049C40.6465 141.252 40.5312 141.5 40.4492 141.793C40.3672 142.086 40.3262 142.424 40.3262 142.807V143.053C40.3262 143.354 40.3672 143.637 40.4492 143.902C40.5352 144.164 40.6582 144.395 40.8184 144.594C40.9824 144.793 41.1797 144.949 41.4102 145.062C41.6445 145.176 41.9102 145.232 42.207 145.232C42.5898 145.232 42.9141 145.154 43.1797 144.998C43.4453 144.842 43.6777 144.633 43.877 144.371L44.5332 144.893C44.3965 145.1 44.2227 145.297 44.0117 145.484C43.8008 145.672 43.541 145.824 43.2324 145.941C42.9277 146.059 42.5664 146.117 42.1484 146.117ZM46.9648 140.656V146H45.8809V139.66H46.9355L46.9648 140.656ZM48.9453 139.625L48.9395 140.633C48.8496 140.613 48.7637 140.602 48.6816 140.598C48.6035 140.59 48.5137 140.586 48.4121 140.586C48.1621 140.586 47.9414 140.625 47.75 140.703C47.5586 140.781 47.3965 140.891 47.2637 141.031C47.1309 141.172 47.0254 141.34 46.9473 141.535C46.873 141.727 46.8242 141.938 46.8008 142.168L46.4961 142.344C46.4961 141.961 46.5332 141.602 46.6074 141.266C46.6855 140.93 46.8047 140.633 46.9648 140.375C47.125 140.113 47.3281 139.91 47.5742 139.766C47.8242 139.617 48.1211 139.543 48.4648 139.543C48.543 139.543 48.6328 139.553 48.7344 139.572C48.8359 139.588 48.9062 139.605 48.9453 139.625ZM53.6387 144.318C53.6387 144.162 53.6035 144.018 53.5332 143.885C53.4668 143.748 53.3281 143.625 53.1172 143.516C52.9102 143.402 52.5977 143.305 52.1797 143.223C51.8281 143.148 51.5098 143.061 51.2246 142.959C50.9434 142.857 50.7031 142.734 50.5039 142.59C50.3086 142.445 50.1582 142.275 50.0527 142.08C49.9473 141.885 49.8945 141.656 49.8945 141.395C49.8945 141.145 49.9492 140.908 50.0586 140.686C50.1719 140.463 50.3301 140.266 50.5332 140.094C50.7402 139.922 50.9883 139.787 51.2773 139.689C51.5664 139.592 51.8887 139.543 52.2441 139.543C52.752 139.543 53.1855 139.633 53.5449 139.812C53.9043 139.992 54.1797 140.232 54.3711 140.533C54.5625 140.83 54.6582 141.16 54.6582 141.523H53.5742C53.5742 141.348 53.5215 141.178 53.416 141.014C53.3145 140.846 53.1641 140.707 52.9648 140.598C52.7695 140.488 52.5293 140.434 52.2441 140.434C51.9434 140.434 51.6992 140.48 51.5117 140.574C51.3281 140.664 51.1934 140.779 51.1074 140.92C51.0254 141.061 50.9844 141.209 50.9844 141.365C50.9844 141.482 51.0039 141.588 51.043 141.682C51.0859 141.771 51.1602 141.855 51.2656 141.934C51.3711 142.008 51.5195 142.078 51.7109 142.145C51.9023 142.211 52.1465 142.277 52.4434 142.344C52.9629 142.461 53.3906 142.602 53.7266 142.766C54.0625 142.93 54.3125 143.131 54.4766 143.369C54.6406 143.607 54.7227 143.896 54.7227 144.236C54.7227 144.514 54.6641 144.768 54.5469 144.998C54.4336 145.229 54.2676 145.428 54.0488 145.596C53.834 145.76 53.5762 145.889 53.2754 145.982C52.9785 146.072 52.6445 146.117 52.2734 146.117C51.7148 146.117 51.2422 146.018 50.8555 145.818C50.4688 145.619 50.1758 145.361 49.9766 145.045C49.7773 144.729 49.6777 144.395 49.6777 144.043H50.7676C50.7832 144.34 50.8691 144.576 51.0254 144.752C51.1816 144.924 51.373 145.047 51.5996 145.121C51.8262 145.191 52.0508 145.227 52.2734 145.227C52.5703 145.227 52.8184 145.188 53.0176 145.109C53.2207 145.031 53.375 144.924 53.4805 144.787C53.5859 144.65 53.6387 144.494 53.6387 144.318ZM55.8594 142.9V142.766C55.8594 142.309 55.9258 141.885 56.0586 141.494C56.1914 141.1 56.3828 140.758 56.6328 140.469C56.8828 140.176 57.1855 139.949 57.541 139.789C57.8965 139.625 58.2949 139.543 58.7363 139.543C59.1816 139.543 59.582 139.625 59.9375 139.789C60.2969 139.949 60.6016 140.176 60.8516 140.469C61.1055 140.758 61.2988 141.1 61.4316 141.494C61.5645 141.885 61.6309 142.309 61.6309 142.766V142.9C61.6309 143.357 61.5645 143.781 61.4316 144.172C61.2988 144.562 61.1055 144.904 60.8516 145.197C60.6016 145.486 60.2988 145.713 59.9434 145.877C59.5918 146.037 59.1934 146.117 58.748 146.117C58.3027 146.117 57.9023 146.037 57.5469 145.877C57.1914 145.713 56.8867 145.486 56.6328 145.197C56.3828 144.904 56.1914 144.562 56.0586 144.172C55.9258 143.781 55.8594 143.357 55.8594 142.9ZM56.9434 142.766V142.9C56.9434 143.217 56.9805 143.516 57.0547 143.797C57.1289 144.074 57.2402 144.32 57.3887 144.535C57.541 144.75 57.7305 144.92 57.957 145.045C58.1836 145.166 58.4473 145.227 58.748 145.227C59.0449 145.227 59.3047 145.166 59.5273 145.045C59.7539 144.92 59.9414 144.75 60.0898 144.535C60.2383 144.32 60.3496 144.074 60.4238 143.797C60.502 143.516 60.541 143.217 60.541 142.9V142.766C60.541 142.453 60.502 142.158 60.4238 141.881C60.3496 141.6 60.2363 141.352 60.084 141.137C59.9355 140.918 59.748 140.746 59.5215 140.621C59.2988 140.496 59.0371 140.434 58.7363 140.434C58.4395 140.434 58.1777 140.496 57.9512 140.621C57.7285 140.746 57.541 140.918 57.3887 141.137C57.2402 141.352 57.1289 141.6 57.0547 141.881C56.9805 142.158 56.9434 142.453 56.9434 142.766ZM64.0742 141.014V146H62.9902V139.66H64.0156L64.0742 141.014ZM63.8164 142.59L63.3652 142.572C63.3691 142.139 63.4336 141.738 63.5586 141.371C63.6836 141 63.8594 140.678 64.0859 140.404C64.3125 140.131 64.582 139.92 64.8945 139.771C65.2109 139.619 65.5605 139.543 65.9434 139.543C66.2559 139.543 66.5371 139.586 66.7871 139.672C67.0371 139.754 67.25 139.887 67.4258 140.07C67.6055 140.254 67.7422 140.492 67.8359 140.785C67.9297 141.074 67.9766 141.428 67.9766 141.846V146H66.8867V141.834C66.8867 141.502 66.8379 141.236 66.7402 141.037C66.6426 140.834 66.5 140.688 66.3125 140.598C66.125 140.504 65.8945 140.457 65.6211 140.457C65.3516 140.457 65.1055 140.514 64.8828 140.627C64.6641 140.74 64.4746 140.896 64.3145 141.096C64.1582 141.295 64.0352 141.523 63.9453 141.781C63.8594 142.035 63.8164 142.305 63.8164 142.59Z" fill="black"/>
<rect x="283.5" y="92.5" width="99" height="99" stroke="black"/>
<path d="M325.766 141.137V142.057H321.148V141.137H325.766ZM321.324 137.469V146H320.193V137.469H321.324ZM326.75 137.469V146H325.625V137.469H326.75ZM332.475 144.535V139.66H333.564V146H332.527L332.475 144.535ZM332.68 143.199L333.131 143.188C333.131 143.609 333.086 144 332.996 144.359C332.91 144.715 332.77 145.023 332.574 145.285C332.379 145.547 332.123 145.752 331.807 145.9C331.49 146.045 331.105 146.117 330.652 146.117C330.344 146.117 330.061 146.072 329.803 145.982C329.549 145.893 329.33 145.754 329.146 145.566C328.963 145.379 328.82 145.135 328.719 144.834C328.621 144.533 328.572 144.172 328.572 143.75V139.66H329.656V143.762C329.656 144.047 329.688 144.283 329.75 144.471C329.816 144.654 329.904 144.801 330.014 144.91C330.127 145.016 330.252 145.09 330.389 145.133C330.529 145.176 330.674 145.197 330.822 145.197C331.283 145.197 331.648 145.109 331.918 144.934C332.188 144.754 332.381 144.514 332.498 144.213C332.619 143.908 332.68 143.57 332.68 143.199ZM336.301 141.014V146H335.217V139.66H336.242L336.301 141.014ZM336.043 142.59L335.592 142.572C335.596 142.139 335.66 141.738 335.785 141.371C335.91 141 336.086 140.678 336.312 140.404C336.539 140.131 336.809 139.92 337.121 139.771C337.438 139.619 337.787 139.543 338.17 139.543C338.482 139.543 338.764 139.586 339.014 139.672C339.264 139.754 339.477 139.887 339.652 140.07C339.832 140.254 339.969 140.492 340.062 140.785C340.156 141.074 340.203 141.428 340.203 141.846V146H339.113V141.834C339.113 141.502 339.064 141.236 338.967 141.037C338.869 140.834 338.727 140.688 338.539 140.598C338.352 140.504 338.121 140.457 337.848 140.457C337.578 140.457 337.332 140.514 337.109 140.627C336.891 140.74 336.701 140.896 336.541 141.096C336.385 141.295 336.262 141.523 336.172 141.781C336.086 142.035 336.043 142.305 336.043 142.59ZM345.846 144.77V137H346.936V146H345.939L345.846 144.77ZM341.58 142.9V142.777C341.58 142.293 341.639 141.854 341.756 141.459C341.877 141.061 342.047 140.719 342.266 140.434C342.488 140.148 342.752 139.93 343.057 139.777C343.365 139.621 343.709 139.543 344.088 139.543C344.486 139.543 344.834 139.613 345.131 139.754C345.432 139.891 345.686 140.092 345.893 140.357C346.104 140.619 346.27 140.936 346.391 141.307C346.512 141.678 346.596 142.098 346.643 142.566V143.105C346.6 143.57 346.516 143.988 346.391 144.359C346.27 144.73 346.104 145.047 345.893 145.309C345.686 145.57 345.432 145.771 345.131 145.912C344.83 146.049 344.479 146.117 344.076 146.117C343.705 146.117 343.365 146.037 343.057 145.877C342.752 145.717 342.488 145.492 342.266 145.203C342.047 144.914 341.877 144.574 341.756 144.184C341.639 143.789 341.58 143.361 341.58 142.9ZM342.67 142.777V142.9C342.67 143.217 342.701 143.514 342.764 143.791C342.83 144.068 342.932 144.312 343.068 144.523C343.205 144.734 343.379 144.9 343.59 145.021C343.801 145.139 344.053 145.197 344.346 145.197C344.705 145.197 345 145.121 345.23 144.969C345.465 144.816 345.652 144.615 345.793 144.365C345.934 144.115 346.043 143.844 346.121 143.551V142.139C346.074 141.924 346.006 141.717 345.916 141.518C345.83 141.314 345.717 141.135 345.576 140.979C345.439 140.818 345.27 140.691 345.066 140.598C344.867 140.504 344.631 140.457 344.357 140.457C344.061 140.457 343.805 140.52 343.59 140.645C343.379 140.766 343.205 140.934 343.068 141.148C342.932 141.359 342.83 141.605 342.764 141.887C342.701 142.164 342.67 142.461 342.67 142.777Z" fill="black"/>
<rect x="191.426" y="0.707107" width="59" height="59" transform="rotate(45 191.426 0.707107)" stroke="black"/>
<path d="M188.253 45.4354V46.3553H183.735V45.4354H188.253ZM183.964 37.8241V46.3553H182.833V37.8241H183.964ZM187.655 41.4921V42.412H183.735V41.4921H187.655ZM188.194 37.8241V38.7499H183.735V37.8241H188.194ZM190.667 40.0155V46.3553H189.577V40.0155H190.667ZM189.495 38.3339C189.495 38.1581 189.548 38.0096 189.653 37.8885C189.762 37.7675 189.923 37.7069 190.133 37.7069C190.34 37.7069 190.499 37.7675 190.608 37.8885C190.721 38.0096 190.778 38.1581 190.778 38.3339C190.778 38.5018 190.721 38.6464 190.608 38.7675C190.499 38.8846 190.34 38.9432 190.133 38.9432C189.923 38.9432 189.762 38.8846 189.653 38.7675C189.548 38.6464 189.495 38.5018 189.495 38.3339ZM195.038 46.4725C194.596 46.4725 194.196 46.3983 193.837 46.2499C193.481 46.0975 193.174 45.8846 192.917 45.6112C192.663 45.3378 192.467 45.0135 192.331 44.6385C192.194 44.2635 192.126 43.8534 192.126 43.4081V43.162C192.126 42.6464 192.202 42.1874 192.354 41.785C192.506 41.3788 192.714 41.035 192.975 40.7538C193.237 40.4725 193.534 40.2596 193.866 40.1151C194.198 39.9706 194.542 39.8983 194.897 39.8983C195.35 39.8983 195.741 39.9764 196.069 40.1327C196.401 40.2889 196.673 40.5077 196.883 40.7889C197.094 41.0663 197.251 41.3944 197.352 41.7733C197.454 42.1483 197.505 42.5585 197.505 43.0038V43.4901H192.77V42.6053H196.421V42.5233C196.405 42.2421 196.346 41.9686 196.245 41.703C196.147 41.4374 195.991 41.2186 195.776 41.0468C195.561 40.8749 195.268 40.7889 194.897 40.7889C194.651 40.7889 194.424 40.8417 194.217 40.9471C194.01 41.0487 193.833 41.201 193.684 41.4042C193.536 41.6073 193.421 41.8553 193.339 42.1483C193.256 42.4413 193.215 42.7792 193.215 43.162V43.4081C193.215 43.7089 193.256 43.9921 193.339 44.2577C193.424 44.5194 193.548 44.7499 193.708 44.9491C193.872 45.1483 194.069 45.3046 194.299 45.4178C194.534 45.5311 194.799 45.5878 195.096 45.5878C195.479 45.5878 195.803 45.5096 196.069 45.3534C196.335 45.1971 196.567 44.9882 196.766 44.7264L197.423 45.2479C197.286 45.455 197.112 45.6522 196.901 45.8397C196.69 46.0272 196.43 46.1796 196.122 46.2968C195.817 46.4139 195.456 46.4725 195.038 46.4725ZM199.854 41.0116V46.3553H198.77V40.0155H199.825L199.854 41.0116ZM201.835 39.9803L201.829 40.9882C201.739 40.9686 201.653 40.9569 201.571 40.953C201.493 40.9452 201.403 40.9413 201.301 40.9413C201.051 40.9413 200.831 40.9803 200.639 41.0585C200.448 41.1366 200.286 41.246 200.153 41.3866C200.02 41.5272 199.915 41.6952 199.837 41.8905C199.762 42.0819 199.714 42.2928 199.69 42.5233L199.385 42.6991C199.385 42.3163 199.423 41.9569 199.497 41.621C199.575 41.285 199.694 40.9882 199.854 40.7303C200.014 40.4686 200.217 40.2655 200.464 40.121C200.714 39.9725 201.01 39.8983 201.354 39.8983C201.432 39.8983 201.522 39.9081 201.624 39.9276C201.725 39.9432 201.796 39.9608 201.835 39.9803Z" fill="black"/>
<rect x="191.426" y="199.707" width="59" height="59" transform="rotate(45 191.426 199.707)" stroke="black"/>
<path d="M179.661 241.365H177.499L177.487 240.457H179.45C179.774 240.457 180.057 240.402 180.299 240.293C180.542 240.183 180.729 240.027 180.862 239.824C180.999 239.617 181.067 239.371 181.067 239.086C181.067 238.773 181.006 238.519 180.885 238.324C180.768 238.125 180.587 237.98 180.34 237.891C180.098 237.797 179.79 237.75 179.415 237.75H177.751V245.355H176.62V236.824H179.415C179.852 236.824 180.243 236.869 180.587 236.959C180.93 237.045 181.221 237.182 181.46 237.369C181.702 237.553 181.885 237.787 182.01 238.072C182.135 238.357 182.198 238.699 182.198 239.098C182.198 239.449 182.108 239.767 181.928 240.053C181.749 240.334 181.499 240.564 181.178 240.744C180.862 240.924 180.491 241.039 180.065 241.09L179.661 241.365ZM179.608 245.355H177.053L177.692 244.435H179.608C179.967 244.435 180.272 244.373 180.522 244.248C180.776 244.123 180.969 243.947 181.102 243.721C181.235 243.49 181.301 243.219 181.301 242.906C181.301 242.59 181.245 242.316 181.131 242.086C181.018 241.855 180.84 241.678 180.598 241.553C180.356 241.428 180.044 241.365 179.661 241.365H178.049L178.061 240.457H180.264L180.505 240.785C180.915 240.82 181.262 240.937 181.548 241.137C181.833 241.332 182.049 241.582 182.198 241.887C182.35 242.191 182.426 242.527 182.426 242.894C182.426 243.426 182.309 243.875 182.075 244.242C181.844 244.605 181.518 244.883 181.096 245.074C180.674 245.262 180.178 245.355 179.608 245.355ZM185.11 239.016V245.355H184.02V239.016H185.11ZM183.938 237.334C183.938 237.158 183.991 237.01 184.096 236.889C184.206 236.767 184.366 236.707 184.577 236.707C184.784 236.707 184.942 236.767 185.051 236.889C185.165 237.01 185.221 237.158 185.221 237.334C185.221 237.502 185.165 237.646 185.051 237.767C184.942 237.885 184.784 237.943 184.577 237.943C184.366 237.943 184.206 237.885 184.096 237.767C183.991 237.646 183.938 237.502 183.938 237.334ZM189.505 239.016V239.848H186.077V239.016H189.505ZM187.237 237.474H188.321V243.785C188.321 244 188.354 244.162 188.421 244.271C188.487 244.381 188.573 244.453 188.678 244.488C188.784 244.523 188.897 244.541 189.018 244.541C189.108 244.541 189.202 244.533 189.299 244.517C189.401 244.498 189.477 244.482 189.528 244.471L189.534 245.355C189.448 245.383 189.335 245.408 189.194 245.432C189.057 245.459 188.891 245.473 188.696 245.473C188.43 245.473 188.186 245.42 187.964 245.314C187.741 245.209 187.563 245.033 187.43 244.787C187.301 244.537 187.237 244.201 187.237 243.779V237.474ZM193.43 239.016V239.848H190.003V239.016H193.43ZM191.163 237.474H192.247V243.785C192.247 244 192.28 244.162 192.346 244.271C192.413 244.381 192.499 244.453 192.604 244.488C192.71 244.523 192.823 244.541 192.944 244.541C193.034 244.541 193.128 244.533 193.225 244.517C193.327 244.498 193.403 244.482 193.454 244.471L193.46 245.355C193.374 245.383 193.26 245.408 193.12 245.432C192.983 245.459 192.817 245.473 192.622 245.473C192.356 245.473 192.112 245.42 191.889 245.314C191.667 245.209 191.489 245.033 191.356 244.787C191.227 244.537 191.163 244.201 191.163 243.779V237.474ZM198.024 237.58L195.2 245.355H194.046L197.298 236.824H198.042L198.024 237.58ZM200.391 245.355L197.561 237.58L197.544 236.824H198.288L201.551 245.355H200.391ZM200.245 242.197V243.123H195.452V242.197H200.245ZM204.165 244.377L205.899 239.016H207.006L204.727 245.355H204.001L204.165 244.377ZM202.717 239.016L204.505 244.406L204.628 245.355H203.901L201.604 239.016H202.717Z" fill="black"/>
<path fill-rule="evenodd" clip-rule="evenodd" d="M333 192C333 198.435 331.733 204.807 329.27 210.751C326.808 216.696 323.198 222.098 318.648 226.648C314.098 231.198 308.696 234.808 302.751 237.27C296.807 239.733 290.435 241 284 241V242C290.566 242 297.068 240.707 303.134 238.194C309.2 235.681 314.712 231.998 319.355 227.355C323.998 222.712 327.681 217.2 330.194 211.134C332.707 205.068 334 198.566 334 192H333Z" fill="black"/>
<path fill-rule="evenodd" clip-rule="evenodd" d="M333 92C333 85.5652 331.733 79.1935 329.27 73.2485C326.808 67.3036 323.198 61.9018 318.648 57.3518C314.098 52.8017 308.696 49.1924 302.751 46.7299C296.807 44.2674 290.435 43 284 43V42C290.566 42 297.068 43.2933 303.134 45.806C309.2 48.3188 314.712 52.0017 319.355 56.6447C323.998 61.2876 327.681 66.7995 330.194 72.8658C332.707 78.9321 334 85.4339 334 92H333Z" fill="black"/>
<path fill-rule="evenodd" clip-rule="evenodd" d="M50 192C50 198.435 51.2674 204.807 53.7299 210.751C56.1924 216.696 59.8017 222.098 64.3518 226.648C68.9018 231.198 74.3036 234.808 80.2485 237.27C86.1935 239.733 92.5652 241 99 241V242C92.4339 242 85.9321 240.707 79.8658 238.194C73.7995 235.681 68.2876 231.998 63.6447 227.355C59.0017 222.712 55.3188 217.2 52.806 211.134C50.2933 205.068 49 198.566 49 192H50Z" fill="black"/>
<path fill-rule="evenodd" clip-rule="evenodd" d="M50 92C50 85.5652 51.2674 79.1935 53.7299 73.2485C56.1924 67.3036 59.8017 61.9018 64.3518 57.3518C68.9018 52.8017 74.3036 49.1924 80.2485 46.7299C86.1935 44.2674 92.5652 43 99 43V42C92.4339 42 85.9321 43.2933 79.8658 45.806C73.7995 48.3188 68.2876 52.0017 63.6447 56.6447C59.0017 61.2876 55.3188 66.7995 52.806 72.8658C50.2933 78.9321 49 85.4339 49 92H50Z" fill="black"/>
<rect x="99" y="42" width="50" height="1" fill="black"/>
<rect x="99" y="241" width="50" height="1" fill="black"/>
<rect x="234" y="42" width="50" height="1" fill="black"/>
<rect x="234" y="241" width="50" height="1" fill="black"/>
<path d="M60.8066 83.5898V83.5312C60.8066 82.6797 60.9023 81.9102 61.0938 81.2227C61.2852 80.5312 61.5293 79.9258 61.8262 79.4062C62.123 78.8867 62.4355 78.457 62.7637 78.1172C63.0918 77.7734 63.3945 77.5254 63.6719 77.373L63.9004 78.0879C63.6699 78.2637 63.4355 78.5059 63.1973 78.8145C62.9629 79.123 62.7461 79.502 62.5469 79.9512C62.3516 80.4004 62.1934 80.9219 62.0723 81.5156C61.9512 82.1094 61.8906 82.7773 61.8906 83.5195V83.6016C61.8906 84.3438 61.9512 85.0137 62.0723 85.6113C62.1934 86.2051 62.3516 86.7285 62.5469 87.1816C62.7461 87.6348 62.9629 88.0195 63.1973 88.3359C63.4355 88.6562 63.6699 88.9102 63.9004 89.0977L63.6719 89.7539C63.3945 89.6016 63.0918 89.3535 62.7637 89.0098C62.4355 88.6699 62.123 88.2402 61.8262 87.7207C61.5293 87.2051 61.2852 86.6016 61.0938 85.9102C60.9023 85.2188 60.8066 84.4453 60.8066 83.5898ZM70.1992 82.0547V83.3555C70.1992 84.0547 70.1367 84.6445 70.0117 85.125C69.8867 85.6055 69.707 85.9922 69.4727 86.2852C69.2383 86.5781 68.9551 86.791 68.623 86.9238C68.2949 87.0527 67.9238 87.1172 67.5098 87.1172C67.1816 87.1172 66.8789 87.0762 66.6016 86.9941C66.3242 86.9121 66.0742 86.7812 65.8516 86.6016C65.6328 86.418 65.4453 86.1797 65.2891 85.8867C65.1328 85.5938 65.0137 85.2383 64.9316 84.8203C64.8496 84.4023 64.8086 83.9141 64.8086 83.3555V82.0547C64.8086 81.3555 64.8711 80.7695 64.9961 80.2969C65.125 79.8242 65.3066 79.4453 65.541 79.1602C65.7754 78.8711 66.0566 78.6641 66.3848 78.5391C66.7168 78.4141 67.0879 78.3516 67.498 78.3516C67.8301 78.3516 68.1348 78.3926 68.4121 78.4746C68.6934 78.5527 68.9434 78.6797 69.1621 78.8555C69.3809 79.0273 69.5664 79.2578 69.7188 79.5469C69.875 79.832 69.9941 80.1816 70.0762 80.5957C70.1582 81.0098 70.1992 81.4961 70.1992 82.0547ZM69.1094 83.5312V81.873C69.1094 81.4902 69.0859 81.1543 69.0391 80.8652C68.9961 80.5723 68.9316 80.3223 68.8457 80.1152C68.7598 79.9082 68.6504 79.7402 68.5176 79.6113C68.3887 79.4824 68.2383 79.3887 68.0664 79.3301C67.8984 79.2676 67.709 79.2363 67.498 79.2363C67.2402 79.2363 67.0117 79.2852 66.8125 79.3828C66.6133 79.4766 66.4453 79.627 66.3086 79.834C66.1758 80.041 66.0742 80.3125 66.0039 80.6484C65.9336 80.9844 65.8984 81.3926 65.8984 81.873V83.5312C65.8984 83.9141 65.9199 84.252 65.9629 84.5449C66.0098 84.8379 66.0781 85.0918 66.168 85.3066C66.2578 85.5176 66.3672 85.6914 66.4961 85.8281C66.625 85.9648 66.7734 86.0664 66.9414 86.1328C67.1133 86.1953 67.3027 86.2266 67.5098 86.2266C67.7754 86.2266 68.0078 86.1758 68.207 86.0742C68.4062 85.9727 68.5723 85.8145 68.7051 85.5996C68.8418 85.3809 68.9434 85.1016 69.0098 84.7617C69.0762 84.418 69.1094 84.0078 69.1094 83.5312ZM72.6953 85.7109V86.584C72.6953 86.9395 72.6055 87.3145 72.4258 87.709C72.2461 88.1074 71.9941 88.4395 71.6699 88.7051L71.0547 88.2773C71.1797 88.1055 71.2852 87.9297 71.3711 87.75C71.457 87.5742 71.5215 87.3906 71.5645 87.1992C71.6113 87.0117 71.6348 86.8125 71.6348 86.6016V85.7109H72.6953ZM83.7812 78.4688V87H82.6445L78.3496 80.4199V87H77.2188V78.4688H78.3496L82.6621 85.0664V78.4688H83.7812ZM88.1172 83.5312V83.5898C88.1172 84.4453 88.0215 85.2188 87.8301 85.9102C87.6387 86.6016 87.3945 87.2051 87.0977 87.7207C86.8008 88.2402 86.4883 88.6699 86.1602 89.0098C85.832 89.3535 85.5293 89.6016 85.252 89.7539L85.0234 89.0977C85.2539 88.9219 85.4863 88.6758 85.7207 88.3594C85.9551 88.0469 86.1719 87.6602 86.3711 87.1992C86.5703 86.7422 86.7305 86.2148 86.8516 85.6172C86.9727 85.0156 87.0332 84.3438 87.0332 83.6016V83.5195C87.0332 82.7773 86.9688 82.1074 86.8398 81.5098C86.7109 80.9082 86.543 80.3789 86.3359 79.9219C86.1328 79.4648 85.9141 79.0801 85.6797 78.7676C85.4492 78.4512 85.2305 78.207 85.0234 78.0352L85.252 77.373C85.5293 77.5254 85.832 77.7734 86.1602 78.1172C86.4883 78.457 86.8008 78.8867 87.0977 79.4062C87.3945 79.9258 87.6387 80.5312 87.8301 81.2227C88.0215 81.9102 88.1172 82.6797 88.1172 83.5312Z" fill="black"/>
<path d="M295.715 83.5898V83.5312C295.715 82.6797 295.811 81.9102 296.002 81.2227C296.193 80.5312 296.438 79.9258 296.734 79.4062C297.031 78.8867 297.344 78.457 297.672 78.1172C298 77.7734 298.303 77.5254 298.58 77.373L298.809 78.0879C298.578 78.2637 298.344 78.5059 298.105 78.8145C297.871 79.123 297.654 79.502 297.455 79.9512C297.26 80.4004 297.102 80.9219 296.98 81.5156C296.859 82.1094 296.799 82.7773 296.799 83.5195V83.6016C296.799 84.3438 296.859 85.0137 296.98 85.6113C297.102 86.2051 297.26 86.7285 297.455 87.1816C297.654 87.6348 297.871 88.0195 298.105 88.3359C298.344 88.6562 298.578 88.9102 298.809 89.0977L298.58 89.7539C298.303 89.6016 298 89.3535 297.672 89.0098C297.344 88.6699 297.031 88.2402 296.734 87.7207C296.438 87.2051 296.193 86.6016 296.002 85.9102C295.811 85.2188 295.715 84.4453 295.715 83.5898ZM303.314 78.4219V87H302.23V79.7754L300.045 80.5723V79.5938L303.145 78.4219H303.314ZM307.604 85.7109V86.584C307.604 86.9395 307.514 87.3145 307.334 87.709C307.154 88.1074 306.902 88.4395 306.578 88.7051L305.963 88.2773C306.088 88.1055 306.193 87.9297 306.279 87.75C306.365 87.5742 306.43 87.3906 306.473 87.1992C306.52 87.0117 306.543 86.8125 306.543 86.6016V85.7109H307.604ZM315.408 78.4219V87H314.324V79.7754L312.139 80.5723V79.5938L315.238 78.4219H315.408ZM321.209 83.5312V83.5898C321.209 84.4453 321.113 85.2188 320.922 85.9102C320.73 86.6016 320.486 87.2051 320.189 87.7207C319.893 88.2402 319.58 88.6699 319.252 89.0098C318.924 89.3535 318.621 89.6016 318.344 89.7539L318.115 89.0977C318.346 88.9219 318.578 88.6758 318.812 88.3594C319.047 88.0469 319.264 87.6602 319.463 87.1992C319.662 86.7422 319.822 86.2148 319.943 85.6172C320.064 85.0156 320.125 84.3438 320.125 83.6016V83.5195C320.125 82.7773 320.061 82.1074 319.932 81.5098C319.803 80.9082 319.635 80.3789 319.428 79.9219C319.225 79.4648 319.006 79.0801 318.771 78.7676C318.541 78.4512 318.322 78.207 318.115 78.0352L318.344 77.373C318.621 77.5254 318.924 77.7734 319.252 78.1172C319.58 78.457 319.893 78.8867 320.189 79.4062C320.486 79.9258 320.73 80.5312 320.922 81.2227C321.113 81.9102 321.209 82.6797 321.209 83.5312Z" fill="black"/>
<path d="M294.807 201.59V201.531C294.807 200.68 294.902 199.91 295.094 199.223C295.285 198.531 295.529 197.926 295.826 197.406C296.123 196.887 296.436 196.457 296.764 196.117C297.092 195.773 297.395 195.525 297.672 195.373L297.9 196.088C297.67 196.264 297.436 196.506 297.197 196.814C296.963 197.123 296.746 197.502 296.547 197.951C296.352 198.4 296.193 198.922 296.072 199.516C295.951 200.109 295.891 200.777 295.891 201.52V201.602C295.891 202.344 295.951 203.014 296.072 203.611C296.193 204.205 296.352 204.729 296.547 205.182C296.746 205.635 296.963 206.02 297.197 206.336C297.436 206.656 297.67 206.91 297.9 207.098L297.672 207.754C297.395 207.602 297.092 207.354 296.764 207.01C296.436 206.67 296.123 206.24 295.826 205.721C295.529 205.205 295.285 204.602 295.094 203.91C294.902 203.219 294.807 202.445 294.807 201.59ZM304.199 200.055V201.355C304.199 202.055 304.137 202.645 304.012 203.125C303.887 203.605 303.707 203.992 303.473 204.285C303.238 204.578 302.955 204.791 302.623 204.924C302.295 205.053 301.924 205.117 301.51 205.117C301.182 205.117 300.879 205.076 300.602 204.994C300.324 204.912 300.074 204.781 299.852 204.602C299.633 204.418 299.445 204.18 299.289 203.887C299.133 203.594 299.014 203.238 298.932 202.82C298.85 202.402 298.809 201.914 298.809 201.355V200.055C298.809 199.355 298.871 198.77 298.996 198.297C299.125 197.824 299.307 197.445 299.541 197.16C299.775 196.871 300.057 196.664 300.385 196.539C300.717 196.414 301.088 196.352 301.498 196.352C301.83 196.352 302.135 196.393 302.412 196.475C302.693 196.553 302.943 196.68 303.162 196.855C303.381 197.027 303.566 197.258 303.719 197.547C303.875 197.832 303.994 198.182 304.076 198.596C304.158 199.01 304.199 199.496 304.199 200.055ZM303.109 201.531V199.873C303.109 199.49 303.086 199.154 303.039 198.865C302.996 198.572 302.932 198.322 302.846 198.115C302.76 197.908 302.65 197.74 302.518 197.611C302.389 197.482 302.238 197.389 302.066 197.33C301.898 197.268 301.709 197.236 301.498 197.236C301.24 197.236 301.012 197.285 300.812 197.383C300.613 197.477 300.445 197.627 300.309 197.834C300.176 198.041 300.074 198.312 300.004 198.648C299.934 198.984 299.898 199.393 299.898 199.873V201.531C299.898 201.914 299.92 202.252 299.963 202.545C300.01 202.838 300.078 203.092 300.168 203.307C300.258 203.518 300.367 203.691 300.496 203.828C300.625 203.965 300.773 204.066 300.941 204.133C301.113 204.195 301.303 204.227 301.51 204.227C301.775 204.227 302.008 204.176 302.207 204.074C302.406 203.973 302.572 203.814 302.705 203.6C302.842 203.381 302.943 203.102 303.01 202.762C303.076 202.418 303.109 202.008 303.109 201.531ZM306.695 203.711V204.584C306.695 204.939 306.605 205.314 306.426 205.709C306.246 206.107 305.994 206.439 305.67 206.705L305.055 206.277C305.18 206.105 305.285 205.93 305.371 205.75C305.457 205.574 305.521 205.391 305.564 205.199C305.611 205.012 305.635 204.812 305.635 204.602V203.711H306.695ZM317.781 196.469V205H316.645L312.35 198.42V205H311.219V196.469H312.35L316.662 203.066V196.469H317.781ZM322.117 201.531V201.59C322.117 202.445 322.021 203.219 321.83 203.91C321.639 204.602 321.395 205.205 321.098 205.721C320.801 206.24 320.488 206.67 320.16 207.01C319.832 207.354 319.529 207.602 319.252 207.754L319.023 207.098C319.254 206.922 319.486 206.676 319.721 206.359C319.955 206.047 320.172 205.66 320.371 205.199C320.57 204.742 320.73 204.215 320.852 203.617C320.973 203.016 321.033 202.344 321.033 201.602V201.52C321.033 200.777 320.969 200.107 320.84 199.51C320.711 198.908 320.543 198.379 320.336 197.922C320.133 197.465 319.914 197.08 319.68 196.768C319.449 196.451 319.23 196.207 319.023 196.035L319.252 195.373C319.529 195.525 319.832 195.773 320.16 196.117C320.488 196.457 320.801 196.887 321.098 197.406C321.395 197.926 321.639 198.531 321.83 199.223C322.021 199.91 322.117 200.68 322.117 201.531Z" fill="black"/>
<path d="M60.8066 201.59V201.531C60.8066 200.68 60.9023 199.91 61.0938 199.223C61.2852 198.531 61.5293 197.926 61.8262 197.406C62.123 196.887 62.4355 196.457 62.7637 196.117C63.0918 195.773 63.3945 195.525 63.6719 195.373L63.9004 196.088C63.6699 196.264 63.4355 196.506 63.1973 196.814C62.9629 197.123 62.7461 197.502 62.5469 197.951C62.3516 198.4 62.1934 198.922 62.0723 199.516C61.9512 200.109 61.8906 200.777 61.8906 201.52V201.602C61.8906 202.344 61.9512 203.014 62.0723 203.611C62.1934 204.205 62.3516 204.729 62.5469 205.182C62.7461 205.635 62.9629 206.02 63.1973 206.336C63.4355 206.656 63.6699 206.91 63.9004 207.098L63.6719 207.754C63.3945 207.602 63.0918 207.354 62.7637 207.01C62.4355 206.67 62.123 206.24 61.8262 205.721C61.5293 205.205 61.2852 204.602 61.0938 203.91C60.9023 203.219 60.8066 202.445 60.8066 201.59ZM70.1992 200.055V201.355C70.1992 202.055 70.1367 202.645 70.0117 203.125C69.8867 203.605 69.707 203.992 69.4727 204.285C69.2383 204.578 68.9551 204.791 68.623 204.924C68.2949 205.053 67.9238 205.117 67.5098 205.117C67.1816 205.117 66.8789 205.076 66.6016 204.994C66.3242 204.912 66.0742 204.781 65.8516 204.602C65.6328 204.418 65.4453 204.18 65.2891 203.887C65.1328 203.594 65.0137 203.238 64.9316 202.82C64.8496 202.402 64.8086 201.914 64.8086 201.355V200.055C64.8086 199.355 64.8711 198.77 64.9961 198.297C65.125 197.824 65.3066 197.445 65.541 197.16C65.7754 196.871 66.0566 196.664 66.3848 196.539C66.7168 196.414 67.0879 196.352 67.498 196.352C67.8301 196.352 68.1348 196.393 68.4121 196.475C68.6934 196.553 68.9434 196.68 69.1621 196.855C69.3809 197.027 69.5664 197.258 69.7188 197.547C69.875 197.832 69.9941 198.182 70.0762 198.596C70.1582 199.01 70.1992 199.496 70.1992 200.055ZM69.1094 201.531V199.873C69.1094 199.49 69.0859 199.154 69.0391 198.865C68.9961 198.572 68.9316 198.322 68.8457 198.115C68.7598 197.908 68.6504 197.74 68.5176 197.611C68.3887 197.482 68.2383 197.389 68.0664 197.33C67.8984 197.268 67.709 197.236 67.498 197.236C67.2402 197.236 67.0117 197.285 66.8125 197.383C66.6133 197.477 66.4453 197.627 66.3086 197.834C66.1758 198.041 66.0742 198.312 66.0039 198.648C65.9336 198.984 65.8984 199.393 65.8984 199.873V201.531C65.8984 201.914 65.9199 202.252 65.9629 202.545C66.0098 202.838 66.0781 203.092 66.168 203.307C66.2578 203.518 66.3672 203.691 66.4961 203.828C66.625 203.965 66.7734 204.066 66.9414 204.133C67.1133 204.195 67.3027 204.227 67.5098 204.227C67.7754 204.227 68.0078 204.176 68.207 204.074C68.4062 203.973 68.5723 203.814 68.7051 203.6C68.8418 203.381 68.9434 203.102 69.0098 202.762C69.0762 202.418 69.1094 202.008 69.1094 201.531ZM72.6953 203.711V204.584C72.6953 204.939 72.6055 205.314 72.4258 205.709C72.2461 206.107 71.9941 206.439 71.6699 206.705L71.0547 206.277C71.1797 206.105 71.2852 205.93 71.3711 205.75C71.457 205.574 71.5215 205.391 71.5645 205.199C71.6113 205.012 71.6348 204.812 71.6348 204.602V203.711H72.6953ZM83.7812 196.469V205H82.6445L78.3496 198.42V205H77.2188V196.469H78.3496L82.6621 203.066V196.469H83.7812ZM88.1172 201.531V201.59C88.1172 202.445 88.0215 203.219 87.8301 203.91C87.6387 204.602 87.3945 205.205 87.0977 205.721C86.8008 206.24 86.4883 206.67 86.1602 207.01C85.832 207.354 85.5293 207.602 85.252 207.754L85.0234 207.098C85.2539 206.922 85.4863 206.676 85.7207 206.359C85.9551 206.047 86.1719 205.66 86.3711 205.199C86.5703 204.742 86.7305 204.215 86.8516 203.617C86.9727 203.016 87.0332 202.344 87.0332 201.602V201.52C87.0332 200.777 86.9688 200.107 86.8398 199.51C86.7109 198.908 86.543 198.379 86.3359 197.922C86.1328 197.465 85.9141 197.08 85.6797 196.768C85.4492 196.451 85.2305 196.207 85.0234 196.035L85.252 195.373C85.5293 195.525 85.832 195.773 86.1602 196.117C86.4883 196.457 86.8008 196.887 87.0977 197.406C87.3945 197.926 87.6387 198.531 87.8301 199.223C88.0215 199.91 88.1172 200.68 88.1172 201.531Z" fill="black"/>
</svg>
