<svg width="321" height="398" viewBox="0 0 321 398" fill="none" xmlns="http://www.w3.org/2000/svg">
<rect x="91.5" y="15.5" width="99" height="99" fill="#CFCFCF" stroke="black"/>
<path d="M126.488 65.959H124.314V64.5879H126.488C126.824 64.5879 127.098 64.5332 127.309 64.4238C127.52 64.3105 127.674 64.1543 127.771 63.9551C127.869 63.7559 127.918 63.5312 127.918 63.2812C127.918 63.0273 127.869 62.791 127.771 62.5723C127.674 62.3535 127.52 62.1777 127.309 62.0449C127.098 61.9121 126.824 61.8457 126.488 61.8457H124.924V69H123.166V60.4688H126.488C127.156 60.4688 127.729 60.5898 128.205 60.832C128.686 61.0703 129.053 61.4004 129.307 61.8223C129.561 62.2441 129.688 62.7266 129.688 63.2695C129.688 63.8203 129.561 64.2969 129.307 64.6992C129.053 65.1016 128.686 65.4121 128.205 65.6309C127.729 65.8496 127.156 65.959 126.488 65.959ZM133.631 69.1172C133.139 69.1172 132.697 69.0391 132.307 68.8828C131.916 68.7227 131.584 68.502 131.311 68.2207C131.041 67.9395 130.834 67.6133 130.689 67.2422C130.545 66.8672 130.473 66.4688 130.473 66.0469V65.8125C130.473 65.332 130.541 64.8926 130.678 64.4941C130.814 64.0957 131.01 63.75 131.264 63.457C131.521 63.1641 131.834 62.9395 132.201 62.7832C132.568 62.623 132.982 62.543 133.443 62.543C133.893 62.543 134.291 62.6172 134.639 62.7656C134.986 62.9141 135.277 63.125 135.512 63.3984C135.75 63.6719 135.93 64 136.051 64.3828C136.172 64.7617 136.232 65.1836 136.232 65.6484V66.3516H131.193V65.2266H134.574V65.0977C134.574 64.8633 134.531 64.6543 134.445 64.4707C134.363 64.2832 134.238 64.1348 134.07 64.0254C133.902 63.916 133.688 63.8613 133.426 63.8613C133.203 63.8613 133.012 63.9102 132.852 64.0078C132.691 64.1055 132.561 64.2422 132.459 64.418C132.361 64.5938 132.287 64.8008 132.236 65.0391C132.189 65.2734 132.166 65.5312 132.166 65.8125V66.0469C132.166 66.3008 132.201 66.5352 132.271 66.75C132.346 66.9648 132.449 67.1504 132.582 67.3066C132.719 67.4629 132.883 67.584 133.074 67.6699C133.27 67.7559 133.49 67.7988 133.736 67.7988C134.041 67.7988 134.324 67.7402 134.586 67.623C134.852 67.502 135.08 67.3203 135.271 67.0781L136.092 67.9688C135.959 68.1602 135.777 68.3438 135.547 68.5195C135.32 68.6953 135.047 68.8398 134.727 68.9531C134.406 69.0625 134.041 69.1172 133.631 69.1172ZM138.881 64.043V69H137.193V62.6602H138.781L138.881 64.043ZM140.791 62.6191L140.762 64.1836C140.68 64.1719 140.58 64.1621 140.463 64.1543C140.35 64.1426 140.246 64.1367 140.152 64.1367C139.914 64.1367 139.707 64.168 139.531 64.2305C139.359 64.2891 139.215 64.377 139.098 64.4941C138.984 64.6113 138.898 64.7539 138.84 64.9219C138.785 65.0898 138.754 65.2812 138.746 65.4961L138.406 65.3906C138.406 64.9805 138.447 64.6035 138.529 64.2598C138.611 63.9121 138.73 63.6094 138.887 63.3516C139.047 63.0938 139.242 62.8945 139.473 62.7539C139.703 62.6133 139.967 62.543 140.264 62.543C140.357 62.543 140.453 62.5508 140.551 62.5664C140.648 62.5781 140.729 62.5957 140.791 62.6191ZM145.016 67.248C145.016 67.127 144.98 67.0176 144.91 66.9199C144.84 66.8223 144.709 66.7324 144.518 66.6504C144.33 66.5645 144.059 66.4863 143.703 66.416C143.383 66.3457 143.084 66.2578 142.807 66.1523C142.533 66.043 142.295 65.9121 142.092 65.7598C141.893 65.6074 141.736 65.4277 141.623 65.2207C141.51 65.0098 141.453 64.7695 141.453 64.5C141.453 64.2344 141.51 63.9844 141.623 63.75C141.74 63.5156 141.906 63.3086 142.121 63.1289C142.34 62.9453 142.605 62.8027 142.918 62.7012C143.234 62.5957 143.59 62.543 143.984 62.543C144.535 62.543 145.008 62.6309 145.402 62.8066C145.801 62.9824 146.105 63.2246 146.316 63.5332C146.531 63.8379 146.639 64.1855 146.639 64.5762H144.951C144.951 64.4121 144.916 64.2656 144.846 64.1367C144.779 64.0039 144.674 63.9004 144.529 63.8262C144.389 63.748 144.205 63.709 143.979 63.709C143.791 63.709 143.629 63.7422 143.492 63.8086C143.355 63.8711 143.25 63.957 143.176 64.0664C143.105 64.1719 143.07 64.2891 143.07 64.418C143.07 64.5156 143.09 64.6035 143.129 64.6816C143.172 64.7559 143.24 64.8242 143.334 64.8867C143.428 64.9492 143.549 65.0078 143.697 65.0625C143.85 65.1133 144.037 65.1602 144.26 65.2031C144.717 65.2969 145.125 65.4199 145.484 65.5723C145.844 65.7207 146.129 65.9238 146.34 66.1816C146.551 66.4355 146.656 66.7695 146.656 67.1836C146.656 67.4648 146.594 67.7227 146.469 67.957C146.344 68.1914 146.164 68.3965 145.93 68.5723C145.695 68.7441 145.414 68.8789 145.086 68.9766C144.762 69.0703 144.396 69.1172 143.99 69.1172C143.4 69.1172 142.9 69.0117 142.49 68.8008C142.084 68.5898 141.775 68.3223 141.564 67.998C141.357 67.6699 141.254 67.334 141.254 66.9902H142.854C142.861 67.2207 142.92 67.4062 143.029 67.5469C143.143 67.6875 143.285 67.7891 143.457 67.8516C143.633 67.9141 143.822 67.9453 144.025 67.9453C144.244 67.9453 144.426 67.916 144.57 67.8574C144.715 67.7949 144.824 67.7129 144.898 67.6113C144.977 67.5059 145.016 67.3848 145.016 67.248ZM147.482 65.8945V65.7715C147.482 65.3066 147.549 64.8789 147.682 64.4883C147.814 64.0938 148.008 63.752 148.262 63.4629C148.516 63.1738 148.828 62.9492 149.199 62.7891C149.57 62.625 149.996 62.543 150.477 62.543C150.957 62.543 151.385 62.625 151.76 62.7891C152.135 62.9492 152.449 63.1738 152.703 63.4629C152.961 63.752 153.156 64.0938 153.289 64.4883C153.422 64.8789 153.488 65.3066 153.488 65.7715V65.8945C153.488 66.3555 153.422 66.7832 153.289 67.1777C153.156 67.5684 152.961 67.9102 152.703 68.2031C152.449 68.4922 152.137 68.7168 151.766 68.877C151.395 69.0371 150.969 69.1172 150.488 69.1172C150.008 69.1172 149.58 69.0371 149.205 68.877C148.834 68.7168 148.52 68.4922 148.262 68.2031C148.008 67.9102 147.814 67.5684 147.682 67.1777C147.549 66.7832 147.482 66.3555 147.482 65.8945ZM149.17 65.7715V65.8945C149.17 66.1602 149.193 66.4082 149.24 66.6387C149.287 66.8691 149.361 67.0723 149.463 67.248C149.568 67.4199 149.705 67.5547 149.873 67.6523C150.041 67.75 150.246 67.7988 150.488 67.7988C150.723 67.7988 150.924 67.75 151.092 67.6523C151.26 67.5547 151.395 67.4199 151.496 67.248C151.598 67.0723 151.672 66.8691 151.719 66.6387C151.77 66.4082 151.795 66.1602 151.795 65.8945V65.7715C151.795 65.5137 151.77 65.2715 151.719 65.0449C151.672 64.8145 151.596 64.6113 151.49 64.4355C151.389 64.2559 151.254 64.1152 151.086 64.0137C150.918 63.9121 150.715 63.8613 150.477 63.8613C150.238 63.8613 150.035 63.9121 149.867 64.0137C149.703 64.1152 149.568 64.2559 149.463 64.4355C149.361 64.6113 149.287 64.8145 149.24 65.0449C149.193 65.2715 149.17 65.5137 149.17 65.7715ZM156.178 64.0137V69H154.49V62.6602H156.072L156.178 64.0137ZM155.932 65.6074H155.475C155.475 65.1387 155.535 64.7168 155.656 64.3418C155.777 63.9629 155.947 63.6406 156.166 63.375C156.385 63.1055 156.645 62.9004 156.945 62.7598C157.25 62.6152 157.59 62.543 157.965 62.543C158.262 62.543 158.533 62.5859 158.779 62.6719C159.025 62.7578 159.236 62.8945 159.412 63.082C159.592 63.2695 159.729 63.5176 159.822 63.8262C159.92 64.1348 159.969 64.5117 159.969 64.957V69H158.27V64.9512C158.27 64.6699 158.23 64.4512 158.152 64.2949C158.074 64.1387 157.959 64.0293 157.807 63.9668C157.658 63.9004 157.475 63.8672 157.256 63.8672C157.029 63.8672 156.832 63.9121 156.664 64.002C156.5 64.0918 156.363 64.2168 156.254 64.377C156.148 64.5332 156.068 64.7168 156.014 64.9277C155.959 65.1387 155.932 65.3652 155.932 65.6074Z" fill="black"/>
<rect x="191" y="65" width="50" height="1" fill="black"/>
<rect x="241.5" y="50.5" width="79" height="29" rx="14.5" fill="#F0F0F0" stroke="black"/>
<path d="M270.067 60.8906V68H269.125V60.8906H270.067ZM274.359 60.8906L271.405 64.2061L269.745 65.9297L269.589 64.9238L270.839 63.5469L273.227 60.8906H274.359ZM273.451 68L270.819 64.5332L271.381 63.7861L274.574 68H273.451ZM275.292 62.7168H276.2V68.6299C276.2 68.9521 276.148 69.2256 276.044 69.4502C275.943 69.6748 275.79 69.8441 275.585 69.958C275.383 70.0752 275.128 70.1338 274.818 70.1338C274.737 70.1338 274.643 70.1257 274.535 70.1094C274.424 70.0931 274.332 70.0736 274.257 70.0508L274.262 69.3232C274.324 69.3363 274.394 69.346 274.472 69.3525C274.55 69.3623 274.618 69.3672 274.677 69.3672C274.81 69.3672 274.923 69.3428 275.014 69.2939C275.105 69.2451 275.173 69.167 275.219 69.0596C275.268 68.9521 275.292 68.8089 275.292 68.6299V62.7168ZM275.199 61.3154C275.199 61.1689 275.245 61.0452 275.336 60.9443C275.427 60.8434 275.559 60.793 275.731 60.793C275.907 60.793 276.041 60.8434 276.132 60.9443C276.223 61.0452 276.269 61.1689 276.269 61.3154C276.269 61.4554 276.223 61.5758 276.132 61.6768C276.041 61.7744 275.907 61.8232 275.731 61.8232C275.559 61.8232 275.427 61.7744 275.336 61.6768C275.245 61.5758 275.199 61.4554 275.199 61.3154ZM281.771 62.0967L278.534 68.6592H277.934L281.171 62.0967H281.771ZM277.421 65.417V65.3047C277.421 64.9238 277.476 64.5706 277.587 64.2451C277.698 63.9163 277.857 63.6315 278.065 63.3906C278.274 63.1465 278.526 62.9577 278.822 62.8242C279.118 62.6875 279.451 62.6191 279.818 62.6191C280.189 62.6191 280.523 62.6875 280.819 62.8242C281.119 62.9577 281.373 63.1465 281.581 63.3906C281.789 63.6315 281.949 63.9163 282.06 64.2451C282.17 64.5706 282.226 64.9238 282.226 65.3047V65.417C282.226 65.7979 282.17 66.151 282.06 66.4766C281.949 66.8021 281.789 67.0869 281.581 67.3311C281.373 67.5719 281.12 67.7607 280.824 67.8975C280.531 68.0309 280.199 68.0977 279.828 68.0977C279.457 68.0977 279.123 68.0309 278.827 67.8975C278.531 67.7607 278.277 67.5719 278.065 67.3311C277.857 67.0869 277.698 66.8021 277.587 66.4766C277.476 66.151 277.421 65.7979 277.421 65.417ZM278.324 65.3047V65.417C278.324 65.6807 278.355 65.9297 278.417 66.1641C278.479 66.3952 278.572 66.6003 278.695 66.7793C278.822 66.9583 278.98 67.0999 279.169 67.2041C279.358 67.305 279.577 67.3555 279.828 67.3555C280.076 67.3555 280.292 67.305 280.478 67.2041C280.666 67.0999 280.823 66.9583 280.946 66.7793C281.07 66.6003 281.163 66.3952 281.225 66.1641C281.29 65.9297 281.322 65.6807 281.322 65.417V65.3047C281.322 65.0443 281.29 64.7985 281.225 64.5674C281.163 64.333 281.068 64.1263 280.941 63.9473C280.818 63.765 280.661 63.6217 280.473 63.5176C280.287 63.4134 280.069 63.3613 279.818 63.3613C279.571 63.3613 279.353 63.4134 279.164 63.5176C278.979 63.6217 278.822 63.765 278.695 63.9473C278.572 64.1263 278.479 64.333 278.417 64.5674C278.355 64.7985 278.324 65.0443 278.324 65.3047ZM284.237 63.8447V68H283.334V62.7168H284.188L284.237 63.8447ZM284.022 65.1582L283.646 65.1436C283.65 64.7822 283.703 64.4486 283.808 64.1426C283.912 63.8333 284.058 63.5648 284.247 63.3369C284.436 63.109 284.66 62.9333 284.921 62.8096C285.185 62.6826 285.476 62.6191 285.795 62.6191C286.055 62.6191 286.29 62.6549 286.498 62.7266C286.706 62.7949 286.884 62.9056 287.03 63.0586C287.18 63.2116 287.294 63.4102 287.372 63.6543C287.45 63.8952 287.489 64.1898 287.489 64.5381V68H286.581V64.5283C286.581 64.2516 286.54 64.0303 286.459 63.8643C286.378 63.695 286.259 63.5729 286.103 63.498C285.946 63.4199 285.754 63.3809 285.526 63.3809C285.302 63.3809 285.097 63.4281 284.911 63.5225C284.729 63.6169 284.571 63.7471 284.438 63.9131C284.307 64.0791 284.205 64.2695 284.13 64.4844C284.058 64.696 284.022 64.9206 284.022 65.1582ZM289.765 63.8447V68H288.861V62.7168H289.716L289.765 63.8447ZM289.55 65.1582L289.174 65.1436C289.177 64.7822 289.231 64.4486 289.335 64.1426C289.439 63.8333 289.586 63.5648 289.774 63.3369C289.963 63.109 290.188 62.9333 290.448 62.8096C290.712 62.6826 291.003 62.6191 291.322 62.6191C291.583 62.6191 291.817 62.6549 292.025 62.7266C292.234 62.7949 292.411 62.9056 292.558 63.0586C292.707 63.2116 292.821 63.4102 292.899 63.6543C292.978 63.8952 293.017 64.1898 293.017 64.5381V68H292.108V64.5283C292.108 64.2516 292.068 64.0303 291.986 63.8643C291.905 63.695 291.786 63.5729 291.63 63.498C291.474 63.4199 291.282 63.3809 291.054 63.3809C290.829 63.3809 290.624 63.4281 290.438 63.5225C290.256 63.6169 290.098 63.7471 289.965 63.9131C289.835 64.0791 289.732 64.2695 289.657 64.4844C289.586 64.696 289.55 64.9206 289.55 65.1582Z" fill="black"/>
<rect x="142" y="115" width="92" height="0.999996" transform="rotate(90 142 115)" fill="black"/>
<rect x="141.594" y="205.888" width="129.419" height="1" transform="rotate(45 141.594 205.888)" fill="black"/>
<rect width="128.856" height="1" transform="matrix(-0.707107 0.707107 0.707107 0.707107 141.115 206.285)" fill="black"/>
<circle cx="141.5" cy="206.5" r="12" fill="white" stroke="black"/>
<path fill-rule="evenodd" clip-rule="evenodd" d="M192.213 245.192C193.049 246.028 193.712 247.02 194.164 248.112C194.616 249.204 194.849 250.374 194.849 251.556C194.849 252.738 194.616 253.909 194.164 255.001C193.712 256.092 193.049 257.085 192.213 257.92L192.92 258.627C193.849 257.699 194.585 256.596 195.088 255.383C195.591 254.17 195.849 252.87 195.849 251.556C195.849 250.243 195.591 248.943 195.088 247.73C194.585 246.516 193.849 245.414 192.92 244.485L192.213 245.192Z" fill="black"/>
<path fill-rule="evenodd" clip-rule="evenodd" d="M180.192 257.213C181.028 258.049 182.02 258.712 183.112 259.164C184.204 259.616 185.374 259.849 186.556 259.849C187.738 259.849 188.909 259.616 190.001 259.164C191.092 258.712 192.085 258.049 192.92 257.213L193.627 257.92C192.699 258.849 191.596 259.586 190.383 260.088C189.17 260.591 187.87 260.849 186.556 260.849C185.243 260.849 183.943 260.591 182.73 260.088C181.516 259.586 180.414 258.849 179.485 257.92L180.192 257.213Z" fill="black"/>
<path fill-rule="evenodd" clip-rule="evenodd" d="M180.9 256.506C181.642 257.249 182.524 257.838 183.495 258.24C184.466 258.642 185.506 258.849 186.556 258.849C187.607 258.849 188.647 258.642 189.618 258.24C190.588 257.838 191.47 257.249 192.213 256.506L192.92 257.213C192.085 258.049 191.092 258.712 190.001 259.164C188.909 259.616 187.738 259.849 186.556 259.849C185.374 259.849 184.204 259.616 183.112 259.164C182.02 258.712 181.028 258.049 180.192 257.213L180.9 256.506Z" fill="black"/>
<path fill-rule="evenodd" clip-rule="evenodd" d="M191.506 245.9C192.249 246.642 192.838 247.524 193.24 248.495C193.642 249.466 193.849 250.506 193.849 251.556C193.849 252.607 193.642 253.647 193.24 254.618C192.838 255.588 192.249 256.47 191.506 257.213L192.213 257.92C193.049 257.085 193.712 256.092 194.164 255.001C194.616 253.909 194.849 252.738 194.849 251.556C194.849 250.374 194.616 249.204 194.164 248.112C193.712 247.02 193.049 246.028 192.213 245.192L191.506 245.9Z" fill="black"/>
<rect x="172.414" y="248.021" width="12" height="2" transform="rotate(45 172.414 248.021)" fill="black"/>
<rect x="184.435" y="236" width="12" height="2" transform="rotate(45 184.435 236)" fill="black"/>
<path fill-rule="evenodd" clip-rule="evenodd" d="M90.7781 245.192C89.9424 246.028 89.2795 247.02 88.8272 248.112C88.3749 249.204 88.1421 250.374 88.1421 251.556C88.1421 252.738 88.3749 253.909 88.8272 255.001C89.2795 256.092 89.9424 257.085 90.7781 257.92L90.071 258.627C89.1424 257.699 88.4058 256.596 87.9033 255.383C87.4007 254.17 87.1421 252.87 87.1421 251.556C87.1421 250.243 87.4007 248.943 87.9033 247.73C88.4058 246.516 89.1424 245.414 90.071 244.485L90.7781 245.192Z" fill="black"/>
<path fill-rule="evenodd" clip-rule="evenodd" d="M102.799 257.213C101.963 258.049 100.971 258.712 99.8791 259.164C98.7872 259.616 97.6168 259.849 96.4349 259.849C95.253 259.849 94.0827 259.616 92.9908 259.164C91.8989 258.712 90.9067 258.049 90.071 257.213L89.3639 257.92C90.2925 258.849 91.3948 259.586 92.6081 260.088C93.8214 260.591 95.1217 260.849 96.4349 260.849C97.7482 260.849 99.0485 260.591 100.262 260.088C101.475 259.586 102.577 258.849 103.506 257.92L102.799 257.213Z" fill="black"/>
<path fill-rule="evenodd" clip-rule="evenodd" d="M102.092 256.506C101.349 257.249 100.467 257.838 99.4964 258.24C98.5258 258.642 97.4855 258.849 96.4349 258.849C95.3844 258.849 94.3441 258.642 93.3735 258.24C92.4029 257.838 91.521 257.249 90.7781 256.506L90.071 257.213C90.9067 258.049 91.8989 258.712 92.9908 259.164C94.0827 259.616 95.253 259.849 96.4349 259.849C97.6168 259.849 98.7872 259.616 99.8791 259.164C100.971 258.712 101.963 258.049 102.799 257.213L102.092 256.506Z" fill="black"/>
<path fill-rule="evenodd" clip-rule="evenodd" d="M91.4852 245.9C90.7424 246.642 90.1531 247.524 89.7511 248.495C89.349 249.466 89.1421 250.506 89.1421 251.556C89.1421 252.607 89.349 253.647 89.7511 254.618C90.1531 255.588 90.7424 256.47 91.4852 257.213L90.7781 257.92C89.9424 257.085 89.2795 256.092 88.8272 255.001C88.3749 253.909 88.1421 252.738 88.1421 251.556C88.1421 250.374 88.3749 249.204 88.8272 248.112C89.2795 247.02 89.9424 246.028 90.7781 245.192L91.4852 245.9Z" fill="black"/>
<rect width="12" height="2" transform="matrix(-0.707107 0.707107 0.707107 0.707107 110.577 248.021)" fill="black"/>
<rect width="12" height="2" transform="matrix(-0.707107 0.707107 0.707107 0.707107 98.5563 236)" fill="black"/>
<rect x="183.5" y="298.5" width="99" height="99" fill="#CFCFCF" stroke="black"/>
<path d="M219.871 343.469H221.359L223.551 349.732L225.742 343.469H227.23L224.148 352H222.953L219.871 343.469ZM219.068 343.469H220.551L220.82 349.574V352H219.068V343.469ZM226.551 343.469H228.039V352H226.281V349.574L226.551 343.469ZM232.896 350.57V347.746C232.896 347.543 232.863 347.369 232.797 347.225C232.73 347.076 232.627 346.961 232.486 346.879C232.35 346.797 232.172 346.756 231.953 346.756C231.766 346.756 231.604 346.789 231.467 346.855C231.33 346.918 231.225 347.01 231.15 347.131C231.076 347.248 231.039 347.387 231.039 347.547H229.352C229.352 347.277 229.414 347.021 229.539 346.779C229.664 346.537 229.846 346.324 230.084 346.141C230.322 345.953 230.605 345.807 230.934 345.701C231.266 345.596 231.637 345.543 232.047 345.543C232.539 345.543 232.977 345.625 233.359 345.789C233.742 345.953 234.043 346.199 234.262 346.527C234.484 346.855 234.596 347.266 234.596 347.758V350.471C234.596 350.818 234.617 351.104 234.66 351.326C234.703 351.545 234.766 351.736 234.848 351.9V352H233.143C233.061 351.828 232.998 351.613 232.955 351.355C232.916 351.094 232.896 350.832 232.896 350.57ZM233.119 348.139L233.131 349.094H232.188C231.965 349.094 231.771 349.119 231.607 349.17C231.443 349.221 231.309 349.293 231.203 349.387C231.098 349.477 231.02 349.582 230.969 349.703C230.922 349.824 230.898 349.957 230.898 350.102C230.898 350.246 230.932 350.377 230.998 350.494C231.064 350.607 231.16 350.697 231.285 350.764C231.41 350.826 231.557 350.857 231.725 350.857C231.979 350.857 232.199 350.807 232.387 350.705C232.574 350.604 232.719 350.479 232.82 350.33C232.926 350.182 232.98 350.041 232.984 349.908L233.43 350.623C233.367 350.783 233.281 350.949 233.172 351.121C233.066 351.293 232.932 351.455 232.768 351.607C232.604 351.756 232.406 351.879 232.176 351.977C231.945 352.07 231.672 352.117 231.355 352.117C230.953 352.117 230.588 352.037 230.26 351.877C229.936 351.713 229.678 351.488 229.486 351.203C229.299 350.914 229.205 350.586 229.205 350.219C229.205 349.887 229.268 349.592 229.393 349.334C229.518 349.076 229.701 348.859 229.943 348.684C230.189 348.504 230.496 348.369 230.863 348.279C231.23 348.186 231.656 348.139 232.141 348.139H233.119ZM237.549 347.014V352H235.861V345.66H237.443L237.549 347.014ZM237.303 348.607H236.846C236.846 348.139 236.906 347.717 237.027 347.342C237.148 346.963 237.318 346.641 237.537 346.375C237.756 346.105 238.016 345.9 238.316 345.76C238.621 345.615 238.961 345.543 239.336 345.543C239.633 345.543 239.904 345.586 240.15 345.672C240.396 345.758 240.607 345.895 240.783 346.082C240.963 346.27 241.1 346.518 241.193 346.826C241.291 347.135 241.34 347.512 241.34 347.957V352H239.641V347.951C239.641 347.67 239.602 347.451 239.523 347.295C239.445 347.139 239.33 347.029 239.178 346.967C239.029 346.9 238.846 346.867 238.627 346.867C238.4 346.867 238.203 346.912 238.035 347.002C237.871 347.092 237.734 347.217 237.625 347.377C237.52 347.533 237.439 347.717 237.385 347.928C237.33 348.139 237.303 348.365 237.303 348.607ZM244.275 347.014V352H242.588V345.66H244.17L244.275 347.014ZM244.029 348.607H243.572C243.572 348.139 243.633 347.717 243.754 347.342C243.875 346.963 244.045 346.641 244.264 346.375C244.482 346.105 244.742 345.9 245.043 345.76C245.348 345.615 245.688 345.543 246.062 345.543C246.359 345.543 246.631 345.586 246.877 345.672C247.123 345.758 247.334 345.895 247.51 346.082C247.689 346.27 247.826 346.518 247.92 346.826C248.018 347.135 248.066 347.512 248.066 347.957V352H246.367V347.951C246.367 347.67 246.328 347.451 246.25 347.295C246.172 347.139 246.057 347.029 245.904 346.967C245.756 346.9 245.572 346.867 245.354 346.867C245.127 346.867 244.93 346.912 244.762 347.002C244.598 347.092 244.461 347.217 244.352 347.377C244.246 347.533 244.166 347.717 244.111 347.928C244.057 348.139 244.029 348.365 244.029 348.607Z" fill="black"/>
<rect x="0.5" y="298.5" width="99" height="99" fill="#CFCFCF" stroke="black"/>
<path d="M34.7266 343.469V352H32.9688V343.469H34.7266ZM39.8359 343.469L36.4551 347.682L34.5039 349.779L34.1875 348.115L35.5059 346.311L37.6797 343.469H39.8359ZM37.8379 352L35.3242 348.057L36.625 346.967L39.918 352H37.8379ZM42.4141 350.77L43.8203 345.66H45.584L43.4453 352H42.3789L42.4141 350.77ZM41.4473 345.66L42.8594 350.775L42.8887 352H41.8164L39.6777 345.66H41.4473ZM48.1211 345.66V352H46.4277V345.66H48.1211ZM46.3223 344.008C46.3223 343.762 46.4082 343.559 46.5801 343.398C46.752 343.238 46.9824 343.158 47.2715 343.158C47.5566 343.158 47.7852 343.238 47.957 343.398C48.1328 343.559 48.2207 343.762 48.2207 344.008C48.2207 344.254 48.1328 344.457 47.957 344.617C47.7852 344.777 47.5566 344.857 47.2715 344.857C46.9824 344.857 46.752 344.777 46.5801 344.617C46.4082 344.457 46.3223 344.254 46.3223 344.008ZM51.168 347.014V352H49.4805V345.66H51.0625L51.168 347.014ZM50.9219 348.607H50.4648C50.4648 348.139 50.5254 347.717 50.6465 347.342C50.7676 346.963 50.9375 346.641 51.1562 346.375C51.375 346.105 51.6348 345.9 51.9355 345.76C52.2402 345.615 52.5801 345.543 52.9551 345.543C53.252 345.543 53.5234 345.586 53.7695 345.672C54.0156 345.758 54.2266 345.895 54.4023 346.082C54.582 346.27 54.7188 346.518 54.8125 346.826C54.9102 347.135 54.959 347.512 54.959 347.957V352H53.2598V347.951C53.2598 347.67 53.2207 347.451 53.1426 347.295C53.0645 347.139 52.9492 347.029 52.7969 346.967C52.6484 346.9 52.4648 346.867 52.2461 346.867C52.0195 346.867 51.8223 346.912 51.6543 347.002C51.4902 347.092 51.3535 347.217 51.2441 347.377C51.1387 347.533 51.0586 347.717 51.0039 347.928C50.9492 348.139 50.9219 348.365 50.9219 348.607ZM57.8945 347.014V352H56.207V345.66H57.7891L57.8945 347.014ZM57.6484 348.607H57.1914C57.1914 348.139 57.252 347.717 57.373 347.342C57.4941 346.963 57.6641 346.641 57.8828 346.375C58.1016 346.105 58.3613 345.9 58.6621 345.76C58.9668 345.615 59.3066 345.543 59.6816 345.543C59.9785 345.543 60.25 345.586 60.4961 345.672C60.7422 345.758 60.9531 345.895 61.1289 346.082C61.3086 346.27 61.4453 346.518 61.5391 346.826C61.6367 347.135 61.6855 347.512 61.6855 347.957V352H59.9863V347.951C59.9863 347.67 59.9473 347.451 59.8691 347.295C59.791 347.139 59.6758 347.029 59.5234 346.967C59.375 346.9 59.1914 346.867 58.9727 346.867C58.7461 346.867 58.5488 346.912 58.3809 347.002C58.2168 347.092 58.0801 347.217 57.9707 347.377C57.8652 347.533 57.7852 347.717 57.7305 347.928C57.6758 348.139 57.6484 348.365 57.6484 348.607ZM65.8867 352.117C65.3945 352.117 64.9531 352.039 64.5625 351.883C64.1719 351.723 63.8398 351.502 63.5664 351.221C63.2969 350.939 63.0898 350.613 62.9453 350.242C62.8008 349.867 62.7285 349.469 62.7285 349.047V348.812C62.7285 348.332 62.7969 347.893 62.9336 347.494C63.0703 347.096 63.2656 346.75 63.5195 346.457C63.7773 346.164 64.0898 345.939 64.457 345.783C64.8242 345.623 65.2383 345.543 65.6992 345.543C66.1484 345.543 66.5469 345.617 66.8945 345.766C67.2422 345.914 67.5332 346.125 67.7676 346.398C68.0059 346.672 68.1855 347 68.3066 347.383C68.4277 347.762 68.4883 348.184 68.4883 348.648V349.352H63.4492V348.227H66.8301V348.098C66.8301 347.863 66.7871 347.654 66.7012 347.471C66.6191 347.283 66.4941 347.135 66.3262 347.025C66.1582 346.916 65.9434 346.861 65.6816 346.861C65.459 346.861 65.2676 346.91 65.1074 347.008C64.9473 347.105 64.8164 347.242 64.7148 347.418C64.6172 347.594 64.543 347.801 64.4922 348.039C64.4453 348.273 64.4219 348.531 64.4219 348.812V349.047C64.4219 349.301 64.457 349.535 64.5273 349.75C64.6016 349.965 64.7051 350.15 64.8379 350.307C64.9746 350.463 65.1387 350.584 65.3301 350.67C65.5254 350.756 65.7461 350.799 65.9922 350.799C66.2969 350.799 66.5801 350.74 66.8418 350.623C67.1074 350.502 67.3359 350.32 67.5273 350.078L68.3477 350.969C68.2148 351.16 68.0332 351.344 67.8027 351.52C67.5762 351.695 67.3027 351.84 66.9824 351.953C66.6621 352.062 66.2969 352.117 65.8867 352.117Z" fill="black"/>
<path d="M152.121 156.469V165H150.99V156.469H152.121ZM157.271 156.469L153.727 160.447L151.734 162.516L151.547 161.309L153.047 159.656L155.912 156.469H157.271ZM156.182 165L153.023 160.84L153.697 159.943L157.529 165H156.182ZM158.391 158.66H159.48V165.756C159.48 166.143 159.418 166.471 159.293 166.74C159.172 167.01 158.988 167.213 158.742 167.35C158.5 167.49 158.193 167.561 157.822 167.561C157.725 167.561 157.611 167.551 157.482 167.531C157.35 167.512 157.238 167.488 157.148 167.461L157.154 166.588C157.229 166.604 157.312 166.615 157.406 166.623C157.5 166.635 157.582 166.641 157.652 166.641C157.812 166.641 157.947 166.611 158.057 166.553C158.166 166.494 158.248 166.4 158.303 166.271C158.361 166.143 158.391 165.971 158.391 165.756V158.66ZM158.279 156.979C158.279 156.803 158.334 156.654 158.443 156.533C158.553 156.412 158.711 156.352 158.918 156.352C159.129 156.352 159.289 156.412 159.398 156.533C159.508 156.654 159.562 156.803 159.562 156.979C159.562 157.146 159.508 157.291 159.398 157.412C159.289 157.529 159.129 157.588 158.918 157.588C158.711 157.588 158.553 157.529 158.443 157.412C158.334 157.291 158.279 157.146 158.279 156.979ZM166.166 157.916L162.281 165.791H161.561L165.445 157.916H166.166ZM160.945 161.9V161.766C160.945 161.309 161.012 160.885 161.145 160.494C161.277 160.1 161.469 159.758 161.719 159.469C161.969 159.176 162.271 158.949 162.627 158.789C162.982 158.625 163.381 158.543 163.822 158.543C164.268 158.543 164.668 158.625 165.023 158.789C165.383 158.949 165.688 159.176 165.938 159.469C166.188 159.758 166.379 160.1 166.512 160.494C166.645 160.885 166.711 161.309 166.711 161.766V161.9C166.711 162.357 166.645 162.781 166.512 163.172C166.379 163.562 166.188 163.904 165.938 164.197C165.688 164.486 165.385 164.713 165.029 164.877C164.678 165.037 164.279 165.117 163.834 165.117C163.389 165.117 162.988 165.037 162.633 164.877C162.277 164.713 161.973 164.486 161.719 164.197C161.469 163.904 161.277 163.562 161.145 163.172C161.012 162.781 160.945 162.357 160.945 161.9ZM162.029 161.766V161.9C162.029 162.217 162.066 162.516 162.141 162.797C162.215 163.074 162.326 163.32 162.475 163.535C162.627 163.75 162.816 163.92 163.043 164.045C163.27 164.166 163.533 164.227 163.834 164.227C164.131 164.227 164.391 164.166 164.613 164.045C164.84 163.92 165.027 163.75 165.176 163.535C165.324 163.32 165.436 163.074 165.51 162.797C165.588 162.516 165.627 162.217 165.627 161.9V161.766C165.627 161.453 165.588 161.158 165.51 160.881C165.436 160.6 165.322 160.352 165.17 160.137C165.021 159.918 164.834 159.746 164.607 159.621C164.385 159.496 164.123 159.434 163.822 159.434C163.525 159.434 163.264 159.496 163.037 159.621C162.814 159.746 162.627 159.918 162.475 160.137C162.326 160.352 162.215 160.6 162.141 160.881C162.066 161.158 162.029 161.453 162.029 161.766ZM169.125 160.014V165H168.041V158.66H169.066L169.125 160.014ZM168.867 161.59L168.416 161.572C168.42 161.139 168.484 160.738 168.609 160.371C168.734 160 168.91 159.678 169.137 159.404C169.363 159.131 169.633 158.92 169.945 158.771C170.262 158.619 170.611 158.543 170.994 158.543C171.307 158.543 171.588 158.586 171.838 158.672C172.088 158.754 172.301 158.887 172.477 159.07C172.656 159.254 172.793 159.492 172.887 159.785C172.98 160.074 173.027 160.428 173.027 160.846V165H171.938V160.834C171.938 160.502 171.889 160.236 171.791 160.037C171.693 159.834 171.551 159.688 171.363 159.598C171.176 159.504 170.945 159.457 170.672 159.457C170.402 159.457 170.156 159.514 169.934 159.627C169.715 159.74 169.525 159.896 169.365 160.096C169.209 160.295 169.086 160.523 168.996 160.781C168.91 161.035 168.867 161.305 168.867 161.59ZM175.758 160.014V165H174.674V158.66H175.699L175.758 160.014ZM175.5 161.59L175.049 161.572C175.053 161.139 175.117 160.738 175.242 160.371C175.367 160 175.543 159.678 175.77 159.404C175.996 159.131 176.266 158.92 176.578 158.771C176.895 158.619 177.244 158.543 177.627 158.543C177.939 158.543 178.221 158.586 178.471 158.672C178.721 158.754 178.934 158.887 179.109 159.07C179.289 159.254 179.426 159.492 179.52 159.785C179.613 160.074 179.66 160.428 179.66 160.846V165H178.57V160.834C178.57 160.502 178.521 160.236 178.424 160.037C178.326 159.834 178.184 159.688 177.996 159.598C177.809 159.504 177.578 159.457 177.305 159.457C177.035 159.457 176.789 159.514 176.566 159.627C176.348 159.74 176.158 159.896 175.998 160.096C175.842 160.295 175.719 160.523 175.629 160.781C175.543 161.035 175.5 161.305 175.5 161.59Z" fill="black"/>
<path d="M196.615 225.713V225.004C196.615 224.766 196.654 224.518 196.732 224.26C196.814 223.998 196.932 223.748 197.084 223.51C197.236 223.268 197.42 223.059 197.635 222.883L198.25 223.311C198.07 223.568 197.932 223.834 197.834 224.107C197.736 224.377 197.688 224.67 197.688 224.986V225.713H196.615ZM198.461 225.713V225.004C198.461 224.766 198.5 224.518 198.578 224.26C198.66 223.998 198.777 223.748 198.93 223.51C199.082 223.268 199.266 223.059 199.48 222.883L200.096 223.311C199.916 223.568 199.777 223.834 199.68 224.107C199.582 224.377 199.533 224.67 199.533 224.986V225.713H198.461ZM201.59 223.469H202.686L205.48 230.424L208.27 223.469H209.371L205.902 232H205.047L201.59 223.469ZM201.232 223.469H202.199L202.357 228.672V232H201.232V223.469ZM208.756 223.469H209.723V232H208.598V228.672L208.756 223.469ZM215.283 230.916V227.652C215.283 227.402 215.232 227.186 215.131 227.002C215.033 226.814 214.885 226.67 214.686 226.568C214.486 226.467 214.24 226.416 213.947 226.416C213.674 226.416 213.434 226.463 213.227 226.557C213.023 226.65 212.863 226.773 212.746 226.926C212.633 227.078 212.576 227.242 212.576 227.418H211.492C211.492 227.191 211.551 226.967 211.668 226.744C211.785 226.521 211.953 226.32 212.172 226.141C212.395 225.957 212.66 225.812 212.969 225.707C213.281 225.598 213.629 225.543 214.012 225.543C214.473 225.543 214.879 225.621 215.23 225.777C215.586 225.934 215.863 226.17 216.062 226.486C216.266 226.799 216.367 227.191 216.367 227.664V230.617C216.367 230.828 216.385 231.053 216.42 231.291C216.459 231.529 216.516 231.734 216.59 231.906V232H215.459C215.404 231.875 215.361 231.709 215.33 231.502C215.299 231.291 215.283 231.096 215.283 230.916ZM215.471 228.156L215.482 228.918H214.387C214.078 228.918 213.803 228.943 213.561 228.994C213.318 229.041 213.115 229.113 212.951 229.211C212.787 229.309 212.662 229.432 212.576 229.58C212.49 229.725 212.447 229.895 212.447 230.09C212.447 230.289 212.492 230.471 212.582 230.635C212.672 230.799 212.807 230.93 212.986 231.027C213.17 231.121 213.395 231.168 213.66 231.168C213.992 231.168 214.285 231.098 214.539 230.957C214.793 230.816 214.994 230.645 215.143 230.441C215.295 230.238 215.377 230.041 215.389 229.85L215.852 230.371C215.824 230.535 215.75 230.717 215.629 230.916C215.508 231.115 215.346 231.307 215.143 231.49C214.943 231.67 214.705 231.82 214.428 231.941C214.154 232.059 213.846 232.117 213.502 232.117C213.072 232.117 212.695 232.033 212.371 231.865C212.051 231.697 211.801 231.473 211.621 231.191C211.445 230.906 211.357 230.588 211.357 230.236C211.357 229.896 211.424 229.598 211.557 229.34C211.689 229.078 211.881 228.861 212.131 228.689C212.381 228.514 212.682 228.381 213.033 228.291C213.385 228.201 213.777 228.156 214.211 228.156H215.471ZM219.156 227.014V232H218.072V225.66H219.098L219.156 227.014ZM218.898 228.59L218.447 228.572C218.451 228.139 218.516 227.738 218.641 227.371C218.766 227 218.941 226.678 219.168 226.404C219.395 226.131 219.664 225.92 219.977 225.771C220.293 225.619 220.643 225.543 221.025 225.543C221.338 225.543 221.619 225.586 221.869 225.672C222.119 225.754 222.332 225.887 222.508 226.07C222.688 226.254 222.824 226.492 222.918 226.785C223.012 227.074 223.059 227.428 223.059 227.846V232H221.969V227.834C221.969 227.502 221.92 227.236 221.822 227.037C221.725 226.834 221.582 226.688 221.395 226.598C221.207 226.504 220.977 226.457 220.703 226.457C220.434 226.457 220.188 226.514 219.965 226.627C219.746 226.74 219.557 226.896 219.396 227.096C219.24 227.295 219.117 227.523 219.027 227.781C218.941 228.035 218.898 228.305 218.898 228.59ZM225.789 227.014V232H224.705V225.66H225.73L225.789 227.014ZM225.531 228.59L225.08 228.572C225.084 228.139 225.148 227.738 225.273 227.371C225.398 227 225.574 226.678 225.801 226.404C226.027 226.131 226.297 225.92 226.609 225.771C226.926 225.619 227.275 225.543 227.658 225.543C227.971 225.543 228.252 225.586 228.502 225.672C228.752 225.754 228.965 225.887 229.141 226.07C229.32 226.254 229.457 226.492 229.551 226.785C229.645 227.074 229.691 227.428 229.691 227.846V232H228.602V227.834C228.602 227.502 228.553 227.236 228.455 227.037C228.357 226.834 228.215 226.688 228.027 226.598C227.84 226.504 227.609 226.457 227.336 226.457C227.066 226.457 226.82 226.514 226.598 226.627C226.379 226.74 226.189 226.896 226.029 227.096C225.873 227.295 225.75 227.523 225.66 227.781C225.574 228.035 225.531 228.305 225.531 228.59ZM231.895 223V223.75C231.895 223.984 231.854 224.232 231.771 224.494C231.693 224.752 231.578 225.002 231.426 225.244C231.273 225.482 231.09 225.691 230.875 225.871L230.254 225.443C230.438 225.186 230.576 224.922 230.67 224.652C230.768 224.379 230.816 224.084 230.816 223.768V223H231.895ZM233.693 223V223.75C233.693 223.984 233.652 224.232 233.57 224.494C233.492 224.752 233.377 225.002 233.225 225.244C233.072 225.482 232.889 225.691 232.674 225.871L232.053 225.443C232.236 225.186 232.375 224.922 232.469 224.652C232.566 224.379 232.615 224.084 232.615 223.768V223H233.693Z" fill="black"/>
<path d="M40.6152 225.713V225.004C40.6152 224.766 40.6543 224.518 40.7324 224.26C40.8145 223.998 40.9316 223.748 41.084 223.51C41.2363 223.268 41.4199 223.059 41.6348 222.883L42.25 223.311C42.0703 223.568 41.9316 223.834 41.834 224.107C41.7363 224.377 41.6875 224.67 41.6875 224.986V225.713H40.6152ZM42.4609 225.713V225.004C42.4609 224.766 42.5 224.518 42.5781 224.26C42.6602 223.998 42.7773 223.748 42.9297 223.51C43.082 223.268 43.2656 223.059 43.4805 222.883L44.0957 223.311C43.916 223.568 43.7773 223.834 43.6797 224.107C43.582 224.377 43.5332 224.67 43.5332 224.986V225.713H42.4609ZM46.3633 223.469V232H45.2324V223.469H46.3633ZM51.5137 223.469L47.9688 227.447L45.9766 229.516L45.7891 228.309L47.2891 226.656L50.1543 223.469H51.5137ZM50.4238 232L47.2656 227.84L47.9395 226.943L51.7715 232H50.4238ZM54.2969 231.021L56.0312 225.66H57.1387L54.8594 232H54.1328L54.2969 231.021ZM52.8496 225.66L54.6367 231.051L54.7598 232H54.0332L51.7363 225.66H52.8496ZM59.3594 225.66V232H58.2695V225.66H59.3594ZM58.1875 223.979C58.1875 223.803 58.2402 223.654 58.3457 223.533C58.4551 223.412 58.6152 223.352 58.8262 223.352C59.0332 223.352 59.1914 223.412 59.3008 223.533C59.4141 223.654 59.4707 223.803 59.4707 223.979C59.4707 224.146 59.4141 224.291 59.3008 224.412C59.1914 224.529 59.0332 224.588 58.8262 224.588C58.6152 224.588 58.4551 224.529 58.3457 224.412C58.2402 224.291 58.1875 224.146 58.1875 223.979ZM62.1836 227.014V232H61.0996V225.66H62.125L62.1836 227.014ZM61.9258 228.59L61.4746 228.572C61.4785 228.139 61.543 227.738 61.668 227.371C61.793 227 61.9688 226.678 62.1953 226.404C62.4219 226.131 62.6914 225.92 63.0039 225.771C63.3203 225.619 63.6699 225.543 64.0527 225.543C64.3652 225.543 64.6465 225.586 64.8965 225.672C65.1465 225.754 65.3594 225.887 65.5352 226.07C65.7148 226.254 65.8516 226.492 65.9453 226.785C66.0391 227.074 66.0859 227.428 66.0859 227.846V232H64.9961V227.834C64.9961 227.502 64.9473 227.236 64.8496 227.037C64.752 226.834 64.6094 226.688 64.4219 226.598C64.2344 226.504 64.0039 226.457 63.7305 226.457C63.4609 226.457 63.2148 226.514 62.9922 226.627C62.7734 226.74 62.584 226.896 62.4238 227.096C62.2676 227.295 62.1445 227.523 62.0547 227.781C61.9688 228.035 61.9258 228.305 61.9258 228.59ZM68.8164 227.014V232H67.7324V225.66H68.7578L68.8164 227.014ZM68.5586 228.59L68.1074 228.572C68.1113 228.139 68.1758 227.738 68.3008 227.371C68.4258 227 68.6016 226.678 68.8281 226.404C69.0547 226.131 69.3242 225.92 69.6367 225.771C69.9531 225.619 70.3027 225.543 70.6855 225.543C70.998 225.543 71.2793 225.586 71.5293 225.672C71.7793 225.754 71.9922 225.887 72.168 226.07C72.3477 226.254 72.4844 226.492 72.5781 226.785C72.6719 227.074 72.7188 227.428 72.7188 227.846V232H71.6289V227.834C71.6289 227.502 71.5801 227.236 71.4824 227.037C71.3848 226.834 71.2422 226.688 71.0547 226.598C70.8672 226.504 70.6367 226.457 70.3633 226.457C70.0938 226.457 69.8477 226.514 69.625 226.627C69.4062 226.74 69.2168 226.896 69.0566 227.096C68.9004 227.295 68.7773 227.523 68.6875 227.781C68.6016 228.035 68.5586 228.305 68.5586 228.59ZM76.9961 232.117C76.5547 232.117 76.1543 232.043 75.7949 231.895C75.4395 231.742 75.1328 231.529 74.875 231.256C74.6211 230.982 74.4258 230.658 74.2891 230.283C74.1523 229.908 74.084 229.498 74.084 229.053V228.807C74.084 228.291 74.1602 227.832 74.3125 227.43C74.4648 227.023 74.6719 226.68 74.9336 226.398C75.1953 226.117 75.4922 225.904 75.8242 225.76C76.1562 225.615 76.5 225.543 76.8555 225.543C77.3086 225.543 77.6992 225.621 78.0273 225.777C78.3594 225.934 78.6309 226.152 78.8418 226.434C79.0527 226.711 79.209 227.039 79.3105 227.418C79.4121 227.793 79.4629 228.203 79.4629 228.648V229.135H74.7285V228.25H78.3789V228.168C78.3633 227.887 78.3047 227.613 78.2031 227.348C78.1055 227.082 77.9492 226.863 77.7344 226.691C77.5195 226.52 77.2266 226.434 76.8555 226.434C76.6094 226.434 76.3828 226.486 76.1758 226.592C75.9688 226.693 75.791 226.846 75.6426 227.049C75.4941 227.252 75.3789 227.5 75.2969 227.793C75.2148 228.086 75.1738 228.424 75.1738 228.807V229.053C75.1738 229.354 75.2148 229.637 75.2969 229.902C75.3828 230.164 75.5059 230.395 75.666 230.594C75.8301 230.793 76.0273 230.949 76.2578 231.062C76.4922 231.176 76.7578 231.232 77.0547 231.232C77.4375 231.232 77.7617 231.154 78.0273 230.998C78.293 230.842 78.5254 230.633 78.7246 230.371L79.3809 230.893C79.2441 231.1 79.0703 231.297 78.8594 231.484C78.6484 231.672 78.3887 231.824 78.0801 231.941C77.7754 232.059 77.4141 232.117 76.9961 232.117ZM81.8125 223V223.75C81.8125 223.984 81.7715 224.232 81.6895 224.494C81.6113 224.752 81.4961 225.002 81.3438 225.244C81.1914 225.482 81.0078 225.691 80.793 225.871L80.1719 225.443C80.3555 225.186 80.4941 224.922 80.5879 224.652C80.6855 224.379 80.7344 224.084 80.7344 223.768V223H81.8125ZM83.6113 223V223.75C83.6113 223.984 83.5703 224.232 83.4883 224.494C83.4102 224.752 83.2949 225.002 83.1426 225.244C82.9902 225.482 82.8066 225.691 82.5918 225.871L81.9707 225.443C82.1543 225.186 82.293 224.922 82.3867 224.652C82.4844 224.379 82.5332 224.084 82.5332 223.768V223H83.6113Z" fill="black"/>
</svg>
