<svg width="641" height="284" viewBox="0 0 641 284" fill="none" xmlns="http://www.w3.org/2000/svg">
<rect x="130.5" y="92.5" width="99" height="99" fill="#CFCFCF" stroke="black"/>
<path d="M165.488 142.959H163.314V141.588H165.488C165.824 141.588 166.098 141.533 166.309 141.424C166.52 141.311 166.674 141.154 166.771 140.955C166.869 140.756 166.918 140.531 166.918 140.281C166.918 140.027 166.869 139.791 166.771 139.572C166.674 139.354 166.52 139.178 166.309 139.045C166.098 138.912 165.824 138.846 165.488 138.846H163.924V146H162.166V137.469H165.488C166.156 137.469 166.729 137.59 167.205 137.832C167.686 138.07 168.053 138.4 168.307 138.822C168.561 139.244 168.688 139.727 168.688 140.27C168.688 140.82 168.561 141.297 168.307 141.699C168.053 142.102 167.686 142.412 167.205 142.631C166.729 142.85 166.156 142.959 165.488 142.959ZM172.631 146.117C172.139 146.117 171.697 146.039 171.307 145.883C170.916 145.723 170.584 145.502 170.311 145.221C170.041 144.939 169.834 144.613 169.689 144.242C169.545 143.867 169.473 143.469 169.473 143.047V142.812C169.473 142.332 169.541 141.893 169.678 141.494C169.814 141.096 170.01 140.75 170.264 140.457C170.521 140.164 170.834 139.939 171.201 139.783C171.568 139.623 171.982 139.543 172.443 139.543C172.893 139.543 173.291 139.617 173.639 139.766C173.986 139.914 174.277 140.125 174.512 140.398C174.75 140.672 174.93 141 175.051 141.383C175.172 141.762 175.232 142.184 175.232 142.648V143.352H170.193V142.227H173.574V142.098C173.574 141.863 173.531 141.654 173.445 141.471C173.363 141.283 173.238 141.135 173.07 141.025C172.902 140.916 172.688 140.861 172.426 140.861C172.203 140.861 172.012 140.91 171.852 141.008C171.691 141.105 171.561 141.242 171.459 141.418C171.361 141.594 171.287 141.801 171.236 142.039C171.189 142.273 171.166 142.531 171.166 142.812V143.047C171.166 143.301 171.201 143.535 171.271 143.75C171.346 143.965 171.449 144.15 171.582 144.307C171.719 144.463 171.883 144.584 172.074 144.67C172.27 144.756 172.49 144.799 172.736 144.799C173.041 144.799 173.324 144.74 173.586 144.623C173.852 144.502 174.08 144.32 174.271 144.078L175.092 144.969C174.959 145.16 174.777 145.344 174.547 145.52C174.32 145.695 174.047 145.84 173.727 145.953C173.406 146.062 173.041 146.117 172.631 146.117ZM177.881 141.043V146H176.193V139.66H177.781L177.881 141.043ZM179.791 139.619L179.762 141.184C179.68 141.172 179.58 141.162 179.463 141.154C179.35 141.143 179.246 141.137 179.152 141.137C178.914 141.137 178.707 141.168 178.531 141.23C178.359 141.289 178.215 141.377 178.098 141.494C177.984 141.611 177.898 141.754 177.84 141.922C177.785 142.09 177.754 142.281 177.746 142.496L177.406 142.391C177.406 141.98 177.447 141.604 177.529 141.26C177.611 140.912 177.73 140.609 177.887 140.352C178.047 140.094 178.242 139.895 178.473 139.754C178.703 139.613 178.967 139.543 179.264 139.543C179.357 139.543 179.453 139.551 179.551 139.566C179.648 139.578 179.729 139.596 179.791 139.619ZM184.016 144.248C184.016 144.127 183.98 144.018 183.91 143.92C183.84 143.822 183.709 143.732 183.518 143.65C183.33 143.564 183.059 143.486 182.703 143.416C182.383 143.346 182.084 143.258 181.807 143.152C181.533 143.043 181.295 142.912 181.092 142.76C180.893 142.607 180.736 142.428 180.623 142.221C180.51 142.01 180.453 141.77 180.453 141.5C180.453 141.234 180.51 140.984 180.623 140.75C180.74 140.516 180.906 140.309 181.121 140.129C181.34 139.945 181.605 139.803 181.918 139.701C182.234 139.596 182.59 139.543 182.984 139.543C183.535 139.543 184.008 139.631 184.402 139.807C184.801 139.982 185.105 140.225 185.316 140.533C185.531 140.838 185.639 141.186 185.639 141.576H183.951C183.951 141.412 183.916 141.266 183.846 141.137C183.779 141.004 183.674 140.9 183.529 140.826C183.389 140.748 183.205 140.709 182.979 140.709C182.791 140.709 182.629 140.742 182.492 140.809C182.355 140.871 182.25 140.957 182.176 141.066C182.105 141.172 182.07 141.289 182.07 141.418C182.07 141.516 182.09 141.604 182.129 141.682C182.172 141.756 182.24 141.824 182.334 141.887C182.428 141.949 182.549 142.008 182.697 142.062C182.85 142.113 183.037 142.16 183.26 142.203C183.717 142.297 184.125 142.42 184.484 142.572C184.844 142.721 185.129 142.924 185.34 143.182C185.551 143.436 185.656 143.77 185.656 144.184C185.656 144.465 185.594 144.723 185.469 144.957C185.344 145.191 185.164 145.396 184.93 145.572C184.695 145.744 184.414 145.879 184.086 145.977C183.762 146.07 183.396 146.117 182.99 146.117C182.4 146.117 181.9 146.012 181.49 145.801C181.084 145.59 180.775 145.322 180.564 144.998C180.357 144.67 180.254 144.334 180.254 143.99H181.854C181.861 144.221 181.92 144.406 182.029 144.547C182.143 144.688 182.285 144.789 182.457 144.852C182.633 144.914 182.822 144.945 183.025 144.945C183.244 144.945 183.426 144.916 183.57 144.857C183.715 144.795 183.824 144.713 183.898 144.611C183.977 144.506 184.016 144.385 184.016 144.248ZM186.482 142.895V142.771C186.482 142.307 186.549 141.879 186.682 141.488C186.814 141.094 187.008 140.752 187.262 140.463C187.516 140.174 187.828 139.949 188.199 139.789C188.57 139.625 188.996 139.543 189.477 139.543C189.957 139.543 190.385 139.625 190.76 139.789C191.135 139.949 191.449 140.174 191.703 140.463C191.961 140.752 192.156 141.094 192.289 141.488C192.422 141.879 192.488 142.307 192.488 142.771V142.895C192.488 143.355 192.422 143.783 192.289 144.178C192.156 144.568 191.961 144.91 191.703 145.203C191.449 145.492 191.137 145.717 190.766 145.877C190.395 146.037 189.969 146.117 189.488 146.117C189.008 146.117 188.58 146.037 188.205 145.877C187.834 145.717 187.52 145.492 187.262 145.203C187.008 144.91 186.814 144.568 186.682 144.178C186.549 143.783 186.482 143.355 186.482 142.895ZM188.17 142.771V142.895C188.17 143.16 188.193 143.408 188.24 143.639C188.287 143.869 188.361 144.072 188.463 144.248C188.568 144.42 188.705 144.555 188.873 144.652C189.041 144.75 189.246 144.799 189.488 144.799C189.723 144.799 189.924 144.75 190.092 144.652C190.26 144.555 190.395 144.42 190.496 144.248C190.598 144.072 190.672 143.869 190.719 143.639C190.77 143.408 190.795 143.16 190.795 142.895V142.771C190.795 142.514 190.77 142.271 190.719 142.045C190.672 141.814 190.596 141.611 190.49 141.436C190.389 141.256 190.254 141.115 190.086 141.014C189.918 140.912 189.715 140.861 189.477 140.861C189.238 140.861 189.035 140.912 188.867 141.014C188.703 141.115 188.568 141.256 188.463 141.436C188.361 141.611 188.287 141.814 188.24 142.045C188.193 142.271 188.17 142.514 188.17 142.771ZM195.178 141.014V146H193.49V139.66H195.072L195.178 141.014ZM194.932 142.607H194.475C194.475 142.139 194.535 141.717 194.656 141.342C194.777 140.963 194.947 140.641 195.166 140.375C195.385 140.105 195.645 139.9 195.945 139.76C196.25 139.615 196.59 139.543 196.965 139.543C197.262 139.543 197.533 139.586 197.779 139.672C198.025 139.758 198.236 139.895 198.412 140.082C198.592 140.27 198.729 140.518 198.822 140.826C198.92 141.135 198.969 141.512 198.969 141.957V146H197.27V141.951C197.27 141.67 197.23 141.451 197.152 141.295C197.074 141.139 196.959 141.029 196.807 140.967C196.658 140.9 196.475 140.867 196.256 140.867C196.029 140.867 195.832 140.912 195.664 141.002C195.5 141.092 195.363 141.217 195.254 141.377C195.148 141.533 195.068 141.717 195.014 141.928C194.959 142.139 194.932 142.365 194.932 142.607Z" fill="black"/>
<rect x="411.5" y="92.5" width="99" height="99" fill="#CFCFCF" stroke="black"/>
<path d="M453.607 140.943V142.314H449.154V140.943H453.607ZM449.676 137.469V146H447.918V137.469H449.676ZM454.861 137.469V146H453.109V137.469H454.861ZM460.035 144.482V139.66H461.723V146H460.135L460.035 144.482ZM460.223 143.182L460.721 143.17C460.721 143.592 460.672 143.984 460.574 144.348C460.477 144.707 460.33 145.02 460.135 145.285C459.939 145.547 459.693 145.752 459.396 145.9C459.1 146.045 458.75 146.117 458.348 146.117C458.039 146.117 457.754 146.074 457.492 145.988C457.234 145.898 457.012 145.76 456.824 145.572C456.641 145.381 456.496 145.137 456.391 144.84C456.289 144.539 456.238 144.178 456.238 143.756V139.66H457.926V143.768C457.926 143.955 457.947 144.113 457.99 144.242C458.037 144.371 458.102 144.477 458.184 144.559C458.266 144.641 458.361 144.699 458.471 144.734C458.584 144.77 458.709 144.787 458.846 144.787C459.193 144.787 459.467 144.717 459.666 144.576C459.869 144.436 460.012 144.244 460.094 144.002C460.18 143.756 460.223 143.482 460.223 143.182ZM464.664 141.014V146H462.977V139.66H464.559L464.664 141.014ZM464.418 142.607H463.961C463.961 142.139 464.021 141.717 464.143 141.342C464.264 140.963 464.434 140.641 464.652 140.375C464.871 140.105 465.131 139.9 465.432 139.76C465.736 139.615 466.076 139.543 466.451 139.543C466.748 139.543 467.02 139.586 467.266 139.672C467.512 139.758 467.723 139.895 467.898 140.082C468.078 140.27 468.215 140.518 468.309 140.826C468.406 141.135 468.455 141.512 468.455 141.957V146H466.756V141.951C466.756 141.67 466.717 141.451 466.639 141.295C466.561 141.139 466.445 141.029 466.293 140.967C466.145 140.9 465.961 140.867 465.742 140.867C465.516 140.867 465.318 140.912 465.15 141.002C464.986 141.092 464.85 141.217 464.74 141.377C464.635 141.533 464.555 141.717 464.5 141.928C464.445 142.139 464.418 142.365 464.418 142.607ZM473.482 144.617V137H475.182V146H473.652L473.482 144.617ZM469.475 142.906V142.783C469.475 142.299 469.529 141.859 469.639 141.465C469.748 141.066 469.908 140.725 470.119 140.439C470.33 140.154 470.59 139.934 470.898 139.777C471.207 139.621 471.559 139.543 471.953 139.543C472.324 139.543 472.648 139.621 472.926 139.777C473.207 139.934 473.445 140.156 473.641 140.445C473.84 140.73 474 141.068 474.121 141.459C474.242 141.846 474.33 142.27 474.385 142.73V143C474.33 143.441 474.242 143.852 474.121 144.23C474 144.609 473.84 144.941 473.641 145.227C473.445 145.508 473.207 145.727 472.926 145.883C472.645 146.039 472.316 146.117 471.941 146.117C471.547 146.117 471.195 146.037 470.887 145.877C470.582 145.717 470.324 145.492 470.113 145.203C469.906 144.914 469.748 144.574 469.639 144.184C469.529 143.793 469.475 143.367 469.475 142.906ZM471.162 142.783V142.906C471.162 143.168 471.182 143.412 471.221 143.639C471.264 143.865 471.332 144.066 471.426 144.242C471.523 144.414 471.648 144.549 471.801 144.646C471.957 144.74 472.146 144.787 472.369 144.787C472.658 144.787 472.896 144.723 473.084 144.594C473.271 144.461 473.414 144.279 473.512 144.049C473.613 143.818 473.672 143.553 473.688 143.252V142.484C473.676 142.238 473.641 142.018 473.582 141.822C473.527 141.623 473.445 141.453 473.336 141.312C473.23 141.172 473.098 141.062 472.938 140.984C472.781 140.906 472.596 140.867 472.381 140.867C472.162 140.867 471.975 140.918 471.818 141.02C471.662 141.117 471.535 141.252 471.438 141.424C471.344 141.596 471.273 141.799 471.227 142.033C471.184 142.264 471.162 142.514 471.162 142.783Z" fill="black"/>
<rect x="320.426" y="0.707107" width="59" height="59" transform="rotate(45 320.426 0.707107)" fill="#E0E0E0" stroke="black"/>
<path d="M316.691 44.834V46H312.162V44.834H316.691ZM312.578 37.4688V46H311.107V37.4688H312.578ZM316.1 41.0312V42.1797H312.162V41.0312H316.1ZM316.662 37.4688V38.6406H312.162V37.4688H316.662ZM319.264 39.6602V46H317.846V39.6602H319.264ZM317.752 37.9961C317.752 37.7812 317.822 37.6035 317.963 37.4629C318.107 37.3184 318.307 37.2461 318.561 37.2461C318.811 37.2461 319.008 37.3184 319.152 37.4629C319.297 37.6035 319.369 37.7812 319.369 37.9961C319.369 38.207 319.297 38.3828 319.152 38.5234C319.008 38.6641 318.811 38.7344 318.561 38.7344C318.307 38.7344 318.107 38.6641 317.963 38.5234C317.822 38.3828 317.752 38.207 317.752 37.9961ZM323.605 46.1172C323.137 46.1172 322.713 46.041 322.334 45.8887C321.959 45.7324 321.639 45.5156 321.373 45.2383C321.111 44.9609 320.91 44.6348 320.77 44.2598C320.629 43.8848 320.559 43.4805 320.559 43.0469V42.8125C320.559 42.3164 320.631 41.8672 320.775 41.4648C320.92 41.0625 321.121 40.7188 321.379 40.4336C321.637 40.1445 321.941 39.9238 322.293 39.7715C322.645 39.6191 323.025 39.543 323.436 39.543C323.889 39.543 324.285 39.6191 324.625 39.7715C324.965 39.9238 325.246 40.1387 325.469 40.416C325.695 40.6895 325.863 41.0156 325.973 41.3945C326.086 41.7734 326.143 42.1914 326.143 42.6484V43.252H321.244V42.2383H324.748V42.127C324.74 41.873 324.689 41.6348 324.596 41.4121C324.506 41.1895 324.367 41.0098 324.18 40.873C323.992 40.7363 323.742 40.668 323.43 40.668C323.195 40.668 322.986 40.7188 322.803 40.8203C322.623 40.918 322.473 41.0605 322.352 41.248C322.23 41.4355 322.137 41.6621 322.07 41.9277C322.008 42.1895 321.977 42.4844 321.977 42.8125V43.0469C321.977 43.3242 322.014 43.582 322.088 43.8203C322.166 44.0547 322.279 44.2598 322.428 44.4355C322.576 44.6113 322.756 44.75 322.967 44.8516C323.178 44.9492 323.418 44.998 323.688 44.998C324.027 44.998 324.33 44.9297 324.596 44.793C324.861 44.6562 325.092 44.4629 325.287 44.2129L326.031 44.9336C325.895 45.1328 325.717 45.3242 325.498 45.5078C325.279 45.6875 325.012 45.834 324.695 45.9473C324.383 46.0605 324.02 46.1172 323.605 46.1172ZM328.662 40.8672V46H327.25V39.6602H328.598L328.662 40.8672ZM330.602 39.6191L330.59 40.9316C330.504 40.916 330.41 40.9043 330.309 40.8965C330.211 40.8887 330.113 40.8848 330.016 40.8848C329.773 40.8848 329.561 40.9199 329.377 40.9902C329.193 41.0566 329.039 41.1543 328.914 41.2832C328.793 41.4082 328.699 41.5605 328.633 41.7402C328.566 41.9199 328.527 42.1211 328.516 42.3438L328.193 42.3672C328.193 41.9688 328.232 41.5996 328.311 41.2598C328.389 40.9199 328.506 40.6211 328.662 40.3633C328.822 40.1055 329.021 39.9043 329.26 39.7598C329.502 39.6152 329.781 39.543 330.098 39.543C330.184 39.543 330.275 39.5508 330.373 39.5664C330.475 39.582 330.551 39.5996 330.602 39.6191Z" fill="black"/>
<rect x="320.426" y="199.707" width="59" height="59" transform="rotate(45 320.426 199.707)" fill="#E0E0E0" stroke="black"/>
<path d="M308.441 241.145H306.268L306.256 240.072H308.154C308.475 240.072 308.746 240.025 308.969 239.932C309.195 239.834 309.367 239.695 309.484 239.516C309.602 239.332 309.66 239.111 309.66 238.854C309.66 238.568 309.605 238.336 309.496 238.156C309.387 237.977 309.219 237.846 308.992 237.764C308.77 237.682 308.484 237.641 308.137 237.641H306.713V245H305.242V236.469H308.137C308.605 236.469 309.023 236.514 309.391 236.604C309.762 236.693 310.076 236.834 310.334 237.025C310.596 237.213 310.793 237.451 310.926 237.74C311.062 238.029 311.131 238.373 311.131 238.771C311.131 239.123 311.047 239.445 310.879 239.738C310.711 240.027 310.463 240.264 310.135 240.447C309.807 240.631 309.398 240.74 308.91 240.775L308.441 241.145ZM308.377 245H305.805L306.467 243.834H308.377C308.709 243.834 308.986 243.779 309.209 243.67C309.432 243.557 309.598 243.402 309.707 243.207C309.82 243.008 309.877 242.775 309.877 242.51C309.877 242.232 309.828 241.992 309.73 241.789C309.633 241.582 309.479 241.424 309.268 241.314C309.057 241.201 308.781 241.145 308.441 241.145H306.789L306.801 240.072H308.951L309.285 240.477C309.754 240.492 310.139 240.596 310.439 240.787C310.744 240.979 310.971 241.227 311.119 241.531C311.268 241.836 311.342 242.164 311.342 242.516C311.342 243.059 311.223 243.514 310.984 243.881C310.75 244.248 310.412 244.527 309.971 244.719C309.529 244.906 308.998 245 308.377 245ZM314.195 238.66V245H312.777V238.66H314.195ZM312.684 236.996C312.684 236.781 312.754 236.604 312.895 236.463C313.039 236.318 313.238 236.246 313.492 236.246C313.742 236.246 313.939 236.318 314.084 236.463C314.229 236.604 314.301 236.781 314.301 236.996C314.301 237.207 314.229 237.383 314.084 237.523C313.939 237.664 313.742 237.734 313.492 237.734C313.238 237.734 313.039 237.664 312.895 237.523C312.754 237.383 312.684 237.207 312.684 236.996ZM318.648 238.66V239.691H315.074V238.66H318.648ZM316.105 237.107H317.518V243.248C317.518 243.443 317.545 243.594 317.6 243.699C317.658 243.801 317.738 243.869 317.84 243.904C317.941 243.939 318.061 243.957 318.197 243.957C318.295 243.957 318.389 243.951 318.479 243.939C318.568 243.928 318.641 243.916 318.695 243.904L318.701 244.982C318.584 245.018 318.447 245.049 318.291 245.076C318.139 245.104 317.963 245.117 317.764 245.117C317.439 245.117 317.152 245.061 316.902 244.947C316.652 244.83 316.457 244.641 316.316 244.379C316.176 244.117 316.105 243.77 316.105 243.336V237.107ZM322.645 238.66V239.691H319.07V238.66H322.645ZM320.102 237.107H321.514V243.248C321.514 243.443 321.541 243.594 321.596 243.699C321.654 243.801 321.734 243.869 321.836 243.904C321.938 243.939 322.057 243.957 322.193 243.957C322.291 243.957 322.385 243.951 322.475 243.939C322.564 243.928 322.637 243.916 322.691 243.904L322.697 244.982C322.58 245.018 322.443 245.049 322.287 245.076C322.135 245.104 321.959 245.117 321.76 245.117C321.436 245.117 321.148 245.061 320.898 244.947C320.648 244.83 320.453 244.641 320.312 244.379C320.172 244.117 320.102 243.77 320.102 243.336V237.107ZM327.197 237.605L324.648 245H323.107L326.318 236.469H327.303L327.197 237.605ZM329.33 245L326.775 237.605L326.664 236.469H327.654L330.877 245H329.33ZM329.207 241.836V243.002H324.566V241.836H329.207ZM333.461 243.881L335.014 238.66H336.479L334.275 245H333.361L333.461 243.881ZM332.271 238.66L333.854 243.904L333.93 245H333.016L330.801 238.66H332.271Z" fill="black"/>
<path d="M191.307 83.5898V83.5312C191.307 82.6797 191.402 81.9102 191.594 81.2227C191.785 80.5312 192.029 79.9258 192.326 79.4062C192.623 78.8867 192.936 78.457 193.264 78.1172C193.592 77.7734 193.895 77.5254 194.172 77.373L194.4 78.0879C194.17 78.2637 193.936 78.5059 193.697 78.8145C193.463 79.123 193.246 79.502 193.047 79.9512C192.852 80.4004 192.693 80.9219 192.572 81.5156C192.451 82.1094 192.391 82.7773 192.391 83.5195V83.6016C192.391 84.3438 192.451 85.0137 192.572 85.6113C192.693 86.2051 192.852 86.7285 193.047 87.1816C193.246 87.6348 193.463 88.0195 193.697 88.3359C193.936 88.6562 194.17 88.9102 194.4 89.0977L194.172 89.7539C193.895 89.6016 193.592 89.3535 193.264 89.0098C192.936 88.6699 192.623 88.2402 192.326 87.7207C192.029 87.2051 191.785 86.6016 191.594 85.9102C191.402 85.2188 191.307 84.4453 191.307 83.5898ZM200.699 82.0547V83.3555C200.699 84.0547 200.637 84.6445 200.512 85.125C200.387 85.6055 200.207 85.9922 199.973 86.2852C199.738 86.5781 199.455 86.791 199.123 86.9238C198.795 87.0527 198.424 87.1172 198.01 87.1172C197.682 87.1172 197.379 87.0762 197.102 86.9941C196.824 86.9121 196.574 86.7812 196.352 86.6016C196.133 86.418 195.945 86.1797 195.789 85.8867C195.633 85.5938 195.514 85.2383 195.432 84.8203C195.35 84.4023 195.309 83.9141 195.309 83.3555V82.0547C195.309 81.3555 195.371 80.7695 195.496 80.2969C195.625 79.8242 195.807 79.4453 196.041 79.1602C196.275 78.8711 196.557 78.6641 196.885 78.5391C197.217 78.4141 197.588 78.3516 197.998 78.3516C198.33 78.3516 198.635 78.3926 198.912 78.4746C199.193 78.5527 199.443 78.6797 199.662 78.8555C199.881 79.0273 200.066 79.2578 200.219 79.5469C200.375 79.832 200.494 80.1816 200.576 80.5957C200.658 81.0098 200.699 81.4961 200.699 82.0547ZM199.609 83.5312V81.873C199.609 81.4902 199.586 81.1543 199.539 80.8652C199.496 80.5723 199.432 80.3223 199.346 80.1152C199.26 79.9082 199.15 79.7402 199.018 79.6113C198.889 79.4824 198.738 79.3887 198.566 79.3301C198.398 79.2676 198.209 79.2363 197.998 79.2363C197.74 79.2363 197.512 79.2852 197.312 79.3828C197.113 79.4766 196.945 79.627 196.809 79.834C196.676 80.041 196.574 80.3125 196.504 80.6484C196.434 80.9844 196.398 81.3926 196.398 81.873V83.5312C196.398 83.9141 196.42 84.252 196.463 84.5449C196.51 84.8379 196.578 85.0918 196.668 85.3066C196.758 85.5176 196.867 85.6914 196.996 85.8281C197.125 85.9648 197.273 86.0664 197.441 86.1328C197.613 86.1953 197.803 86.2266 198.01 86.2266C198.275 86.2266 198.508 86.1758 198.707 86.0742C198.906 85.9727 199.072 85.8145 199.205 85.5996C199.342 85.3809 199.443 85.1016 199.51 84.7617C199.576 84.418 199.609 84.0078 199.609 83.5312ZM203.195 85.7109V86.584C203.195 86.9395 203.105 87.3145 202.926 87.709C202.746 88.1074 202.494 88.4395 202.17 88.7051L201.555 88.2773C201.68 88.1055 201.785 87.9297 201.871 87.75C201.957 87.5742 202.021 87.3906 202.064 87.1992C202.111 87.0117 202.135 86.8125 202.135 86.6016V85.7109H203.195ZM214.281 78.4688V87H213.145L208.85 80.4199V87H207.719V78.4688H208.85L213.162 85.0664V78.4688H214.281ZM218.617 83.5312V83.5898C218.617 84.4453 218.521 85.2188 218.33 85.9102C218.139 86.6016 217.895 87.2051 217.598 87.7207C217.301 88.2402 216.988 88.6699 216.66 89.0098C216.332 89.3535 216.029 89.6016 215.752 89.7539L215.523 89.0977C215.754 88.9219 215.986 88.6758 216.221 88.3594C216.455 88.0469 216.672 87.6602 216.871 87.1992C217.07 86.7422 217.23 86.2148 217.352 85.6172C217.473 85.0156 217.533 84.3438 217.533 83.6016V83.5195C217.533 82.7773 217.469 82.1074 217.34 81.5098C217.211 80.9082 217.043 80.3789 216.836 79.9219C216.633 79.4648 216.414 79.0801 216.18 78.7676C215.949 78.4512 215.73 78.207 215.523 78.0352L215.752 77.373C216.029 77.5254 216.332 77.7734 216.66 78.1172C216.988 78.457 217.301 78.8867 217.598 79.4062C217.895 79.9258 218.139 80.5312 218.33 81.2227C218.521 81.9102 218.617 82.6797 218.617 83.5312Z" fill="black"/>
<path d="M424.215 83.5898V83.5312C424.215 82.6797 424.311 81.9102 424.502 81.2227C424.693 80.5312 424.938 79.9258 425.234 79.4062C425.531 78.8867 425.844 78.457 426.172 78.1172C426.5 77.7734 426.803 77.5254 427.08 77.373L427.309 78.0879C427.078 78.2637 426.844 78.5059 426.605 78.8145C426.371 79.123 426.154 79.502 425.955 79.9512C425.76 80.4004 425.602 80.9219 425.48 81.5156C425.359 82.1094 425.299 82.7773 425.299 83.5195V83.6016C425.299 84.3438 425.359 85.0137 425.48 85.6113C425.602 86.2051 425.76 86.7285 425.955 87.1816C426.154 87.6348 426.371 88.0195 426.605 88.3359C426.844 88.6562 427.078 88.9102 427.309 89.0977L427.08 89.7539C426.803 89.6016 426.5 89.3535 426.172 89.0098C425.844 88.6699 425.531 88.2402 425.234 87.7207C424.938 87.2051 424.693 86.6016 424.502 85.9102C424.311 85.2188 424.215 84.4453 424.215 83.5898ZM431.814 78.4219V87H430.73V79.7754L428.545 80.5723V79.5938L431.645 78.4219H431.814ZM436.104 85.7109V86.584C436.104 86.9395 436.014 87.3145 435.834 87.709C435.654 88.1074 435.402 88.4395 435.078 88.7051L434.463 88.2773C434.588 88.1055 434.693 87.9297 434.779 87.75C434.865 87.5742 434.93 87.3906 434.973 87.1992C435.02 87.0117 435.043 86.8125 435.043 86.6016V85.7109H436.104ZM443.908 78.4219V87H442.824V79.7754L440.639 80.5723V79.5938L443.738 78.4219H443.908ZM449.709 83.5312V83.5898C449.709 84.4453 449.613 85.2188 449.422 85.9102C449.23 86.6016 448.986 87.2051 448.689 87.7207C448.393 88.2402 448.08 88.6699 447.752 89.0098C447.424 89.3535 447.121 89.6016 446.844 89.7539L446.615 89.0977C446.846 88.9219 447.078 88.6758 447.312 88.3594C447.547 88.0469 447.764 87.6602 447.963 87.1992C448.162 86.7422 448.322 86.2148 448.443 85.6172C448.564 85.0156 448.625 84.3438 448.625 83.6016V83.5195C448.625 82.7773 448.561 82.1074 448.432 81.5098C448.303 80.9082 448.135 80.3789 447.928 79.9219C447.725 79.4648 447.506 79.0801 447.271 78.7676C447.041 78.4512 446.822 78.207 446.615 78.0352L446.844 77.373C447.121 77.5254 447.424 77.7734 447.752 78.1172C448.08 78.457 448.393 78.8867 448.689 79.4062C448.986 79.9258 449.23 80.5312 449.422 81.2227C449.613 81.9102 449.709 82.6797 449.709 83.5312Z" fill="black"/>
<path d="M423.307 201.59V201.531C423.307 200.68 423.402 199.91 423.594 199.223C423.785 198.531 424.029 197.926 424.326 197.406C424.623 196.887 424.936 196.457 425.264 196.117C425.592 195.773 425.895 195.525 426.172 195.373L426.4 196.088C426.17 196.264 425.936 196.506 425.697 196.814C425.463 197.123 425.246 197.502 425.047 197.951C424.852 198.4 424.693 198.922 424.572 199.516C424.451 200.109 424.391 200.777 424.391 201.52V201.602C424.391 202.344 424.451 203.014 424.572 203.611C424.693 204.205 424.852 204.729 425.047 205.182C425.246 205.635 425.463 206.02 425.697 206.336C425.936 206.656 426.17 206.91 426.4 207.098L426.172 207.754C425.895 207.602 425.592 207.354 425.264 207.01C424.936 206.67 424.623 206.24 424.326 205.721C424.029 205.205 423.785 204.602 423.594 203.91C423.402 203.219 423.307 202.445 423.307 201.59ZM432.699 200.055V201.355C432.699 202.055 432.637 202.645 432.512 203.125C432.387 203.605 432.207 203.992 431.973 204.285C431.738 204.578 431.455 204.791 431.123 204.924C430.795 205.053 430.424 205.117 430.01 205.117C429.682 205.117 429.379 205.076 429.102 204.994C428.824 204.912 428.574 204.781 428.352 204.602C428.133 204.418 427.945 204.18 427.789 203.887C427.633 203.594 427.514 203.238 427.432 202.82C427.35 202.402 427.309 201.914 427.309 201.355V200.055C427.309 199.355 427.371 198.77 427.496 198.297C427.625 197.824 427.807 197.445 428.041 197.16C428.275 196.871 428.557 196.664 428.885 196.539C429.217 196.414 429.588 196.352 429.998 196.352C430.33 196.352 430.635 196.393 430.912 196.475C431.193 196.553 431.443 196.68 431.662 196.855C431.881 197.027 432.066 197.258 432.219 197.547C432.375 197.832 432.494 198.182 432.576 198.596C432.658 199.01 432.699 199.496 432.699 200.055ZM431.609 201.531V199.873C431.609 199.49 431.586 199.154 431.539 198.865C431.496 198.572 431.432 198.322 431.346 198.115C431.26 197.908 431.15 197.74 431.018 197.611C430.889 197.482 430.738 197.389 430.566 197.33C430.398 197.268 430.209 197.236 429.998 197.236C429.74 197.236 429.512 197.285 429.312 197.383C429.113 197.477 428.945 197.627 428.809 197.834C428.676 198.041 428.574 198.312 428.504 198.648C428.434 198.984 428.398 199.393 428.398 199.873V201.531C428.398 201.914 428.42 202.252 428.463 202.545C428.51 202.838 428.578 203.092 428.668 203.307C428.758 203.518 428.867 203.691 428.996 203.828C429.125 203.965 429.273 204.066 429.441 204.133C429.613 204.195 429.803 204.227 430.01 204.227C430.275 204.227 430.508 204.176 430.707 204.074C430.906 203.973 431.072 203.814 431.205 203.6C431.342 203.381 431.443 203.102 431.51 202.762C431.576 202.418 431.609 202.008 431.609 201.531ZM435.195 203.711V204.584C435.195 204.939 435.105 205.314 434.926 205.709C434.746 206.107 434.494 206.439 434.17 206.705L433.555 206.277C433.68 206.105 433.785 205.93 433.871 205.75C433.957 205.574 434.021 205.391 434.064 205.199C434.111 205.012 434.135 204.812 434.135 204.602V203.711H435.195ZM446.281 196.469V205H445.145L440.85 198.42V205H439.719V196.469H440.85L445.162 203.066V196.469H446.281ZM450.617 201.531V201.59C450.617 202.445 450.521 203.219 450.33 203.91C450.139 204.602 449.895 205.205 449.598 205.721C449.301 206.24 448.988 206.67 448.66 207.01C448.332 207.354 448.029 207.602 447.752 207.754L447.523 207.098C447.754 206.922 447.986 206.676 448.221 206.359C448.455 206.047 448.672 205.66 448.871 205.199C449.07 204.742 449.23 204.215 449.352 203.617C449.473 203.016 449.533 202.344 449.533 201.602V201.52C449.533 200.777 449.469 200.107 449.34 199.51C449.211 198.908 449.043 198.379 448.836 197.922C448.633 197.465 448.414 197.08 448.18 196.768C447.949 196.451 447.73 196.207 447.523 196.035L447.752 195.373C448.029 195.525 448.332 195.773 448.66 196.117C448.988 196.457 449.301 196.887 449.598 197.406C449.895 197.926 450.139 198.531 450.33 199.223C450.521 199.91 450.617 200.68 450.617 201.531Z" fill="black"/>
<path d="M191.307 201.59V201.531C191.307 200.68 191.402 199.91 191.594 199.223C191.785 198.531 192.029 197.926 192.326 197.406C192.623 196.887 192.936 196.457 193.264 196.117C193.592 195.773 193.895 195.525 194.172 195.373L194.4 196.088C194.17 196.264 193.936 196.506 193.697 196.814C193.463 197.123 193.246 197.502 193.047 197.951C192.852 198.4 192.693 198.922 192.572 199.516C192.451 200.109 192.391 200.777 192.391 201.52V201.602C192.391 202.344 192.451 203.014 192.572 203.611C192.693 204.205 192.852 204.729 193.047 205.182C193.246 205.635 193.463 206.02 193.697 206.336C193.936 206.656 194.17 206.91 194.4 207.098L194.172 207.754C193.895 207.602 193.592 207.354 193.264 207.01C192.936 206.67 192.623 206.24 192.326 205.721C192.029 205.205 191.785 204.602 191.594 203.91C191.402 203.219 191.307 202.445 191.307 201.59ZM200.699 200.055V201.355C200.699 202.055 200.637 202.645 200.512 203.125C200.387 203.605 200.207 203.992 199.973 204.285C199.738 204.578 199.455 204.791 199.123 204.924C198.795 205.053 198.424 205.117 198.01 205.117C197.682 205.117 197.379 205.076 197.102 204.994C196.824 204.912 196.574 204.781 196.352 204.602C196.133 204.418 195.945 204.18 195.789 203.887C195.633 203.594 195.514 203.238 195.432 202.82C195.35 202.402 195.309 201.914 195.309 201.355V200.055C195.309 199.355 195.371 198.77 195.496 198.297C195.625 197.824 195.807 197.445 196.041 197.16C196.275 196.871 196.557 196.664 196.885 196.539C197.217 196.414 197.588 196.352 197.998 196.352C198.33 196.352 198.635 196.393 198.912 196.475C199.193 196.553 199.443 196.68 199.662 196.855C199.881 197.027 200.066 197.258 200.219 197.547C200.375 197.832 200.494 198.182 200.576 198.596C200.658 199.01 200.699 199.496 200.699 200.055ZM199.609 201.531V199.873C199.609 199.49 199.586 199.154 199.539 198.865C199.496 198.572 199.432 198.322 199.346 198.115C199.26 197.908 199.15 197.74 199.018 197.611C198.889 197.482 198.738 197.389 198.566 197.33C198.398 197.268 198.209 197.236 197.998 197.236C197.74 197.236 197.512 197.285 197.312 197.383C197.113 197.477 196.945 197.627 196.809 197.834C196.676 198.041 196.574 198.312 196.504 198.648C196.434 198.984 196.398 199.393 196.398 199.873V201.531C196.398 201.914 196.42 202.252 196.463 202.545C196.51 202.838 196.578 203.092 196.668 203.307C196.758 203.518 196.867 203.691 196.996 203.828C197.125 203.965 197.273 204.066 197.441 204.133C197.613 204.195 197.803 204.227 198.01 204.227C198.275 204.227 198.508 204.176 198.707 204.074C198.906 203.973 199.072 203.814 199.205 203.6C199.342 203.381 199.443 203.102 199.51 202.762C199.576 202.418 199.609 202.008 199.609 201.531ZM203.195 203.711V204.584C203.195 204.939 203.105 205.314 202.926 205.709C202.746 206.107 202.494 206.439 202.17 206.705L201.555 206.277C201.68 206.105 201.785 205.93 201.871 205.75C201.957 205.574 202.021 205.391 202.064 205.199C202.111 205.012 202.135 204.812 202.135 204.602V203.711H203.195ZM214.281 196.469V205H213.145L208.85 198.42V205H207.719V196.469H208.85L213.162 203.066V196.469H214.281ZM218.617 201.531V201.59C218.617 202.445 218.521 203.219 218.33 203.91C218.139 204.602 217.895 205.205 217.598 205.721C217.301 206.24 216.988 206.67 216.66 207.01C216.332 207.354 216.029 207.602 215.752 207.754L215.523 207.098C215.754 206.922 215.986 206.676 216.221 206.359C216.455 206.047 216.672 205.66 216.871 205.199C217.07 204.742 217.23 204.215 217.352 203.617C217.473 203.016 217.533 202.344 217.533 201.602V201.52C217.533 200.777 217.469 200.107 217.34 199.51C217.211 198.908 217.043 198.379 216.836 197.922C216.633 197.465 216.414 197.08 216.18 196.768C215.949 196.451 215.73 196.207 215.523 196.035L215.752 195.373C216.029 195.525 216.332 195.773 216.66 196.117C216.988 196.457 217.301 196.887 217.598 197.406C217.895 197.926 218.139 198.531 218.33 199.223C218.521 199.91 218.617 200.68 218.617 201.531Z" fill="black"/>
<path fill-rule="evenodd" clip-rule="evenodd" d="M461 192C461 198.435 459.733 204.807 457.27 210.751C454.808 216.696 451.198 222.098 446.648 226.648C442.098 231.198 436.696 234.808 430.751 237.27C424.807 239.733 418.435 241 412 241V242C418.566 242 425.068 240.707 431.134 238.194C437.2 235.681 442.712 231.998 447.355 227.355C451.998 222.712 455.681 217.2 458.194 211.134C460.707 205.068 462 198.566 462 192H461Z" fill="black"/>
<rect x="362" y="241" width="50" height="1" fill="black"/>
<path fill-rule="evenodd" clip-rule="evenodd" d="M461 92C461 85.5652 459.733 79.1935 457.27 73.2485C454.808 67.3036 451.198 61.9018 446.648 57.3518C442.098 52.8017 436.696 49.1924 430.751 46.7299C424.807 44.2674 418.435 43 412 43V42C418.566 42 425.068 43.2933 431.134 45.806C437.2 48.3188 442.712 52.0017 447.355 56.6447C451.998 61.2876 455.681 66.7995 458.194 72.8658C460.707 78.9321 462 85.4339 462 92H461Z" fill="black"/>
<rect width="50" height="1" transform="matrix(1 0 0 -1 362 43)" fill="black"/>
<path fill-rule="evenodd" clip-rule="evenodd" d="M180 92C180 85.5652 181.267 79.1935 183.73 73.2485C186.192 67.3036 189.802 61.9018 194.352 57.3518C198.902 52.8017 204.304 49.1924 210.249 46.7299C216.193 44.2674 222.565 43 229 43V42C222.434 42 215.932 43.2933 209.866 45.806C203.8 48.3188 198.288 52.0017 193.645 56.6447C189.002 61.2876 185.319 66.7995 182.806 72.8658C180.293 78.9321 179 85.4339 179 92H180Z" fill="black"/>
<rect x="279" y="43" width="50" height="1" transform="rotate(-180 279 43)" fill="black"/>
<path fill-rule="evenodd" clip-rule="evenodd" d="M180 191C180 197.435 181.267 203.807 183.73 209.751C186.192 215.696 189.802 221.098 194.352 225.648C198.902 230.198 204.304 233.808 210.249 236.27C216.193 238.733 222.565 240 229 240V241C222.434 241 215.932 239.707 209.866 237.194C203.8 234.681 198.288 230.998 193.645 226.355C189.002 221.712 185.319 216.2 182.806 210.134C180.293 204.068 179 197.566 179 191H180Z" fill="black"/>
<rect width="50" height="1" transform="matrix(-1 0 0 1 279 240)" fill="black"/>
<path d="M561 92L511 142" stroke="black"/>
<path d="M561 192L511 142" stroke="black"/>
<rect x="511" y="142" width="50" height="1" fill="black"/>
<rect x="561.5" y="77.5" width="79" height="29" rx="14.5" fill="#F0F0F0" stroke="black"/>
<path d="M573.842 87.8906H576.195C576.729 87.8906 577.18 87.972 577.548 88.1348C577.919 88.2975 578.201 88.5384 578.393 88.8574C578.588 89.1732 578.686 89.5622 578.686 90.0244C578.686 90.3499 578.619 90.6478 578.485 90.918C578.355 91.1849 578.166 91.4128 577.919 91.6016C577.675 91.7871 577.382 91.9255 577.04 92.0166L576.776 92.1191H574.564L574.555 91.3525H576.225C576.563 91.3525 576.845 91.2939 577.069 91.1768C577.294 91.0563 577.463 90.8952 577.577 90.6934C577.691 90.4915 577.748 90.2686 577.748 90.0244C577.748 89.751 577.694 89.5117 577.587 89.3066C577.479 89.1016 577.31 88.9437 577.079 88.833C576.851 88.7191 576.557 88.6621 576.195 88.6621H574.784V95H573.842V87.8906ZM577.997 95L576.269 91.7773L577.25 91.7725L579.003 94.9414V95H577.997ZM582.06 95.0977C581.692 95.0977 581.358 95.0358 581.059 94.9121C580.762 94.7852 580.507 94.6077 580.292 94.3799C580.08 94.152 579.918 93.8818 579.804 93.5693C579.69 93.2568 579.633 92.915 579.633 92.5439V92.3389C579.633 91.9092 579.696 91.5267 579.823 91.1914C579.95 90.8529 580.123 90.5664 580.341 90.332C580.559 90.0977 580.806 89.9202 581.083 89.7998C581.36 89.6794 581.646 89.6191 581.942 89.6191C582.32 89.6191 582.646 89.6842 582.919 89.8145C583.196 89.9447 583.422 90.127 583.598 90.3613C583.773 90.5924 583.904 90.8659 583.988 91.1816C584.073 91.4941 584.115 91.8359 584.115 92.207V92.6123H580.17V91.875H583.212V91.8066C583.199 91.5723 583.15 91.3444 583.065 91.123C582.984 90.9017 582.854 90.7194 582.675 90.5762C582.496 90.4329 582.252 90.3613 581.942 90.3613C581.737 90.3613 581.549 90.4053 581.376 90.4932C581.203 90.5778 581.055 90.7048 580.932 90.874C580.808 91.0433 580.712 91.25 580.644 91.4941C580.575 91.7383 580.541 92.0199 580.541 92.3389V92.5439C580.541 92.7946 580.575 93.0306 580.644 93.252C580.715 93.4701 580.818 93.6621 580.951 93.8281C581.088 93.9941 581.252 94.1243 581.444 94.2188C581.64 94.3132 581.861 94.3604 582.108 94.3604C582.427 94.3604 582.698 94.2952 582.919 94.165C583.14 94.0348 583.334 93.8607 583.5 93.6426L584.047 94.0771C583.933 94.2497 583.788 94.4141 583.612 94.5703C583.437 94.7266 583.22 94.8535 582.963 94.9512C582.709 95.0488 582.408 95.0977 582.06 95.0977ZM588.593 89.7168H589.413V94.8877C589.413 95.3532 589.319 95.7503 589.13 96.0791C588.941 96.4079 588.677 96.6569 588.339 96.8262C588.004 96.9987 587.616 97.085 587.177 97.085C586.994 97.085 586.78 97.0557 586.532 96.9971C586.288 96.9417 586.047 96.8457 585.81 96.709C585.575 96.5755 585.378 96.3949 585.219 96.167L585.692 95.6299C585.914 95.8968 586.145 96.0824 586.386 96.1865C586.63 96.2907 586.871 96.3428 587.108 96.3428C587.395 96.3428 587.642 96.2891 587.851 96.1816C588.059 96.0742 588.22 95.9147 588.334 95.7031C588.451 95.4948 588.51 95.2376 588.51 94.9316V90.8789L588.593 89.7168ZM584.955 92.417V92.3145C584.955 91.9108 585.002 91.5446 585.097 91.2158C585.194 90.8838 585.333 90.599 585.512 90.3613C585.694 90.1237 585.914 89.9414 586.171 89.8145C586.428 89.6842 586.718 89.6191 587.04 89.6191C587.372 89.6191 587.662 89.6777 587.909 89.7949C588.16 89.9089 588.371 90.0765 588.544 90.2979C588.72 90.516 588.858 90.7796 588.959 91.0889C589.06 91.3981 589.13 91.748 589.169 92.1387V92.5879C589.133 92.9753 589.063 93.3236 588.959 93.6328C588.858 93.9421 588.72 94.2057 588.544 94.4238C588.371 94.6419 588.16 94.8096 587.909 94.9268C587.659 95.0407 587.366 95.0977 587.03 95.0977C586.715 95.0977 586.428 95.0309 586.171 94.8975C585.917 94.764 585.699 94.5768 585.517 94.3359C585.334 94.0951 585.194 93.8118 585.097 93.4863C585.002 93.1576 584.955 92.8011 584.955 92.417ZM585.858 92.3145V92.417C585.858 92.6807 585.884 92.9281 585.937 93.1592C585.992 93.3903 586.075 93.5938 586.186 93.7695C586.299 93.9453 586.444 94.0837 586.62 94.1846C586.796 94.2822 587.006 94.3311 587.25 94.3311C587.549 94.3311 587.797 94.2676 587.992 94.1406C588.188 94.0137 588.342 93.846 588.456 93.6377C588.573 93.4294 588.664 93.2031 588.729 92.959V91.7822C588.694 91.6032 588.638 91.4307 588.563 91.2646C588.492 91.0954 588.397 90.9456 588.28 90.8154C588.166 90.682 588.025 90.5762 587.855 90.498C587.686 90.4199 587.488 90.3809 587.26 90.3809C587.012 90.3809 586.799 90.4329 586.62 90.5371C586.444 90.638 586.299 90.778 586.186 90.957C586.075 91.1328 585.992 91.3379 585.937 91.5723C585.884 91.8034 585.858 92.0508 585.858 92.3145ZM596.391 87.8906V95H595.443L591.864 89.5166V95H590.922V87.8906H591.864L595.458 93.3887V87.8906H596.391ZM601.156 93.7793V89.7168H602.064V95H601.2L601.156 93.7793ZM601.327 92.666L601.703 92.6562C601.703 93.0078 601.666 93.3333 601.591 93.6328C601.519 93.929 601.402 94.1862 601.239 94.4043C601.076 94.6224 600.863 94.7933 600.6 94.917C600.336 95.0374 600.015 95.0977 599.638 95.0977C599.381 95.0977 599.145 95.0602 598.93 94.9854C598.718 94.9105 598.536 94.7949 598.383 94.6387C598.23 94.4824 598.111 94.279 598.026 94.0283C597.945 93.7777 597.904 93.4766 597.904 93.125V89.7168H598.808V93.1348C598.808 93.3724 598.834 93.5693 598.886 93.7256C598.941 93.8786 599.014 94.0007 599.105 94.0918C599.2 94.1797 599.304 94.2415 599.418 94.2773C599.535 94.3132 599.656 94.3311 599.779 94.3311C600.163 94.3311 600.468 94.2578 600.692 94.1113C600.917 93.9616 601.078 93.7614 601.176 93.5107C601.277 93.2568 601.327 92.9753 601.327 92.666ZM604.34 90.7666V95H603.432V89.7168H604.291L604.34 90.7666ZM604.154 92.1582L603.734 92.1436C603.738 91.7822 603.785 91.4486 603.876 91.1426C603.967 90.8333 604.102 90.5648 604.281 90.3369C604.46 90.109 604.683 89.9333 604.95 89.8096C605.217 89.6826 605.526 89.6191 605.878 89.6191C606.125 89.6191 606.353 89.6549 606.562 89.7266C606.77 89.7949 606.951 89.904 607.104 90.0537C607.257 90.2035 607.375 90.3955 607.46 90.6299C607.545 90.8643 607.587 91.1475 607.587 91.4795V95H606.684V91.5234C606.684 91.2467 606.636 91.0254 606.542 90.8594C606.451 90.6934 606.321 90.5729 606.151 90.498C605.982 90.4199 605.784 90.3809 605.556 90.3809C605.289 90.3809 605.066 90.4281 604.887 90.5225C604.708 90.6169 604.564 90.7471 604.457 90.9131C604.35 91.0791 604.271 91.2695 604.223 91.4844C604.177 91.696 604.154 91.9206 604.154 92.1582ZM607.577 91.6602L606.972 91.8457C606.975 91.556 607.022 91.2777 607.113 91.0107C607.208 90.7438 607.343 90.5062 607.519 90.2979C607.698 90.0895 607.917 89.9251 608.178 89.8047C608.438 89.681 608.736 89.6191 609.071 89.6191C609.354 89.6191 609.605 89.6566 609.823 89.7314C610.045 89.8063 610.23 89.9219 610.38 90.0781C610.533 90.2311 610.648 90.4281 610.727 90.6689C610.805 90.9098 610.844 91.1963 610.844 91.5283V95H609.936V91.5186C609.936 91.2223 609.888 90.9928 609.794 90.8301C609.703 90.6641 609.573 90.5485 609.403 90.4834C609.237 90.415 609.039 90.3809 608.808 90.3809C608.609 90.3809 608.433 90.415 608.28 90.4834C608.127 90.5518 607.999 90.6462 607.895 90.7666C607.79 90.8838 607.711 91.0189 607.655 91.1719C607.603 91.3249 607.577 91.4876 607.577 91.6602ZM613.109 90.7666V95H612.201V89.7168H613.061L613.109 90.7666ZM612.924 92.1582L612.504 92.1436C612.507 91.7822 612.554 91.4486 612.646 91.1426C612.737 90.8333 612.872 90.5648 613.051 90.3369C613.23 90.109 613.453 89.9333 613.72 89.8096C613.987 89.6826 614.296 89.6191 614.647 89.6191C614.895 89.6191 615.123 89.6549 615.331 89.7266C615.539 89.7949 615.72 89.904 615.873 90.0537C616.026 90.2035 616.145 90.3955 616.229 90.6299C616.314 90.8643 616.356 91.1475 616.356 91.4795V95H615.453V91.5234C615.453 91.2467 615.406 91.0254 615.312 90.8594C615.22 90.6934 615.09 90.5729 614.921 90.498C614.752 90.4199 614.553 90.3809 614.325 90.3809C614.058 90.3809 613.835 90.4281 613.656 90.5225C613.477 90.6169 613.334 90.7471 613.227 90.9131C613.119 91.0791 613.041 91.2695 612.992 91.4844C612.947 91.696 612.924 91.9206 612.924 92.1582ZM616.347 91.6602L615.741 91.8457C615.744 91.556 615.792 91.2777 615.883 91.0107C615.977 90.7438 616.112 90.5062 616.288 90.2979C616.467 90.0895 616.687 89.9251 616.947 89.8047C617.208 89.681 617.506 89.6191 617.841 89.6191C618.124 89.6191 618.375 89.6566 618.593 89.7314C618.814 89.8063 619 89.9219 619.149 90.0781C619.302 90.2311 619.418 90.4281 619.496 90.6689C619.574 90.9098 619.613 91.1963 619.613 91.5283V95H618.705V91.5186C618.705 91.2223 618.658 90.9928 618.563 90.8301C618.472 90.6641 618.342 90.5485 618.173 90.4834C618.007 90.415 617.808 90.3809 617.577 90.3809C617.379 90.3809 617.203 90.415 617.05 90.4834C616.897 90.5518 616.768 90.6462 616.664 90.7666C616.56 90.8838 616.48 91.0189 616.425 91.1719C616.373 91.3249 616.347 91.4876 616.347 91.6602ZM623.173 95.0977C622.805 95.0977 622.471 95.0358 622.172 94.9121C621.876 94.7852 621.62 94.6077 621.405 94.3799C621.194 94.152 621.031 93.8818 620.917 93.5693C620.803 93.2568 620.746 92.915 620.746 92.5439V92.3389C620.746 91.9092 620.81 91.5267 620.937 91.1914C621.063 90.8529 621.236 90.5664 621.454 90.332C621.672 90.0977 621.92 89.9202 622.196 89.7998C622.473 89.6794 622.759 89.6191 623.056 89.6191C623.433 89.6191 623.759 89.6842 624.032 89.8145C624.309 89.9447 624.535 90.127 624.711 90.3613C624.887 90.5924 625.017 90.8659 625.102 91.1816C625.186 91.4941 625.229 91.8359 625.229 92.207V92.6123H621.283V91.875H624.325V91.8066C624.312 91.5723 624.263 91.3444 624.179 91.123C624.097 90.9017 623.967 90.7194 623.788 90.5762C623.609 90.4329 623.365 90.3613 623.056 90.3613C622.851 90.3613 622.662 90.4053 622.489 90.4932C622.317 90.5778 622.169 90.7048 622.045 90.874C621.921 91.0433 621.825 91.25 621.757 91.4941C621.688 91.7383 621.654 92.0199 621.654 92.3389V92.5439C621.654 92.7946 621.688 93.0306 621.757 93.252C621.828 93.4701 621.931 93.6621 622.064 93.8281C622.201 93.9941 622.366 94.1243 622.558 94.2188C622.753 94.3132 622.974 94.3604 623.222 94.3604C623.541 94.3604 623.811 94.2952 624.032 94.165C624.254 94.0348 624.447 93.8607 624.613 93.6426L625.16 94.0771C625.046 94.2497 624.901 94.4141 624.726 94.5703C624.55 94.7266 624.333 94.8535 624.076 94.9512C623.822 95.0488 623.521 95.0977 623.173 95.0977ZM627.187 90.5469V95H626.283V89.7168H627.162L627.187 90.5469ZM628.837 89.6875L628.832 90.5273C628.757 90.5111 628.686 90.5013 628.617 90.498C628.552 90.4915 628.477 90.4883 628.393 90.4883C628.184 90.4883 628 90.5208 627.841 90.5859C627.681 90.651 627.546 90.7422 627.436 90.8594C627.325 90.9766 627.237 91.1165 627.172 91.2793C627.11 91.4388 627.069 91.6146 627.05 91.8066L626.796 91.9531C626.796 91.6341 626.827 91.3346 626.889 91.0547C626.954 90.7747 627.053 90.5273 627.187 90.3125C627.32 90.0944 627.489 89.9251 627.694 89.8047C627.903 89.681 628.15 89.6191 628.437 89.6191C628.502 89.6191 628.576 89.6273 628.661 89.6436C628.746 89.6566 628.804 89.6712 628.837 89.6875Z" fill="black"/>
<rect x="561.5" y="177.5" width="79" height="29" rx="14.5" fill="#F0F0F0" stroke="black"/>
<path d="M580.897 187.891V195H579.955V187.891H580.897ZM583.876 191.089V191.86H580.692V191.089H583.876ZM584.359 187.891V188.662H580.692V187.891H584.359ZM589.457 189.097L586.22 195.659H585.619L588.856 189.097H589.457ZM585.106 192.417V192.305C585.106 191.924 585.162 191.571 585.272 191.245C585.383 190.916 585.543 190.632 585.751 190.391C585.959 190.146 586.212 189.958 586.508 189.824C586.804 189.688 587.136 189.619 587.504 189.619C587.875 189.619 588.209 189.688 588.505 189.824C588.804 189.958 589.058 190.146 589.267 190.391C589.475 190.632 589.634 190.916 589.745 191.245C589.856 191.571 589.911 191.924 589.911 192.305V192.417C589.911 192.798 589.856 193.151 589.745 193.477C589.634 193.802 589.475 194.087 589.267 194.331C589.058 194.572 588.806 194.761 588.51 194.897C588.217 195.031 587.885 195.098 587.514 195.098C587.143 195.098 586.809 195.031 586.513 194.897C586.216 194.761 585.963 194.572 585.751 194.331C585.543 194.087 585.383 193.802 585.272 193.477C585.162 193.151 585.106 192.798 585.106 192.417ZM586.01 192.305V192.417C586.01 192.681 586.041 192.93 586.103 193.164C586.164 193.395 586.257 193.6 586.381 193.779C586.508 193.958 586.666 194.1 586.854 194.204C587.043 194.305 587.263 194.355 587.514 194.355C587.761 194.355 587.978 194.305 588.163 194.204C588.352 194.1 588.508 193.958 588.632 193.779C588.756 193.6 588.848 193.395 588.91 193.164C588.975 192.93 589.008 192.681 589.008 192.417V192.305C589.008 192.044 588.975 191.799 588.91 191.567C588.848 191.333 588.754 191.126 588.627 190.947C588.503 190.765 588.347 190.622 588.158 190.518C587.973 190.413 587.755 190.361 587.504 190.361C587.257 190.361 587.038 190.413 586.85 190.518C586.664 190.622 586.508 190.765 586.381 190.947C586.257 191.126 586.164 191.333 586.103 191.567C586.041 191.799 586.01 192.044 586.01 192.305ZM594.35 193.975V187.5H595.258V195H594.428L594.35 193.975ZM590.795 192.417V192.314C590.795 191.911 590.844 191.545 590.941 191.216C591.042 190.884 591.184 190.599 591.366 190.361C591.552 190.124 591.771 189.941 592.025 189.814C592.283 189.684 592.569 189.619 592.885 189.619C593.217 189.619 593.507 189.678 593.754 189.795C594.005 189.909 594.216 190.076 594.389 190.298C594.564 190.516 594.703 190.78 594.804 191.089C594.905 191.398 594.975 191.748 595.014 192.139V192.588C594.978 192.975 594.908 193.324 594.804 193.633C594.703 193.942 594.564 194.206 594.389 194.424C594.216 194.642 594.005 194.81 593.754 194.927C593.503 195.041 593.21 195.098 592.875 195.098C592.566 195.098 592.283 195.031 592.025 194.897C591.771 194.764 591.552 194.577 591.366 194.336C591.184 194.095 591.042 193.812 590.941 193.486C590.844 193.158 590.795 192.801 590.795 192.417ZM591.703 192.314V192.417C591.703 192.681 591.729 192.928 591.781 193.159C591.837 193.39 591.921 193.594 592.035 193.77C592.149 193.945 592.294 194.084 592.47 194.185C592.646 194.282 592.855 194.331 593.1 194.331C593.399 194.331 593.645 194.268 593.837 194.141C594.032 194.014 594.188 193.846 594.306 193.638C594.423 193.429 594.514 193.203 594.579 192.959V191.782C594.54 191.603 594.483 191.431 594.408 191.265C594.337 191.095 594.242 190.946 594.125 190.815C594.011 190.682 593.869 190.576 593.7 190.498C593.534 190.42 593.337 190.381 593.109 190.381C592.862 190.381 592.649 190.433 592.47 190.537C592.294 190.638 592.149 190.778 592.035 190.957C591.921 191.133 591.837 191.338 591.781 191.572C591.729 191.803 591.703 192.051 591.703 192.314ZM599.74 193.599C599.74 193.468 599.711 193.348 599.652 193.237C599.597 193.123 599.481 193.021 599.306 192.93C599.133 192.835 598.873 192.754 598.524 192.686C598.231 192.624 597.966 192.55 597.729 192.466C597.494 192.381 597.294 192.279 597.128 192.158C596.965 192.038 596.84 191.896 596.752 191.733C596.664 191.571 596.62 191.38 596.62 191.162C596.62 190.954 596.666 190.757 596.757 190.571C596.851 190.386 596.983 190.221 597.152 190.078C597.325 189.935 597.532 189.823 597.772 189.741C598.013 189.66 598.282 189.619 598.578 189.619C599.001 189.619 599.363 189.694 599.662 189.844C599.962 189.993 600.191 190.194 600.351 190.444C600.51 190.692 600.59 190.967 600.59 191.27H599.687C599.687 191.123 599.643 190.981 599.555 190.845C599.47 190.705 599.345 190.589 599.179 190.498C599.016 190.407 598.816 190.361 598.578 190.361C598.327 190.361 598.124 190.4 597.968 190.479C597.815 190.553 597.702 190.649 597.631 190.767C597.562 190.884 597.528 191.007 597.528 191.138C597.528 191.235 597.545 191.323 597.577 191.401C597.613 191.476 597.675 191.546 597.763 191.611C597.851 191.673 597.974 191.732 598.134 191.787C598.293 191.842 598.497 191.898 598.744 191.953C599.177 192.051 599.534 192.168 599.813 192.305C600.093 192.441 600.302 192.609 600.438 192.808C600.575 193.006 600.644 193.247 600.644 193.53C600.644 193.761 600.595 193.973 600.497 194.165C600.403 194.357 600.264 194.523 600.082 194.663C599.903 194.8 599.688 194.907 599.438 194.985C599.19 195.06 598.912 195.098 598.603 195.098C598.137 195.098 597.743 195.015 597.421 194.849C597.099 194.683 596.854 194.468 596.688 194.204C596.522 193.94 596.439 193.662 596.439 193.369H597.348C597.361 193.617 597.432 193.813 597.562 193.96C597.693 194.103 597.852 194.206 598.041 194.268C598.23 194.326 598.417 194.355 598.603 194.355C598.85 194.355 599.057 194.323 599.223 194.258C599.392 194.193 599.521 194.103 599.608 193.989C599.696 193.875 599.74 193.745 599.74 193.599ZM604.022 195.098C603.655 195.098 603.321 195.036 603.021 194.912C602.725 194.785 602.47 194.608 602.255 194.38C602.043 194.152 601.881 193.882 601.767 193.569C601.653 193.257 601.596 192.915 601.596 192.544V192.339C601.596 191.909 601.659 191.527 601.786 191.191C601.913 190.853 602.086 190.566 602.304 190.332C602.522 190.098 602.769 189.92 603.046 189.8C603.323 189.679 603.609 189.619 603.905 189.619C604.283 189.619 604.608 189.684 604.882 189.814C605.159 189.945 605.385 190.127 605.561 190.361C605.736 190.592 605.867 190.866 605.951 191.182C606.036 191.494 606.078 191.836 606.078 192.207V192.612H602.133V191.875H605.175V191.807C605.162 191.572 605.113 191.344 605.028 191.123C604.947 190.902 604.817 190.719 604.638 190.576C604.459 190.433 604.215 190.361 603.905 190.361C603.7 190.361 603.511 190.405 603.339 190.493C603.166 190.578 603.018 190.705 602.895 190.874C602.771 191.043 602.675 191.25 602.606 191.494C602.538 191.738 602.504 192.02 602.504 192.339V192.544C602.504 192.795 602.538 193.031 602.606 193.252C602.678 193.47 602.781 193.662 602.914 193.828C603.051 193.994 603.215 194.124 603.407 194.219C603.603 194.313 603.824 194.36 604.071 194.36C604.39 194.36 604.66 194.295 604.882 194.165C605.103 194.035 605.297 193.861 605.463 193.643L606.01 194.077C605.896 194.25 605.751 194.414 605.575 194.57C605.399 194.727 605.183 194.854 604.926 194.951C604.672 195.049 604.371 195.098 604.022 195.098ZM608.114 187.5V195H607.206V187.5H608.114ZM612.641 193.599C612.641 193.468 612.611 193.348 612.553 193.237C612.497 193.123 612.382 193.021 612.206 192.93C612.034 192.835 611.773 192.754 611.425 192.686C611.132 192.624 610.867 192.55 610.629 192.466C610.395 192.381 610.194 192.279 610.028 192.158C609.866 192.038 609.74 191.896 609.652 191.733C609.564 191.571 609.521 191.38 609.521 191.162C609.521 190.954 609.566 190.757 609.657 190.571C609.752 190.386 609.883 190.221 610.053 190.078C610.225 189.935 610.432 189.823 610.673 189.741C610.914 189.66 611.182 189.619 611.479 189.619C611.902 189.619 612.263 189.694 612.562 189.844C612.862 189.993 613.091 190.194 613.251 190.444C613.41 190.692 613.49 190.967 613.49 191.27H612.587C612.587 191.123 612.543 190.981 612.455 190.845C612.37 190.705 612.245 190.589 612.079 190.498C611.916 190.407 611.716 190.361 611.479 190.361C611.228 190.361 611.024 190.4 610.868 190.479C610.715 190.553 610.603 190.649 610.531 190.767C610.463 190.884 610.429 191.007 610.429 191.138C610.429 191.235 610.445 191.323 610.478 191.401C610.513 191.476 610.575 191.546 610.663 191.611C610.751 191.673 610.875 191.732 611.034 191.787C611.194 191.842 611.397 191.898 611.645 191.953C612.077 192.051 612.434 192.168 612.714 192.305C612.994 192.441 613.202 192.609 613.339 192.808C613.476 193.006 613.544 193.247 613.544 193.53C613.544 193.761 613.495 193.973 613.397 194.165C613.303 194.357 613.165 194.523 612.982 194.663C612.803 194.8 612.589 194.907 612.338 194.985C612.09 195.06 611.812 195.098 611.503 195.098C611.037 195.098 610.644 195.015 610.321 194.849C609.999 194.683 609.755 194.468 609.589 194.204C609.423 193.94 609.34 193.662 609.34 193.369H610.248C610.261 193.617 610.333 193.813 610.463 193.96C610.593 194.103 610.753 194.206 610.941 194.268C611.13 194.326 611.317 194.355 611.503 194.355C611.75 194.355 611.957 194.323 612.123 194.258C612.292 194.193 612.421 194.103 612.509 193.989C612.597 193.875 612.641 193.745 612.641 193.599ZM617.846 194.097V191.377C617.846 191.169 617.803 190.988 617.719 190.835C617.637 190.679 617.514 190.558 617.348 190.474C617.182 190.389 616.977 190.347 616.732 190.347C616.505 190.347 616.304 190.386 616.132 190.464C615.963 190.542 615.829 190.645 615.731 190.771C615.637 190.898 615.59 191.035 615.59 191.182H614.687C614.687 190.993 614.735 190.806 614.833 190.62C614.931 190.435 615.071 190.267 615.253 190.117C615.438 189.964 615.66 189.844 615.917 189.756C616.177 189.665 616.467 189.619 616.786 189.619C617.17 189.619 617.509 189.684 617.802 189.814C618.098 189.945 618.329 190.142 618.495 190.405C618.664 190.666 618.749 190.993 618.749 191.387V193.848C618.749 194.023 618.764 194.211 618.793 194.409C618.826 194.608 618.873 194.779 618.935 194.922V195H617.992C617.947 194.896 617.911 194.757 617.885 194.585C617.859 194.409 617.846 194.246 617.846 194.097ZM618.002 191.797L618.012 192.432H617.099C616.841 192.432 616.612 192.453 616.41 192.495C616.208 192.534 616.039 192.594 615.902 192.676C615.766 192.757 615.661 192.86 615.59 192.983C615.518 193.104 615.482 193.245 615.482 193.408C615.482 193.574 615.52 193.726 615.595 193.862C615.67 193.999 615.782 194.108 615.932 194.189C616.085 194.268 616.272 194.307 616.493 194.307C616.77 194.307 617.014 194.248 617.226 194.131C617.437 194.014 617.605 193.87 617.729 193.701C617.855 193.532 617.924 193.368 617.934 193.208L618.319 193.643C618.297 193.779 618.235 193.931 618.134 194.097C618.033 194.263 617.898 194.422 617.729 194.575C617.562 194.725 617.364 194.85 617.133 194.951C616.905 195.049 616.648 195.098 616.361 195.098C616.003 195.098 615.689 195.028 615.419 194.888C615.152 194.748 614.944 194.561 614.794 194.326C614.647 194.089 614.574 193.823 614.574 193.53C614.574 193.247 614.63 192.998 614.74 192.783C614.851 192.565 615.01 192.384 615.219 192.241C615.427 192.095 615.678 191.984 615.971 191.909C616.264 191.834 616.591 191.797 616.952 191.797H618.002ZM615.834 188.066C615.834 187.878 615.88 187.707 615.971 187.554C616.065 187.401 616.19 187.279 616.347 187.188C616.506 187.096 616.685 187.051 616.884 187.051C617.18 187.051 617.429 187.15 617.631 187.349C617.833 187.547 617.934 187.786 617.934 188.066C617.934 188.255 617.886 188.426 617.792 188.579C617.701 188.729 617.576 188.848 617.416 188.936C617.26 189.02 617.082 189.062 616.884 189.062C616.588 189.062 616.339 188.968 616.137 188.779C615.935 188.59 615.834 188.353 615.834 188.066ZM616.317 188.066C616.317 188.21 616.369 188.34 616.474 188.457C616.581 188.571 616.718 188.628 616.884 188.628C617.05 188.628 617.185 188.573 617.289 188.462C617.396 188.348 617.45 188.216 617.45 188.066C617.45 187.913 617.396 187.78 617.289 187.666C617.185 187.549 617.05 187.49 616.884 187.49C616.718 187.49 616.581 187.549 616.474 187.666C616.369 187.78 616.317 187.913 616.317 188.066ZM621.073 190.547V195H620.17V189.717H621.049L621.073 190.547ZM622.724 189.688L622.719 190.527C622.644 190.511 622.572 190.501 622.504 190.498C622.439 190.492 622.364 190.488 622.279 190.488C622.071 190.488 621.887 190.521 621.728 190.586C621.568 190.651 621.433 190.742 621.322 190.859C621.212 190.977 621.124 191.117 621.059 191.279C620.997 191.439 620.956 191.615 620.937 191.807L620.683 191.953C620.683 191.634 620.714 191.335 620.775 191.055C620.84 190.775 620.94 190.527 621.073 190.312C621.207 190.094 621.376 189.925 621.581 189.805C621.789 189.681 622.037 189.619 622.323 189.619C622.388 189.619 622.463 189.627 622.548 189.644C622.632 189.657 622.691 189.671 622.724 189.688Z" fill="black"/>
<rect x="561.5" y="127.5" width="79" height="29" rx="14.5" fill="#F0F0F0" stroke="black"/>
<path d="M596.358 137.891V145H595.411L591.832 139.517V145H590.89V137.891H591.832L595.426 143.389V137.891H596.358ZM601.007 144.097V141.377C601.007 141.169 600.965 140.988 600.88 140.835C600.799 140.679 600.675 140.558 600.509 140.474C600.343 140.389 600.138 140.347 599.894 140.347C599.666 140.347 599.465 140.386 599.293 140.464C599.124 140.542 598.99 140.645 598.893 140.771C598.798 140.898 598.751 141.035 598.751 141.182H597.848C597.848 140.993 597.896 140.806 597.994 140.62C598.092 140.435 598.232 140.267 598.414 140.117C598.6 139.964 598.821 139.844 599.078 139.756C599.339 139.665 599.628 139.619 599.947 139.619C600.331 139.619 600.67 139.684 600.963 139.814C601.259 139.945 601.49 140.142 601.656 140.405C601.826 140.666 601.91 140.993 601.91 141.387V143.848C601.91 144.023 601.925 144.211 601.954 144.409C601.987 144.608 602.034 144.779 602.096 144.922V145H601.153C601.108 144.896 601.072 144.757 601.046 144.585C601.02 144.409 601.007 144.246 601.007 144.097ZM601.163 141.797L601.173 142.432H600.26C600.003 142.432 599.773 142.453 599.571 142.495C599.369 142.534 599.2 142.594 599.063 142.676C598.927 142.757 598.823 142.86 598.751 142.983C598.679 143.104 598.644 143.245 598.644 143.408C598.644 143.574 598.681 143.726 598.756 143.862C598.831 143.999 598.943 144.108 599.093 144.189C599.246 144.268 599.433 144.307 599.654 144.307C599.931 144.307 600.175 144.248 600.387 144.131C600.598 144.014 600.766 143.87 600.89 143.701C601.017 143.532 601.085 143.368 601.095 143.208L601.48 143.643C601.458 143.779 601.396 143.931 601.295 144.097C601.194 144.263 601.059 144.422 600.89 144.575C600.724 144.725 600.525 144.85 600.294 144.951C600.066 145.049 599.809 145.098 599.522 145.098C599.164 145.098 598.85 145.028 598.58 144.888C598.313 144.748 598.105 144.561 597.955 144.326C597.809 144.089 597.735 143.823 597.735 143.53C597.735 143.247 597.791 142.998 597.901 142.783C598.012 142.565 598.172 142.384 598.38 142.241C598.588 142.095 598.839 141.984 599.132 141.909C599.425 141.834 599.752 141.797 600.113 141.797H601.163ZM604.859 144.185L606.305 139.717H607.228L605.328 145H604.723L604.859 144.185ZM603.653 139.717L605.143 144.209L605.245 145H604.64L602.726 139.717H603.653ZM609 140.845V145H608.097V139.717H608.951L609 140.845ZM608.785 142.158L608.409 142.144C608.412 141.782 608.466 141.449 608.57 141.143C608.674 140.833 608.821 140.565 609.01 140.337C609.199 140.109 609.423 139.933 609.684 139.81C609.947 139.683 610.239 139.619 610.558 139.619C610.818 139.619 611.052 139.655 611.261 139.727C611.469 139.795 611.646 139.906 611.793 140.059C611.943 140.212 612.057 140.41 612.135 140.654C612.213 140.895 612.252 141.19 612.252 141.538V145H611.344V141.528C611.344 141.252 611.303 141.03 611.222 140.864C611.14 140.695 611.021 140.573 610.865 140.498C610.709 140.42 610.517 140.381 610.289 140.381C610.064 140.381 609.859 140.428 609.674 140.522C609.492 140.617 609.334 140.747 609.2 140.913C609.07 141.079 608.967 141.27 608.893 141.484C608.821 141.696 608.785 141.921 608.785 142.158Z" fill="black"/>
<path d="M80 93L130 143" stroke="black"/>
<rect width="50" height="1" transform="matrix(-1 0 0 1 130 143)" fill="black"/>
<rect x="0.5" y="78.5" width="79" height="29" rx="14.5" fill="#F0F0F0" stroke="black"/>
<path d="M8.83984 93.2119H6.94043V92.4453H8.83984C9.20768 92.4453 9.50553 92.3867 9.7334 92.2695C9.96126 92.1523 10.1273 91.9896 10.2314 91.7812C10.3389 91.5729 10.3926 91.3353 10.3926 91.0684C10.3926 90.8242 10.3389 90.5947 10.2314 90.3799C10.1273 90.165 9.96126 89.9925 9.7334 89.8623C9.50553 89.7288 9.20768 89.6621 8.83984 89.6621H7.16016V96H6.21777V88.8906H8.83984C9.37695 88.8906 9.83105 88.9834 10.2021 89.1689C10.5732 89.3545 10.8548 89.6117 11.0469 89.9404C11.2389 90.266 11.335 90.6387 11.335 91.0586C11.335 91.5143 11.2389 91.9033 11.0469 92.2256C10.8548 92.5479 10.5732 92.7936 10.2021 92.9629C9.83105 93.1289 9.37695 93.2119 8.83984 93.2119ZM14.5137 96.0977C14.1458 96.0977 13.8122 96.0358 13.5127 95.9121C13.2165 95.7852 12.9609 95.6077 12.7461 95.3799C12.5345 95.152 12.3717 94.8818 12.2578 94.5693C12.1439 94.2568 12.0869 93.915 12.0869 93.5439V93.3389C12.0869 92.9092 12.1504 92.5267 12.2773 92.1914C12.4043 91.8529 12.5768 91.5664 12.7949 91.332C13.013 91.0977 13.2604 90.9202 13.5371 90.7998C13.8138 90.6794 14.1003 90.6191 14.3965 90.6191C14.7741 90.6191 15.0996 90.6842 15.373 90.8145C15.6497 90.9447 15.876 91.127 16.0518 91.3613C16.2275 91.5924 16.3577 91.8659 16.4424 92.1816C16.527 92.4941 16.5693 92.8359 16.5693 93.207V93.6123H12.624V92.875H15.666V92.8066C15.653 92.5723 15.6042 92.3444 15.5195 92.123C15.4382 91.9017 15.3079 91.7194 15.1289 91.5762C14.9499 91.4329 14.7057 91.3613 14.3965 91.3613C14.1914 91.3613 14.0026 91.4053 13.8301 91.4932C13.6576 91.5778 13.5094 91.7048 13.3857 91.874C13.262 92.0433 13.166 92.25 13.0977 92.4941C13.0293 92.7383 12.9951 93.0199 12.9951 93.3389V93.5439C12.9951 93.7946 13.0293 94.0306 13.0977 94.252C13.1693 94.4701 13.2718 94.6621 13.4053 94.8281C13.542 94.9941 13.7064 95.1243 13.8984 95.2188C14.0938 95.3132 14.3151 95.3604 14.5625 95.3604C14.8815 95.3604 15.1517 95.2952 15.373 95.165C15.5944 95.0348 15.7881 94.8607 15.9541 94.6426L16.501 95.0771C16.387 95.2497 16.2422 95.4141 16.0664 95.5703C15.8906 95.7266 15.6742 95.8535 15.417 95.9512C15.1631 96.0488 14.862 96.0977 14.5137 96.0977ZM18.5273 91.5469V96H17.624V90.7168H18.5029L18.5273 91.5469ZM20.1777 90.6875L20.1729 91.5273C20.098 91.5111 20.0264 91.5013 19.958 91.498C19.8929 91.4915 19.818 91.4883 19.7334 91.4883C19.5251 91.4883 19.3411 91.5208 19.1816 91.5859C19.0221 91.651 18.887 91.7422 18.7764 91.8594C18.6657 91.9766 18.5778 92.1165 18.5127 92.2793C18.4508 92.4388 18.4102 92.6146 18.3906 92.8066L18.1367 92.9531C18.1367 92.6341 18.1676 92.3346 18.2295 92.0547C18.2946 91.7747 18.3939 91.5273 18.5273 91.3125C18.6608 91.0944 18.8301 90.9251 19.0352 90.8047C19.2435 90.681 19.4909 90.6191 19.7773 90.6191C19.8424 90.6191 19.9173 90.6273 20.002 90.6436C20.0866 90.6566 20.1452 90.6712 20.1777 90.6875ZM24.0889 94.5986C24.0889 94.4684 24.0596 94.348 24.001 94.2373C23.9456 94.1234 23.8301 94.0208 23.6543 93.9297C23.4818 93.8353 23.2214 93.7539 22.873 93.6855C22.5801 93.6237 22.3148 93.5505 22.0771 93.4658C21.8428 93.3812 21.6426 93.2786 21.4766 93.1582C21.3138 93.0378 21.1885 92.8962 21.1006 92.7334C21.0127 92.5706 20.9688 92.3802 20.9688 92.1621C20.9688 91.9538 21.0143 91.7568 21.1055 91.5713C21.1999 91.3857 21.3317 91.2214 21.501 91.0781C21.6735 90.9349 21.8802 90.8226 22.1211 90.7412C22.362 90.6598 22.6305 90.6191 22.9268 90.6191C23.3499 90.6191 23.7113 90.694 24.0107 90.8438C24.3102 90.9935 24.5397 91.1937 24.6992 91.4443C24.8587 91.6917 24.9385 91.9668 24.9385 92.2695H24.0352C24.0352 92.123 23.9912 91.9814 23.9033 91.8447C23.8187 91.7048 23.6934 91.5892 23.5273 91.498C23.3646 91.4069 23.1644 91.3613 22.9268 91.3613C22.6761 91.3613 22.4727 91.4004 22.3164 91.4785C22.1634 91.5534 22.0511 91.6494 21.9795 91.7666C21.9111 91.8838 21.877 92.0075 21.877 92.1377C21.877 92.2354 21.8932 92.3232 21.9258 92.4014C21.9616 92.4762 22.0234 92.5462 22.1113 92.6113C22.1992 92.6732 22.3229 92.7318 22.4824 92.7871C22.6419 92.8424 22.8454 92.8978 23.0928 92.9531C23.5257 93.0508 23.8822 93.168 24.1621 93.3047C24.4421 93.4414 24.6504 93.609 24.7871 93.8076C24.9238 94.0062 24.9922 94.2471 24.9922 94.5303C24.9922 94.7614 24.9434 94.973 24.8457 95.165C24.7513 95.3571 24.613 95.5231 24.4307 95.6631C24.2516 95.7998 24.0368 95.9072 23.7861 95.9854C23.5387 96.0602 23.2604 96.0977 22.9512 96.0977C22.4857 96.0977 22.0918 96.0146 21.7695 95.8486C21.4473 95.6826 21.2031 95.4678 21.0371 95.2041C20.8711 94.9404 20.7881 94.6621 20.7881 94.3691H21.6963C21.7093 94.6165 21.7809 94.8135 21.9111 94.96C22.0413 95.1032 22.2008 95.2057 22.3896 95.2676C22.5785 95.3262 22.7656 95.3555 22.9512 95.3555C23.1986 95.3555 23.4053 95.3229 23.5713 95.2578C23.7406 95.1927 23.8691 95.1032 23.957 94.9893C24.0449 94.8753 24.0889 94.7451 24.0889 94.5986ZM25.9395 93.417V93.3047C25.9395 92.9238 25.9948 92.5706 26.1055 92.2451C26.2161 91.9163 26.3757 91.6315 26.584 91.3906C26.7923 91.1465 27.0446 90.9577 27.3408 90.8242C27.637 90.6875 27.9691 90.6191 28.3369 90.6191C28.708 90.6191 29.0417 90.6875 29.3379 90.8242C29.6374 90.9577 29.8913 91.1465 30.0996 91.3906C30.3112 91.6315 30.4723 91.9163 30.583 92.2451C30.6937 92.5706 30.749 92.9238 30.749 93.3047V93.417C30.749 93.7979 30.6937 94.151 30.583 94.4766C30.4723 94.8021 30.3112 95.0869 30.0996 95.3311C29.8913 95.5719 29.639 95.7607 29.3428 95.8975C29.0498 96.0309 28.7178 96.0977 28.3467 96.0977C27.9756 96.0977 27.6419 96.0309 27.3457 95.8975C27.0495 95.7607 26.7956 95.5719 26.584 95.3311C26.3757 95.0869 26.2161 94.8021 26.1055 94.4766C25.9948 94.151 25.9395 93.7979 25.9395 93.417ZM26.8428 93.3047V93.417C26.8428 93.6807 26.8737 93.9297 26.9355 94.1641C26.9974 94.3952 27.0902 94.6003 27.2139 94.7793C27.3408 94.9583 27.4987 95.0999 27.6875 95.2041C27.8763 95.305 28.096 95.3555 28.3467 95.3555C28.5941 95.3555 28.8105 95.305 28.9961 95.2041C29.1849 95.0999 29.3411 94.9583 29.4648 94.7793C29.5885 94.6003 29.6813 94.3952 29.7432 94.1641C29.8083 93.9297 29.8408 93.6807 29.8408 93.417V93.3047C29.8408 93.0443 29.8083 92.7985 29.7432 92.5674C29.6813 92.333 29.5869 92.1263 29.46 91.9473C29.3363 91.765 29.18 91.6217 28.9912 91.5176C28.8057 91.4134 28.5876 91.3613 28.3369 91.3613C28.0895 91.3613 27.8714 91.4134 27.6826 91.5176C27.4971 91.6217 27.3408 91.765 27.2139 91.9473C27.0902 92.1263 26.9974 92.333 26.9355 92.5674C26.8737 92.7985 26.8428 93.0443 26.8428 93.3047ZM32.7852 91.8447V96H31.8818V90.7168H32.7363L32.7852 91.8447ZM32.5703 93.1582L32.1943 93.1436C32.1976 92.7822 32.2513 92.4486 32.3555 92.1426C32.4596 91.8333 32.6061 91.5648 32.7949 91.3369C32.9837 91.109 33.2083 90.9333 33.4688 90.8096C33.7324 90.6826 34.0238 90.6191 34.3428 90.6191C34.6032 90.6191 34.8376 90.6549 35.0459 90.7266C35.2542 90.7949 35.4316 90.9056 35.5781 91.0586C35.7279 91.2116 35.8418 91.4102 35.9199 91.6543C35.998 91.8952 36.0371 92.1898 36.0371 92.5381V96H35.1289V92.5283C35.1289 92.2516 35.0882 92.0303 35.0068 91.8643C34.9255 91.695 34.8066 91.5729 34.6504 91.498C34.4941 91.4199 34.3021 91.3809 34.0742 91.3809C33.8496 91.3809 33.6445 91.4281 33.459 91.5225C33.2767 91.6169 33.1188 91.7471 32.9854 91.9131C32.8551 92.0791 32.7526 92.2695 32.6777 92.4844C32.6061 92.696 32.5703 92.9206 32.5703 93.1582ZM43.0146 88.8906V96H42.0674L38.4883 90.5166V96H37.5459V88.8906H38.4883L42.082 94.3887V88.8906H43.0146ZM47.7803 94.7793V90.7168H48.6885V96H47.8242L47.7803 94.7793ZM47.9512 93.666L48.3271 93.6562C48.3271 94.0078 48.2897 94.3333 48.2148 94.6328C48.1432 94.929 48.026 95.1862 47.8633 95.4043C47.7005 95.6224 47.4873 95.7933 47.2236 95.917C46.96 96.0374 46.6393 96.0977 46.2617 96.0977C46.0046 96.0977 45.7686 96.0602 45.5537 95.9854C45.3421 95.9105 45.1598 95.7949 45.0068 95.6387C44.8538 95.4824 44.735 95.279 44.6504 95.0283C44.569 94.7777 44.5283 94.4766 44.5283 94.125V90.7168H45.4316V94.1348C45.4316 94.3724 45.4577 94.5693 45.5098 94.7256C45.5651 94.8786 45.6383 95.0007 45.7295 95.0918C45.8239 95.1797 45.9281 95.2415 46.042 95.2773C46.1592 95.3132 46.2796 95.3311 46.4033 95.3311C46.7874 95.3311 47.0918 95.2578 47.3164 95.1113C47.541 94.9616 47.7021 94.7614 47.7998 94.5107C47.9007 94.2568 47.9512 93.9753 47.9512 93.666ZM50.9639 91.7666V96H50.0557V90.7168H50.915L50.9639 91.7666ZM50.7783 93.1582L50.3584 93.1436C50.3617 92.7822 50.4089 92.4486 50.5 92.1426C50.5911 91.8333 50.7262 91.5648 50.9053 91.3369C51.0843 91.109 51.3073 90.9333 51.5742 90.8096C51.8411 90.6826 52.1504 90.6191 52.502 90.6191C52.7493 90.6191 52.9772 90.6549 53.1855 90.7266C53.3939 90.7949 53.5745 90.904 53.7275 91.0537C53.8805 91.2035 53.9993 91.3955 54.084 91.6299C54.1686 91.8643 54.2109 92.1475 54.2109 92.4795V96H53.3076V92.5234C53.3076 92.2467 53.2604 92.0254 53.166 91.8594C53.0749 91.6934 52.9447 91.5729 52.7754 91.498C52.6061 91.4199 52.4076 91.3809 52.1797 91.3809C51.9128 91.3809 51.6898 91.4281 51.5107 91.5225C51.3317 91.6169 51.1885 91.7471 51.0811 91.9131C50.9736 92.0791 50.8955 92.2695 50.8467 92.4844C50.8011 92.696 50.7783 92.9206 50.7783 93.1582ZM54.2012 92.6602L53.5957 92.8457C53.599 92.556 53.6462 92.2777 53.7373 92.0107C53.8317 91.7438 53.9668 91.5062 54.1426 91.2979C54.3216 91.0895 54.5413 90.9251 54.8018 90.8047C55.0622 90.681 55.36 90.6191 55.6953 90.6191C55.9785 90.6191 56.2292 90.6566 56.4473 90.7314C56.6686 90.8063 56.8542 90.9219 57.0039 91.0781C57.1569 91.2311 57.2725 91.4281 57.3506 91.6689C57.4287 91.9098 57.4678 92.1963 57.4678 92.5283V96H56.5596V92.5186C56.5596 92.2223 56.5124 91.9928 56.418 91.8301C56.3268 91.6641 56.1966 91.5485 56.0273 91.4834C55.8613 91.415 55.6628 91.3809 55.4316 91.3809C55.2331 91.3809 55.0573 91.415 54.9043 91.4834C54.7513 91.5518 54.6227 91.6462 54.5186 91.7666C54.4144 91.8838 54.3346 92.0189 54.2793 92.1719C54.2272 92.3249 54.2012 92.4876 54.2012 92.6602ZM59.7334 91.7666V96H58.8252V90.7168H59.6846L59.7334 91.7666ZM59.5479 93.1582L59.1279 93.1436C59.1312 92.7822 59.1784 92.4486 59.2695 92.1426C59.3607 91.8333 59.4958 91.5648 59.6748 91.3369C59.8538 91.109 60.0768 90.9333 60.3438 90.8096C60.6107 90.6826 60.9199 90.6191 61.2715 90.6191C61.5189 90.6191 61.7467 90.6549 61.9551 90.7266C62.1634 90.7949 62.3441 90.904 62.4971 91.0537C62.6501 91.2035 62.7689 91.3955 62.8535 91.6299C62.9382 91.8643 62.9805 92.1475 62.9805 92.4795V96H62.0771V92.5234C62.0771 92.2467 62.0299 92.0254 61.9355 91.8594C61.8444 91.6934 61.7142 91.5729 61.5449 91.498C61.3757 91.4199 61.1771 91.3809 60.9492 91.3809C60.6823 91.3809 60.4593 91.4281 60.2803 91.5225C60.1012 91.6169 59.958 91.7471 59.8506 91.9131C59.7432 92.0791 59.665 92.2695 59.6162 92.4844C59.5706 92.696 59.5479 92.9206 59.5479 93.1582ZM62.9707 92.6602L62.3652 92.8457C62.3685 92.556 62.4157 92.2777 62.5068 92.0107C62.6012 91.7438 62.7363 91.5062 62.9121 91.2979C63.0911 91.0895 63.3109 90.9251 63.5713 90.8047C63.8317 90.681 64.1296 90.6191 64.4648 90.6191C64.748 90.6191 64.9987 90.6566 65.2168 90.7314C65.4382 90.8063 65.6237 90.9219 65.7734 91.0781C65.9264 91.2311 66.042 91.4281 66.1201 91.6689C66.1982 91.9098 66.2373 92.1963 66.2373 92.5283V96H65.3291V92.5186C65.3291 92.2223 65.2819 91.9928 65.1875 91.8301C65.0964 91.6641 64.9661 91.5485 64.7969 91.4834C64.6309 91.415 64.4323 91.3809 64.2012 91.3809C64.0026 91.3809 63.8268 91.415 63.6738 91.4834C63.5208 91.5518 63.3923 91.6462 63.2881 91.7666C63.1839 91.8838 63.1042 92.0189 63.0488 92.1719C62.9967 92.3249 62.9707 92.4876 62.9707 92.6602ZM69.7969 96.0977C69.429 96.0977 69.0954 96.0358 68.7959 95.9121C68.4997 95.7852 68.2441 95.6077 68.0293 95.3799C67.8177 95.152 67.6549 94.8818 67.541 94.5693C67.4271 94.2568 67.3701 93.915 67.3701 93.5439V93.3389C67.3701 92.9092 67.4336 92.5267 67.5605 92.1914C67.6875 91.8529 67.86 91.5664 68.0781 91.332C68.2962 91.0977 68.5436 90.9202 68.8203 90.7998C69.097 90.6794 69.3835 90.6191 69.6797 90.6191C70.0573 90.6191 70.3828 90.6842 70.6562 90.8145C70.9329 90.9447 71.1592 91.127 71.335 91.3613C71.5107 91.5924 71.641 91.8659 71.7256 92.1816C71.8102 92.4941 71.8525 92.8359 71.8525 93.207V93.6123H67.9072V92.875H70.9492V92.8066C70.9362 92.5723 70.8874 92.3444 70.8027 92.123C70.7214 91.9017 70.5911 91.7194 70.4121 91.5762C70.2331 91.4329 69.9889 91.3613 69.6797 91.3613C69.4746 91.3613 69.2858 91.4053 69.1133 91.4932C68.9408 91.5778 68.7926 91.7048 68.6689 91.874C68.5452 92.0433 68.4492 92.25 68.3809 92.4941C68.3125 92.7383 68.2783 93.0199 68.2783 93.3389V93.5439C68.2783 93.7946 68.3125 94.0306 68.3809 94.252C68.4525 94.4701 68.555 94.6621 68.6885 94.8281C68.8252 94.9941 68.9896 95.1243 69.1816 95.2188C69.377 95.3132 69.5983 95.3604 69.8457 95.3604C70.1647 95.3604 70.4349 95.2952 70.6562 95.165C70.8776 95.0348 71.0713 94.8607 71.2373 94.6426L71.7842 95.0771C71.6702 95.2497 71.5254 95.4141 71.3496 95.5703C71.1738 95.7266 70.9574 95.8535 70.7002 95.9512C70.4463 96.0488 70.1452 96.0977 69.7969 96.0977ZM73.8105 91.5469V96H72.9072V90.7168H73.7861L73.8105 91.5469ZM75.4609 90.6875L75.4561 91.5273C75.3812 91.5111 75.3096 91.5013 75.2412 91.498C75.1761 91.4915 75.1012 91.4883 75.0166 91.4883C74.8083 91.4883 74.6243 91.5208 74.4648 91.5859C74.3053 91.651 74.1702 91.7422 74.0596 91.8594C73.9489 91.9766 73.861 92.1165 73.7959 92.2793C73.734 92.4388 73.6934 92.6146 73.6738 92.8066L73.4199 92.9531C73.4199 92.6341 73.4508 92.3346 73.5127 92.0547C73.5778 91.7747 73.6771 91.5273 73.8105 91.3125C73.944 91.0944 74.1133 90.9251 74.3184 90.8047C74.5267 90.681 74.7741 90.6191 75.0605 90.6191C75.1257 90.6191 75.2005 90.6273 75.2852 90.6436C75.3698 90.6566 75.4284 90.6712 75.4609 90.6875Z" fill="black"/>
<rect x="0.5" y="128.5" width="79" height="29" rx="14.5" fill="#F0F0F0" stroke="black"/>
<path d="M35.3584 138.891V146H34.4111L30.832 140.517V146H29.8896V138.891H30.832L34.4258 144.389V138.891H35.3584ZM40.0068 145.097V142.377C40.0068 142.169 39.9645 141.988 39.8799 141.835C39.7985 141.679 39.6748 141.558 39.5088 141.474C39.3428 141.389 39.1377 141.347 38.8936 141.347C38.6657 141.347 38.4655 141.386 38.293 141.464C38.1237 141.542 37.9902 141.645 37.8926 141.771C37.7982 141.898 37.751 142.035 37.751 142.182H36.8477C36.8477 141.993 36.8965 141.806 36.9941 141.62C37.0918 141.435 37.2318 141.267 37.4141 141.117C37.5996 140.964 37.821 140.844 38.0781 140.756C38.3385 140.665 38.6283 140.619 38.9473 140.619C39.3314 140.619 39.6699 140.684 39.9629 140.814C40.2591 140.945 40.4902 141.142 40.6562 141.405C40.8255 141.666 40.9102 141.993 40.9102 142.387V144.848C40.9102 145.023 40.9248 145.211 40.9541 145.409C40.9867 145.608 41.0339 145.779 41.0957 145.922V146H40.1533C40.1077 145.896 40.0719 145.757 40.0459 145.585C40.0199 145.409 40.0068 145.246 40.0068 145.097ZM40.1631 142.797L40.1729 143.432H39.2598C39.0026 143.432 38.7731 143.453 38.5713 143.495C38.3695 143.534 38.2002 143.594 38.0635 143.676C37.9268 143.757 37.8226 143.86 37.751 143.983C37.6794 144.104 37.6436 144.245 37.6436 144.408C37.6436 144.574 37.681 144.726 37.7559 144.862C37.8307 144.999 37.943 145.108 38.0928 145.189C38.2458 145.268 38.4329 145.307 38.6543 145.307C38.931 145.307 39.1751 145.248 39.3867 145.131C39.5983 145.014 39.766 144.87 39.8896 144.701C40.0166 144.532 40.085 144.368 40.0947 144.208L40.4805 144.643C40.4577 144.779 40.3958 144.931 40.2949 145.097C40.194 145.263 40.0589 145.422 39.8896 145.575C39.7236 145.725 39.5251 145.85 39.2939 145.951C39.0661 146.049 38.8089 146.098 38.5225 146.098C38.1644 146.098 37.8503 146.028 37.5801 145.888C37.3132 145.748 37.1048 145.561 36.9551 145.326C36.8086 145.089 36.7354 144.823 36.7354 144.53C36.7354 144.247 36.7907 143.998 36.9014 143.783C37.012 143.565 37.1715 143.384 37.3799 143.241C37.5882 143.095 37.8389 142.984 38.1318 142.909C38.4248 142.834 38.752 142.797 39.1133 142.797H40.1631ZM43.8594 145.185L45.3047 140.717H46.2275L44.3281 146H43.7227L43.8594 145.185ZM42.6533 140.717L44.1426 145.209L44.2451 146H43.6396L41.7256 140.717H42.6533ZM48 141.845V146H47.0967V140.717H47.9512L48 141.845ZM47.7852 143.158L47.4092 143.144C47.4124 142.782 47.4661 142.449 47.5703 142.143C47.6745 141.833 47.821 141.565 48.0098 141.337C48.1986 141.109 48.4232 140.933 48.6836 140.81C48.9473 140.683 49.2386 140.619 49.5576 140.619C49.818 140.619 50.0524 140.655 50.2607 140.727C50.4691 140.795 50.6465 140.906 50.793 141.059C50.9427 141.212 51.0566 141.41 51.1348 141.654C51.2129 141.895 51.252 142.19 51.252 142.538V146H50.3438V142.528C50.3438 142.252 50.3031 142.03 50.2217 141.864C50.1403 141.695 50.0215 141.573 49.8652 141.498C49.709 141.42 49.5169 141.381 49.2891 141.381C49.0645 141.381 48.8594 141.428 48.6738 141.522C48.4915 141.617 48.3337 141.747 48.2002 141.913C48.07 142.079 47.9674 142.27 47.8926 142.484C47.821 142.696 47.7852 142.921 47.7852 143.158Z" fill="black"/>
</svg>
