<svg width="707" height="424" viewBox="0 0 707 424" fill="none" xmlns="http://www.w3.org/2000/svg">
<rect x="324.5" y="41.5" width="99" height="99" stroke="black"/>
<path d="M368.33 91.0098H366.168L366.156 90.1016H368.119C368.443 90.1016 368.727 90.0469 368.969 89.9375C369.211 89.8281 369.398 89.6719 369.531 89.4688C369.668 89.2617 369.736 89.0156 369.736 88.7305C369.736 88.418 369.676 88.1641 369.555 87.9688C369.438 87.7695 369.256 87.625 369.01 87.5352C368.768 87.4414 368.459 87.3945 368.084 87.3945H366.42V95H365.289V86.4688H368.084C368.521 86.4688 368.912 86.5137 369.256 86.6035C369.6 86.6895 369.891 86.8262 370.129 87.0137C370.371 87.1973 370.555 87.4316 370.68 87.7168C370.805 88.002 370.867 88.3438 370.867 88.7422C370.867 89.0938 370.777 89.4121 370.598 89.6973C370.418 89.9785 370.168 90.209 369.848 90.3887C369.531 90.5684 369.16 90.6836 368.734 90.7344L368.33 91.0098ZM368.277 95H365.723L366.361 94.0801H368.277C368.637 94.0801 368.941 94.0176 369.191 93.8926C369.445 93.7676 369.639 93.5918 369.771 93.3652C369.904 93.1348 369.971 92.8633 369.971 92.5508C369.971 92.2344 369.914 91.9609 369.801 91.7305C369.688 91.5 369.51 91.3223 369.268 91.1973C369.025 91.0723 368.713 91.0098 368.33 91.0098H366.719L366.73 90.1016H368.934L369.174 90.4297C369.584 90.4648 369.932 90.582 370.217 90.7812C370.502 90.9766 370.719 91.2266 370.867 91.5312C371.02 91.8359 371.096 92.1719 371.096 92.5391C371.096 93.0703 370.979 93.5195 370.744 93.8867C370.514 94.25 370.188 94.5273 369.766 94.7188C369.344 94.9062 368.848 95 368.277 95ZM372.314 91.9004V91.7656C372.314 91.3086 372.381 90.8848 372.514 90.4941C372.646 90.0996 372.838 89.7578 373.088 89.4688C373.338 89.1758 373.641 88.9492 373.996 88.7891C374.352 88.625 374.75 88.543 375.191 88.543C375.637 88.543 376.037 88.625 376.393 88.7891C376.752 88.9492 377.057 89.1758 377.307 89.4688C377.561 89.7578 377.754 90.0996 377.887 90.4941C378.02 90.8848 378.086 91.3086 378.086 91.7656V91.9004C378.086 92.3574 378.02 92.7812 377.887 93.1719C377.754 93.5625 377.561 93.9043 377.307 94.1973C377.057 94.4863 376.754 94.7129 376.398 94.877C376.047 95.0371 375.648 95.1172 375.203 95.1172C374.758 95.1172 374.357 95.0371 374.002 94.877C373.646 94.7129 373.342 94.4863 373.088 94.1973C372.838 93.9043 372.646 93.5625 372.514 93.1719C372.381 92.7812 372.314 92.3574 372.314 91.9004ZM373.398 91.7656V91.9004C373.398 92.2168 373.436 92.5156 373.51 92.7969C373.584 93.0742 373.695 93.3203 373.844 93.5352C373.996 93.75 374.186 93.9199 374.412 94.0449C374.639 94.166 374.902 94.2266 375.203 94.2266C375.5 94.2266 375.76 94.166 375.982 94.0449C376.209 93.9199 376.396 93.75 376.545 93.5352C376.693 93.3203 376.805 93.0742 376.879 92.7969C376.957 92.5156 376.996 92.2168 376.996 91.9004V91.7656C376.996 91.4531 376.957 91.1582 376.879 90.8809C376.805 90.5996 376.691 90.3516 376.539 90.1367C376.391 89.918 376.203 89.7461 375.977 89.6211C375.754 89.4961 375.492 89.4336 375.191 89.4336C374.895 89.4336 374.633 89.4961 374.406 89.6211C374.184 89.7461 373.996 89.918 373.844 90.1367C373.695 90.3516 373.584 90.5996 373.51 90.8809C373.436 91.1582 373.398 91.4531 373.398 91.7656ZM380.535 86V95H379.445V86H380.535ZM384.408 88.6602L381.643 91.6191L380.096 93.2246L380.008 92.0703L381.115 90.7461L383.084 88.6602H384.408ZM383.418 95L381.156 91.9766L381.719 91.0098L384.695 95H383.418Z" fill="black"/>
<rect x="41.5" y="41.5" width="99" height="99" stroke="black"/>
<path d="M70.377 86.4688V95H69.2461V86.4688H70.377ZM73.9512 90.3066V91.2324H70.1309V90.3066H73.9512ZM74.5312 86.4688V87.3945H70.1309V86.4688H74.5312ZM75.2988 91.9004V91.7656C75.2988 91.3086 75.3652 90.8848 75.498 90.4941C75.6309 90.0996 75.8223 89.7578 76.0723 89.4688C76.3223 89.1758 76.625 88.9492 76.9805 88.7891C77.3359 88.625 77.7344 88.543 78.1758 88.543C78.6211 88.543 79.0215 88.625 79.377 88.7891C79.7363 88.9492 80.041 89.1758 80.291 89.4688C80.5449 89.7578 80.7383 90.0996 80.8711 90.4941C81.0039 90.8848 81.0703 91.3086 81.0703 91.7656V91.9004C81.0703 92.3574 81.0039 92.7812 80.8711 93.1719C80.7383 93.5625 80.5449 93.9043 80.291 94.1973C80.041 94.4863 79.7383 94.7129 79.3828 94.877C79.0312 95.0371 78.6328 95.1172 78.1875 95.1172C77.7422 95.1172 77.3418 95.0371 76.9863 94.877C76.6309 94.7129 76.3262 94.4863 76.0723 94.1973C75.8223 93.9043 75.6309 93.5625 75.498 93.1719C75.3652 92.7812 75.2988 92.3574 75.2988 91.9004ZM76.3828 91.7656V91.9004C76.3828 92.2168 76.4199 92.5156 76.4941 92.7969C76.5684 93.0742 76.6797 93.3203 76.8281 93.5352C76.9805 93.75 77.1699 93.9199 77.3965 94.0449C77.623 94.166 77.8867 94.2266 78.1875 94.2266C78.4844 94.2266 78.7441 94.166 78.9668 94.0449C79.1934 93.9199 79.3809 93.75 79.5293 93.5352C79.6777 93.3203 79.7891 93.0742 79.8633 92.7969C79.9414 92.5156 79.9805 92.2168 79.9805 91.9004V91.7656C79.9805 91.4531 79.9414 91.1582 79.8633 90.8809C79.7891 90.5996 79.6758 90.3516 79.5234 90.1367C79.375 89.918 79.1875 89.7461 78.9609 89.6211C78.7383 89.4961 78.4766 89.4336 78.1758 89.4336C77.8789 89.4336 77.6172 89.4961 77.3906 89.6211C77.168 89.7461 76.9805 89.918 76.8281 90.1367C76.6797 90.3516 76.5684 90.5996 76.4941 90.8809C76.4199 91.1582 76.3828 91.4531 76.3828 91.7656ZM83.5137 89.6562V95H82.4297V88.6602H83.4844L83.5137 89.6562ZM85.4941 88.625L85.4883 89.6328C85.3984 89.6133 85.3125 89.6016 85.2305 89.5977C85.1523 89.5898 85.0625 89.5859 84.9609 89.5859C84.7109 89.5859 84.4902 89.625 84.2988 89.7031C84.1074 89.7812 83.9453 89.8906 83.8125 90.0312C83.6797 90.1719 83.5742 90.3398 83.4961 90.5352C83.4219 90.7266 83.373 90.9375 83.3496 91.168L83.0449 91.3438C83.0449 90.9609 83.082 90.6016 83.1562 90.2656C83.2344 89.9297 83.3535 89.6328 83.5137 89.375C83.6738 89.1133 83.877 88.9102 84.123 88.7656C84.373 88.6172 84.6699 88.543 85.0137 88.543C85.0918 88.543 85.1816 88.5527 85.2832 88.5723C85.3848 88.5879 85.4551 88.6055 85.4941 88.625ZM88.207 95H87.123V87.9922C87.123 87.5352 87.2051 87.1504 87.3691 86.8379C87.5371 86.5215 87.7773 86.2832 88.0898 86.123C88.4023 85.959 88.7734 85.877 89.2031 85.877C89.3281 85.877 89.4531 85.8848 89.5781 85.9004C89.707 85.916 89.832 85.9395 89.9531 85.9707L89.8945 86.8555C89.8125 86.8359 89.7188 86.8223 89.6133 86.8145C89.5117 86.8066 89.4102 86.8027 89.3086 86.8027C89.0781 86.8027 88.8789 86.8496 88.7109 86.9434C88.5469 87.0332 88.4219 87.166 88.3359 87.3418C88.25 87.5176 88.207 87.7344 88.207 87.9922V95ZM89.5547 88.6602V89.4922H86.1211V88.6602H89.5547ZM94.5 93.916V90.6523C94.5 90.4023 94.4492 90.1855 94.3477 90.002C94.25 89.8145 94.1016 89.6699 93.9023 89.5684C93.7031 89.4668 93.457 89.416 93.1641 89.416C92.8906 89.416 92.6504 89.4629 92.4434 89.5566C92.2402 89.6504 92.0801 89.7734 91.9629 89.9258C91.8496 90.0781 91.793 90.2422 91.793 90.418H90.709C90.709 90.1914 90.7676 89.9668 90.8848 89.7441C91.002 89.5215 91.1699 89.3203 91.3887 89.1406C91.6113 88.957 91.877 88.8125 92.1855 88.707C92.498 88.5977 92.8457 88.543 93.2285 88.543C93.6895 88.543 94.0957 88.6211 94.4473 88.7773C94.8027 88.9336 95.0801 89.1699 95.2793 89.4863C95.4824 89.7988 95.584 90.1914 95.584 90.6641V93.6172C95.584 93.8281 95.6016 94.0527 95.6367 94.291C95.6758 94.5293 95.7324 94.7344 95.8066 94.9062V95H94.6758C94.6211 94.875 94.5781 94.709 94.5469 94.502C94.5156 94.291 94.5 94.0957 94.5 93.916ZM94.6875 91.1562L94.6992 91.918H93.6035C93.2949 91.918 93.0195 91.9434 92.7773 91.9941C92.5352 92.041 92.332 92.1133 92.168 92.2109C92.0039 92.3086 91.8789 92.4316 91.793 92.5801C91.707 92.7246 91.6641 92.8945 91.6641 93.0898C91.6641 93.2891 91.709 93.4707 91.7988 93.6348C91.8887 93.7988 92.0234 93.9297 92.2031 94.0273C92.3867 94.1211 92.6113 94.168 92.877 94.168C93.209 94.168 93.502 94.0977 93.7559 93.957C94.0098 93.8164 94.2109 93.6445 94.3594 93.4414C94.5117 93.2383 94.5938 93.041 94.6055 92.8496L95.0684 93.3711C95.041 93.5352 94.9668 93.7168 94.8457 93.916C94.7246 94.1152 94.5625 94.3066 94.3594 94.4902C94.1602 94.6699 93.9219 94.8203 93.6445 94.9414C93.3711 95.0586 93.0625 95.1172 92.7188 95.1172C92.2891 95.1172 91.9121 95.0332 91.5879 94.8652C91.2676 94.6973 91.0176 94.4727 90.8379 94.1914C90.6621 93.9062 90.5742 93.5879 90.5742 93.2363C90.5742 92.8965 90.6406 92.5977 90.7734 92.3398C90.9062 92.0781 91.0977 91.8613 91.3477 91.6895C91.5977 91.5137 91.8984 91.3809 92.25 91.291C92.6016 91.2012 92.9941 91.1562 93.4277 91.1562H94.6875ZM99.9434 88.6602V89.4922H96.5156V88.6602H99.9434ZM97.6758 87.1191H98.7598V93.4297C98.7598 93.6445 98.793 93.8066 98.8594 93.916C98.9258 94.0254 99.0117 94.0977 99.1172 94.1328C99.2227 94.168 99.3359 94.1855 99.457 94.1855C99.5469 94.1855 99.6406 94.1777 99.7383 94.1621C99.8398 94.1426 99.916 94.127 99.9668 94.1152L99.9727 95C99.8867 95.0273 99.7734 95.0527 99.6328 95.0762C99.4961 95.1035 99.3301 95.1172 99.1348 95.1172C98.8691 95.1172 98.625 95.0645 98.4023 94.959C98.1797 94.8535 98.002 94.6777 97.8691 94.4316C97.7402 94.1816 97.6758 93.8457 97.6758 93.4238V87.1191ZM103.869 88.6602V89.4922H100.441V88.6602H103.869ZM101.602 87.1191H102.686V93.4297C102.686 93.6445 102.719 93.8066 102.785 93.916C102.852 94.0254 102.938 94.0977 103.043 94.1328C103.148 94.168 103.262 94.1855 103.383 94.1855C103.473 94.1855 103.566 94.1777 103.664 94.1621C103.766 94.1426 103.842 94.127 103.893 94.1152L103.898 95C103.812 95.0273 103.699 95.0527 103.559 95.0762C103.422 95.1035 103.256 95.1172 103.061 95.1172C102.795 95.1172 102.551 95.0645 102.328 94.959C102.105 94.8535 101.928 94.6777 101.795 94.4316C101.666 94.1816 101.602 93.8457 101.602 93.4238V87.1191ZM107.771 95.1172C107.33 95.1172 106.93 95.043 106.57 94.8945C106.215 94.7422 105.908 94.5293 105.65 94.2559C105.396 93.9824 105.201 93.6582 105.064 93.2832C104.928 92.9082 104.859 92.498 104.859 92.0527V91.8066C104.859 91.291 104.936 90.832 105.088 90.4297C105.24 90.0234 105.447 89.6797 105.709 89.3984C105.971 89.1172 106.268 88.9043 106.6 88.7598C106.932 88.6152 107.275 88.543 107.631 88.543C108.084 88.543 108.475 88.6211 108.803 88.7773C109.135 88.9336 109.406 89.1523 109.617 89.4336C109.828 89.7109 109.984 90.0391 110.086 90.418C110.188 90.793 110.238 91.2031 110.238 91.6484V92.1348H105.504V91.25H109.154V91.168C109.139 90.8867 109.08 90.6133 108.979 90.3477C108.881 90.082 108.725 89.8633 108.51 89.6914C108.295 89.5195 108.002 89.4336 107.631 89.4336C107.385 89.4336 107.158 89.4863 106.951 89.5918C106.744 89.6934 106.566 89.8457 106.418 90.0488C106.27 90.252 106.154 90.5 106.072 90.793C105.99 91.0859 105.949 91.4238 105.949 91.8066V92.0527C105.949 92.3535 105.99 92.6367 106.072 92.9023C106.158 93.1641 106.281 93.3945 106.441 93.5938C106.605 93.793 106.803 93.9492 107.033 94.0625C107.268 94.1758 107.533 94.2324 107.83 94.2324C108.213 94.2324 108.537 94.1543 108.803 93.998C109.068 93.8418 109.301 93.6328 109.5 93.3711L110.156 93.8926C110.02 94.0996 109.846 94.2969 109.635 94.4844C109.424 94.6719 109.164 94.8242 108.855 94.9414C108.551 95.0586 108.189 95.1172 107.771 95.1172ZM112.588 89.6562V95H111.504V88.6602H112.559L112.588 89.6562ZM114.568 88.625L114.562 89.6328C114.473 89.6133 114.387 89.6016 114.305 89.5977C114.227 89.5898 114.137 89.5859 114.035 89.5859C113.785 89.5859 113.564 89.625 113.373 89.7031C113.182 89.7812 113.02 89.8906 112.887 90.0312C112.754 90.1719 112.648 90.3398 112.57 90.5352C112.496 90.7266 112.447 90.9375 112.424 91.168L112.119 91.3438C112.119 90.9609 112.156 90.6016 112.23 90.2656C112.309 89.9297 112.428 89.6328 112.588 89.375C112.748 89.1133 112.951 88.9102 113.197 88.7656C113.447 88.6172 113.744 88.543 114.088 88.543C114.166 88.543 114.256 88.5527 114.357 88.5723C114.459 88.5879 114.529 88.6055 114.568 88.625Z" fill="black"/>
<rect x="607.5" y="41.5" width="99" height="99" stroke="black"/>
<path d="M642.322 86.4688V95H641.191V86.4688H642.322ZM645.896 90.3066V91.2324H642.076V90.3066H645.896ZM646.477 86.4688V87.3945H642.076V86.4688H646.477ZM647.244 91.9004V91.7656C647.244 91.3086 647.311 90.8848 647.443 90.4941C647.576 90.0996 647.768 89.7578 648.018 89.4688C648.268 89.1758 648.57 88.9492 648.926 88.7891C649.281 88.625 649.68 88.543 650.121 88.543C650.566 88.543 650.967 88.625 651.322 88.7891C651.682 88.9492 651.986 89.1758 652.236 89.4688C652.49 89.7578 652.684 90.0996 652.816 90.4941C652.949 90.8848 653.016 91.3086 653.016 91.7656V91.9004C653.016 92.3574 652.949 92.7812 652.816 93.1719C652.684 93.5625 652.49 93.9043 652.236 94.1973C651.986 94.4863 651.684 94.7129 651.328 94.877C650.977 95.0371 650.578 95.1172 650.133 95.1172C649.688 95.1172 649.287 95.0371 648.932 94.877C648.576 94.7129 648.271 94.4863 648.018 94.1973C647.768 93.9043 647.576 93.5625 647.443 93.1719C647.311 92.7812 647.244 92.3574 647.244 91.9004ZM648.328 91.7656V91.9004C648.328 92.2168 648.365 92.5156 648.439 92.7969C648.514 93.0742 648.625 93.3203 648.773 93.5352C648.926 93.75 649.115 93.9199 649.342 94.0449C649.568 94.166 649.832 94.2266 650.133 94.2266C650.43 94.2266 650.689 94.166 650.912 94.0449C651.139 93.9199 651.326 93.75 651.475 93.5352C651.623 93.3203 651.734 93.0742 651.809 92.7969C651.887 92.5156 651.926 92.2168 651.926 91.9004V91.7656C651.926 91.4531 651.887 91.1582 651.809 90.8809C651.734 90.5996 651.621 90.3516 651.469 90.1367C651.32 89.918 651.133 89.7461 650.906 89.6211C650.684 89.4961 650.422 89.4336 650.121 89.4336C649.824 89.4336 649.562 89.4961 649.336 89.6211C649.113 89.7461 648.926 89.918 648.773 90.1367C648.625 90.3516 648.514 90.5996 648.439 90.8809C648.365 91.1582 648.328 91.4531 648.328 91.7656ZM655.459 89.6562V95H654.375V88.6602H655.43L655.459 89.6562ZM657.439 88.625L657.434 89.6328C657.344 89.6133 657.258 89.6016 657.176 89.5977C657.098 89.5898 657.008 89.5859 656.906 89.5859C656.656 89.5859 656.436 89.625 656.244 89.7031C656.053 89.7812 655.891 89.8906 655.758 90.0312C655.625 90.1719 655.52 90.3398 655.441 90.5352C655.367 90.7266 655.318 90.9375 655.295 91.168L654.99 91.3438C654.99 90.9609 655.027 90.6016 655.102 90.2656C655.18 89.9297 655.299 89.6328 655.459 89.375C655.619 89.1133 655.822 88.9102 656.068 88.7656C656.318 88.6172 656.615 88.543 656.959 88.543C657.037 88.543 657.127 88.5527 657.229 88.5723C657.33 88.5879 657.4 88.6055 657.439 88.625ZM659.619 86V95H658.529V86H659.619ZM665.098 93.916V90.6523C665.098 90.4023 665.047 90.1855 664.945 90.002C664.848 89.8145 664.699 89.6699 664.5 89.5684C664.301 89.4668 664.055 89.416 663.762 89.416C663.488 89.416 663.248 89.4629 663.041 89.5566C662.838 89.6504 662.678 89.7734 662.561 89.9258C662.447 90.0781 662.391 90.2422 662.391 90.418H661.307C661.307 90.1914 661.365 89.9668 661.482 89.7441C661.6 89.5215 661.768 89.3203 661.986 89.1406C662.209 88.957 662.475 88.8125 662.783 88.707C663.096 88.5977 663.443 88.543 663.826 88.543C664.287 88.543 664.693 88.6211 665.045 88.7773C665.4 88.9336 665.678 89.1699 665.877 89.4863C666.08 89.7988 666.182 90.1914 666.182 90.6641V93.6172C666.182 93.8281 666.199 94.0527 666.234 94.291C666.273 94.5293 666.33 94.7344 666.404 94.9062V95H665.273C665.219 94.875 665.176 94.709 665.145 94.502C665.113 94.291 665.098 94.0957 665.098 93.916ZM665.285 91.1562L665.297 91.918H664.201C663.893 91.918 663.617 91.9434 663.375 91.9941C663.133 92.041 662.93 92.1133 662.766 92.2109C662.602 92.3086 662.477 92.4316 662.391 92.5801C662.305 92.7246 662.262 92.8945 662.262 93.0898C662.262 93.2891 662.307 93.4707 662.396 93.6348C662.486 93.7988 662.621 93.9297 662.801 94.0273C662.984 94.1211 663.209 94.168 663.475 94.168C663.807 94.168 664.1 94.0977 664.354 93.957C664.607 93.8164 664.809 93.6445 664.957 93.4414C665.109 93.2383 665.191 93.041 665.203 92.8496L665.666 93.3711C665.639 93.5352 665.564 93.7168 665.443 93.916C665.322 94.1152 665.16 94.3066 664.957 94.4902C664.758 94.6699 664.52 94.8203 664.242 94.9414C663.969 95.0586 663.66 95.1172 663.316 95.1172C662.887 95.1172 662.51 95.0332 662.186 94.8652C661.865 94.6973 661.615 94.4727 661.436 94.1914C661.26 93.9062 661.172 93.5879 661.172 93.2363C661.172 92.8965 661.238 92.5977 661.371 92.3398C661.504 92.0781 661.695 91.8613 661.945 91.6895C662.195 91.5137 662.496 91.3809 662.848 91.291C663.199 91.2012 663.592 91.1562 664.025 91.1562H665.285ZM671.994 88.6602H672.979V94.8652C672.979 95.4238 672.865 95.9004 672.639 96.2949C672.412 96.6895 672.096 96.9883 671.689 97.1914C671.287 97.3984 670.822 97.502 670.295 97.502C670.076 97.502 669.818 97.4668 669.521 97.3965C669.229 97.3301 668.939 97.2148 668.654 97.0508C668.373 96.8906 668.137 96.6738 667.945 96.4004L668.514 95.7559C668.779 96.0762 669.057 96.2988 669.346 96.4238C669.639 96.5488 669.928 96.6113 670.213 96.6113C670.557 96.6113 670.854 96.5469 671.104 96.418C671.354 96.2891 671.547 96.0977 671.684 95.8438C671.824 95.5938 671.895 95.2852 671.895 94.918V90.0547L671.994 88.6602ZM667.629 91.9004V91.7773C667.629 91.293 667.686 90.8535 667.799 90.459C667.916 90.0605 668.082 89.7188 668.297 89.4336C668.516 89.1484 668.779 88.9297 669.088 88.7773C669.396 88.6211 669.744 88.543 670.131 88.543C670.529 88.543 670.877 88.6133 671.174 88.7539C671.475 88.8906 671.729 89.0918 671.936 89.3574C672.146 89.6191 672.312 89.9355 672.434 90.3066C672.555 90.6777 672.639 91.0977 672.686 91.5664V92.1055C672.643 92.5703 672.559 92.9883 672.434 93.3594C672.312 93.7305 672.146 94.0469 671.936 94.3086C671.729 94.5703 671.475 94.7715 671.174 94.9121C670.873 95.0488 670.521 95.1172 670.119 95.1172C669.74 95.1172 669.396 95.0371 669.088 94.877C668.783 94.7168 668.521 94.4922 668.303 94.2031C668.084 93.9141 667.916 93.5742 667.799 93.1836C667.686 92.7891 667.629 92.3613 667.629 91.9004ZM668.713 91.7773V91.9004C668.713 92.2168 668.744 92.5137 668.807 92.791C668.873 93.0684 668.973 93.3125 669.105 93.5234C669.242 93.7344 669.416 93.9004 669.627 94.0215C669.838 94.1387 670.09 94.1973 670.383 94.1973C670.742 94.1973 671.039 94.1211 671.273 93.9688C671.508 93.8164 671.693 93.6152 671.83 93.3652C671.971 93.1152 672.08 92.8438 672.158 92.5508V91.1387C672.115 90.9238 672.049 90.7168 671.959 90.5176C671.873 90.3145 671.76 90.1348 671.619 89.9785C671.482 89.8184 671.312 89.6914 671.109 89.5977C670.906 89.5039 670.668 89.457 670.395 89.457C670.098 89.457 669.842 89.5195 669.627 89.6445C669.416 89.7656 669.242 89.9336 669.105 90.1484C668.973 90.3594 668.873 90.6055 668.807 90.8867C668.744 91.1641 668.713 91.4609 668.713 91.7773Z" fill="black"/>
<rect x="232.426" y="49.7071" width="59" height="59" transform="rotate(45 232.426 49.7071)" stroke="black"/>
<path d="M210.18 90.4921V91.412H205.563V90.4921H210.18ZM205.739 86.8241V95.3553H204.608V86.8241H205.739ZM211.165 86.8241V95.3553H210.04V86.8241H211.165ZM216.749 94.2714V91.0077C216.749 90.7577 216.698 90.5409 216.596 90.3573C216.499 90.1698 216.35 90.0253 216.151 89.9237C215.952 89.8221 215.706 89.7714 215.413 89.7714C215.139 89.7714 214.899 89.8182 214.692 89.912C214.489 90.0057 214.329 90.1288 214.212 90.2811C214.098 90.4335 214.042 90.5975 214.042 90.7733H212.958C212.958 90.5468 213.016 90.3221 213.134 90.0995C213.251 89.8768 213.419 89.6757 213.637 89.496C213.86 89.3124 214.126 89.1678 214.434 89.0624C214.747 88.953 215.094 88.8983 215.477 88.8983C215.938 88.8983 216.344 88.9764 216.696 89.1327C217.052 89.2889 217.329 89.5253 217.528 89.8417C217.731 90.1542 217.833 90.5468 217.833 91.0194V93.9725C217.833 94.1835 217.85 94.4081 217.885 94.6464C217.925 94.8846 217.981 95.0897 218.055 95.2616V95.3553H216.925C216.87 95.2303 216.827 95.0643 216.796 94.8573C216.764 94.6464 216.749 94.451 216.749 94.2714ZM216.936 91.5116L216.948 92.2733H215.852C215.544 92.2733 215.268 92.2987 215.026 92.3495C214.784 92.3964 214.581 92.4686 214.417 92.5663C214.253 92.6639 214.128 92.787 214.042 92.9354C213.956 93.08 213.913 93.2499 213.913 93.4452C213.913 93.6444 213.958 93.826 214.048 93.9901C214.137 94.1542 214.272 94.285 214.452 94.3827C214.635 94.4764 214.86 94.5233 215.126 94.5233C215.458 94.5233 215.751 94.453 216.005 94.3124C216.259 94.1718 216.46 93.9999 216.608 93.7968C216.76 93.5936 216.843 93.3964 216.854 93.205L217.317 93.7264C217.29 93.8905 217.216 94.0721 217.094 94.2714C216.973 94.4706 216.811 94.662 216.608 94.8456C216.409 95.0253 216.171 95.1757 215.893 95.2968C215.62 95.4139 215.311 95.4725 214.968 95.4725C214.538 95.4725 214.161 95.3885 213.837 95.2206C213.516 95.0526 213.266 94.828 213.087 94.5468C212.911 94.2616 212.823 93.9432 212.823 93.5917C212.823 93.2518 212.889 92.953 213.022 92.6952C213.155 92.4335 213.346 92.2167 213.596 92.0448C213.846 91.869 214.147 91.7362 214.499 91.6464C214.85 91.5565 215.243 91.5116 215.677 91.5116H216.936ZM220.622 90.0116V95.3553H219.538V89.0155H220.593L220.622 90.0116ZM222.602 88.9803L222.596 89.9882C222.507 89.9686 222.421 89.9569 222.339 89.953C222.26 89.9452 222.171 89.9413 222.069 89.9413C221.819 89.9413 221.598 89.9803 221.407 90.0585C221.216 90.1366 221.053 90.246 220.921 90.3866C220.788 90.5272 220.682 90.6952 220.604 90.8905C220.53 91.0819 220.481 91.2928 220.458 91.5233L220.153 91.6991C220.153 91.3163 220.19 90.9569 220.264 90.621C220.343 90.285 220.462 89.9882 220.622 89.7303C220.782 89.4686 220.985 89.2655 221.231 89.121C221.481 88.9725 221.778 88.8983 222.122 88.8983C222.2 88.8983 222.29 88.9081 222.391 88.9276C222.493 88.9432 222.563 88.9608 222.602 88.9803ZM228.315 93.1991C228.315 92.9999 228.284 92.8241 228.221 92.6718C228.163 92.5155 228.057 92.3749 227.905 92.2499C227.757 92.1249 227.55 92.0057 227.284 91.8925C227.022 91.7792 226.69 91.6639 226.288 91.5468C225.866 91.4218 225.485 91.2831 225.145 91.1307C224.805 90.9745 224.514 90.7968 224.272 90.5975C224.03 90.3983 223.844 90.1698 223.716 89.912C223.587 89.6542 223.522 89.3593 223.522 89.0272C223.522 88.6952 223.591 88.3885 223.727 88.1073C223.864 87.826 224.059 87.5819 224.313 87.3749C224.571 87.1639 224.878 86.9999 225.233 86.8827C225.589 86.7655 225.985 86.7069 226.423 86.7069C227.063 86.7069 227.606 86.83 228.052 87.076C228.501 87.3182 228.843 87.6366 229.077 88.0311C229.311 88.4218 229.428 88.8397 229.428 89.285H228.303C228.303 88.9647 228.235 88.6815 228.098 88.4354C227.962 88.1854 227.755 87.9901 227.477 87.8495C227.2 87.705 226.848 87.6327 226.423 87.6327C226.02 87.6327 225.688 87.6932 225.427 87.8143C225.165 87.9354 224.969 88.0995 224.841 88.3065C224.716 88.5135 224.653 88.7499 224.653 89.0155C224.653 89.1952 224.69 89.3593 224.764 89.5077C224.843 89.6522 224.962 89.787 225.122 89.912C225.286 90.037 225.493 90.1522 225.743 90.2577C225.997 90.3632 226.3 90.4647 226.651 90.5624C227.135 90.6991 227.553 90.8514 227.905 91.0194C228.257 91.1874 228.546 91.3768 228.772 91.5878C229.003 91.7948 229.173 92.0311 229.282 92.2968C229.395 92.5585 229.452 92.8553 229.452 93.1874C229.452 93.535 229.382 93.8495 229.241 94.1307C229.1 94.412 228.899 94.6522 228.637 94.8514C228.376 95.0507 228.061 95.205 227.694 95.3143C227.331 95.4198 226.925 95.4725 226.475 95.4725C226.081 95.4725 225.692 95.4178 225.309 95.3085C224.93 95.1991 224.585 95.035 224.272 94.8163C223.964 94.5975 223.716 94.328 223.528 94.0077C223.344 93.6835 223.253 93.3085 223.253 92.8827H224.378C224.378 93.1757 224.434 93.4276 224.548 93.6385C224.661 93.8456 224.815 94.0175 225.01 94.1542C225.21 94.2909 225.434 94.3925 225.684 94.4589C225.938 94.5214 226.202 94.5526 226.475 94.5526C226.87 94.5526 227.204 94.4979 227.477 94.3885C227.751 94.2792 227.958 94.1229 228.098 93.9198C228.243 93.7167 228.315 93.4764 228.315 93.1991ZM231.819 86.3553V95.3553H230.729V86.3553H231.819ZM235.692 89.0155L232.927 91.9745L231.38 93.58L231.292 92.4257L232.399 91.1014L234.368 89.0155H235.692ZM234.702 95.3553L232.44 92.3319L233.003 91.3651L235.979 95.3553H234.702ZM237.895 90.0116V95.3553H236.811V89.0155H237.866L237.895 90.0116ZM239.876 88.9803L239.87 89.9882C239.78 89.9686 239.694 89.9569 239.612 89.953C239.534 89.9452 239.444 89.9413 239.343 89.9413C239.093 89.9413 238.872 89.9803 238.68 90.0585C238.489 90.1366 238.327 90.246 238.194 90.3866C238.061 90.5272 237.956 90.6952 237.878 90.8905C237.803 91.0819 237.755 91.2928 237.731 91.5233L237.427 91.6991C237.427 91.3163 237.464 90.9569 237.538 90.621C237.616 90.285 237.735 89.9882 237.895 89.7303C238.055 89.4686 238.259 89.2655 238.505 89.121C238.755 88.9725 239.052 88.8983 239.395 88.8983C239.473 88.8983 239.563 88.9081 239.665 88.9276C239.766 88.9432 239.837 88.9608 239.876 88.9803ZM243.391 95.4725C242.95 95.4725 242.55 95.3983 242.19 95.2499C241.835 95.0975 241.528 94.8846 241.27 94.6112C241.016 94.3378 240.821 94.0135 240.684 93.6385C240.548 93.2635 240.479 92.8534 240.479 92.4081V92.162C240.479 91.6464 240.555 91.1874 240.708 90.785C240.86 90.3788 241.067 90.035 241.329 89.7538C241.591 89.4725 241.887 89.2596 242.219 89.1151C242.552 88.9706 242.895 88.8983 243.251 88.8983C243.704 88.8983 244.094 88.9764 244.423 89.1327C244.755 89.2889 245.026 89.5077 245.237 89.7889C245.448 90.0663 245.604 90.3944 245.706 90.7733C245.807 91.1483 245.858 91.5585 245.858 92.0038V92.4901H241.124V91.6053H244.774V91.5233C244.759 91.2421 244.7 90.9686 244.598 90.703C244.501 90.4374 244.344 90.2186 244.13 90.0468C243.915 89.8749 243.622 89.7889 243.251 89.7889C243.005 89.7889 242.778 89.8417 242.571 89.9471C242.364 90.0487 242.186 90.201 242.038 90.4042C241.889 90.6073 241.774 90.8553 241.692 91.1483C241.61 91.4413 241.569 91.7792 241.569 92.162V92.4081C241.569 92.7089 241.61 92.9921 241.692 93.2577C241.778 93.5194 241.901 93.7499 242.061 93.9491C242.225 94.1483 242.423 94.3046 242.653 94.4178C242.887 94.5311 243.153 94.5878 243.45 94.5878C243.833 94.5878 244.157 94.5096 244.423 94.3534C244.688 94.1971 244.921 93.9882 245.12 93.7264L245.776 94.2479C245.639 94.455 245.466 94.6522 245.255 94.8397C245.044 95.0272 244.784 95.1796 244.475 95.2968C244.171 95.4139 243.809 95.4725 243.391 95.4725ZM248.969 94.3768L250.704 89.0155H251.811L249.532 95.3553H248.805L248.969 94.3768ZM247.522 89.0155L249.309 94.4061L249.432 95.3553H248.706L246.409 89.0155H247.522ZM255.403 95.4725C254.962 95.4725 254.561 95.3983 254.202 95.2499C253.846 95.0975 253.54 94.8846 253.282 94.6112C253.028 94.3378 252.833 94.0135 252.696 93.6385C252.559 93.2635 252.491 92.8534 252.491 92.4081V92.162C252.491 91.6464 252.567 91.1874 252.719 90.785C252.872 90.3788 253.079 90.035 253.341 89.7538C253.602 89.4725 253.899 89.2596 254.231 89.1151C254.563 88.9706 254.907 88.8983 255.262 88.8983C255.716 88.8983 256.106 88.9764 256.434 89.1327C256.766 89.2889 257.038 89.5077 257.249 89.7889C257.46 90.0663 257.616 90.3944 257.718 90.7733C257.819 91.1483 257.87 91.5585 257.87 92.0038V92.4901H253.135V91.6053H256.786V91.5233C256.77 91.2421 256.712 90.9686 256.61 90.703C256.512 90.4374 256.356 90.2186 256.141 90.0468C255.927 89.8749 255.634 89.7889 255.262 89.7889C255.016 89.7889 254.79 89.8417 254.583 89.9471C254.376 90.0487 254.198 90.201 254.05 90.4042C253.901 90.6073 253.786 90.8553 253.704 91.1483C253.622 91.4413 253.581 91.7792 253.581 92.162V92.4081C253.581 92.7089 253.622 92.9921 253.704 93.2577C253.79 93.5194 253.913 93.7499 254.073 93.9491C254.237 94.1483 254.434 94.3046 254.665 94.4178C254.899 94.5311 255.165 94.5878 255.462 94.5878C255.844 94.5878 256.169 94.5096 256.434 94.3534C256.7 94.1971 256.932 93.9882 257.132 93.7264L257.788 94.2479C257.651 94.455 257.477 94.6522 257.266 94.8397C257.055 95.0272 256.796 95.1796 256.487 95.2968C256.182 95.4139 255.821 95.4725 255.403 95.4725ZM261.79 89.0155V89.8475H258.362V89.0155H261.79ZM259.522 87.4745H260.606V93.785C260.606 93.9999 260.639 94.162 260.706 94.2714C260.772 94.3807 260.858 94.453 260.964 94.4882C261.069 94.5233 261.182 94.5409 261.303 94.5409C261.393 94.5409 261.487 94.5331 261.585 94.5175C261.686 94.4979 261.762 94.4823 261.813 94.4706L261.819 95.3553C261.733 95.3827 261.62 95.4081 261.479 95.4315C261.343 95.4589 261.177 95.4725 260.981 95.4725C260.716 95.4725 260.471 95.4198 260.249 95.3143C260.026 95.2089 259.848 95.0331 259.716 94.787C259.587 94.537 259.522 94.201 259.522 93.7792V87.4745Z" fill="black"/>
<rect x="141" y="91" width="50" height="1" fill="black"/>
<rect x="274" y="91" width="50" height="1" fill="black"/>
<path d="M143.307 82.5898V82.5312C143.307 81.6797 143.402 80.9102 143.594 80.2227C143.785 79.5312 144.029 78.9258 144.326 78.4062C144.623 77.8867 144.936 77.457 145.264 77.1172C145.592 76.7734 145.895 76.5254 146.172 76.373L146.4 77.0879C146.17 77.2637 145.936 77.5059 145.697 77.8145C145.463 78.123 145.246 78.502 145.047 78.9512C144.852 79.4004 144.693 79.9219 144.572 80.5156C144.451 81.1094 144.391 81.7773 144.391 82.5195V82.6016C144.391 83.3438 144.451 84.0137 144.572 84.6113C144.693 85.2051 144.852 85.7285 145.047 86.1816C145.246 86.6348 145.463 87.0195 145.697 87.3359C145.936 87.6562 146.17 87.9102 146.4 88.0977L146.172 88.7539C145.895 88.6016 145.592 88.3535 145.264 88.0098C144.936 87.6699 144.623 87.2402 144.326 86.7207C144.029 86.2051 143.785 85.6016 143.594 84.9102C143.402 84.2188 143.307 83.4453 143.307 82.5898ZM150.906 77.4219V86H149.822V78.7754L147.637 79.5723V78.5938L150.736 77.4219H150.906ZM155.195 84.7109V85.584C155.195 85.9395 155.105 86.3145 154.926 86.709C154.746 87.1074 154.494 87.4395 154.17 87.7051L153.555 87.2773C153.68 87.1055 153.785 86.9297 153.871 86.75C153.957 86.5742 154.021 86.3906 154.064 86.1992C154.111 86.0117 154.135 85.8125 154.135 85.6016V84.7109H155.195ZM166.281 77.4688V86H165.145L160.85 79.4199V86H159.719V77.4688H160.85L165.162 84.0664V77.4688H166.281ZM170.617 82.5312V82.5898C170.617 83.4453 170.521 84.2188 170.33 84.9102C170.139 85.6016 169.895 86.2051 169.598 86.7207C169.301 87.2402 168.988 87.6699 168.66 88.0098C168.332 88.3535 168.029 88.6016 167.752 88.7539L167.523 88.0977C167.754 87.9219 167.986 87.6758 168.221 87.3594C168.455 87.0469 168.672 86.6602 168.871 86.1992C169.07 85.7422 169.23 85.2148 169.352 84.6172C169.473 84.0156 169.533 83.3438 169.533 82.6016V82.5195C169.533 81.7773 169.469 81.1074 169.34 80.5098C169.211 79.9082 169.043 79.3789 168.836 78.9219C168.633 78.4648 168.414 78.0801 168.18 77.7676C167.949 77.4512 167.73 77.207 167.523 77.0352L167.752 76.373C168.029 76.5254 168.332 76.7734 168.66 77.1172C168.988 77.457 169.301 77.8867 169.598 78.4062C169.895 78.9258 170.139 79.5312 170.33 80.2227C170.521 80.9102 170.617 81.6797 170.617 82.5312Z" fill="black"/>
<path d="M295.215 82.5898V82.5312C295.215 81.6797 295.311 80.9102 295.502 80.2227C295.693 79.5312 295.938 78.9258 296.234 78.4062C296.531 77.8867 296.844 77.457 297.172 77.1172C297.5 76.7734 297.803 76.5254 298.08 76.373L298.309 77.0879C298.078 77.2637 297.844 77.5059 297.605 77.8145C297.371 78.123 297.154 78.502 296.955 78.9512C296.76 79.4004 296.602 79.9219 296.48 80.5156C296.359 81.1094 296.299 81.7773 296.299 82.5195V82.6016C296.299 83.3438 296.359 84.0137 296.48 84.6113C296.602 85.2051 296.76 85.7285 296.955 86.1816C297.154 86.6348 297.371 87.0195 297.605 87.3359C297.844 87.6562 298.078 87.9102 298.309 88.0977L298.08 88.7539C297.803 88.6016 297.5 88.3535 297.172 88.0098C296.844 87.6699 296.531 87.2402 296.234 86.7207C295.938 86.2051 295.693 85.6016 295.502 84.9102C295.311 84.2188 295.215 83.4453 295.215 82.5898ZM302.814 77.4219V86H301.73V78.7754L299.545 79.5723V78.5938L302.645 77.4219H302.814ZM307.104 84.7109V85.584C307.104 85.9395 307.014 86.3145 306.834 86.709C306.654 87.1074 306.402 87.4395 306.078 87.7051L305.463 87.2773C305.588 87.1055 305.693 86.9297 305.779 86.75C305.865 86.5742 305.93 86.3906 305.973 86.1992C306.02 86.0117 306.043 85.8125 306.043 85.6016V84.7109H307.104ZM314.908 77.4219V86H313.824V78.7754L311.639 79.5723V78.5938L314.738 77.4219H314.908ZM320.709 82.5312V82.5898C320.709 83.4453 320.613 84.2188 320.422 84.9102C320.23 85.6016 319.986 86.2051 319.689 86.7207C319.393 87.2402 319.08 87.6699 318.752 88.0098C318.424 88.3535 318.121 88.6016 317.844 88.7539L317.615 88.0977C317.846 87.9219 318.078 87.6758 318.312 87.3594C318.547 87.0469 318.764 86.6602 318.963 86.1992C319.162 85.7422 319.322 85.2148 319.443 84.6172C319.564 84.0156 319.625 83.3438 319.625 82.6016V82.5195C319.625 81.7773 319.561 81.1074 319.432 80.5098C319.303 79.9082 319.135 79.3789 318.928 78.9219C318.725 78.4648 318.506 78.0801 318.271 77.7676C318.041 77.4512 317.822 77.207 317.615 77.0352L317.844 76.373C318.121 76.5254 318.424 76.7734 318.752 77.1172C319.08 77.457 319.393 77.8867 319.689 78.4062C319.986 78.9258 320.23 79.5312 320.422 80.2227C320.613 80.9102 320.709 81.6797 320.709 82.5312Z" fill="black"/>
<rect x="374.426" y="190.707" width="59" height="59" transform="rotate(45 374.426 190.707)" stroke="black"/>
<path d="M352.987 231.82V232.359C352.987 233 352.907 233.574 352.747 234.082C352.586 234.59 352.356 235.021 352.055 235.377C351.754 235.732 351.393 236.004 350.971 236.191C350.553 236.379 350.084 236.473 349.565 236.473C349.061 236.473 348.598 236.379 348.176 236.191C347.758 236.004 347.395 235.732 347.086 235.377C346.782 235.021 346.545 234.59 346.377 234.082C346.209 233.574 346.125 233 346.125 232.359V231.82C346.125 231.18 346.208 230.607 346.372 230.103C346.54 229.596 346.776 229.164 347.081 228.808C347.385 228.449 347.747 228.176 348.165 227.988C348.586 227.801 349.049 227.707 349.553 227.707C350.073 227.707 350.542 227.801 350.959 227.988C351.381 228.176 351.743 228.449 352.043 228.808C352.348 229.164 352.581 229.596 352.741 230.103C352.905 230.607 352.987 231.18 352.987 231.82ZM351.868 232.359V231.808C351.868 231.301 351.815 230.851 351.709 230.461C351.608 230.07 351.458 229.742 351.258 229.476C351.059 229.211 350.815 229.01 350.526 228.873C350.241 228.736 349.917 228.668 349.553 228.668C349.202 228.668 348.883 228.736 348.598 228.873C348.317 229.01 348.075 229.211 347.872 229.476C347.672 229.742 347.518 230.07 347.409 230.461C347.299 230.851 347.245 231.301 347.245 231.808V232.359C347.245 232.871 347.299 233.324 347.409 233.719C347.518 234.109 347.674 234.439 347.877 234.709C348.084 234.974 348.329 235.176 348.61 235.312C348.895 235.449 349.213 235.517 349.565 235.517C349.932 235.517 350.258 235.449 350.543 235.312C350.829 235.176 351.069 234.974 351.264 234.709C351.463 234.439 351.614 234.109 351.715 233.719C351.817 233.324 351.868 232.871 351.868 232.359ZM356.444 235.377L358.178 230.016H359.286L357.006 236.355H356.28L356.444 235.377ZM354.997 230.016L356.784 235.406L356.907 236.355H356.18L353.883 230.016H354.997ZM362.877 236.473C362.436 236.473 362.036 236.398 361.676 236.25C361.321 236.098 361.014 235.885 360.756 235.611C360.502 235.338 360.307 235.014 360.17 234.639C360.034 234.264 359.965 233.853 359.965 233.408V233.162C359.965 232.646 360.042 232.187 360.194 231.785C360.346 231.379 360.553 231.035 360.815 230.754C361.077 230.473 361.374 230.26 361.706 230.115C362.038 229.971 362.381 229.898 362.737 229.898C363.19 229.898 363.581 229.976 363.909 230.133C364.241 230.289 364.512 230.508 364.723 230.789C364.934 231.066 365.09 231.394 365.192 231.773C365.293 232.148 365.344 232.558 365.344 233.004V233.49H360.61V232.605H364.26V232.523C364.245 232.242 364.186 231.969 364.084 231.703C363.987 231.437 363.831 231.219 363.616 231.047C363.401 230.875 363.108 230.789 362.737 230.789C362.491 230.789 362.264 230.842 362.057 230.947C361.85 231.049 361.672 231.201 361.524 231.404C361.375 231.607 361.26 231.855 361.178 232.148C361.096 232.441 361.055 232.779 361.055 233.162V233.408C361.055 233.709 361.096 233.992 361.178 234.258C361.264 234.519 361.387 234.75 361.547 234.949C361.711 235.148 361.909 235.305 362.139 235.418C362.374 235.531 362.639 235.588 362.936 235.588C363.319 235.588 363.643 235.51 363.909 235.353C364.174 235.197 364.407 234.988 364.606 234.726L365.262 235.248C365.125 235.455 364.952 235.652 364.741 235.84C364.53 236.027 364.27 236.18 363.961 236.297C363.657 236.414 363.295 236.473 362.877 236.473ZM367.694 231.012V236.355H366.61V230.016H367.665L367.694 231.012ZM369.674 229.98L369.668 230.988C369.579 230.969 369.493 230.957 369.411 230.953C369.333 230.945 369.243 230.941 369.141 230.941C368.891 230.941 368.67 230.98 368.479 231.058C368.288 231.137 368.125 231.246 367.993 231.387C367.86 231.527 367.754 231.695 367.676 231.891C367.602 232.082 367.553 232.293 367.53 232.523L367.225 232.699C367.225 232.316 367.262 231.957 367.336 231.621C367.415 231.285 367.534 230.988 367.694 230.73C367.854 230.469 368.057 230.266 368.303 230.121C368.553 229.973 368.85 229.898 369.194 229.898C369.272 229.898 369.362 229.908 369.463 229.928C369.565 229.943 369.635 229.961 369.674 229.98ZM374.368 234.674C374.368 234.517 374.333 234.373 374.262 234.24C374.196 234.103 374.057 233.98 373.846 233.871C373.639 233.758 373.327 233.66 372.909 233.578C372.557 233.504 372.239 233.416 371.954 233.314C371.672 233.213 371.432 233.09 371.233 232.945C371.038 232.801 370.887 232.631 370.782 232.435C370.676 232.24 370.624 232.012 370.624 231.75C370.624 231.5 370.678 231.264 370.788 231.041C370.901 230.818 371.059 230.621 371.262 230.449C371.469 230.277 371.717 230.142 372.006 230.045C372.295 229.947 372.618 229.898 372.973 229.898C373.481 229.898 373.915 229.988 374.274 230.168C374.633 230.348 374.909 230.588 375.1 230.889C375.292 231.185 375.387 231.516 375.387 231.879H374.303C374.303 231.703 374.25 231.533 374.145 231.369C374.043 231.201 373.893 231.062 373.694 230.953C373.499 230.844 373.258 230.789 372.973 230.789C372.672 230.789 372.428 230.836 372.241 230.93C372.057 231.019 371.922 231.135 371.836 231.275C371.754 231.416 371.713 231.564 371.713 231.721C371.713 231.838 371.733 231.943 371.772 232.037C371.815 232.127 371.889 232.211 371.995 232.289C372.1 232.363 372.249 232.433 372.44 232.5C372.631 232.566 372.875 232.633 373.172 232.699C373.692 232.816 374.12 232.957 374.456 233.121C374.792 233.285 375.042 233.486 375.206 233.724C375.37 233.963 375.452 234.252 375.452 234.592C375.452 234.869 375.393 235.123 375.276 235.353C375.163 235.584 374.997 235.783 374.778 235.951C374.563 236.115 374.305 236.244 374.004 236.338C373.708 236.428 373.374 236.473 373.002 236.473C372.444 236.473 371.971 236.373 371.584 236.174C371.198 235.974 370.905 235.717 370.706 235.4C370.506 235.084 370.407 234.75 370.407 234.398H371.497C371.512 234.695 371.598 234.932 371.754 235.107C371.911 235.279 372.102 235.402 372.329 235.476C372.555 235.547 372.78 235.582 373.002 235.582C373.299 235.582 373.547 235.543 373.747 235.465C373.95 235.387 374.104 235.279 374.209 235.142C374.315 235.006 374.368 234.849 374.368 234.674ZM380.614 235.271V232.008C380.614 231.758 380.563 231.541 380.461 231.357C380.364 231.17 380.215 231.025 380.016 230.924C379.817 230.822 379.571 230.771 379.278 230.771C379.004 230.771 378.764 230.818 378.557 230.912C378.354 231.006 378.194 231.129 378.077 231.281C377.963 231.433 377.907 231.598 377.907 231.773H376.823C376.823 231.547 376.881 231.322 376.999 231.099C377.116 230.877 377.284 230.676 377.502 230.496C377.725 230.312 377.991 230.168 378.299 230.062C378.612 229.953 378.959 229.898 379.342 229.898C379.803 229.898 380.209 229.976 380.561 230.133C380.917 230.289 381.194 230.525 381.393 230.842C381.596 231.154 381.698 231.547 381.698 232.019V234.973C381.698 235.183 381.715 235.408 381.75 235.646C381.79 235.885 381.846 236.09 381.92 236.262V236.355H380.79C380.735 236.23 380.692 236.064 380.661 235.857C380.629 235.646 380.614 235.451 380.614 235.271ZM380.801 232.512L380.813 233.273H379.717C379.409 233.273 379.133 233.299 378.891 233.349C378.649 233.396 378.446 233.469 378.282 233.566C378.118 233.664 377.993 233.787 377.907 233.935C377.821 234.08 377.778 234.25 377.778 234.445C377.778 234.644 377.823 234.826 377.913 234.99C378.002 235.154 378.137 235.285 378.317 235.383C378.5 235.476 378.725 235.523 378.991 235.523C379.323 235.523 379.616 235.453 379.87 235.312C380.124 235.172 380.325 235 380.473 234.797C380.625 234.594 380.708 234.396 380.719 234.205L381.182 234.726C381.155 234.891 381.081 235.072 380.959 235.271C380.838 235.471 380.676 235.662 380.473 235.846C380.274 236.025 380.036 236.176 379.758 236.297C379.485 236.414 379.176 236.473 378.833 236.473C378.403 236.473 378.026 236.389 377.702 236.221C377.381 236.053 377.131 235.828 376.952 235.547C376.776 235.262 376.688 234.943 376.688 234.592C376.688 234.252 376.754 233.953 376.887 233.695C377.02 233.433 377.211 233.217 377.461 233.045C377.711 232.869 378.012 232.736 378.364 232.646C378.715 232.557 379.108 232.512 379.542 232.512H380.801ZM386.057 230.016V230.848H382.629V230.016H386.057ZM383.79 228.474H384.874V234.785C384.874 235 384.907 235.162 384.973 235.271C385.04 235.381 385.125 235.453 385.231 235.488C385.336 235.523 385.45 235.541 385.571 235.541C385.661 235.541 385.754 235.533 385.852 235.517C385.954 235.498 386.03 235.482 386.081 235.471L386.086 236.355C386 236.383 385.887 236.408 385.747 236.432C385.61 236.459 385.444 236.473 385.249 236.473C384.983 236.473 384.739 236.42 384.516 236.314C384.293 236.209 384.116 236.033 383.983 235.787C383.854 235.537 383.79 235.201 383.79 234.779V228.474ZM389.983 230.016V230.848H386.555V230.016H389.983ZM387.715 228.474H388.799V234.785C388.799 235 388.833 235.162 388.899 235.271C388.965 235.381 389.051 235.453 389.157 235.488C389.262 235.523 389.375 235.541 389.497 235.541C389.586 235.541 389.68 235.533 389.778 235.517C389.879 235.498 389.956 235.482 390.006 235.471L390.012 236.355C389.926 236.383 389.813 236.408 389.672 236.432C389.536 236.459 389.37 236.473 389.174 236.473C388.909 236.473 388.665 236.42 388.442 236.314C388.219 236.209 388.042 236.033 387.909 235.787C387.78 235.537 387.715 235.201 387.715 234.779V228.474ZM394.571 227.824V236.355H393.458V227.824H394.571ZM397.313 227.824V228.75H390.721V227.824H397.313ZM399.592 230.016V236.355H398.502V230.016H399.592ZM398.42 228.334C398.42 228.158 398.473 228.01 398.579 227.889C398.688 227.767 398.848 227.707 399.059 227.707C399.266 227.707 399.424 227.767 399.534 227.889C399.647 228.01 399.704 228.158 399.704 228.334C399.704 228.502 399.647 228.646 399.534 228.767C399.424 228.885 399.266 228.943 399.059 228.943C398.848 228.943 398.688 228.885 398.579 228.767C398.473 228.646 398.42 228.502 398.42 228.334ZM402.51 227.355V236.355H401.42V227.355H402.51Z" fill="black"/>
<rect x="375" y="141" width="50" height="1" transform="rotate(90 375 141)" fill="black"/>
<rect x="375" y="274" width="50" height="1" transform="rotate(90 375 274)" fill="black"/>
<rect x="91.4265" y="190.707" width="59" height="59" transform="rotate(45 91.4265 190.707)" stroke="black"/>
<path d="M68.9968 227.824H70.0925L72.8875 234.779L75.6765 227.824H76.7781L73.3093 236.355H72.4539L68.9968 227.824ZM68.6394 227.824H69.6062L69.7644 233.027V236.355H68.6394V227.824ZM76.1628 227.824H77.1296V236.355H76.0046V233.027L76.1628 227.824ZM78.6648 233.256V233.121C78.6648 232.664 78.7312 232.24 78.864 231.849C78.9968 231.455 79.1882 231.113 79.4382 230.824C79.6882 230.531 79.991 230.305 80.3464 230.144C80.7019 229.98 81.1003 229.898 81.5417 229.898C81.9871 229.898 82.3875 229.98 82.7429 230.144C83.1023 230.305 83.407 230.531 83.657 230.824C83.9109 231.113 84.1042 231.455 84.2371 231.849C84.3699 232.24 84.4363 232.664 84.4363 233.121V233.256C84.4363 233.713 84.3699 234.137 84.2371 234.527C84.1042 234.918 83.9109 235.26 83.657 235.553C83.407 235.842 83.1042 236.068 82.7488 236.232C82.3972 236.392 81.9988 236.473 81.5535 236.473C81.1082 236.473 80.7078 236.392 80.3523 236.232C79.9968 236.068 79.6921 235.842 79.4382 235.553C79.1882 235.26 78.9968 234.918 78.864 234.527C78.7312 234.137 78.6648 233.713 78.6648 233.256ZM79.7488 233.121V233.256C79.7488 233.572 79.7859 233.871 79.8601 234.152C79.9343 234.43 80.0457 234.676 80.1941 234.891C80.3464 235.105 80.5359 235.275 80.7625 235.4C80.989 235.521 81.2527 235.582 81.5535 235.582C81.8503 235.582 82.1101 235.521 82.3328 235.4C82.5593 235.275 82.7468 235.105 82.8953 234.891C83.0437 234.676 83.155 234.43 83.2292 234.152C83.3074 233.871 83.3464 233.572 83.3464 233.256V233.121C83.3464 232.808 83.3074 232.514 83.2292 232.236C83.155 231.955 83.0417 231.707 82.8894 231.492C82.741 231.273 82.5535 231.101 82.3269 230.976C82.1042 230.851 81.8425 230.789 81.5417 230.789C81.2449 230.789 80.9832 230.851 80.7566 230.976C80.5339 231.101 80.3464 231.273 80.1941 231.492C80.0457 231.707 79.9343 231.955 79.8601 232.236C79.7859 232.514 79.7488 232.808 79.7488 233.121ZM86.8796 231.012V236.355H85.7957V230.016H86.8503L86.8796 231.012ZM88.8601 229.98L88.8542 230.988C88.7644 230.969 88.6785 230.957 88.5964 230.953C88.5183 230.945 88.4285 230.941 88.3269 230.941C88.0769 230.941 87.8562 230.98 87.6648 231.058C87.4734 231.137 87.3113 231.246 87.1785 231.387C87.0457 231.527 86.9402 231.695 86.8621 231.891C86.7878 232.082 86.739 232.293 86.7156 232.523L86.4109 232.699C86.4109 232.316 86.448 231.957 86.5222 231.621C86.6003 231.285 86.7195 230.988 86.8796 230.73C87.0398 230.469 87.2429 230.266 87.489 230.121C87.739 229.973 88.0359 229.898 88.3796 229.898C88.4578 229.898 88.5476 229.908 88.6492 229.928C88.7507 229.943 88.821 229.961 88.8601 229.98ZM93.5535 234.674C93.5535 234.517 93.5183 234.373 93.448 234.24C93.3816 234.103 93.2429 233.98 93.032 233.871C92.825 233.758 92.5125 233.66 92.0945 233.578C91.7429 233.504 91.4246 233.416 91.1394 233.314C90.8582 233.213 90.6179 233.09 90.4187 232.945C90.2234 232.801 90.073 232.631 89.9675 232.435C89.8621 232.24 89.8093 232.012 89.8093 231.75C89.8093 231.5 89.864 231.264 89.9734 231.041C90.0867 230.818 90.2449 230.621 90.448 230.449C90.655 230.277 90.9031 230.142 91.1921 230.045C91.4812 229.947 91.8035 229.898 92.1589 229.898C92.6667 229.898 93.1003 229.988 93.4597 230.168C93.8191 230.348 94.0945 230.588 94.2859 230.889C94.4773 231.185 94.573 231.516 94.573 231.879H93.489C93.489 231.703 93.4363 231.533 93.3308 231.369C93.2292 231.201 93.0789 231.062 92.8796 230.953C92.6843 230.844 92.4441 230.789 92.1589 230.789C91.8582 230.789 91.614 230.836 91.4265 230.93C91.2429 231.019 91.1082 231.135 91.0222 231.275C90.9402 231.416 90.8992 231.564 90.8992 231.721C90.8992 231.838 90.9187 231.943 90.9578 232.037C91.0007 232.127 91.075 232.211 91.1804 232.289C91.2859 232.363 91.4343 232.433 91.6257 232.5C91.8171 232.566 92.0613 232.633 92.3582 232.699C92.8777 232.816 93.3054 232.957 93.6414 233.121C93.9773 233.285 94.2273 233.486 94.3914 233.724C94.5554 233.963 94.6375 234.252 94.6375 234.592C94.6375 234.869 94.5789 235.123 94.4617 235.353C94.3484 235.584 94.1824 235.783 93.9636 235.951C93.7488 236.115 93.491 236.244 93.1902 236.338C92.8933 236.428 92.5593 236.473 92.1882 236.473C91.6296 236.473 91.157 236.373 90.7703 236.174C90.3835 235.974 90.0906 235.717 89.8914 235.4C89.6921 235.084 89.5925 234.75 89.5925 234.398H90.6824C90.698 234.695 90.7839 234.932 90.9402 235.107C91.0964 235.279 91.2878 235.402 91.5144 235.476C91.741 235.547 91.9656 235.582 92.1882 235.582C92.4851 235.582 92.7332 235.543 92.9324 235.465C93.1355 235.387 93.2898 235.279 93.3953 235.142C93.5007 235.006 93.5535 234.849 93.5535 234.674ZM97.1394 231.275V236.355H96.0496V230.016H97.0808L97.1394 231.275ZM96.9167 232.945L96.4128 232.928C96.4167 232.494 96.4734 232.094 96.5828 231.726C96.6921 231.355 96.8542 231.033 97.0691 230.76C97.2839 230.486 97.5515 230.275 97.8718 230.127C98.1921 229.974 98.5632 229.898 98.9851 229.898C99.282 229.898 99.5554 229.941 99.8054 230.027C100.055 230.109 100.272 230.24 100.456 230.42C100.639 230.599 100.782 230.83 100.884 231.111C100.985 231.392 101.036 231.732 101.036 232.131V236.355H99.9519V232.183C99.9519 231.851 99.8953 231.586 99.782 231.387C99.6726 231.187 99.5164 231.043 99.3132 230.953C99.1101 230.859 98.8718 230.812 98.5984 230.812C98.2781 230.812 98.0105 230.869 97.7957 230.982C97.5808 231.096 97.4089 231.252 97.28 231.451C97.1511 231.65 97.0574 231.879 96.9988 232.137C96.9441 232.391 96.9167 232.66 96.9167 232.945ZM101.024 232.348L100.298 232.57C100.302 232.223 100.358 231.889 100.468 231.568C100.581 231.248 100.743 230.963 100.954 230.713C101.169 230.463 101.432 230.266 101.745 230.121C102.057 229.973 102.415 229.898 102.817 229.898C103.157 229.898 103.458 229.943 103.719 230.033C103.985 230.123 104.208 230.262 104.387 230.449C104.571 230.633 104.71 230.869 104.803 231.158C104.897 231.447 104.944 231.791 104.944 232.189V236.355H103.854V232.178C103.854 231.822 103.798 231.547 103.684 231.351C103.575 231.152 103.419 231.014 103.216 230.935C103.016 230.853 102.778 230.812 102.501 230.812C102.262 230.812 102.052 230.853 101.868 230.935C101.684 231.017 101.53 231.131 101.405 231.275C101.28 231.416 101.184 231.578 101.118 231.762C101.055 231.945 101.024 232.141 101.024 232.348ZM110.323 235.271V232.008C110.323 231.758 110.272 231.541 110.171 231.357C110.073 231.17 109.925 231.025 109.725 230.924C109.526 230.822 109.28 230.771 108.987 230.771C108.714 230.771 108.473 230.818 108.266 230.912C108.063 231.006 107.903 231.129 107.786 231.281C107.673 231.433 107.616 231.598 107.616 231.773H106.532C106.532 231.547 106.591 231.322 106.708 231.099C106.825 230.877 106.993 230.676 107.212 230.496C107.434 230.312 107.7 230.168 108.009 230.062C108.321 229.953 108.669 229.898 109.052 229.898C109.512 229.898 109.919 229.976 110.27 230.133C110.626 230.289 110.903 230.525 111.102 230.842C111.305 231.154 111.407 231.547 111.407 232.019V234.973C111.407 235.183 111.425 235.408 111.46 235.646C111.499 235.885 111.555 236.09 111.63 236.262V236.355H110.499C110.444 236.23 110.401 236.064 110.37 235.857C110.339 235.646 110.323 235.451 110.323 235.271ZM110.51 232.512L110.522 233.273H109.427C109.118 233.273 108.843 233.299 108.6 233.349C108.358 233.396 108.155 233.469 107.991 233.566C107.827 233.664 107.702 233.787 107.616 233.935C107.53 234.08 107.487 234.25 107.487 234.445C107.487 234.644 107.532 234.826 107.622 234.99C107.712 235.154 107.846 235.285 108.026 235.383C108.21 235.476 108.434 235.523 108.7 235.523C109.032 235.523 109.325 235.453 109.579 235.312C109.833 235.172 110.034 235 110.182 234.797C110.335 234.594 110.417 234.396 110.428 234.205L110.891 234.726C110.864 234.891 110.79 235.072 110.669 235.271C110.548 235.471 110.385 235.662 110.182 235.846C109.983 236.025 109.745 236.176 109.468 236.297C109.194 236.414 108.885 236.473 108.542 236.473C108.112 236.473 107.735 236.389 107.411 236.221C107.091 236.053 106.841 235.828 106.661 235.547C106.485 235.262 106.397 234.943 106.397 234.592C106.397 234.252 106.464 233.953 106.596 233.695C106.729 233.433 106.921 233.217 107.171 233.045C107.421 232.869 107.721 232.736 108.073 232.646C108.425 232.557 108.817 232.512 109.251 232.512H110.51ZM107.909 228.035C107.909 227.808 107.964 227.603 108.073 227.42C108.186 227.236 108.337 227.09 108.524 226.98C108.716 226.871 108.93 226.816 109.169 226.816C109.524 226.816 109.823 226.935 110.065 227.174C110.307 227.412 110.428 227.699 110.428 228.035C110.428 228.262 110.372 228.467 110.259 228.65C110.149 228.83 109.999 228.973 109.807 229.078C109.62 229.18 109.407 229.23 109.169 229.23C108.813 229.23 108.514 229.117 108.272 228.891C108.03 228.664 107.909 228.379 107.909 228.035ZM108.489 228.035C108.489 228.207 108.552 228.363 108.677 228.504C108.805 228.641 108.969 228.709 109.169 228.709C109.368 228.709 109.53 228.642 109.655 228.51C109.784 228.373 109.848 228.215 109.848 228.035C109.848 227.851 109.784 227.691 109.655 227.555C109.53 227.414 109.368 227.344 109.169 227.344C108.969 227.344 108.805 227.414 108.677 227.555C108.552 227.691 108.489 227.851 108.489 228.035ZM114.29 227.355V236.355H113.2V227.355H114.29Z" fill="black"/>
<rect x="92" y="141" width="50" height="1" transform="rotate(90 92 141)" fill="black"/>
<rect x="92" y="274" width="50" height="1" transform="rotate(90 92 274)" fill="black"/>
<path d="M376.307 150.59V150.531C376.307 149.68 376.402 148.91 376.594 148.223C376.785 147.531 377.029 146.926 377.326 146.406C377.623 145.887 377.936 145.457 378.264 145.117C378.592 144.773 378.895 144.525 379.172 144.373L379.4 145.088C379.17 145.264 378.936 145.506 378.697 145.814C378.463 146.123 378.246 146.502 378.047 146.951C377.852 147.4 377.693 147.922 377.572 148.516C377.451 149.109 377.391 149.777 377.391 150.52V150.602C377.391 151.344 377.451 152.014 377.572 152.611C377.693 153.205 377.852 153.729 378.047 154.182C378.246 154.635 378.463 155.02 378.697 155.336C378.936 155.656 379.17 155.91 379.4 156.098L379.172 156.754C378.895 156.602 378.592 156.354 378.264 156.01C377.936 155.67 377.623 155.24 377.326 154.721C377.029 154.205 376.785 153.602 376.594 152.91C376.402 152.219 376.307 151.445 376.307 150.59ZM385.699 149.055V150.355C385.699 151.055 385.637 151.645 385.512 152.125C385.387 152.605 385.207 152.992 384.973 153.285C384.738 153.578 384.455 153.791 384.123 153.924C383.795 154.053 383.424 154.117 383.01 154.117C382.682 154.117 382.379 154.076 382.102 153.994C381.824 153.912 381.574 153.781 381.352 153.602C381.133 153.418 380.945 153.18 380.789 152.887C380.633 152.594 380.514 152.238 380.432 151.82C380.35 151.402 380.309 150.914 380.309 150.355V149.055C380.309 148.355 380.371 147.77 380.496 147.297C380.625 146.824 380.807 146.445 381.041 146.16C381.275 145.871 381.557 145.664 381.885 145.539C382.217 145.414 382.588 145.352 382.998 145.352C383.33 145.352 383.635 145.393 383.912 145.475C384.193 145.553 384.443 145.68 384.662 145.855C384.881 146.027 385.066 146.258 385.219 146.547C385.375 146.832 385.494 147.182 385.576 147.596C385.658 148.01 385.699 148.496 385.699 149.055ZM384.609 150.531V148.873C384.609 148.49 384.586 148.154 384.539 147.865C384.496 147.572 384.432 147.322 384.346 147.115C384.26 146.908 384.15 146.74 384.018 146.611C383.889 146.482 383.738 146.389 383.566 146.33C383.398 146.268 383.209 146.236 382.998 146.236C382.74 146.236 382.512 146.285 382.312 146.383C382.113 146.477 381.945 146.627 381.809 146.834C381.676 147.041 381.574 147.312 381.504 147.648C381.434 147.984 381.398 148.393 381.398 148.873V150.531C381.398 150.914 381.42 151.252 381.463 151.545C381.51 151.838 381.578 152.092 381.668 152.307C381.758 152.518 381.867 152.691 381.996 152.828C382.125 152.965 382.273 153.066 382.441 153.133C382.613 153.195 382.803 153.227 383.01 153.227C383.275 153.227 383.508 153.176 383.707 153.074C383.906 152.973 384.072 152.814 384.205 152.6C384.342 152.381 384.443 152.102 384.51 151.762C384.576 151.418 384.609 151.008 384.609 150.531ZM388.195 152.711V153.584C388.195 153.939 388.105 154.314 387.926 154.709C387.746 155.107 387.494 155.439 387.17 155.705L386.555 155.277C386.68 155.105 386.785 154.93 386.871 154.75C386.957 154.574 387.021 154.391 387.064 154.199C387.111 154.012 387.135 153.812 387.135 153.602V152.711H388.195ZM399.281 145.469V154H398.145L393.85 147.42V154H392.719V145.469H393.85L398.162 152.066V145.469H399.281ZM403.617 150.531V150.59C403.617 151.445 403.521 152.219 403.33 152.91C403.139 153.602 402.895 154.205 402.598 154.721C402.301 155.24 401.988 155.67 401.66 156.01C401.332 156.354 401.029 156.602 400.752 156.754L400.523 156.098C400.754 155.922 400.986 155.676 401.221 155.359C401.455 155.047 401.672 154.66 401.871 154.199C402.07 153.742 402.23 153.215 402.352 152.617C402.473 152.016 402.533 151.344 402.533 150.602V150.52C402.533 149.777 402.469 149.107 402.34 148.51C402.211 147.908 402.043 147.379 401.836 146.922C401.633 146.465 401.414 146.08 401.18 145.768C400.949 145.451 400.73 145.207 400.523 145.035L400.752 144.373C401.029 144.525 401.332 144.773 401.66 145.117C401.988 145.457 402.301 145.887 402.598 146.406C402.895 146.926 403.139 147.531 403.33 148.223C403.521 148.91 403.617 149.68 403.617 150.531Z" fill="black"/>
<path d="M95.2148 150.59V150.531C95.2148 149.68 95.3105 148.91 95.502 148.223C95.6934 147.531 95.9375 146.926 96.2344 146.406C96.5312 145.887 96.8438 145.457 97.1719 145.117C97.5 144.773 97.8027 144.525 98.0801 144.373L98.3086 145.088C98.0781 145.264 97.8438 145.506 97.6055 145.814C97.3711 146.123 97.1543 146.502 96.9551 146.951C96.7598 147.4 96.6016 147.922 96.4805 148.516C96.3594 149.109 96.2988 149.777 96.2988 150.52V150.602C96.2988 151.344 96.3594 152.014 96.4805 152.611C96.6016 153.205 96.7598 153.729 96.9551 154.182C97.1543 154.635 97.3711 155.02 97.6055 155.336C97.8438 155.656 98.0781 155.91 98.3086 156.098L98.0801 156.754C97.8027 156.602 97.5 156.354 97.1719 156.01C96.8438 155.67 96.5312 155.24 96.2344 154.721C95.9375 154.205 95.6934 153.602 95.502 152.91C95.3105 152.219 95.2148 151.445 95.2148 150.59ZM102.814 145.422V154H101.73V146.775L99.5449 147.572V146.594L102.645 145.422H102.814ZM107.104 152.711V153.584C107.104 153.939 107.014 154.314 106.834 154.709C106.654 155.107 106.402 155.439 106.078 155.705L105.463 155.277C105.588 155.105 105.693 154.93 105.779 154.75C105.865 154.574 105.93 154.391 105.973 154.199C106.02 154.012 106.043 153.812 106.043 153.602V152.711H107.104ZM114.908 145.422V154H113.824V146.775L111.639 147.572V146.594L114.738 145.422H114.908ZM120.709 150.531V150.59C120.709 151.445 120.613 152.219 120.422 152.91C120.23 153.602 119.986 154.205 119.689 154.721C119.393 155.24 119.08 155.67 118.752 156.01C118.424 156.354 118.121 156.602 117.844 156.754L117.615 156.098C117.846 155.922 118.078 155.676 118.312 155.359C118.547 155.047 118.764 154.66 118.963 154.199C119.162 153.742 119.322 153.215 119.443 152.617C119.564 152.016 119.625 151.344 119.625 150.602V150.52C119.625 149.777 119.561 149.107 119.432 148.51C119.303 147.908 119.135 147.379 118.928 146.922C118.725 146.465 118.506 146.08 118.271 145.768C118.041 145.451 117.822 145.207 117.615 145.035L117.844 144.373C118.121 144.525 118.424 144.773 118.752 145.117C119.08 145.457 119.393 145.887 119.689 146.406C119.986 146.926 120.23 147.531 120.422 148.223C120.613 148.91 120.709 149.68 120.709 150.531Z" fill="black"/>
<path d="M93.3066 315.59V315.531C93.3066 314.68 93.4023 313.91 93.5938 313.223C93.7852 312.531 94.0293 311.926 94.3262 311.406C94.623 310.887 94.9355 310.457 95.2637 310.117C95.5918 309.773 95.8945 309.525 96.1719 309.373L96.4004 310.088C96.1699 310.264 95.9355 310.506 95.6973 310.814C95.4629 311.123 95.2461 311.502 95.0469 311.951C94.8516 312.4 94.6934 312.922 94.5723 313.516C94.4512 314.109 94.3906 314.777 94.3906 315.52V315.602C94.3906 316.344 94.4512 317.014 94.5723 317.611C94.6934 318.205 94.8516 318.729 95.0469 319.182C95.2461 319.635 95.4629 320.02 95.6973 320.336C95.9355 320.656 96.1699 320.91 96.4004 321.098L96.1719 321.754C95.8945 321.602 95.5918 321.354 95.2637 321.01C94.9355 320.67 94.623 320.24 94.3262 319.721C94.0293 319.205 93.7852 318.602 93.5938 317.91C93.4023 317.219 93.3066 316.445 93.3066 315.59ZM102.699 314.055V315.355C102.699 316.055 102.637 316.645 102.512 317.125C102.387 317.605 102.207 317.992 101.973 318.285C101.738 318.578 101.455 318.791 101.123 318.924C100.795 319.053 100.424 319.117 100.01 319.117C99.6816 319.117 99.3789 319.076 99.1016 318.994C98.8242 318.912 98.5742 318.781 98.3516 318.602C98.1328 318.418 97.9453 318.18 97.7891 317.887C97.6328 317.594 97.5137 317.238 97.4316 316.82C97.3496 316.402 97.3086 315.914 97.3086 315.355V314.055C97.3086 313.355 97.3711 312.77 97.4961 312.297C97.625 311.824 97.8066 311.445 98.041 311.16C98.2754 310.871 98.5566 310.664 98.8848 310.539C99.2168 310.414 99.5879 310.352 99.998 310.352C100.33 310.352 100.635 310.393 100.912 310.475C101.193 310.553 101.443 310.68 101.662 310.855C101.881 311.027 102.066 311.258 102.219 311.547C102.375 311.832 102.494 312.182 102.576 312.596C102.658 313.01 102.699 313.496 102.699 314.055ZM101.609 315.531V313.873C101.609 313.49 101.586 313.154 101.539 312.865C101.496 312.572 101.432 312.322 101.346 312.115C101.26 311.908 101.15 311.74 101.018 311.611C100.889 311.482 100.738 311.389 100.566 311.33C100.398 311.268 100.209 311.236 99.998 311.236C99.7402 311.236 99.5117 311.285 99.3125 311.383C99.1133 311.477 98.9453 311.627 98.8086 311.834C98.6758 312.041 98.5742 312.312 98.5039 312.648C98.4336 312.984 98.3984 313.393 98.3984 313.873V315.531C98.3984 315.914 98.4199 316.252 98.4629 316.545C98.5098 316.838 98.5781 317.092 98.668 317.307C98.7578 317.518 98.8672 317.691 98.9961 317.828C99.125 317.965 99.2734 318.066 99.4414 318.133C99.6133 318.195 99.8027 318.227 100.01 318.227C100.275 318.227 100.508 318.176 100.707 318.074C100.906 317.973 101.072 317.814 101.205 317.6C101.342 317.381 101.443 317.102 101.51 316.762C101.576 316.418 101.609 316.008 101.609 315.531ZM105.195 317.711V318.584C105.195 318.939 105.105 319.314 104.926 319.709C104.746 320.107 104.494 320.439 104.17 320.705L103.555 320.277C103.68 320.105 103.785 319.93 103.871 319.75C103.957 319.574 104.021 319.391 104.064 319.199C104.111 319.012 104.135 318.812 104.135 318.602V317.711H105.195ZM116.281 310.469V319H115.145L110.85 312.42V319H109.719V310.469H110.85L115.162 317.066V310.469H116.281ZM120.617 315.531V315.59C120.617 316.445 120.521 317.219 120.33 317.91C120.139 318.602 119.895 319.205 119.598 319.721C119.301 320.24 118.988 320.67 118.66 321.01C118.332 321.354 118.029 321.602 117.752 321.754L117.523 321.098C117.754 320.922 117.986 320.676 118.221 320.359C118.455 320.047 118.672 319.66 118.871 319.199C119.07 318.742 119.23 318.215 119.352 317.617C119.473 317.016 119.533 316.344 119.533 315.602V315.52C119.533 314.777 119.469 314.107 119.34 313.51C119.211 312.908 119.043 312.379 118.836 311.922C118.633 311.465 118.414 311.08 118.18 310.768C117.949 310.451 117.73 310.207 117.523 310.035L117.752 309.373C118.029 309.525 118.332 309.773 118.66 310.117C118.988 310.457 119.301 310.887 119.598 311.406C119.895 311.926 120.139 312.531 120.33 313.223C120.521 313.91 120.617 314.68 120.617 315.531Z" fill="black"/>
<path d="M143.307 365.59V365.531C143.307 364.68 143.402 363.91 143.594 363.223C143.785 362.531 144.029 361.926 144.326 361.406C144.623 360.887 144.936 360.457 145.264 360.117C145.592 359.773 145.895 359.525 146.172 359.373L146.4 360.088C146.17 360.264 145.936 360.506 145.697 360.814C145.463 361.123 145.246 361.502 145.047 361.951C144.852 362.4 144.693 362.922 144.572 363.516C144.451 364.109 144.391 364.777 144.391 365.52V365.602C144.391 366.344 144.451 367.014 144.572 367.611C144.693 368.205 144.852 368.729 145.047 369.182C145.246 369.635 145.463 370.02 145.697 370.336C145.936 370.656 146.17 370.91 146.4 371.098L146.172 371.754C145.895 371.602 145.592 371.354 145.264 371.01C144.936 370.67 144.623 370.24 144.326 369.721C144.029 369.205 143.785 368.602 143.594 367.91C143.402 367.219 143.307 366.445 143.307 365.59ZM152.699 364.055V365.355C152.699 366.055 152.637 366.645 152.512 367.125C152.387 367.605 152.207 367.992 151.973 368.285C151.738 368.578 151.455 368.791 151.123 368.924C150.795 369.053 150.424 369.117 150.01 369.117C149.682 369.117 149.379 369.076 149.102 368.994C148.824 368.912 148.574 368.781 148.352 368.602C148.133 368.418 147.945 368.18 147.789 367.887C147.633 367.594 147.514 367.238 147.432 366.82C147.35 366.402 147.309 365.914 147.309 365.355V364.055C147.309 363.355 147.371 362.77 147.496 362.297C147.625 361.824 147.807 361.445 148.041 361.16C148.275 360.871 148.557 360.664 148.885 360.539C149.217 360.414 149.588 360.352 149.998 360.352C150.33 360.352 150.635 360.393 150.912 360.475C151.193 360.553 151.443 360.68 151.662 360.855C151.881 361.027 152.066 361.258 152.219 361.547C152.375 361.832 152.494 362.182 152.576 362.596C152.658 363.01 152.699 363.496 152.699 364.055ZM151.609 365.531V363.873C151.609 363.49 151.586 363.154 151.539 362.865C151.496 362.572 151.432 362.322 151.346 362.115C151.26 361.908 151.15 361.74 151.018 361.611C150.889 361.482 150.738 361.389 150.566 361.33C150.398 361.268 150.209 361.236 149.998 361.236C149.74 361.236 149.512 361.285 149.312 361.383C149.113 361.477 148.945 361.627 148.809 361.834C148.676 362.041 148.574 362.312 148.504 362.648C148.434 362.984 148.398 363.393 148.398 363.873V365.531C148.398 365.914 148.42 366.252 148.463 366.545C148.51 366.838 148.578 367.092 148.668 367.307C148.758 367.518 148.867 367.691 148.996 367.828C149.125 367.965 149.273 368.066 149.441 368.133C149.613 368.195 149.803 368.227 150.01 368.227C150.275 368.227 150.508 368.176 150.707 368.074C150.906 367.973 151.072 367.814 151.205 367.6C151.342 367.381 151.443 367.102 151.51 366.762C151.576 366.418 151.609 366.008 151.609 365.531ZM155.195 367.711V368.584C155.195 368.939 155.105 369.314 154.926 369.709C154.746 370.107 154.494 370.439 154.17 370.705L153.555 370.277C153.68 370.105 153.785 369.93 153.871 369.75C153.957 369.574 154.021 369.391 154.064 369.199C154.111 369.012 154.135 368.812 154.135 368.602V367.711H155.195ZM166.281 360.469V369H165.145L160.85 362.42V369H159.719V360.469H160.85L165.162 367.066V360.469H166.281ZM170.617 365.531V365.59C170.617 366.445 170.521 367.219 170.33 367.91C170.139 368.602 169.895 369.205 169.598 369.721C169.301 370.24 168.988 370.67 168.66 371.01C168.332 371.354 168.029 371.602 167.752 371.754L167.523 371.098C167.754 370.922 167.986 370.676 168.221 370.359C168.455 370.047 168.672 369.66 168.871 369.199C169.07 368.742 169.23 368.215 169.352 367.617C169.473 367.016 169.533 366.344 169.533 365.602V365.52C169.533 364.777 169.469 364.107 169.34 363.51C169.211 362.908 169.043 362.379 168.836 361.922C168.633 361.465 168.414 361.08 168.18 360.768C167.949 360.451 167.73 360.207 167.523 360.035L167.752 359.373C168.029 359.525 168.332 359.773 168.66 360.117C168.988 360.457 169.301 360.887 169.598 361.406C169.895 361.926 170.139 362.531 170.33 363.223C170.521 363.91 170.617 364.68 170.617 365.531Z" fill="black"/>
<rect x="41.5" y="324.5" width="99" height="99" stroke="black"/>
<path d="M81.8848 375.844C81.8848 375.645 81.8535 375.469 81.791 375.316C81.7324 375.16 81.627 375.02 81.4746 374.895C81.3262 374.77 81.1191 374.65 80.8535 374.537C80.5918 374.424 80.2598 374.309 79.8574 374.191C79.4355 374.066 79.0547 373.928 78.7148 373.775C78.375 373.619 78.084 373.441 77.8418 373.242C77.5996 373.043 77.4141 372.814 77.2852 372.557C77.1562 372.299 77.0918 372.004 77.0918 371.672C77.0918 371.34 77.1602 371.033 77.2969 370.752C77.4336 370.471 77.6289 370.227 77.8828 370.02C78.1406 369.809 78.4473 369.645 78.8027 369.527C79.1582 369.41 79.5547 369.352 79.9922 369.352C80.6328 369.352 81.1758 369.475 81.6211 369.721C82.0703 369.963 82.4121 370.281 82.6465 370.676C82.8809 371.066 82.998 371.484 82.998 371.93H81.873C81.873 371.609 81.8047 371.326 81.668 371.08C81.5312 370.83 81.3242 370.635 81.0469 370.494C80.7695 370.35 80.418 370.277 79.9922 370.277C79.5898 370.277 79.2578 370.338 78.9961 370.459C78.7344 370.58 78.5391 370.744 78.4102 370.951C78.2852 371.158 78.2227 371.395 78.2227 371.66C78.2227 371.84 78.2598 372.004 78.334 372.152C78.4121 372.297 78.5312 372.432 78.6914 372.557C78.8555 372.682 79.0625 372.797 79.3125 372.902C79.5664 373.008 79.8691 373.109 80.2207 373.207C80.7051 373.344 81.123 373.496 81.4746 373.664C81.8262 373.832 82.1152 374.021 82.3418 374.232C82.5723 374.439 82.7422 374.676 82.8516 374.941C82.9648 375.203 83.0215 375.5 83.0215 375.832C83.0215 376.18 82.9512 376.494 82.8105 376.775C82.6699 377.057 82.4688 377.297 82.207 377.496C81.9453 377.695 81.6309 377.85 81.2637 377.959C80.9004 378.064 80.4941 378.117 80.0449 378.117C79.6504 378.117 79.2617 378.062 78.8789 377.953C78.5 377.844 78.1543 377.68 77.8418 377.461C77.5332 377.242 77.2852 376.973 77.0977 376.652C76.9141 376.328 76.8223 375.953 76.8223 375.527H77.9473C77.9473 375.82 78.0039 376.072 78.1172 376.283C78.2305 376.49 78.3848 376.662 78.5801 376.799C78.7793 376.936 79.0039 377.037 79.2539 377.104C79.5078 377.166 79.7715 377.197 80.0449 377.197C80.4395 377.197 80.7734 377.143 81.0469 377.033C81.3203 376.924 81.5273 376.768 81.668 376.564C81.8125 376.361 81.8848 376.121 81.8848 375.844ZM85.3828 372.879V380.438H84.293V371.66H85.2891L85.3828 372.879ZM89.6543 374.777V374.9C89.6543 375.361 89.5996 375.789 89.4902 376.184C89.3809 376.574 89.2207 376.914 89.0098 377.203C88.8027 377.492 88.5469 377.717 88.2422 377.877C87.9375 378.037 87.5879 378.117 87.1934 378.117C86.791 378.117 86.4355 378.051 86.127 377.918C85.8184 377.785 85.5566 377.592 85.3418 377.338C85.127 377.084 84.9551 376.779 84.8262 376.424C84.7012 376.068 84.6152 375.668 84.5684 375.223V374.566C84.6152 374.098 84.7031 373.678 84.832 373.307C84.9609 372.936 85.1309 372.619 85.3418 372.357C85.5566 372.092 85.8164 371.891 86.1211 371.754C86.4258 371.613 86.7773 371.543 87.1758 371.543C87.5742 371.543 87.9277 371.621 88.2363 371.777C88.5449 371.93 88.8047 372.148 89.0156 372.434C89.2266 372.719 89.3848 373.061 89.4902 373.459C89.5996 373.854 89.6543 374.293 89.6543 374.777ZM88.5645 374.9V374.777C88.5645 374.461 88.5312 374.164 88.4648 373.887C88.3984 373.605 88.2949 373.359 88.1543 373.148C88.0176 372.934 87.8418 372.766 87.627 372.645C87.4121 372.52 87.1562 372.457 86.8594 372.457C86.5859 372.457 86.3477 372.504 86.1445 372.598C85.9453 372.691 85.7754 372.818 85.6348 372.979C85.4941 373.135 85.3789 373.314 85.2891 373.518C85.2031 373.717 85.1387 373.924 85.0957 374.139V375.656C85.1738 375.93 85.2832 376.188 85.4238 376.43C85.5645 376.668 85.752 376.861 85.9863 377.01C86.2207 377.154 86.5156 377.227 86.8711 377.227C87.1641 377.227 87.416 377.166 87.627 377.045C87.8418 376.92 88.0176 376.75 88.1543 376.535C88.2949 376.32 88.3984 376.074 88.4648 375.797C88.5312 375.516 88.5645 375.217 88.5645 374.9ZM92.1211 372.656V378H91.0371V371.66H92.0918L92.1211 372.656ZM94.1016 371.625L94.0957 372.633C94.0059 372.613 93.9199 372.602 93.8379 372.598C93.7598 372.59 93.6699 372.586 93.5684 372.586C93.3184 372.586 93.0977 372.625 92.9062 372.703C92.7148 372.781 92.5527 372.891 92.4199 373.031C92.2871 373.172 92.1816 373.34 92.1035 373.535C92.0293 373.727 91.9805 373.938 91.957 374.168L91.6523 374.344C91.6523 373.961 91.6895 373.602 91.7637 373.266C91.8418 372.93 91.9609 372.633 92.1211 372.375C92.2812 372.113 92.4844 371.91 92.7305 371.766C92.9805 371.617 93.2773 371.543 93.6211 371.543C93.6992 371.543 93.7891 371.553 93.8906 371.572C93.9922 371.588 94.0625 371.605 94.1016 371.625ZM98.6074 376.916V373.652C98.6074 373.402 98.5566 373.186 98.4551 373.002C98.3574 372.814 98.209 372.67 98.0098 372.568C97.8105 372.467 97.5645 372.416 97.2715 372.416C96.998 372.416 96.7578 372.463 96.5508 372.557C96.3477 372.65 96.1875 372.773 96.0703 372.926C95.957 373.078 95.9004 373.242 95.9004 373.418H94.8164C94.8164 373.191 94.875 372.967 94.9922 372.744C95.1094 372.521 95.2773 372.32 95.4961 372.141C95.7188 371.957 95.9844 371.812 96.293 371.707C96.6055 371.598 96.9531 371.543 97.3359 371.543C97.7969 371.543 98.2031 371.621 98.5547 371.777C98.9102 371.934 99.1875 372.17 99.3867 372.486C99.5898 372.799 99.6914 373.191 99.6914 373.664V376.617C99.6914 376.828 99.709 377.053 99.7441 377.291C99.7832 377.529 99.8398 377.734 99.9141 377.906V378H98.7832C98.7285 377.875 98.6855 377.709 98.6543 377.502C98.623 377.291 98.6074 377.096 98.6074 376.916ZM98.7949 374.156L98.8066 374.918H97.7109C97.4023 374.918 97.127 374.943 96.8848 374.994C96.6426 375.041 96.4395 375.113 96.2754 375.211C96.1113 375.309 95.9863 375.432 95.9004 375.58C95.8145 375.725 95.7715 375.895 95.7715 376.09C95.7715 376.289 95.8164 376.471 95.9062 376.635C95.9961 376.799 96.1309 376.93 96.3105 377.027C96.4941 377.121 96.7188 377.168 96.9844 377.168C97.3164 377.168 97.6094 377.098 97.8633 376.957C98.1172 376.816 98.3184 376.645 98.4668 376.441C98.6191 376.238 98.7012 376.041 98.7129 375.85L99.1758 376.371C99.1484 376.535 99.0742 376.717 98.9531 376.916C98.832 377.115 98.6699 377.307 98.4668 377.49C98.2676 377.67 98.0293 377.82 97.752 377.941C97.4785 378.059 97.1699 378.117 96.8262 378.117C96.3965 378.117 96.0195 378.033 95.6953 377.865C95.375 377.697 95.125 377.473 94.9453 377.191C94.7695 376.906 94.6816 376.588 94.6816 376.236C94.6816 375.896 94.748 375.598 94.8809 375.34C95.0137 375.078 95.2051 374.861 95.4551 374.689C95.7051 374.514 96.0059 374.381 96.3574 374.291C96.709 374.201 97.1016 374.156 97.5352 374.156H98.7949ZM96.1934 369.68C96.1934 369.453 96.248 369.248 96.3574 369.064C96.4707 368.881 96.6211 368.734 96.8086 368.625C97 368.516 97.2148 368.461 97.4531 368.461C97.8086 368.461 98.1074 368.58 98.3496 368.818C98.5918 369.057 98.7129 369.344 98.7129 369.68C98.7129 369.906 98.6562 370.111 98.543 370.295C98.4336 370.475 98.2832 370.617 98.0918 370.723C97.9043 370.824 97.6914 370.875 97.4531 370.875C97.0977 370.875 96.7988 370.762 96.5566 370.535C96.3145 370.309 96.1934 370.023 96.1934 369.68ZM96.7734 369.68C96.7734 369.852 96.8359 370.008 96.9609 370.148C97.0898 370.285 97.2539 370.354 97.4531 370.354C97.6523 370.354 97.8145 370.287 97.9395 370.154C98.0684 370.018 98.1328 369.859 98.1328 369.68C98.1328 369.496 98.0684 369.336 97.9395 369.199C97.8145 369.059 97.6523 368.988 97.4531 368.988C97.2539 368.988 97.0898 369.059 96.9609 369.199C96.8359 369.336 96.7734 369.496 96.7734 369.68ZM102.486 369V378H101.396V369H102.486ZM106.359 371.66L103.594 374.619L102.047 376.225L101.959 375.07L103.066 373.746L105.035 371.66H106.359ZM105.369 378L103.107 374.977L103.67 374.01L106.646 378H105.369Z" fill="black"/>
<path fill-rule="evenodd" clip-rule="evenodd" d="M374 324C374 330.435 372.733 336.807 370.27 342.751C367.808 348.696 364.198 354.098 359.648 358.648C355.098 363.198 349.696 366.808 343.751 369.27C337.807 371.733 331.435 373 325 373V374C331.566 374 338.068 372.707 344.134 370.194C350.2 367.681 355.712 363.998 360.355 359.355C364.998 354.712 368.681 349.2 371.194 343.134C373.707 337.068 375 330.566 375 324H374Z" fill="black"/>
<rect x="275" y="373" width="50" height="1" fill="black"/>
<rect x="141" y="373" width="134" height="1" fill="black"/>
<rect x="515.426" y="49.7071" width="59" height="59" transform="rotate(45 515.426 49.7071)" stroke="black"/>
<path d="M500.516 86.8241H501.641V92.5956C501.641 93.2362 501.499 93.7694 501.213 94.1952C500.928 94.621 500.549 94.9413 500.077 95.1561C499.608 95.3671 499.098 95.4725 498.547 95.4725C497.969 95.4725 497.446 95.3671 496.977 95.1561C496.512 94.9413 496.143 94.621 495.87 94.1952C495.6 93.7694 495.465 93.2362 495.465 92.5956V86.8241H496.584V92.5956C496.584 93.0409 496.667 93.4081 496.831 93.6971C496.995 93.9862 497.223 94.201 497.516 94.3417C497.813 94.4823 498.157 94.5526 498.547 94.5526C498.942 94.5526 499.286 94.4823 499.579 94.3417C499.875 94.201 500.106 93.9862 500.27 93.6971C500.434 93.4081 500.516 93.0409 500.516 92.5956V86.8241ZM505.907 89.0155V89.8475H502.479V89.0155H505.907ZM503.639 87.4745H504.723V93.785C504.723 93.9999 504.756 94.162 504.823 94.2714C504.889 94.3807 504.975 94.453 505.081 94.4882C505.186 94.5233 505.299 94.5409 505.42 94.5409C505.51 94.5409 505.604 94.5331 505.702 94.5175C505.803 94.4979 505.879 94.4823 505.93 94.4706L505.936 95.3553C505.85 95.3827 505.737 95.4081 505.596 95.4315C505.459 95.4589 505.293 95.4725 505.098 95.4725C504.833 95.4725 504.588 95.4198 504.366 95.3143C504.143 95.2089 503.965 95.0331 503.833 94.787C503.704 94.537 503.639 94.201 503.639 93.7792V87.4745ZM511.286 89.0155H512.27V95.2206C512.27 95.7792 512.157 96.2557 511.93 96.6503C511.704 97.0448 511.387 97.3436 510.981 97.5468C510.579 97.7538 510.114 97.8573 509.586 97.8573C509.368 97.8573 509.11 97.8221 508.813 97.7518C508.52 97.6854 508.231 97.5702 507.946 97.4061C507.665 97.246 507.428 97.0292 507.237 96.7557L507.805 96.1112C508.071 96.4315 508.348 96.6542 508.637 96.7792C508.93 96.9042 509.219 96.9667 509.504 96.9667C509.848 96.9667 510.145 96.9022 510.395 96.7733C510.645 96.6444 510.838 96.453 510.975 96.1991C511.116 95.9491 511.186 95.6405 511.186 95.2733V90.41L511.286 89.0155ZM506.92 92.2557V92.1327C506.92 91.6483 506.977 91.2089 507.09 90.8143C507.208 90.4159 507.374 90.0741 507.588 89.7889C507.807 89.5038 508.071 89.285 508.379 89.1327C508.688 88.9764 509.036 88.8983 509.422 88.8983C509.821 88.8983 510.168 88.9686 510.465 89.1093C510.766 89.246 511.02 89.4471 511.227 89.7128C511.438 89.9745 511.604 90.2909 511.725 90.662C511.846 91.0331 511.93 91.453 511.977 91.9218V92.4608C511.934 92.9257 511.85 93.3436 511.725 93.7147C511.604 94.0858 511.438 94.4022 511.227 94.6639C511.02 94.9257 510.766 95.1268 510.465 95.2675C510.165 95.4042 509.813 95.4725 509.411 95.4725C509.032 95.4725 508.688 95.3925 508.379 95.2323C508.075 95.0721 507.813 94.8475 507.594 94.5585C507.375 94.2694 507.208 93.9296 507.09 93.5389C506.977 93.1444 506.92 92.7167 506.92 92.2557ZM508.004 92.1327V92.2557C508.004 92.5721 508.036 92.869 508.098 93.1464C508.165 93.4237 508.264 93.6678 508.397 93.8788C508.534 94.0897 508.708 94.2557 508.918 94.3768C509.129 94.494 509.381 94.5526 509.674 94.5526C510.034 94.5526 510.331 94.4764 510.565 94.3241C510.799 94.1718 510.985 93.9706 511.122 93.7206C511.262 93.4706 511.372 93.1991 511.45 92.9061V91.494C511.407 91.2792 511.34 91.0721 511.25 90.8729C511.165 90.6698 511.051 90.4901 510.911 90.3339C510.774 90.1737 510.604 90.0468 510.401 89.953C510.198 89.8593 509.959 89.8124 509.686 89.8124C509.389 89.8124 509.133 89.8749 508.918 89.9999C508.708 90.121 508.534 90.2889 508.397 90.5038C508.264 90.7147 508.165 90.9608 508.098 91.2421C508.036 91.5194 508.004 91.8163 508.004 92.1327ZM515.094 89.0155V95.3553H514.004V89.0155H515.094ZM513.922 87.3339C513.922 87.1581 513.975 87.0096 514.081 86.8885C514.19 86.7675 514.35 86.7069 514.561 86.7069C514.768 86.7069 514.926 86.7675 515.036 86.8885C515.149 87.0096 515.206 87.1581 515.206 87.3339C515.206 87.5018 515.149 87.6464 515.036 87.7675C514.926 87.8846 514.768 87.9432 514.561 87.9432C514.35 87.9432 514.19 87.8846 514.081 87.7675C513.975 87.6464 513.922 87.5018 513.922 87.3339ZM519.489 89.0155V89.8475H516.061V89.0155H519.489ZM517.221 87.4745H518.305V93.785C518.305 93.9999 518.338 94.162 518.405 94.2714C518.471 94.3807 518.557 94.453 518.663 94.4882C518.768 94.5233 518.881 94.5409 519.002 94.5409C519.092 94.5409 519.186 94.5331 519.284 94.5175C519.385 94.4979 519.461 94.4823 519.512 94.4706L519.518 95.3553C519.432 95.3827 519.319 95.4081 519.178 95.4315C519.042 95.4589 518.875 95.4725 518.68 95.4725C518.415 95.4725 518.17 95.4198 517.948 95.3143C517.725 95.2089 517.547 95.0331 517.415 94.787C517.286 94.537 517.221 94.201 517.221 93.7792V87.4745ZM523.415 89.0155V89.8475H519.987V89.0155H523.415ZM521.147 87.4745H522.231V93.785C522.231 93.9999 522.264 94.162 522.331 94.2714C522.397 94.3807 522.483 94.453 522.588 94.4882C522.694 94.5233 522.807 94.5409 522.928 94.5409C523.018 94.5409 523.112 94.5331 523.209 94.5175C523.311 94.4979 523.387 94.4823 523.438 94.4706L523.444 95.3553C523.358 95.3827 523.245 95.4081 523.104 95.4315C522.967 95.4589 522.801 95.4725 522.606 95.4725C522.34 95.4725 522.096 95.4198 521.874 95.3143C521.651 95.2089 521.473 95.0331 521.34 94.787C521.211 94.537 521.147 94.201 521.147 93.7792V87.4745ZM528.008 87.58L525.184 95.3553H524.03L527.282 86.8241H528.026L528.008 87.58ZM530.375 95.3553L527.545 87.58L527.528 86.8241H528.272L531.536 95.3553H530.375ZM530.229 92.1971V93.1229H525.436V92.1971H530.229ZM534.149 94.3768L535.883 89.0155H536.991L534.711 95.3553H533.985L534.149 94.3768ZM532.702 89.0155L534.489 94.4061L534.612 95.3553H533.885L531.588 89.0155H532.702Z" fill="black"/>
<rect x="424" y="91" width="50" height="1" fill="black"/>
<rect x="557" y="91" width="50" height="1" fill="black"/>
<path d="M428.703 82.5898V82.5312C428.703 81.6797 428.799 80.9102 428.99 80.2227C429.182 79.5312 429.426 78.9258 429.723 78.4062C430.02 77.8867 430.332 77.457 430.66 77.1172C430.988 76.7734 431.291 76.5254 431.568 76.373L431.797 77.0879C431.566 77.2637 431.332 77.5059 431.094 77.8145C430.859 78.123 430.643 78.502 430.443 78.9512C430.248 79.4004 430.09 79.9219 429.969 80.5156C429.848 81.1094 429.787 81.7773 429.787 82.5195V82.6016C429.787 83.3438 429.848 84.0137 429.969 84.6113C430.09 85.2051 430.248 85.7285 430.443 86.1816C430.643 86.6348 430.859 87.0195 431.094 87.3359C431.332 87.6562 431.566 87.9102 431.797 88.0977L431.568 88.7539C431.291 88.6016 430.988 88.3535 430.66 88.0098C430.332 87.6699 430.02 87.2402 429.723 86.7207C429.426 86.2051 429.182 85.6016 428.99 84.9102C428.799 84.2188 428.703 83.4453 428.703 82.5898ZM438.096 81.0547V82.3555C438.096 83.0547 438.033 83.6445 437.908 84.125C437.783 84.6055 437.604 84.9922 437.369 85.2852C437.135 85.5781 436.852 85.791 436.52 85.9238C436.191 86.0527 435.82 86.1172 435.406 86.1172C435.078 86.1172 434.775 86.0762 434.498 85.9941C434.221 85.9121 433.971 85.7812 433.748 85.6016C433.529 85.418 433.342 85.1797 433.186 84.8867C433.029 84.5938 432.91 84.2383 432.828 83.8203C432.746 83.4023 432.705 82.9141 432.705 82.3555V81.0547C432.705 80.3555 432.768 79.7695 432.893 79.2969C433.021 78.8242 433.203 78.4453 433.438 78.1602C433.672 77.8711 433.953 77.6641 434.281 77.5391C434.613 77.4141 434.984 77.3516 435.395 77.3516C435.727 77.3516 436.031 77.3926 436.309 77.4746C436.59 77.5527 436.84 77.6797 437.059 77.8555C437.277 78.0273 437.463 78.2578 437.615 78.5469C437.771 78.832 437.891 79.1816 437.973 79.5957C438.055 80.0098 438.096 80.4961 438.096 81.0547ZM437.006 82.5312V80.873C437.006 80.4902 436.982 80.1543 436.936 79.8652C436.893 79.5723 436.828 79.3223 436.742 79.1152C436.656 78.9082 436.547 78.7402 436.414 78.6113C436.285 78.4824 436.135 78.3887 435.963 78.3301C435.795 78.2676 435.605 78.2363 435.395 78.2363C435.137 78.2363 434.908 78.2852 434.709 78.3828C434.51 78.4766 434.342 78.627 434.205 78.834C434.072 79.041 433.971 79.3125 433.9 79.6484C433.83 79.9844 433.795 80.3926 433.795 80.873V82.5312C433.795 82.9141 433.816 83.252 433.859 83.5449C433.906 83.8379 433.975 84.0918 434.064 84.3066C434.154 84.5176 434.264 84.6914 434.393 84.8281C434.521 84.9648 434.67 85.0664 434.838 85.1328C435.01 85.1953 435.199 85.2266 435.406 85.2266C435.672 85.2266 435.904 85.1758 436.104 85.0742C436.303 84.9727 436.469 84.8145 436.602 84.5996C436.738 84.3809 436.84 84.1016 436.906 83.7617C436.973 83.418 437.006 83.0078 437.006 82.5312ZM440.592 84.7109V85.584C440.592 85.9395 440.502 86.3145 440.322 86.709C440.143 87.1074 439.891 87.4395 439.566 87.7051L438.951 87.2773C439.076 87.1055 439.182 86.9297 439.268 86.75C439.354 86.5742 439.418 86.3906 439.461 86.1992C439.508 86.0117 439.531 85.8125 439.531 85.6016V84.7109H440.592ZM445.42 77.4219V86H444.336V78.7754L442.15 79.5723V78.5938L445.25 77.4219H445.42ZM451.221 82.5312V82.5898C451.221 83.4453 451.125 84.2188 450.934 84.9102C450.742 85.6016 450.498 86.2051 450.201 86.7207C449.904 87.2402 449.592 87.6699 449.264 88.0098C448.936 88.3535 448.633 88.6016 448.355 88.7539L448.127 88.0977C448.357 87.9219 448.59 87.6758 448.824 87.3594C449.059 87.0469 449.275 86.6602 449.475 86.1992C449.674 85.7422 449.834 85.2148 449.955 84.6172C450.076 84.0156 450.137 83.3438 450.137 82.6016V82.5195C450.137 81.7773 450.072 81.1074 449.943 80.5098C449.814 79.9082 449.646 79.3789 449.439 78.9219C449.236 78.4648 449.018 78.0801 448.783 77.7676C448.553 77.4512 448.334 77.207 448.127 77.0352L448.355 76.373C448.633 76.5254 448.936 76.7734 449.264 77.1172C449.592 77.457 449.904 77.8867 450.201 78.4062C450.498 78.9258 450.742 79.5312 450.934 80.2227C451.125 80.9102 451.221 81.6797 451.221 82.5312Z" fill="black"/>
<path d="M577.307 82.5898V82.5312C577.307 81.6797 577.402 80.9102 577.594 80.2227C577.785 79.5312 578.029 78.9258 578.326 78.4062C578.623 77.8867 578.936 77.457 579.264 77.1172C579.592 76.7734 579.895 76.5254 580.172 76.373L580.4 77.0879C580.17 77.2637 579.936 77.5059 579.697 77.8145C579.463 78.123 579.246 78.502 579.047 78.9512C578.852 79.4004 578.693 79.9219 578.572 80.5156C578.451 81.1094 578.391 81.7773 578.391 82.5195V82.6016C578.391 83.3438 578.451 84.0137 578.572 84.6113C578.693 85.2051 578.852 85.7285 579.047 86.1816C579.246 86.6348 579.463 87.0195 579.697 87.3359C579.936 87.6562 580.17 87.9102 580.4 88.0977L580.172 88.7539C579.895 88.6016 579.592 88.3535 579.264 88.0098C578.936 87.6699 578.623 87.2402 578.326 86.7207C578.029 86.2051 577.785 85.6016 577.594 84.9102C577.402 84.2188 577.307 83.4453 577.307 82.5898ZM586.699 81.0547V82.3555C586.699 83.0547 586.637 83.6445 586.512 84.125C586.387 84.6055 586.207 84.9922 585.973 85.2852C585.738 85.5781 585.455 85.791 585.123 85.9238C584.795 86.0527 584.424 86.1172 584.01 86.1172C583.682 86.1172 583.379 86.0762 583.102 85.9941C582.824 85.9121 582.574 85.7812 582.352 85.6016C582.133 85.418 581.945 85.1797 581.789 84.8867C581.633 84.5938 581.514 84.2383 581.432 83.8203C581.35 83.4023 581.309 82.9141 581.309 82.3555V81.0547C581.309 80.3555 581.371 79.7695 581.496 79.2969C581.625 78.8242 581.807 78.4453 582.041 78.1602C582.275 77.8711 582.557 77.6641 582.885 77.5391C583.217 77.4141 583.588 77.3516 583.998 77.3516C584.33 77.3516 584.635 77.3926 584.912 77.4746C585.193 77.5527 585.443 77.6797 585.662 77.8555C585.881 78.0273 586.066 78.2578 586.219 78.5469C586.375 78.832 586.494 79.1816 586.576 79.5957C586.658 80.0098 586.699 80.4961 586.699 81.0547ZM585.609 82.5312V80.873C585.609 80.4902 585.586 80.1543 585.539 79.8652C585.496 79.5723 585.432 79.3223 585.346 79.1152C585.26 78.9082 585.15 78.7402 585.018 78.6113C584.889 78.4824 584.738 78.3887 584.566 78.3301C584.398 78.2676 584.209 78.2363 583.998 78.2363C583.74 78.2363 583.512 78.2852 583.312 78.3828C583.113 78.4766 582.945 78.627 582.809 78.834C582.676 79.041 582.574 79.3125 582.504 79.6484C582.434 79.9844 582.398 80.3926 582.398 80.873V82.5312C582.398 82.9141 582.42 83.252 582.463 83.5449C582.51 83.8379 582.578 84.0918 582.668 84.3066C582.758 84.5176 582.867 84.6914 582.996 84.8281C583.125 84.9648 583.273 85.0664 583.441 85.1328C583.613 85.1953 583.803 85.2266 584.01 85.2266C584.275 85.2266 584.508 85.1758 584.707 85.0742C584.906 84.9727 585.072 84.8145 585.205 84.5996C585.342 84.3809 585.443 84.1016 585.51 83.7617C585.576 83.418 585.609 83.0078 585.609 82.5312ZM589.195 84.7109V85.584C589.195 85.9395 589.105 86.3145 588.926 86.709C588.746 87.1074 588.494 87.4395 588.17 87.7051L587.555 87.2773C587.68 87.1055 587.785 86.9297 587.871 86.75C587.957 86.5742 588.021 86.3906 588.064 86.1992C588.111 86.0117 588.135 85.8125 588.135 85.6016V84.7109H589.195ZM600.281 77.4688V86H599.145L594.85 79.4199V86H593.719V77.4688H594.85L599.162 84.0664V77.4688H600.281ZM604.617 82.5312V82.5898C604.617 83.4453 604.521 84.2188 604.33 84.9102C604.139 85.6016 603.895 86.2051 603.598 86.7207C603.301 87.2402 602.988 87.6699 602.66 88.0098C602.332 88.3535 602.029 88.6016 601.752 88.7539L601.523 88.0977C601.754 87.9219 601.986 87.6758 602.221 87.3594C602.455 87.0469 602.672 86.6602 602.871 86.1992C603.07 85.7422 603.23 85.2148 603.352 84.6172C603.473 84.0156 603.533 83.3438 603.533 82.6016V82.5195C603.533 81.7773 603.469 81.1074 603.34 80.5098C603.211 79.9082 603.043 79.3789 602.836 78.9219C602.633 78.4648 602.414 78.0801 602.18 77.7676C601.949 77.4512 601.73 77.207 601.523 77.0352L601.752 76.373C602.029 76.5254 602.332 76.7734 602.66 77.1172C602.988 77.457 603.301 77.8867 603.598 78.4062C603.895 78.9258 604.139 79.5312 604.33 80.2227C604.521 80.9102 604.617 81.6797 604.617 82.5312Z" fill="black"/>
</svg>
