<svg width="643" height="252" viewBox="0 0 643 252" fill="none" xmlns="http://www.w3.org/2000/svg">
<rect x="130.5" y="80.5" width="99" height="99" stroke="black"/>
<path d="M164.854 131.844C164.854 131.645 164.822 131.469 164.76 131.316C164.701 131.16 164.596 131.02 164.443 130.895C164.295 130.77 164.088 130.65 163.822 130.537C163.561 130.424 163.229 130.309 162.826 130.191C162.404 130.066 162.023 129.928 161.684 129.775C161.344 129.619 161.053 129.441 160.811 129.242C160.568 129.043 160.383 128.814 160.254 128.557C160.125 128.299 160.061 128.004 160.061 127.672C160.061 127.34 160.129 127.033 160.266 126.752C160.402 126.471 160.598 126.227 160.852 126.02C161.109 125.809 161.416 125.645 161.771 125.527C162.127 125.41 162.523 125.352 162.961 125.352C163.602 125.352 164.145 125.475 164.59 125.721C165.039 125.963 165.381 126.281 165.615 126.676C165.85 127.066 165.967 127.484 165.967 127.93H164.842C164.842 127.609 164.773 127.326 164.637 127.08C164.5 126.83 164.293 126.635 164.016 126.494C163.738 126.35 163.387 126.277 162.961 126.277C162.559 126.277 162.227 126.338 161.965 126.459C161.703 126.58 161.508 126.744 161.379 126.951C161.254 127.158 161.191 127.395 161.191 127.66C161.191 127.84 161.229 128.004 161.303 128.152C161.381 128.297 161.5 128.432 161.66 128.557C161.824 128.682 162.031 128.797 162.281 128.902C162.535 129.008 162.838 129.109 163.189 129.207C163.674 129.344 164.092 129.496 164.443 129.664C164.795 129.832 165.084 130.021 165.311 130.232C165.541 130.439 165.711 130.676 165.82 130.941C165.934 131.203 165.99 131.5 165.99 131.832C165.99 132.18 165.92 132.494 165.779 132.775C165.639 133.057 165.438 133.297 165.176 133.496C164.914 133.695 164.6 133.85 164.232 133.959C163.869 134.064 163.463 134.117 163.014 134.117C162.619 134.117 162.23 134.062 161.848 133.953C161.469 133.844 161.123 133.68 160.811 133.461C160.502 133.242 160.254 132.973 160.066 132.652C159.883 132.328 159.791 131.953 159.791 131.527H160.916C160.916 131.82 160.973 132.072 161.086 132.283C161.199 132.49 161.354 132.662 161.549 132.799C161.748 132.936 161.973 133.037 162.223 133.104C162.477 133.166 162.74 133.197 163.014 133.197C163.408 133.197 163.742 133.143 164.016 133.033C164.289 132.924 164.496 132.768 164.637 132.564C164.781 132.361 164.854 132.121 164.854 131.844ZM169.922 127.66V128.492H166.494V127.66H169.922ZM167.654 126.119H168.738V132.43C168.738 132.645 168.771 132.807 168.838 132.916C168.904 133.025 168.99 133.098 169.096 133.133C169.201 133.168 169.314 133.186 169.436 133.186C169.525 133.186 169.619 133.178 169.717 133.162C169.818 133.143 169.895 133.127 169.945 133.115L169.951 134C169.865 134.027 169.752 134.053 169.611 134.076C169.475 134.104 169.309 134.117 169.113 134.117C168.848 134.117 168.604 134.064 168.381 133.959C168.158 133.854 167.98 133.678 167.848 133.432C167.719 133.182 167.654 132.846 167.654 132.424V126.119ZM175.072 132.535V127.66H176.162V134H175.125L175.072 132.535ZM175.277 131.199L175.729 131.188C175.729 131.609 175.684 132 175.594 132.359C175.508 132.715 175.367 133.023 175.172 133.285C174.977 133.547 174.721 133.752 174.404 133.9C174.088 134.045 173.703 134.117 173.25 134.117C172.941 134.117 172.658 134.072 172.4 133.982C172.146 133.893 171.928 133.754 171.744 133.566C171.561 133.379 171.418 133.135 171.316 132.834C171.219 132.533 171.17 132.172 171.17 131.75V127.66H172.254V131.762C172.254 132.047 172.285 132.283 172.348 132.471C172.414 132.654 172.502 132.801 172.611 132.91C172.725 133.016 172.85 133.09 172.986 133.133C173.127 133.176 173.271 133.197 173.42 133.197C173.881 133.197 174.246 133.109 174.516 132.934C174.785 132.754 174.979 132.514 175.096 132.213C175.217 131.908 175.277 131.57 175.277 131.199ZM181.811 132.77V125H182.9V134H181.904L181.811 132.77ZM177.545 130.9V130.777C177.545 130.293 177.604 129.854 177.721 129.459C177.842 129.061 178.012 128.719 178.23 128.434C178.453 128.148 178.717 127.93 179.021 127.777C179.33 127.621 179.674 127.543 180.053 127.543C180.451 127.543 180.799 127.613 181.096 127.754C181.396 127.891 181.65 128.092 181.857 128.357C182.068 128.619 182.234 128.936 182.355 129.307C182.477 129.678 182.561 130.098 182.607 130.566V131.105C182.564 131.57 182.48 131.988 182.355 132.359C182.234 132.73 182.068 133.047 181.857 133.309C181.65 133.57 181.396 133.771 181.096 133.912C180.795 134.049 180.443 134.117 180.041 134.117C179.67 134.117 179.33 134.037 179.021 133.877C178.717 133.717 178.453 133.492 178.23 133.203C178.012 132.914 177.842 132.574 177.721 132.184C177.604 131.789 177.545 131.361 177.545 130.9ZM178.635 130.777V130.9C178.635 131.217 178.666 131.514 178.729 131.791C178.795 132.068 178.896 132.312 179.033 132.523C179.17 132.734 179.344 132.9 179.555 133.021C179.766 133.139 180.018 133.197 180.311 133.197C180.67 133.197 180.965 133.121 181.195 132.969C181.43 132.816 181.617 132.615 181.758 132.365C181.898 132.115 182.008 131.844 182.086 131.551V130.139C182.039 129.924 181.971 129.717 181.881 129.518C181.795 129.314 181.682 129.135 181.541 128.979C181.404 128.818 181.234 128.691 181.031 128.598C180.832 128.504 180.596 128.457 180.322 128.457C180.025 128.457 179.77 128.52 179.555 128.645C179.344 128.766 179.17 128.934 179.033 129.148C178.896 129.359 178.795 129.605 178.729 129.887C178.666 130.164 178.635 130.461 178.635 130.777ZM187.219 134.117C186.777 134.117 186.377 134.043 186.018 133.895C185.662 133.742 185.355 133.529 185.098 133.256C184.844 132.982 184.648 132.658 184.512 132.283C184.375 131.908 184.307 131.498 184.307 131.053V130.807C184.307 130.291 184.383 129.832 184.535 129.43C184.688 129.023 184.895 128.68 185.156 128.398C185.418 128.117 185.715 127.904 186.047 127.76C186.379 127.615 186.723 127.543 187.078 127.543C187.531 127.543 187.922 127.621 188.25 127.777C188.582 127.934 188.854 128.152 189.064 128.434C189.275 128.711 189.432 129.039 189.533 129.418C189.635 129.793 189.686 130.203 189.686 130.648V131.135H184.951V130.25H188.602V130.168C188.586 129.887 188.527 129.613 188.426 129.348C188.328 129.082 188.172 128.863 187.957 128.691C187.742 128.52 187.449 128.434 187.078 128.434C186.832 128.434 186.605 128.486 186.398 128.592C186.191 128.693 186.014 128.846 185.865 129.049C185.717 129.252 185.602 129.5 185.52 129.793C185.438 130.086 185.396 130.424 185.396 130.807V131.053C185.396 131.354 185.438 131.637 185.52 131.902C185.605 132.164 185.729 132.395 185.889 132.594C186.053 132.793 186.25 132.949 186.48 133.062C186.715 133.176 186.98 133.232 187.277 133.232C187.66 133.232 187.984 133.154 188.25 132.998C188.516 132.842 188.748 132.633 188.947 132.371L189.604 132.893C189.467 133.1 189.293 133.297 189.082 133.484C188.871 133.672 188.611 133.824 188.303 133.941C187.998 134.059 187.637 134.117 187.219 134.117ZM192.035 129.014V134H190.951V127.66H191.977L192.035 129.014ZM191.777 130.59L191.326 130.572C191.33 130.139 191.395 129.738 191.52 129.371C191.645 129 191.82 128.678 192.047 128.404C192.273 128.131 192.543 127.92 192.855 127.771C193.172 127.619 193.521 127.543 193.904 127.543C194.217 127.543 194.498 127.586 194.748 127.672C194.998 127.754 195.211 127.887 195.387 128.07C195.566 128.254 195.703 128.492 195.797 128.785C195.891 129.074 195.938 129.428 195.938 129.846V134H194.848V129.834C194.848 129.502 194.799 129.236 194.701 129.037C194.604 128.834 194.461 128.688 194.273 128.598C194.086 128.504 193.855 128.457 193.582 128.457C193.312 128.457 193.066 128.514 192.844 128.627C192.625 128.74 192.436 128.896 192.275 129.096C192.119 129.295 191.996 129.523 191.906 129.781C191.82 130.035 191.777 130.305 191.777 130.59ZM200.238 127.66V128.492H196.811V127.66H200.238ZM197.971 126.119H199.055V132.43C199.055 132.645 199.088 132.807 199.154 132.916C199.221 133.025 199.307 133.098 199.412 133.133C199.518 133.168 199.631 133.186 199.752 133.186C199.842 133.186 199.936 133.178 200.033 133.162C200.135 133.143 200.211 133.127 200.262 133.115L200.268 134C200.182 134.027 200.068 134.053 199.928 134.076C199.791 134.104 199.625 134.117 199.43 134.117C199.164 134.117 198.92 134.064 198.697 133.959C198.475 133.854 198.297 133.678 198.164 133.432C198.035 133.182 197.971 132.846 197.971 132.424V126.119Z" fill="black"/>
<rect x="321.426" y="88.7071" width="59" height="59" transform="rotate(45 321.426 88.7071)" stroke="black"/>
<path d="M295.887 130.107V133.23C295.782 133.387 295.614 133.562 295.383 133.758C295.153 133.949 294.835 134.117 294.428 134.262C294.026 134.402 293.506 134.473 292.87 134.473C292.35 134.473 291.872 134.383 291.434 134.203C291.001 134.019 290.624 133.754 290.303 133.406C289.987 133.055 289.741 132.629 289.565 132.129C289.393 131.625 289.307 131.055 289.307 130.418V129.756C289.307 129.119 289.381 128.551 289.53 128.051C289.682 127.551 289.905 127.127 290.198 126.779C290.491 126.428 290.85 126.162 291.276 125.982C291.702 125.799 292.19 125.707 292.741 125.707C293.393 125.707 293.938 125.82 294.376 126.047C294.817 126.269 295.161 126.578 295.407 126.973C295.657 127.367 295.817 127.816 295.887 128.32H294.756C294.706 128.012 294.604 127.73 294.452 127.476C294.303 127.223 294.09 127.019 293.813 126.867C293.536 126.711 293.178 126.633 292.741 126.633C292.346 126.633 292.005 126.705 291.715 126.849C291.426 126.994 291.188 127.201 291.001 127.471C290.813 127.74 290.673 128.066 290.579 128.449C290.489 128.832 290.444 129.264 290.444 129.744V130.418C290.444 130.91 290.501 131.349 290.614 131.736C290.731 132.123 290.897 132.453 291.112 132.726C291.327 132.996 291.583 133.201 291.88 133.342C292.18 133.482 292.512 133.553 292.876 133.553C293.278 133.553 293.604 133.519 293.854 133.453C294.104 133.383 294.299 133.301 294.44 133.207C294.581 133.109 294.688 133.017 294.762 132.932V131.021H292.788V130.107H295.887ZM297.311 131.256V131.121C297.311 130.664 297.378 130.24 297.51 129.849C297.643 129.455 297.835 129.113 298.085 128.824C298.335 128.531 298.637 128.305 298.993 128.144C299.348 127.98 299.747 127.898 300.188 127.898C300.633 127.898 301.034 127.98 301.389 128.144C301.749 128.305 302.053 128.531 302.303 128.824C302.557 129.113 302.751 129.455 302.883 129.849C303.016 130.24 303.083 130.664 303.083 131.121V131.256C303.083 131.713 303.016 132.137 302.883 132.527C302.751 132.918 302.557 133.26 302.303 133.553C302.053 133.842 301.751 134.068 301.395 134.232C301.044 134.392 300.645 134.473 300.2 134.473C299.755 134.473 299.354 134.392 298.999 134.232C298.643 134.068 298.339 133.842 298.085 133.553C297.835 133.26 297.643 132.918 297.51 132.527C297.378 132.137 297.311 131.713 297.311 131.256ZM298.395 131.121V131.256C298.395 131.572 298.432 131.871 298.506 132.152C298.581 132.43 298.692 132.676 298.84 132.891C298.993 133.105 299.182 133.275 299.409 133.4C299.635 133.521 299.899 133.582 300.2 133.582C300.497 133.582 300.756 133.521 300.979 133.4C301.206 133.275 301.393 133.105 301.542 132.891C301.69 132.676 301.801 132.43 301.876 132.152C301.954 131.871 301.993 131.572 301.993 131.256V131.121C301.993 130.808 301.954 130.514 301.876 130.236C301.801 129.955 301.688 129.707 301.536 129.492C301.387 129.273 301.2 129.101 300.973 128.976C300.751 128.851 300.489 128.789 300.188 128.789C299.891 128.789 299.63 128.851 299.403 128.976C299.18 129.101 298.993 129.273 298.84 129.492C298.692 129.707 298.581 129.955 298.506 130.236C298.432 130.514 298.395 130.808 298.395 131.121ZM308.438 133.125V125.355H309.528V134.355H308.532L308.438 133.125ZM304.173 131.256V131.133C304.173 130.648 304.231 130.209 304.348 129.814C304.469 129.416 304.639 129.074 304.858 128.789C305.081 128.504 305.344 128.285 305.649 128.133C305.958 127.976 306.301 127.898 306.68 127.898C307.079 127.898 307.426 127.969 307.723 128.109C308.024 128.246 308.278 128.447 308.485 128.713C308.696 128.974 308.862 129.291 308.983 129.662C309.104 130.033 309.188 130.453 309.235 130.922V131.461C309.192 131.926 309.108 132.344 308.983 132.715C308.862 133.086 308.696 133.402 308.485 133.664C308.278 133.926 308.024 134.127 307.723 134.267C307.423 134.404 307.071 134.473 306.669 134.473C306.298 134.473 305.958 134.392 305.649 134.232C305.344 134.072 305.081 133.848 304.858 133.558C304.639 133.269 304.469 132.93 304.348 132.539C304.231 132.144 304.173 131.717 304.173 131.256ZM305.262 131.133V131.256C305.262 131.572 305.294 131.869 305.356 132.146C305.423 132.424 305.524 132.668 305.661 132.879C305.798 133.09 305.971 133.256 306.182 133.377C306.393 133.494 306.645 133.553 306.938 133.553C307.298 133.553 307.592 133.476 307.823 133.324C308.057 133.172 308.245 132.971 308.385 132.721C308.526 132.471 308.635 132.199 308.714 131.906V130.494C308.667 130.279 308.598 130.072 308.508 129.873C308.423 129.67 308.309 129.49 308.169 129.334C308.032 129.174 307.862 129.047 307.659 128.953C307.46 128.859 307.223 128.812 306.95 128.812C306.653 128.812 306.397 128.875 306.182 129C305.971 129.121 305.798 129.289 305.661 129.504C305.524 129.715 305.423 129.961 305.356 130.242C305.294 130.519 305.262 130.816 305.262 131.133ZM312.305 125.355V134.355H311.215V125.355H312.305ZM316.178 128.016L313.413 130.974L311.866 132.58L311.778 131.426L312.885 130.101L314.854 128.016H316.178ZM315.188 134.355L312.926 131.332L313.489 130.365L316.465 134.355H315.188ZM317.327 128.016H318.417V135.111C318.417 135.498 318.354 135.826 318.229 136.096C318.108 136.365 317.924 136.568 317.678 136.705C317.436 136.846 317.13 136.916 316.758 136.916C316.661 136.916 316.548 136.906 316.419 136.887C316.286 136.867 316.174 136.844 316.085 136.816L316.09 135.943C316.165 135.959 316.249 135.971 316.342 135.978C316.436 135.99 316.518 135.996 316.589 135.996C316.749 135.996 316.883 135.967 316.993 135.908C317.102 135.849 317.184 135.756 317.239 135.627C317.298 135.498 317.327 135.326 317.327 135.111V128.016ZM317.215 126.334C317.215 126.158 317.27 126.01 317.38 125.889C317.489 125.767 317.647 125.707 317.854 125.707C318.065 125.707 318.225 125.767 318.335 125.889C318.444 126.01 318.499 126.158 318.499 126.334C318.499 126.502 318.444 126.646 318.335 126.767C318.225 126.885 318.065 126.943 317.854 126.943C317.647 126.943 317.489 126.885 317.38 126.767C317.27 126.646 317.215 126.502 317.215 126.334ZM322.799 134.473C322.358 134.473 321.958 134.398 321.598 134.25C321.243 134.098 320.936 133.885 320.678 133.611C320.424 133.338 320.229 133.014 320.092 132.639C319.956 132.264 319.887 131.853 319.887 131.408V131.162C319.887 130.646 319.964 130.187 320.116 129.785C320.268 129.379 320.475 129.035 320.737 128.754C320.999 128.473 321.296 128.26 321.628 128.115C321.96 127.971 322.303 127.898 322.659 127.898C323.112 127.898 323.503 127.976 323.831 128.133C324.163 128.289 324.434 128.508 324.645 128.789C324.856 129.066 325.012 129.394 325.114 129.773C325.215 130.148 325.266 130.558 325.266 131.004V131.49H320.532V130.605H324.182V130.523C324.167 130.242 324.108 129.969 324.006 129.703C323.909 129.437 323.753 129.219 323.538 129.047C323.323 128.875 323.03 128.789 322.659 128.789C322.413 128.789 322.186 128.842 321.979 128.947C321.772 129.049 321.594 129.201 321.446 129.404C321.298 129.607 321.182 129.855 321.1 130.148C321.018 130.441 320.977 130.779 320.977 131.162V131.408C320.977 131.709 321.018 131.992 321.1 132.258C321.186 132.519 321.309 132.75 321.469 132.949C321.633 133.148 321.831 133.305 322.061 133.418C322.296 133.531 322.561 133.588 322.858 133.588C323.241 133.588 323.565 133.51 323.831 133.353C324.096 133.197 324.329 132.988 324.528 132.726L325.184 133.248C325.048 133.455 324.874 133.652 324.663 133.84C324.452 134.027 324.192 134.18 323.883 134.297C323.579 134.414 323.217 134.473 322.799 134.473ZM327.616 129.369V134.355H326.532V128.016H327.557L327.616 129.369ZM327.358 130.945L326.907 130.928C326.911 130.494 326.975 130.094 327.1 129.726C327.225 129.355 327.401 129.033 327.628 128.76C327.854 128.486 328.124 128.275 328.436 128.127C328.753 127.974 329.102 127.898 329.485 127.898C329.798 127.898 330.079 127.941 330.329 128.027C330.579 128.109 330.792 128.242 330.967 128.426C331.147 128.609 331.284 128.848 331.378 129.141C331.471 129.43 331.518 129.783 331.518 130.201V134.355H330.428V130.189C330.428 129.857 330.38 129.592 330.282 129.392C330.184 129.189 330.042 129.043 329.854 128.953C329.667 128.859 329.436 128.812 329.163 128.812C328.893 128.812 328.647 128.869 328.424 128.982C328.206 129.096 328.016 129.252 327.856 129.451C327.7 129.65 327.577 129.879 327.487 130.137C327.401 130.391 327.358 130.66 327.358 130.945ZM334.249 129.369V134.355H333.165V128.016H334.19L334.249 129.369ZM333.991 130.945L333.54 130.928C333.544 130.494 333.608 130.094 333.733 129.726C333.858 129.355 334.034 129.033 334.26 128.76C334.487 128.486 334.756 128.275 335.069 128.127C335.385 127.974 335.735 127.898 336.118 127.898C336.43 127.898 336.712 127.941 336.962 128.027C337.212 128.109 337.424 128.242 337.6 128.426C337.78 128.609 337.917 128.848 338.01 129.141C338.104 129.43 338.151 129.783 338.151 130.201V134.355H337.061V130.189C337.061 129.857 337.012 129.592 336.915 129.392C336.817 129.189 336.674 129.043 336.487 128.953C336.299 128.859 336.069 128.812 335.796 128.812C335.526 128.812 335.28 128.869 335.057 128.982C334.839 129.096 334.649 129.252 334.489 129.451C334.333 129.65 334.21 129.879 334.12 130.137C334.034 130.391 333.991 130.66 333.991 130.945ZM340.975 128.016V134.355H339.885V128.016H340.975ZM339.803 126.334C339.803 126.158 339.856 126.01 339.962 125.889C340.071 125.767 340.231 125.707 340.442 125.707C340.649 125.707 340.807 125.767 340.917 125.889C341.03 126.01 341.087 126.158 341.087 126.334C341.087 126.502 341.03 126.646 340.917 126.767C340.807 126.885 340.649 126.943 340.442 126.943C340.231 126.943 340.071 126.885 339.962 126.767C339.856 126.646 339.803 126.502 339.803 126.334ZM343.799 129.369V134.355H342.715V128.016H343.741L343.799 129.369ZM343.542 130.945L343.09 130.928C343.094 130.494 343.159 130.094 343.284 129.726C343.409 129.355 343.585 129.033 343.811 128.76C344.038 128.486 344.307 128.275 344.62 128.127C344.936 127.974 345.286 127.898 345.669 127.898C345.981 127.898 346.262 127.941 346.512 128.027C346.762 128.109 346.975 128.242 347.151 128.426C347.331 128.609 347.467 128.848 347.561 129.141C347.655 129.43 347.702 129.783 347.702 130.201V134.355H346.612V130.189C346.612 129.857 346.563 129.592 346.465 129.392C346.368 129.189 346.225 129.043 346.038 128.953C345.85 128.859 345.62 128.812 345.346 128.812C345.077 128.812 344.831 128.869 344.608 128.982C344.389 129.096 344.2 129.252 344.04 129.451C343.883 129.65 343.76 129.879 343.671 130.137C343.585 130.391 343.542 130.66 343.542 130.945ZM353.456 128.016H354.44V134.221C354.44 134.779 354.327 135.256 354.1 135.65C353.874 136.045 353.557 136.344 353.151 136.547C352.749 136.754 352.284 136.857 351.756 136.857C351.538 136.857 351.28 136.822 350.983 136.752C350.69 136.685 350.401 136.57 350.116 136.406C349.835 136.246 349.598 136.029 349.407 135.756L349.975 135.111C350.241 135.432 350.518 135.654 350.807 135.779C351.1 135.904 351.389 135.967 351.674 135.967C352.018 135.967 352.315 135.902 352.565 135.773C352.815 135.644 353.008 135.453 353.145 135.199C353.286 134.949 353.356 134.641 353.356 134.273V129.41L353.456 128.016ZM349.09 131.256V131.133C349.09 130.648 349.147 130.209 349.26 129.814C349.378 129.416 349.544 129.074 349.758 128.789C349.977 128.504 350.241 128.285 350.549 128.133C350.858 127.976 351.206 127.898 351.592 127.898C351.991 127.898 352.339 127.969 352.635 128.109C352.936 128.246 353.19 128.447 353.397 128.713C353.608 128.974 353.774 129.291 353.895 129.662C354.016 130.033 354.1 130.453 354.147 130.922V131.461C354.104 131.926 354.02 132.344 353.895 132.715C353.774 133.086 353.608 133.402 353.397 133.664C353.19 133.926 352.936 134.127 352.635 134.267C352.335 134.404 351.983 134.473 351.581 134.473C351.202 134.473 350.858 134.392 350.549 134.232C350.245 134.072 349.983 133.848 349.764 133.558C349.546 133.269 349.378 132.93 349.26 132.539C349.147 132.144 349.09 131.717 349.09 131.256ZM350.174 131.133V131.256C350.174 131.572 350.206 131.869 350.268 132.146C350.335 132.424 350.434 132.668 350.567 132.879C350.704 133.09 350.878 133.256 351.089 133.377C351.299 133.494 351.551 133.553 351.844 133.553C352.204 133.553 352.501 133.476 352.735 133.324C352.969 133.172 353.155 132.971 353.292 132.721C353.432 132.471 353.542 132.199 353.62 131.906V130.494C353.577 130.279 353.51 130.072 353.421 129.873C353.335 129.67 353.221 129.49 353.081 129.334C352.944 129.174 352.774 129.047 352.571 128.953C352.368 128.859 352.13 128.812 351.856 128.812C351.559 128.812 351.303 128.875 351.089 129C350.878 129.121 350.704 129.289 350.567 129.504C350.434 129.715 350.335 129.961 350.268 130.242C350.206 130.519 350.174 130.816 350.174 131.133Z" fill="black"/>
<rect x="230" y="130" width="50" height="1" fill="black"/>
<rect x="363" y="130" width="50" height="1" fill="black"/>
<rect x="322" y="172" width="50" height="1" transform="rotate(90 322 172)" fill="black"/>
<rect x="413.5" y="80.5" width="99" height="99" stroke="black"/>
<path d="M455.988 125.117L450.117 134.545H449.279L455.168 125.117H455.988ZM455.877 129.465V130.004C455.877 130.645 455.797 131.219 455.637 131.727C455.477 132.234 455.246 132.666 454.945 133.021C454.645 133.377 454.283 133.648 453.861 133.836C453.443 134.023 452.975 134.117 452.455 134.117C452.053 134.117 451.676 134.057 451.324 133.936C450.973 133.814 450.654 133.639 450.369 133.408C450.088 133.174 449.846 132.891 449.643 132.559C449.439 132.223 449.283 131.842 449.174 131.416C449.068 130.986 449.016 130.516 449.016 130.004V129.465C449.016 128.824 449.098 128.252 449.262 127.748C449.43 127.24 449.666 126.809 449.971 126.453C450.275 126.094 450.637 125.82 451.055 125.633C451.477 125.445 451.939 125.352 452.443 125.352C452.857 125.352 453.24 125.412 453.592 125.533C453.947 125.654 454.266 125.832 454.547 126.066C454.828 126.297 455.066 126.58 455.262 126.916C455.461 127.248 455.613 127.629 455.719 128.059C455.824 128.484 455.877 128.953 455.877 129.465ZM454.758 130.004V129.453C454.758 129.047 454.725 128.68 454.658 128.352C454.592 128.02 454.494 127.727 454.365 127.473C454.236 127.219 454.078 127.006 453.891 126.834C453.703 126.662 453.488 126.533 453.246 126.447C453.004 126.357 452.736 126.312 452.443 126.312C452.092 126.312 451.773 126.381 451.488 126.518C451.207 126.654 450.965 126.855 450.762 127.121C450.562 127.387 450.408 127.715 450.299 128.105C450.189 128.496 450.135 128.945 450.135 129.453V130.004C450.135 130.414 450.17 130.785 450.24 131.117C450.311 131.449 450.412 131.744 450.545 132.002C450.682 132.256 450.844 132.469 451.031 132.641C451.223 132.812 451.438 132.943 451.676 133.033C451.914 133.119 452.174 133.162 452.455 133.162C452.822 133.162 453.148 133.094 453.434 132.957C453.719 132.82 453.959 132.619 454.154 132.354C454.354 132.084 454.504 131.754 454.605 131.363C454.707 130.969 454.758 130.516 454.758 130.004ZM459.334 133.021L461.068 127.66H462.176L459.896 134H459.17L459.334 133.021ZM457.887 127.66L459.674 133.051L459.797 134H459.07L456.773 127.66H457.887ZM464.396 127.66V134H463.307V127.66H464.396ZM463.225 125.979C463.225 125.803 463.277 125.654 463.383 125.533C463.492 125.412 463.652 125.352 463.863 125.352C464.07 125.352 464.229 125.412 464.338 125.533C464.451 125.654 464.508 125.803 464.508 125.979C464.508 126.146 464.451 126.291 464.338 126.412C464.229 126.529 464.07 126.588 463.863 126.588C463.652 126.588 463.492 126.529 463.383 126.412C463.277 126.291 463.225 126.146 463.225 125.979ZM467.221 129.014V134H466.137V127.66H467.162L467.221 129.014ZM466.963 130.59L466.512 130.572C466.516 130.139 466.58 129.738 466.705 129.371C466.83 129 467.006 128.678 467.232 128.404C467.459 128.131 467.729 127.92 468.041 127.771C468.357 127.619 468.707 127.543 469.09 127.543C469.402 127.543 469.684 127.586 469.934 127.672C470.184 127.754 470.396 127.887 470.572 128.07C470.752 128.254 470.889 128.492 470.982 128.785C471.076 129.074 471.123 129.428 471.123 129.846V134H470.033V129.834C470.033 129.502 469.984 129.236 469.887 129.037C469.789 128.834 469.646 128.688 469.459 128.598C469.271 128.504 469.041 128.457 468.768 128.457C468.498 128.457 468.252 128.514 468.029 128.627C467.811 128.74 467.621 128.896 467.461 129.096C467.305 129.295 467.182 129.523 467.092 129.781C467.006 130.035 466.963 130.305 466.963 130.59ZM476.877 127.66H477.861V133.865C477.861 134.424 477.748 134.9 477.521 135.295C477.295 135.689 476.979 135.988 476.572 136.191C476.17 136.398 475.705 136.502 475.178 136.502C474.959 136.502 474.701 136.467 474.404 136.396C474.111 136.33 473.822 136.215 473.537 136.051C473.256 135.891 473.02 135.674 472.828 135.4L473.396 134.756C473.662 135.076 473.939 135.299 474.229 135.424C474.521 135.549 474.811 135.611 475.096 135.611C475.439 135.611 475.736 135.547 475.986 135.418C476.236 135.289 476.43 135.098 476.566 134.844C476.707 134.594 476.777 134.285 476.777 133.918V129.055L476.877 127.66ZM472.512 130.9V130.777C472.512 130.293 472.568 129.854 472.682 129.459C472.799 129.061 472.965 128.719 473.18 128.434C473.398 128.148 473.662 127.93 473.971 127.777C474.279 127.621 474.627 127.543 475.014 127.543C475.412 127.543 475.76 127.613 476.057 127.754C476.357 127.891 476.611 128.092 476.818 128.357C477.029 128.619 477.195 128.936 477.316 129.307C477.438 129.678 477.521 130.098 477.568 130.566V131.105C477.525 131.57 477.441 131.988 477.316 132.359C477.195 132.73 477.029 133.047 476.818 133.309C476.611 133.57 476.357 133.771 476.057 133.912C475.756 134.049 475.404 134.117 475.002 134.117C474.623 134.117 474.279 134.037 473.971 133.877C473.666 133.717 473.404 133.492 473.186 133.203C472.967 132.914 472.799 132.574 472.682 132.184C472.568 131.789 472.512 131.361 472.512 130.9ZM473.596 130.777V130.9C473.596 131.217 473.627 131.514 473.689 131.791C473.756 132.068 473.855 132.312 473.988 132.523C474.125 132.734 474.299 132.9 474.51 133.021C474.721 133.139 474.973 133.197 475.266 133.197C475.625 133.197 475.922 133.121 476.156 132.969C476.391 132.816 476.576 132.615 476.713 132.365C476.854 132.115 476.963 131.844 477.041 131.551V130.139C476.998 129.924 476.932 129.717 476.842 129.518C476.756 129.314 476.643 129.135 476.502 128.979C476.365 128.818 476.195 128.691 475.992 128.598C475.789 128.504 475.551 128.457 475.277 128.457C474.98 128.457 474.725 128.52 474.51 128.645C474.299 128.766 474.125 128.934 473.988 129.148C473.855 129.359 473.756 129.605 473.689 129.887C473.627 130.164 473.596 130.461 473.596 130.777Z" fill="black"/>
<rect x="80" y="130" width="50" height="1" fill="black"/>
<rect x="0.5" y="115.5" width="79" height="29" rx="14.5" stroke="black"/>
<path d="M18.5371 131.844C18.5371 131.645 18.5059 131.469 18.4434 131.316C18.3848 131.16 18.2793 131.02 18.127 130.895C17.9785 130.77 17.7715 130.65 17.5059 130.537C17.2441 130.424 16.9121 130.309 16.5098 130.191C16.0879 130.066 15.707 129.928 15.3672 129.775C15.0273 129.619 14.7363 129.441 14.4941 129.242C14.252 129.043 14.0664 128.814 13.9375 128.557C13.8086 128.299 13.7441 128.004 13.7441 127.672C13.7441 127.34 13.8125 127.033 13.9492 126.752C14.0859 126.471 14.2812 126.227 14.5352 126.02C14.793 125.809 15.0996 125.645 15.4551 125.527C15.8105 125.41 16.207 125.352 16.6445 125.352C17.2852 125.352 17.8281 125.475 18.2734 125.721C18.7227 125.963 19.0645 126.281 19.2988 126.676C19.5332 127.066 19.6504 127.484 19.6504 127.93H18.5254C18.5254 127.609 18.457 127.326 18.3203 127.08C18.1836 126.83 17.9766 126.635 17.6992 126.494C17.4219 126.35 17.0703 126.277 16.6445 126.277C16.2422 126.277 15.9102 126.338 15.6484 126.459C15.3867 126.58 15.1914 126.744 15.0625 126.951C14.9375 127.158 14.875 127.395 14.875 127.66C14.875 127.84 14.9121 128.004 14.9863 128.152C15.0645 128.297 15.1836 128.432 15.3438 128.557C15.5078 128.682 15.7148 128.797 15.9648 128.902C16.2188 129.008 16.5215 129.109 16.873 129.207C17.3574 129.344 17.7754 129.496 18.127 129.664C18.4785 129.832 18.7676 130.021 18.9941 130.232C19.2246 130.439 19.3945 130.676 19.5039 130.941C19.6172 131.203 19.6738 131.5 19.6738 131.832C19.6738 132.18 19.6035 132.494 19.4629 132.775C19.3223 133.057 19.1211 133.297 18.8594 133.496C18.5977 133.695 18.2832 133.85 17.916 133.959C17.5527 134.064 17.1465 134.117 16.6973 134.117C16.3027 134.117 15.9141 134.062 15.5312 133.953C15.1523 133.844 14.8066 133.68 14.4941 133.461C14.1855 133.242 13.9375 132.973 13.75 132.652C13.5664 132.328 13.4746 131.953 13.4746 131.527H14.5996C14.5996 131.82 14.6562 132.072 14.7695 132.283C14.8828 132.49 15.0371 132.662 15.2324 132.799C15.4316 132.936 15.6562 133.037 15.9062 133.104C16.1602 133.166 16.4238 133.197 16.6973 133.197C17.0918 133.197 17.4258 133.143 17.6992 133.033C17.9727 132.924 18.1797 132.768 18.3203 132.564C18.4648 132.361 18.5371 132.121 18.5371 131.844ZM23.6055 127.66V128.492H20.1777V127.66H23.6055ZM21.3379 126.119H22.4219V132.43C22.4219 132.645 22.4551 132.807 22.5215 132.916C22.5879 133.025 22.6738 133.098 22.7793 133.133C22.8848 133.168 22.998 133.186 23.1191 133.186C23.209 133.186 23.3027 133.178 23.4004 133.162C23.502 133.143 23.5781 133.127 23.6289 133.115L23.6348 134C23.5488 134.027 23.4355 134.053 23.2949 134.076C23.1582 134.104 22.9922 134.117 22.7969 134.117C22.5312 134.117 22.2871 134.064 22.0645 133.959C21.8418 133.854 21.6641 133.678 21.5312 133.432C21.4023 133.182 21.3379 132.846 21.3379 132.424V126.119ZM28.7559 132.535V127.66H29.8457V134H28.8086L28.7559 132.535ZM28.9609 131.199L29.4121 131.188C29.4121 131.609 29.3672 132 29.2773 132.359C29.1914 132.715 29.0508 133.023 28.8555 133.285C28.6602 133.547 28.4043 133.752 28.0879 133.9C27.7715 134.045 27.3867 134.117 26.9336 134.117C26.625 134.117 26.3418 134.072 26.084 133.982C25.8301 133.893 25.6113 133.754 25.4277 133.566C25.2441 133.379 25.1016 133.135 25 132.834C24.9023 132.533 24.8535 132.172 24.8535 131.75V127.66H25.9375V131.762C25.9375 132.047 25.9688 132.283 26.0312 132.471C26.0977 132.654 26.1855 132.801 26.2949 132.91C26.4082 133.016 26.5332 133.09 26.6699 133.133C26.8105 133.176 26.9551 133.197 27.1035 133.197C27.5645 133.197 27.9297 133.109 28.1992 132.934C28.4688 132.754 28.6621 132.514 28.7793 132.213C28.9004 131.908 28.9609 131.57 28.9609 131.199ZM35.4941 132.77V125H36.584V134H35.5879L35.4941 132.77ZM31.2285 130.9V130.777C31.2285 130.293 31.2871 129.854 31.4043 129.459C31.5254 129.061 31.6953 128.719 31.9141 128.434C32.1367 128.148 32.4004 127.93 32.7051 127.777C33.0137 127.621 33.3574 127.543 33.7363 127.543C34.1348 127.543 34.4824 127.613 34.7793 127.754C35.0801 127.891 35.334 128.092 35.541 128.357C35.752 128.619 35.918 128.936 36.0391 129.307C36.1602 129.678 36.2441 130.098 36.291 130.566V131.105C36.248 131.57 36.1641 131.988 36.0391 132.359C35.918 132.73 35.752 133.047 35.541 133.309C35.334 133.57 35.0801 133.771 34.7793 133.912C34.4785 134.049 34.127 134.117 33.7246 134.117C33.3535 134.117 33.0137 134.037 32.7051 133.877C32.4004 133.717 32.1367 133.492 31.9141 133.203C31.6953 132.914 31.5254 132.574 31.4043 132.184C31.2871 131.789 31.2285 131.361 31.2285 130.9ZM32.3184 130.777V130.9C32.3184 131.217 32.3496 131.514 32.4121 131.791C32.4785 132.068 32.5801 132.312 32.7168 132.523C32.8535 132.734 33.0273 132.9 33.2383 133.021C33.4492 133.139 33.7012 133.197 33.9941 133.197C34.3535 133.197 34.6484 133.121 34.8789 132.969C35.1133 132.816 35.3008 132.615 35.4414 132.365C35.582 132.115 35.6914 131.844 35.7695 131.551V130.139C35.7227 129.924 35.6543 129.717 35.5645 129.518C35.4785 129.314 35.3652 129.135 35.2246 128.979C35.0879 128.818 34.918 128.691 34.7148 128.598C34.5156 128.504 34.2793 128.457 34.0059 128.457C33.709 128.457 33.4531 128.52 33.2383 128.645C33.0273 128.766 32.8535 128.934 32.7168 129.148C32.5801 129.359 32.4785 129.605 32.4121 129.887C32.3496 130.164 32.3184 130.461 32.3184 130.777ZM40.9023 134.117C40.4609 134.117 40.0605 134.043 39.7012 133.895C39.3457 133.742 39.0391 133.529 38.7812 133.256C38.5273 132.982 38.332 132.658 38.1953 132.283C38.0586 131.908 37.9902 131.498 37.9902 131.053V130.807C37.9902 130.291 38.0664 129.832 38.2188 129.43C38.3711 129.023 38.5781 128.68 38.8398 128.398C39.1016 128.117 39.3984 127.904 39.7305 127.76C40.0625 127.615 40.4062 127.543 40.7617 127.543C41.2148 127.543 41.6055 127.621 41.9336 127.777C42.2656 127.934 42.5371 128.152 42.748 128.434C42.959 128.711 43.1152 129.039 43.2168 129.418C43.3184 129.793 43.3691 130.203 43.3691 130.648V131.135H38.6348V130.25H42.2852V130.168C42.2695 129.887 42.2109 129.613 42.1094 129.348C42.0117 129.082 41.8555 128.863 41.6406 128.691C41.4258 128.52 41.1328 128.434 40.7617 128.434C40.5156 128.434 40.2891 128.486 40.082 128.592C39.875 128.693 39.6973 128.846 39.5488 129.049C39.4004 129.252 39.2852 129.5 39.2031 129.793C39.1211 130.086 39.0801 130.424 39.0801 130.807V131.053C39.0801 131.354 39.1211 131.637 39.2031 131.902C39.2891 132.164 39.4121 132.395 39.5723 132.594C39.7363 132.793 39.9336 132.949 40.1641 133.062C40.3984 133.176 40.6641 133.232 40.9609 133.232C41.3438 133.232 41.668 133.154 41.9336 132.998C42.1992 132.842 42.4316 132.633 42.6309 132.371L43.2871 132.893C43.1504 133.1 42.9766 133.297 42.7656 133.484C42.5547 133.672 42.2949 133.824 41.9863 133.941C41.6816 134.059 41.3203 134.117 40.9023 134.117ZM45.7188 129.014V134H44.6348V127.66H45.6602L45.7188 129.014ZM45.4609 130.59L45.0098 130.572C45.0137 130.139 45.0781 129.738 45.2031 129.371C45.3281 129 45.5039 128.678 45.7305 128.404C45.957 128.131 46.2266 127.92 46.5391 127.771C46.8555 127.619 47.2051 127.543 47.5879 127.543C47.9004 127.543 48.1816 127.586 48.4316 127.672C48.6816 127.754 48.8945 127.887 49.0703 128.07C49.25 128.254 49.3867 128.492 49.4805 128.785C49.5742 129.074 49.6211 129.428 49.6211 129.846V134H48.5312V129.834C48.5312 129.502 48.4824 129.236 48.3848 129.037C48.2871 128.834 48.1445 128.688 47.957 128.598C47.7695 128.504 47.5391 128.457 47.2656 128.457C46.9961 128.457 46.75 128.514 46.5273 128.627C46.3086 128.74 46.1191 128.896 45.959 129.096C45.8027 129.295 45.6797 129.523 45.5898 129.781C45.5039 130.035 45.4609 130.305 45.4609 130.59ZM53.9219 127.66V128.492H50.4941V127.66H53.9219ZM51.6543 126.119H52.7383V132.43C52.7383 132.645 52.7715 132.807 52.8379 132.916C52.9043 133.025 52.9902 133.098 53.0957 133.133C53.2012 133.168 53.3145 133.186 53.4355 133.186C53.5254 133.186 53.6191 133.178 53.7168 133.162C53.8184 133.143 53.8945 133.127 53.9453 133.115L53.9512 134C53.8652 134.027 53.752 134.053 53.6113 134.076C53.4746 134.104 53.3086 134.117 53.1133 134.117C52.8477 134.117 52.6035 134.064 52.3809 133.959C52.1582 133.854 51.9805 133.678 51.8477 133.432C51.7188 133.182 51.6543 132.846 51.6543 132.424V126.119ZM61.9199 125.469V134H60.7832L56.4883 127.42V134H55.3574V125.469H56.4883L60.8008 132.066V125.469H61.9199ZM64.8438 128.656V134H63.7598V127.66H64.8145L64.8438 128.656ZM66.8242 127.625L66.8184 128.633C66.7285 128.613 66.6426 128.602 66.5605 128.598C66.4824 128.59 66.3926 128.586 66.291 128.586C66.041 128.586 65.8203 128.625 65.6289 128.703C65.4375 128.781 65.2754 128.891 65.1426 129.031C65.0098 129.172 64.9043 129.34 64.8262 129.535C64.752 129.727 64.7031 129.938 64.6797 130.168L64.375 130.344C64.375 129.961 64.4121 129.602 64.4863 129.266C64.5645 128.93 64.6836 128.633 64.8438 128.375C65.0039 128.113 65.207 127.91 65.4531 127.766C65.7031 127.617 66 127.543 66.3438 127.543C66.4219 127.543 66.5117 127.553 66.6133 127.572C66.7148 127.588 66.7852 127.605 66.8242 127.625Z" fill="black"/>
<path d="M13 135.172H67V135.758H13V135.172Z" fill="black"/>
<path d="M413 30L463 80" stroke="black"/>
<path d="M513 30L463 80" stroke="black"/>
<rect x="463" y="80" width="50" height="1" transform="rotate(-90 463 80)" fill="black"/>
<rect x="333.5" y="15.5" width="79" height="29" rx="14.5" stroke="black"/>
<path d="M356.072 25.1172L350.201 34.5449H349.363L355.252 25.1172H356.072ZM355.961 29.4648V30.0039C355.961 30.6445 355.881 31.2188 355.721 31.7266C355.561 32.2344 355.33 32.666 355.029 33.0215C354.729 33.377 354.367 33.6484 353.945 33.8359C353.527 34.0234 353.059 34.1172 352.539 34.1172C352.137 34.1172 351.76 34.0566 351.408 33.9355C351.057 33.8145 350.738 33.6387 350.453 33.4082C350.172 33.1738 349.93 32.8906 349.727 32.5586C349.523 32.2227 349.367 31.8418 349.258 31.416C349.152 30.9863 349.1 30.5156 349.1 30.0039V29.4648C349.1 28.8242 349.182 28.252 349.346 27.748C349.514 27.2402 349.75 26.8086 350.055 26.4531C350.359 26.0938 350.721 25.8203 351.139 25.6328C351.561 25.4453 352.023 25.3516 352.527 25.3516C352.941 25.3516 353.324 25.4121 353.676 25.5332C354.031 25.6543 354.35 25.832 354.631 26.0664C354.912 26.2969 355.15 26.5801 355.346 26.916C355.545 27.248 355.697 27.6289 355.803 28.0586C355.908 28.4844 355.961 28.9531 355.961 29.4648ZM354.842 30.0039V29.4531C354.842 29.0469 354.809 28.6797 354.742 28.3516C354.676 28.0195 354.578 27.7266 354.449 27.4727C354.32 27.2188 354.162 27.0059 353.975 26.834C353.787 26.6621 353.572 26.5332 353.33 26.4473C353.088 26.3574 352.82 26.3125 352.527 26.3125C352.176 26.3125 351.857 26.3809 351.572 26.5176C351.291 26.6543 351.049 26.8555 350.846 27.1211C350.646 27.3867 350.492 27.7148 350.383 28.1055C350.273 28.4961 350.219 28.9453 350.219 29.4531V30.0039C350.219 30.4141 350.254 30.7852 350.324 31.1172C350.395 31.4492 350.496 31.7441 350.629 32.002C350.766 32.2559 350.928 32.4688 351.115 32.6406C351.307 32.8125 351.521 32.9434 351.76 33.0332C351.998 33.1191 352.258 33.1621 352.539 33.1621C352.906 33.1621 353.232 33.0938 353.518 32.957C353.803 32.8203 354.043 32.6191 354.238 32.3535C354.438 32.084 354.588 31.7539 354.689 31.3633C354.791 30.9688 354.842 30.5156 354.842 30.0039ZM359.418 33.0215L361.152 27.6602H362.26L359.98 34H359.254L359.418 33.0215ZM357.971 27.6602L359.758 33.0508L359.881 34H359.154L356.857 27.6602H357.971ZM364.48 27.6602V34H363.391V27.6602H364.48ZM363.309 25.9785C363.309 25.8027 363.361 25.6543 363.467 25.5332C363.576 25.4121 363.736 25.3516 363.947 25.3516C364.154 25.3516 364.312 25.4121 364.422 25.5332C364.535 25.6543 364.592 25.8027 364.592 25.9785C364.592 26.1465 364.535 26.291 364.422 26.4121C364.312 26.5293 364.154 26.5879 363.947 26.5879C363.736 26.5879 363.576 26.5293 363.467 26.4121C363.361 26.291 363.309 26.1465 363.309 25.9785ZM367.305 29.0137V34H366.221V27.6602H367.246L367.305 29.0137ZM367.047 30.5898L366.596 30.5723C366.6 30.1387 366.664 29.7383 366.789 29.3711C366.914 29 367.09 28.6777 367.316 28.4043C367.543 28.1309 367.812 27.9199 368.125 27.7715C368.441 27.6191 368.791 27.543 369.174 27.543C369.486 27.543 369.768 27.5859 370.018 27.6719C370.268 27.7539 370.48 27.8867 370.656 28.0703C370.836 28.2539 370.973 28.4922 371.066 28.7852C371.16 29.0742 371.207 29.4277 371.207 29.8457V34H370.117V29.834C370.117 29.502 370.068 29.2363 369.971 29.0371C369.873 28.834 369.73 28.6875 369.543 28.5977C369.355 28.5039 369.125 28.457 368.852 28.457C368.582 28.457 368.336 28.5137 368.113 28.627C367.895 28.7402 367.705 28.8965 367.545 29.0957C367.389 29.2949 367.266 29.5234 367.176 29.7812C367.09 30.0352 367.047 30.3047 367.047 30.5898ZM376.961 27.6602H377.945V33.8652C377.945 34.4238 377.832 34.9004 377.605 35.2949C377.379 35.6895 377.062 35.9883 376.656 36.1914C376.254 36.3984 375.789 36.502 375.262 36.502C375.043 36.502 374.785 36.4668 374.488 36.3965C374.195 36.3301 373.906 36.2148 373.621 36.0508C373.34 35.8906 373.104 35.6738 372.912 35.4004L373.48 34.7559C373.746 35.0762 374.023 35.2988 374.312 35.4238C374.605 35.5488 374.895 35.6113 375.18 35.6113C375.523 35.6113 375.82 35.5469 376.07 35.418C376.32 35.2891 376.514 35.0977 376.65 34.8438C376.791 34.5938 376.861 34.2852 376.861 33.918V29.0547L376.961 27.6602ZM372.596 30.9004V30.7773C372.596 30.293 372.652 29.8535 372.766 29.459C372.883 29.0605 373.049 28.7188 373.264 28.4336C373.482 28.1484 373.746 27.9297 374.055 27.7773C374.363 27.6211 374.711 27.543 375.098 27.543C375.496 27.543 375.844 27.6133 376.141 27.7539C376.441 27.8906 376.695 28.0918 376.902 28.3574C377.113 28.6191 377.279 28.9355 377.4 29.3066C377.521 29.6777 377.605 30.0977 377.652 30.5664V31.1055C377.609 31.5703 377.525 31.9883 377.4 32.3594C377.279 32.7305 377.113 33.0469 376.902 33.3086C376.695 33.5703 376.441 33.7715 376.141 33.9121C375.84 34.0488 375.488 34.1172 375.086 34.1172C374.707 34.1172 374.363 34.0371 374.055 33.877C373.75 33.7168 373.488 33.4922 373.27 33.2031C373.051 32.9141 372.883 32.5742 372.766 32.1836C372.652 31.7891 372.596 31.3613 372.596 30.9004ZM373.68 30.7773V30.9004C373.68 31.2168 373.711 31.5137 373.773 31.791C373.84 32.0684 373.939 32.3125 374.072 32.5234C374.209 32.7344 374.383 32.9004 374.594 33.0215C374.805 33.1387 375.057 33.1973 375.35 33.1973C375.709 33.1973 376.006 33.1211 376.24 32.9688C376.475 32.8164 376.66 32.6152 376.797 32.3652C376.938 32.1152 377.047 31.8438 377.125 31.5508V30.1387C377.082 29.9238 377.016 29.7168 376.926 29.5176C376.84 29.3145 376.727 29.1348 376.586 28.9785C376.449 28.8184 376.279 28.6914 376.076 28.5977C375.873 28.5039 375.635 28.457 375.361 28.457C375.064 28.457 374.809 28.5195 374.594 28.6445C374.383 28.7656 374.209 28.9336 374.072 29.1484C373.939 29.3594 373.84 29.6055 373.773 29.8867C373.711 30.1641 373.68 30.4609 373.68 30.7773ZM383.283 32.3184C383.283 32.1621 383.248 32.0176 383.178 31.8848C383.111 31.748 382.973 31.625 382.762 31.5156C382.555 31.4023 382.242 31.3047 381.824 31.2227C381.473 31.1484 381.154 31.0605 380.869 30.959C380.588 30.8574 380.348 30.7344 380.148 30.5898C379.953 30.4453 379.803 30.2754 379.697 30.0801C379.592 29.8848 379.539 29.6562 379.539 29.3945C379.539 29.1445 379.594 28.9082 379.703 28.6855C379.816 28.4629 379.975 28.2656 380.178 28.0938C380.385 27.9219 380.633 27.7871 380.922 27.6895C381.211 27.5918 381.533 27.543 381.889 27.543C382.396 27.543 382.83 27.6328 383.189 27.8125C383.549 27.9922 383.824 28.2324 384.016 28.5332C384.207 28.8301 384.303 29.1602 384.303 29.5234H383.219C383.219 29.3477 383.166 29.1777 383.061 29.0137C382.959 28.8457 382.809 28.707 382.609 28.5977C382.414 28.4883 382.174 28.4336 381.889 28.4336C381.588 28.4336 381.344 28.4805 381.156 28.5742C380.973 28.6641 380.838 28.7793 380.752 28.9199C380.67 29.0605 380.629 29.209 380.629 29.3652C380.629 29.4824 380.648 29.5879 380.688 29.6816C380.73 29.7715 380.805 29.8555 380.91 29.9336C381.016 30.0078 381.164 30.0781 381.355 30.1445C381.547 30.2109 381.791 30.2773 382.088 30.3438C382.607 30.4609 383.035 30.6016 383.371 30.7656C383.707 30.9297 383.957 31.1309 384.121 31.3691C384.285 31.6074 384.367 31.8965 384.367 32.2363C384.367 32.5137 384.309 32.7676 384.191 32.998C384.078 33.2285 383.912 33.4277 383.693 33.5957C383.479 33.7598 383.221 33.8887 382.92 33.9824C382.623 34.0723 382.289 34.1172 381.918 34.1172C381.359 34.1172 380.887 34.0176 380.5 33.8184C380.113 33.6191 379.82 33.3613 379.621 33.0449C379.422 32.7285 379.322 32.3945 379.322 32.043H380.412C380.428 32.3398 380.514 32.5762 380.67 32.752C380.826 32.9238 381.018 33.0469 381.244 33.1211C381.471 33.1914 381.695 33.2266 381.918 33.2266C382.215 33.2266 382.463 33.1875 382.662 33.1094C382.865 33.0312 383.02 32.9238 383.125 32.7871C383.23 32.6504 383.283 32.4941 383.283 32.3184ZM392.518 25.4688V34H391.381L387.086 27.4199V34H385.955V25.4688H387.086L391.398 32.0664V25.4688H392.518ZM395.441 28.6562V34H394.357V27.6602H395.412L395.441 28.6562ZM397.422 27.625L397.416 28.6328C397.326 28.6133 397.24 28.6016 397.158 28.5977C397.08 28.5898 396.99 28.5859 396.889 28.5859C396.639 28.5859 396.418 28.625 396.227 28.7031C396.035 28.7812 395.873 28.8906 395.74 29.0312C395.607 29.1719 395.502 29.3398 395.424 29.5352C395.35 29.7266 395.301 29.9375 395.277 30.168L394.973 30.3438C394.973 29.9609 395.01 29.6016 395.084 29.2656C395.162 28.9297 395.281 28.6328 395.441 28.375C395.602 28.1133 395.805 27.9102 396.051 27.7656C396.301 27.6172 396.598 27.543 396.941 27.543C397.02 27.543 397.109 27.5527 397.211 27.5723C397.312 27.5879 397.383 27.6055 397.422 27.625Z" fill="black"/>
<path d="M348.402 35.1719H397.598V35.7578H348.402V35.1719Z" fill="black"/>
<rect x="423.5" y="0.5" width="79" height="29" rx="14.5" stroke="black"/>
<path d="M453.537 10.4688V19H452.424V10.4688H453.537ZM456.279 10.4688V11.3945H449.688V10.4688H456.279ZM458.559 12.6602V19H457.469V12.6602H458.559ZM457.387 10.9785C457.387 10.8027 457.439 10.6543 457.545 10.5332C457.654 10.4121 457.814 10.3516 458.025 10.3516C458.232 10.3516 458.391 10.4121 458.5 10.5332C458.613 10.6543 458.67 10.8027 458.67 10.9785C458.67 11.1465 458.613 11.291 458.5 11.4121C458.391 11.5293 458.232 11.5879 458.025 11.5879C457.814 11.5879 457.654 11.5293 457.545 11.4121C457.439 11.291 457.387 11.1465 457.387 10.9785ZM462.953 12.6602V13.4922H459.525V12.6602H462.953ZM460.686 11.1191H461.77V17.4297C461.77 17.6445 461.803 17.8066 461.869 17.916C461.936 18.0254 462.021 18.0977 462.127 18.1328C462.232 18.168 462.346 18.1855 462.467 18.1855C462.557 18.1855 462.65 18.1777 462.748 18.1621C462.85 18.1426 462.926 18.127 462.977 18.1152L462.982 19C462.896 19.0273 462.783 19.0527 462.643 19.0762C462.506 19.1035 462.34 19.1172 462.145 19.1172C461.879 19.1172 461.635 19.0645 461.412 18.959C461.189 18.8535 461.012 18.6777 460.879 18.4316C460.75 18.1816 460.686 17.8457 460.686 17.4238V11.1191ZM466.879 12.6602V13.4922H463.451V12.6602H466.879ZM464.611 11.1191H465.695V17.4297C465.695 17.6445 465.729 17.8066 465.795 17.916C465.861 18.0254 465.947 18.0977 466.053 18.1328C466.158 18.168 466.271 18.1855 466.393 18.1855C466.482 18.1855 466.576 18.1777 466.674 18.1621C466.775 18.1426 466.852 18.127 466.902 18.1152L466.908 19C466.822 19.0273 466.709 19.0527 466.568 19.0762C466.432 19.1035 466.266 19.1172 466.07 19.1172C465.805 19.1172 465.561 19.0645 465.338 18.959C465.115 18.8535 464.938 18.6777 464.805 18.4316C464.676 18.1816 464.611 17.8457 464.611 17.4238V11.1191ZM470.781 19.1172C470.34 19.1172 469.939 19.043 469.58 18.8945C469.225 18.7422 468.918 18.5293 468.66 18.2559C468.406 17.9824 468.211 17.6582 468.074 17.2832C467.938 16.9082 467.869 16.498 467.869 16.0527V15.8066C467.869 15.291 467.945 14.832 468.098 14.4297C468.25 14.0234 468.457 13.6797 468.719 13.3984C468.98 13.1172 469.277 12.9043 469.609 12.7598C469.941 12.6152 470.285 12.543 470.641 12.543C471.094 12.543 471.484 12.6211 471.812 12.7773C472.145 12.9336 472.416 13.1523 472.627 13.4336C472.838 13.7109 472.994 14.0391 473.096 14.418C473.197 14.793 473.248 15.2031 473.248 15.6484V16.1348H468.514V15.25H472.164V15.168C472.148 14.8867 472.09 14.6133 471.988 14.3477C471.891 14.082 471.734 13.8633 471.52 13.6914C471.305 13.5195 471.012 13.4336 470.641 13.4336C470.395 13.4336 470.168 13.4863 469.961 13.5918C469.754 13.6934 469.576 13.8457 469.428 14.0488C469.279 14.252 469.164 14.5 469.082 14.793C469 15.0859 468.959 15.4238 468.959 15.8066V16.0527C468.959 16.3535 469 16.6367 469.082 16.9023C469.168 17.1641 469.291 17.3945 469.451 17.5938C469.615 17.793 469.812 17.9492 470.043 18.0625C470.277 18.1758 470.543 18.2324 470.84 18.2324C471.223 18.2324 471.547 18.1543 471.812 17.998C472.078 17.8418 472.311 17.6328 472.51 17.3711L473.166 17.8926C473.029 18.0996 472.855 18.2969 472.645 18.4844C472.434 18.6719 472.174 18.8242 471.865 18.9414C471.561 19.0586 471.199 19.1172 470.781 19.1172ZM475.691 10V19H474.602V10H475.691Z" fill="black"/>
<rect x="513.5" y="15.5" width="79" height="29" rx="14.5" stroke="black"/>
<path d="M531.99 29.4648V30.0039C531.99 30.6445 531.91 31.2188 531.75 31.7266C531.59 32.2344 531.359 32.666 531.059 33.0215C530.758 33.377 530.396 33.6484 529.975 33.8359C529.557 34.0234 529.088 34.1172 528.568 34.1172C528.064 34.1172 527.602 34.0234 527.18 33.8359C526.762 33.6484 526.398 33.377 526.09 33.0215C525.785 32.666 525.549 32.2344 525.381 31.7266C525.213 31.2188 525.129 30.6445 525.129 30.0039V29.4648C525.129 28.8242 525.211 28.252 525.375 27.748C525.543 27.2402 525.779 26.8086 526.084 26.4531C526.389 26.0938 526.75 25.8203 527.168 25.6328C527.59 25.4453 528.053 25.3516 528.557 25.3516C529.076 25.3516 529.545 25.4453 529.963 25.6328C530.385 25.8203 530.746 26.0938 531.047 26.4531C531.352 26.8086 531.584 27.2402 531.744 27.748C531.908 28.252 531.99 28.8242 531.99 29.4648ZM530.871 30.0039V29.4531C530.871 28.9453 530.818 28.4961 530.713 28.1055C530.611 27.7148 530.461 27.3867 530.262 27.1211C530.062 26.8555 529.818 26.6543 529.529 26.5176C529.244 26.3809 528.92 26.3125 528.557 26.3125C528.205 26.3125 527.887 26.3809 527.602 26.5176C527.32 26.6543 527.078 26.8555 526.875 27.1211C526.676 27.3867 526.521 27.7148 526.412 28.1055C526.303 28.4961 526.248 28.9453 526.248 29.4531V30.0039C526.248 30.5156 526.303 30.9688 526.412 31.3633C526.521 31.7539 526.678 32.084 526.881 32.3535C527.088 32.6191 527.332 32.8203 527.613 32.957C527.898 33.0938 528.217 33.1621 528.568 33.1621C528.936 33.1621 529.262 33.0938 529.547 32.957C529.832 32.8203 530.072 32.6191 530.268 32.3535C530.467 32.084 530.617 31.7539 530.719 31.3633C530.82 30.9688 530.871 30.5156 530.871 30.0039ZM534.604 28.8789V36.4375H533.514V27.6602H534.51L534.604 28.8789ZM538.875 30.7773V30.9004C538.875 31.3613 538.82 31.7891 538.711 32.1836C538.602 32.5742 538.441 32.9141 538.23 33.2031C538.023 33.4922 537.768 33.7168 537.463 33.877C537.158 34.0371 536.809 34.1172 536.414 34.1172C536.012 34.1172 535.656 34.0508 535.348 33.918C535.039 33.7852 534.777 33.5918 534.562 33.3379C534.348 33.084 534.176 32.7793 534.047 32.4238C533.922 32.0684 533.836 31.668 533.789 31.2227V30.5664C533.836 30.0977 533.924 29.6777 534.053 29.3066C534.182 28.9355 534.352 28.6191 534.562 28.3574C534.777 28.0918 535.037 27.8906 535.342 27.7539C535.646 27.6133 535.998 27.543 536.396 27.543C536.795 27.543 537.148 27.6211 537.457 27.7773C537.766 27.9297 538.025 28.1484 538.236 28.4336C538.447 28.7188 538.605 29.0605 538.711 29.459C538.82 29.8535 538.875 30.293 538.875 30.7773ZM537.785 30.9004V30.7773C537.785 30.4609 537.752 30.1641 537.686 29.8867C537.619 29.6055 537.516 29.3594 537.375 29.1484C537.238 28.9336 537.062 28.7656 536.848 28.6445C536.633 28.5195 536.377 28.457 536.08 28.457C535.807 28.457 535.568 28.5039 535.365 28.5977C535.166 28.6914 534.996 28.8184 534.855 28.9785C534.715 29.1348 534.6 29.3145 534.51 29.5176C534.424 29.7168 534.359 29.9238 534.316 30.1387V31.6562C534.395 31.9297 534.504 32.1875 534.645 32.4297C534.785 32.668 534.973 32.8613 535.207 33.0098C535.441 33.1543 535.736 33.2266 536.092 33.2266C536.385 33.2266 536.637 33.166 536.848 33.0449C537.062 32.9199 537.238 32.75 537.375 32.5352C537.516 32.3203 537.619 32.0742 537.686 31.7969C537.752 31.5156 537.785 31.2168 537.785 30.9004ZM541.342 28.8789V36.4375H540.252V27.6602H541.248L541.342 28.8789ZM545.613 30.7773V30.9004C545.613 31.3613 545.559 31.7891 545.449 32.1836C545.34 32.5742 545.18 32.9141 544.969 33.2031C544.762 33.4922 544.506 33.7168 544.201 33.877C543.896 34.0371 543.547 34.1172 543.152 34.1172C542.75 34.1172 542.395 34.0508 542.086 33.918C541.777 33.7852 541.516 33.5918 541.301 33.3379C541.086 33.084 540.914 32.7793 540.785 32.4238C540.66 32.0684 540.574 31.668 540.527 31.2227V30.5664C540.574 30.0977 540.662 29.6777 540.791 29.3066C540.92 28.9355 541.09 28.6191 541.301 28.3574C541.516 28.0918 541.775 27.8906 542.08 27.7539C542.385 27.6133 542.736 27.543 543.135 27.543C543.533 27.543 543.887 27.6211 544.195 27.7773C544.504 27.9297 544.764 28.1484 544.975 28.4336C545.186 28.7188 545.344 29.0605 545.449 29.459C545.559 29.8535 545.613 30.293 545.613 30.7773ZM544.523 30.9004V30.7773C544.523 30.4609 544.49 30.1641 544.424 29.8867C544.357 29.6055 544.254 29.3594 544.113 29.1484C543.977 28.9336 543.801 28.7656 543.586 28.6445C543.371 28.5195 543.115 28.457 542.818 28.457C542.545 28.457 542.307 28.5039 542.104 28.5977C541.904 28.6914 541.734 28.8184 541.594 28.9785C541.453 29.1348 541.338 29.3145 541.248 29.5176C541.162 29.7168 541.098 29.9238 541.055 30.1387V31.6562C541.133 31.9297 541.242 32.1875 541.383 32.4297C541.523 32.668 541.711 32.8613 541.945 33.0098C542.18 33.1543 542.475 33.2266 542.83 33.2266C543.123 33.2266 543.375 33.166 543.586 33.0449C543.801 32.9199 543.977 32.75 544.113 32.5352C544.254 32.3203 544.357 32.0742 544.424 31.7969C544.49 31.5156 544.523 31.2168 544.523 30.9004ZM551.104 27.6602H552.088V33.8652C552.088 34.4238 551.975 34.9004 551.748 35.2949C551.521 35.6895 551.205 35.9883 550.799 36.1914C550.396 36.3984 549.932 36.502 549.404 36.502C549.186 36.502 548.928 36.4668 548.631 36.3965C548.338 36.3301 548.049 36.2148 547.764 36.0508C547.482 35.8906 547.246 35.6738 547.055 35.4004L547.623 34.7559C547.889 35.0762 548.166 35.2988 548.455 35.4238C548.748 35.5488 549.037 35.6113 549.322 35.6113C549.666 35.6113 549.963 35.5469 550.213 35.418C550.463 35.2891 550.656 35.0977 550.793 34.8438C550.934 34.5938 551.004 34.2852 551.004 33.918V29.0547L551.104 27.6602ZM546.738 30.9004V30.7773C546.738 30.293 546.795 29.8535 546.908 29.459C547.025 29.0605 547.191 28.7188 547.406 28.4336C547.625 28.1484 547.889 27.9297 548.197 27.7773C548.506 27.6211 548.854 27.543 549.24 27.543C549.639 27.543 549.986 27.6133 550.283 27.7539C550.584 27.8906 550.838 28.0918 551.045 28.3574C551.256 28.6191 551.422 28.9355 551.543 29.3066C551.664 29.6777 551.748 30.0977 551.795 30.5664V31.1055C551.752 31.5703 551.668 31.9883 551.543 32.3594C551.422 32.7305 551.256 33.0469 551.045 33.3086C550.838 33.5703 550.584 33.7715 550.283 33.9121C549.982 34.0488 549.631 34.1172 549.229 34.1172C548.85 34.1172 548.506 34.0371 548.197 33.877C547.893 33.7168 547.631 33.4922 547.412 33.2031C547.193 32.9141 547.025 32.5742 546.908 32.1836C546.795 31.7891 546.738 31.3613 546.738 30.9004ZM547.822 30.7773V30.9004C547.822 31.2168 547.854 31.5137 547.916 31.791C547.982 32.0684 548.082 32.3125 548.215 32.5234C548.352 32.7344 548.525 32.9004 548.736 33.0215C548.947 33.1387 549.199 33.1973 549.492 33.1973C549.852 33.1973 550.148 33.1211 550.383 32.9688C550.617 32.8164 550.803 32.6152 550.939 32.3652C551.08 32.1152 551.189 31.8438 551.268 31.5508V30.1387C551.225 29.9238 551.158 29.7168 551.068 29.5176C550.982 29.3145 550.869 29.1348 550.729 28.9785C550.592 28.8184 550.422 28.6914 550.219 28.5977C550.016 28.5039 549.777 28.457 549.504 28.457C549.207 28.457 548.951 28.5195 548.736 28.6445C548.525 28.7656 548.352 28.9336 548.215 29.1484C548.082 29.3594 547.982 29.6055 547.916 29.8867C547.854 30.1641 547.822 30.4609 547.822 30.7773ZM553.752 33.4258C553.752 33.2422 553.809 33.0879 553.922 32.9629C554.039 32.834 554.207 32.7695 554.426 32.7695C554.645 32.7695 554.811 32.834 554.924 32.9629C555.041 33.0879 555.1 33.2422 555.1 33.4258C555.1 33.6055 555.041 33.7578 554.924 33.8828C554.811 34.0078 554.645 34.0703 554.426 34.0703C554.207 34.0703 554.039 34.0078 553.922 33.8828C553.809 33.7578 553.752 33.6055 553.752 33.4258ZM559.553 27.6602V28.4922H556.125V27.6602H559.553ZM557.285 26.1191H558.369V32.4297C558.369 32.6445 558.402 32.8066 558.469 32.916C558.535 33.0254 558.621 33.0977 558.727 33.1328C558.832 33.168 558.945 33.1855 559.066 33.1855C559.156 33.1855 559.25 33.1777 559.348 33.1621C559.449 33.1426 559.525 33.127 559.576 33.1152L559.582 34C559.496 34.0273 559.383 34.0527 559.242 34.0762C559.105 34.1035 558.939 34.1172 558.744 34.1172C558.479 34.1172 558.234 34.0645 558.012 33.959C557.789 33.8535 557.611 33.6777 557.479 33.4316C557.35 33.1816 557.285 32.8457 557.285 32.4238V26.1191ZM563.455 34.1172C563.014 34.1172 562.613 34.043 562.254 33.8945C561.898 33.7422 561.592 33.5293 561.334 33.2559C561.08 32.9824 560.885 32.6582 560.748 32.2832C560.611 31.9082 560.543 31.498 560.543 31.0527V30.8066C560.543 30.291 560.619 29.832 560.771 29.4297C560.924 29.0234 561.131 28.6797 561.393 28.3984C561.654 28.1172 561.951 27.9043 562.283 27.7598C562.615 27.6152 562.959 27.543 563.314 27.543C563.768 27.543 564.158 27.6211 564.486 27.7773C564.818 27.9336 565.09 28.1523 565.301 28.4336C565.512 28.7109 565.668 29.0391 565.77 29.418C565.871 29.793 565.922 30.2031 565.922 30.6484V31.1348H561.188V30.25H564.838V30.168C564.822 29.8867 564.764 29.6133 564.662 29.3477C564.564 29.082 564.408 28.8633 564.193 28.6914C563.979 28.5195 563.686 28.4336 563.314 28.4336C563.068 28.4336 562.842 28.4863 562.635 28.5918C562.428 28.6934 562.25 28.8457 562.102 29.0488C561.953 29.252 561.838 29.5 561.756 29.793C561.674 30.0859 561.633 30.4238 561.633 30.8066V31.0527C561.633 31.3535 561.674 31.6367 561.756 31.9023C561.842 32.1641 561.965 32.3945 562.125 32.5938C562.289 32.793 562.486 32.9492 562.717 33.0625C562.951 33.1758 563.217 33.2324 563.514 33.2324C563.896 33.2324 564.221 33.1543 564.486 32.998C564.752 32.8418 564.984 32.6328 565.184 32.3711L565.84 32.8926C565.703 33.0996 565.529 33.2969 565.318 33.4844C565.107 33.6719 564.848 33.8242 564.539 33.9414C564.234 34.0586 563.873 34.1172 563.455 34.1172ZM568.277 25V34H567.188V25H568.277ZM572.15 27.6602L569.385 30.6191L567.838 32.2246L567.75 31.0703L568.857 29.7461L570.826 27.6602H572.15ZM571.16 34L568.898 30.9766L569.461 30.0098L572.438 34H571.16ZM576.961 32.3184C576.961 32.1621 576.926 32.0176 576.855 31.8848C576.789 31.748 576.65 31.625 576.439 31.5156C576.232 31.4023 575.92 31.3047 575.502 31.2227C575.15 31.1484 574.832 31.0605 574.547 30.959C574.266 30.8574 574.025 30.7344 573.826 30.5898C573.631 30.4453 573.48 30.2754 573.375 30.0801C573.27 29.8848 573.217 29.6562 573.217 29.3945C573.217 29.1445 573.271 28.9082 573.381 28.6855C573.494 28.4629 573.652 28.2656 573.855 28.0938C574.062 27.9219 574.311 27.7871 574.6 27.6895C574.889 27.5918 575.211 27.543 575.566 27.543C576.074 27.543 576.508 27.6328 576.867 27.8125C577.227 27.9922 577.502 28.2324 577.693 28.5332C577.885 28.8301 577.98 29.1602 577.98 29.5234H576.896C576.896 29.3477 576.844 29.1777 576.738 29.0137C576.637 28.8457 576.486 28.707 576.287 28.5977C576.092 28.4883 575.852 28.4336 575.566 28.4336C575.266 28.4336 575.021 28.4805 574.834 28.5742C574.65 28.6641 574.516 28.7793 574.43 28.9199C574.348 29.0605 574.307 29.209 574.307 29.3652C574.307 29.4824 574.326 29.5879 574.365 29.6816C574.408 29.7715 574.482 29.8555 574.588 29.9336C574.693 30.0078 574.842 30.0781 575.033 30.1445C575.225 30.2109 575.469 30.2773 575.766 30.3438C576.285 30.4609 576.713 30.6016 577.049 30.7656C577.385 30.9297 577.635 31.1309 577.799 31.3691C577.963 31.6074 578.045 31.8965 578.045 32.2363C578.045 32.5137 577.986 32.7676 577.869 32.998C577.756 33.2285 577.59 33.4277 577.371 33.5957C577.156 33.7598 576.898 33.8887 576.598 33.9824C576.301 34.0723 575.967 34.1172 575.596 34.1172C575.037 34.1172 574.564 34.0176 574.178 33.8184C573.791 33.6191 573.498 33.3613 573.299 33.0449C573.1 32.7285 573 32.3945 573 32.043H574.09C574.105 32.3398 574.191 32.5762 574.348 32.752C574.504 32.9238 574.695 33.0469 574.922 33.1211C575.148 33.1914 575.373 33.2266 575.596 33.2266C575.893 33.2266 576.141 33.1875 576.34 33.1094C576.543 33.0312 576.697 32.9238 576.803 32.7871C576.908 32.6504 576.961 32.4941 576.961 32.3184ZM582.123 27.6602V28.4922H578.695V27.6602H582.123ZM579.855 26.1191H580.939V32.4297C580.939 32.6445 580.973 32.8066 581.039 32.916C581.105 33.0254 581.191 33.0977 581.297 33.1328C581.402 33.168 581.516 33.1855 581.637 33.1855C581.727 33.1855 581.82 33.1777 581.918 33.1621C582.02 33.1426 582.096 33.127 582.146 33.1152L582.152 34C582.066 34.0273 581.953 34.0527 581.812 34.0762C581.676 34.1035 581.51 34.1172 581.314 34.1172C581.049 34.1172 580.805 34.0645 580.582 33.959C580.359 33.8535 580.182 33.6777 580.049 33.4316C579.92 33.1816 579.855 32.8457 579.855 32.4238V26.1191Z" fill="black"/>
<path d="M563 80L513 130" stroke="black"/>
<rect x="513" y="130" width="50" height="1" fill="black"/>
<rect x="563.5" y="65.5" width="79" height="29" rx="14.5" stroke="black"/>
<path d="M602.613 83.0801V84H598.348V83.0801H602.613ZM598.57 75.4688V84H597.439V75.4688H598.57ZM605.039 75.4688V84H603.908V75.4688H605.039ZM608.613 79.3066V80.2324H604.793V79.3066H608.613ZM609.193 75.4688V76.3945H604.793V75.4688H609.193Z" fill="black"/>
<rect x="563.5" y="116.5" width="79" height="29" rx="14.5" stroke="black"/>
<path d="M593.326 126.469V135H592.195V126.469H593.326ZM596.9 130.307V131.232H593.08V130.307H596.9ZM597.48 126.469V127.395H593.08V126.469H597.48ZM599.596 129.656V135H598.512V128.66H599.566L599.596 129.656ZM601.576 128.625L601.57 129.633C601.48 129.613 601.395 129.602 601.312 129.598C601.234 129.59 601.145 129.586 601.043 129.586C600.793 129.586 600.572 129.625 600.381 129.703C600.189 129.781 600.027 129.891 599.895 130.031C599.762 130.172 599.656 130.34 599.578 130.535C599.504 130.727 599.455 130.938 599.432 131.168L599.127 131.344C599.127 130.961 599.164 130.602 599.238 130.266C599.316 129.93 599.436 129.633 599.596 129.375C599.756 129.113 599.959 128.91 600.205 128.766C600.455 128.617 600.752 128.543 601.096 128.543C601.174 128.543 601.264 128.553 601.365 128.572C601.467 128.588 601.537 128.605 601.576 128.625ZM603.756 128.66V135H602.666V128.66H603.756ZM602.584 126.979C602.584 126.803 602.637 126.654 602.742 126.533C602.852 126.412 603.012 126.352 603.223 126.352C603.43 126.352 603.588 126.412 603.697 126.533C603.811 126.654 603.867 126.803 603.867 126.979C603.867 127.146 603.811 127.291 603.697 127.412C603.588 127.529 603.43 127.588 603.223 127.588C603.012 127.588 602.852 127.529 602.742 127.412C602.637 127.291 602.584 127.146 602.584 126.979ZM609.188 133.318C609.188 133.162 609.152 133.018 609.082 132.885C609.016 132.748 608.877 132.625 608.666 132.516C608.459 132.402 608.146 132.305 607.729 132.223C607.377 132.148 607.059 132.061 606.773 131.959C606.492 131.857 606.252 131.734 606.053 131.59C605.857 131.445 605.707 131.275 605.602 131.08C605.496 130.885 605.443 130.656 605.443 130.395C605.443 130.145 605.498 129.908 605.607 129.686C605.721 129.463 605.879 129.266 606.082 129.094C606.289 128.922 606.537 128.787 606.826 128.689C607.115 128.592 607.438 128.543 607.793 128.543C608.301 128.543 608.734 128.633 609.094 128.812C609.453 128.992 609.729 129.232 609.92 129.533C610.111 129.83 610.207 130.16 610.207 130.523H609.123C609.123 130.348 609.07 130.178 608.965 130.014C608.863 129.846 608.713 129.707 608.514 129.598C608.318 129.488 608.078 129.434 607.793 129.434C607.492 129.434 607.248 129.48 607.061 129.574C606.877 129.664 606.742 129.779 606.656 129.92C606.574 130.061 606.533 130.209 606.533 130.365C606.533 130.482 606.553 130.588 606.592 130.682C606.635 130.771 606.709 130.855 606.814 130.934C606.92 131.008 607.068 131.078 607.26 131.145C607.451 131.211 607.695 131.277 607.992 131.344C608.512 131.461 608.939 131.602 609.275 131.766C609.611 131.93 609.861 132.131 610.025 132.369C610.189 132.607 610.271 132.896 610.271 133.236C610.271 133.514 610.213 133.768 610.096 133.998C609.982 134.229 609.816 134.428 609.598 134.596C609.383 134.76 609.125 134.889 608.824 134.982C608.527 135.072 608.193 135.117 607.822 135.117C607.264 135.117 606.791 135.018 606.404 134.818C606.018 134.619 605.725 134.361 605.525 134.045C605.326 133.729 605.227 133.395 605.227 133.043H606.316C606.332 133.34 606.418 133.576 606.574 133.752C606.73 133.924 606.922 134.047 607.148 134.121C607.375 134.191 607.6 134.227 607.822 134.227C608.119 134.227 608.367 134.188 608.566 134.109C608.77 134.031 608.924 133.924 609.029 133.787C609.135 133.65 609.188 133.494 609.188 133.318ZM614.35 128.66V129.492H610.922V128.66H614.35ZM612.082 127.119H613.166V133.43C613.166 133.645 613.199 133.807 613.266 133.916C613.332 134.025 613.418 134.098 613.523 134.133C613.629 134.168 613.742 134.186 613.863 134.186C613.953 134.186 614.047 134.178 614.145 134.162C614.246 134.143 614.322 134.127 614.373 134.115L614.379 135C614.293 135.027 614.18 135.053 614.039 135.076C613.902 135.104 613.736 135.117 613.541 135.117C613.275 135.117 613.031 135.064 612.809 134.959C612.586 134.854 612.408 134.678 612.275 134.432C612.146 134.182 612.082 133.846 612.082 133.424V127.119Z" fill="black"/>
<rect x="267.5" y="222.5" width="109" height="29" rx="14.5" stroke="black"/>
<path d="M281.76 236.752V239.875C281.654 240.031 281.486 240.207 281.256 240.402C281.025 240.594 280.707 240.762 280.301 240.906C279.898 241.047 279.379 241.117 278.742 241.117C278.223 241.117 277.744 241.027 277.307 240.848C276.873 240.664 276.496 240.398 276.176 240.051C275.859 239.699 275.613 239.273 275.438 238.773C275.266 238.27 275.18 237.699 275.18 237.062V236.4C275.18 235.764 275.254 235.195 275.402 234.695C275.555 234.195 275.777 233.771 276.07 233.424C276.363 233.072 276.723 232.807 277.148 232.627C277.574 232.443 278.062 232.352 278.613 232.352C279.266 232.352 279.811 232.465 280.248 232.691C280.689 232.914 281.033 233.223 281.279 233.617C281.529 234.012 281.689 234.461 281.76 234.965H280.629C280.578 234.656 280.477 234.375 280.324 234.121C280.176 233.867 279.963 233.664 279.686 233.512C279.408 233.355 279.051 233.277 278.613 233.277C278.219 233.277 277.877 233.35 277.588 233.494C277.299 233.639 277.061 233.846 276.873 234.115C276.686 234.385 276.545 234.711 276.451 235.094C276.361 235.477 276.316 235.908 276.316 236.389V237.062C276.316 237.555 276.373 237.994 276.486 238.381C276.604 238.768 276.77 239.098 276.984 239.371C277.199 239.641 277.455 239.846 277.752 239.986C278.053 240.127 278.385 240.197 278.748 240.197C279.15 240.197 279.477 240.164 279.727 240.098C279.977 240.027 280.172 239.945 280.312 239.852C280.453 239.754 280.561 239.662 280.635 239.576V237.666H278.66V236.752H281.76ZM283.184 237.9V237.766C283.184 237.309 283.25 236.885 283.383 236.494C283.516 236.1 283.707 235.758 283.957 235.469C284.207 235.176 284.51 234.949 284.865 234.789C285.221 234.625 285.619 234.543 286.061 234.543C286.506 234.543 286.906 234.625 287.262 234.789C287.621 234.949 287.926 235.176 288.176 235.469C288.43 235.758 288.623 236.1 288.756 236.494C288.889 236.885 288.955 237.309 288.955 237.766V237.9C288.955 238.357 288.889 238.781 288.756 239.172C288.623 239.562 288.43 239.904 288.176 240.197C287.926 240.486 287.623 240.713 287.268 240.877C286.916 241.037 286.518 241.117 286.072 241.117C285.627 241.117 285.227 241.037 284.871 240.877C284.516 240.713 284.211 240.486 283.957 240.197C283.707 239.904 283.516 239.562 283.383 239.172C283.25 238.781 283.184 238.357 283.184 237.9ZM284.268 237.766V237.9C284.268 238.217 284.305 238.516 284.379 238.797C284.453 239.074 284.564 239.32 284.713 239.535C284.865 239.75 285.055 239.92 285.281 240.045C285.508 240.166 285.771 240.227 286.072 240.227C286.369 240.227 286.629 240.166 286.852 240.045C287.078 239.92 287.266 239.75 287.414 239.535C287.562 239.32 287.674 239.074 287.748 238.797C287.826 238.516 287.865 238.217 287.865 237.9V237.766C287.865 237.453 287.826 237.158 287.748 236.881C287.674 236.6 287.561 236.352 287.408 236.137C287.26 235.918 287.072 235.746 286.846 235.621C286.623 235.496 286.361 235.434 286.061 235.434C285.764 235.434 285.502 235.496 285.275 235.621C285.053 235.746 284.865 235.918 284.713 236.137C284.564 236.352 284.453 236.6 284.379 236.881C284.305 237.158 284.268 237.453 284.268 237.766ZM294.311 239.77V232H295.4V241H294.404L294.311 239.77ZM290.045 237.9V237.777C290.045 237.293 290.104 236.854 290.221 236.459C290.342 236.061 290.512 235.719 290.73 235.434C290.953 235.148 291.217 234.93 291.521 234.777C291.83 234.621 292.174 234.543 292.553 234.543C292.951 234.543 293.299 234.613 293.596 234.754C293.896 234.891 294.15 235.092 294.357 235.357C294.568 235.619 294.734 235.936 294.855 236.307C294.977 236.678 295.061 237.098 295.107 237.566V238.105C295.064 238.57 294.98 238.988 294.855 239.359C294.734 239.73 294.568 240.047 294.357 240.309C294.15 240.57 293.896 240.771 293.596 240.912C293.295 241.049 292.943 241.117 292.541 241.117C292.17 241.117 291.83 241.037 291.521 240.877C291.217 240.717 290.953 240.492 290.73 240.203C290.512 239.914 290.342 239.574 290.221 239.184C290.104 238.789 290.045 238.361 290.045 237.9ZM291.135 237.777V237.9C291.135 238.217 291.166 238.514 291.229 238.791C291.295 239.068 291.396 239.312 291.533 239.523C291.67 239.734 291.844 239.9 292.055 240.021C292.266 240.139 292.518 240.197 292.811 240.197C293.17 240.197 293.465 240.121 293.695 239.969C293.93 239.816 294.117 239.615 294.258 239.365C294.398 239.115 294.508 238.844 294.586 238.551V237.139C294.539 236.924 294.471 236.717 294.381 236.518C294.295 236.314 294.182 236.135 294.041 235.979C293.904 235.818 293.734 235.691 293.531 235.598C293.332 235.504 293.096 235.457 292.822 235.457C292.525 235.457 292.27 235.52 292.055 235.645C291.844 235.766 291.67 235.934 291.533 236.148C291.396 236.359 291.295 236.605 291.229 236.887C291.166 237.164 291.135 237.461 291.135 237.777ZM298.178 232V241H297.088V232H298.178ZM302.051 234.66L299.285 237.619L297.738 239.225L297.65 238.07L298.758 236.746L300.727 234.66H302.051ZM301.061 241L298.799 237.977L299.361 237.01L302.338 241H301.061ZM303.199 234.66H304.289V241.756C304.289 242.143 304.227 242.471 304.102 242.74C303.98 243.01 303.797 243.213 303.551 243.35C303.309 243.49 303.002 243.561 302.631 243.561C302.533 243.561 302.42 243.551 302.291 243.531C302.158 243.512 302.047 243.488 301.957 243.461L301.963 242.588C302.037 242.604 302.121 242.615 302.215 242.623C302.309 242.635 302.391 242.641 302.461 242.641C302.621 242.641 302.756 242.611 302.865 242.553C302.975 242.494 303.057 242.4 303.111 242.271C303.17 242.143 303.199 241.971 303.199 241.756V234.66ZM303.088 232.979C303.088 232.803 303.143 232.654 303.252 232.533C303.361 232.412 303.52 232.352 303.727 232.352C303.938 232.352 304.098 232.412 304.207 232.533C304.316 232.654 304.371 232.803 304.371 232.979C304.371 233.146 304.316 233.291 304.207 233.412C304.098 233.529 303.938 233.588 303.727 233.588C303.52 233.588 303.361 233.529 303.252 233.412C303.143 233.291 303.088 233.146 303.088 232.979ZM308.672 241.117C308.23 241.117 307.83 241.043 307.471 240.895C307.115 240.742 306.809 240.529 306.551 240.256C306.297 239.982 306.102 239.658 305.965 239.283C305.828 238.908 305.76 238.498 305.76 238.053V237.807C305.76 237.291 305.836 236.832 305.988 236.43C306.141 236.023 306.348 235.68 306.609 235.398C306.871 235.117 307.168 234.904 307.5 234.76C307.832 234.615 308.176 234.543 308.531 234.543C308.984 234.543 309.375 234.621 309.703 234.777C310.035 234.934 310.307 235.152 310.518 235.434C310.729 235.711 310.885 236.039 310.986 236.418C311.088 236.793 311.139 237.203 311.139 237.648V238.135H306.404V237.25H310.055V237.168C310.039 236.887 309.98 236.613 309.879 236.348C309.781 236.082 309.625 235.863 309.41 235.691C309.195 235.52 308.902 235.434 308.531 235.434C308.285 235.434 308.059 235.486 307.852 235.592C307.645 235.693 307.467 235.846 307.318 236.049C307.17 236.252 307.055 236.5 306.973 236.793C306.891 237.086 306.85 237.424 306.85 237.807V238.053C306.85 238.354 306.891 238.637 306.973 238.902C307.059 239.164 307.182 239.395 307.342 239.594C307.506 239.793 307.703 239.949 307.934 240.062C308.168 240.176 308.434 240.232 308.73 240.232C309.113 240.232 309.438 240.154 309.703 239.998C309.969 239.842 310.201 239.633 310.4 239.371L311.057 239.893C310.92 240.1 310.746 240.297 310.535 240.484C310.324 240.672 310.064 240.824 309.756 240.941C309.451 241.059 309.09 241.117 308.672 241.117ZM313.488 236.014V241H312.404V234.66H313.43L313.488 236.014ZM313.23 237.59L312.779 237.572C312.783 237.139 312.848 236.738 312.973 236.371C313.098 236 313.273 235.678 313.5 235.404C313.727 235.131 313.996 234.92 314.309 234.771C314.625 234.619 314.975 234.543 315.357 234.543C315.67 234.543 315.951 234.586 316.201 234.672C316.451 234.754 316.664 234.887 316.84 235.07C317.02 235.254 317.156 235.492 317.25 235.785C317.344 236.074 317.391 236.428 317.391 236.846V241H316.301V236.834C316.301 236.502 316.252 236.236 316.154 236.037C316.057 235.834 315.914 235.688 315.727 235.598C315.539 235.504 315.309 235.457 315.035 235.457C314.766 235.457 314.52 235.514 314.297 235.627C314.078 235.74 313.889 235.896 313.729 236.096C313.572 236.295 313.449 236.523 313.359 236.781C313.273 237.035 313.23 237.305 313.23 237.59ZM320.121 236.014V241H319.037V234.66H320.062L320.121 236.014ZM319.863 237.59L319.412 237.572C319.416 237.139 319.48 236.738 319.605 236.371C319.73 236 319.906 235.678 320.133 235.404C320.359 235.131 320.629 234.92 320.941 234.771C321.258 234.619 321.607 234.543 321.99 234.543C322.303 234.543 322.584 234.586 322.834 234.672C323.084 234.754 323.297 234.887 323.473 235.07C323.652 235.254 323.789 235.492 323.883 235.785C323.977 236.074 324.023 236.428 324.023 236.846V241H322.934V236.834C322.934 236.502 322.885 236.236 322.787 236.037C322.689 235.834 322.547 235.688 322.359 235.598C322.172 235.504 321.941 235.457 321.668 235.457C321.398 235.457 321.152 235.514 320.93 235.627C320.711 235.74 320.521 235.896 320.361 236.096C320.205 236.295 320.082 236.523 319.992 236.781C319.906 237.035 319.863 237.305 319.863 237.59ZM326.848 234.66V241H325.758V234.66H326.848ZM325.676 232.979C325.676 232.803 325.729 232.654 325.834 232.533C325.943 232.412 326.104 232.352 326.314 232.352C326.521 232.352 326.68 232.412 326.789 232.533C326.902 232.654 326.959 232.803 326.959 232.979C326.959 233.146 326.902 233.291 326.789 233.412C326.68 233.529 326.521 233.588 326.314 233.588C326.104 233.588 325.943 233.529 325.834 233.412C325.729 233.291 325.676 233.146 325.676 232.979ZM329.672 236.014V241H328.588V234.66H329.613L329.672 236.014ZM329.414 237.59L328.963 237.572C328.967 237.139 329.031 236.738 329.156 236.371C329.281 236 329.457 235.678 329.684 235.404C329.91 235.131 330.18 234.92 330.492 234.771C330.809 234.619 331.158 234.543 331.541 234.543C331.854 234.543 332.135 234.586 332.385 234.672C332.635 234.754 332.848 234.887 333.023 235.07C333.203 235.254 333.34 235.492 333.434 235.785C333.527 236.074 333.574 236.428 333.574 236.846V241H332.484V236.834C332.484 236.502 332.436 236.236 332.338 236.037C332.24 235.834 332.098 235.688 331.91 235.598C331.723 235.504 331.492 235.457 331.219 235.457C330.949 235.457 330.703 235.514 330.48 235.627C330.262 235.74 330.072 235.896 329.912 236.096C329.756 236.295 329.633 236.523 329.543 236.781C329.457 237.035 329.414 237.305 329.414 237.59ZM339.328 234.66H340.312V240.865C340.312 241.424 340.199 241.9 339.973 242.295C339.746 242.689 339.43 242.988 339.023 243.191C338.621 243.398 338.156 243.502 337.629 243.502C337.41 243.502 337.152 243.467 336.855 243.396C336.562 243.33 336.273 243.215 335.988 243.051C335.707 242.891 335.471 242.674 335.279 242.4L335.848 241.756C336.113 242.076 336.391 242.299 336.68 242.424C336.973 242.549 337.262 242.611 337.547 242.611C337.891 242.611 338.188 242.547 338.438 242.418C338.688 242.289 338.881 242.098 339.018 241.844C339.158 241.594 339.229 241.285 339.229 240.918V236.055L339.328 234.66ZM334.963 237.9V237.777C334.963 237.293 335.02 236.854 335.133 236.459C335.25 236.061 335.416 235.719 335.631 235.434C335.85 235.148 336.113 234.93 336.422 234.777C336.73 234.621 337.078 234.543 337.465 234.543C337.863 234.543 338.211 234.613 338.508 234.754C338.809 234.891 339.062 235.092 339.27 235.357C339.48 235.619 339.646 235.936 339.768 236.307C339.889 236.678 339.973 237.098 340.02 237.566V238.105C339.977 238.57 339.893 238.988 339.768 239.359C339.646 239.73 339.48 240.047 339.27 240.309C339.062 240.57 338.809 240.771 338.508 240.912C338.207 241.049 337.855 241.117 337.453 241.117C337.074 241.117 336.73 241.037 336.422 240.877C336.117 240.717 335.855 240.492 335.637 240.203C335.418 239.914 335.25 239.574 335.133 239.184C335.02 238.789 334.963 238.361 334.963 237.9ZM336.047 237.777V237.9C336.047 238.217 336.078 238.514 336.141 238.791C336.207 239.068 336.307 239.312 336.439 239.523C336.576 239.734 336.75 239.9 336.961 240.021C337.172 240.139 337.424 240.197 337.717 240.197C338.076 240.197 338.373 240.121 338.607 239.969C338.842 239.816 339.027 239.615 339.164 239.365C339.305 239.115 339.414 238.844 339.492 238.551V237.139C339.449 236.924 339.383 236.717 339.293 236.518C339.207 236.314 339.094 236.135 338.953 235.979C338.816 235.818 338.646 235.691 338.443 235.598C338.24 235.504 338.002 235.457 337.729 235.457C337.432 235.457 337.176 235.52 336.961 235.645C336.75 235.766 336.576 235.934 336.439 236.148C336.307 236.359 336.207 236.605 336.141 236.887C336.078 237.164 336.047 237.461 336.047 237.777ZM345.65 239.318C345.65 239.162 345.615 239.018 345.545 238.885C345.479 238.748 345.34 238.625 345.129 238.516C344.922 238.402 344.609 238.305 344.191 238.223C343.84 238.148 343.521 238.061 343.236 237.959C342.955 237.857 342.715 237.734 342.516 237.59C342.32 237.445 342.17 237.275 342.064 237.08C341.959 236.885 341.906 236.656 341.906 236.395C341.906 236.145 341.961 235.908 342.07 235.686C342.184 235.463 342.342 235.266 342.545 235.094C342.752 234.922 343 234.787 343.289 234.689C343.578 234.592 343.9 234.543 344.256 234.543C344.764 234.543 345.197 234.633 345.557 234.812C345.916 234.992 346.191 235.232 346.383 235.533C346.574 235.83 346.67 236.16 346.67 236.523H345.586C345.586 236.348 345.533 236.178 345.428 236.014C345.326 235.846 345.176 235.707 344.977 235.598C344.781 235.488 344.541 235.434 344.256 235.434C343.955 235.434 343.711 235.48 343.523 235.574C343.34 235.664 343.205 235.779 343.119 235.92C343.037 236.061 342.996 236.209 342.996 236.365C342.996 236.482 343.016 236.588 343.055 236.682C343.098 236.771 343.172 236.855 343.277 236.934C343.383 237.008 343.531 237.078 343.723 237.145C343.914 237.211 344.158 237.277 344.455 237.344C344.975 237.461 345.402 237.602 345.738 237.766C346.074 237.93 346.324 238.131 346.488 238.369C346.652 238.607 346.734 238.896 346.734 239.236C346.734 239.514 346.676 239.768 346.559 239.998C346.445 240.229 346.279 240.428 346.061 240.596C345.846 240.76 345.588 240.889 345.287 240.982C344.99 241.072 344.656 241.117 344.285 241.117C343.727 241.117 343.254 241.018 342.867 240.818C342.48 240.619 342.188 240.361 341.988 240.045C341.789 239.729 341.689 239.395 341.689 239.043H342.779C342.795 239.34 342.881 239.576 343.037 239.752C343.193 239.924 343.385 240.047 343.611 240.121C343.838 240.191 344.062 240.227 344.285 240.227C344.582 240.227 344.83 240.188 345.029 240.109C345.232 240.031 345.387 239.924 345.492 239.787C345.598 239.65 345.65 239.494 345.65 239.318ZM352.154 239.77V232H353.244V241H352.248L352.154 239.77ZM347.889 237.9V237.777C347.889 237.293 347.947 236.854 348.064 236.459C348.186 236.061 348.355 235.719 348.574 235.434C348.797 235.148 349.061 234.93 349.365 234.777C349.674 234.621 350.018 234.543 350.396 234.543C350.795 234.543 351.143 234.613 351.439 234.754C351.74 234.891 351.994 235.092 352.201 235.357C352.412 235.619 352.578 235.936 352.699 236.307C352.82 236.678 352.904 237.098 352.951 237.566V238.105C352.908 238.57 352.824 238.988 352.699 239.359C352.578 239.73 352.412 240.047 352.201 240.309C351.994 240.57 351.74 240.771 351.439 240.912C351.139 241.049 350.787 241.117 350.385 241.117C350.014 241.117 349.674 241.037 349.365 240.877C349.061 240.717 348.797 240.492 348.574 240.203C348.355 239.914 348.186 239.574 348.064 239.184C347.947 238.789 347.889 238.361 347.889 237.9ZM348.979 237.777V237.9C348.979 238.217 349.01 238.514 349.072 238.791C349.139 239.068 349.24 239.312 349.377 239.523C349.514 239.734 349.688 239.9 349.898 240.021C350.109 240.139 350.361 240.197 350.654 240.197C351.014 240.197 351.309 240.121 351.539 239.969C351.773 239.816 351.961 239.615 352.102 239.365C352.242 239.115 352.352 238.844 352.43 238.551V237.139C352.383 236.924 352.314 236.717 352.225 236.518C352.139 236.314 352.025 236.135 351.885 235.979C351.748 235.818 351.578 235.691 351.375 235.598C351.176 235.504 350.939 235.457 350.666 235.457C350.369 235.457 350.113 235.52 349.898 235.645C349.688 235.766 349.514 235.934 349.377 236.148C349.24 236.359 349.139 236.605 349.072 236.887C349.01 237.164 348.979 237.461 348.979 237.777ZM358.67 239.916V236.652C358.67 236.402 358.619 236.186 358.518 236.002C358.42 235.814 358.271 235.67 358.072 235.568C357.873 235.467 357.627 235.416 357.334 235.416C357.061 235.416 356.82 235.463 356.613 235.557C356.41 235.65 356.25 235.773 356.133 235.926C356.02 236.078 355.963 236.242 355.963 236.418H354.879C354.879 236.191 354.938 235.967 355.055 235.744C355.172 235.521 355.34 235.32 355.559 235.141C355.781 234.957 356.047 234.812 356.355 234.707C356.668 234.598 357.016 234.543 357.398 234.543C357.859 234.543 358.266 234.621 358.617 234.777C358.973 234.934 359.25 235.17 359.449 235.486C359.652 235.799 359.754 236.191 359.754 236.664V239.617C359.754 239.828 359.771 240.053 359.807 240.291C359.846 240.529 359.902 240.734 359.977 240.906V241H358.846C358.791 240.875 358.748 240.709 358.717 240.502C358.686 240.291 358.67 240.096 358.67 239.916ZM358.857 237.156L358.869 237.918H357.773C357.465 237.918 357.189 237.943 356.947 237.994C356.705 238.041 356.502 238.113 356.338 238.211C356.174 238.309 356.049 238.432 355.963 238.58C355.877 238.725 355.834 238.895 355.834 239.09C355.834 239.289 355.879 239.471 355.969 239.635C356.059 239.799 356.193 239.93 356.373 240.027C356.557 240.121 356.781 240.168 357.047 240.168C357.379 240.168 357.672 240.098 357.926 239.957C358.18 239.816 358.381 239.645 358.529 239.441C358.682 239.238 358.764 239.041 358.775 238.85L359.238 239.371C359.211 239.535 359.137 239.717 359.016 239.916C358.895 240.115 358.732 240.307 358.529 240.49C358.33 240.67 358.092 240.82 357.814 240.941C357.541 241.059 357.232 241.117 356.889 241.117C356.459 241.117 356.082 241.033 355.758 240.865C355.438 240.697 355.188 240.473 355.008 240.191C354.832 239.906 354.744 239.588 354.744 239.236C354.744 238.896 354.811 238.598 354.943 238.34C355.076 238.078 355.268 237.861 355.518 237.689C355.768 237.514 356.068 237.381 356.42 237.291C356.771 237.201 357.164 237.156 357.598 237.156H358.857ZM364.113 234.66V235.492H360.686V234.66H364.113ZM361.846 233.119H362.93V239.43C362.93 239.645 362.963 239.807 363.029 239.916C363.096 240.025 363.182 240.098 363.287 240.133C363.393 240.168 363.506 240.186 363.627 240.186C363.717 240.186 363.811 240.178 363.908 240.162C364.01 240.143 364.086 240.127 364.137 240.115L364.143 241C364.057 241.027 363.943 241.053 363.803 241.076C363.666 241.104 363.5 241.117 363.305 241.117C363.039 241.117 362.795 241.064 362.572 240.959C362.35 240.854 362.172 240.678 362.039 240.432C361.91 240.182 361.846 239.846 361.846 239.424V233.119ZM364.98 237.9V237.766C364.98 237.309 365.047 236.885 365.18 236.494C365.312 236.1 365.504 235.758 365.754 235.469C366.004 235.176 366.307 234.949 366.662 234.789C367.018 234.625 367.416 234.543 367.857 234.543C368.303 234.543 368.703 234.625 369.059 234.789C369.418 234.949 369.723 235.176 369.973 235.469C370.227 235.758 370.42 236.1 370.553 236.494C370.686 236.885 370.752 237.309 370.752 237.766V237.9C370.752 238.357 370.686 238.781 370.553 239.172C370.42 239.562 370.227 239.904 369.973 240.197C369.723 240.486 369.42 240.713 369.064 240.877C368.713 241.037 368.314 241.117 367.869 241.117C367.424 241.117 367.023 241.037 366.668 240.877C366.312 240.713 366.008 240.486 365.754 240.197C365.504 239.904 365.312 239.562 365.18 239.172C365.047 238.781 364.98 238.357 364.98 237.9ZM366.064 237.766V237.9C366.064 238.217 366.102 238.516 366.176 238.797C366.25 239.074 366.361 239.32 366.51 239.535C366.662 239.75 366.852 239.92 367.078 240.045C367.305 240.166 367.568 240.227 367.869 240.227C368.166 240.227 368.426 240.166 368.648 240.045C368.875 239.92 369.062 239.75 369.211 239.535C369.359 239.32 369.471 239.074 369.545 238.797C369.623 238.516 369.662 238.217 369.662 237.9V237.766C369.662 237.453 369.623 237.158 369.545 236.881C369.471 236.6 369.357 236.352 369.205 236.137C369.057 235.918 368.869 235.746 368.643 235.621C368.42 235.496 368.158 235.434 367.857 235.434C367.561 235.434 367.299 235.496 367.072 235.621C366.85 235.746 366.662 235.918 366.51 236.137C366.361 236.352 366.25 236.6 366.176 236.881C366.102 237.158 366.064 237.453 366.064 237.766Z" fill="black"/>
<path d="M232.307 121.59V121.531C232.307 120.68 232.402 119.91 232.594 119.223C232.785 118.531 233.029 117.926 233.326 117.406C233.623 116.887 233.936 116.457 234.264 116.117C234.592 115.773 234.895 115.525 235.172 115.373L235.4 116.088C235.17 116.264 234.936 116.506 234.697 116.814C234.463 117.123 234.246 117.502 234.047 117.951C233.852 118.4 233.693 118.922 233.572 119.516C233.451 120.109 233.391 120.777 233.391 121.52V121.602C233.391 122.344 233.451 123.014 233.572 123.611C233.693 124.205 233.852 124.729 234.047 125.182C234.246 125.635 234.463 126.02 234.697 126.336C234.936 126.656 235.17 126.91 235.4 127.098L235.172 127.754C234.895 127.602 234.592 127.354 234.264 127.01C233.936 126.67 233.623 126.24 233.326 125.721C233.029 125.205 232.785 124.602 232.594 123.91C232.402 123.219 232.307 122.445 232.307 121.59ZM241.699 120.055V121.355C241.699 122.055 241.637 122.645 241.512 123.125C241.387 123.605 241.207 123.992 240.973 124.285C240.738 124.578 240.455 124.791 240.123 124.924C239.795 125.053 239.424 125.117 239.01 125.117C238.682 125.117 238.379 125.076 238.102 124.994C237.824 124.912 237.574 124.781 237.352 124.602C237.133 124.418 236.945 124.18 236.789 123.887C236.633 123.594 236.514 123.238 236.432 122.82C236.35 122.402 236.309 121.914 236.309 121.355V120.055C236.309 119.355 236.371 118.77 236.496 118.297C236.625 117.824 236.807 117.445 237.041 117.16C237.275 116.871 237.557 116.664 237.885 116.539C238.217 116.414 238.588 116.352 238.998 116.352C239.33 116.352 239.635 116.393 239.912 116.475C240.193 116.553 240.443 116.68 240.662 116.855C240.881 117.027 241.066 117.258 241.219 117.547C241.375 117.832 241.494 118.182 241.576 118.596C241.658 119.01 241.699 119.496 241.699 120.055ZM240.609 121.531V119.873C240.609 119.49 240.586 119.154 240.539 118.865C240.496 118.572 240.432 118.322 240.346 118.115C240.26 117.908 240.15 117.74 240.018 117.611C239.889 117.482 239.738 117.389 239.566 117.33C239.398 117.268 239.209 117.236 238.998 117.236C238.74 117.236 238.512 117.285 238.312 117.383C238.113 117.477 237.945 117.627 237.809 117.834C237.676 118.041 237.574 118.312 237.504 118.648C237.434 118.984 237.398 119.393 237.398 119.873V121.531C237.398 121.914 237.42 122.252 237.463 122.545C237.51 122.838 237.578 123.092 237.668 123.307C237.758 123.518 237.867 123.691 237.996 123.828C238.125 123.965 238.273 124.066 238.441 124.133C238.613 124.195 238.803 124.227 239.01 124.227C239.275 124.227 239.508 124.176 239.707 124.074C239.906 123.973 240.072 123.814 240.205 123.6C240.342 123.381 240.443 123.102 240.51 122.762C240.576 122.418 240.609 122.008 240.609 121.531ZM244.195 123.711V124.584C244.195 124.939 244.105 125.314 243.926 125.709C243.746 126.107 243.494 126.439 243.17 126.705L242.555 126.277C242.68 126.105 242.785 125.93 242.871 125.75C242.957 125.574 243.021 125.391 243.064 125.199C243.111 125.012 243.135 124.812 243.135 124.602V123.711H244.195ZM255.281 116.469V125H254.145L249.85 118.42V125H248.719V116.469H249.85L254.162 123.066V116.469H255.281ZM259.617 121.531V121.59C259.617 122.445 259.521 123.219 259.33 123.91C259.139 124.602 258.895 125.205 258.598 125.721C258.301 126.24 257.988 126.67 257.66 127.01C257.332 127.354 257.029 127.602 256.752 127.754L256.523 127.098C256.754 126.922 256.986 126.676 257.221 126.359C257.455 126.047 257.672 125.66 257.871 125.199C258.07 124.742 258.23 124.215 258.352 123.617C258.473 123.016 258.533 122.344 258.533 121.602V121.52C258.533 120.777 258.469 120.107 258.34 119.51C258.211 118.908 258.043 118.379 257.836 117.922C257.633 117.465 257.414 117.08 257.18 116.768C256.949 116.451 256.73 116.207 256.523 116.035L256.752 115.373C257.029 115.525 257.332 115.773 257.66 116.117C257.988 116.457 258.301 116.887 258.598 117.406C258.895 117.926 259.139 118.531 259.33 119.223C259.521 119.91 259.617 120.68 259.617 121.531Z" fill="black"/>
<path d="M383.307 121.59V121.531C383.307 120.68 383.402 119.91 383.594 119.223C383.785 118.531 384.029 117.926 384.326 117.406C384.623 116.887 384.936 116.457 385.264 116.117C385.592 115.773 385.895 115.525 386.172 115.373L386.4 116.088C386.17 116.264 385.936 116.506 385.697 116.814C385.463 117.123 385.246 117.502 385.047 117.951C384.852 118.4 384.693 118.922 384.572 119.516C384.451 120.109 384.391 120.777 384.391 121.52V121.602C384.391 122.344 384.451 123.014 384.572 123.611C384.693 124.205 384.852 124.729 385.047 125.182C385.246 125.635 385.463 126.02 385.697 126.336C385.936 126.656 386.17 126.91 386.4 127.098L386.172 127.754C385.895 127.602 385.592 127.354 385.264 127.01C384.936 126.67 384.623 126.24 384.326 125.721C384.029 125.205 383.785 124.602 383.594 123.91C383.402 123.219 383.307 122.445 383.307 121.59ZM392.699 120.055V121.355C392.699 122.055 392.637 122.645 392.512 123.125C392.387 123.605 392.207 123.992 391.973 124.285C391.738 124.578 391.455 124.791 391.123 124.924C390.795 125.053 390.424 125.117 390.01 125.117C389.682 125.117 389.379 125.076 389.102 124.994C388.824 124.912 388.574 124.781 388.352 124.602C388.133 124.418 387.945 124.18 387.789 123.887C387.633 123.594 387.514 123.238 387.432 122.82C387.35 122.402 387.309 121.914 387.309 121.355V120.055C387.309 119.355 387.371 118.77 387.496 118.297C387.625 117.824 387.807 117.445 388.041 117.16C388.275 116.871 388.557 116.664 388.885 116.539C389.217 116.414 389.588 116.352 389.998 116.352C390.33 116.352 390.635 116.393 390.912 116.475C391.193 116.553 391.443 116.68 391.662 116.855C391.881 117.027 392.066 117.258 392.219 117.547C392.375 117.832 392.494 118.182 392.576 118.596C392.658 119.01 392.699 119.496 392.699 120.055ZM391.609 121.531V119.873C391.609 119.49 391.586 119.154 391.539 118.865C391.496 118.572 391.432 118.322 391.346 118.115C391.26 117.908 391.15 117.74 391.018 117.611C390.889 117.482 390.738 117.389 390.566 117.33C390.398 117.268 390.209 117.236 389.998 117.236C389.74 117.236 389.512 117.285 389.312 117.383C389.113 117.477 388.945 117.627 388.809 117.834C388.676 118.041 388.574 118.312 388.504 118.648C388.434 118.984 388.398 119.393 388.398 119.873V121.531C388.398 121.914 388.42 122.252 388.463 122.545C388.51 122.838 388.578 123.092 388.668 123.307C388.758 123.518 388.867 123.691 388.996 123.828C389.125 123.965 389.273 124.066 389.441 124.133C389.613 124.195 389.803 124.227 390.01 124.227C390.275 124.227 390.508 124.176 390.707 124.074C390.906 123.973 391.072 123.814 391.205 123.6C391.342 123.381 391.443 123.102 391.51 122.762C391.576 122.418 391.609 122.008 391.609 121.531ZM395.195 123.711V124.584C395.195 124.939 395.105 125.314 394.926 125.709C394.746 126.107 394.494 126.439 394.17 126.705L393.555 126.277C393.68 126.105 393.785 125.93 393.871 125.75C393.957 125.574 394.021 125.391 394.064 125.199C394.111 125.012 394.135 124.812 394.135 124.602V123.711H395.195ZM406.281 116.469V125H405.145L400.85 118.42V125H399.719V116.469H400.85L405.162 123.066V116.469H406.281ZM410.617 121.531V121.59C410.617 122.445 410.521 123.219 410.33 123.91C410.139 124.602 409.895 125.205 409.598 125.721C409.301 126.24 408.988 126.67 408.66 127.01C408.332 127.354 408.029 127.602 407.752 127.754L407.523 127.098C407.754 126.922 407.986 126.676 408.221 126.359C408.455 126.047 408.672 125.66 408.871 125.199C409.07 124.742 409.23 124.215 409.352 123.617C409.473 123.016 409.533 122.344 409.533 121.602V121.52C409.533 120.777 409.469 120.107 409.34 119.51C409.211 118.908 409.043 118.379 408.836 117.922C408.633 117.465 408.414 117.08 408.18 116.768C407.949 116.451 407.73 116.207 407.523 116.035L407.752 115.373C408.029 115.525 408.332 115.773 408.66 116.117C408.988 116.457 409.301 116.887 409.598 117.406C409.895 117.926 410.139 118.531 410.33 119.223C410.521 119.91 410.617 120.68 410.617 121.531Z" fill="black"/>
</svg>
