<svg width="510" height="358" viewBox="0 0 510 358" fill="none" xmlns="http://www.w3.org/2000/svg">
<path d="M161.5 65L26 135.5L161.5 229.5" stroke="#7B61FF"/>
<path d="M162 66L26 165.5L162 260.5" stroke="#7B61FF"/>
<path d="M162 66L26 196.5L162 290.5" stroke="#7B61FF"/>
<path d="M297.5 65.5L161.5 229.5L297.5 95.5M297.5 65.5L433.5 128M297.5 65.5H161.5L297.5 95.5M297.5 95.5L433.5 158" stroke="#FF007A"/>
<path d="M162 260.5L297.5 126M297.5 126L434.5 129M297.5 126L162 65.5M162 290L297.5 156M297.5 156L162 96M297.5 156L434.5 188" stroke="#FF007A"/>
<path d="M434 128.5L297.5 290.5L161.5 229.5L297.5 320.5L434 157.5" stroke="#0066FF"/>
<path d="M288.99 36.752V39.875C288.885 40.0312 288.717 40.207 288.487 40.4023C288.256 40.5938 287.938 40.7617 287.531 40.9062C287.129 41.0469 286.61 41.1172 285.973 41.1172C285.453 41.1172 284.975 41.0273 284.537 40.8477C284.104 40.6641 283.727 40.3984 283.406 40.0508C283.09 39.6992 282.844 39.2734 282.668 38.7734C282.496 38.2695 282.41 37.6992 282.41 37.0625V36.4004C282.41 35.7637 282.485 35.1953 282.633 34.6953C282.785 34.1953 283.008 33.7715 283.301 33.4238C283.594 33.0723 283.953 32.8066 284.379 32.627C284.805 32.4434 285.293 32.3516 285.844 32.3516C286.496 32.3516 287.041 32.4648 287.479 32.6914C287.92 32.9141 288.264 33.2227 288.51 33.6172C288.76 34.0117 288.92 34.4609 288.99 34.9648H287.86C287.809 34.6562 287.707 34.375 287.555 34.1211C287.406 33.8672 287.194 33.6641 286.916 33.5117C286.639 33.3555 286.281 33.2773 285.844 33.2773C285.449 33.2773 285.108 33.3496 284.819 33.4941C284.53 33.6387 284.291 33.8457 284.104 34.1152C283.916 34.3848 283.776 34.7109 283.682 35.0938C283.592 35.4766 283.547 35.9082 283.547 36.3887V37.0625C283.547 37.5547 283.604 37.9941 283.717 38.3809C283.834 38.7676 284 39.0977 284.215 39.3711C284.43 39.6406 284.686 39.8457 284.983 39.9863C285.283 40.127 285.615 40.1973 285.979 40.1973C286.381 40.1973 286.707 40.1641 286.957 40.0977C287.207 40.0273 287.403 39.9453 287.543 39.8516C287.684 39.7539 287.791 39.6621 287.865 39.5762V37.666H285.891V36.752H288.99ZM290.414 37.9004V37.7656C290.414 37.3086 290.481 36.8848 290.614 36.4941C290.746 36.0996 290.938 35.7578 291.188 35.4688C291.438 35.1758 291.74 34.9492 292.096 34.7891C292.451 34.625 292.85 34.543 293.291 34.543C293.737 34.543 294.137 34.625 294.492 34.7891C294.852 34.9492 295.156 35.1758 295.406 35.4688C295.66 35.7578 295.854 36.0996 295.987 36.4941C296.119 36.8848 296.186 37.3086 296.186 37.7656V37.9004C296.186 38.3574 296.119 38.7812 295.987 39.1719C295.854 39.5625 295.66 39.9043 295.406 40.1973C295.156 40.4863 294.854 40.7129 294.498 40.877C294.147 41.0371 293.748 41.1172 293.303 41.1172C292.858 41.1172 292.457 41.0371 292.102 40.877C291.746 40.7129 291.442 40.4863 291.188 40.1973C290.938 39.9043 290.746 39.5625 290.614 39.1719C290.481 38.7812 290.414 38.3574 290.414 37.9004ZM291.498 37.7656V37.9004C291.498 38.2168 291.535 38.5156 291.61 38.7969C291.684 39.0742 291.795 39.3203 291.944 39.5352C292.096 39.75 292.285 39.9199 292.512 40.0449C292.739 40.166 293.002 40.2266 293.303 40.2266C293.6 40.2266 293.86 40.166 294.082 40.0449C294.309 39.9199 294.496 39.75 294.645 39.5352C294.793 39.3203 294.905 39.0742 294.979 38.7969C295.057 38.5156 295.096 38.2168 295.096 37.9004V37.7656C295.096 37.4531 295.057 37.1582 294.979 36.8809C294.905 36.5996 294.791 36.3516 294.639 36.1367C294.49 35.918 294.303 35.7461 294.076 35.6211C293.854 35.4961 293.592 35.4336 293.291 35.4336C292.994 35.4336 292.733 35.4961 292.506 35.6211C292.283 35.7461 292.096 35.918 291.944 36.1367C291.795 36.3516 291.684 36.5996 291.61 36.8809C291.535 37.1582 291.498 37.4531 291.498 37.7656ZM301.541 39.7695V32H302.631V41H301.635L301.541 39.7695ZM297.276 37.9004V37.7773C297.276 37.293 297.334 36.8535 297.451 36.459C297.573 36.0605 297.742 35.7188 297.961 35.4336C298.184 35.1484 298.448 34.9297 298.752 34.7773C299.061 34.6211 299.405 34.543 299.783 34.543C300.182 34.543 300.53 34.6133 300.826 34.7539C301.127 34.8906 301.381 35.0918 301.588 35.3574C301.799 35.6191 301.965 35.9355 302.086 36.3066C302.207 36.6777 302.291 37.0977 302.338 37.5664V38.1055C302.295 38.5703 302.211 38.9883 302.086 39.3594C301.965 39.7305 301.799 40.0469 301.588 40.3086C301.381 40.5703 301.127 40.7715 300.826 40.9121C300.526 41.0488 300.174 41.1172 299.772 41.1172C299.401 41.1172 299.061 41.0371 298.752 40.877C298.448 40.7168 298.184 40.4922 297.961 40.2031C297.742 39.9141 297.573 39.5742 297.451 39.1836C297.334 38.7891 297.276 38.3613 297.276 37.9004ZM298.365 37.7773V37.9004C298.365 38.2168 298.397 38.5137 298.459 38.791C298.526 39.0684 298.627 39.3125 298.764 39.5234C298.901 39.7344 299.074 39.9004 299.285 40.0215C299.496 40.1387 299.748 40.1973 300.041 40.1973C300.401 40.1973 300.696 40.1211 300.926 39.9688C301.16 39.8164 301.348 39.6152 301.489 39.3652C301.629 39.1152 301.739 38.8438 301.817 38.5508V37.1387C301.77 36.9238 301.701 36.7168 301.612 36.5176C301.526 36.3145 301.412 36.1348 301.272 35.9785C301.135 35.8184 300.965 35.6914 300.762 35.5977C300.563 35.5039 300.326 35.457 300.053 35.457C299.756 35.457 299.5 35.5195 299.285 35.6445C299.074 35.7656 298.901 35.9336 298.764 36.1484C298.627 36.3594 298.526 36.6055 298.459 36.8867C298.397 37.1641 298.365 37.4609 298.365 37.7773ZM305.408 32V41H304.319V32H305.408ZM309.281 34.6602L306.516 37.6191L304.969 39.2246L304.881 38.0703L305.989 36.7461L307.957 34.6602H309.281ZM308.291 41L306.03 37.9766L306.592 37.0098L309.569 41H308.291ZM310.43 34.6602H311.52V41.7559C311.52 42.1426 311.457 42.4707 311.332 42.7402C311.211 43.0098 311.028 43.2129 310.781 43.3496C310.539 43.4902 310.233 43.5605 309.862 43.5605C309.764 43.5605 309.651 43.5508 309.522 43.5312C309.389 43.5117 309.278 43.4883 309.188 43.4609L309.194 42.5879C309.268 42.6035 309.352 42.6152 309.446 42.623C309.539 42.6348 309.621 42.6406 309.692 42.6406C309.852 42.6406 309.987 42.6113 310.096 42.5527C310.205 42.4941 310.287 42.4004 310.342 42.2715C310.401 42.1426 310.43 41.9707 310.43 41.7559V34.6602ZM310.319 32.9785C310.319 32.8027 310.373 32.6543 310.483 32.5332C310.592 32.4121 310.75 32.3516 310.957 32.3516C311.168 32.3516 311.328 32.4121 311.438 32.5332C311.547 32.6543 311.602 32.8027 311.602 32.9785C311.602 33.1465 311.547 33.291 311.438 33.4121C311.328 33.5293 311.168 33.5879 310.957 33.5879C310.75 33.5879 310.592 33.5293 310.483 33.4121C310.373 33.291 310.319 33.1465 310.319 32.9785ZM315.903 41.1172C315.461 41.1172 315.061 41.043 314.701 40.8945C314.346 40.7422 314.039 40.5293 313.781 40.2559C313.528 39.9824 313.332 39.6582 313.196 39.2832C313.059 38.9082 312.99 38.498 312.99 38.0527V37.8066C312.99 37.291 313.067 36.832 313.219 36.4297C313.371 36.0234 313.578 35.6797 313.84 35.3984C314.102 35.1172 314.399 34.9043 314.731 34.7598C315.063 34.6152 315.406 34.543 315.762 34.543C316.215 34.543 316.606 34.6211 316.934 34.7773C317.266 34.9336 317.537 35.1523 317.748 35.4336C317.959 35.7109 318.115 36.0391 318.217 36.418C318.319 36.793 318.369 37.2031 318.369 37.6484V38.1348H313.635V37.25H317.285V37.168C317.27 36.8867 317.211 36.6133 317.11 36.3477C317.012 36.082 316.856 35.8633 316.641 35.6914C316.426 35.5195 316.133 35.4336 315.762 35.4336C315.516 35.4336 315.289 35.4863 315.082 35.5918C314.875 35.6934 314.698 35.8457 314.549 36.0488C314.401 36.252 314.285 36.5 314.203 36.793C314.121 37.0859 314.08 37.4238 314.08 37.8066V38.0527C314.08 38.3535 314.121 38.6367 314.203 38.9023C314.289 39.1641 314.412 39.3945 314.573 39.5938C314.737 39.793 314.934 39.9492 315.164 40.0625C315.399 40.1758 315.664 40.2324 315.961 40.2324C316.344 40.2324 316.668 40.1543 316.934 39.998C317.199 39.8418 317.432 39.6328 317.631 39.3711L318.287 39.8926C318.151 40.0996 317.977 40.2969 317.766 40.4844C317.555 40.6719 317.295 40.8242 316.987 40.9414C316.682 41.0586 316.321 41.1172 315.903 41.1172ZM320.719 36.0137V41H319.635V34.6602H320.66L320.719 36.0137ZM320.461 37.5898L320.01 37.5723C320.014 37.1387 320.078 36.7383 320.203 36.3711C320.328 36 320.504 35.6777 320.731 35.4043C320.957 35.1309 321.227 34.9199 321.539 34.7715C321.856 34.6191 322.205 34.543 322.588 34.543C322.901 34.543 323.182 34.5859 323.432 34.6719C323.682 34.7539 323.895 34.8867 324.071 35.0703C324.25 35.2539 324.387 35.4922 324.481 35.7852C324.574 36.0742 324.621 36.4277 324.621 36.8457V41H323.531V36.834C323.531 36.502 323.483 36.2363 323.385 36.0371C323.287 35.834 323.145 35.6875 322.957 35.5977C322.77 35.5039 322.539 35.457 322.266 35.457C321.996 35.457 321.75 35.5137 321.528 35.627C321.309 35.7402 321.119 35.8965 320.959 36.0957C320.803 36.2949 320.68 36.5234 320.59 36.7812C320.504 37.0352 320.461 37.3047 320.461 37.5898ZM327.352 36.0137V41H326.268V34.6602H327.293L327.352 36.0137ZM327.094 37.5898L326.643 37.5723C326.647 37.1387 326.711 36.7383 326.836 36.3711C326.961 36 327.137 35.6777 327.364 35.4043C327.59 35.1309 327.86 34.9199 328.172 34.7715C328.489 34.6191 328.838 34.543 329.221 34.543C329.533 34.543 329.815 34.5859 330.065 34.6719C330.315 34.7539 330.528 34.8867 330.703 35.0703C330.883 35.2539 331.02 35.4922 331.114 35.7852C331.207 36.0742 331.254 36.4277 331.254 36.8457V41H330.164V36.834C330.164 36.502 330.115 36.2363 330.018 36.0371C329.92 35.834 329.778 35.6875 329.59 35.5977C329.403 35.5039 329.172 35.457 328.899 35.457C328.629 35.457 328.383 35.5137 328.16 35.627C327.942 35.7402 327.752 35.8965 327.592 36.0957C327.436 36.2949 327.313 36.5234 327.223 36.7812C327.137 37.0352 327.094 37.3047 327.094 37.5898ZM334.078 34.6602V41H332.989V34.6602H334.078ZM332.906 32.9785C332.906 32.8027 332.959 32.6543 333.065 32.5332C333.174 32.4121 333.334 32.3516 333.545 32.3516C333.752 32.3516 333.91 32.4121 334.02 32.5332C334.133 32.6543 334.19 32.8027 334.19 32.9785C334.19 33.1465 334.133 33.291 334.02 33.4121C333.91 33.5293 333.752 33.5879 333.545 33.5879C333.334 33.5879 333.174 33.5293 333.065 33.4121C332.959 33.291 332.906 33.1465 332.906 32.9785ZM336.903 36.0137V41H335.819V34.6602H336.844L336.903 36.0137ZM336.645 37.5898L336.194 37.5723C336.198 37.1387 336.262 36.7383 336.387 36.3711C336.512 36 336.688 35.6777 336.914 35.4043C337.141 35.1309 337.41 34.9199 337.723 34.7715C338.039 34.6191 338.389 34.543 338.772 34.543C339.084 34.543 339.365 34.5859 339.615 34.6719C339.865 34.7539 340.078 34.8867 340.254 35.0703C340.434 35.2539 340.571 35.4922 340.664 35.7852C340.758 36.0742 340.805 36.4277 340.805 36.8457V41H339.715V36.834C339.715 36.502 339.666 36.2363 339.569 36.0371C339.471 35.834 339.328 35.6875 339.141 35.5977C338.953 35.5039 338.723 35.457 338.449 35.457C338.18 35.457 337.934 35.5137 337.711 35.627C337.492 35.7402 337.303 35.8965 337.143 36.0957C336.987 36.2949 336.864 36.5234 336.774 36.7812C336.688 37.0352 336.645 37.3047 336.645 37.5898ZM346.559 34.6602H347.543V40.8652C347.543 41.4238 347.43 41.9004 347.203 42.2949C346.977 42.6895 346.66 42.9883 346.254 43.1914C345.852 43.3984 345.387 43.502 344.86 43.502C344.641 43.502 344.383 43.4668 344.086 43.3965C343.793 43.3301 343.504 43.2148 343.219 43.0508C342.938 42.8906 342.701 42.6738 342.51 42.4004L343.078 41.7559C343.344 42.0762 343.621 42.2988 343.91 42.4238C344.203 42.5488 344.492 42.6113 344.778 42.6113C345.121 42.6113 345.418 42.5469 345.668 42.418C345.918 42.2891 346.112 42.0977 346.248 41.8438C346.389 41.5938 346.459 41.2852 346.459 40.918V36.0547L346.559 34.6602ZM342.194 37.9004V37.7773C342.194 37.293 342.25 36.8535 342.364 36.459C342.481 36.0605 342.647 35.7188 342.862 35.4336C343.08 35.1484 343.344 34.9297 343.653 34.7773C343.961 34.6211 344.309 34.543 344.696 34.543C345.094 34.543 345.442 34.6133 345.739 34.7539C346.039 34.8906 346.293 35.0918 346.5 35.3574C346.711 35.6191 346.877 35.9355 346.998 36.3066C347.119 36.6777 347.203 37.0977 347.25 37.5664V38.1055C347.207 38.5703 347.123 38.9883 346.998 39.3594C346.877 39.7305 346.711 40.0469 346.5 40.3086C346.293 40.5703 346.039 40.7715 345.739 40.9121C345.438 41.0488 345.086 41.1172 344.684 41.1172C344.305 41.1172 343.961 41.0371 343.653 40.877C343.348 40.7168 343.086 40.4922 342.867 40.2031C342.649 39.9141 342.481 39.5742 342.364 39.1836C342.25 38.7891 342.194 38.3613 342.194 37.9004ZM343.278 37.7773V37.9004C343.278 38.2168 343.309 38.5137 343.371 38.791C343.438 39.0684 343.537 39.3125 343.67 39.5234C343.807 39.7344 343.981 39.9004 344.192 40.0215C344.403 40.1387 344.655 40.1973 344.948 40.1973C345.307 40.1973 345.604 40.1211 345.838 39.9688C346.073 39.8164 346.258 39.6152 346.395 39.3652C346.535 39.1152 346.645 38.8438 346.723 38.5508V37.1387C346.68 36.9238 346.614 36.7168 346.524 36.5176C346.438 36.3145 346.324 36.1348 346.184 35.9785C346.047 35.8184 345.877 35.6914 345.674 35.5977C345.471 35.5039 345.233 35.457 344.959 35.457C344.662 35.457 344.406 35.5195 344.192 35.6445C343.981 35.7656 343.807 35.9336 343.67 36.1484C343.537 36.3594 343.438 36.6055 343.371 36.8867C343.309 37.1641 343.278 37.4609 343.278 37.7773Z" fill="black"/>
<rect x="295" y="63" width="6" height="6" fill="black"/>
<rect x="295" y="93" width="6" height="6" fill="black"/>
<rect x="295" y="123" width="6" height="6" fill="black"/>
<rect x="295" y="153" width="6" height="6" fill="black"/>
<path d="M293 1.5H353V0.5H293V1.5ZM372.5 21V173H373.5V21H372.5ZM353 192.5H293V193.5H353V192.5ZM273.5 173V21H272.5V173H273.5ZM293 192.5C282.23 192.5 273.5 183.77 273.5 173H272.5C272.5 184.322 281.678 193.5 293 193.5V192.5ZM372.5 173C372.5 183.77 363.77 192.5 353 192.5V193.5C364.322 193.5 373.5 184.322 373.5 173H372.5ZM353 1.5C363.77 1.5 372.5 10.2304 372.5 21H373.5C373.5 9.67816 364.322 0.5 353 0.5V1.5ZM293 0.5C281.678 0.5 272.5 9.67817 272.5 21H273.5C273.5 10.2305 282.23 1.5 293 1.5V0.5Z" fill="black"/>
<path d="M425.365 94.1172L419.494 103.545H418.656L424.545 94.1172H425.365ZM425.254 98.4648V99.0039C425.254 99.6445 425.174 100.219 425.014 100.727C424.854 101.234 424.623 101.666 424.323 102.021C424.022 102.377 423.66 102.648 423.239 102.836C422.821 103.023 422.352 103.117 421.832 103.117C421.43 103.117 421.053 103.057 420.701 102.936C420.35 102.814 420.031 102.639 419.746 102.408C419.465 102.174 419.223 101.891 419.02 101.559C418.817 101.223 418.66 100.842 418.551 100.416C418.446 99.9863 418.393 99.5156 418.393 99.0039V98.4648C418.393 97.8242 418.475 97.252 418.639 96.748C418.807 96.2402 419.043 95.8086 419.348 95.4531C419.653 95.0938 420.014 94.8203 420.432 94.6328C420.854 94.4453 421.317 94.3516 421.821 94.3516C422.235 94.3516 422.617 94.4121 422.969 94.5332C423.324 94.6543 423.643 94.832 423.924 95.0664C424.205 95.2969 424.444 95.5801 424.639 95.916C424.838 96.248 424.99 96.6289 425.096 97.0586C425.201 97.4844 425.254 97.9531 425.254 98.4648ZM424.135 99.0039V98.4531C424.135 98.0469 424.102 97.6797 424.035 97.3516C423.969 97.0195 423.871 96.7266 423.742 96.4727C423.614 96.2188 423.455 96.0059 423.268 95.834C423.08 95.6621 422.865 95.5332 422.623 95.4473C422.381 95.3574 422.114 95.3125 421.821 95.3125C421.469 95.3125 421.151 95.3809 420.865 95.5176C420.584 95.6543 420.342 95.8555 420.139 96.1211C419.94 96.3867 419.785 96.7148 419.676 97.1055C419.567 97.4961 419.512 97.9453 419.512 98.4531V99.0039C419.512 99.4141 419.547 99.7852 419.617 100.117C419.688 100.449 419.789 100.744 419.922 101.002C420.059 101.256 420.221 101.469 420.408 101.641C420.6 101.812 420.815 101.943 421.053 102.033C421.291 102.119 421.551 102.162 421.832 102.162C422.199 102.162 422.526 102.094 422.811 101.957C423.096 101.82 423.336 101.619 423.531 101.354C423.731 101.084 423.881 100.754 423.983 100.363C424.084 99.9688 424.135 99.5156 424.135 99.0039ZM428.711 102.021L430.446 96.6602H431.553L429.274 103H428.547L428.711 102.021ZM427.264 96.6602L429.051 102.051L429.174 103H428.448L426.151 96.6602H427.264ZM433.774 96.6602V103H432.684V96.6602H433.774ZM432.602 94.9785C432.602 94.8027 432.655 94.6543 432.76 94.5332C432.869 94.4121 433.03 94.3516 433.24 94.3516C433.448 94.3516 433.606 94.4121 433.715 94.5332C433.828 94.6543 433.885 94.8027 433.885 94.9785C433.885 95.1465 433.828 95.291 433.715 95.4121C433.606 95.5293 433.448 95.5879 433.24 95.5879C433.03 95.5879 432.869 95.5293 432.76 95.4121C432.655 95.291 432.602 95.1465 432.602 94.9785ZM436.598 98.0137V103H435.514V96.6602H436.539L436.598 98.0137ZM436.34 99.5898L435.889 99.5723C435.893 99.1387 435.957 98.7383 436.082 98.3711C436.207 98 436.383 97.6777 436.61 97.4043C436.836 97.1309 437.106 96.9199 437.418 96.7715C437.735 96.6191 438.084 96.543 438.467 96.543C438.78 96.543 439.061 96.5859 439.311 96.6719C439.561 96.7539 439.774 96.8867 439.949 97.0703C440.129 97.2539 440.266 97.4922 440.36 97.7852C440.453 98.0742 440.5 98.4277 440.5 98.8457V103H439.41V98.834C439.41 98.502 439.362 98.2363 439.264 98.0371C439.166 97.834 439.024 97.6875 438.836 97.5977C438.649 97.5039 438.418 97.457 438.145 97.457C437.875 97.457 437.629 97.5137 437.406 97.627C437.188 97.7402 436.998 97.8965 436.838 98.0957C436.682 98.2949 436.559 98.5234 436.469 98.7812C436.383 99.0352 436.34 99.3047 436.34 99.5898ZM446.254 96.6602H447.239V102.865C447.239 103.424 447.125 103.9 446.899 104.295C446.672 104.689 446.356 104.988 445.949 105.191C445.547 105.398 445.082 105.502 444.555 105.502C444.336 105.502 444.078 105.467 443.781 105.396C443.489 105.33 443.199 105.215 442.914 105.051C442.633 104.891 442.397 104.674 442.205 104.4L442.774 103.756C443.039 104.076 443.317 104.299 443.606 104.424C443.899 104.549 444.188 104.611 444.473 104.611C444.817 104.611 445.114 104.547 445.364 104.418C445.614 104.289 445.807 104.098 445.944 103.844C446.084 103.594 446.155 103.285 446.155 102.918V98.0547L446.254 96.6602ZM441.889 99.9004V99.7773C441.889 99.293 441.946 98.8535 442.059 98.459C442.176 98.0605 442.342 97.7188 442.557 97.4336C442.776 97.1484 443.039 96.9297 443.348 96.7773C443.656 96.6211 444.004 96.543 444.391 96.543C444.789 96.543 445.137 96.6133 445.434 96.7539C445.735 96.8906 445.989 97.0918 446.196 97.3574C446.406 97.6191 446.573 97.9355 446.694 98.3066C446.815 98.6777 446.899 99.0977 446.946 99.5664V100.105C446.903 100.57 446.819 100.988 446.694 101.359C446.573 101.73 446.406 102.047 446.196 102.309C445.989 102.57 445.735 102.771 445.434 102.912C445.133 103.049 444.781 103.117 444.379 103.117C444 103.117 443.656 103.037 443.348 102.877C443.043 102.717 442.781 102.492 442.563 102.203C442.344 101.914 442.176 101.574 442.059 101.184C441.946 100.789 441.889 100.361 441.889 99.9004ZM442.973 99.7773V99.9004C442.973 100.217 443.004 100.514 443.067 100.791C443.133 101.068 443.233 101.312 443.365 101.523C443.502 101.734 443.676 101.9 443.887 102.021C444.098 102.139 444.35 102.197 444.643 102.197C445.002 102.197 445.299 102.121 445.533 101.969C445.768 101.816 445.953 101.615 446.09 101.365C446.231 101.115 446.34 100.844 446.418 100.551V99.1387C446.375 98.9238 446.309 98.7168 446.219 98.5176C446.133 98.3145 446.02 98.1348 445.879 97.9785C445.742 97.8184 445.573 97.6914 445.369 97.5977C445.166 97.5039 444.928 97.457 444.655 97.457C444.358 97.457 444.102 97.5195 443.887 97.6445C443.676 97.7656 443.502 97.9336 443.365 98.1484C443.233 98.3594 443.133 98.6055 443.067 98.8867C443.004 99.1641 442.973 99.4609 442.973 99.7773Z" fill="black"/>
<rect x="431" y="125" width="6" height="6" rx="3" fill="black"/>
<path d="M450.76 124.916L446.875 132.791H446.154L450.039 124.916H450.76ZM445.539 128.9V128.766C445.539 128.309 445.605 127.885 445.738 127.494C445.871 127.1 446.062 126.758 446.312 126.469C446.562 126.176 446.865 125.949 447.221 125.789C447.576 125.625 447.975 125.543 448.416 125.543C448.861 125.543 449.262 125.625 449.617 125.789C449.977 125.949 450.281 126.176 450.531 126.469C450.781 126.758 450.973 127.1 451.105 127.494C451.238 127.885 451.305 128.309 451.305 128.766V128.9C451.305 129.357 451.238 129.781 451.105 130.172C450.973 130.562 450.781 130.904 450.531 131.197C450.281 131.486 449.979 131.713 449.623 131.877C449.271 132.037 448.873 132.117 448.428 132.117C447.982 132.117 447.582 132.037 447.227 131.877C446.871 131.713 446.566 131.486 446.312 131.197C446.062 130.904 445.871 130.562 445.738 130.172C445.605 129.781 445.539 129.357 445.539 128.9ZM446.623 128.766V128.9C446.623 129.217 446.66 129.516 446.734 129.797C446.809 130.074 446.92 130.32 447.068 130.535C447.221 130.75 447.41 130.92 447.637 131.045C447.863 131.166 448.127 131.227 448.428 131.227C448.725 131.227 448.984 131.166 449.207 131.045C449.434 130.92 449.621 130.75 449.77 130.535C449.918 130.32 450.029 130.074 450.104 129.797C450.182 129.516 450.221 129.217 450.221 128.9V128.766C450.221 128.453 450.182 128.158 450.104 127.881C450.029 127.6 449.916 127.352 449.764 127.137C449.615 126.918 449.428 126.746 449.201 126.621C448.979 126.496 448.717 126.434 448.416 126.434C448.119 126.434 447.857 126.496 447.631 126.621C447.408 126.746 447.221 126.918 447.068 127.137C446.92 127.352 446.809 127.6 446.734 127.881C446.66 128.158 446.623 128.453 446.623 128.766ZM454.891 127.928V128.818H452.031V127.928H454.891ZM459.396 123.422V132H458.312V124.775L456.127 125.572V124.594L459.227 123.422H459.396Z" fill="black"/>
<rect x="431" y="155" width="6" height="6" rx="3" fill="black"/>
<path d="M450.76 154.916L446.875 162.791H446.154L450.039 154.916H450.76ZM445.539 158.9V158.766C445.539 158.309 445.605 157.885 445.738 157.494C445.871 157.1 446.062 156.758 446.312 156.469C446.562 156.176 446.865 155.949 447.221 155.789C447.576 155.625 447.975 155.543 448.416 155.543C448.861 155.543 449.262 155.625 449.617 155.789C449.977 155.949 450.281 156.176 450.531 156.469C450.781 156.758 450.973 157.1 451.105 157.494C451.238 157.885 451.305 158.309 451.305 158.766V158.9C451.305 159.357 451.238 159.781 451.105 160.172C450.973 160.562 450.781 160.904 450.531 161.197C450.281 161.486 449.979 161.713 449.623 161.877C449.271 162.037 448.873 162.117 448.428 162.117C447.982 162.117 447.582 162.037 447.227 161.877C446.871 161.713 446.566 161.486 446.312 161.197C446.062 160.904 445.871 160.562 445.738 160.172C445.605 159.781 445.539 159.357 445.539 158.9ZM446.623 158.766V158.9C446.623 159.217 446.66 159.516 446.734 159.797C446.809 160.074 446.92 160.32 447.068 160.535C447.221 160.75 447.41 160.92 447.637 161.045C447.863 161.166 448.127 161.227 448.428 161.227C448.725 161.227 448.984 161.166 449.207 161.045C449.434 160.92 449.621 160.75 449.77 160.535C449.918 160.32 450.029 160.074 450.104 159.797C450.182 159.516 450.221 159.217 450.221 158.9V158.766C450.221 158.453 450.182 158.158 450.104 157.881C450.029 157.6 449.916 157.352 449.764 157.137C449.615 156.918 449.428 156.746 449.201 156.621C448.979 156.496 448.717 156.434 448.416 156.434C448.119 156.434 447.857 156.496 447.631 156.621C447.408 156.746 447.221 156.918 447.068 157.137C446.92 157.352 446.809 157.6 446.734 157.881C446.66 158.158 446.623 158.453 446.623 158.766ZM454.891 157.928V158.818H452.031V157.928H454.891ZM461.424 161.109V162H455.84V161.221L458.635 158.109C458.979 157.727 459.244 157.402 459.432 157.137C459.623 156.867 459.756 156.627 459.83 156.416C459.908 156.201 459.947 155.982 459.947 155.76C459.947 155.479 459.889 155.225 459.771 154.998C459.658 154.768 459.49 154.584 459.268 154.447C459.045 154.311 458.775 154.242 458.459 154.242C458.08 154.242 457.764 154.316 457.51 154.465C457.26 154.609 457.072 154.812 456.947 155.074C456.822 155.336 456.76 155.637 456.76 155.977H455.676C455.676 155.496 455.781 155.057 455.992 154.658C456.203 154.26 456.516 153.943 456.93 153.709C457.344 153.471 457.854 153.352 458.459 153.352C458.998 153.352 459.459 153.447 459.842 153.639C460.225 153.826 460.518 154.092 460.721 154.436C460.928 154.775 461.031 155.174 461.031 155.631C461.031 155.881 460.988 156.135 460.902 156.393C460.82 156.646 460.705 156.9 460.557 157.154C460.412 157.408 460.242 157.658 460.047 157.904C459.855 158.15 459.65 158.393 459.432 158.631L457.146 161.109H461.424Z" fill="black"/>
<rect x="431" y="185" width="6" height="6" rx="3" fill="black"/>
<path d="M450.76 184.916L446.875 192.791H446.154L450.039 184.916H450.76ZM445.539 188.9V188.766C445.539 188.309 445.605 187.885 445.738 187.494C445.871 187.1 446.062 186.758 446.312 186.469C446.562 186.176 446.865 185.949 447.221 185.789C447.576 185.625 447.975 185.543 448.416 185.543C448.861 185.543 449.262 185.625 449.617 185.789C449.977 185.949 450.281 186.176 450.531 186.469C450.781 186.758 450.973 187.1 451.105 187.494C451.238 187.885 451.305 188.309 451.305 188.766V188.9C451.305 189.357 451.238 189.781 451.105 190.172C450.973 190.562 450.781 190.904 450.531 191.197C450.281 191.486 449.979 191.713 449.623 191.877C449.271 192.037 448.873 192.117 448.428 192.117C447.982 192.117 447.582 192.037 447.227 191.877C446.871 191.713 446.566 191.486 446.312 191.197C446.062 190.904 445.871 190.562 445.738 190.172C445.605 189.781 445.539 189.357 445.539 188.9ZM446.623 188.766V188.9C446.623 189.217 446.66 189.516 446.734 189.797C446.809 190.074 446.92 190.32 447.068 190.535C447.221 190.75 447.41 190.92 447.637 191.045C447.863 191.166 448.127 191.227 448.428 191.227C448.725 191.227 448.984 191.166 449.207 191.045C449.434 190.92 449.621 190.75 449.77 190.535C449.918 190.32 450.029 190.074 450.104 189.797C450.182 189.516 450.221 189.217 450.221 188.9V188.766C450.221 188.453 450.182 188.158 450.104 187.881C450.029 187.6 449.916 187.352 449.764 187.137C449.615 186.918 449.428 186.746 449.201 186.621C448.979 186.496 448.717 186.434 448.416 186.434C448.119 186.434 447.857 186.496 447.631 186.621C447.408 186.746 447.221 186.918 447.068 187.137C446.92 187.352 446.809 187.6 446.734 187.881C446.66 188.158 446.623 188.453 446.623 188.766ZM454.891 187.928V188.818H452.031V187.928H454.891ZM457.416 187.201H458.189C458.568 187.201 458.881 187.139 459.127 187.014C459.377 186.885 459.562 186.711 459.684 186.492C459.809 186.27 459.871 186.02 459.871 185.742C459.871 185.414 459.816 185.139 459.707 184.916C459.598 184.693 459.434 184.525 459.215 184.412C458.996 184.299 458.719 184.242 458.383 184.242C458.078 184.242 457.809 184.303 457.574 184.424C457.344 184.541 457.162 184.709 457.029 184.928C456.9 185.146 456.836 185.404 456.836 185.701H455.752C455.752 185.268 455.861 184.873 456.08 184.518C456.299 184.162 456.605 183.879 457 183.668C457.398 183.457 457.859 183.352 458.383 183.352C458.898 183.352 459.35 183.443 459.736 183.627C460.123 183.807 460.424 184.076 460.639 184.436C460.854 184.791 460.961 185.234 460.961 185.766C460.961 185.98 460.91 186.211 460.809 186.457C460.711 186.699 460.557 186.926 460.346 187.137C460.139 187.348 459.869 187.521 459.537 187.658C459.205 187.791 458.807 187.857 458.342 187.857H457.416V187.201ZM457.416 188.092V187.441H458.342C458.885 187.441 459.334 187.506 459.689 187.635C460.045 187.764 460.324 187.936 460.527 188.15C460.734 188.365 460.879 188.602 460.961 188.859C461.047 189.113 461.09 189.367 461.09 189.621C461.09 190.02 461.021 190.373 460.885 190.682C460.752 190.99 460.562 191.252 460.316 191.467C460.074 191.682 459.789 191.844 459.461 191.953C459.133 192.062 458.775 192.117 458.389 192.117C458.018 192.117 457.668 192.064 457.34 191.959C457.016 191.854 456.729 191.701 456.479 191.502C456.229 191.299 456.033 191.051 455.893 190.758C455.752 190.461 455.682 190.123 455.682 189.744H456.766C456.766 190.041 456.83 190.301 456.959 190.523C457.092 190.746 457.279 190.92 457.521 191.045C457.768 191.166 458.057 191.227 458.389 191.227C458.721 191.227 459.006 191.17 459.244 191.057C459.486 190.939 459.672 190.764 459.801 190.529C459.934 190.295 460 190 460 189.645C460 189.289 459.926 188.998 459.777 188.771C459.629 188.541 459.418 188.371 459.145 188.262C458.875 188.148 458.557 188.092 458.189 188.092H457.416Z" fill="black"/>
<path d="M429 63.5H489V62.5H429V63.5ZM508.5 83V205H509.5V83H508.5ZM489 224.5H429V225.5H489V224.5ZM409.5 205V83H408.5V205H409.5ZM429 224.5C418.23 224.5 409.5 215.77 409.5 205H408.5C408.5 216.322 417.678 225.5 429 225.5V224.5ZM508.5 205C508.5 215.77 499.77 224.5 489 224.5V225.5C500.322 225.5 509.5 216.322 509.5 205H508.5ZM489 63.5C499.77 63.5 508.5 72.2304 508.5 83H509.5C509.5 71.6782 500.322 62.5 489 62.5V63.5ZM429 62.5C417.678 62.5 408.5 71.6782 408.5 83H409.5C409.5 72.2304 418.23 63.5 429 63.5V62.5Z" fill="black"/>
<path d="M13.8323 107.654H11.553V106.734H13.8323C14.2737 106.734 14.6311 106.664 14.9045 106.523C15.178 106.383 15.3772 106.188 15.5022 105.938C15.6311 105.688 15.6956 105.402 15.6956 105.082C15.6956 104.789 15.6311 104.514 15.5022 104.256C15.3772 103.998 15.178 103.791 14.9045 103.635C14.6311 103.475 14.2737 103.395 13.8323 103.395H11.8167V111H10.6858V102.469H13.8323C14.4768 102.469 15.0217 102.58 15.467 102.803C15.9124 103.025 16.2502 103.334 16.4807 103.729C16.7112 104.119 16.8264 104.566 16.8264 105.07C16.8264 105.617 16.7112 106.084 16.4807 106.471C16.2502 106.857 15.9124 107.152 15.467 107.355C15.0217 107.555 14.4768 107.654 13.8323 107.654ZM19.176 105.656V111H18.092V104.66H19.1467L19.176 105.656ZM21.1565 104.625L21.1506 105.633C21.0608 105.613 20.9749 105.602 20.8928 105.598C20.8147 105.59 20.7249 105.586 20.6233 105.586C20.3733 105.586 20.1526 105.625 19.9612 105.703C19.7698 105.781 19.6077 105.891 19.4749 106.031C19.342 106.172 19.2366 106.34 19.1584 106.535C19.0842 106.727 19.0354 106.938 19.012 107.168L18.7073 107.344C18.7073 106.961 18.7444 106.602 18.8186 106.266C18.8967 105.93 19.0159 105.633 19.176 105.375C19.3362 105.113 19.5393 104.91 19.7854 104.766C20.0354 104.617 20.3323 104.543 20.676 104.543C20.7542 104.543 20.844 104.553 20.9456 104.572C21.0471 104.588 21.1174 104.605 21.1565 104.625ZM23.3362 104.66V111H22.2463V104.66H23.3362ZM22.1643 102.979C22.1643 102.803 22.217 102.654 22.3225 102.533C22.4319 102.412 22.592 102.352 22.803 102.352C23.01 102.352 23.1682 102.412 23.2776 102.533C23.3909 102.654 23.4475 102.803 23.4475 102.979C23.4475 103.146 23.3909 103.291 23.2776 103.412C23.1682 103.529 23.01 103.588 22.803 103.588C22.592 103.588 22.4319 103.529 22.3225 103.412C22.217 103.291 22.1643 103.146 22.1643 102.979ZM26.1545 105.92V111H25.0647V104.66H26.0959L26.1545 105.92ZM25.9319 107.59L25.428 107.572C25.4319 107.139 25.4885 106.738 25.5979 106.371C25.7073 106 25.8694 105.678 26.0842 105.404C26.2991 105.131 26.5667 104.92 26.887 104.771C27.2073 104.619 27.5784 104.543 28.0002 104.543C28.2971 104.543 28.5706 104.586 28.8206 104.672C29.0706 104.754 29.2874 104.885 29.4709 105.064C29.6545 105.244 29.7971 105.475 29.8987 105.756C30.0002 106.037 30.051 106.377 30.051 106.775V111H28.967V106.828C28.967 106.496 28.9104 106.23 28.7971 106.031C28.6877 105.832 28.5315 105.688 28.3284 105.598C28.1252 105.504 27.887 105.457 27.6135 105.457C27.2932 105.457 27.0256 105.514 26.8108 105.627C26.5959 105.74 26.4241 105.896 26.2952 106.096C26.1663 106.295 26.0725 106.523 26.0139 106.781C25.9592 107.035 25.9319 107.305 25.9319 107.59ZM30.0393 106.992L29.3127 107.215C29.3167 106.867 29.3733 106.533 29.4827 106.213C29.5959 105.893 29.7581 105.607 29.969 105.357C30.1838 105.107 30.4475 104.91 30.76 104.766C31.0725 104.617 31.4299 104.543 31.8323 104.543C32.1721 104.543 32.4729 104.588 32.7346 104.678C33.0002 104.768 33.2229 104.906 33.4026 105.094C33.5862 105.277 33.7249 105.514 33.8186 105.803C33.9124 106.092 33.9592 106.436 33.9592 106.834V111H32.8694V106.822C32.8694 106.467 32.8127 106.191 32.6995 105.996C32.5901 105.797 32.4338 105.658 32.2307 105.58C32.0315 105.498 31.7932 105.457 31.5159 105.457C31.2776 105.457 31.0667 105.498 30.8831 105.58C30.6995 105.662 30.5452 105.775 30.4202 105.92C30.2952 106.061 30.1995 106.223 30.1331 106.406C30.0706 106.59 30.0393 106.785 30.0393 106.992ZM39.1624 109.928V106.781C39.1624 106.5 39.1135 106.26 39.0159 106.061C38.9221 105.857 38.7815 105.703 38.594 105.598C38.4065 105.488 38.178 105.434 37.9084 105.434C37.6194 105.434 37.3674 105.484 37.1526 105.586C36.9377 105.688 36.7717 105.822 36.6545 105.99C36.5374 106.158 36.4788 106.344 36.4788 106.547L35.4006 106.441C35.4006 106.168 35.4612 105.916 35.5823 105.686C35.7034 105.455 35.8733 105.254 36.092 105.082C36.3147 104.91 36.5784 104.777 36.8831 104.684C37.1917 104.59 37.5334 104.543 37.9084 104.543C38.3694 104.543 38.7717 104.627 39.1155 104.795C39.4631 104.963 39.7327 105.213 39.9241 105.545C40.1194 105.877 40.217 106.293 40.217 106.793V109.723L39.1624 109.928ZM39.4026 107.273V108.094H37.8733C37.5334 108.094 37.2483 108.148 37.0178 108.258C36.7874 108.363 36.6135 108.504 36.4963 108.68C36.3792 108.852 36.3206 109.039 36.3206 109.242C36.3206 109.43 36.3635 109.6 36.4495 109.752C36.5393 109.9 36.6721 110.02 36.8479 110.109C37.0276 110.195 37.2542 110.238 37.5276 110.238C37.7385 110.238 37.9534 110.199 38.1721 110.121C38.3948 110.039 38.5979 109.936 38.7815 109.811C38.969 109.682 39.1194 109.547 39.2327 109.406C39.3499 109.266 39.4104 109.135 39.4143 109.014L39.9768 109.857C39.8713 110.049 39.7034 110.242 39.4729 110.438C39.2463 110.633 38.9534 110.797 38.594 110.93C38.2385 111.059 37.8127 111.123 37.3167 111.123C36.8713 111.123 36.4924 111.045 36.1799 110.889C35.8713 110.732 35.637 110.512 35.4768 110.227C35.3167 109.938 35.2366 109.602 35.2366 109.219C35.2366 108.91 35.2913 108.637 35.4006 108.398C35.5139 108.156 35.6799 107.953 35.8987 107.789C36.1213 107.621 36.3967 107.494 36.7249 107.408C37.053 107.318 37.4319 107.273 37.8616 107.273H39.4026ZM42.1741 111.123C41.6936 111.123 41.2698 111.045 40.9026 110.889C40.5354 110.732 40.2268 110.514 39.9768 110.232C39.7268 109.947 39.5374 109.611 39.4084 109.225C39.2795 108.838 39.2151 108.414 39.2151 107.953V107.695C39.2151 107.23 39.2815 106.807 39.4143 106.424C39.551 106.037 39.7405 105.703 39.9827 105.422C40.2288 105.141 40.5159 104.924 40.844 104.771C41.1721 104.615 41.5295 104.539 41.9163 104.543C42.3381 104.543 42.7092 104.609 43.0295 104.742C43.3538 104.871 43.6252 105.061 43.844 105.311C44.0627 105.557 44.2268 105.855 44.3362 106.207C44.4495 106.559 44.5061 106.953 44.5061 107.391V108.082H39.7952V107.25H43.4163V107.068C43.4163 106.771 43.3674 106.5 43.2698 106.254C43.1721 106.008 43.0139 105.811 42.7952 105.662C42.5764 105.51 42.2834 105.434 41.9163 105.434C41.6467 105.434 41.4084 105.492 41.2014 105.609C40.9944 105.727 40.8186 105.889 40.6741 106.096C40.5334 106.303 40.426 106.543 40.3518 106.816C40.2776 107.09 40.2405 107.383 40.2405 107.695V107.953C40.2405 108.27 40.2776 108.566 40.3518 108.844C40.426 109.117 40.5413 109.359 40.6975 109.57C40.8538 109.777 41.053 109.939 41.2952 110.057C41.5413 110.174 41.8342 110.232 42.1741 110.232C42.6389 110.232 43.0139 110.162 43.2991 110.021C43.5842 109.877 43.8245 109.738 44.0198 109.605L44.4006 110.402C44.3147 110.469 44.176 110.561 43.9846 110.678C43.7971 110.791 43.553 110.895 43.2522 110.988C42.9514 111.078 42.592 111.123 42.1741 111.123ZM46.8206 105.656V111H45.7366V104.66H46.7913L46.8206 105.656ZM48.801 104.625L48.7952 105.633C48.7053 105.613 48.6194 105.602 48.5374 105.598C48.4592 105.59 48.3694 105.586 48.2678 105.586C48.0178 105.586 47.7971 105.625 47.6057 105.703C47.4143 105.781 47.2522 105.891 47.1194 106.031C46.9866 106.172 46.8811 106.34 46.803 106.535C46.7288 106.727 46.6799 106.938 46.6565 107.168L46.3518 107.344C46.3518 106.961 46.3889 106.602 46.4631 106.266C46.5413 105.93 46.6604 105.633 46.8206 105.375C46.9807 105.113 47.1838 104.91 47.4299 104.766C47.6799 104.617 47.9768 104.543 48.3206 104.543C48.3987 104.543 48.4885 104.553 48.5901 104.572C48.6917 104.588 48.762 104.605 48.801 104.625ZM53.1252 103.225L50.301 111H49.1467L52.3987 102.469H53.1428L53.1252 103.225ZM55.4924 111L52.6624 103.225L52.6448 102.469H53.3889L56.6526 111H55.4924ZM55.3459 107.842V108.768H50.553V107.842H55.3459ZM61.3225 109.318C61.3225 109.162 61.2874 109.018 61.217 108.885C61.1506 108.748 61.012 108.625 60.801 108.516C60.594 108.402 60.2815 108.305 59.8635 108.223C59.512 108.148 59.1936 108.061 58.9084 107.959C58.6272 107.857 58.387 107.734 58.1877 107.59C57.9924 107.445 57.842 107.275 57.7366 107.08C57.6311 106.885 57.5784 106.656 57.5784 106.395C57.5784 106.145 57.6331 105.908 57.7424 105.686C57.8557 105.463 58.0139 105.266 58.217 105.094C58.4241 104.922 58.6721 104.787 58.9612 104.689C59.2502 104.592 59.5725 104.543 59.928 104.543C60.4358 104.543 60.8694 104.633 61.2288 104.812C61.5881 104.992 61.8635 105.232 62.0549 105.533C62.2463 105.83 62.342 106.16 62.342 106.523H61.2581C61.2581 106.348 61.2053 106.178 61.0999 106.014C60.9983 105.846 60.8479 105.707 60.6487 105.598C60.4534 105.488 60.2131 105.434 59.928 105.434C59.6272 105.434 59.3831 105.48 59.1956 105.574C59.012 105.664 58.8772 105.779 58.7913 105.92C58.7092 106.061 58.6682 106.209 58.6682 106.365C58.6682 106.482 58.6877 106.588 58.7268 106.682C58.7698 106.771 58.844 106.855 58.9495 106.934C59.0549 107.008 59.2034 107.078 59.3948 107.145C59.5862 107.211 59.8303 107.277 60.1272 107.344C60.6467 107.461 61.0745 107.602 61.4104 107.766C61.7463 107.93 61.9963 108.131 62.1604 108.369C62.3245 108.607 62.4065 108.896 62.4065 109.236C62.4065 109.514 62.3479 109.768 62.2307 109.998C62.1174 110.229 61.9514 110.428 61.7327 110.596C61.5178 110.76 61.26 110.889 60.9592 110.982C60.6624 111.072 60.3284 111.117 59.9573 111.117C59.3987 111.117 58.926 111.018 58.5393 110.818C58.1526 110.619 57.8596 110.361 57.6604 110.045C57.4612 109.729 57.3616 109.395 57.3616 109.043H58.4514C58.467 109.34 58.553 109.576 58.7092 109.752C58.8655 109.924 59.0569 110.047 59.2834 110.121C59.51 110.191 59.7346 110.227 59.9573 110.227C60.2542 110.227 60.5022 110.188 60.7014 110.109C60.9045 110.031 61.0588 109.924 61.1643 109.787C61.2698 109.65 61.3225 109.494 61.3225 109.318ZM67.5217 109.318C67.5217 109.162 67.4866 109.018 67.4163 108.885C67.3499 108.748 67.2112 108.625 67.0002 108.516C66.7932 108.402 66.4807 108.305 66.0627 108.223C65.7112 108.148 65.3928 108.061 65.1077 107.959C64.8264 107.857 64.5862 107.734 64.387 107.59C64.1917 107.445 64.0413 107.275 63.9358 107.08C63.8303 106.885 63.7776 106.656 63.7776 106.395C63.7776 106.145 63.8323 105.908 63.9417 105.686C64.0549 105.463 64.2131 105.266 64.4163 105.094C64.6233 104.922 64.8713 104.787 65.1604 104.689C65.4495 104.592 65.7717 104.543 66.1272 104.543C66.635 104.543 67.0686 104.633 67.428 104.812C67.7874 104.992 68.0627 105.232 68.2542 105.533C68.4456 105.83 68.5413 106.16 68.5413 106.523H67.4573C67.4573 106.348 67.4045 106.178 67.2991 106.014C67.1975 105.846 67.0471 105.707 66.8479 105.598C66.6526 105.488 66.4124 105.434 66.1272 105.434C65.8264 105.434 65.5823 105.48 65.3948 105.574C65.2112 105.664 65.0764 105.779 64.9905 105.92C64.9084 106.061 64.8674 106.209 64.8674 106.365C64.8674 106.482 64.887 106.588 64.926 106.682C64.969 106.771 65.0432 106.855 65.1487 106.934C65.2542 107.008 65.4026 107.078 65.594 107.145C65.7854 107.211 66.0295 107.277 66.3264 107.344C66.8459 107.461 67.2737 107.602 67.6096 107.766C67.9456 107.93 68.1956 108.131 68.3596 108.369C68.5237 108.607 68.6057 108.896 68.6057 109.236C68.6057 109.514 68.5471 109.768 68.4299 109.998C68.3167 110.229 68.1506 110.428 67.9319 110.596C67.717 110.76 67.4592 110.889 67.1584 110.982C66.8616 111.072 66.5276 111.117 66.1565 111.117C65.5979 111.117 65.1252 111.018 64.7385 110.818C64.3518 110.619 64.0588 110.361 63.8596 110.045C63.6604 109.729 63.5608 109.395 63.5608 109.043H64.6506C64.6663 109.34 64.7522 109.576 64.9084 109.752C65.0647 109.924 65.2561 110.047 65.4827 110.121C65.7092 110.191 65.9338 110.227 66.1565 110.227C66.4534 110.227 66.7014 110.188 66.9006 110.109C67.1038 110.031 67.2581 109.924 67.3635 109.787C67.469 109.65 67.5217 109.494 67.5217 109.318ZM70.0471 110.426C70.0471 110.242 70.1038 110.088 70.217 109.963C70.3342 109.834 70.5022 109.77 70.7209 109.77C70.9397 109.77 71.1057 109.834 71.219 109.963C71.3362 110.088 71.3948 110.242 71.3948 110.426C71.3948 110.605 71.3362 110.758 71.219 110.883C71.1057 111.008 70.9397 111.07 70.7209 111.07C70.5022 111.07 70.3342 111.008 70.217 110.883C70.1038 110.758 70.0471 110.605 70.0471 110.426Z" fill="black"/>
<rect x="23" y="133" width="6" height="6" fill="black"/>
<rect x="23" y="163" width="6" height="6" fill="black"/>
<rect x="23" y="193" width="6" height="6" fill="black"/>
<path d="M21 71.5H81V70.5H21V71.5ZM100.5 91V213H101.5V91H100.5ZM81 232.5H21V233.5H81V232.5ZM1.5 213V91H0.5V213H1.5ZM21 232.5C10.2304 232.5 1.5 223.77 1.5 213H0.5C0.5 224.322 9.67816 233.5 21 233.5V232.5ZM100.5 213C100.5 223.77 91.7696 232.5 81 232.5V233.5C92.3218 233.5 101.5 224.322 101.5 213H100.5ZM81 71.5C91.7696 71.5 100.5 80.2304 100.5 91H101.5C101.5 79.6782 92.3218 70.5 81 70.5V71.5ZM21 70.5C9.67816 70.5 0.5 79.6782 0.5 91H1.5C1.5 80.2304 10.2304 71.5 21 71.5V70.5Z" fill="black"/>
<path d="M151.233 202.844C151.233 202.645 151.201 202.469 151.139 202.316C151.08 202.16 150.975 202.02 150.823 201.895C150.674 201.77 150.467 201.65 150.201 201.537C149.94 201.424 149.608 201.309 149.205 201.191C148.783 201.066 148.403 200.928 148.063 200.775C147.723 200.619 147.432 200.441 147.19 200.242C146.948 200.043 146.762 199.814 146.633 199.557C146.504 199.299 146.44 199.004 146.44 198.672C146.44 198.34 146.508 198.033 146.645 197.752C146.781 197.471 146.977 197.227 147.231 197.02C147.489 196.809 147.795 196.645 148.151 196.527C148.506 196.41 148.903 196.352 149.34 196.352C149.981 196.352 150.524 196.475 150.969 196.721C151.418 196.963 151.76 197.281 151.994 197.676C152.229 198.066 152.346 198.484 152.346 198.93H151.221C151.221 198.609 151.153 198.326 151.016 198.08C150.879 197.83 150.672 197.635 150.395 197.494C150.117 197.35 149.766 197.277 149.34 197.277C148.938 197.277 148.606 197.338 148.344 197.459C148.082 197.58 147.887 197.744 147.758 197.951C147.633 198.158 147.571 198.395 147.571 198.66C147.571 198.84 147.608 199.004 147.682 199.152C147.76 199.297 147.879 199.432 148.039 199.557C148.203 199.682 148.41 199.797 148.66 199.902C148.914 200.008 149.217 200.109 149.569 200.207C150.053 200.344 150.471 200.496 150.823 200.664C151.174 200.832 151.463 201.021 151.69 201.232C151.92 201.439 152.09 201.676 152.199 201.941C152.313 202.203 152.369 202.5 152.369 202.832C152.369 203.18 152.299 203.494 152.158 203.775C152.018 204.057 151.817 204.297 151.555 204.496C151.293 204.695 150.979 204.85 150.612 204.959C150.248 205.064 149.842 205.117 149.393 205.117C148.998 205.117 148.61 205.062 148.227 204.953C147.848 204.844 147.502 204.68 147.19 204.461C146.881 204.242 146.633 203.973 146.446 203.652C146.262 203.328 146.17 202.953 146.17 202.527H147.295C147.295 202.82 147.352 203.072 147.465 203.283C147.578 203.49 147.733 203.662 147.928 203.799C148.127 203.936 148.352 204.037 148.602 204.104C148.856 204.166 149.119 204.197 149.393 204.197C149.787 204.197 150.121 204.143 150.395 204.033C150.668 203.924 150.875 203.768 151.016 203.564C151.16 203.361 151.233 203.121 151.233 202.844ZM156.301 198.66V199.492H152.873V198.66H156.301ZM154.033 197.119H155.117V203.43C155.117 203.645 155.151 203.807 155.217 203.916C155.283 204.025 155.369 204.098 155.475 204.133C155.58 204.168 155.694 204.186 155.815 204.186C155.905 204.186 155.998 204.178 156.096 204.162C156.198 204.143 156.274 204.127 156.324 204.115L156.33 205C156.244 205.027 156.131 205.053 155.99 205.076C155.854 205.104 155.688 205.117 155.492 205.117C155.227 205.117 154.983 205.064 154.76 204.959C154.537 204.854 154.36 204.678 154.227 204.432C154.098 204.182 154.033 203.846 154.033 203.424V197.119ZM161.451 203.535V198.66H162.541V205H161.504L161.451 203.535ZM161.656 202.199L162.108 202.188C162.108 202.609 162.063 203 161.973 203.359C161.887 203.715 161.746 204.023 161.551 204.285C161.356 204.547 161.1 204.752 160.783 204.9C160.467 205.045 160.082 205.117 159.629 205.117C159.321 205.117 159.037 205.072 158.78 204.982C158.526 204.893 158.307 204.754 158.123 204.566C157.94 204.379 157.797 204.135 157.696 203.834C157.598 203.533 157.549 203.172 157.549 202.75V198.66H158.633V202.762C158.633 203.047 158.664 203.283 158.727 203.471C158.793 203.654 158.881 203.801 158.99 203.91C159.104 204.016 159.229 204.09 159.365 204.133C159.506 204.176 159.651 204.197 159.799 204.197C160.26 204.197 160.625 204.109 160.895 203.934C161.164 203.754 161.358 203.514 161.475 203.213C161.596 202.908 161.656 202.57 161.656 202.199ZM168.19 203.77V196H169.28V205H168.283L168.19 203.77ZM163.924 201.9V201.777C163.924 201.293 163.983 200.854 164.1 200.459C164.221 200.061 164.391 199.719 164.61 199.434C164.832 199.148 165.096 198.93 165.401 198.777C165.709 198.621 166.053 198.543 166.432 198.543C166.83 198.543 167.178 198.613 167.475 198.754C167.776 198.891 168.03 199.092 168.237 199.357C168.448 199.619 168.614 199.936 168.735 200.307C168.856 200.678 168.94 201.098 168.987 201.566V202.105C168.944 202.57 168.86 202.988 168.735 203.359C168.614 203.73 168.448 204.047 168.237 204.309C168.03 204.57 167.776 204.771 167.475 204.912C167.174 205.049 166.823 205.117 166.42 205.117C166.049 205.117 165.709 205.037 165.401 204.877C165.096 204.717 164.832 204.492 164.61 204.203C164.391 203.914 164.221 203.574 164.1 203.184C163.983 202.789 163.924 202.361 163.924 201.9ZM165.014 201.777V201.9C165.014 202.217 165.045 202.514 165.108 202.791C165.174 203.068 165.276 203.312 165.412 203.523C165.549 203.734 165.723 203.9 165.934 204.021C166.145 204.139 166.397 204.197 166.69 204.197C167.049 204.197 167.344 204.121 167.574 203.969C167.809 203.816 167.996 203.615 168.137 203.365C168.278 203.115 168.387 202.844 168.465 202.551V201.139C168.418 200.924 168.35 200.717 168.26 200.518C168.174 200.314 168.061 200.135 167.92 199.979C167.783 199.818 167.614 199.691 167.41 199.598C167.211 199.504 166.975 199.457 166.701 199.457C166.405 199.457 166.149 199.52 165.934 199.645C165.723 199.766 165.549 199.934 165.412 200.148C165.276 200.359 165.174 200.605 165.108 200.887C165.045 201.164 165.014 201.461 165.014 201.777ZM173.598 205.117C173.156 205.117 172.756 205.043 172.397 204.895C172.041 204.742 171.735 204.529 171.477 204.256C171.223 203.982 171.028 203.658 170.891 203.283C170.754 202.908 170.686 202.498 170.686 202.053V201.807C170.686 201.291 170.762 200.832 170.914 200.43C171.067 200.023 171.274 199.68 171.535 199.398C171.797 199.117 172.094 198.904 172.426 198.76C172.758 198.615 173.102 198.543 173.457 198.543C173.91 198.543 174.301 198.621 174.629 198.777C174.961 198.934 175.233 199.152 175.444 199.434C175.655 199.711 175.811 200.039 175.912 200.418C176.014 200.793 176.065 201.203 176.065 201.648V202.135H171.33V201.25H174.981V201.168C174.965 200.887 174.906 200.613 174.805 200.348C174.707 200.082 174.551 199.863 174.336 199.691C174.121 199.52 173.828 199.434 173.457 199.434C173.211 199.434 172.985 199.486 172.778 199.592C172.571 199.693 172.393 199.846 172.244 200.049C172.096 200.252 171.981 200.5 171.899 200.793C171.817 201.086 171.776 201.424 171.776 201.807V202.053C171.776 202.354 171.817 202.637 171.899 202.902C171.985 203.164 172.108 203.395 172.268 203.594C172.432 203.793 172.629 203.949 172.86 204.062C173.094 204.176 173.36 204.232 173.656 204.232C174.039 204.232 174.364 204.154 174.629 203.998C174.895 203.842 175.127 203.633 175.326 203.371L175.983 203.893C175.846 204.1 175.672 204.297 175.461 204.484C175.25 204.672 174.99 204.824 174.682 204.941C174.377 205.059 174.016 205.117 173.598 205.117ZM178.414 200.014V205H177.33V198.66H178.356L178.414 200.014ZM178.156 201.59L177.705 201.572C177.709 201.139 177.774 200.738 177.899 200.371C178.024 200 178.199 199.678 178.426 199.404C178.653 199.131 178.922 198.92 179.235 198.771C179.551 198.619 179.901 198.543 180.283 198.543C180.596 198.543 180.877 198.586 181.127 198.672C181.377 198.754 181.59 198.887 181.766 199.07C181.946 199.254 182.082 199.492 182.176 199.785C182.27 200.074 182.317 200.428 182.317 200.846V205H181.227V200.834C181.227 200.502 181.178 200.236 181.08 200.037C180.983 199.834 180.84 199.688 180.653 199.598C180.465 199.504 180.235 199.457 179.961 199.457C179.692 199.457 179.446 199.514 179.223 199.627C179.004 199.74 178.815 199.896 178.655 200.096C178.498 200.295 178.375 200.523 178.285 200.781C178.199 201.035 178.156 201.305 178.156 201.59ZM186.617 198.66V199.492H183.19V198.66H186.617ZM184.35 197.119H185.434V203.43C185.434 203.645 185.467 203.807 185.533 203.916C185.6 204.025 185.686 204.098 185.791 204.133C185.897 204.168 186.01 204.186 186.131 204.186C186.221 204.186 186.315 204.178 186.412 204.162C186.514 204.143 186.59 204.127 186.641 204.115L186.647 205C186.561 205.027 186.448 205.053 186.307 205.076C186.17 205.104 186.004 205.117 185.809 205.117C185.543 205.117 185.299 205.064 185.076 204.959C184.854 204.854 184.676 204.678 184.543 204.432C184.414 204.182 184.35 203.846 184.35 203.424V197.119Z" fill="black"/>
<rect x="159" y="227" width="6" height="6" rx="3" fill="black"/>
<path d="M177.518 232.318C177.518 232.162 177.482 232.018 177.412 231.885C177.346 231.748 177.207 231.625 176.996 231.516C176.789 231.402 176.477 231.305 176.059 231.223C175.707 231.148 175.389 231.061 175.104 230.959C174.822 230.857 174.582 230.734 174.383 230.59C174.188 230.445 174.037 230.275 173.932 230.08C173.826 229.885 173.773 229.656 173.773 229.395C173.773 229.145 173.828 228.908 173.938 228.686C174.051 228.463 174.209 228.266 174.412 228.094C174.619 227.922 174.867 227.787 175.156 227.689C175.445 227.592 175.768 227.543 176.123 227.543C176.631 227.543 177.064 227.633 177.424 227.812C177.783 227.992 178.059 228.232 178.25 228.533C178.441 228.83 178.537 229.16 178.537 229.523H177.453C177.453 229.348 177.4 229.178 177.295 229.014C177.193 228.846 177.043 228.707 176.844 228.598C176.648 228.488 176.408 228.434 176.123 228.434C175.822 228.434 175.578 228.48 175.391 228.574C175.207 228.664 175.072 228.779 174.986 228.92C174.904 229.061 174.863 229.209 174.863 229.365C174.863 229.482 174.883 229.588 174.922 229.682C174.965 229.771 175.039 229.855 175.145 229.934C175.25 230.008 175.398 230.078 175.59 230.145C175.781 230.211 176.025 230.277 176.322 230.344C176.842 230.461 177.27 230.602 177.605 230.766C177.941 230.93 178.191 231.131 178.355 231.369C178.52 231.607 178.602 231.896 178.602 232.236C178.602 232.514 178.543 232.768 178.426 232.998C178.312 233.229 178.146 233.428 177.928 233.596C177.713 233.76 177.455 233.889 177.154 233.982C176.857 234.072 176.523 234.117 176.152 234.117C175.594 234.117 175.121 234.018 174.734 233.818C174.348 233.619 174.055 233.361 173.855 233.045C173.656 232.729 173.557 232.395 173.557 232.043H174.646C174.662 232.34 174.748 232.576 174.904 232.752C175.061 232.924 175.252 233.047 175.479 233.121C175.705 233.191 175.93 233.227 176.152 233.227C176.449 233.227 176.697 233.188 176.896 233.109C177.1 233.031 177.254 232.924 177.359 232.787C177.465 232.65 177.518 232.494 177.518 232.318ZM182.281 229.928V230.818H179.422V229.928H182.281ZM186.787 225.422V234H185.703V226.775L183.518 227.572V226.594L186.617 225.422H186.787Z" fill="black"/>
<rect x="159" y="257" width="6" height="6" rx="3" fill="black"/>
<path d="M177.518 262.318C177.518 262.162 177.482 262.018 177.412 261.885C177.346 261.748 177.207 261.625 176.996 261.516C176.789 261.402 176.477 261.305 176.059 261.223C175.707 261.148 175.389 261.061 175.104 260.959C174.822 260.857 174.582 260.734 174.383 260.59C174.188 260.445 174.037 260.275 173.932 260.08C173.826 259.885 173.773 259.656 173.773 259.395C173.773 259.145 173.828 258.908 173.938 258.686C174.051 258.463 174.209 258.266 174.412 258.094C174.619 257.922 174.867 257.787 175.156 257.689C175.445 257.592 175.768 257.543 176.123 257.543C176.631 257.543 177.064 257.633 177.424 257.812C177.783 257.992 178.059 258.232 178.25 258.533C178.441 258.83 178.537 259.16 178.537 259.523H177.453C177.453 259.348 177.4 259.178 177.295 259.014C177.193 258.846 177.043 258.707 176.844 258.598C176.648 258.488 176.408 258.434 176.123 258.434C175.822 258.434 175.578 258.48 175.391 258.574C175.207 258.664 175.072 258.779 174.986 258.92C174.904 259.061 174.863 259.209 174.863 259.365C174.863 259.482 174.883 259.588 174.922 259.682C174.965 259.771 175.039 259.855 175.145 259.934C175.25 260.008 175.398 260.078 175.59 260.145C175.781 260.211 176.025 260.277 176.322 260.344C176.842 260.461 177.27 260.602 177.605 260.766C177.941 260.93 178.191 261.131 178.355 261.369C178.52 261.607 178.602 261.896 178.602 262.236C178.602 262.514 178.543 262.768 178.426 262.998C178.312 263.229 178.146 263.428 177.928 263.596C177.713 263.76 177.455 263.889 177.154 263.982C176.857 264.072 176.523 264.117 176.152 264.117C175.594 264.117 175.121 264.018 174.734 263.818C174.348 263.619 174.055 263.361 173.855 263.045C173.656 262.729 173.557 262.395 173.557 262.043H174.646C174.662 262.34 174.748 262.576 174.904 262.752C175.061 262.924 175.252 263.047 175.479 263.121C175.705 263.191 175.93 263.227 176.152 263.227C176.449 263.227 176.697 263.188 176.896 263.109C177.1 263.031 177.254 262.924 177.359 262.787C177.465 262.65 177.518 262.494 177.518 262.318ZM182.281 259.928V260.818H179.422V259.928H182.281ZM188.814 263.109V264H183.23V263.221L186.025 260.109C186.369 259.727 186.635 259.402 186.822 259.137C187.014 258.867 187.146 258.627 187.221 258.416C187.299 258.201 187.338 257.982 187.338 257.76C187.338 257.479 187.279 257.225 187.162 256.998C187.049 256.768 186.881 256.584 186.658 256.447C186.436 256.311 186.166 256.242 185.85 256.242C185.471 256.242 185.154 256.316 184.9 256.465C184.65 256.609 184.463 256.812 184.338 257.074C184.213 257.336 184.15 257.637 184.15 257.977H183.066C183.066 257.496 183.172 257.057 183.383 256.658C183.594 256.26 183.906 255.943 184.32 255.709C184.734 255.471 185.244 255.352 185.85 255.352C186.389 255.352 186.85 255.447 187.232 255.639C187.615 255.826 187.908 256.092 188.111 256.436C188.318 256.775 188.422 257.174 188.422 257.631C188.422 257.881 188.379 258.135 188.293 258.393C188.211 258.646 188.096 258.9 187.947 259.154C187.803 259.408 187.633 259.658 187.438 259.904C187.246 260.15 187.041 260.393 186.822 260.631L184.537 263.109H188.814Z" fill="black"/>
<rect x="159" y="287" width="6" height="6" rx="3" fill="black"/>
<path d="M177.518 292.318C177.518 292.162 177.482 292.018 177.412 291.885C177.346 291.748 177.207 291.625 176.996 291.516C176.789 291.402 176.477 291.305 176.059 291.223C175.707 291.148 175.389 291.061 175.104 290.959C174.822 290.857 174.582 290.734 174.383 290.59C174.188 290.445 174.037 290.275 173.932 290.08C173.826 289.885 173.773 289.656 173.773 289.395C173.773 289.145 173.828 288.908 173.938 288.686C174.051 288.463 174.209 288.266 174.412 288.094C174.619 287.922 174.867 287.787 175.156 287.689C175.445 287.592 175.768 287.543 176.123 287.543C176.631 287.543 177.064 287.633 177.424 287.812C177.783 287.992 178.059 288.232 178.25 288.533C178.441 288.83 178.537 289.16 178.537 289.523H177.453C177.453 289.348 177.4 289.178 177.295 289.014C177.193 288.846 177.043 288.707 176.844 288.598C176.648 288.488 176.408 288.434 176.123 288.434C175.822 288.434 175.578 288.48 175.391 288.574C175.207 288.664 175.072 288.779 174.986 288.92C174.904 289.061 174.863 289.209 174.863 289.365C174.863 289.482 174.883 289.588 174.922 289.682C174.965 289.771 175.039 289.855 175.145 289.934C175.25 290.008 175.398 290.078 175.59 290.145C175.781 290.211 176.025 290.277 176.322 290.344C176.842 290.461 177.27 290.602 177.605 290.766C177.941 290.93 178.191 291.131 178.355 291.369C178.52 291.607 178.602 291.896 178.602 292.236C178.602 292.514 178.543 292.768 178.426 292.998C178.312 293.229 178.146 293.428 177.928 293.596C177.713 293.76 177.455 293.889 177.154 293.982C176.857 294.072 176.523 294.117 176.152 294.117C175.594 294.117 175.121 294.018 174.734 293.818C174.348 293.619 174.055 293.361 173.855 293.045C173.656 292.729 173.557 292.395 173.557 292.043H174.646C174.662 292.34 174.748 292.576 174.904 292.752C175.061 292.924 175.252 293.047 175.479 293.121C175.705 293.191 175.93 293.227 176.152 293.227C176.449 293.227 176.697 293.188 176.896 293.109C177.1 293.031 177.254 292.924 177.359 292.787C177.465 292.65 177.518 292.494 177.518 292.318ZM182.281 289.928V290.818H179.422V289.928H182.281ZM184.807 289.201H185.58C185.959 289.201 186.271 289.139 186.518 289.014C186.768 288.885 186.953 288.711 187.074 288.492C187.199 288.27 187.262 288.02 187.262 287.742C187.262 287.414 187.207 287.139 187.098 286.916C186.988 286.693 186.824 286.525 186.605 286.412C186.387 286.299 186.109 286.242 185.773 286.242C185.469 286.242 185.199 286.303 184.965 286.424C184.734 286.541 184.553 286.709 184.42 286.928C184.291 287.146 184.227 287.404 184.227 287.701H183.143C183.143 287.268 183.252 286.873 183.471 286.518C183.689 286.162 183.996 285.879 184.391 285.668C184.789 285.457 185.25 285.352 185.773 285.352C186.289 285.352 186.74 285.443 187.127 285.627C187.514 285.807 187.814 286.076 188.029 286.436C188.244 286.791 188.352 287.234 188.352 287.766C188.352 287.98 188.301 288.211 188.199 288.457C188.102 288.699 187.947 288.926 187.736 289.137C187.529 289.348 187.26 289.521 186.928 289.658C186.596 289.791 186.197 289.857 185.732 289.857H184.807V289.201ZM184.807 290.092V289.441H185.732C186.275 289.441 186.725 289.506 187.08 289.635C187.436 289.764 187.715 289.936 187.918 290.15C188.125 290.365 188.27 290.602 188.352 290.859C188.438 291.113 188.48 291.367 188.48 291.621C188.48 292.02 188.412 292.373 188.275 292.682C188.143 292.99 187.953 293.252 187.707 293.467C187.465 293.682 187.18 293.844 186.852 293.953C186.523 294.062 186.166 294.117 185.779 294.117C185.408 294.117 185.059 294.064 184.73 293.959C184.406 293.854 184.119 293.701 183.869 293.502C183.619 293.299 183.424 293.051 183.283 292.758C183.143 292.461 183.072 292.123 183.072 291.744H184.156C184.156 292.041 184.221 292.301 184.35 292.523C184.482 292.746 184.67 292.92 184.912 293.045C185.158 293.166 185.447 293.227 185.779 293.227C186.111 293.227 186.396 293.17 186.635 293.057C186.877 292.939 187.062 292.764 187.191 292.529C187.324 292.295 187.391 292 187.391 291.645C187.391 291.289 187.316 290.998 187.168 290.771C187.02 290.541 186.809 290.371 186.535 290.262C186.266 290.148 185.947 290.092 185.58 290.092H184.807Z" fill="black"/>
<path d="M157 165.5H217V164.5H157V165.5ZM236.5 185V307H237.5V185H236.5ZM217 326.5H157V327.5H217V326.5ZM137.5 307V185H136.5V307H137.5ZM157 326.5C146.23 326.5 137.5 317.77 137.5 307H136.5C136.5 318.322 145.678 327.5 157 327.5V326.5ZM236.5 307C236.5 317.77 227.77 326.5 217 326.5V327.5C228.322 327.5 237.5 318.322 237.5 307H236.5ZM217 165.5C227.77 165.5 236.5 174.23 236.5 185H237.5C237.5 173.678 228.322 164.5 217 164.5V165.5ZM157 164.5C145.678 164.5 136.5 173.678 136.5 185H137.5C137.5 174.23 146.23 165.5 157 165.5V164.5Z" fill="black"/>
<path d="M153.365 32.1172L147.494 41.5449H146.656L152.545 32.1172H153.365ZM153.254 36.4648V37.0039C153.254 37.6445 153.174 38.2188 153.014 38.7266C152.854 39.2344 152.623 39.666 152.323 40.0215C152.022 40.377 151.66 40.6484 151.239 40.8359C150.821 41.0234 150.352 41.1172 149.832 41.1172C149.43 41.1172 149.053 41.0566 148.701 40.9355C148.35 40.8145 148.031 40.6387 147.746 40.4082C147.465 40.1738 147.223 39.8906 147.02 39.5586C146.817 39.2227 146.66 38.8418 146.551 38.416C146.446 37.9863 146.393 37.5156 146.393 37.0039V36.4648C146.393 35.8242 146.475 35.252 146.639 34.748C146.807 34.2402 147.043 33.8086 147.348 33.4531C147.653 33.0938 148.014 32.8203 148.432 32.6328C148.854 32.4453 149.317 32.3516 149.821 32.3516C150.235 32.3516 150.617 32.4121 150.969 32.5332C151.324 32.6543 151.643 32.832 151.924 33.0664C152.205 33.2969 152.444 33.5801 152.639 33.916C152.838 34.248 152.99 34.6289 153.096 35.0586C153.201 35.4844 153.254 35.9531 153.254 36.4648ZM152.135 37.0039V36.4531C152.135 36.0469 152.102 35.6797 152.035 35.3516C151.969 35.0195 151.871 34.7266 151.742 34.4727C151.614 34.2188 151.455 34.0059 151.268 33.834C151.08 33.6621 150.865 33.5332 150.623 33.4473C150.381 33.3574 150.114 33.3125 149.821 33.3125C149.469 33.3125 149.151 33.3809 148.865 33.5176C148.584 33.6543 148.342 33.8555 148.139 34.1211C147.94 34.3867 147.785 34.7148 147.676 35.1055C147.567 35.4961 147.512 35.9453 147.512 36.4531V37.0039C147.512 37.4141 147.547 37.7852 147.617 38.1172C147.688 38.4492 147.789 38.7441 147.922 39.002C148.059 39.2559 148.221 39.4688 148.408 39.6406C148.6 39.8125 148.815 39.9434 149.053 40.0332C149.291 40.1191 149.551 40.1621 149.832 40.1621C150.199 40.1621 150.526 40.0938 150.811 39.957C151.096 39.8203 151.336 39.6191 151.531 39.3535C151.731 39.084 151.881 38.7539 151.983 38.3633C152.084 37.9688 152.135 37.5156 152.135 37.0039ZM156.711 40.0215L158.446 34.6602H159.553L157.274 41H156.547L156.711 40.0215ZM155.264 34.6602L157.051 40.0508L157.174 41H156.448L154.151 34.6602H155.264ZM161.774 34.6602V41H160.684V34.6602H161.774ZM160.602 32.9785C160.602 32.8027 160.655 32.6543 160.76 32.5332C160.869 32.4121 161.03 32.3516 161.24 32.3516C161.448 32.3516 161.606 32.4121 161.715 32.5332C161.828 32.6543 161.885 32.8027 161.885 32.9785C161.885 33.1465 161.828 33.291 161.715 33.4121C161.606 33.5293 161.448 33.5879 161.24 33.5879C161.03 33.5879 160.869 33.5293 160.76 33.4121C160.655 33.291 160.602 33.1465 160.602 32.9785ZM164.598 36.0137V41H163.514V34.6602H164.539L164.598 36.0137ZM164.34 37.5898L163.889 37.5723C163.893 37.1387 163.957 36.7383 164.082 36.3711C164.207 36 164.383 35.6777 164.61 35.4043C164.836 35.1309 165.106 34.9199 165.418 34.7715C165.735 34.6191 166.084 34.543 166.467 34.543C166.78 34.543 167.061 34.5859 167.311 34.6719C167.561 34.7539 167.774 34.8867 167.949 35.0703C168.129 35.2539 168.266 35.4922 168.36 35.7852C168.453 36.0742 168.5 36.4277 168.5 36.8457V41H167.41V36.834C167.41 36.502 167.362 36.2363 167.264 36.0371C167.166 35.834 167.024 35.6875 166.836 35.5977C166.649 35.5039 166.418 35.457 166.145 35.457C165.875 35.457 165.629 35.5137 165.406 35.627C165.188 35.7402 164.998 35.8965 164.838 36.0957C164.682 36.2949 164.559 36.5234 164.469 36.7812C164.383 37.0352 164.34 37.3047 164.34 37.5898ZM174.254 34.6602H175.239V40.8652C175.239 41.4238 175.125 41.9004 174.899 42.2949C174.672 42.6895 174.356 42.9883 173.949 43.1914C173.547 43.3984 173.082 43.502 172.555 43.502C172.336 43.502 172.078 43.4668 171.781 43.3965C171.489 43.3301 171.199 43.2148 170.914 43.0508C170.633 42.8906 170.397 42.6738 170.205 42.4004L170.774 41.7559C171.039 42.0762 171.317 42.2988 171.606 42.4238C171.899 42.5488 172.188 42.6113 172.473 42.6113C172.817 42.6113 173.114 42.5469 173.364 42.418C173.614 42.2891 173.807 42.0977 173.944 41.8438C174.084 41.5938 174.155 41.2852 174.155 40.918V36.0547L174.254 34.6602ZM169.889 37.9004V37.7773C169.889 37.293 169.946 36.8535 170.059 36.459C170.176 36.0605 170.342 35.7188 170.557 35.4336C170.776 35.1484 171.039 34.9297 171.348 34.7773C171.656 34.6211 172.004 34.543 172.391 34.543C172.789 34.543 173.137 34.6133 173.434 34.7539C173.735 34.8906 173.989 35.0918 174.196 35.3574C174.406 35.6191 174.573 35.9355 174.694 36.3066C174.815 36.6777 174.899 37.0977 174.946 37.5664V38.1055C174.903 38.5703 174.819 38.9883 174.694 39.3594C174.573 39.7305 174.406 40.0469 174.196 40.3086C173.989 40.5703 173.735 40.7715 173.434 40.9121C173.133 41.0488 172.781 41.1172 172.379 41.1172C172 41.1172 171.656 41.0371 171.348 40.877C171.043 40.7168 170.781 40.4922 170.563 40.2031C170.344 39.9141 170.176 39.5742 170.059 39.1836C169.946 38.7891 169.889 38.3613 169.889 37.9004ZM170.973 37.7773V37.9004C170.973 38.2168 171.004 38.5137 171.067 38.791C171.133 39.0684 171.233 39.3125 171.365 39.5234C171.502 39.7344 171.676 39.9004 171.887 40.0215C172.098 40.1387 172.35 40.1973 172.643 40.1973C173.002 40.1973 173.299 40.1211 173.533 39.9688C173.768 39.8164 173.953 39.6152 174.09 39.3652C174.231 39.1152 174.34 38.8438 174.418 38.5508V37.1387C174.375 36.9238 174.309 36.7168 174.219 36.5176C174.133 36.3145 174.02 36.1348 173.879 35.9785C173.742 35.8184 173.573 35.6914 173.369 35.5977C173.166 35.5039 172.928 35.457 172.655 35.457C172.358 35.457 172.102 35.5195 171.887 35.6445C171.676 35.7656 171.502 35.9336 171.365 36.1484C171.233 36.3594 171.133 36.6055 171.067 36.8867C171.004 37.1641 170.973 37.4609 170.973 37.7773ZM180.576 39.3184C180.576 39.1621 180.541 39.0176 180.471 38.8848C180.405 38.748 180.266 38.625 180.055 38.5156C179.848 38.4023 179.535 38.3047 179.117 38.2227C178.766 38.1484 178.448 38.0605 178.162 37.959C177.881 37.8574 177.641 37.7344 177.442 37.5898C177.246 37.4453 177.096 37.2754 176.99 37.0801C176.885 36.8848 176.832 36.6562 176.832 36.3945C176.832 36.1445 176.887 35.9082 176.996 35.6855C177.11 35.4629 177.268 35.2656 177.471 35.0938C177.678 34.9219 177.926 34.7871 178.215 34.6895C178.504 34.5918 178.826 34.543 179.182 34.543C179.69 34.543 180.123 34.6328 180.483 34.8125C180.842 34.9922 181.117 35.2324 181.309 35.5332C181.5 35.8301 181.596 36.1602 181.596 36.5234H180.512C180.512 36.3477 180.459 36.1777 180.354 36.0137C180.252 35.8457 180.102 35.707 179.903 35.5977C179.707 35.4883 179.467 35.4336 179.182 35.4336C178.881 35.4336 178.637 35.4805 178.449 35.5742C178.266 35.6641 178.131 35.7793 178.045 35.9199C177.963 36.0605 177.922 36.209 177.922 36.3652C177.922 36.4824 177.942 36.5879 177.981 36.6816C178.024 36.7715 178.098 36.8555 178.203 36.9336C178.309 37.0078 178.457 37.0781 178.649 37.1445C178.84 37.2109 179.084 37.2773 179.381 37.3438C179.901 37.4609 180.328 37.6016 180.664 37.7656C181 37.9297 181.25 38.1309 181.414 38.3691C181.578 38.6074 181.66 38.8965 181.66 39.2363C181.66 39.5137 181.602 39.7676 181.485 39.998C181.371 40.2285 181.205 40.4277 180.987 40.5957C180.772 40.7598 180.514 40.8887 180.213 40.9824C179.916 41.0723 179.582 41.1172 179.211 41.1172C178.653 41.1172 178.18 41.0176 177.793 40.8184C177.406 40.6191 177.114 40.3613 176.914 40.0449C176.715 39.7285 176.615 39.3945 176.615 39.043H177.705C177.721 39.3398 177.807 39.5762 177.963 39.752C178.119 39.9238 178.311 40.0469 178.537 40.1211C178.764 40.1914 178.989 40.2266 179.211 40.2266C179.508 40.2266 179.756 40.1875 179.955 40.1094C180.158 40.0312 180.313 39.9238 180.418 39.7871C180.524 39.6504 180.576 39.4941 180.576 39.3184ZM186.406 33.2246L183.582 41H182.428L185.68 32.4688H186.424L186.406 33.2246ZM188.774 41L185.944 33.2246L185.926 32.4688H186.67L189.934 41H188.774ZM188.627 37.8418V38.7676H183.834V37.8418H188.627ZM194.604 39.3184C194.604 39.1621 194.569 39.0176 194.498 38.8848C194.432 38.748 194.293 38.625 194.082 38.5156C193.875 38.4023 193.563 38.3047 193.145 38.2227C192.793 38.1484 192.475 38.0605 192.19 37.959C191.908 37.8574 191.668 37.7344 191.469 37.5898C191.274 37.4453 191.123 37.2754 191.018 37.0801C190.912 36.8848 190.86 36.6562 190.86 36.3945C190.86 36.1445 190.914 35.9082 191.024 35.6855C191.137 35.4629 191.295 35.2656 191.498 35.0938C191.705 34.9219 191.953 34.7871 192.242 34.6895C192.531 34.5918 192.854 34.543 193.209 34.543C193.717 34.543 194.151 34.6328 194.51 34.8125C194.869 34.9922 195.145 35.2324 195.336 35.5332C195.528 35.8301 195.623 36.1602 195.623 36.5234H194.539C194.539 36.3477 194.487 36.1777 194.381 36.0137C194.28 35.8457 194.129 35.707 193.93 35.5977C193.735 35.4883 193.494 35.4336 193.209 35.4336C192.908 35.4336 192.664 35.4805 192.477 35.5742C192.293 35.6641 192.158 35.7793 192.073 35.9199C191.99 36.0605 191.949 36.209 191.949 36.3652C191.949 36.4824 191.969 36.5879 192.008 36.6816C192.051 36.7715 192.125 36.8555 192.231 36.9336C192.336 37.0078 192.485 37.0781 192.676 37.1445C192.867 37.2109 193.112 37.2773 193.408 37.3438C193.928 37.4609 194.356 37.6016 194.692 37.7656C195.028 37.9297 195.278 38.1309 195.442 38.3691C195.606 38.6074 195.688 38.8965 195.688 39.2363C195.688 39.5137 195.629 39.7676 195.512 39.998C195.399 40.2285 195.233 40.4277 195.014 40.5957C194.799 40.7598 194.541 40.8887 194.24 40.9824C193.944 41.0723 193.61 41.1172 193.239 41.1172C192.68 41.1172 192.207 41.0176 191.821 40.8184C191.434 40.6191 191.141 40.3613 190.942 40.0449C190.742 39.7285 190.643 39.3945 190.643 39.043H191.733C191.748 39.3398 191.834 39.5762 191.99 39.752C192.147 39.9238 192.338 40.0469 192.565 40.1211C192.791 40.1914 193.016 40.2266 193.239 40.2266C193.535 40.2266 193.783 40.1875 193.983 40.1094C194.186 40.0312 194.34 39.9238 194.446 39.7871C194.551 39.6504 194.604 39.4941 194.604 39.3184ZM200.803 39.3184C200.803 39.1621 200.768 39.0176 200.698 38.8848C200.631 38.748 200.492 38.625 200.281 38.5156C200.074 38.4023 199.762 38.3047 199.344 38.2227C198.992 38.1484 198.674 38.0605 198.389 37.959C198.108 37.8574 197.867 37.7344 197.668 37.5898C197.473 37.4453 197.323 37.2754 197.217 37.0801C197.112 36.8848 197.059 36.6562 197.059 36.3945C197.059 36.1445 197.114 35.9082 197.223 35.6855C197.336 35.4629 197.494 35.2656 197.698 35.0938C197.905 34.9219 198.153 34.7871 198.442 34.6895C198.731 34.5918 199.053 34.543 199.408 34.543C199.916 34.543 200.35 34.6328 200.709 34.8125C201.069 34.9922 201.344 35.2324 201.535 35.5332C201.727 35.8301 201.823 36.1602 201.823 36.5234H200.739C200.739 36.3477 200.686 36.1777 200.58 36.0137C200.479 35.8457 200.328 35.707 200.129 35.5977C199.934 35.4883 199.694 35.4336 199.408 35.4336C199.108 35.4336 198.864 35.4805 198.676 35.5742C198.492 35.6641 198.358 35.7793 198.272 35.9199C198.19 36.0605 198.149 36.209 198.149 36.3652C198.149 36.4824 198.168 36.5879 198.207 36.6816C198.25 36.7715 198.324 36.8555 198.43 36.9336C198.535 37.0078 198.684 37.0781 198.875 37.1445C199.067 37.2109 199.311 37.2773 199.608 37.3438C200.127 37.4609 200.555 37.6016 200.891 37.7656C201.227 37.9297 201.477 38.1309 201.641 38.3691C201.805 38.6074 201.887 38.8965 201.887 39.2363C201.887 39.5137 201.828 39.7676 201.711 39.998C201.598 40.2285 201.432 40.4277 201.213 40.5957C200.998 40.7598 200.74 40.8887 200.44 40.9824C200.143 41.0723 199.809 41.1172 199.438 41.1172C198.879 41.1172 198.406 41.0176 198.02 40.8184C197.633 40.6191 197.34 40.3613 197.141 40.0449C196.942 39.7285 196.842 39.3945 196.842 39.043H197.932C197.948 39.3398 198.033 39.5762 198.19 39.752C198.346 39.9238 198.537 40.0469 198.764 40.1211C198.99 40.1914 199.215 40.2266 199.438 40.2266C199.735 40.2266 199.983 40.1875 200.182 40.1094C200.385 40.0312 200.539 39.9238 200.645 39.7871C200.75 39.6504 200.803 39.4941 200.803 39.3184ZM203.328 40.4258C203.328 40.2422 203.385 40.0879 203.498 39.9629C203.615 39.834 203.783 39.7695 204.002 39.7695C204.221 39.7695 204.387 39.834 204.5 39.9629C204.617 40.0879 204.676 40.2422 204.676 40.4258C204.676 40.6055 204.617 40.7578 204.5 40.8828C204.387 41.0078 204.221 41.0703 204.002 41.0703C203.783 41.0703 203.615 41.0078 203.498 40.8828C203.385 40.7578 203.328 40.6055 203.328 40.4258Z" fill="black"/>
<rect x="159" y="63" width="6" height="6" rx="3" fill="black"/>
<path d="M177.564 68.916V65.6523C177.564 65.4023 177.514 65.1855 177.412 65.002C177.314 64.8145 177.166 64.6699 176.967 64.5684C176.768 64.4668 176.521 64.416 176.229 64.416C175.955 64.416 175.715 64.4629 175.508 64.5566C175.305 64.6504 175.145 64.7734 175.027 64.9258C174.914 65.0781 174.857 65.2422 174.857 65.418H173.773C173.773 65.1914 173.832 64.9668 173.949 64.7441C174.066 64.5215 174.234 64.3203 174.453 64.1406C174.676 63.957 174.941 63.8125 175.25 63.707C175.562 63.5977 175.91 63.543 176.293 63.543C176.754 63.543 177.16 63.6211 177.512 63.7773C177.867 63.9336 178.145 64.1699 178.344 64.4863C178.547 64.7988 178.648 65.1914 178.648 65.6641V68.6172C178.648 68.8281 178.666 69.0527 178.701 69.291C178.74 69.5293 178.797 69.7344 178.871 69.9062V70H177.74C177.686 69.875 177.643 69.709 177.611 69.502C177.58 69.291 177.564 69.0957 177.564 68.916ZM177.752 66.1562L177.764 66.918H176.668C176.359 66.918 176.084 66.9434 175.842 66.9941C175.6 67.041 175.396 67.1133 175.232 67.2109C175.068 67.3086 174.943 67.4316 174.857 67.5801C174.771 67.7246 174.729 67.8945 174.729 68.0898C174.729 68.2891 174.773 68.4707 174.863 68.6348C174.953 68.7988 175.088 68.9297 175.268 69.0273C175.451 69.1211 175.676 69.168 175.941 69.168C176.273 69.168 176.566 69.0977 176.82 68.957C177.074 68.8164 177.275 68.6445 177.424 68.4414C177.576 68.2383 177.658 68.041 177.67 67.8496L178.133 68.3711C178.105 68.5352 178.031 68.7168 177.91 68.916C177.789 69.1152 177.627 69.3066 177.424 69.4902C177.225 69.6699 176.986 69.8203 176.709 69.9414C176.436 70.0586 176.127 70.1172 175.783 70.1172C175.354 70.1172 174.977 70.0332 174.652 69.8652C174.332 69.6973 174.082 69.4727 173.902 69.1914C173.727 68.9062 173.639 68.5879 173.639 68.2363C173.639 67.8965 173.705 67.5977 173.838 67.3398C173.971 67.0781 174.162 66.8613 174.412 66.6895C174.662 66.5137 174.963 66.3809 175.314 66.291C175.666 66.2012 176.059 66.1562 176.492 66.1562H177.752ZM182.609 65.9277V66.8184H179.75V65.9277H182.609ZM187.115 61.4219V70H186.031V62.7754L183.846 63.5723V62.5938L186.945 61.4219H187.115Z" fill="black"/>
<rect x="159" y="93" width="6" height="6" rx="3" fill="black"/>
<path d="M177.564 98.916V95.6523C177.564 95.4023 177.514 95.1855 177.412 95.002C177.314 94.8145 177.166 94.6699 176.967 94.5684C176.768 94.4668 176.521 94.416 176.229 94.416C175.955 94.416 175.715 94.4629 175.508 94.5566C175.305 94.6504 175.145 94.7734 175.027 94.9258C174.914 95.0781 174.857 95.2422 174.857 95.418H173.773C173.773 95.1914 173.832 94.9668 173.949 94.7441C174.066 94.5215 174.234 94.3203 174.453 94.1406C174.676 93.957 174.941 93.8125 175.25 93.707C175.562 93.5977 175.91 93.543 176.293 93.543C176.754 93.543 177.16 93.6211 177.512 93.7773C177.867 93.9336 178.145 94.1699 178.344 94.4863C178.547 94.7988 178.648 95.1914 178.648 95.6641V98.6172C178.648 98.8281 178.666 99.0527 178.701 99.291C178.74 99.5293 178.797 99.7344 178.871 99.9062V100H177.74C177.686 99.875 177.643 99.709 177.611 99.502C177.58 99.291 177.564 99.0957 177.564 98.916ZM177.752 96.1562L177.764 96.918H176.668C176.359 96.918 176.084 96.9434 175.842 96.9941C175.6 97.041 175.396 97.1133 175.232 97.2109C175.068 97.3086 174.943 97.4316 174.857 97.5801C174.771 97.7246 174.729 97.8945 174.729 98.0898C174.729 98.2891 174.773 98.4707 174.863 98.6348C174.953 98.7988 175.088 98.9297 175.268 99.0273C175.451 99.1211 175.676 99.168 175.941 99.168C176.273 99.168 176.566 99.0977 176.82 98.957C177.074 98.8164 177.275 98.6445 177.424 98.4414C177.576 98.2383 177.658 98.041 177.67 97.8496L178.133 98.3711C178.105 98.5352 178.031 98.7168 177.91 98.916C177.789 99.1152 177.627 99.3066 177.424 99.4902C177.225 99.6699 176.986 99.8203 176.709 99.9414C176.436 100.059 176.127 100.117 175.783 100.117C175.354 100.117 174.977 100.033 174.652 99.8652C174.332 99.6973 174.082 99.4727 173.902 99.1914C173.727 98.9062 173.639 98.5879 173.639 98.2363C173.639 97.8965 173.705 97.5977 173.838 97.3398C173.971 97.0781 174.162 96.8613 174.412 96.6895C174.662 96.5137 174.963 96.3809 175.314 96.291C175.666 96.2012 176.059 96.1562 176.492 96.1562H177.752ZM182.609 95.9277V96.8184H179.75V95.9277H182.609ZM189.143 99.1094V100H183.559V99.2207L186.354 96.1094C186.697 95.7266 186.963 95.4023 187.15 95.1367C187.342 94.8672 187.475 94.627 187.549 94.416C187.627 94.2012 187.666 93.9824 187.666 93.7598C187.666 93.4785 187.607 93.2246 187.49 92.998C187.377 92.7676 187.209 92.584 186.986 92.4473C186.764 92.3105 186.494 92.2422 186.178 92.2422C185.799 92.2422 185.482 92.3164 185.229 92.4648C184.979 92.6094 184.791 92.8125 184.666 93.0742C184.541 93.3359 184.479 93.6367 184.479 93.9766H183.395C183.395 93.4961 183.5 93.0566 183.711 92.6582C183.922 92.2598 184.234 91.9434 184.648 91.709C185.062 91.4707 185.572 91.3516 186.178 91.3516C186.717 91.3516 187.178 91.4473 187.561 91.6387C187.943 91.8262 188.236 92.0918 188.439 92.4355C188.646 92.7754 188.75 93.1738 188.75 93.6309C188.75 93.8809 188.707 94.1348 188.621 94.3926C188.539 94.6465 188.424 94.9004 188.275 95.1543C188.131 95.4082 187.961 95.6582 187.766 95.9043C187.574 96.1504 187.369 96.3926 187.15 96.6309L184.865 99.1094H189.143Z" fill="black"/>
<path d="M157 1.5H217V0.5H157V1.5ZM236.5 21V113H237.5V21H236.5ZM217 132.5H157V133.5H217V132.5ZM137.5 113V21H136.5V113H137.5ZM157 132.5C146.23 132.5 137.5 123.77 137.5 113H136.5C136.5 124.322 145.678 133.5 157 133.5V132.5ZM236.5 113C236.5 123.77 227.77 132.5 217 132.5V133.5C228.322 133.5 237.5 124.322 237.5 113H236.5ZM217 1.5C227.77 1.5 236.5 10.2304 236.5 21H237.5C237.5 9.67816 228.322 0.5 217 0.5V1.5ZM157 0.5C145.678 0.5 136.5 9.67816 136.5 21H137.5C137.5 10.2304 146.23 1.5 157 1.5V0.5Z" fill="black"/>
<path d="M285.44 263.705L287.953 256.469H289.178L286.02 265H285.147L285.44 263.705ZM283.09 256.469L285.58 263.705L285.891 265H285.018L281.865 256.469H283.09ZM293.877 263.535V258.66H294.967V265H293.93L293.877 263.535ZM294.082 262.199L294.533 262.188C294.533 262.609 294.489 263 294.399 263.359C294.313 263.715 294.172 264.023 293.977 264.285C293.781 264.547 293.526 264.752 293.209 264.9C292.893 265.045 292.508 265.117 292.055 265.117C291.746 265.117 291.463 265.072 291.205 264.982C290.951 264.893 290.733 264.754 290.549 264.566C290.365 264.379 290.223 264.135 290.121 263.834C290.024 263.533 289.975 263.172 289.975 262.75V258.66H291.059V262.762C291.059 263.047 291.09 263.283 291.153 263.471C291.219 263.654 291.307 263.801 291.416 263.91C291.53 264.016 291.655 264.09 291.791 264.133C291.932 264.176 292.076 264.197 292.225 264.197C292.686 264.197 293.051 264.109 293.321 263.934C293.59 263.754 293.783 263.514 293.901 263.213C294.022 262.908 294.082 262.57 294.082 262.199ZM297.703 259.656V265H296.619V258.66H297.674L297.703 259.656ZM299.684 258.625L299.678 259.633C299.588 259.613 299.502 259.602 299.42 259.598C299.342 259.59 299.252 259.586 299.151 259.586C298.901 259.586 298.68 259.625 298.489 259.703C298.297 259.781 298.135 259.891 298.002 260.031C297.869 260.172 297.764 260.34 297.686 260.535C297.612 260.727 297.563 260.938 297.539 261.168L297.235 261.344C297.235 260.961 297.272 260.602 297.346 260.266C297.424 259.93 297.543 259.633 297.703 259.375C297.864 259.113 298.067 258.91 298.313 258.766C298.563 258.617 298.86 258.543 299.203 258.543C299.281 258.543 299.371 258.553 299.473 258.572C299.574 258.588 299.645 258.605 299.684 258.625ZM304.565 263.77V256H305.655V265H304.658L304.565 263.77ZM300.299 261.9V261.777C300.299 261.293 300.358 260.854 300.475 260.459C300.596 260.061 300.766 259.719 300.985 259.434C301.207 259.148 301.471 258.93 301.776 258.777C302.084 258.621 302.428 258.543 302.807 258.543C303.205 258.543 303.553 258.613 303.85 258.754C304.151 258.891 304.405 259.092 304.612 259.357C304.823 259.619 304.989 259.936 305.11 260.307C305.231 260.678 305.315 261.098 305.362 261.566V262.105C305.319 262.57 305.235 262.988 305.11 263.359C304.989 263.73 304.823 264.047 304.612 264.309C304.405 264.57 304.151 264.771 303.85 264.912C303.549 265.049 303.198 265.117 302.795 265.117C302.424 265.117 302.084 265.037 301.776 264.877C301.471 264.717 301.207 264.492 300.985 264.203C300.766 263.914 300.596 263.574 300.475 263.184C300.358 262.789 300.299 262.361 300.299 261.9ZM301.389 261.777V261.9C301.389 262.217 301.42 262.514 301.483 262.791C301.549 263.068 301.651 263.312 301.787 263.523C301.924 263.734 302.098 263.9 302.309 264.021C302.52 264.139 302.772 264.197 303.065 264.197C303.424 264.197 303.719 264.121 303.949 263.969C304.184 263.816 304.371 263.615 304.512 263.365C304.653 263.115 304.762 262.844 304.84 262.551V261.139C304.793 260.924 304.725 260.717 304.635 260.518C304.549 260.314 304.436 260.135 304.295 259.979C304.158 259.818 303.989 259.691 303.785 259.598C303.586 259.504 303.35 259.457 303.076 259.457C302.78 259.457 302.524 259.52 302.309 259.645C302.098 259.766 301.924 259.934 301.787 260.148C301.651 260.359 301.549 260.605 301.483 260.887C301.42 261.164 301.389 261.461 301.389 261.777ZM309.973 265.117C309.531 265.117 309.131 265.043 308.772 264.895C308.416 264.742 308.11 264.529 307.852 264.256C307.598 263.982 307.403 263.658 307.266 263.283C307.129 262.908 307.061 262.498 307.061 262.053V261.807C307.061 261.291 307.137 260.832 307.289 260.43C307.442 260.023 307.649 259.68 307.91 259.398C308.172 259.117 308.469 258.904 308.801 258.76C309.133 258.615 309.477 258.543 309.832 258.543C310.285 258.543 310.676 258.621 311.004 258.777C311.336 258.934 311.608 259.152 311.819 259.434C312.03 259.711 312.186 260.039 312.287 260.418C312.389 260.793 312.44 261.203 312.44 261.648V262.135H307.705V261.25H311.356V261.168C311.34 260.887 311.281 260.613 311.18 260.348C311.082 260.082 310.926 259.863 310.711 259.691C310.496 259.52 310.203 259.434 309.832 259.434C309.586 259.434 309.36 259.486 309.153 259.592C308.946 259.693 308.768 259.846 308.619 260.049C308.471 260.252 308.356 260.5 308.274 260.793C308.192 261.086 308.151 261.424 308.151 261.807V262.053C308.151 262.354 308.192 262.637 308.274 262.902C308.36 263.164 308.483 263.395 308.643 263.594C308.807 263.793 309.004 263.949 309.235 264.062C309.469 264.176 309.735 264.232 310.031 264.232C310.414 264.232 310.739 264.154 311.004 263.998C311.27 263.842 311.502 263.633 311.701 263.371L312.358 263.893C312.221 264.1 312.047 264.297 311.836 264.484C311.625 264.672 311.365 264.824 311.057 264.941C310.752 265.059 310.391 265.117 309.973 265.117ZM314.789 259.656V265H313.705V258.66H314.76L314.789 259.656ZM316.77 258.625L316.764 259.633C316.674 259.613 316.588 259.602 316.506 259.598C316.428 259.59 316.338 259.586 316.237 259.586C315.987 259.586 315.766 259.625 315.574 259.703C315.383 259.781 315.221 259.891 315.088 260.031C314.955 260.172 314.85 260.34 314.772 260.535C314.698 260.727 314.649 260.938 314.625 261.168L314.321 261.344C314.321 260.961 314.358 260.602 314.432 260.266C314.51 259.93 314.629 259.633 314.789 259.375C314.949 259.113 315.153 258.91 315.399 258.766C315.649 258.617 315.946 258.543 316.289 258.543C316.367 258.543 316.457 258.553 316.559 258.572C316.66 258.588 316.731 258.605 316.77 258.625ZM318.949 258.66V265H317.86V258.66H318.949ZM317.778 256.979C317.778 256.803 317.83 256.654 317.936 256.533C318.045 256.412 318.205 256.352 318.416 256.352C318.623 256.352 318.781 256.412 318.891 256.533C319.004 256.654 319.061 256.803 319.061 256.979C319.061 257.146 319.004 257.291 318.891 257.412C318.781 257.529 318.623 257.588 318.416 257.588C318.205 257.588 318.045 257.529 317.936 257.412C317.83 257.291 317.778 257.146 317.778 256.979ZM321.774 260.014V265H320.69V258.66H321.715L321.774 260.014ZM321.516 261.59L321.065 261.572C321.069 261.139 321.133 260.738 321.258 260.371C321.383 260 321.559 259.678 321.785 259.404C322.012 259.131 322.281 258.92 322.594 258.771C322.91 258.619 323.26 258.543 323.643 258.543C323.955 258.543 324.237 258.586 324.487 258.672C324.737 258.754 324.949 258.887 325.125 259.07C325.305 259.254 325.442 259.492 325.535 259.785C325.629 260.074 325.676 260.428 325.676 260.846V265H324.586V260.834C324.586 260.502 324.537 260.236 324.44 260.037C324.342 259.834 324.199 259.688 324.012 259.598C323.824 259.504 323.594 259.457 323.321 259.457C323.051 259.457 322.805 259.514 322.582 259.627C322.364 259.74 322.174 259.896 322.014 260.096C321.858 260.295 321.735 260.523 321.645 260.781C321.559 261.035 321.516 261.305 321.516 261.59ZM331.43 258.66H332.414V264.865C332.414 265.424 332.301 265.9 332.074 266.295C331.848 266.689 331.531 266.988 331.125 267.191C330.723 267.398 330.258 267.502 329.731 267.502C329.512 267.502 329.254 267.467 328.957 267.396C328.664 267.33 328.375 267.215 328.09 267.051C327.809 266.891 327.573 266.674 327.381 266.4L327.949 265.756C328.215 266.076 328.492 266.299 328.781 266.424C329.074 266.549 329.364 266.611 329.649 266.611C329.992 266.611 330.289 266.547 330.539 266.418C330.789 266.289 330.983 266.098 331.119 265.844C331.26 265.594 331.33 265.285 331.33 264.918V260.055L331.43 258.66ZM327.065 261.9V261.777C327.065 261.293 327.121 260.854 327.235 260.459C327.352 260.061 327.518 259.719 327.733 259.434C327.951 259.148 328.215 258.93 328.524 258.777C328.832 258.621 329.18 258.543 329.567 258.543C329.965 258.543 330.313 258.613 330.61 258.754C330.91 258.891 331.164 259.092 331.371 259.357C331.582 259.619 331.748 259.936 331.869 260.307C331.99 260.678 332.074 261.098 332.121 261.566V262.105C332.078 262.57 331.994 262.988 331.869 263.359C331.748 263.73 331.582 264.047 331.371 264.309C331.164 264.57 330.91 264.771 330.61 264.912C330.309 265.049 329.957 265.117 329.555 265.117C329.176 265.117 328.832 265.037 328.524 264.877C328.219 264.717 327.957 264.492 327.739 264.203C327.52 263.914 327.352 263.574 327.235 263.184C327.121 262.789 327.065 262.361 327.065 261.9ZM328.149 261.777V261.9C328.149 262.217 328.18 262.514 328.242 262.791C328.309 263.068 328.408 263.312 328.541 263.523C328.678 263.734 328.852 263.9 329.063 264.021C329.274 264.139 329.526 264.197 329.819 264.197C330.178 264.197 330.475 264.121 330.709 263.969C330.944 263.816 331.129 263.615 331.266 263.365C331.406 263.115 331.516 262.844 331.594 262.551V261.139C331.551 260.924 331.485 260.717 331.395 260.518C331.309 260.314 331.196 260.135 331.055 259.979C330.918 259.818 330.748 259.691 330.545 259.598C330.342 259.504 330.104 259.457 329.83 259.457C329.533 259.457 329.278 259.52 329.063 259.645C328.852 259.766 328.678 259.934 328.541 260.148C328.408 260.359 328.309 260.605 328.242 260.887C328.18 261.164 328.149 261.461 328.149 261.777Z" fill="black"/>
<rect x="295" y="287" width="6" height="6" fill="black"/>
<rect x="295" y="317" width="6" height="6" fill="black"/>
<path d="M293 225.5H353V224.5H293V225.5ZM372.5 245V337H373.5V245H372.5ZM353 356.5H293V357.5H353V356.5ZM273.5 337V245H272.5V337H273.5ZM293 356.5C282.23 356.5 273.5 347.77 273.5 337H272.5C272.5 348.322 281.678 357.5 293 357.5V356.5ZM372.5 337C372.5 347.77 363.77 356.5 353 356.5V357.5C364.322 357.5 373.5 348.322 373.5 337H372.5ZM353 225.5C363.77 225.5 372.5 234.23 372.5 245H373.5C373.5 233.678 364.322 224.5 353 224.5V225.5ZM293 224.5C281.678 224.5 272.5 233.678 272.5 245H273.5C273.5 234.23 282.23 225.5 293 225.5V224.5Z" fill="black"/>
</svg>
