<svg width="547" height="696" viewBox="0 0 547 696" fill="none" xmlns="http://www.w3.org/2000/svg">
<rect width="92" height="0.999996" transform="matrix(-4.37114e-08 -1 -1 4.37114e-08 276 298.108)" fill="black"/>
<rect width="129.419" height="1" transform="matrix(0.707107 -0.707107 -0.707107 -0.707107 275.595 207.22)" fill="black"/>
<rect x="275.115" y="206.822" width="128.856" height="1" transform="rotate(-135 275.115 206.822)" fill="black"/>
<circle r="12" transform="matrix(1 0 0 -1 275.5 206.608)" fill="white" stroke="black"/>
<path fill-rule="evenodd" clip-rule="evenodd" d="M267 253C267 254.182 267.233 255.352 267.685 256.444C268.137 257.536 268.8 258.528 269.636 259.364C270.472 260.2 271.464 260.863 272.556 261.315C273.648 261.767 274.818 262 276 262V263C274.687 263 273.386 262.741 272.173 262.239C270.96 261.736 269.858 261 268.929 260.071C268 259.142 267.264 258.04 266.761 256.827C266.259 255.614 266 254.313 266 253H267Z" fill="black"/>
<path fill-rule="evenodd" clip-rule="evenodd" d="M284 253C284 254.182 283.767 255.352 283.315 256.444C282.863 257.536 282.2 258.528 281.364 259.364C280.528 260.2 279.536 260.863 278.444 261.315C277.352 261.767 276.182 262 275 262V263C276.313 263 277.614 262.741 278.827 262.239C280.04 261.736 281.142 261 282.071 260.071C283 259.142 283.736 258.04 284.239 256.827C284.741 255.614 285 254.313 285 253H284Z" fill="black"/>
<path fill-rule="evenodd" clip-rule="evenodd" d="M283 253C283 254.051 282.793 255.091 282.391 256.061C281.989 257.032 281.4 257.914 280.657 258.657C279.914 259.4 279.032 259.989 278.061 260.391C277.091 260.793 276.051 261 275 261V262C276.182 262 277.352 261.767 278.444 261.315C279.536 260.863 280.528 260.2 281.364 259.364C282.2 258.528 282.863 257.536 283.315 256.444C283.767 255.352 284 254.182 284 253H283Z" fill="black"/>
<path fill-rule="evenodd" clip-rule="evenodd" d="M268 253C268 254.051 268.207 255.091 268.609 256.061C269.011 257.032 269.6 257.914 270.343 258.657C271.086 259.4 271.968 259.989 272.939 260.391C273.909 260.793 274.949 261 276 261V262C274.818 262 273.648 261.767 272.556 261.315C271.464 260.863 270.472 260.2 269.636 259.364C268.8 258.528 268.137 257.536 267.685 256.444C267.233 255.352 267 254.182 267 253H268Z" fill="black"/>
<rect width="12" height="2" transform="matrix(4.37114e-08 1 1 -4.37114e-08 283 241)" fill="black"/>
<rect width="12" height="2" transform="matrix(4.37114e-08 1 1 -4.37114e-08 266 241)" fill="black"/>
<path d="M277.15 202.998H278.088V207.808C278.088 208.342 277.969 208.786 277.731 209.141C277.494 209.496 277.178 209.763 276.784 209.942C276.394 210.117 275.969 210.205 275.51 210.205C275.028 210.205 274.592 210.117 274.201 209.942C273.814 209.763 273.506 209.496 273.278 209.141C273.054 208.786 272.941 208.342 272.941 207.808V202.998H273.874V207.808C273.874 208.179 273.942 208.485 274.079 208.726C274.216 208.967 274.406 209.146 274.65 209.263C274.898 209.38 275.184 209.439 275.51 209.439C275.839 209.439 276.125 209.38 276.369 209.263C276.617 209.146 276.809 208.967 276.945 208.726C277.082 208.485 277.15 208.179 277.15 207.808V202.998Z" fill="black"/>
<rect x="130.5" y="15.5" width="99" height="99" fill="#CFCFCF" stroke="black"/>
<path d="M164.305 66.7676C164.305 66.6152 164.281 66.4785 164.234 66.3574C164.191 66.2324 164.109 66.1191 163.988 66.0176C163.867 65.9121 163.697 65.8086 163.479 65.707C163.26 65.6055 162.977 65.5 162.629 65.3906C162.242 65.2656 161.875 65.125 161.527 64.9688C161.184 64.8125 160.879 64.6309 160.613 64.4238C160.352 64.2129 160.145 63.9688 159.992 63.6914C159.844 63.4141 159.77 63.0918 159.77 62.7246C159.77 62.3691 159.848 62.0469 160.004 61.7578C160.16 61.4648 160.379 61.2148 160.66 61.0078C160.941 60.7969 161.273 60.6348 161.656 60.5215C162.043 60.4082 162.467 60.3516 162.928 60.3516C163.557 60.3516 164.105 60.4648 164.574 60.6914C165.043 60.918 165.406 61.2285 165.664 61.623C165.926 62.0176 166.057 62.4688 166.057 62.9766H164.311C164.311 62.7266 164.258 62.5078 164.152 62.3203C164.051 62.1289 163.895 61.9785 163.684 61.8691C163.477 61.7598 163.215 61.7051 162.898 61.7051C162.594 61.7051 162.34 61.752 162.137 61.8457C161.934 61.9355 161.781 62.0586 161.68 62.2148C161.578 62.3672 161.527 62.5391 161.527 62.7305C161.527 62.875 161.562 63.0059 161.633 63.123C161.707 63.2402 161.816 63.3496 161.961 63.4512C162.105 63.5527 162.283 63.6484 162.494 63.7383C162.705 63.8281 162.949 63.916 163.227 64.002C163.691 64.1426 164.1 64.3008 164.451 64.4766C164.807 64.6523 165.104 64.8496 165.342 65.0684C165.58 65.2871 165.76 65.5352 165.881 65.8125C166.002 66.0898 166.062 66.4043 166.062 66.7559C166.062 67.127 165.99 67.459 165.846 67.752C165.701 68.0449 165.492 68.293 165.219 68.4961C164.945 68.6992 164.619 68.8535 164.24 68.959C163.861 69.0645 163.438 69.1172 162.969 69.1172C162.547 69.1172 162.131 69.0625 161.721 68.9531C161.311 68.8398 160.938 68.6699 160.602 68.4434C160.27 68.2168 160.004 67.9277 159.805 67.5762C159.605 67.2246 159.506 66.8086 159.506 66.3281H161.27C161.27 66.5938 161.311 66.8184 161.393 67.002C161.475 67.1855 161.59 67.334 161.738 67.4473C161.891 67.5605 162.07 67.6426 162.277 67.6934C162.488 67.7441 162.719 67.7695 162.969 67.7695C163.273 67.7695 163.523 67.7266 163.719 67.6406C163.918 67.5547 164.064 67.4355 164.158 67.2832C164.256 67.1309 164.305 66.959 164.305 66.7676ZM170.07 69.1172C169.578 69.1172 169.137 69.0391 168.746 68.8828C168.355 68.7227 168.023 68.502 167.75 68.2207C167.48 67.9395 167.273 67.6133 167.129 67.2422C166.984 66.8672 166.912 66.4688 166.912 66.0469V65.8125C166.912 65.332 166.98 64.8926 167.117 64.4941C167.254 64.0957 167.449 63.75 167.703 63.457C167.961 63.1641 168.273 62.9395 168.641 62.7832C169.008 62.623 169.422 62.543 169.883 62.543C170.332 62.543 170.73 62.6172 171.078 62.7656C171.426 62.9141 171.717 63.125 171.951 63.3984C172.189 63.6719 172.369 64 172.49 64.3828C172.611 64.7617 172.672 65.1836 172.672 65.6484V66.3516H167.633V65.2266H171.014V65.0977C171.014 64.8633 170.971 64.6543 170.885 64.4707C170.803 64.2832 170.678 64.1348 170.51 64.0254C170.342 63.916 170.127 63.8613 169.865 63.8613C169.643 63.8613 169.451 63.9102 169.291 64.0078C169.131 64.1055 169 64.2422 168.898 64.418C168.801 64.5938 168.727 64.8008 168.676 65.0391C168.629 65.2734 168.605 65.5312 168.605 65.8125V66.0469C168.605 66.3008 168.641 66.5352 168.711 66.75C168.785 66.9648 168.889 67.1504 169.021 67.3066C169.158 67.4629 169.322 67.584 169.514 67.6699C169.709 67.7559 169.93 67.7988 170.176 67.7988C170.48 67.7988 170.764 67.7402 171.025 67.623C171.291 67.502 171.52 67.3203 171.711 67.0781L172.531 67.9688C172.398 68.1602 172.217 68.3438 171.986 68.5195C171.76 68.6953 171.486 68.8398 171.166 68.9531C170.846 69.0625 170.48 69.1172 170.07 69.1172ZM175.414 60V69H173.721V60H175.414ZM180.236 67.248C180.236 67.127 180.201 67.0176 180.131 66.9199C180.061 66.8223 179.93 66.7324 179.738 66.6504C179.551 66.5645 179.279 66.4863 178.924 66.416C178.604 66.3457 178.305 66.2578 178.027 66.1523C177.754 66.043 177.516 65.9121 177.312 65.7598C177.113 65.6074 176.957 65.4277 176.844 65.2207C176.73 65.0098 176.674 64.7695 176.674 64.5C176.674 64.2344 176.73 63.9844 176.844 63.75C176.961 63.5156 177.127 63.3086 177.342 63.1289C177.561 62.9453 177.826 62.8027 178.139 62.7012C178.455 62.5957 178.811 62.543 179.205 62.543C179.756 62.543 180.229 62.6309 180.623 62.8066C181.021 62.9824 181.326 63.2246 181.537 63.5332C181.752 63.8379 181.859 64.1855 181.859 64.5762H180.172C180.172 64.4121 180.137 64.2656 180.066 64.1367C180 64.0039 179.895 63.9004 179.75 63.8262C179.609 63.748 179.426 63.709 179.199 63.709C179.012 63.709 178.85 63.7422 178.713 63.8086C178.576 63.8711 178.471 63.957 178.396 64.0664C178.326 64.1719 178.291 64.2891 178.291 64.418C178.291 64.5156 178.311 64.6035 178.35 64.6816C178.393 64.7559 178.461 64.8242 178.555 64.8867C178.648 64.9492 178.77 65.0078 178.918 65.0625C179.07 65.1133 179.258 65.1602 179.48 65.2031C179.938 65.2969 180.346 65.4199 180.705 65.5723C181.064 65.7207 181.35 65.9238 181.561 66.1816C181.771 66.4355 181.877 66.7695 181.877 67.1836C181.877 67.4648 181.814 67.7227 181.689 67.957C181.564 68.1914 181.385 68.3965 181.15 68.5723C180.916 68.7441 180.635 68.8789 180.307 68.9766C179.982 69.0703 179.617 69.1172 179.211 69.1172C178.621 69.1172 178.121 69.0117 177.711 68.8008C177.305 68.5898 176.996 68.3223 176.785 67.998C176.578 67.6699 176.475 67.334 176.475 66.9902H178.074C178.082 67.2207 178.141 67.4062 178.25 67.5469C178.363 67.6875 178.506 67.7891 178.678 67.8516C178.854 67.9141 179.043 67.9453 179.246 67.9453C179.465 67.9453 179.646 67.916 179.791 67.8574C179.936 67.7949 180.045 67.7129 180.119 67.6113C180.197 67.5059 180.236 67.3848 180.236 67.248ZM184.66 59.9941V69H182.973V59.9941H184.66ZM188.656 62.6602L185.902 65.8008L184.426 67.2949L183.811 66.0762L184.982 64.5879L186.629 62.6602H188.656ZM186.904 69L185.029 66.0703L186.195 65.0508L188.85 69H186.904ZM192.805 67.5703V64.7461C192.805 64.543 192.771 64.3691 192.705 64.2246C192.639 64.0762 192.535 63.9609 192.395 63.8789C192.258 63.7969 192.08 63.7559 191.861 63.7559C191.674 63.7559 191.512 63.7891 191.375 63.8555C191.238 63.918 191.133 64.0098 191.059 64.1309C190.984 64.248 190.947 64.3867 190.947 64.5469H189.26C189.26 64.2773 189.322 64.0215 189.447 63.7793C189.572 63.5371 189.754 63.3242 189.992 63.1406C190.23 62.9531 190.514 62.8066 190.842 62.7012C191.174 62.5957 191.545 62.543 191.955 62.543C192.447 62.543 192.885 62.625 193.268 62.7891C193.65 62.9531 193.951 63.1992 194.17 63.5273C194.393 63.8555 194.504 64.2656 194.504 64.7578V67.4707C194.504 67.8184 194.525 68.1035 194.568 68.3262C194.611 68.5449 194.674 68.7363 194.756 68.9004V69H193.051C192.969 68.8281 192.906 68.6133 192.863 68.3555C192.824 68.0938 192.805 67.832 192.805 67.5703ZM193.027 65.1387L193.039 66.0938H192.096C191.873 66.0938 191.68 66.1191 191.516 66.1699C191.352 66.2207 191.217 66.293 191.111 66.3867C191.006 66.4766 190.928 66.582 190.877 66.7031C190.83 66.8242 190.807 66.957 190.807 67.1016C190.807 67.2461 190.84 67.377 190.906 67.4941C190.973 67.6074 191.068 67.6973 191.193 67.7637C191.318 67.8262 191.465 67.8574 191.633 67.8574C191.887 67.8574 192.107 67.8066 192.295 67.7051C192.482 67.6035 192.627 67.4785 192.729 67.3301C192.834 67.1816 192.889 67.041 192.893 66.9082L193.338 67.623C193.275 67.7832 193.189 67.9492 193.08 68.1211C192.975 68.293 192.84 68.4551 192.676 68.6074C192.512 68.7559 192.314 68.8789 192.084 68.9766C191.854 69.0703 191.58 69.1172 191.264 69.1172C190.861 69.1172 190.496 69.0371 190.168 68.877C189.844 68.7129 189.586 68.4883 189.395 68.2031C189.207 67.9141 189.113 67.5859 189.113 67.2188C189.113 66.8867 189.176 66.5918 189.301 66.334C189.426 66.0762 189.609 65.8594 189.852 65.6836C190.098 65.5039 190.404 65.3691 190.771 65.2793C191.139 65.1855 191.564 65.1387 192.049 65.1387H193.027ZM197.492 63.8789V71.4375H195.805V62.6602H197.369L197.492 63.8789ZM201.506 65.7598V65.8828C201.506 66.3438 201.451 66.7715 201.342 67.166C201.236 67.5605 201.08 67.9043 200.873 68.1973C200.666 68.4863 200.408 68.7129 200.1 68.877C199.795 69.0371 199.443 69.1172 199.045 69.1172C198.658 69.1172 198.322 69.0391 198.037 68.8828C197.752 68.7266 197.512 68.5078 197.316 68.2266C197.125 67.9414 196.971 67.6113 196.854 67.2363C196.736 66.8613 196.646 66.459 196.584 66.0293V65.707C196.646 65.2461 196.736 64.8242 196.854 64.4414C196.971 64.0547 197.125 63.7207 197.316 63.4395C197.512 63.1543 197.75 62.9336 198.031 62.7773C198.316 62.6211 198.65 62.543 199.033 62.543C199.436 62.543 199.789 62.6191 200.094 62.7715C200.402 62.9238 200.66 63.1426 200.867 63.4277C201.078 63.7129 201.236 64.0527 201.342 64.4473C201.451 64.8418 201.506 65.2793 201.506 65.7598ZM199.812 65.8828V65.7598C199.812 65.4902 199.789 65.2422 199.742 65.0156C199.699 64.7852 199.629 64.584 199.531 64.4121C199.438 64.2402 199.312 64.1074 199.156 64.0137C199.004 63.916 198.818 63.8672 198.6 63.8672C198.369 63.8672 198.172 63.9043 198.008 63.9785C197.848 64.0527 197.717 64.1602 197.615 64.3008C197.514 64.4414 197.438 64.6094 197.387 64.8047C197.336 65 197.305 65.2207 197.293 65.4668V66.2812C197.312 66.5703 197.367 66.8301 197.457 67.0605C197.547 67.2871 197.686 67.4668 197.873 67.5996C198.061 67.7324 198.307 67.7988 198.611 67.7988C198.834 67.7988 199.021 67.75 199.174 67.6523C199.326 67.5508 199.449 67.4121 199.543 67.2363C199.641 67.0605 199.709 66.8574 199.748 66.627C199.791 66.3965 199.812 66.1484 199.812 65.8828Z" fill="black"/>
<rect x="317.5" y="15.5" width="99" height="99" fill="#CFCFCF" stroke="black"/>
<path d="M352.488 65.959H350.314V64.5879H352.488C352.824 64.5879 353.098 64.5332 353.309 64.4238C353.52 64.3105 353.674 64.1543 353.771 63.9551C353.869 63.7559 353.918 63.5312 353.918 63.2812C353.918 63.0273 353.869 62.791 353.771 62.5723C353.674 62.3535 353.52 62.1777 353.309 62.0449C353.098 61.9121 352.824 61.8457 352.488 61.8457H350.924V69H349.166V60.4688H352.488C353.156 60.4688 353.729 60.5898 354.205 60.832C354.686 61.0703 355.053 61.4004 355.307 61.8223C355.561 62.2441 355.688 62.7266 355.688 63.2695C355.688 63.8203 355.561 64.2969 355.307 64.6992C355.053 65.1016 354.686 65.4121 354.205 65.6309C353.729 65.8496 353.156 65.959 352.488 65.959ZM359.631 69.1172C359.139 69.1172 358.697 69.0391 358.307 68.8828C357.916 68.7227 357.584 68.502 357.311 68.2207C357.041 67.9395 356.834 67.6133 356.689 67.2422C356.545 66.8672 356.473 66.4688 356.473 66.0469V65.8125C356.473 65.332 356.541 64.8926 356.678 64.4941C356.814 64.0957 357.01 63.75 357.264 63.457C357.521 63.1641 357.834 62.9395 358.201 62.7832C358.568 62.623 358.982 62.543 359.443 62.543C359.893 62.543 360.291 62.6172 360.639 62.7656C360.986 62.9141 361.277 63.125 361.512 63.3984C361.75 63.6719 361.93 64 362.051 64.3828C362.172 64.7617 362.232 65.1836 362.232 65.6484V66.3516H357.193V65.2266H360.574V65.0977C360.574 64.8633 360.531 64.6543 360.445 64.4707C360.363 64.2832 360.238 64.1348 360.07 64.0254C359.902 63.916 359.688 63.8613 359.426 63.8613C359.203 63.8613 359.012 63.9102 358.852 64.0078C358.691 64.1055 358.561 64.2422 358.459 64.418C358.361 64.5938 358.287 64.8008 358.236 65.0391C358.189 65.2734 358.166 65.5312 358.166 65.8125V66.0469C358.166 66.3008 358.201 66.5352 358.271 66.75C358.346 66.9648 358.449 67.1504 358.582 67.3066C358.719 67.4629 358.883 67.584 359.074 67.6699C359.27 67.7559 359.49 67.7988 359.736 67.7988C360.041 67.7988 360.324 67.7402 360.586 67.623C360.852 67.502 361.08 67.3203 361.271 67.0781L362.092 67.9688C361.959 68.1602 361.777 68.3438 361.547 68.5195C361.32 68.6953 361.047 68.8398 360.727 68.9531C360.406 69.0625 360.041 69.1172 359.631 69.1172ZM364.881 64.043V69H363.193V62.6602H364.781L364.881 64.043ZM366.791 62.6191L366.762 64.1836C366.68 64.1719 366.58 64.1621 366.463 64.1543C366.35 64.1426 366.246 64.1367 366.152 64.1367C365.914 64.1367 365.707 64.168 365.531 64.2305C365.359 64.2891 365.215 64.377 365.098 64.4941C364.984 64.6113 364.898 64.7539 364.84 64.9219C364.785 65.0898 364.754 65.2812 364.746 65.4961L364.406 65.3906C364.406 64.9805 364.447 64.6035 364.529 64.2598C364.611 63.9121 364.73 63.6094 364.887 63.3516C365.047 63.0938 365.242 62.8945 365.473 62.7539C365.703 62.6133 365.967 62.543 366.264 62.543C366.357 62.543 366.453 62.5508 366.551 62.5664C366.648 62.5781 366.729 62.5957 366.791 62.6191ZM371.016 67.248C371.016 67.127 370.98 67.0176 370.91 66.9199C370.84 66.8223 370.709 66.7324 370.518 66.6504C370.33 66.5645 370.059 66.4863 369.703 66.416C369.383 66.3457 369.084 66.2578 368.807 66.1523C368.533 66.043 368.295 65.9121 368.092 65.7598C367.893 65.6074 367.736 65.4277 367.623 65.2207C367.51 65.0098 367.453 64.7695 367.453 64.5C367.453 64.2344 367.51 63.9844 367.623 63.75C367.74 63.5156 367.906 63.3086 368.121 63.1289C368.34 62.9453 368.605 62.8027 368.918 62.7012C369.234 62.5957 369.59 62.543 369.984 62.543C370.535 62.543 371.008 62.6309 371.402 62.8066C371.801 62.9824 372.105 63.2246 372.316 63.5332C372.531 63.8379 372.639 64.1855 372.639 64.5762H370.951C370.951 64.4121 370.916 64.2656 370.846 64.1367C370.779 64.0039 370.674 63.9004 370.529 63.8262C370.389 63.748 370.205 63.709 369.979 63.709C369.791 63.709 369.629 63.7422 369.492 63.8086C369.355 63.8711 369.25 63.957 369.176 64.0664C369.105 64.1719 369.07 64.2891 369.07 64.418C369.07 64.5156 369.09 64.6035 369.129 64.6816C369.172 64.7559 369.24 64.8242 369.334 64.8867C369.428 64.9492 369.549 65.0078 369.697 65.0625C369.85 65.1133 370.037 65.1602 370.26 65.2031C370.717 65.2969 371.125 65.4199 371.484 65.5723C371.844 65.7207 372.129 65.9238 372.34 66.1816C372.551 66.4355 372.656 66.7695 372.656 67.1836C372.656 67.4648 372.594 67.7227 372.469 67.957C372.344 68.1914 372.164 68.3965 371.93 68.5723C371.695 68.7441 371.414 68.8789 371.086 68.9766C370.762 69.0703 370.396 69.1172 369.99 69.1172C369.4 69.1172 368.9 69.0117 368.49 68.8008C368.084 68.5898 367.775 68.3223 367.564 67.998C367.357 67.6699 367.254 67.334 367.254 66.9902H368.854C368.861 67.2207 368.92 67.4062 369.029 67.5469C369.143 67.6875 369.285 67.7891 369.457 67.8516C369.633 67.9141 369.822 67.9453 370.025 67.9453C370.244 67.9453 370.426 67.916 370.57 67.8574C370.715 67.7949 370.824 67.7129 370.898 67.6113C370.977 67.5059 371.016 67.3848 371.016 67.248ZM373.482 65.8945V65.7715C373.482 65.3066 373.549 64.8789 373.682 64.4883C373.814 64.0938 374.008 63.752 374.262 63.4629C374.516 63.1738 374.828 62.9492 375.199 62.7891C375.57 62.625 375.996 62.543 376.477 62.543C376.957 62.543 377.385 62.625 377.76 62.7891C378.135 62.9492 378.449 63.1738 378.703 63.4629C378.961 63.752 379.156 64.0938 379.289 64.4883C379.422 64.8789 379.488 65.3066 379.488 65.7715V65.8945C379.488 66.3555 379.422 66.7832 379.289 67.1777C379.156 67.5684 378.961 67.9102 378.703 68.2031C378.449 68.4922 378.137 68.7168 377.766 68.877C377.395 69.0371 376.969 69.1172 376.488 69.1172C376.008 69.1172 375.58 69.0371 375.205 68.877C374.834 68.7168 374.52 68.4922 374.262 68.2031C374.008 67.9102 373.814 67.5684 373.682 67.1777C373.549 66.7832 373.482 66.3555 373.482 65.8945ZM375.17 65.7715V65.8945C375.17 66.1602 375.193 66.4082 375.24 66.6387C375.287 66.8691 375.361 67.0723 375.463 67.248C375.568 67.4199 375.705 67.5547 375.873 67.6523C376.041 67.75 376.246 67.7988 376.488 67.7988C376.723 67.7988 376.924 67.75 377.092 67.6523C377.26 67.5547 377.395 67.4199 377.496 67.248C377.598 67.0723 377.672 66.8691 377.719 66.6387C377.77 66.4082 377.795 66.1602 377.795 65.8945V65.7715C377.795 65.5137 377.77 65.2715 377.719 65.0449C377.672 64.8145 377.596 64.6113 377.49 64.4355C377.389 64.2559 377.254 64.1152 377.086 64.0137C376.918 63.9121 376.715 63.8613 376.477 63.8613C376.238 63.8613 376.035 63.9121 375.867 64.0137C375.703 64.1152 375.568 64.2559 375.463 64.4355C375.361 64.6113 375.287 64.8145 375.24 65.0449C375.193 65.2715 375.17 65.5137 375.17 65.7715ZM382.178 64.0137V69H380.49V62.6602H382.072L382.178 64.0137ZM381.932 65.6074H381.475C381.475 65.1387 381.535 64.7168 381.656 64.3418C381.777 63.9629 381.947 63.6406 382.166 63.375C382.385 63.1055 382.645 62.9004 382.945 62.7598C383.25 62.6152 383.59 62.543 383.965 62.543C384.262 62.543 384.533 62.5859 384.779 62.6719C385.025 62.7578 385.236 62.8945 385.412 63.082C385.592 63.2695 385.729 63.5176 385.822 63.8262C385.92 64.1348 385.969 64.5117 385.969 64.957V69H384.27V64.9512C384.27 64.6699 384.23 64.4512 384.152 64.2949C384.074 64.1387 383.959 64.0293 383.807 63.9668C383.658 63.9004 383.475 63.8672 383.256 63.8672C383.029 63.8672 382.832 63.9121 382.664 64.002C382.5 64.0918 382.363 64.2168 382.254 64.377C382.148 64.5332 382.068 64.7168 382.014 64.9277C381.959 65.1387 381.932 65.3652 381.932 65.6074Z" fill="black"/>
<path d="M467 15L417 65" stroke="black"/>
<rect x="417" y="65" width="50" height="1" fill="black"/>
<rect x="467.5" y="0.5" width="79" height="29" rx="14.5" fill="#F0F0F0" stroke="black"/>
<path d="M486.048 10.8906V18H485.105V10.8906H486.048ZM489.026 14.0889V14.8604H485.843V14.0889H489.026ZM489.51 10.8906V11.6621H485.843V10.8906H489.51ZM494.607 12.0967L491.37 18.6592H490.77L494.007 12.0967H494.607ZM490.257 15.417V15.3047C490.257 14.9238 490.312 14.5706 490.423 14.2451C490.534 13.9163 490.693 13.6315 490.901 13.3906C491.11 13.1465 491.362 12.9577 491.658 12.8242C491.954 12.6875 492.286 12.6191 492.654 12.6191C493.025 12.6191 493.359 12.6875 493.655 12.8242C493.955 12.9577 494.209 13.1465 494.417 13.3906C494.625 13.6315 494.785 13.9163 494.896 14.2451C495.006 14.5706 495.062 14.9238 495.062 15.3047V15.417C495.062 15.7979 495.006 16.151 494.896 16.4766C494.785 16.8021 494.625 17.0869 494.417 17.3311C494.209 17.5719 493.956 17.7607 493.66 17.8975C493.367 18.0309 493.035 18.0977 492.664 18.0977C492.293 18.0977 491.959 18.0309 491.663 17.8975C491.367 17.7607 491.113 17.5719 490.901 17.3311C490.693 17.0869 490.534 16.8021 490.423 16.4766C490.312 16.151 490.257 15.7979 490.257 15.417ZM491.16 15.3047V15.417C491.16 15.6807 491.191 15.9297 491.253 16.1641C491.315 16.3952 491.408 16.6003 491.531 16.7793C491.658 16.9583 491.816 17.0999 492.005 17.2041C492.194 17.305 492.413 17.3555 492.664 17.3555C492.911 17.3555 493.128 17.305 493.313 17.2041C493.502 17.0999 493.659 16.9583 493.782 16.7793C493.906 16.6003 493.999 16.3952 494.061 16.1641C494.126 15.9297 494.158 15.6807 494.158 15.417V15.3047C494.158 15.0443 494.126 14.7985 494.061 14.5674C493.999 14.333 493.904 14.1263 493.777 13.9473C493.654 13.765 493.497 13.6217 493.309 13.5176C493.123 13.4134 492.905 13.3613 492.654 13.3613C492.407 13.3613 492.189 13.4134 492 13.5176C491.814 13.6217 491.658 13.765 491.531 13.9473C491.408 14.1263 491.315 14.333 491.253 14.5674C491.191 14.7985 491.16 15.0443 491.16 15.3047ZM499.5 16.9746V10.5H500.408V18H499.578L499.5 16.9746ZM495.945 15.417V15.3145C495.945 14.9108 495.994 14.5446 496.092 14.2158C496.193 13.8838 496.334 13.599 496.517 13.3613C496.702 13.1237 496.922 12.9414 497.176 12.8145C497.433 12.6842 497.719 12.6191 498.035 12.6191C498.367 12.6191 498.657 12.6777 498.904 12.7949C499.155 12.9089 499.367 13.0765 499.539 13.2979C499.715 13.516 499.853 13.7796 499.954 14.0889C500.055 14.3981 500.125 14.748 500.164 15.1387V15.5879C500.128 15.9753 500.058 16.3236 499.954 16.6328C499.853 16.9421 499.715 17.2057 499.539 17.4238C499.367 17.6419 499.155 17.8096 498.904 17.9268C498.654 18.0407 498.361 18.0977 498.025 18.0977C497.716 18.0977 497.433 18.0309 497.176 17.8975C496.922 17.764 496.702 17.5768 496.517 17.3359C496.334 17.0951 496.193 16.8118 496.092 16.4863C495.994 16.1576 495.945 15.8011 495.945 15.417ZM496.854 15.3145V15.417C496.854 15.6807 496.88 15.9281 496.932 16.1592C496.987 16.3903 497.072 16.5938 497.186 16.7695C497.299 16.9453 497.444 17.0837 497.62 17.1846C497.796 17.2822 498.006 17.3311 498.25 17.3311C498.549 17.3311 498.795 17.2676 498.987 17.1406C499.183 17.0137 499.339 16.846 499.456 16.6377C499.573 16.4294 499.664 16.2031 499.729 15.959V14.7822C499.69 14.6032 499.633 14.4307 499.559 14.2646C499.487 14.0954 499.393 13.9456 499.275 13.8154C499.161 13.682 499.02 13.5762 498.851 13.498C498.685 13.4199 498.488 13.3809 498.26 13.3809C498.012 13.3809 497.799 13.4329 497.62 13.5371C497.444 13.638 497.299 13.778 497.186 13.957C497.072 14.1328 496.987 14.3379 496.932 14.5723C496.88 14.8034 496.854 15.0508 496.854 15.3145ZM504.891 16.5986C504.891 16.4684 504.861 16.348 504.803 16.2373C504.747 16.1234 504.632 16.0208 504.456 15.9297C504.284 15.8353 504.023 15.7539 503.675 15.6855C503.382 15.6237 503.117 15.5505 502.879 15.4658C502.645 15.3812 502.444 15.2786 502.278 15.1582C502.116 15.0378 501.99 14.8962 501.902 14.7334C501.814 14.5706 501.771 14.3802 501.771 14.1621C501.771 13.9538 501.816 13.7568 501.907 13.5713C502.002 13.3857 502.133 13.2214 502.303 13.0781C502.475 12.9349 502.682 12.8226 502.923 12.7412C503.164 12.6598 503.432 12.6191 503.729 12.6191C504.152 12.6191 504.513 12.694 504.812 12.8438C505.112 12.9935 505.341 13.1937 505.501 13.4443C505.66 13.6917 505.74 13.9668 505.74 14.2695H504.837C504.837 14.123 504.793 13.9814 504.705 13.8447C504.62 13.7048 504.495 13.5892 504.329 13.498C504.166 13.4069 503.966 13.3613 503.729 13.3613C503.478 13.3613 503.274 13.4004 503.118 13.4785C502.965 13.5534 502.853 13.6494 502.781 13.7666C502.713 13.8838 502.679 14.0075 502.679 14.1377C502.679 14.2354 502.695 14.3232 502.728 14.4014C502.763 14.4762 502.825 14.5462 502.913 14.6113C503.001 14.6732 503.125 14.7318 503.284 14.7871C503.444 14.8424 503.647 14.8978 503.895 14.9531C504.327 15.0508 504.684 15.168 504.964 15.3047C505.244 15.4414 505.452 15.609 505.589 15.8076C505.726 16.0062 505.794 16.2471 505.794 16.5303C505.794 16.7614 505.745 16.973 505.647 17.165C505.553 17.3571 505.415 17.5231 505.232 17.6631C505.053 17.7998 504.839 17.9072 504.588 17.9854C504.34 18.0602 504.062 18.0977 503.753 18.0977C503.287 18.0977 502.894 18.0146 502.571 17.8486C502.249 17.6826 502.005 17.4678 501.839 17.2041C501.673 16.9404 501.59 16.6621 501.59 16.3691H502.498C502.511 16.6165 502.583 16.8135 502.713 16.96C502.843 17.1032 503.003 17.2057 503.191 17.2676C503.38 17.3262 503.567 17.3555 503.753 17.3555C504 17.3555 504.207 17.3229 504.373 17.2578C504.542 17.1927 504.671 17.1032 504.759 16.9893C504.847 16.8753 504.891 16.7451 504.891 16.5986ZM509.173 18.0977C508.805 18.0977 508.471 18.0358 508.172 17.9121C507.876 17.7852 507.62 17.6077 507.405 17.3799C507.194 17.152 507.031 16.8818 506.917 16.5693C506.803 16.2568 506.746 15.915 506.746 15.5439V15.3389C506.746 14.9092 506.81 14.5267 506.937 14.1914C507.063 13.8529 507.236 13.5664 507.454 13.332C507.672 13.0977 507.92 12.9202 508.196 12.7998C508.473 12.6794 508.759 12.6191 509.056 12.6191C509.433 12.6191 509.759 12.6842 510.032 12.8145C510.309 12.9447 510.535 13.127 510.711 13.3613C510.887 13.5924 511.017 13.8659 511.102 14.1816C511.186 14.4941 511.229 14.8359 511.229 15.207V15.6123H507.283V14.875H510.325V14.8066C510.312 14.5723 510.263 14.3444 510.179 14.123C510.097 13.9017 509.967 13.7194 509.788 13.5762C509.609 13.4329 509.365 13.3613 509.056 13.3613C508.851 13.3613 508.662 13.4053 508.489 13.4932C508.317 13.5778 508.169 13.7048 508.045 13.874C507.921 14.0433 507.825 14.25 507.757 14.4941C507.688 14.7383 507.654 15.0199 507.654 15.3389V15.5439C507.654 15.7946 507.688 16.0306 507.757 16.252C507.828 16.4701 507.931 16.6621 508.064 16.8281C508.201 16.9941 508.366 17.1243 508.558 17.2188C508.753 17.3132 508.974 17.3604 509.222 17.3604C509.541 17.3604 509.811 17.2952 510.032 17.165C510.254 17.0348 510.447 16.8607 510.613 16.6426L511.16 17.0771C511.046 17.2497 510.901 17.4141 510.726 17.5703C510.55 17.7266 510.333 17.8535 510.076 17.9512C509.822 18.0488 509.521 18.0977 509.173 18.0977ZM513.265 10.5V18H512.356V10.5H513.265ZM517.791 16.5986C517.791 16.4684 517.762 16.348 517.703 16.2373C517.648 16.1234 517.532 16.0208 517.356 15.9297C517.184 15.8353 516.924 15.7539 516.575 15.6855C516.282 15.6237 516.017 15.5505 515.779 15.4658C515.545 15.3812 515.345 15.2786 515.179 15.1582C515.016 15.0378 514.891 14.8962 514.803 14.7334C514.715 14.5706 514.671 14.3802 514.671 14.1621C514.671 13.9538 514.716 13.7568 514.808 13.5713C514.902 13.3857 515.034 13.2214 515.203 13.0781C515.376 12.9349 515.582 12.8226 515.823 12.7412C516.064 12.6598 516.333 12.6191 516.629 12.6191C517.052 12.6191 517.413 12.694 517.713 12.8438C518.012 12.9935 518.242 13.1937 518.401 13.4443C518.561 13.6917 518.641 13.9668 518.641 14.2695H517.737C517.737 14.123 517.693 13.9814 517.605 13.8447C517.521 13.7048 517.396 13.5892 517.229 13.498C517.067 13.4069 516.867 13.3613 516.629 13.3613C516.378 13.3613 516.175 13.4004 516.019 13.4785C515.866 13.5534 515.753 13.6494 515.682 13.7666C515.613 13.8838 515.579 14.0075 515.579 14.1377C515.579 14.2354 515.595 14.3232 515.628 14.4014C515.664 14.4762 515.726 14.5462 515.813 14.6113C515.901 14.6732 516.025 14.7318 516.185 14.7871C516.344 14.8424 516.548 14.8978 516.795 14.9531C517.228 15.0508 517.584 15.168 517.864 15.3047C518.144 15.4414 518.353 15.609 518.489 15.8076C518.626 16.0062 518.694 16.2471 518.694 16.5303C518.694 16.7614 518.646 16.973 518.548 17.165C518.453 17.3571 518.315 17.5231 518.133 17.6631C517.954 17.7998 517.739 17.9072 517.488 17.9854C517.241 18.0602 516.963 18.0977 516.653 18.0977C516.188 18.0977 515.794 18.0146 515.472 17.8486C515.149 17.6826 514.905 17.4678 514.739 17.2041C514.573 16.9404 514.49 16.6621 514.49 16.3691H515.398C515.411 16.6165 515.483 16.8135 515.613 16.96C515.743 17.1032 515.903 17.2057 516.092 17.2676C516.281 17.3262 516.468 17.3555 516.653 17.3555C516.901 17.3555 517.107 17.3229 517.273 17.2578C517.443 17.1927 517.571 17.1032 517.659 16.9893C517.747 16.8753 517.791 16.7451 517.791 16.5986ZM525.486 10.8906V18H524.539L520.96 12.5166V18H520.018V10.8906H520.96L524.554 16.3887V10.8906H525.486ZM527.923 13.5469V18H527.02V12.7168H527.898L527.923 13.5469ZM529.573 12.6875L529.568 13.5273C529.493 13.5111 529.422 13.5013 529.354 13.498C529.288 13.4915 529.214 13.4883 529.129 13.4883C528.921 13.4883 528.737 13.5208 528.577 13.5859C528.418 13.651 528.283 13.7422 528.172 13.8594C528.061 13.9766 527.973 14.1165 527.908 14.2793C527.846 14.4388 527.806 14.6146 527.786 14.8066L527.532 14.9531C527.532 14.6341 527.563 14.3346 527.625 14.0547C527.69 13.7747 527.789 13.5273 527.923 13.3125C528.056 13.0944 528.226 12.9251 528.431 12.8047C528.639 12.681 528.886 12.6191 529.173 12.6191C529.238 12.6191 529.313 12.6273 529.397 12.6436C529.482 12.6566 529.541 12.6712 529.573 12.6875Z" fill="black"/>
<path d="M484.28 18.9766H529.72V19.4648H484.28V18.9766Z" fill="black"/>
<rect x="467.5" y="50.5" width="79" height="29" rx="14.5" fill="#F0F0F0" stroke="black"/>
<path d="M502.358 60.8906V68H501.411L497.832 62.5166V68H496.89V60.8906H497.832L501.426 66.3887V60.8906H502.358ZM507.007 67.0967V64.377C507.007 64.1686 506.965 63.988 506.88 63.835C506.799 63.6787 506.675 63.5583 506.509 63.4736C506.343 63.389 506.138 63.3467 505.894 63.3467C505.666 63.3467 505.465 63.3857 505.293 63.4639C505.124 63.542 504.99 63.6445 504.893 63.7715C504.798 63.8984 504.751 64.0352 504.751 64.1816H503.848C503.848 63.9928 503.896 63.8057 503.994 63.6201C504.092 63.4346 504.232 63.2669 504.414 63.1172C504.6 62.9642 504.821 62.8438 505.078 62.7559C505.339 62.6647 505.628 62.6191 505.947 62.6191C506.331 62.6191 506.67 62.6842 506.963 62.8145C507.259 62.9447 507.49 63.1416 507.656 63.4053C507.826 63.6657 507.91 63.9928 507.91 64.3867V66.8477C507.91 67.0234 507.925 67.2106 507.954 67.4092C507.987 67.6077 508.034 67.7786 508.096 67.9219V68H507.153C507.108 67.8958 507.072 67.7575 507.046 67.585C507.02 67.4092 507.007 67.2464 507.007 67.0967ZM507.163 64.7969L507.173 65.4316H506.26C506.003 65.4316 505.773 65.4528 505.571 65.4951C505.369 65.5342 505.2 65.5944 505.063 65.6758C504.927 65.7572 504.823 65.8597 504.751 65.9834C504.679 66.1038 504.644 66.2454 504.644 66.4082C504.644 66.5742 504.681 66.7256 504.756 66.8623C504.831 66.999 504.943 67.1081 505.093 67.1895C505.246 67.2676 505.433 67.3066 505.654 67.3066C505.931 67.3066 506.175 67.248 506.387 67.1309C506.598 67.0137 506.766 66.8704 506.89 66.7012C507.017 66.5319 507.085 66.3675 507.095 66.208L507.48 66.6426C507.458 66.7793 507.396 66.9307 507.295 67.0967C507.194 67.2627 507.059 67.4222 506.89 67.5752C506.724 67.7249 506.525 67.8503 506.294 67.9512C506.066 68.0488 505.809 68.0977 505.522 68.0977C505.164 68.0977 504.85 68.0277 504.58 67.8877C504.313 67.7477 504.105 67.5605 503.955 67.3262C503.809 67.0885 503.735 66.8232 503.735 66.5303C503.735 66.2471 503.791 65.998 503.901 65.7832C504.012 65.5651 504.172 65.3844 504.38 65.2412C504.588 65.0947 504.839 64.984 505.132 64.9092C505.425 64.8343 505.752 64.7969 506.113 64.7969H507.163ZM510.859 67.1846L512.305 62.7168H513.228L511.328 68H510.723L510.859 67.1846ZM509.653 62.7168L511.143 67.209L511.245 68H510.64L508.726 62.7168H509.653ZM515 63.8447V68H514.097V62.7168H514.951L515 63.8447ZM514.785 65.1582L514.409 65.1436C514.412 64.7822 514.466 64.4486 514.57 64.1426C514.674 63.8333 514.821 63.5648 515.01 63.3369C515.199 63.109 515.423 62.9333 515.684 62.8096C515.947 62.6826 516.239 62.6191 516.558 62.6191C516.818 62.6191 517.052 62.6549 517.261 62.7266C517.469 62.7949 517.646 62.9056 517.793 63.0586C517.943 63.2116 518.057 63.4102 518.135 63.6543C518.213 63.8952 518.252 64.1898 518.252 64.5381V68H517.344V64.5283C517.344 64.2516 517.303 64.0303 517.222 63.8643C517.14 63.695 517.021 63.5729 516.865 63.498C516.709 63.4199 516.517 63.3809 516.289 63.3809C516.064 63.3809 515.859 63.4281 515.674 63.5225C515.492 63.6169 515.334 63.7471 515.2 63.9131C515.07 64.0791 514.967 64.2695 514.893 64.4844C514.821 64.696 514.785 64.9206 514.785 65.1582Z" fill="black"/>
<rect x="225.5" y="581.5" width="99" height="99" fill="#CFCFCF" stroke="black"/>
<path d="M265.279 631.256H263.088L263.076 630.049H264.916C265.24 630.049 265.506 630.008 265.713 629.926C265.92 629.84 266.074 629.717 266.176 629.557C266.281 629.393 266.334 629.193 266.334 628.959C266.334 628.693 266.283 628.479 266.182 628.314C266.084 628.15 265.93 628.031 265.719 627.957C265.512 627.883 265.244 627.846 264.916 627.846H263.697V635H261.939V626.469H264.916C265.412 626.469 265.855 626.516 266.246 626.609C266.641 626.703 266.975 626.846 267.248 627.037C267.521 627.229 267.73 627.471 267.875 627.764C268.02 628.053 268.092 628.396 268.092 628.795C268.092 629.146 268.012 629.471 267.852 629.768C267.695 630.064 267.447 630.307 267.107 630.494C266.771 630.682 266.332 630.785 265.789 630.805L265.279 631.256ZM265.203 635H262.607L263.293 633.629H265.203C265.512 633.629 265.764 633.58 265.959 633.482C266.154 633.381 266.299 633.244 266.393 633.072C266.486 632.9 266.533 632.703 266.533 632.48C266.533 632.23 266.49 632.014 266.404 631.83C266.322 631.646 266.189 631.506 266.006 631.408C265.822 631.307 265.58 631.256 265.279 631.256H263.586L263.598 630.049H265.707L266.111 630.523C266.631 630.516 267.049 630.607 267.365 630.799C267.686 630.986 267.918 631.23 268.062 631.531C268.211 631.832 268.285 632.154 268.285 632.498C268.285 633.045 268.166 633.506 267.928 633.881C267.689 634.252 267.34 634.531 266.879 634.719C266.422 634.906 265.863 635 265.203 635ZM269.229 631.895V631.771C269.229 631.307 269.295 630.879 269.428 630.488C269.561 630.094 269.754 629.752 270.008 629.463C270.262 629.174 270.574 628.949 270.945 628.789C271.316 628.625 271.742 628.543 272.223 628.543C272.703 628.543 273.131 628.625 273.506 628.789C273.881 628.949 274.195 629.174 274.449 629.463C274.707 629.752 274.902 630.094 275.035 630.488C275.168 630.879 275.234 631.307 275.234 631.771V631.895C275.234 632.355 275.168 632.783 275.035 633.178C274.902 633.568 274.707 633.91 274.449 634.203C274.195 634.492 273.883 634.717 273.512 634.877C273.141 635.037 272.715 635.117 272.234 635.117C271.754 635.117 271.326 635.037 270.951 634.877C270.58 634.717 270.266 634.492 270.008 634.203C269.754 633.91 269.561 633.568 269.428 633.178C269.295 632.783 269.229 632.355 269.229 631.895ZM270.916 631.771V631.895C270.916 632.16 270.939 632.408 270.986 632.639C271.033 632.869 271.107 633.072 271.209 633.248C271.314 633.42 271.451 633.555 271.619 633.652C271.787 633.75 271.992 633.799 272.234 633.799C272.469 633.799 272.67 633.75 272.838 633.652C273.006 633.555 273.141 633.42 273.242 633.248C273.344 633.072 273.418 632.869 273.465 632.639C273.516 632.408 273.541 632.16 273.541 631.895V631.771C273.541 631.514 273.516 631.271 273.465 631.045C273.418 630.814 273.342 630.611 273.236 630.436C273.135 630.256 273 630.115 272.832 630.014C272.664 629.912 272.461 629.861 272.223 629.861C271.984 629.861 271.781 629.912 271.613 630.014C271.449 630.115 271.314 630.256 271.209 630.436C271.107 630.611 271.033 630.814 270.986 631.045C270.939 631.271 270.916 631.514 270.916 631.771ZM278.053 626V635H276.359V626H278.053ZM281.229 628.66V635H279.535V628.66H281.229ZM279.43 627.008C279.43 626.762 279.516 626.559 279.688 626.398C279.859 626.238 280.09 626.158 280.379 626.158C280.664 626.158 280.893 626.238 281.064 626.398C281.24 626.559 281.328 626.762 281.328 627.008C281.328 627.254 281.24 627.457 281.064 627.617C280.893 627.777 280.664 627.857 280.379 627.857C280.09 627.857 279.859 627.777 279.688 627.617C279.516 627.457 279.43 627.254 279.43 627.008ZM286.637 628.66H288.166V634.789C288.166 635.367 288.037 635.857 287.779 636.26C287.525 636.666 287.17 636.973 286.713 637.18C286.256 637.391 285.725 637.496 285.119 637.496C284.854 637.496 284.572 637.461 284.275 637.391C283.982 637.32 283.701 637.211 283.432 637.062C283.166 636.914 282.943 636.727 282.764 636.5L283.508 635.504C283.703 635.73 283.93 635.906 284.188 636.031C284.445 636.16 284.73 636.225 285.043 636.225C285.348 636.225 285.605 636.168 285.816 636.055C286.027 635.945 286.189 635.783 286.303 635.568C286.416 635.357 286.473 635.102 286.473 634.801V630.125L286.637 628.66ZM282.371 631.906V631.783C282.371 631.299 282.43 630.859 282.547 630.465C282.668 630.066 282.838 629.725 283.057 629.439C283.279 629.154 283.549 628.934 283.865 628.777C284.182 628.621 284.539 628.543 284.938 628.543C285.359 628.543 285.713 628.621 285.998 628.777C286.283 628.934 286.518 629.156 286.701 629.445C286.885 629.73 287.027 630.068 287.129 630.459C287.234 630.846 287.316 631.27 287.375 631.73V632C287.316 632.441 287.229 632.852 287.111 633.23C286.994 633.609 286.84 633.941 286.648 634.227C286.457 634.508 286.219 634.727 285.934 634.883C285.652 635.039 285.316 635.117 284.926 635.117C284.535 635.117 284.182 635.037 283.865 634.877C283.553 634.717 283.285 634.492 283.062 634.203C282.84 633.914 282.668 633.574 282.547 633.184C282.43 632.793 282.371 632.367 282.371 631.906ZM284.059 631.783V631.906C284.059 632.168 284.084 632.412 284.135 632.639C284.186 632.865 284.264 633.066 284.369 633.242C284.479 633.414 284.613 633.549 284.773 633.646C284.938 633.74 285.131 633.787 285.354 633.787C285.662 633.787 285.914 633.723 286.109 633.594C286.305 633.461 286.451 633.279 286.549 633.049C286.646 632.818 286.703 632.553 286.719 632.252V631.484C286.711 631.238 286.678 631.018 286.619 630.822C286.561 630.623 286.479 630.453 286.373 630.312C286.268 630.172 286.131 630.062 285.963 629.984C285.795 629.906 285.596 629.867 285.365 629.867C285.143 629.867 284.949 629.918 284.785 630.02C284.625 630.117 284.49 630.252 284.381 630.424C284.275 630.596 284.195 630.799 284.141 631.033C284.086 631.264 284.059 631.514 284.059 631.783Z" fill="black"/>
<path d="M375 581L325 631" stroke="black"/>
<rect x="325" y="631" width="50" height="1" fill="black"/>
<rect x="375.5" y="566.5" width="79" height="29" rx="14.5" fill="#F0F0F0" stroke="black"/>
<path d="M402.51 580.675H400.708L400.698 579.918H402.334C402.604 579.918 402.84 579.872 403.042 579.781C403.244 579.69 403.4 579.56 403.511 579.391C403.625 579.218 403.682 579.013 403.682 578.775C403.682 578.515 403.631 578.303 403.53 578.141C403.433 577.975 403.281 577.854 403.076 577.779C402.874 577.701 402.617 577.662 402.305 577.662H400.918V584H399.976V576.891H402.305C402.669 576.891 402.995 576.928 403.281 577.003C403.568 577.075 403.81 577.188 404.009 577.345C404.211 577.498 404.364 577.693 404.468 577.931C404.572 578.168 404.624 578.453 404.624 578.785C404.624 579.078 404.549 579.343 404.399 579.581C404.25 579.815 404.041 580.007 403.774 580.157C403.511 580.307 403.201 580.403 402.847 580.445L402.51 580.675ZM402.466 584H400.337L400.869 583.233H402.466C402.765 583.233 403.019 583.181 403.228 583.077C403.439 582.973 403.6 582.826 403.711 582.638C403.822 582.446 403.877 582.219 403.877 581.959C403.877 581.695 403.83 581.467 403.735 581.275C403.641 581.083 403.493 580.935 403.291 580.831C403.089 580.727 402.829 580.675 402.51 580.675H401.167L401.177 579.918H403.013L403.213 580.191C403.555 580.221 403.844 580.318 404.082 580.484C404.32 580.647 404.5 580.855 404.624 581.109C404.751 581.363 404.814 581.643 404.814 581.949C404.814 582.392 404.717 582.766 404.521 583.072C404.329 583.375 404.058 583.606 403.706 583.766C403.354 583.922 402.941 584 402.466 584ZM405.83 581.417V581.305C405.83 580.924 405.885 580.571 405.996 580.245C406.107 579.916 406.266 579.632 406.475 579.391C406.683 579.146 406.935 578.958 407.231 578.824C407.528 578.688 407.86 578.619 408.228 578.619C408.599 578.619 408.932 578.688 409.229 578.824C409.528 578.958 409.782 579.146 409.99 579.391C410.202 579.632 410.363 579.916 410.474 580.245C410.584 580.571 410.64 580.924 410.64 581.305V581.417C410.64 581.798 410.584 582.151 410.474 582.477C410.363 582.802 410.202 583.087 409.99 583.331C409.782 583.572 409.53 583.761 409.233 583.897C408.94 584.031 408.608 584.098 408.237 584.098C407.866 584.098 407.533 584.031 407.236 583.897C406.94 583.761 406.686 583.572 406.475 583.331C406.266 583.087 406.107 582.802 405.996 582.477C405.885 582.151 405.83 581.798 405.83 581.417ZM406.733 581.305V581.417C406.733 581.681 406.764 581.93 406.826 582.164C406.888 582.395 406.981 582.6 407.104 582.779C407.231 582.958 407.389 583.1 407.578 583.204C407.767 583.305 407.987 583.355 408.237 583.355C408.485 583.355 408.701 583.305 408.887 583.204C409.076 583.1 409.232 582.958 409.355 582.779C409.479 582.6 409.572 582.395 409.634 582.164C409.699 581.93 409.731 581.681 409.731 581.417V581.305C409.731 581.044 409.699 580.799 409.634 580.567C409.572 580.333 409.478 580.126 409.351 579.947C409.227 579.765 409.071 579.622 408.882 579.518C408.696 579.413 408.478 579.361 408.228 579.361C407.98 579.361 407.762 579.413 407.573 579.518C407.388 579.622 407.231 579.765 407.104 579.947C406.981 580.126 406.888 580.333 406.826 580.567C406.764 580.799 406.733 581.044 406.733 581.305ZM412.754 576.5V584H411.846V576.5H412.754ZM415.186 578.717V584H414.277V578.717H415.186ZM414.209 577.315C414.209 577.169 414.253 577.045 414.341 576.944C414.432 576.843 414.565 576.793 414.741 576.793C414.914 576.793 415.046 576.843 415.137 576.944C415.231 577.045 415.278 577.169 415.278 577.315C415.278 577.455 415.231 577.576 415.137 577.677C415.046 577.774 414.914 577.823 414.741 577.823C414.565 577.823 414.432 577.774 414.341 577.677C414.253 577.576 414.209 577.455 414.209 577.315ZM420.059 578.717H420.879V583.888C420.879 584.353 420.785 584.75 420.596 585.079C420.407 585.408 420.143 585.657 419.805 585.826C419.469 585.999 419.082 586.085 418.643 586.085C418.46 586.085 418.245 586.056 417.998 585.997C417.754 585.942 417.513 585.846 417.275 585.709C417.041 585.576 416.844 585.395 416.685 585.167L417.158 584.63C417.38 584.897 417.611 585.082 417.852 585.187C418.096 585.291 418.337 585.343 418.574 585.343C418.861 585.343 419.108 585.289 419.316 585.182C419.525 585.074 419.686 584.915 419.8 584.703C419.917 584.495 419.976 584.238 419.976 583.932V579.879L420.059 578.717ZM416.421 581.417V581.314C416.421 580.911 416.468 580.545 416.562 580.216C416.66 579.884 416.799 579.599 416.978 579.361C417.16 579.124 417.38 578.941 417.637 578.814C417.894 578.684 418.184 578.619 418.506 578.619C418.838 578.619 419.128 578.678 419.375 578.795C419.626 578.909 419.837 579.076 420.01 579.298C420.186 579.516 420.324 579.78 420.425 580.089C420.526 580.398 420.596 580.748 420.635 581.139V581.588C420.599 581.975 420.529 582.324 420.425 582.633C420.324 582.942 420.186 583.206 420.01 583.424C419.837 583.642 419.626 583.81 419.375 583.927C419.124 584.041 418.831 584.098 418.496 584.098C418.18 584.098 417.894 584.031 417.637 583.897C417.383 583.764 417.165 583.577 416.982 583.336C416.8 583.095 416.66 582.812 416.562 582.486C416.468 582.158 416.421 581.801 416.421 581.417ZM417.324 581.314V581.417C417.324 581.681 417.35 581.928 417.402 582.159C417.458 582.39 417.541 582.594 417.651 582.77C417.765 582.945 417.91 583.084 418.086 583.185C418.262 583.282 418.472 583.331 418.716 583.331C419.015 583.331 419.263 583.268 419.458 583.141C419.653 583.014 419.808 582.846 419.922 582.638C420.039 582.429 420.13 582.203 420.195 581.959V580.782C420.16 580.603 420.104 580.431 420.029 580.265C419.958 580.095 419.863 579.946 419.746 579.815C419.632 579.682 419.491 579.576 419.321 579.498C419.152 579.42 418.953 579.381 418.726 579.381C418.478 579.381 418.265 579.433 418.086 579.537C417.91 579.638 417.765 579.778 417.651 579.957C417.541 580.133 417.458 580.338 417.402 580.572C417.35 580.803 417.324 581.051 417.324 581.314ZM423.398 576.891V584H422.456V576.891H423.398ZM427.036 584H425.552L425.562 583.233H427.036C427.544 583.233 427.967 583.128 428.306 582.916C428.644 582.701 428.898 582.402 429.067 582.018C429.24 581.63 429.326 581.178 429.326 580.66V580.226C429.326 579.819 429.277 579.457 429.18 579.142C429.082 578.823 428.939 578.554 428.75 578.336C428.561 578.115 428.33 577.947 428.057 577.833C427.786 577.719 427.476 577.662 427.124 577.662H425.522V576.891H427.124C427.59 576.891 428.014 576.969 428.398 577.125C428.783 577.278 429.113 577.501 429.39 577.794C429.67 578.084 429.884 578.435 430.034 578.849C430.184 579.259 430.259 579.721 430.259 580.235V580.66C430.259 581.174 430.184 581.638 430.034 582.052C429.884 582.462 429.668 582.812 429.385 583.102C429.105 583.391 428.766 583.614 428.369 583.771C427.975 583.924 427.531 584 427.036 584ZM426.055 576.891V584H425.112V576.891H426.055Z" fill="black"/>
<path d="M399.15 584.977H430.85V585.465H399.15V584.977Z" fill="black"/>
<rect x="375.5" y="616.5" width="79" height="29" rx="14.5" fill="#F0F0F0" stroke="black"/>
<path d="M400.759 627.521L398.405 634H397.443L400.153 626.891H400.773L400.759 627.521ZM402.731 634L400.373 627.521L400.358 626.891H400.979L403.698 634H402.731ZM402.609 631.368V632.14H398.615V631.368H402.609ZM407.844 632.975V626.5H408.752V634H407.922L407.844 632.975ZM404.289 631.417V631.314C404.289 630.911 404.338 630.545 404.436 630.216C404.536 629.884 404.678 629.599 404.86 629.361C405.046 629.124 405.266 628.941 405.52 628.814C405.777 628.684 406.063 628.619 406.379 628.619C406.711 628.619 407.001 628.678 407.248 628.795C407.499 628.909 407.71 629.076 407.883 629.298C408.059 629.516 408.197 629.78 408.298 630.089C408.399 630.398 408.469 630.748 408.508 631.139V631.588C408.472 631.975 408.402 632.324 408.298 632.633C408.197 632.942 408.059 633.206 407.883 633.424C407.71 633.642 407.499 633.81 407.248 633.927C406.997 634.041 406.704 634.098 406.369 634.098C406.06 634.098 405.777 634.031 405.52 633.897C405.266 633.764 405.046 633.577 404.86 633.336C404.678 633.095 404.536 632.812 404.436 632.486C404.338 632.158 404.289 631.801 404.289 631.417ZM405.197 631.314V631.417C405.197 631.681 405.223 631.928 405.275 632.159C405.331 632.39 405.415 632.594 405.529 632.77C405.643 632.945 405.788 633.084 405.964 633.185C406.14 633.282 406.35 633.331 406.594 633.331C406.893 633.331 407.139 633.268 407.331 633.141C407.526 633.014 407.683 632.846 407.8 632.638C407.917 632.429 408.008 632.203 408.073 631.959V630.782C408.034 630.603 407.977 630.431 407.902 630.265C407.831 630.095 407.736 629.946 407.619 629.815C407.505 629.682 407.364 629.576 407.194 629.498C407.028 629.42 406.831 629.381 406.604 629.381C406.356 629.381 406.143 629.433 405.964 629.537C405.788 629.638 405.643 629.778 405.529 629.957C405.415 630.133 405.331 630.338 405.275 630.572C405.223 630.803 405.197 631.051 405.197 631.314ZM411.062 629.547V634H410.158V628.717H411.037L411.062 629.547ZM412.712 628.688L412.707 629.527C412.632 629.511 412.561 629.501 412.492 629.498C412.427 629.492 412.352 629.488 412.268 629.488C412.059 629.488 411.875 629.521 411.716 629.586C411.556 629.651 411.421 629.742 411.311 629.859C411.2 629.977 411.112 630.117 411.047 630.279C410.985 630.439 410.944 630.615 410.925 630.807L410.671 630.953C410.671 630.634 410.702 630.335 410.764 630.055C410.829 629.775 410.928 629.527 411.062 629.312C411.195 629.094 411.364 628.925 411.569 628.805C411.778 628.681 412.025 628.619 412.312 628.619C412.377 628.619 412.451 628.627 412.536 628.644C412.621 628.657 412.679 628.671 412.712 628.688ZM415.642 634.098C415.274 634.098 414.94 634.036 414.641 633.912C414.344 633.785 414.089 633.608 413.874 633.38C413.662 633.152 413.5 632.882 413.386 632.569C413.272 632.257 413.215 631.915 413.215 631.544V631.339C413.215 630.909 413.278 630.527 413.405 630.191C413.532 629.853 413.705 629.566 413.923 629.332C414.141 629.098 414.388 628.92 414.665 628.8C414.942 628.679 415.228 628.619 415.524 628.619C415.902 628.619 416.228 628.684 416.501 628.814C416.778 628.945 417.004 629.127 417.18 629.361C417.355 629.592 417.486 629.866 417.57 630.182C417.655 630.494 417.697 630.836 417.697 631.207V631.612H413.752V630.875H416.794V630.807C416.781 630.572 416.732 630.344 416.647 630.123C416.566 629.902 416.436 629.719 416.257 629.576C416.078 629.433 415.834 629.361 415.524 629.361C415.319 629.361 415.131 629.405 414.958 629.493C414.785 629.578 414.637 629.705 414.514 629.874C414.39 630.043 414.294 630.25 414.226 630.494C414.157 630.738 414.123 631.02 414.123 631.339V631.544C414.123 631.795 414.157 632.031 414.226 632.252C414.297 632.47 414.4 632.662 414.533 632.828C414.67 632.994 414.834 633.124 415.026 633.219C415.222 633.313 415.443 633.36 415.69 633.36C416.009 633.36 416.28 633.295 416.501 633.165C416.722 633.035 416.916 632.861 417.082 632.643L417.629 633.077C417.515 633.25 417.37 633.414 417.194 633.57C417.019 633.727 416.802 633.854 416.545 633.951C416.291 634.049 415.99 634.098 415.642 634.098ZM421.828 632.599C421.828 632.468 421.799 632.348 421.74 632.237C421.685 632.123 421.569 632.021 421.394 631.93C421.221 631.835 420.961 631.754 420.612 631.686C420.319 631.624 420.054 631.55 419.816 631.466C419.582 631.381 419.382 631.279 419.216 631.158C419.053 631.038 418.928 630.896 418.84 630.733C418.752 630.571 418.708 630.38 418.708 630.162C418.708 629.954 418.754 629.757 418.845 629.571C418.939 629.386 419.071 629.221 419.24 629.078C419.413 628.935 419.619 628.823 419.86 628.741C420.101 628.66 420.37 628.619 420.666 628.619C421.089 628.619 421.451 628.694 421.75 628.844C422.049 628.993 422.279 629.194 422.438 629.444C422.598 629.692 422.678 629.967 422.678 630.27H421.774C421.774 630.123 421.73 629.981 421.643 629.845C421.558 629.705 421.433 629.589 421.267 629.498C421.104 629.407 420.904 629.361 420.666 629.361C420.415 629.361 420.212 629.4 420.056 629.479C419.903 629.553 419.79 629.649 419.719 629.767C419.65 629.884 419.616 630.007 419.616 630.138C419.616 630.235 419.632 630.323 419.665 630.401C419.701 630.476 419.763 630.546 419.851 630.611C419.938 630.673 420.062 630.732 420.222 630.787C420.381 630.842 420.585 630.898 420.832 630.953C421.265 631.051 421.621 631.168 421.901 631.305C422.181 631.441 422.39 631.609 422.526 631.808C422.663 632.006 422.731 632.247 422.731 632.53C422.731 632.761 422.683 632.973 422.585 633.165C422.491 633.357 422.352 633.523 422.17 633.663C421.991 633.8 421.776 633.907 421.525 633.985C421.278 634.06 421 634.098 420.69 634.098C420.225 634.098 419.831 634.015 419.509 633.849C419.187 633.683 418.942 633.468 418.776 633.204C418.61 632.94 418.527 632.662 418.527 632.369H419.436C419.449 632.617 419.52 632.813 419.65 632.96C419.781 633.103 419.94 633.206 420.129 633.268C420.318 633.326 420.505 633.355 420.69 633.355C420.938 633.355 421.145 633.323 421.311 633.258C421.48 633.193 421.608 633.103 421.696 632.989C421.784 632.875 421.828 632.745 421.828 632.599ZM426.994 632.599C426.994 632.468 426.965 632.348 426.906 632.237C426.851 632.123 426.735 632.021 426.56 631.93C426.387 631.835 426.127 631.754 425.778 631.686C425.485 631.624 425.22 631.55 424.982 631.466C424.748 631.381 424.548 631.279 424.382 631.158C424.219 631.038 424.094 630.896 424.006 630.733C423.918 630.571 423.874 630.38 423.874 630.162C423.874 629.954 423.92 629.757 424.011 629.571C424.105 629.386 424.237 629.221 424.406 629.078C424.579 628.935 424.785 628.823 425.026 628.741C425.267 628.66 425.536 628.619 425.832 628.619C426.255 628.619 426.617 628.694 426.916 628.844C427.215 628.993 427.445 629.194 427.604 629.444C427.764 629.692 427.844 629.967 427.844 630.27H426.94C426.94 630.123 426.896 629.981 426.809 629.845C426.724 629.705 426.599 629.589 426.433 629.498C426.27 629.407 426.07 629.361 425.832 629.361C425.581 629.361 425.378 629.4 425.222 629.479C425.069 629.553 424.956 629.649 424.885 629.767C424.816 629.884 424.782 630.007 424.782 630.138C424.782 630.235 424.799 630.323 424.831 630.401C424.867 630.476 424.929 630.546 425.017 630.611C425.104 630.673 425.228 630.732 425.388 630.787C425.547 630.842 425.751 630.898 425.998 630.953C426.431 631.051 426.787 631.168 427.067 631.305C427.347 631.441 427.556 631.609 427.692 631.808C427.829 632.006 427.897 632.247 427.897 632.53C427.897 632.761 427.849 632.973 427.751 633.165C427.657 633.357 427.518 633.523 427.336 633.663C427.157 633.8 426.942 633.907 426.691 633.985C426.444 634.06 426.166 634.098 425.856 634.098C425.391 634.098 424.997 634.015 424.675 633.849C424.353 633.683 424.108 633.468 423.942 633.204C423.776 632.94 423.693 632.662 423.693 632.369H424.602C424.615 632.617 424.686 632.813 424.816 632.96C424.947 633.103 425.106 633.206 425.295 633.268C425.484 633.326 425.671 633.355 425.856 633.355C426.104 633.355 426.311 633.323 426.477 633.258C426.646 633.193 426.774 633.103 426.862 632.989C426.95 632.875 426.994 632.745 426.994 632.599ZM431.276 634.098C430.909 634.098 430.575 634.036 430.275 633.912C429.979 633.785 429.724 633.608 429.509 633.38C429.297 633.152 429.134 632.882 429.021 632.569C428.907 632.257 428.85 631.915 428.85 631.544V631.339C428.85 630.909 428.913 630.527 429.04 630.191C429.167 629.853 429.34 629.566 429.558 629.332C429.776 629.098 430.023 628.92 430.3 628.8C430.576 628.679 430.863 628.619 431.159 628.619C431.537 628.619 431.862 628.684 432.136 628.814C432.412 628.945 432.639 629.127 432.814 629.361C432.99 629.592 433.12 629.866 433.205 630.182C433.29 630.494 433.332 630.836 433.332 631.207V631.612H429.387V630.875H432.429V630.807C432.416 630.572 432.367 630.344 432.282 630.123C432.201 629.902 432.071 629.719 431.892 629.576C431.713 629.433 431.468 629.361 431.159 629.361C430.954 629.361 430.765 629.405 430.593 629.493C430.42 629.578 430.272 629.705 430.148 629.874C430.025 630.043 429.929 630.25 429.86 630.494C429.792 630.738 429.758 631.02 429.758 631.339V631.544C429.758 631.795 429.792 632.031 429.86 632.252C429.932 632.47 430.035 632.662 430.168 632.828C430.305 632.994 430.469 633.124 430.661 633.219C430.856 633.313 431.078 633.36 431.325 633.36C431.644 633.36 431.914 633.295 432.136 633.165C432.357 633.035 432.551 632.861 432.717 632.643L433.264 633.077C433.15 633.25 433.005 633.414 432.829 633.57C432.653 633.727 432.437 633.854 432.18 633.951C431.926 634.049 431.625 634.098 431.276 634.098Z" fill="black"/>
<path d="M80 16L130 66" stroke="black"/>
<rect width="50" height="1" transform="matrix(-1 0 0 1 130 66)" fill="black"/>
<rect x="0.5" y="1.5" width="79" height="29" rx="14.5" fill="#F0F0F0" stroke="black"/>
<path d="M22.9902 17.2031C22.9902 17.0371 22.9642 16.8906 22.9121 16.7637C22.8633 16.6335 22.7754 16.5163 22.6484 16.4121C22.5247 16.3079 22.3522 16.2087 22.1309 16.1143C21.9128 16.0199 21.6361 15.9238 21.3008 15.8262C20.9492 15.722 20.6318 15.6064 20.3486 15.4795C20.0654 15.3493 19.8229 15.2012 19.6211 15.0352C19.4193 14.8691 19.2646 14.6787 19.1572 14.4639C19.0498 14.249 18.9961 14.0033 18.9961 13.7266C18.9961 13.4499 19.0531 13.1943 19.167 12.96C19.2809 12.7256 19.4437 12.5221 19.6553 12.3496C19.8701 12.1738 20.1257 12.0371 20.4219 11.9395C20.7181 11.8418 21.0485 11.793 21.4131 11.793C21.9469 11.793 22.3994 11.8955 22.7705 12.1006C23.1449 12.3024 23.4297 12.5677 23.625 12.8965C23.8203 13.222 23.918 13.5703 23.918 13.9414H22.9805C22.9805 13.6745 22.9235 13.4385 22.8096 13.2334C22.6956 13.0251 22.5231 12.8623 22.292 12.7451C22.0609 12.6247 21.7679 12.5645 21.4131 12.5645C21.0778 12.5645 20.8011 12.6149 20.583 12.7158C20.3649 12.8167 20.2021 12.9535 20.0947 13.126C19.9906 13.2985 19.9385 13.4954 19.9385 13.7168C19.9385 13.8665 19.9694 14.0033 20.0312 14.127C20.0964 14.2474 20.1956 14.3597 20.3291 14.4639C20.4658 14.568 20.6383 14.6641 20.8467 14.752C21.0583 14.8398 21.3105 14.9245 21.6035 15.0059C22.0072 15.1198 22.3555 15.2467 22.6484 15.3867C22.9414 15.5267 23.1823 15.6846 23.3711 15.8604C23.5632 16.0329 23.7048 16.2298 23.7959 16.4512C23.8903 16.6693 23.9375 16.9167 23.9375 17.1934C23.9375 17.4831 23.8789 17.7451 23.7617 17.9795C23.6445 18.2139 23.4769 18.4141 23.2588 18.5801C23.0407 18.7461 22.7786 18.8747 22.4727 18.9658C22.1699 19.0537 21.8314 19.0977 21.457 19.0977C21.1283 19.0977 20.8044 19.0521 20.4854 18.9609C20.1696 18.8698 19.8815 18.7331 19.6211 18.5508C19.3639 18.3685 19.1572 18.1439 19.001 17.877C18.848 17.6068 18.7715 17.2943 18.7715 16.9395H19.709C19.709 17.1836 19.7562 17.3936 19.8506 17.5693C19.945 17.7419 20.0736 17.8851 20.2363 17.999C20.4023 18.113 20.5895 18.1976 20.7979 18.2529C21.0094 18.305 21.2292 18.3311 21.457 18.3311C21.7858 18.3311 22.0641 18.2855 22.292 18.1943C22.5199 18.1032 22.6924 17.973 22.8096 17.8037C22.93 17.6344 22.9902 17.4342 22.9902 17.2031ZM27.1943 19.0977C26.8265 19.0977 26.4928 19.0358 26.1934 18.9121C25.8971 18.7852 25.6416 18.6077 25.4268 18.3799C25.2152 18.152 25.0524 17.8818 24.9385 17.5693C24.8245 17.2568 24.7676 16.915 24.7676 16.5439V16.3389C24.7676 15.9092 24.8311 15.5267 24.958 15.1914C25.085 14.8529 25.2575 14.5664 25.4756 14.332C25.6937 14.0977 25.9411 13.9202 26.2178 13.7998C26.4945 13.6794 26.7809 13.6191 27.0771 13.6191C27.4548 13.6191 27.7803 13.6842 28.0537 13.8145C28.3304 13.9447 28.5566 14.127 28.7324 14.3613C28.9082 14.5924 29.0384 14.8659 29.123 15.1816C29.2077 15.4941 29.25 15.8359 29.25 16.207V16.6123H25.3047V15.875H28.3467V15.8066C28.3337 15.5723 28.2848 15.3444 28.2002 15.123C28.1188 14.9017 27.9886 14.7194 27.8096 14.5762C27.6305 14.4329 27.3864 14.3613 27.0771 14.3613C26.8721 14.3613 26.6833 14.4053 26.5107 14.4932C26.3382 14.5778 26.1901 14.7048 26.0664 14.874C25.9427 15.0433 25.8467 15.25 25.7783 15.4941C25.71 15.7383 25.6758 16.0199 25.6758 16.3389V16.5439C25.6758 16.7946 25.71 17.0306 25.7783 17.252C25.8499 17.4701 25.9525 17.6621 26.0859 17.8281C26.2227 17.9941 26.387 18.1243 26.5791 18.2188C26.7744 18.3132 26.9958 18.3604 27.2432 18.3604C27.5622 18.3604 27.8324 18.2952 28.0537 18.165C28.2751 18.0348 28.4688 17.8607 28.6348 17.6426L29.1816 18.0771C29.0677 18.2497 28.9229 18.4141 28.7471 18.5703C28.5713 18.7266 28.3548 18.8535 28.0977 18.9512C27.8438 19.0488 27.5426 19.0977 27.1943 19.0977ZM31.2861 11.5V19H30.3779V11.5H31.2861ZM35.8125 17.5986C35.8125 17.4684 35.7832 17.348 35.7246 17.2373C35.6693 17.1234 35.5537 17.0208 35.3779 16.9297C35.2054 16.8353 34.945 16.7539 34.5967 16.6855C34.3037 16.6237 34.0384 16.5505 33.8008 16.4658C33.5664 16.3812 33.3662 16.2786 33.2002 16.1582C33.0374 16.0378 32.9121 15.8962 32.8242 15.7334C32.7363 15.5706 32.6924 15.3802 32.6924 15.1621C32.6924 14.9538 32.738 14.7568 32.8291 14.5713C32.9235 14.3857 33.0553 14.2214 33.2246 14.0781C33.3971 13.9349 33.6038 13.8226 33.8447 13.7412C34.0856 13.6598 34.3542 13.6191 34.6504 13.6191C35.0736 13.6191 35.4349 13.694 35.7344 13.8438C36.0339 13.9935 36.2633 14.1937 36.4229 14.4443C36.5824 14.6917 36.6621 14.9668 36.6621 15.2695H35.7588C35.7588 15.123 35.7148 14.9814 35.627 14.8447C35.5423 14.7048 35.417 14.5892 35.251 14.498C35.0882 14.4069 34.888 14.3613 34.6504 14.3613C34.3997 14.3613 34.1963 14.4004 34.04 14.4785C33.887 14.5534 33.7747 14.6494 33.7031 14.7666C33.6348 14.8838 33.6006 15.0075 33.6006 15.1377C33.6006 15.2354 33.6169 15.3232 33.6494 15.4014C33.6852 15.4762 33.7471 15.5462 33.835 15.6113C33.9229 15.6732 34.0465 15.7318 34.2061 15.7871C34.3656 15.8424 34.569 15.8978 34.8164 15.9531C35.2493 16.0508 35.6058 16.168 35.8857 16.3047C36.1657 16.4414 36.374 16.609 36.5107 16.8076C36.6475 17.0062 36.7158 17.2471 36.7158 17.5303C36.7158 17.7614 36.667 17.973 36.5693 18.165C36.4749 18.3571 36.3366 18.5231 36.1543 18.6631C35.9753 18.7998 35.7604 18.9072 35.5098 18.9854C35.2624 19.0602 34.984 19.0977 34.6748 19.0977C34.2093 19.0977 33.8154 19.0146 33.4932 18.8486C33.1709 18.6826 32.9268 18.4678 32.7607 18.2041C32.5947 17.9404 32.5117 17.6621 32.5117 17.3691H33.4199C33.4329 17.6165 33.5046 17.8135 33.6348 17.96C33.765 18.1032 33.9245 18.2057 34.1133 18.2676C34.3021 18.3262 34.4893 18.3555 34.6748 18.3555C34.9222 18.3555 35.1289 18.3229 35.2949 18.2578C35.4642 18.1927 35.5928 18.1032 35.6807 17.9893C35.7686 17.8753 35.8125 17.7451 35.8125 17.5986ZM38.8105 11.5V19H37.9023V11.5H38.8105ZM42.0381 13.7168L39.7334 16.1826L38.4443 17.5205L38.3711 16.5586L39.2939 15.4551L40.9346 13.7168H42.0381ZM41.2129 19L39.3281 16.4805L39.7969 15.6748L42.2773 19H41.2129ZM46.0859 18.0967V15.377C46.0859 15.1686 46.0436 14.988 45.959 14.835C45.8776 14.6787 45.7539 14.5583 45.5879 14.4736C45.4219 14.389 45.2168 14.3467 44.9727 14.3467C44.7448 14.3467 44.5446 14.3857 44.3721 14.4639C44.2028 14.542 44.0693 14.6445 43.9717 14.7715C43.8773 14.8984 43.8301 15.0352 43.8301 15.1816H42.9268C42.9268 14.9928 42.9756 14.8057 43.0732 14.6201C43.1709 14.4346 43.3109 14.2669 43.4932 14.1172C43.6787 13.9642 43.9001 13.8438 44.1572 13.7559C44.4176 13.6647 44.7074 13.6191 45.0264 13.6191C45.4105 13.6191 45.749 13.6842 46.042 13.8145C46.3382 13.9447 46.5693 14.1416 46.7354 14.4053C46.9046 14.6657 46.9893 14.9928 46.9893 15.3867V17.8477C46.9893 18.0234 47.0039 18.2106 47.0332 18.4092C47.0658 18.6077 47.113 18.7786 47.1748 18.9219V19H46.2324C46.1868 18.8958 46.151 18.7575 46.125 18.585C46.099 18.4092 46.0859 18.2464 46.0859 18.0967ZM46.2422 15.7969L46.252 16.4316H45.3389C45.0817 16.4316 44.8522 16.4528 44.6504 16.4951C44.4486 16.5342 44.2793 16.5944 44.1426 16.6758C44.0059 16.7572 43.9017 16.8597 43.8301 16.9834C43.7585 17.1038 43.7227 17.2454 43.7227 17.4082C43.7227 17.5742 43.7601 17.7256 43.835 17.8623C43.9098 17.999 44.0221 18.1081 44.1719 18.1895C44.3249 18.2676 44.512 18.3066 44.7334 18.3066C45.0101 18.3066 45.2542 18.248 45.4658 18.1309C45.6774 18.0137 45.8451 17.8704 45.9688 17.7012C46.0957 17.5319 46.1641 17.3675 46.1738 17.208L46.5596 17.6426C46.5368 17.7793 46.4749 17.9307 46.374 18.0967C46.2731 18.2627 46.138 18.4222 45.9688 18.5752C45.8027 18.7249 45.6042 18.8503 45.373 18.9512C45.1452 19.0488 44.888 19.0977 44.6016 19.0977C44.2435 19.0977 43.9294 19.0277 43.6592 18.8877C43.3923 18.7477 43.1839 18.5605 43.0342 18.3262C42.8877 18.0885 42.8145 17.8232 42.8145 17.5303C42.8145 17.2471 42.8698 16.998 42.9805 16.7832C43.0911 16.5651 43.2507 16.3844 43.459 16.2412C43.6673 16.0947 43.918 15.984 44.2109 15.9092C44.5039 15.8343 44.8311 15.7969 45.1924 15.7969H46.2422ZM49.3135 14.7324V21.0312H48.4053V13.7168H49.2354L49.3135 14.7324ZM52.873 16.3145V16.417C52.873 16.8011 52.8275 17.1576 52.7363 17.4863C52.6452 17.8118 52.5117 18.0951 52.3359 18.3359C52.1634 18.5768 51.9502 18.764 51.6963 18.8975C51.4424 19.0309 51.151 19.0977 50.8223 19.0977C50.487 19.0977 50.1908 19.0423 49.9336 18.9316C49.6764 18.821 49.4583 18.6598 49.2793 18.4482C49.1003 18.2367 48.957 17.9827 48.8496 17.6865C48.7454 17.3903 48.6738 17.0566 48.6348 16.6855V16.1387C48.6738 15.748 48.7471 15.3981 48.8545 15.0889C48.9619 14.7796 49.1035 14.516 49.2793 14.2979C49.4583 14.0765 49.6748 13.9089 49.9287 13.7949C50.1826 13.6777 50.4756 13.6191 50.8076 13.6191C51.1396 13.6191 51.4342 13.6842 51.6914 13.8145C51.9486 13.9414 52.165 14.1237 52.3408 14.3613C52.5166 14.599 52.6484 14.8838 52.7363 15.2158C52.8275 15.5446 52.873 15.9108 52.873 16.3145ZM51.9648 16.417V16.3145C51.9648 16.0508 51.9372 15.8034 51.8818 15.5723C51.8265 15.3379 51.7402 15.1328 51.623 14.957C51.5091 14.778 51.3626 14.638 51.1836 14.5371C51.0046 14.4329 50.7913 14.3809 50.5439 14.3809C50.3161 14.3809 50.1175 14.4199 49.9482 14.498C49.7822 14.5762 49.6406 14.682 49.5234 14.8154C49.4062 14.9456 49.3102 15.0954 49.2354 15.2646C49.1637 15.4307 49.11 15.6032 49.0742 15.7822V17.0469C49.1393 17.2747 49.2305 17.4896 49.3477 17.6914C49.4648 17.89 49.6211 18.0511 49.8164 18.1748C50.0117 18.2952 50.2575 18.3555 50.5537 18.3555C50.7979 18.3555 51.0078 18.305 51.1836 18.2041C51.3626 18.0999 51.5091 17.9583 51.623 17.7793C51.7402 17.6003 51.8265 17.3952 51.8818 17.1641C51.9372 16.9297 51.9648 16.6807 51.9648 16.417ZM55.1729 11.8906V19H54.2305V11.8906H55.1729ZM58.8105 19H57.3262L57.3359 18.2334H58.8105C59.3184 18.2334 59.7415 18.1276 60.0801 17.916C60.4186 17.7012 60.6725 17.4017 60.8418 17.0176C61.0143 16.6302 61.1006 16.1777 61.1006 15.6602V15.2256C61.1006 14.8187 61.0518 14.4574 60.9541 14.1416C60.8564 13.8226 60.7132 13.554 60.5244 13.3359C60.3356 13.1146 60.1045 12.9469 59.8311 12.833C59.5609 12.7191 59.25 12.6621 58.8984 12.6621H57.2969V11.8906H58.8984C59.3639 11.8906 59.7887 11.9688 60.1729 12.125C60.557 12.278 60.8874 12.501 61.1641 12.7939C61.444 13.0837 61.6589 13.4352 61.8086 13.8486C61.9583 14.2588 62.0332 14.721 62.0332 15.2354V15.6602C62.0332 16.1745 61.9583 16.6383 61.8086 17.0518C61.6589 17.4619 61.4424 17.8118 61.1592 18.1016C60.8792 18.3913 60.5407 18.6143 60.1436 18.7705C59.7497 18.9235 59.3053 19 58.8105 19ZM57.8291 11.8906V19H56.8867V11.8906H57.8291Z" fill="black"/>
<path d="M18.376 19.9766H62.624V20.4648H18.376V19.9766Z" fill="black"/>
<rect x="0.5" y="51.5" width="79" height="29" rx="14.5" fill="#F0F0F0" stroke="black"/>
<path d="M35.3584 61.8906V69H34.4111L30.832 63.5166V69H29.8896V61.8906H30.832L34.4258 67.3887V61.8906H35.3584ZM40.0068 68.0967V65.377C40.0068 65.1686 39.9645 64.988 39.8799 64.835C39.7985 64.6787 39.6748 64.5583 39.5088 64.4736C39.3428 64.389 39.1377 64.3467 38.8936 64.3467C38.6657 64.3467 38.4655 64.3857 38.293 64.4639C38.1237 64.542 37.9902 64.6445 37.8926 64.7715C37.7982 64.8984 37.751 65.0352 37.751 65.1816H36.8477C36.8477 64.9928 36.8965 64.8057 36.9941 64.6201C37.0918 64.4346 37.2318 64.2669 37.4141 64.1172C37.5996 63.9642 37.821 63.8438 38.0781 63.7559C38.3385 63.6647 38.6283 63.6191 38.9473 63.6191C39.3314 63.6191 39.6699 63.6842 39.9629 63.8145C40.2591 63.9447 40.4902 64.1416 40.6562 64.4053C40.8255 64.6657 40.9102 64.9928 40.9102 65.3867V67.8477C40.9102 68.0234 40.9248 68.2106 40.9541 68.4092C40.9867 68.6077 41.0339 68.7786 41.0957 68.9219V69H40.1533C40.1077 68.8958 40.0719 68.7575 40.0459 68.585C40.0199 68.4092 40.0068 68.2464 40.0068 68.0967ZM40.1631 65.7969L40.1729 66.4316H39.2598C39.0026 66.4316 38.7731 66.4528 38.5713 66.4951C38.3695 66.5342 38.2002 66.5944 38.0635 66.6758C37.9268 66.7572 37.8226 66.8597 37.751 66.9834C37.6794 67.1038 37.6436 67.2454 37.6436 67.4082C37.6436 67.5742 37.681 67.7256 37.7559 67.8623C37.8307 67.999 37.943 68.1081 38.0928 68.1895C38.2458 68.2676 38.4329 68.3066 38.6543 68.3066C38.931 68.3066 39.1751 68.248 39.3867 68.1309C39.5983 68.0137 39.766 67.8704 39.8896 67.7012C40.0166 67.5319 40.085 67.3675 40.0947 67.208L40.4805 67.6426C40.4577 67.7793 40.3958 67.9307 40.2949 68.0967C40.194 68.2627 40.0589 68.4222 39.8896 68.5752C39.7236 68.7249 39.5251 68.8503 39.2939 68.9512C39.0661 69.0488 38.8089 69.0977 38.5225 69.0977C38.1644 69.0977 37.8503 69.0277 37.5801 68.8877C37.3132 68.7477 37.1048 68.5605 36.9551 68.3262C36.8086 68.0885 36.7354 67.8232 36.7354 67.5303C36.7354 67.2471 36.7907 66.998 36.9014 66.7832C37.012 66.5651 37.1715 66.3844 37.3799 66.2412C37.5882 66.0947 37.8389 65.984 38.1318 65.9092C38.4248 65.8343 38.752 65.7969 39.1133 65.7969H40.1631ZM43.8594 68.1846L45.3047 63.7168H46.2275L44.3281 69H43.7227L43.8594 68.1846ZM42.6533 63.7168L44.1426 68.209L44.2451 69H43.6396L41.7256 63.7168H42.6533ZM48 64.8447V69H47.0967V63.7168H47.9512L48 64.8447ZM47.7852 66.1582L47.4092 66.1436C47.4124 65.7822 47.4661 65.4486 47.5703 65.1426C47.6745 64.8333 47.821 64.5648 48.0098 64.3369C48.1986 64.109 48.4232 63.9333 48.6836 63.8096C48.9473 63.6826 49.2386 63.6191 49.5576 63.6191C49.818 63.6191 50.0524 63.6549 50.2607 63.7266C50.4691 63.7949 50.6465 63.9056 50.793 64.0586C50.9427 64.2116 51.0566 64.4102 51.1348 64.6543C51.2129 64.8952 51.252 65.1898 51.252 65.5381V69H50.3438V65.5283C50.3438 65.2516 50.3031 65.0303 50.2217 64.8643C50.1403 64.695 50.0215 64.5729 49.8652 64.498C49.709 64.4199 49.5169 64.3809 49.2891 64.3809C49.0645 64.3809 48.8594 64.4281 48.6738 64.5225C48.4915 64.6169 48.3337 64.7471 48.2002 64.9131C48.07 65.0791 47.9674 65.2695 47.8926 65.4844C47.821 65.696 47.7852 65.9206 47.7852 66.1582Z" fill="black"/>
<rect x="276" y="398" width="183" height="0.999992" transform="rotate(90 276 398)" fill="black"/>
<rect x="275.426" y="447.707" width="59" height="59" transform="rotate(45 275.426 447.707)" fill="#E0E0E0" stroke="black"/>
<path d="M257.533 491.834V493H253.004V491.834H257.533ZM253.42 484.469V493H251.949V484.469H253.42ZM256.941 488.031V489.18H253.004V488.031H256.941ZM257.504 484.469V485.641H253.004V484.469H257.504ZM260.105 486.66V493H258.688V486.66H260.105ZM258.594 484.996C258.594 484.781 258.664 484.604 258.805 484.463C258.949 484.318 259.148 484.246 259.402 484.246C259.652 484.246 259.85 484.318 259.994 484.463C260.139 484.604 260.211 484.781 260.211 484.996C260.211 485.207 260.139 485.383 259.994 485.523C259.85 485.664 259.652 485.734 259.402 485.734C259.148 485.734 258.949 485.664 258.805 485.523C258.664 485.383 258.594 485.207 258.594 484.996ZM264.447 493.117C263.979 493.117 263.555 493.041 263.176 492.889C262.801 492.732 262.48 492.516 262.215 492.238C261.953 491.961 261.752 491.635 261.611 491.26C261.471 490.885 261.4 490.48 261.4 490.047V489.812C261.4 489.316 261.473 488.867 261.617 488.465C261.762 488.062 261.963 487.719 262.221 487.434C262.479 487.145 262.783 486.924 263.135 486.771C263.486 486.619 263.867 486.543 264.277 486.543C264.73 486.543 265.127 486.619 265.467 486.771C265.807 486.924 266.088 487.139 266.311 487.416C266.537 487.689 266.705 488.016 266.814 488.395C266.928 488.773 266.984 489.191 266.984 489.648V490.252H262.086V489.238H265.59V489.127C265.582 488.873 265.531 488.635 265.438 488.412C265.348 488.189 265.209 488.01 265.021 487.873C264.834 487.736 264.584 487.668 264.271 487.668C264.037 487.668 263.828 487.719 263.645 487.82C263.465 487.918 263.314 488.061 263.193 488.248C263.072 488.436 262.979 488.662 262.912 488.928C262.85 489.189 262.818 489.484 262.818 489.812V490.047C262.818 490.324 262.855 490.582 262.93 490.82C263.008 491.055 263.121 491.26 263.27 491.436C263.418 491.611 263.598 491.75 263.809 491.852C264.02 491.949 264.26 491.998 264.529 491.998C264.869 491.998 265.172 491.93 265.438 491.793C265.703 491.656 265.934 491.463 266.129 491.213L266.873 491.934C266.736 492.133 266.559 492.324 266.34 492.508C266.121 492.688 265.854 492.834 265.537 492.947C265.225 493.061 264.861 493.117 264.447 493.117ZM269.504 487.867V493H268.092V486.66H269.439L269.504 487.867ZM271.443 486.619L271.432 487.932C271.346 487.916 271.252 487.904 271.15 487.896C271.053 487.889 270.955 487.885 270.857 487.885C270.615 487.885 270.402 487.92 270.219 487.99C270.035 488.057 269.881 488.154 269.756 488.283C269.635 488.408 269.541 488.561 269.475 488.74C269.408 488.92 269.369 489.121 269.357 489.344L269.035 489.367C269.035 488.969 269.074 488.6 269.152 488.26C269.23 487.92 269.348 487.621 269.504 487.363C269.664 487.105 269.863 486.904 270.102 486.76C270.344 486.615 270.623 486.543 270.939 486.543C271.025 486.543 271.117 486.551 271.215 486.566C271.316 486.582 271.393 486.6 271.443 486.619ZM275.668 489.145H273.494L273.482 488.072H275.381C275.701 488.072 275.973 488.025 276.195 487.932C276.422 487.834 276.594 487.695 276.711 487.516C276.828 487.332 276.887 487.111 276.887 486.854C276.887 486.568 276.832 486.336 276.723 486.156C276.613 485.977 276.445 485.846 276.219 485.764C275.996 485.682 275.711 485.641 275.363 485.641H273.939V493H272.469V484.469H275.363C275.832 484.469 276.25 484.514 276.617 484.604C276.988 484.693 277.303 484.834 277.561 485.025C277.822 485.213 278.02 485.451 278.152 485.74C278.289 486.029 278.357 486.373 278.357 486.771C278.357 487.123 278.273 487.445 278.105 487.738C277.938 488.027 277.689 488.264 277.361 488.447C277.033 488.631 276.625 488.74 276.137 488.775L275.668 489.145ZM275.604 493H273.031L273.693 491.834H275.604C275.936 491.834 276.213 491.779 276.436 491.67C276.658 491.557 276.824 491.402 276.934 491.207C277.047 491.008 277.104 490.775 277.104 490.51C277.104 490.232 277.055 489.992 276.957 489.789C276.859 489.582 276.705 489.424 276.494 489.314C276.283 489.201 276.008 489.145 275.668 489.145H274.016L274.027 488.072H276.178L276.512 488.477C276.98 488.492 277.365 488.596 277.666 488.787C277.971 488.979 278.197 489.227 278.346 489.531C278.494 489.836 278.568 490.164 278.568 490.516C278.568 491.059 278.449 491.514 278.211 491.881C277.977 492.248 277.639 492.527 277.197 492.719C276.756 492.906 276.225 493 275.604 493ZM279.641 489.9V489.766C279.641 489.309 279.707 488.885 279.84 488.494C279.973 488.1 280.164 487.758 280.414 487.469C280.668 487.176 280.977 486.949 281.34 486.789C281.707 486.625 282.121 486.543 282.582 486.543C283.047 486.543 283.461 486.625 283.824 486.789C284.191 486.949 284.502 487.176 284.756 487.469C285.01 487.758 285.203 488.1 285.336 488.494C285.469 488.885 285.535 489.309 285.535 489.766V489.9C285.535 490.357 285.469 490.781 285.336 491.172C285.203 491.562 285.01 491.904 284.756 492.197C284.502 492.486 284.193 492.713 283.83 492.877C283.467 493.037 283.055 493.117 282.594 493.117C282.129 493.117 281.713 493.037 281.346 492.877C280.982 492.713 280.674 492.486 280.42 492.197C280.166 491.904 279.973 491.562 279.84 491.172C279.707 490.781 279.641 490.357 279.641 489.9ZM281.053 489.766V489.9C281.053 490.186 281.082 490.455 281.141 490.709C281.199 490.963 281.291 491.186 281.416 491.377C281.541 491.568 281.701 491.719 281.896 491.828C282.092 491.938 282.324 491.992 282.594 491.992C282.855 491.992 283.082 491.938 283.273 491.828C283.469 491.719 283.629 491.568 283.754 491.377C283.879 491.186 283.971 490.963 284.029 490.709C284.092 490.455 284.123 490.186 284.123 489.9V489.766C284.123 489.484 284.092 489.219 284.029 488.969C283.971 488.715 283.877 488.49 283.748 488.295C283.623 488.1 283.463 487.947 283.268 487.838C283.076 487.725 282.848 487.668 282.582 487.668C282.316 487.668 282.086 487.725 281.891 487.838C281.699 487.947 281.541 488.1 281.416 488.295C281.291 488.49 281.199 488.715 281.141 488.969C281.082 489.219 281.053 489.484 281.053 489.766ZM288.23 484V493H286.812V484H288.23ZM291.289 486.66V493H289.871V486.66H291.289ZM289.777 484.996C289.777 484.781 289.848 484.604 289.988 484.463C290.133 484.318 290.332 484.246 290.586 484.246C290.836 484.246 291.033 484.318 291.178 484.463C291.322 484.604 291.395 484.781 291.395 484.996C291.395 485.207 291.322 485.383 291.178 485.523C291.033 485.664 290.836 485.734 290.586 485.734C290.332 485.734 290.133 485.664 289.988 485.523C289.848 485.383 289.777 485.207 289.777 484.996ZM296.896 486.66H298.18V492.824C298.18 493.395 298.059 493.879 297.816 494.277C297.574 494.676 297.236 494.979 296.803 495.186C296.369 495.396 295.867 495.502 295.297 495.502C295.055 495.502 294.785 495.467 294.488 495.396C294.195 495.326 293.91 495.213 293.633 495.057C293.359 494.904 293.131 494.703 292.947 494.453L293.609 493.621C293.836 493.891 294.086 494.088 294.359 494.213C294.633 494.338 294.92 494.4 295.221 494.4C295.545 494.4 295.82 494.34 296.047 494.219C296.277 494.102 296.455 493.928 296.58 493.697C296.705 493.467 296.768 493.186 296.768 492.854V488.096L296.896 486.66ZM292.59 489.9V489.777C292.59 489.297 292.648 488.859 292.766 488.465C292.883 488.066 293.051 487.725 293.27 487.439C293.488 487.15 293.754 486.93 294.066 486.777C294.379 486.621 294.732 486.543 295.127 486.543C295.537 486.543 295.887 486.617 296.176 486.766C296.469 486.914 296.713 487.127 296.908 487.404C297.104 487.678 297.256 488.006 297.365 488.389C297.479 488.768 297.562 489.189 297.617 489.654V490.047C297.566 490.5 297.48 490.914 297.359 491.289C297.238 491.664 297.078 491.988 296.879 492.262C296.68 492.535 296.434 492.746 296.141 492.895C295.852 493.043 295.51 493.117 295.115 493.117C294.729 493.117 294.379 493.037 294.066 492.877C293.758 492.717 293.492 492.492 293.27 492.203C293.051 491.914 292.883 491.574 292.766 491.184C292.648 490.789 292.59 490.361 292.59 489.9ZM294.002 489.777V489.9C294.002 490.189 294.029 490.459 294.084 490.709C294.143 490.959 294.23 491.18 294.348 491.371C294.469 491.559 294.621 491.707 294.805 491.816C294.992 491.922 295.213 491.975 295.467 491.975C295.799 491.975 296.07 491.904 296.281 491.764C296.496 491.623 296.66 491.434 296.773 491.195C296.891 490.953 296.973 490.684 297.02 490.387V489.326C296.996 489.096 296.947 488.881 296.873 488.682C296.803 488.482 296.707 488.309 296.586 488.16C296.465 488.008 296.312 487.891 296.129 487.809C295.945 487.723 295.729 487.68 295.479 487.68C295.225 487.68 295.004 487.734 294.816 487.844C294.629 487.953 294.475 488.104 294.354 488.295C294.236 488.486 294.148 488.709 294.09 488.963C294.031 489.217 294.002 489.488 294.002 489.777Z" fill="black"/>
<path d="M278.307 407.59V407.531C278.307 406.68 278.402 405.91 278.594 405.223C278.785 404.531 279.029 403.926 279.326 403.406C279.623 402.887 279.936 402.457 280.264 402.117C280.592 401.773 280.895 401.525 281.172 401.373L281.4 402.088C281.17 402.264 280.936 402.506 280.697 402.814C280.463 403.123 280.246 403.502 280.047 403.951C279.852 404.4 279.693 404.922 279.572 405.516C279.451 406.109 279.391 406.777 279.391 407.52V407.602C279.391 408.344 279.451 409.014 279.572 409.611C279.693 410.205 279.852 410.729 280.047 411.182C280.246 411.635 280.463 412.02 280.697 412.336C280.936 412.656 281.17 412.91 281.4 413.098L281.172 413.754C280.895 413.602 280.592 413.354 280.264 413.01C279.936 412.67 279.623 412.24 279.326 411.721C279.029 411.205 278.785 410.602 278.594 409.91C278.402 409.219 278.307 408.445 278.307 407.59ZM285.906 402.422V411H284.822V403.775L282.637 404.572V403.594L285.736 402.422H285.906ZM290.195 409.711V410.584C290.195 410.939 290.105 411.314 289.926 411.709C289.746 412.107 289.494 412.439 289.17 412.705L288.555 412.277C288.68 412.105 288.785 411.93 288.871 411.75C288.957 411.574 289.021 411.391 289.064 411.199C289.111 411.012 289.135 410.812 289.135 410.602V409.711H290.195ZM301.281 402.469V411H300.145L295.85 404.42V411H294.719V402.469H295.85L300.162 409.066V402.469H301.281ZM305.617 407.531V407.59C305.617 408.445 305.521 409.219 305.33 409.91C305.139 410.602 304.895 411.205 304.598 411.721C304.301 412.24 303.988 412.67 303.66 413.01C303.332 413.354 303.029 413.602 302.752 413.754L302.523 413.098C302.754 412.922 302.986 412.676 303.221 412.359C303.455 412.047 303.672 411.66 303.871 411.199C304.07 410.742 304.23 410.215 304.352 409.617C304.473 409.016 304.533 408.344 304.533 407.602V407.52C304.533 406.777 304.469 406.107 304.34 405.51C304.211 404.908 304.043 404.379 303.836 403.922C303.633 403.465 303.414 403.08 303.18 402.768C302.949 402.451 302.73 402.207 302.523 402.035L302.752 401.373C303.029 401.525 303.332 401.773 303.66 402.117C303.988 402.457 304.301 402.887 304.598 403.406C304.895 403.926 305.139 404.531 305.33 405.223C305.521 405.91 305.617 406.68 305.617 407.531Z" fill="black"/>
<path d="M278.307 572.59V572.531C278.307 571.68 278.402 570.91 278.594 570.223C278.785 569.531 279.029 568.926 279.326 568.406C279.623 567.887 279.936 567.457 280.264 567.117C280.592 566.773 280.895 566.525 281.172 566.373L281.4 567.088C281.17 567.264 280.936 567.506 280.697 567.814C280.463 568.123 280.246 568.502 280.047 568.951C279.852 569.4 279.693 569.922 279.572 570.516C279.451 571.109 279.391 571.777 279.391 572.52V572.602C279.391 573.344 279.451 574.014 279.572 574.611C279.693 575.205 279.852 575.729 280.047 576.182C280.246 576.635 280.463 577.02 280.697 577.336C280.936 577.656 281.17 577.91 281.4 578.098L281.172 578.754C280.895 578.602 280.592 578.354 280.264 578.01C279.936 577.67 279.623 577.24 279.326 576.721C279.029 576.205 278.785 575.602 278.594 574.91C278.402 574.219 278.307 573.445 278.307 572.59ZM285.906 567.422V576H284.822V568.775L282.637 569.572V568.594L285.736 567.422H285.906ZM290.195 574.711V575.584C290.195 575.939 290.105 576.314 289.926 576.709C289.746 577.107 289.494 577.439 289.17 577.705L288.555 577.277C288.68 577.105 288.785 576.93 288.871 576.75C288.957 576.574 289.021 576.391 289.064 576.199C289.111 576.012 289.135 575.812 289.135 575.602V574.711H290.195ZM301.281 567.469V576H300.145L295.85 569.42V576H294.719V567.469H295.85L300.162 574.066V567.469H301.281ZM305.617 572.531V572.59C305.617 573.445 305.521 574.219 305.33 574.91C305.139 575.602 304.895 576.205 304.598 576.721C304.301 577.24 303.988 577.67 303.66 578.01C303.332 578.354 303.029 578.602 302.752 578.754L302.523 578.098C302.754 577.922 302.986 577.676 303.221 577.359C303.455 577.047 303.672 576.66 303.871 576.199C304.07 575.742 304.23 575.215 304.352 574.617C304.473 574.016 304.533 573.344 304.533 572.602V572.52C304.533 571.777 304.469 571.107 304.34 570.51C304.211 569.908 304.043 569.379 303.836 568.922C303.633 568.465 303.414 568.08 303.18 567.768C302.949 567.451 302.73 567.207 302.523 567.035L302.752 566.373C303.029 566.525 303.332 566.773 303.66 567.117C303.988 567.457 304.301 567.887 304.598 568.406C304.895 568.926 305.139 569.531 305.33 570.223C305.521 570.91 305.617 571.68 305.617 572.531Z" fill="black"/>
<rect x="225.5" y="298.5" width="99" height="99" fill="#DFD9FF" stroke="#7B61FF"/>
<path d="M238.361 349.381V343.469H240.113V349.381C240.113 349.951 239.988 350.441 239.738 350.852C239.488 351.258 239.146 351.57 238.713 351.789C238.283 352.008 237.799 352.117 237.26 352.117C236.701 352.117 236.207 352.023 235.777 351.836C235.348 351.648 235.01 351.361 234.764 350.975C234.518 350.584 234.395 350.09 234.395 349.492H236.158C236.158 349.805 236.201 350.053 236.287 350.236C236.377 350.42 236.504 350.551 236.668 350.629C236.832 350.707 237.029 350.746 237.26 350.746C237.482 350.746 237.676 350.693 237.84 350.588C238.004 350.482 238.131 350.328 238.221 350.125C238.314 349.922 238.361 349.674 238.361 349.381ZM245.258 350.482V345.66H246.945V352H245.357L245.258 350.482ZM245.445 349.182L245.943 349.17C245.943 349.592 245.895 349.984 245.797 350.348C245.699 350.707 245.553 351.02 245.357 351.285C245.162 351.547 244.916 351.752 244.619 351.9C244.322 352.045 243.973 352.117 243.57 352.117C243.262 352.117 242.977 352.074 242.715 351.988C242.457 351.898 242.234 351.76 242.047 351.572C241.863 351.381 241.719 351.137 241.613 350.84C241.512 350.539 241.461 350.178 241.461 349.756V345.66H243.148V349.768C243.148 349.955 243.17 350.113 243.213 350.242C243.26 350.371 243.324 350.477 243.406 350.559C243.488 350.641 243.584 350.699 243.693 350.734C243.807 350.77 243.932 350.787 244.068 350.787C244.416 350.787 244.689 350.717 244.889 350.576C245.092 350.436 245.234 350.244 245.316 350.002C245.402 349.756 245.445 349.482 245.445 349.182ZM249.922 347.043V352H248.234V345.66H249.822L249.922 347.043ZM251.832 345.619L251.803 347.184C251.721 347.172 251.621 347.162 251.504 347.154C251.391 347.143 251.287 347.137 251.193 347.137C250.955 347.137 250.748 347.168 250.572 347.23C250.4 347.289 250.256 347.377 250.139 347.494C250.025 347.611 249.939 347.754 249.881 347.922C249.826 348.09 249.795 348.281 249.787 348.496L249.447 348.391C249.447 347.98 249.488 347.604 249.57 347.26C249.652 346.912 249.771 346.609 249.928 346.352C250.088 346.094 250.283 345.895 250.514 345.754C250.744 345.613 251.008 345.543 251.305 345.543C251.398 345.543 251.494 345.551 251.592 345.566C251.689 345.578 251.77 345.596 251.832 345.619ZM254.41 345.66V352H252.717V345.66H254.41ZM252.611 344.008C252.611 343.762 252.697 343.559 252.869 343.398C253.041 343.238 253.271 343.158 253.561 343.158C253.846 343.158 254.074 343.238 254.246 343.398C254.422 343.559 254.51 343.762 254.51 344.008C254.51 344.254 254.422 344.457 254.246 344.617C254.074 344.777 253.846 344.857 253.561 344.857C253.271 344.857 253.041 344.777 252.869 344.617C252.697 344.457 252.611 344.254 252.611 344.008ZM259.549 350.617V343H261.248V352H259.719L259.549 350.617ZM255.541 348.906V348.783C255.541 348.299 255.596 347.859 255.705 347.465C255.814 347.066 255.975 346.725 256.186 346.439C256.396 346.154 256.656 345.934 256.965 345.777C257.273 345.621 257.625 345.543 258.02 345.543C258.391 345.543 258.715 345.621 258.992 345.777C259.273 345.934 259.512 346.156 259.707 346.445C259.906 346.73 260.066 347.068 260.188 347.459C260.309 347.846 260.396 348.27 260.451 348.73V349C260.396 349.441 260.309 349.852 260.188 350.23C260.066 350.609 259.906 350.941 259.707 351.227C259.512 351.508 259.273 351.727 258.992 351.883C258.711 352.039 258.383 352.117 258.008 352.117C257.613 352.117 257.262 352.037 256.953 351.877C256.648 351.717 256.391 351.492 256.18 351.203C255.973 350.914 255.814 350.574 255.705 350.184C255.596 349.793 255.541 349.367 255.541 348.906ZM257.229 348.783V348.906C257.229 349.168 257.248 349.412 257.287 349.639C257.33 349.865 257.398 350.066 257.492 350.242C257.59 350.414 257.715 350.549 257.867 350.646C258.023 350.74 258.213 350.787 258.436 350.787C258.725 350.787 258.963 350.723 259.15 350.594C259.338 350.461 259.48 350.279 259.578 350.049C259.68 349.818 259.738 349.553 259.754 349.252V348.484C259.742 348.238 259.707 348.018 259.648 347.822C259.594 347.623 259.512 347.453 259.402 347.312C259.297 347.172 259.164 347.062 259.004 346.984C258.848 346.906 258.662 346.867 258.447 346.867C258.229 346.867 258.041 346.918 257.885 347.02C257.729 347.117 257.602 347.252 257.504 347.424C257.41 347.596 257.34 347.799 257.293 348.033C257.25 348.264 257.229 348.514 257.229 348.783ZM264.348 345.66V352H262.654V345.66H264.348ZM262.549 344.008C262.549 343.762 262.635 343.559 262.807 343.398C262.979 343.238 263.209 343.158 263.498 343.158C263.783 343.158 264.012 343.238 264.184 343.398C264.359 343.559 264.447 343.762 264.447 344.008C264.447 344.254 264.359 344.457 264.184 344.617C264.012 344.777 263.783 344.857 263.498 344.857C263.209 344.857 262.979 344.777 262.807 344.617C262.635 344.457 262.549 344.254 262.549 344.008ZM269.17 350.248C269.17 350.127 269.135 350.018 269.064 349.92C268.994 349.822 268.863 349.732 268.672 349.65C268.484 349.564 268.213 349.486 267.857 349.416C267.537 349.346 267.238 349.258 266.961 349.152C266.688 349.043 266.449 348.912 266.246 348.76C266.047 348.607 265.891 348.428 265.777 348.221C265.664 348.01 265.607 347.77 265.607 347.5C265.607 347.234 265.664 346.984 265.777 346.75C265.895 346.516 266.061 346.309 266.275 346.129C266.494 345.945 266.76 345.803 267.072 345.701C267.389 345.596 267.744 345.543 268.139 345.543C268.689 345.543 269.162 345.631 269.557 345.807C269.955 345.982 270.26 346.225 270.471 346.533C270.686 346.838 270.793 347.186 270.793 347.576H269.105C269.105 347.412 269.07 347.266 269 347.137C268.934 347.004 268.828 346.9 268.684 346.826C268.543 346.748 268.359 346.709 268.133 346.709C267.945 346.709 267.783 346.742 267.646 346.809C267.51 346.871 267.404 346.957 267.33 347.066C267.26 347.172 267.225 347.289 267.225 347.418C267.225 347.516 267.244 347.604 267.283 347.682C267.326 347.756 267.395 347.824 267.488 347.887C267.582 347.949 267.703 348.008 267.852 348.062C268.004 348.113 268.191 348.16 268.414 348.203C268.871 348.297 269.279 348.42 269.639 348.572C269.998 348.721 270.283 348.924 270.494 349.182C270.705 349.436 270.811 349.77 270.811 350.184C270.811 350.465 270.748 350.723 270.623 350.957C270.498 351.191 270.318 351.396 270.084 351.572C269.85 351.744 269.568 351.879 269.24 351.977C268.916 352.07 268.551 352.117 268.145 352.117C267.555 352.117 267.055 352.012 266.645 351.801C266.238 351.59 265.93 351.322 265.719 350.998C265.512 350.67 265.408 350.334 265.408 349.99H267.008C267.016 350.221 267.074 350.406 267.184 350.547C267.297 350.688 267.439 350.789 267.611 350.852C267.787 350.914 267.977 350.945 268.18 350.945C268.398 350.945 268.58 350.916 268.725 350.857C268.869 350.795 268.979 350.713 269.053 350.611C269.131 350.506 269.17 350.385 269.17 350.248ZM273.594 342.994V352H271.906V342.994H273.594ZM277.59 345.66L274.836 348.801L273.359 350.295L272.744 349.076L273.916 347.588L275.562 345.66H277.59ZM275.838 352L273.963 349.07L275.129 348.051L277.783 352H275.838ZM281.744 348.959H279.57V347.588H281.744C282.08 347.588 282.354 347.533 282.564 347.424C282.775 347.311 282.93 347.154 283.027 346.955C283.125 346.756 283.174 346.531 283.174 346.281C283.174 346.027 283.125 345.791 283.027 345.572C282.93 345.354 282.775 345.178 282.564 345.045C282.354 344.912 282.08 344.846 281.744 344.846H280.18V352H278.422V343.469H281.744C282.412 343.469 282.984 343.59 283.461 343.832C283.941 344.07 284.309 344.4 284.562 344.822C284.816 345.244 284.943 345.727 284.943 346.27C284.943 346.82 284.816 347.297 284.562 347.699C284.309 348.102 283.941 348.412 283.461 348.631C282.984 348.85 282.412 348.959 281.744 348.959ZM288.887 352.117C288.395 352.117 287.953 352.039 287.562 351.883C287.172 351.723 286.84 351.502 286.566 351.221C286.297 350.939 286.09 350.613 285.945 350.242C285.801 349.867 285.729 349.469 285.729 349.047V348.812C285.729 348.332 285.797 347.893 285.934 347.494C286.07 347.096 286.266 346.75 286.52 346.457C286.777 346.164 287.09 345.939 287.457 345.783C287.824 345.623 288.238 345.543 288.699 345.543C289.148 345.543 289.547 345.617 289.895 345.766C290.242 345.914 290.533 346.125 290.768 346.398C291.006 346.672 291.186 347 291.307 347.383C291.428 347.762 291.488 348.184 291.488 348.648V349.352H286.449V348.227H289.83V348.098C289.83 347.863 289.787 347.654 289.701 347.471C289.619 347.283 289.494 347.135 289.326 347.025C289.158 346.916 288.943 346.861 288.682 346.861C288.459 346.861 288.268 346.91 288.107 347.008C287.947 347.105 287.816 347.242 287.715 347.418C287.617 347.594 287.543 347.801 287.492 348.039C287.445 348.273 287.422 348.531 287.422 348.812V349.047C287.422 349.301 287.457 349.535 287.527 349.75C287.602 349.965 287.705 350.15 287.838 350.307C287.975 350.463 288.139 350.584 288.33 350.67C288.525 350.756 288.746 350.799 288.992 350.799C289.297 350.799 289.58 350.74 289.842 350.623C290.107 350.502 290.336 350.32 290.527 350.078L291.348 350.969C291.215 351.16 291.033 351.344 290.803 351.52C290.576 351.695 290.303 351.84 289.982 351.953C289.662 352.062 289.297 352.117 288.887 352.117ZM294.137 347.043V352H292.449V345.66H294.037L294.137 347.043ZM296.047 345.619L296.018 347.184C295.936 347.172 295.836 347.162 295.719 347.154C295.605 347.143 295.502 347.137 295.408 347.137C295.17 347.137 294.963 347.168 294.787 347.23C294.615 347.289 294.471 347.377 294.354 347.494C294.24 347.611 294.154 347.754 294.096 347.922C294.041 348.09 294.01 348.281 294.002 348.496L293.662 348.391C293.662 347.98 293.703 347.604 293.785 347.26C293.867 346.912 293.986 346.609 294.143 346.352C294.303 346.094 294.498 345.895 294.729 345.754C294.959 345.613 295.223 345.543 295.52 345.543C295.613 345.543 295.709 345.551 295.807 345.566C295.904 345.578 295.984 345.596 296.047 345.619ZM300.271 350.248C300.271 350.127 300.236 350.018 300.166 349.92C300.096 349.822 299.965 349.732 299.773 349.65C299.586 349.564 299.314 349.486 298.959 349.416C298.639 349.346 298.34 349.258 298.062 349.152C297.789 349.043 297.551 348.912 297.348 348.76C297.148 348.607 296.992 348.428 296.879 348.221C296.766 348.01 296.709 347.77 296.709 347.5C296.709 347.234 296.766 346.984 296.879 346.75C296.996 346.516 297.162 346.309 297.377 346.129C297.596 345.945 297.861 345.803 298.174 345.701C298.49 345.596 298.846 345.543 299.24 345.543C299.791 345.543 300.264 345.631 300.658 345.807C301.057 345.982 301.361 346.225 301.572 346.533C301.787 346.838 301.895 347.186 301.895 347.576H300.207C300.207 347.412 300.172 347.266 300.102 347.137C300.035 347.004 299.93 346.9 299.785 346.826C299.645 346.748 299.461 346.709 299.234 346.709C299.047 346.709 298.885 346.742 298.748 346.809C298.611 346.871 298.506 346.957 298.432 347.066C298.361 347.172 298.326 347.289 298.326 347.418C298.326 347.516 298.346 347.604 298.385 347.682C298.428 347.756 298.496 347.824 298.59 347.887C298.684 347.949 298.805 348.008 298.953 348.062C299.105 348.113 299.293 348.16 299.516 348.203C299.973 348.297 300.381 348.42 300.74 348.572C301.1 348.721 301.385 348.924 301.596 349.182C301.807 349.436 301.912 349.77 301.912 350.184C301.912 350.465 301.85 350.723 301.725 350.957C301.6 351.191 301.42 351.396 301.186 351.572C300.951 351.744 300.67 351.879 300.342 351.977C300.018 352.07 299.652 352.117 299.246 352.117C298.656 352.117 298.156 352.012 297.746 351.801C297.34 351.59 297.031 351.322 296.82 350.998C296.613 350.67 296.51 350.334 296.51 349.99H298.109C298.117 350.221 298.176 350.406 298.285 350.547C298.398 350.688 298.541 350.789 298.713 350.852C298.889 350.914 299.078 350.945 299.281 350.945C299.5 350.945 299.682 350.916 299.826 350.857C299.971 350.795 300.08 350.713 300.154 350.611C300.232 350.506 300.271 350.385 300.271 350.248ZM302.738 348.895V348.771C302.738 348.307 302.805 347.879 302.938 347.488C303.07 347.094 303.264 346.752 303.518 346.463C303.771 346.174 304.084 345.949 304.455 345.789C304.826 345.625 305.252 345.543 305.732 345.543C306.213 345.543 306.641 345.625 307.016 345.789C307.391 345.949 307.705 346.174 307.959 346.463C308.217 346.752 308.412 347.094 308.545 347.488C308.678 347.879 308.744 348.307 308.744 348.771V348.895C308.744 349.355 308.678 349.783 308.545 350.178C308.412 350.568 308.217 350.91 307.959 351.203C307.705 351.492 307.393 351.717 307.021 351.877C306.65 352.037 306.225 352.117 305.744 352.117C305.264 352.117 304.836 352.037 304.461 351.877C304.09 351.717 303.775 351.492 303.518 351.203C303.264 350.91 303.07 350.568 302.938 350.178C302.805 349.783 302.738 349.355 302.738 348.895ZM304.426 348.771V348.895C304.426 349.16 304.449 349.408 304.496 349.639C304.543 349.869 304.617 350.072 304.719 350.248C304.824 350.42 304.961 350.555 305.129 350.652C305.297 350.75 305.502 350.799 305.744 350.799C305.979 350.799 306.18 350.75 306.348 350.652C306.516 350.555 306.65 350.42 306.752 350.248C306.854 350.072 306.928 349.869 306.975 349.639C307.025 349.408 307.051 349.16 307.051 348.895V348.771C307.051 348.514 307.025 348.271 306.975 348.045C306.928 347.814 306.852 347.611 306.746 347.436C306.645 347.256 306.51 347.115 306.342 347.014C306.174 346.912 305.971 346.861 305.732 346.861C305.494 346.861 305.291 346.912 305.123 347.014C304.959 347.115 304.824 347.256 304.719 347.436C304.617 347.611 304.543 347.814 304.496 348.045C304.449 348.271 304.426 348.514 304.426 348.771ZM311.434 347.014V352H309.746V345.66H311.328L311.434 347.014ZM311.188 348.607H310.73C310.73 348.139 310.791 347.717 310.912 347.342C311.033 346.963 311.203 346.641 311.422 346.375C311.641 346.105 311.9 345.9 312.201 345.76C312.506 345.615 312.846 345.543 313.221 345.543C313.518 345.543 313.789 345.586 314.035 345.672C314.281 345.758 314.492 345.895 314.668 346.082C314.848 346.27 314.984 346.518 315.078 346.826C315.176 347.135 315.225 347.512 315.225 347.957V352H313.525V347.951C313.525 347.67 313.486 347.451 313.408 347.295C313.33 347.139 313.215 347.029 313.062 346.967C312.914 346.9 312.73 346.867 312.512 346.867C312.285 346.867 312.088 346.912 311.92 347.002C311.756 347.092 311.619 347.217 311.51 347.377C311.404 347.533 311.324 347.717 311.27 347.928C311.215 348.139 311.188 348.365 311.188 348.607Z" fill="#7B61FF"/>
</svg>
